M48
; DRILL file KiCad 10.0.0 date 2026-04-12T22:18:56
; FORMAT={-:-/ absolute / metric / decimal}
; #@! TF.CreationDate,2026-04-12T22:18:56-05:00
; #@! TF.GenerationSoftware,Kicad,Pcbnew,10.0.0
; #@! TF.FileFunction,Plated,1,2,PTH
FMAT,2
METRIC
; #@! TA.AperFunction,Plated,PTH,ViaDrill
T1C0.300
; #@! TA.AperFunction,Plated,PTH,ComponentDrill
T2C1.000
%
G90
G05
T1
X31.115Y-97.155
X31.75Y-32.385
X39.37Y-68.58
X39.37Y-73.66
X39.37Y-76.2
X39.37Y-78.74
X39.37Y-81.28
X39.37Y-83.82
X39.37Y-88.265
X40.64Y-37.465
X40.64Y-45.72
X40.64Y-48.26
X40.64Y-50.8
X40.64Y-53.34
X40.64Y-55.88
X41.91Y-58.42
X41.91Y-60.96
X57.785Y-45.72
X57.785Y-60.96
X57.785Y-73.66
X57.785Y-88.9
X64.77Y-38.1
X65.405Y-43.18
X65.405Y-45.72
X65.405Y-48.26
X65.405Y-50.8
X65.405Y-53.34
X65.405Y-55.88
X65.405Y-58.42
X65.405Y-60.96
X65.405Y-67.31
X65.405Y-73.66
X65.405Y-76.2
X65.405Y-78.74
X65.405Y-81.28
X65.405Y-83.82
X65.405Y-86.995
X83.82Y-40.64
X84.455Y-79.375
X93.345Y-41.275
X93.345Y-79.375
X100.33Y-96.52
X100.965Y-31.75
T2
X33.655Y-49.53
X33.655Y-52.07
X33.655Y-54.61
X33.655Y-57.15
X33.655Y-59.69
X33.655Y-62.23
X33.655Y-64.77
X33.655Y-67.31
X33.655Y-69.85
X33.655Y-72.39
X33.655Y-74.93
X33.655Y-77.47
X33.655Y-80.01
X33.655Y-82.55
X33.655Y-85.09
X43.815Y-41.91
X43.815Y-44.45
X43.815Y-46.99
X43.815Y-49.53
X43.815Y-52.07
X43.815Y-54.61
X43.815Y-57.15
X43.815Y-59.69
X43.815Y-62.23
X43.815Y-64.77
X43.815Y-69.85
X43.815Y-72.39
X43.815Y-74.93
X43.815Y-77.47
X43.815Y-80.01
X43.815Y-82.55
X43.815Y-85.09
X43.815Y-87.63
X43.815Y-90.17
X43.815Y-92.71
X51.435Y-34.23
X53.975Y-34.23
X59.055Y-41.91
X59.055Y-44.45
X59.055Y-46.99
X59.055Y-49.53
X59.055Y-52.07
X59.055Y-54.61
X59.055Y-57.15
X59.055Y-59.69
X59.055Y-62.23
X59.055Y-64.77
X59.055Y-69.85
X59.055Y-72.39
X59.055Y-74.93
X59.055Y-77.47
X59.055Y-80.01
X59.055Y-82.55
X59.055Y-85.09
X59.055Y-87.63
X59.055Y-90.17
X59.055Y-92.71
X71.755Y-36.83
X71.755Y-39.37
X71.755Y-41.91
X71.755Y-44.45
X71.755Y-46.99
X71.755Y-49.53
X71.755Y-52.07
X71.755Y-54.61
X71.755Y-57.15
X71.755Y-59.69
X71.755Y-62.23
X71.755Y-64.77
X71.755Y-67.31
X71.755Y-69.85
X71.755Y-72.39
X71.755Y-74.93
X71.755Y-77.47
X71.755Y-80.01
X71.755Y-82.55
X71.755Y-85.09
X71.755Y-87.63
X71.755Y-90.17
X97.155Y-36.83
X97.155Y-39.37
X97.155Y-41.91
X97.155Y-44.45
X97.155Y-46.99
X97.155Y-49.53
X97.155Y-52.07
X97.155Y-54.61
X97.155Y-57.15
X97.155Y-59.69
X97.155Y-62.23
X97.155Y-64.77
X97.155Y-67.31
X97.155Y-69.85
X97.155Y-72.39
X97.155Y-74.93
X97.155Y-77.47
X97.155Y-80.01
X97.155Y-82.55
X97.155Y-85.09
X97.155Y-87.63
X97.155Y-90.17
M30
