%TF.GenerationSoftware,KiCad,Pcbnew,10.0.0*%
%TF.CreationDate,2026-04-12T22:18:38-05:00*%
%TF.ProjectId,ti99-kb-adapter,74693939-2d6b-4622-9d61-646170746572,rev?*%
%TF.SameCoordinates,Original*%
%TF.FileFunction,Copper,L1,Top*%
%TF.FilePolarity,Positive*%
%FSLAX46Y46*%
G04 Gerber Fmt 4.6, Leading zero omitted, Abs format (unit mm)*
G04 Created by KiCad (PCBNEW 10.0.0) date 2026-04-12 22:18:38*
%MOMM*%
%LPD*%
G01*
G04 APERTURE LIST*
%TA.AperFunction,ComponentPad*%
%ADD10R,1.700000X1.700000*%
%TD*%
%TA.AperFunction,ComponentPad*%
%ADD11C,1.700000*%
%TD*%
%TA.AperFunction,ViaPad*%
%ADD12C,0.600000*%
%TD*%
%TA.AperFunction,Conductor*%
%ADD13C,0.500000*%
%TD*%
G04 APERTURE END LIST*
D10*
%TO.P,J8,1,Pin_1_1*%
%TO.N,+5V*%
X53975000Y-34230000D03*
D11*
%TO.P,J8,2,Pin_2_2*%
%TO.N,GND*%
X51435000Y-34230000D03*
%TD*%
D10*
%TO.P,J7,1,Pin_1_1*%
%TO.N,/TXS1_B8*%
X33655000Y-49530000D03*
D11*
%TO.P,J7,2,Pin_2_2*%
%TO.N,/TXS1_B7*%
X33655000Y-52070000D03*
%TO.P,J7,3,Pin_3_3*%
%TO.N,/TXS1_B6*%
X33655000Y-54610000D03*
%TO.P,J7,4,Pin_4_4*%
%TO.N,/TXS1_B5*%
X33655000Y-57150000D03*
%TO.P,J7,5,Pin_5_5*%
%TO.N,/TXS1_B4*%
X33655000Y-59690000D03*
%TO.P,J7,6,Pin_6_6*%
%TO.N,unconnected-(J7-Pin_6-Pad6)*%
X33655000Y-62230000D03*
%TO.P,J7,7,Pin_7_7*%
%TO.N,/TXS1_B3*%
X33655000Y-64770000D03*
%TO.P,J7,8,Pin_8_8*%
%TO.N,/TXS1_B2*%
X33655000Y-67310000D03*
%TO.P,J7,9,Pin_9_9*%
%TO.N,/TXS1_B1*%
X33655000Y-69850000D03*
%TO.P,J7,10,Pin_10_10*%
%TO.N,/TXS2_B8*%
X33655000Y-72390000D03*
%TO.P,J7,11,Pin_11_11*%
%TO.N,/TXS2_B7*%
X33655000Y-74930000D03*
%TO.P,J7,12,Pin_12_12*%
%TO.N,/TXS2_B6*%
X33655000Y-77470000D03*
%TO.P,J7,13,Pin_13_13*%
%TO.N,/TXS2_B5*%
X33655000Y-80010000D03*
%TO.P,J7,14,Pin_14_14*%
%TO.N,/TXS2_B4*%
X33655000Y-82550000D03*
%TO.P,J7,15,Pin_15_15*%
%TO.N,/TXS2_B3*%
X33655000Y-85090000D03*
%TD*%
D10*
%TO.P,J6,1,Pin_1_1*%
%TO.N,GND*%
X43815000Y-69850000D03*
D11*
%TO.P,J6,2,Pin_2_2*%
%TO.N,/TXS2_B8*%
X43815000Y-72390000D03*
%TO.P,J6,3,Pin_3_3*%
%TO.N,/TXS2_B7*%
X43815000Y-74930000D03*
%TO.P,J6,4,Pin_4_4*%
%TO.N,/TXS2_B6*%
X43815000Y-77470000D03*
%TO.P,J6,5,Pin_5_5*%
%TO.N,/TXS2_B5*%
X43815000Y-80010000D03*
%TO.P,J6,6,Pin_6_6*%
%TO.N,/TXS2_B4*%
X43815000Y-82550000D03*
%TO.P,J6,7,Pin_7_7*%
%TO.N,/TXS2_B3*%
X43815000Y-85090000D03*
%TO.P,J6,8,Pin_8_8*%
%TO.N,unconnected-(J6-Pin_8-Pad8)*%
X43815000Y-87630000D03*
%TO.P,J6,9,Pin_9_9*%
%TO.N,unconnected-(J6-Pin_9-Pad9)*%
X43815000Y-90170000D03*
%TO.P,J6,10,Pin_10_10*%
%TO.N,+5V*%
X43815000Y-92710000D03*
%TD*%
%TO.P,J3,10,Pin_10_10*%
%TO.N,+3V3*%
X59055000Y-64770000D03*
%TO.P,J3,9,Pin_9_9*%
%TO.N,/GPIO18_A1*%
X59055000Y-62230000D03*
%TO.P,J3,8,Pin_8_8*%
%TO.N,/GPIO17_A2*%
X59055000Y-59690000D03*
%TO.P,J3,7,Pin_7_7*%
%TO.N,/GPIO16_A3*%
X59055000Y-57150000D03*
%TO.P,J3,6,Pin_6_6*%
%TO.N,/GPIO15_A4*%
X59055000Y-54610000D03*
%TO.P,J3,5,Pin_5_5*%
%TO.N,/GPIO7_A5*%
X59055000Y-52070000D03*
%TO.P,J3,4,Pin_4_4*%
%TO.N,/GPIO6_A6*%
X59055000Y-49530000D03*
%TO.P,J3,3,Pin_3_3*%
%TO.N,/GPIO5_A7*%
X59055000Y-46990000D03*
%TO.P,J3,2,Pin_2_2*%
%TO.N,/GPIO4_A8*%
X59055000Y-44450000D03*
D10*
%TO.P,J3,1,Pin_1_1*%
%TO.N,+3V3*%
X59055000Y-41910000D03*
%TD*%
D11*
%TO.P,J2,22,Pin_22_22*%
%TO.N,GND*%
X97155000Y-90170000D03*
%TO.P,J2,21,Pin_21_21*%
X97155000Y-87630000D03*
%TO.P,J2,20,Pin_20_20*%
%TO.N,unconnected-(J2-Pin_20-Pad20)*%
X97155000Y-85090000D03*
%TO.P,J2,19,Pin_19_19*%
%TO.N,unconnected-(J2-Pin_19-Pad19)*%
X97155000Y-82550000D03*
%TO.P,J2,18,Pin_18_18*%
%TO.N,unconnected-(J2-Pin_18-Pad18)*%
X97155000Y-80010000D03*
%TO.P,J2,17,Pin_17_17*%
%TO.N,unconnected-(J2-Pin_17-Pad17)*%
X97155000Y-77470000D03*
%TO.P,J2,16,Pin_16_16*%
%TO.N,unconnected-(J2-Pin_16-Pad16)*%
X97155000Y-74930000D03*
%TO.P,J2,15,Pin_15_15*%
%TO.N,unconnected-(J2-Pin_15-Pad15)*%
X97155000Y-72390000D03*
%TO.P,J2,14,Pin_14_14*%
%TO.N,unconnected-(J2-Pin_14-Pad14)*%
X97155000Y-69850000D03*
%TO.P,J2,13,Pin_13_13*%
%TO.N,unconnected-(J2-Pin_13-Pad13)*%
X97155000Y-67310000D03*
%TO.P,J2,12,Pin_12_12*%
%TO.N,unconnected-(J2-Pin_12-Pad12)*%
X97155000Y-64770000D03*
%TO.P,J2,11,Pin_11_11*%
%TO.N,unconnected-(J2-Pin_11-Pad11)*%
X97155000Y-62230000D03*
%TO.P,J2,10,Pin_10_10*%
%TO.N,unconnected-(J2-Pin_10-Pad10)*%
X97155000Y-59690000D03*
%TO.P,J2,9,Pin_9_9*%
%TO.N,unconnected-(J2-Pin_9-Pad9)*%
X97155000Y-57150000D03*
%TO.P,J2,8,Pin_8_8*%
%TO.N,unconnected-(J2-Pin_8-Pad8)*%
X97155000Y-54610000D03*
%TO.P,J2,7,Pin_7_7*%
%TO.N,unconnected-(J2-Pin_7-Pad7)*%
X97155000Y-52070000D03*
%TO.P,J2,6,Pin_6_6*%
%TO.N,unconnected-(J2-Pin_6-Pad6)*%
X97155000Y-49530000D03*
%TO.P,J2,5,Pin_5_5*%
%TO.N,unconnected-(J2-Pin_5-Pad5)*%
X97155000Y-46990000D03*
%TO.P,J2,4,Pin_4_4*%
%TO.N,unconnected-(J2-Pin_4-Pad4)*%
X97155000Y-44450000D03*
%TO.P,J2,3,Pin_3_3*%
%TO.N,unconnected-(J2-Pin_3-Pad3)*%
X97155000Y-41910000D03*
%TO.P,J2,2,Pin_2_2*%
%TO.N,unconnected-(J2-Pin_2-Pad2)*%
X97155000Y-39370000D03*
D10*
%TO.P,J2,1,Pin_1_1*%
%TO.N,GND*%
X97155000Y-36830000D03*
%TD*%
%TO.P,J1,1,Pin_1_1*%
%TO.N,+3V3*%
X71755000Y-36830000D03*
D11*
%TO.P,J1,2,Pin_2_2*%
X71755000Y-39370000D03*
%TO.P,J1,3,Pin_3_3*%
%TO.N,unconnected-(J1-Pin_3-Pad3)*%
X71755000Y-41910000D03*
%TO.P,J1,4,Pin_4_4*%
%TO.N,/GPIO4_A8*%
X71755000Y-44450000D03*
%TO.P,J1,5,Pin_5_5*%
%TO.N,/GPIO5_A7*%
X71755000Y-46990000D03*
%TO.P,J1,6,Pin_6_6*%
%TO.N,/GPIO6_A6*%
X71755000Y-49530000D03*
%TO.P,J1,7,Pin_7_7*%
%TO.N,/GPIO7_A5*%
X71755000Y-52070000D03*
%TO.P,J1,8,Pin_8_8*%
%TO.N,/GPIO15_A4*%
X71755000Y-54610000D03*
%TO.P,J1,9,Pin_9_9*%
%TO.N,/GPIO16_A3*%
X71755000Y-57150000D03*
%TO.P,J1,10,Pin_10_10*%
%TO.N,/GPIO17_A2*%
X71755000Y-59690000D03*
%TO.P,J1,11,Pin_11_11*%
%TO.N,/GPIO18_A1*%
X71755000Y-62230000D03*
%TO.P,J1,12,Pin_12_12*%
%TO.N,unconnected-(J1-Pin_12-Pad12)*%
X71755000Y-64770000D03*
%TO.P,J1,13,Pin_13_13*%
%TO.N,unconnected-(J1-Pin_13-Pad13)*%
X71755000Y-67310000D03*
%TO.P,J1,14,Pin_14_14*%
%TO.N,unconnected-(J1-Pin_14-Pad14)*%
X71755000Y-69850000D03*
%TO.P,J1,15,Pin_15_15*%
%TO.N,/GPIO9_A8*%
X71755000Y-72390000D03*
%TO.P,J1,16,Pin_16_16*%
%TO.N,/GPIO10_A7*%
X71755000Y-74930000D03*
%TO.P,J1,17,Pin_17_17*%
%TO.N,/GPIO11_A6*%
X71755000Y-77470000D03*
%TO.P,J1,18,Pin_18_18*%
%TO.N,/GPIO12_A5*%
X71755000Y-80010000D03*
%TO.P,J1,19,Pin_19_19*%
%TO.N,/GPIO13_A4*%
X71755000Y-82550000D03*
%TO.P,J1,20,Pin_20_20*%
%TO.N,/GPIO14_A3*%
X71755000Y-85090000D03*
%TO.P,J1,21,Pin_21_21*%
%TO.N,+5V*%
X71755000Y-87630000D03*
%TO.P,J1,22,Pin_22_22*%
%TO.N,unconnected-(J1-Pin_22-Pad22)*%
X71755000Y-90170000D03*
%TD*%
D10*
%TO.P,J4,1,Pin_1_1*%
%TO.N,GND*%
X43815000Y-41910000D03*
D11*
%TO.P,J4,2,Pin_2_2*%
%TO.N,/TXS1_B8*%
X43815000Y-44450000D03*
%TO.P,J4,3,Pin_3_3*%
%TO.N,/TXS1_B7*%
X43815000Y-46990000D03*
%TO.P,J4,4,Pin_4_4*%
%TO.N,/TXS1_B6*%
X43815000Y-49530000D03*
%TO.P,J4,5,Pin_5_5*%
%TO.N,/TXS1_B5*%
X43815000Y-52070000D03*
%TO.P,J4,6,Pin_6_6*%
%TO.N,/TXS1_B4*%
X43815000Y-54610000D03*
%TO.P,J4,7,Pin_7_7*%
%TO.N,/TXS1_B3*%
X43815000Y-57150000D03*
%TO.P,J4,8,Pin_8_8*%
%TO.N,/TXS1_B2*%
X43815000Y-59690000D03*
%TO.P,J4,9,Pin_9_9*%
%TO.N,/TXS1_B1*%
X43815000Y-62230000D03*
%TO.P,J4,10,Pin_10_10*%
%TO.N,+5V*%
X43815000Y-64770000D03*
%TD*%
D10*
%TO.P,J5,1,Pin_1_1*%
%TO.N,+3V3*%
X59055000Y-69850000D03*
D11*
%TO.P,J5,2,Pin_2_2*%
%TO.N,/GPIO9_A8*%
X59055000Y-72390000D03*
%TO.P,J5,3,Pin_3_3*%
%TO.N,/GPIO10_A7*%
X59055000Y-74930000D03*
%TO.P,J5,4,Pin_4_4*%
%TO.N,/GPIO11_A6*%
X59055000Y-77470000D03*
%TO.P,J5,5,Pin_5_5*%
%TO.N,/GPIO12_A5*%
X59055000Y-80010000D03*
%TO.P,J5,6,Pin_6_6*%
%TO.N,/GPIO13_A4*%
X59055000Y-82550000D03*
%TO.P,J5,7,Pin_7_7*%
%TO.N,/GPIO14_A3*%
X59055000Y-85090000D03*
%TO.P,J5,8,Pin_8_8*%
%TO.N,unconnected-(J5-Pin_8-Pad8)*%
X59055000Y-87630000D03*
%TO.P,J5,9,Pin_9_9*%
%TO.N,unconnected-(J5-Pin_9-Pad9)*%
X59055000Y-90170000D03*
%TO.P,J5,10,Pin_10_10*%
%TO.N,+3V3*%
X59055000Y-92710000D03*
%TD*%
D12*
%TO.N,GND*%
X100330000Y-96520000D03*
X31115000Y-97155000D03*
X31750000Y-32385000D03*
X100965000Y-31750000D03*
X84455000Y-79375000D03*
X83820000Y-40640000D03*
X93345000Y-79375000D03*
X93345000Y-41275000D03*
X39370000Y-88265000D03*
X40640000Y-37465000D03*
X57785000Y-88900000D03*
X57785000Y-45720000D03*
X57785000Y-60960000D03*
X57785000Y-73660000D03*
X65405000Y-67310000D03*
X65405000Y-60960000D03*
X65405000Y-58420000D03*
X65405000Y-55880000D03*
X65405000Y-53340000D03*
X65405000Y-50800000D03*
X65405000Y-48260000D03*
X65405000Y-45720000D03*
X65405000Y-43180000D03*
X65405000Y-86995000D03*
X65405000Y-83820000D03*
X65405000Y-81280000D03*
X65405000Y-78740000D03*
X65405000Y-76200000D03*
X65405000Y-73660000D03*
X39370000Y-83820000D03*
X39370000Y-81280000D03*
X39370000Y-78740000D03*
X39370000Y-76200000D03*
X39370000Y-73660000D03*
X39370000Y-68580000D03*
X41910000Y-60960000D03*
X41910000Y-58420000D03*
X40640000Y-55880000D03*
X40640000Y-53340000D03*
X40640000Y-50800000D03*
X40640000Y-48260000D03*
X40640000Y-45720000D03*
X64770000Y-38100000D03*
%TD*%
%TO.N,+5V*%
D13*
X64135000Y-95250000D02*
X71755000Y-87630000D01*
X56515000Y-95250000D02*
X64135000Y-95250000D01*
X53975000Y-71120000D02*
X53975000Y-92710000D01*
X52387500Y-69532500D02*
X53975000Y-71120000D01*
X53975000Y-92710000D02*
X56515000Y-95250000D01*
X43815000Y-64770000D02*
X52387500Y-64770000D01*
X52387500Y-64770000D02*
X52387500Y-69532500D01*
X52387500Y-60007500D02*
X52387500Y-65087500D01*
X53975000Y-58420000D02*
X52387500Y-60007500D01*
X53975000Y-34230000D02*
X53975000Y-58420000D01*
X76835000Y-92075000D02*
X76835000Y-34290000D01*
X72390000Y-96520000D02*
X76835000Y-92075000D01*
X75565000Y-33020000D02*
X55185000Y-33020000D01*
X55185000Y-33020000D02*
X53975000Y-34230000D01*
X45720000Y-96520000D02*
X72390000Y-96520000D01*
X76835000Y-34290000D02*
X75565000Y-33020000D01*
X43815000Y-94615000D02*
X45720000Y-96520000D01*
X43815000Y-92710000D02*
X43815000Y-94615000D01*
%TO.N,GND*%
X52070000Y-31115000D02*
X83820000Y-31115000D01*
%TO.N,+3V3*%
X57665000Y-41910000D02*
X59055000Y-41910000D01*
X56515000Y-43060000D02*
X57665000Y-41910000D01*
X56515000Y-62230000D02*
X56515000Y-43060000D01*
X59055000Y-64770000D02*
X56515000Y-62230000D01*
%TO.N,GND*%
X97155000Y-93345000D02*
X97155000Y-90170000D01*
X92710000Y-97790000D02*
X97155000Y-93345000D01*
X31115000Y-93980000D02*
X34925000Y-97790000D01*
X34925000Y-97790000D02*
X92710000Y-97790000D01*
X31115000Y-68580000D02*
X31115000Y-93980000D01*
X31115000Y-68580000D02*
X31115000Y-68936346D01*
X31115000Y-45720000D02*
X31115000Y-68580000D01*
X34925000Y-41910000D02*
X31115000Y-45720000D01*
X43815000Y-41910000D02*
X34925000Y-41910000D01*
X83820000Y-31115000D02*
X89535000Y-36830000D01*
X51435000Y-31750000D02*
X52070000Y-31115000D01*
X51435000Y-34230000D02*
X51435000Y-31750000D01*
X93345000Y-87630000D02*
X97155000Y-87630000D01*
X89535000Y-83820000D02*
X93345000Y-87630000D01*
X89535000Y-36830000D02*
X89535000Y-83820000D01*
%TO.N,/TXS1_B3*%
X41275000Y-57150000D02*
X33655000Y-64770000D01*
X43815000Y-57150000D02*
X41275000Y-57150000D01*
%TO.N,/TXS1_B2*%
X43815000Y-59690000D02*
X41275000Y-59690000D01*
X41275000Y-59690000D02*
X33655000Y-67310000D01*
%TO.N,/TXS1_B1*%
X41275000Y-62230000D02*
X33655000Y-69850000D01*
X43815000Y-62230000D02*
X41275000Y-62230000D01*
%TO.N,/TXS1_B4*%
X38735000Y-54610000D02*
X33655000Y-59690000D01*
X43815000Y-54610000D02*
X38735000Y-54610000D01*
%TO.N,/TXS1_B5*%
X38735000Y-52070000D02*
X33655000Y-57150000D01*
X43815000Y-52070000D02*
X38735000Y-52070000D01*
%TO.N,/TXS1_B6*%
X38735000Y-49530000D02*
X33655000Y-54610000D01*
X43815000Y-49530000D02*
X38735000Y-49530000D01*
%TO.N,/TXS1_B7*%
X38735000Y-46990000D02*
X33655000Y-52070000D01*
X43815000Y-46990000D02*
X38735000Y-46990000D01*
%TO.N,GND*%
X97155000Y-87630000D02*
X97155000Y-90170000D01*
X97155000Y-36830000D02*
X89535000Y-36830000D01*
%TO.N,+3V3*%
X56515000Y-72390000D02*
X56515000Y-90170000D01*
X56515000Y-90170000D02*
X59055000Y-92710000D01*
X59055000Y-69850000D02*
X56515000Y-72390000D01*
X59055000Y-64770000D02*
X59055000Y-69850000D01*
X71755000Y-39370000D02*
X71755000Y-36830000D01*
%TO.N,GND*%
X43815000Y-41850000D02*
X43815000Y-41910000D01*
X51435000Y-34230000D02*
X43815000Y-41850000D01*
%TO.N,/TXS2_B3*%
X43815000Y-85090000D02*
X33655000Y-85090000D01*
%TO.N,/TXS2_B4*%
X43815000Y-82550000D02*
X33655000Y-82550000D01*
%TO.N,/TXS2_B5*%
X43815000Y-80010000D02*
X33655000Y-80010000D01*
%TO.N,/TXS2_B6*%
X43815000Y-77470000D02*
X33655000Y-77470000D01*
%TO.N,/TXS2_B7*%
X43815000Y-74930000D02*
X33655000Y-74930000D01*
%TO.N,/TXS2_B8*%
X43815000Y-72390000D02*
X33655000Y-72390000D01*
%TO.N,/TXS1_B8*%
X38735000Y-44450000D02*
X33655000Y-49530000D01*
X43815000Y-44450000D02*
X38735000Y-44450000D01*
%TO.N,/GPIO14_A3*%
X71755000Y-85090000D02*
X59055000Y-85090000D01*
%TO.N,/GPIO13_A4*%
X71755000Y-82550000D02*
X59055000Y-82550000D01*
%TO.N,/GPIO12_A5*%
X71755000Y-80010000D02*
X59055000Y-80010000D01*
%TO.N,/GPIO11_A6*%
X71755000Y-77470000D02*
X59055000Y-77470000D01*
%TO.N,/GPIO10_A7*%
X71755000Y-74930000D02*
X59055000Y-74930000D01*
%TO.N,/GPIO9_A8*%
X71755000Y-72390000D02*
X59055000Y-72390000D01*
%TO.N,/GPIO18_A1*%
X71755000Y-62230000D02*
X59055000Y-62230000D01*
%TO.N,/GPIO17_A2*%
X71755000Y-59690000D02*
X59055000Y-59690000D01*
%TO.N,/GPIO16_A3*%
X71755000Y-57150000D02*
X59055000Y-57150000D01*
%TO.N,/GPIO15_A4*%
X71755000Y-54610000D02*
X59055000Y-54610000D01*
%TO.N,/GPIO7_A5*%
X71755000Y-52070000D02*
X59055000Y-52070000D01*
%TO.N,/GPIO6_A6*%
X71755000Y-49530000D02*
X59055000Y-49530000D01*
%TO.N,/GPIO5_A7*%
X71755000Y-46990000D02*
X59055000Y-46990000D01*
%TO.N,/GPIO4_A8*%
X71755000Y-44450000D02*
X59055000Y-44450000D01*
%TO.N,+3V3*%
X69215000Y-41910000D02*
X59055000Y-41910000D01*
X71755000Y-39370000D02*
X69215000Y-41910000D01*
%TD*%
%TA.AperFunction,Conductor*%
%TO.N,GND*%
G36*
X42694818Y-63000185D02*
G01*
X42728097Y-63031615D01*
X42784892Y-63109788D01*
X42935213Y-63260109D01*
X43107182Y-63385050D01*
X43115946Y-63389516D01*
X43166742Y-63437491D01*
X43183536Y-63505312D01*
X43160998Y-63571447D01*
X43115946Y-63610484D01*
X43107182Y-63614949D01*
X42935213Y-63739890D01*
X42784890Y-63890213D01*
X42659951Y-64062179D01*
X42563444Y-64251585D01*
X42497753Y-64453760D01*
X42464500Y-64663713D01*
X42464500Y-64876286D01*
X42497753Y-65086239D01*
X42563444Y-65288414D01*
X42659951Y-65477820D01*
X42784890Y-65649786D01*
X42935213Y-65800109D01*
X43107179Y-65925048D01*
X43107181Y-65925049D01*
X43107184Y-65925051D01*
X43296588Y-66021557D01*
X43498757Y-66087246D01*
X43708713Y-66120500D01*
X43708714Y-66120500D01*
X43921286Y-66120500D01*
X43921287Y-66120500D01*
X44131243Y-66087246D01*
X44333412Y-66021557D01*
X44522816Y-65925051D01*
X44570811Y-65890181D01*
X44694786Y-65800109D01*
X44694788Y-65800106D01*
X44694792Y-65800104D01*
X44845104Y-65649792D01*
X44848949Y-65644500D01*
X44901903Y-65571615D01*
X44957233Y-65528949D01*
X45002221Y-65520500D01*
X51513000Y-65520500D01*
X51580039Y-65540185D01*
X51625794Y-65592989D01*
X51637000Y-65644500D01*
X51637000Y-69606418D01*
X51637000Y-69606420D01*
X51636999Y-69606420D01*
X51665840Y-69751407D01*
X51665843Y-69751417D01*
X51722414Y-69887991D01*
X51722416Y-69887995D01*
X51738487Y-69912048D01*
X51746417Y-69923916D01*
X51804549Y-70010918D01*
X51804552Y-70010921D01*
X53188181Y-71394549D01*
X53221666Y-71455872D01*
X53224500Y-71482230D01*
X53224500Y-92783918D01*
X53224500Y-92783920D01*
X53224499Y-92783920D01*
X53253340Y-92928907D01*
X53253343Y-92928917D01*
X53309914Y-93065492D01*
X53342812Y-93114727D01*
X53342813Y-93114730D01*
X53392046Y-93188414D01*
X53392052Y-93188421D01*
X55761452Y-95557819D01*
X55794937Y-95619142D01*
X55789953Y-95688834D01*
X55748081Y-95744767D01*
X55682617Y-95769184D01*
X55673771Y-95769500D01*
X46082230Y-95769500D01*
X46015191Y-95749815D01*
X45994549Y-95733181D01*
X44601819Y-94340451D01*
X44568334Y-94279128D01*
X44565500Y-94252770D01*
X44565500Y-93897220D01*
X44585185Y-93830181D01*
X44616614Y-93796902D01*
X44694792Y-93740104D01*
X44845104Y-93589792D01*
X44845106Y-93589788D01*
X44845109Y-93589786D01*
X44970048Y-93417820D01*
X44970047Y-93417820D01*
X44970051Y-93417816D01*
X45066557Y-93228412D01*
X45132246Y-93026243D01*
X45165500Y-92816287D01*
X45165500Y-92603713D01*
X45132246Y-92393757D01*
X45066557Y-92191588D01*
X44970051Y-92002184D01*
X44970049Y-92002181D01*
X44970048Y-92002179D01*
X44845109Y-91830213D01*
X44694786Y-91679890D01*
X44522820Y-91554951D01*
X44522115Y-91554591D01*
X44514054Y-91550485D01*
X44463259Y-91502512D01*
X44446463Y-91434692D01*
X44468999Y-91368556D01*
X44514054Y-91329515D01*
X44522816Y-91325051D01*
X44577572Y-91285269D01*
X44694786Y-91200109D01*
X44694788Y-91200106D01*
X44694792Y-91200104D01*
X44845104Y-91049792D01*
X44845106Y-91049788D01*
X44845109Y-91049786D01*
X44970048Y-90877820D01*
X44970047Y-90877820D01*
X44970051Y-90877816D01*
X45066557Y-90688412D01*
X45132246Y-90486243D01*
X45165500Y-90276287D01*
X45165500Y-90063713D01*
X45132246Y-89853757D01*
X45066557Y-89651588D01*
X44970051Y-89462184D01*
X44970049Y-89462181D01*
X44970048Y-89462179D01*
X44845109Y-89290213D01*
X44694786Y-89139890D01*
X44522820Y-89014951D01*
X44522115Y-89014591D01*
X44514054Y-89010485D01*
X44463259Y-88962512D01*
X44446463Y-88894692D01*
X44468999Y-88828556D01*
X44514054Y-88789515D01*
X44522816Y-88785051D01*
X44621187Y-88713581D01*
X44694786Y-88660109D01*
X44694788Y-88660106D01*
X44694792Y-88660104D01*
X44845104Y-88509792D01*
X44845106Y-88509788D01*
X44845109Y-88509786D01*
X44970048Y-88337820D01*
X44970047Y-88337820D01*
X44970051Y-88337816D01*
X45066557Y-88148412D01*
X45132246Y-87946243D01*
X45165500Y-87736287D01*
X45165500Y-87523713D01*
X45132246Y-87313757D01*
X45066557Y-87111588D01*
X44970051Y-86922184D01*
X44970049Y-86922181D01*
X44970048Y-86922179D01*
X44845109Y-86750213D01*
X44694786Y-86599890D01*
X44522820Y-86474951D01*
X44514600Y-86470763D01*
X44514054Y-86470485D01*
X44463259Y-86422512D01*
X44446463Y-86354692D01*
X44468999Y-86288556D01*
X44514054Y-86249515D01*
X44522816Y-86245051D01*
X44544789Y-86229086D01*
X44694786Y-86120109D01*
X44694788Y-86120106D01*
X44694792Y-86120104D01*
X44845104Y-85969792D01*
X44845106Y-85969788D01*
X44845109Y-85969786D01*
X44970048Y-85797820D01*
X44970047Y-85797820D01*
X44970051Y-85797816D01*
X45066557Y-85608412D01*
X45132246Y-85406243D01*
X45165500Y-85196287D01*
X45165500Y-84983713D01*
X45132246Y-84773757D01*
X45066557Y-84571588D01*
X44970051Y-84382184D01*
X44970049Y-84382181D01*
X44970048Y-84382179D01*
X44845109Y-84210213D01*
X44694786Y-84059890D01*
X44522820Y-83934951D01*
X44522115Y-83934591D01*
X44514054Y-83930485D01*
X44463259Y-83882512D01*
X44446463Y-83814692D01*
X44468999Y-83748556D01*
X44514054Y-83709515D01*
X44522816Y-83705051D01*
X44544789Y-83689086D01*
X44694786Y-83580109D01*
X44694788Y-83580106D01*
X44694792Y-83580104D01*
X44845104Y-83429792D01*
X44845106Y-83429788D01*
X44845109Y-83429786D01*
X44970048Y-83257820D01*
X44970047Y-83257820D01*
X44970051Y-83257816D01*
X45066557Y-83068412D01*
X45132246Y-82866243D01*
X45165500Y-82656287D01*
X45165500Y-82443713D01*
X45132246Y-82233757D01*
X45066557Y-82031588D01*
X44970051Y-81842184D01*
X44970049Y-81842181D01*
X44970048Y-81842179D01*
X44845109Y-81670213D01*
X44694786Y-81519890D01*
X44522820Y-81394951D01*
X44522115Y-81394591D01*
X44514054Y-81390485D01*
X44463259Y-81342512D01*
X44446463Y-81274692D01*
X44468999Y-81208556D01*
X44514054Y-81169515D01*
X44522816Y-81165051D01*
X44544789Y-81149086D01*
X44694786Y-81040109D01*
X44694788Y-81040106D01*
X44694792Y-81040104D01*
X44845104Y-80889792D01*
X44845106Y-80889788D01*
X44845109Y-80889786D01*
X44970048Y-80717820D01*
X44970047Y-80717820D01*
X44970051Y-80717816D01*
X45066557Y-80528412D01*
X45132246Y-80326243D01*
X45165500Y-80116287D01*
X45165500Y-79903713D01*
X45132246Y-79693757D01*
X45066557Y-79491588D01*
X44970051Y-79302184D01*
X44970049Y-79302181D01*
X44970048Y-79302179D01*
X44845109Y-79130213D01*
X44694786Y-78979890D01*
X44522820Y-78854951D01*
X44522115Y-78854591D01*
X44514054Y-78850485D01*
X44463259Y-78802512D01*
X44446463Y-78734692D01*
X44468999Y-78668556D01*
X44514054Y-78629515D01*
X44522816Y-78625051D01*
X44544789Y-78609086D01*
X44694786Y-78500109D01*
X44694788Y-78500106D01*
X44694792Y-78500104D01*
X44845104Y-78349792D01*
X44845106Y-78349788D01*
X44845109Y-78349786D01*
X44970048Y-78177820D01*
X44970047Y-78177820D01*
X44970051Y-78177816D01*
X45066557Y-77988412D01*
X45132246Y-77786243D01*
X45165500Y-77576287D01*
X45165500Y-77363713D01*
X45132246Y-77153757D01*
X45066557Y-76951588D01*
X44970051Y-76762184D01*
X44970049Y-76762181D01*
X44970048Y-76762179D01*
X44845109Y-76590213D01*
X44694786Y-76439890D01*
X44522820Y-76314951D01*
X44522115Y-76314591D01*
X44514054Y-76310485D01*
X44463259Y-76262512D01*
X44446463Y-76194692D01*
X44468999Y-76128556D01*
X44514054Y-76089515D01*
X44522816Y-76085051D01*
X44544789Y-76069086D01*
X44694786Y-75960109D01*
X44694788Y-75960106D01*
X44694792Y-75960104D01*
X44845104Y-75809792D01*
X44845106Y-75809788D01*
X44845109Y-75809786D01*
X44970048Y-75637820D01*
X44970047Y-75637820D01*
X44970051Y-75637816D01*
X45066557Y-75448412D01*
X45132246Y-75246243D01*
X45165500Y-75036287D01*
X45165500Y-74823713D01*
X45132246Y-74613757D01*
X45066557Y-74411588D01*
X44970051Y-74222184D01*
X44970049Y-74222181D01*
X44970048Y-74222179D01*
X44845109Y-74050213D01*
X44694786Y-73899890D01*
X44522820Y-73774951D01*
X44522115Y-73774591D01*
X44514054Y-73770485D01*
X44463259Y-73722512D01*
X44446463Y-73654692D01*
X44468999Y-73588556D01*
X44514054Y-73549515D01*
X44522816Y-73545051D01*
X44544789Y-73529086D01*
X44694786Y-73420109D01*
X44694788Y-73420106D01*
X44694792Y-73420104D01*
X44845104Y-73269792D01*
X44845106Y-73269788D01*
X44845109Y-73269786D01*
X44970048Y-73097820D01*
X44970047Y-73097820D01*
X44970051Y-73097816D01*
X45066557Y-72908412D01*
X45132246Y-72706243D01*
X45165500Y-72496287D01*
X45165500Y-72283713D01*
X45132246Y-72073757D01*
X45066557Y-71871588D01*
X44970051Y-71682184D01*
X44970049Y-71682181D01*
X44970048Y-71682179D01*
X44845109Y-71510213D01*
X44731181Y-71396285D01*
X44697696Y-71334962D01*
X44702680Y-71265270D01*
X44744552Y-71209337D01*
X44775529Y-71192422D01*
X44907086Y-71143354D01*
X44907093Y-71143350D01*
X45022187Y-71057190D01*
X45022190Y-71057187D01*
X45108350Y-70942093D01*
X45108354Y-70942086D01*
X45158596Y-70807379D01*
X45158598Y-70807372D01*
X45164999Y-70747844D01*
X45165000Y-70747827D01*
X45165000Y-70100000D01*
X44248012Y-70100000D01*
X44280925Y-70042993D01*
X44315000Y-69915826D01*
X44315000Y-69784174D01*
X44280925Y-69657007D01*
X44248012Y-69600000D01*
X45165000Y-69600000D01*
X45165000Y-68952172D01*
X45164999Y-68952155D01*
X45158598Y-68892627D01*
X45158596Y-68892620D01*
X45108354Y-68757913D01*
X45108350Y-68757906D01*
X45022190Y-68642812D01*
X45022187Y-68642809D01*
X44907093Y-68556649D01*
X44907086Y-68556645D01*
X44772379Y-68506403D01*
X44772372Y-68506401D01*
X44712844Y-68500000D01*
X44065000Y-68500000D01*
X44065000Y-69416988D01*
X44007993Y-69384075D01*
X43880826Y-69350000D01*
X43749174Y-69350000D01*
X43622007Y-69384075D01*
X43565000Y-69416988D01*
X43565000Y-68500000D01*
X42917155Y-68500000D01*
X42857627Y-68506401D01*
X42857620Y-68506403D01*
X42722913Y-68556645D01*
X42722906Y-68556649D01*
X42607812Y-68642809D01*
X42607809Y-68642812D01*
X42521649Y-68757906D01*
X42521645Y-68757913D01*
X42471403Y-68892620D01*
X42471401Y-68892627D01*
X42465000Y-68952155D01*
X42465000Y-69600000D01*
X43381988Y-69600000D01*
X43349075Y-69657007D01*
X43315000Y-69784174D01*
X43315000Y-69915826D01*
X43349075Y-70042993D01*
X43381988Y-70100000D01*
X42465000Y-70100000D01*
X42465000Y-70747844D01*
X42471401Y-70807372D01*
X42471403Y-70807379D01*
X42521645Y-70942086D01*
X42521649Y-70942093D01*
X42607809Y-71057187D01*
X42607812Y-71057190D01*
X42722906Y-71143350D01*
X42722913Y-71143354D01*
X42854470Y-71192422D01*
X42910404Y-71234293D01*
X42934821Y-71299758D01*
X42919969Y-71368031D01*
X42898819Y-71396285D01*
X42784892Y-71510212D01*
X42728097Y-71588385D01*
X42672767Y-71631051D01*
X42627779Y-71639500D01*
X34842221Y-71639500D01*
X34775182Y-71619815D01*
X34741903Y-71588385D01*
X34685107Y-71510211D01*
X34534786Y-71359890D01*
X34362820Y-71234951D01*
X34362115Y-71234591D01*
X34354054Y-71230485D01*
X34303259Y-71182512D01*
X34286463Y-71114692D01*
X34308999Y-71048556D01*
X34354054Y-71009515D01*
X34362816Y-71005051D01*
X34449138Y-70942335D01*
X34534786Y-70880109D01*
X34534788Y-70880106D01*
X34534792Y-70880104D01*
X34685104Y-70729792D01*
X34685106Y-70729788D01*
X34685109Y-70729786D01*
X34810048Y-70557820D01*
X34810047Y-70557820D01*
X34810051Y-70557816D01*
X34906557Y-70368412D01*
X34972246Y-70166243D01*
X35005500Y-69956287D01*
X35005500Y-69743713D01*
X34990382Y-69648268D01*
X34999336Y-69578979D01*
X35025171Y-69541195D01*
X41549548Y-63016819D01*
X41610871Y-62983334D01*
X41637229Y-62980500D01*
X42627779Y-62980500D01*
X42694818Y-63000185D01*
G37*
%TD.AperFunction*%
%TA.AperFunction,Conductor*%
G36*
X75269809Y-33790185D02*
G01*
X75290451Y-33806819D01*
X76048181Y-34564548D01*
X76081666Y-34625871D01*
X76084500Y-34652229D01*
X76084500Y-91712770D01*
X76064815Y-91779809D01*
X76048181Y-91800451D01*
X72115451Y-95733181D01*
X72054128Y-95766666D01*
X72027770Y-95769500D01*
X64976230Y-95769500D01*
X64909191Y-95749815D01*
X64863436Y-95697011D01*
X64853492Y-95627853D01*
X64882517Y-95564297D01*
X64888549Y-95557819D01*
X66193598Y-94252770D01*
X70200366Y-90246000D01*
X70261687Y-90212517D01*
X70331379Y-90217501D01*
X70387312Y-90259373D01*
X70410518Y-90314285D01*
X70437735Y-90486127D01*
X70437754Y-90486243D01*
X70490447Y-90648416D01*
X70503444Y-90688414D01*
X70599951Y-90877820D01*
X70724890Y-91049786D01*
X70875213Y-91200109D01*
X71047179Y-91325048D01*
X71047181Y-91325049D01*
X71047184Y-91325051D01*
X71236588Y-91421557D01*
X71438757Y-91487246D01*
X71648713Y-91520500D01*
X71648714Y-91520500D01*
X71861286Y-91520500D01*
X71861287Y-91520500D01*
X72071243Y-91487246D01*
X72273412Y-91421557D01*
X72462816Y-91325051D01*
X72517572Y-91285269D01*
X72634786Y-91200109D01*
X72634788Y-91200106D01*
X72634792Y-91200104D01*
X72785104Y-91049792D01*
X72785106Y-91049788D01*
X72785109Y-91049786D01*
X72910048Y-90877820D01*
X72910047Y-90877820D01*
X72910051Y-90877816D01*
X73006557Y-90688412D01*
X73072246Y-90486243D01*
X73105500Y-90276287D01*
X73105500Y-90063713D01*
X73072246Y-89853757D01*
X73006557Y-89651588D01*
X72910051Y-89462184D01*
X72910049Y-89462181D01*
X72910048Y-89462179D01*
X72785109Y-89290213D01*
X72634786Y-89139890D01*
X72462820Y-89014951D01*
X72462115Y-89014591D01*
X72454054Y-89010485D01*
X72403259Y-88962512D01*
X72386463Y-88894692D01*
X72408999Y-88828556D01*
X72454054Y-88789515D01*
X72462816Y-88785051D01*
X72561187Y-88713581D01*
X72634786Y-88660109D01*
X72634788Y-88660106D01*
X72634792Y-88660104D01*
X72785104Y-88509792D01*
X72785106Y-88509788D01*
X72785109Y-88509786D01*
X72910048Y-88337820D01*
X72910047Y-88337820D01*
X72910051Y-88337816D01*
X73006557Y-88148412D01*
X73072246Y-87946243D01*
X73105500Y-87736287D01*
X73105500Y-87523713D01*
X73072246Y-87313757D01*
X73006557Y-87111588D01*
X72910051Y-86922184D01*
X72910049Y-86922181D01*
X72910048Y-86922179D01*
X72785109Y-86750213D01*
X72634786Y-86599890D01*
X72462820Y-86474951D01*
X72454600Y-86470763D01*
X72454054Y-86470485D01*
X72403259Y-86422512D01*
X72386463Y-86354692D01*
X72408999Y-86288556D01*
X72454054Y-86249515D01*
X72462816Y-86245051D01*
X72484789Y-86229086D01*
X72634786Y-86120109D01*
X72634788Y-86120106D01*
X72634792Y-86120104D01*
X72785104Y-85969792D01*
X72785106Y-85969788D01*
X72785109Y-85969786D01*
X72910048Y-85797820D01*
X72910047Y-85797820D01*
X72910051Y-85797816D01*
X73006557Y-85608412D01*
X73072246Y-85406243D01*
X73105500Y-85196287D01*
X73105500Y-84983713D01*
X73072246Y-84773757D01*
X73006557Y-84571588D01*
X72910051Y-84382184D01*
X72910049Y-84382181D01*
X72910048Y-84382179D01*
X72785109Y-84210213D01*
X72634786Y-84059890D01*
X72462820Y-83934951D01*
X72462115Y-83934591D01*
X72454054Y-83930485D01*
X72403259Y-83882512D01*
X72386463Y-83814692D01*
X72408999Y-83748556D01*
X72454054Y-83709515D01*
X72462816Y-83705051D01*
X72484789Y-83689086D01*
X72634786Y-83580109D01*
X72634788Y-83580106D01*
X72634792Y-83580104D01*
X72785104Y-83429792D01*
X72785106Y-83429788D01*
X72785109Y-83429786D01*
X72910048Y-83257820D01*
X72910047Y-83257820D01*
X72910051Y-83257816D01*
X73006557Y-83068412D01*
X73072246Y-82866243D01*
X73105500Y-82656287D01*
X73105500Y-82443713D01*
X73072246Y-82233757D01*
X73006557Y-82031588D01*
X72910051Y-81842184D01*
X72910049Y-81842181D01*
X72910048Y-81842179D01*
X72785109Y-81670213D01*
X72634786Y-81519890D01*
X72462820Y-81394951D01*
X72462115Y-81394591D01*
X72454054Y-81390485D01*
X72403259Y-81342512D01*
X72386463Y-81274692D01*
X72408999Y-81208556D01*
X72454054Y-81169515D01*
X72462816Y-81165051D01*
X72484789Y-81149086D01*
X72634786Y-81040109D01*
X72634788Y-81040106D01*
X72634792Y-81040104D01*
X72785104Y-80889792D01*
X72785106Y-80889788D01*
X72785109Y-80889786D01*
X72910048Y-80717820D01*
X72910047Y-80717820D01*
X72910051Y-80717816D01*
X73006557Y-80528412D01*
X73072246Y-80326243D01*
X73105500Y-80116287D01*
X73105500Y-79903713D01*
X73072246Y-79693757D01*
X73006557Y-79491588D01*
X72910051Y-79302184D01*
X72910049Y-79302181D01*
X72910048Y-79302179D01*
X72785109Y-79130213D01*
X72634786Y-78979890D01*
X72462820Y-78854951D01*
X72462115Y-78854591D01*
X72454054Y-78850485D01*
X72403259Y-78802512D01*
X72386463Y-78734692D01*
X72408999Y-78668556D01*
X72454054Y-78629515D01*
X72462816Y-78625051D01*
X72484789Y-78609086D01*
X72634786Y-78500109D01*
X72634788Y-78500106D01*
X72634792Y-78500104D01*
X72785104Y-78349792D01*
X72785106Y-78349788D01*
X72785109Y-78349786D01*
X72910048Y-78177820D01*
X72910047Y-78177820D01*
X72910051Y-78177816D01*
X73006557Y-77988412D01*
X73072246Y-77786243D01*
X73105500Y-77576287D01*
X73105500Y-77363713D01*
X73072246Y-77153757D01*
X73006557Y-76951588D01*
X72910051Y-76762184D01*
X72910049Y-76762181D01*
X72910048Y-76762179D01*
X72785109Y-76590213D01*
X72634786Y-76439890D01*
X72462820Y-76314951D01*
X72462115Y-76314591D01*
X72454054Y-76310485D01*
X72403259Y-76262512D01*
X72386463Y-76194692D01*
X72408999Y-76128556D01*
X72454054Y-76089515D01*
X72462816Y-76085051D01*
X72484789Y-76069086D01*
X72634786Y-75960109D01*
X72634788Y-75960106D01*
X72634792Y-75960104D01*
X72785104Y-75809792D01*
X72785106Y-75809788D01*
X72785109Y-75809786D01*
X72910048Y-75637820D01*
X72910047Y-75637820D01*
X72910051Y-75637816D01*
X73006557Y-75448412D01*
X73072246Y-75246243D01*
X73105500Y-75036287D01*
X73105500Y-74823713D01*
X73072246Y-74613757D01*
X73006557Y-74411588D01*
X72910051Y-74222184D01*
X72910049Y-74222181D01*
X72910048Y-74222179D01*
X72785109Y-74050213D01*
X72634786Y-73899890D01*
X72462820Y-73774951D01*
X72462115Y-73774591D01*
X72454054Y-73770485D01*
X72403259Y-73722512D01*
X72386463Y-73654692D01*
X72408999Y-73588556D01*
X72454054Y-73549515D01*
X72462816Y-73545051D01*
X72484789Y-73529086D01*
X72634786Y-73420109D01*
X72634788Y-73420106D01*
X72634792Y-73420104D01*
X72785104Y-73269792D01*
X72785106Y-73269788D01*
X72785109Y-73269786D01*
X72910048Y-73097820D01*
X72910047Y-73097820D01*
X72910051Y-73097816D01*
X73006557Y-72908412D01*
X73072246Y-72706243D01*
X73105500Y-72496287D01*
X73105500Y-72283713D01*
X73072246Y-72073757D01*
X73006557Y-71871588D01*
X72910051Y-71682184D01*
X72910049Y-71682181D01*
X72910048Y-71682179D01*
X72785109Y-71510213D01*
X72634786Y-71359890D01*
X72462820Y-71234951D01*
X72462115Y-71234591D01*
X72454054Y-71230485D01*
X72403259Y-71182512D01*
X72386463Y-71114692D01*
X72408999Y-71048556D01*
X72454054Y-71009515D01*
X72462816Y-71005051D01*
X72549138Y-70942335D01*
X72634786Y-70880109D01*
X72634788Y-70880106D01*
X72634792Y-70880104D01*
X72785104Y-70729792D01*
X72785106Y-70729788D01*
X72785109Y-70729786D01*
X72910048Y-70557820D01*
X72910047Y-70557820D01*
X72910051Y-70557816D01*
X73006557Y-70368412D01*
X73072246Y-70166243D01*
X73105500Y-69956287D01*
X73105500Y-69743713D01*
X73072246Y-69533757D01*
X73006557Y-69331588D01*
X72910051Y-69142184D01*
X72910049Y-69142181D01*
X72910048Y-69142179D01*
X72785109Y-68970213D01*
X72634786Y-68819890D01*
X72462820Y-68694951D01*
X72462115Y-68694591D01*
X72454054Y-68690485D01*
X72403259Y-68642512D01*
X72386463Y-68574692D01*
X72408999Y-68508556D01*
X72454054Y-68469515D01*
X72462816Y-68465051D01*
X72515174Y-68427011D01*
X72634786Y-68340109D01*
X72634788Y-68340106D01*
X72634792Y-68340104D01*
X72785104Y-68189792D01*
X72785106Y-68189788D01*
X72785109Y-68189786D01*
X72910048Y-68017820D01*
X72910047Y-68017820D01*
X72910051Y-68017816D01*
X73006557Y-67828412D01*
X73072246Y-67626243D01*
X73105500Y-67416287D01*
X73105500Y-67203713D01*
X73072246Y-66993757D01*
X73006557Y-66791588D01*
X72910051Y-66602184D01*
X72910049Y-66602181D01*
X72910048Y-66602179D01*
X72785109Y-66430213D01*
X72634786Y-66279890D01*
X72462820Y-66154951D01*
X72462115Y-66154591D01*
X72454054Y-66150485D01*
X72403259Y-66102512D01*
X72386463Y-66034692D01*
X72408999Y-65968556D01*
X72454054Y-65929515D01*
X72462816Y-65925051D01*
X72510811Y-65890181D01*
X72634786Y-65800109D01*
X72634788Y-65800106D01*
X72634792Y-65800104D01*
X72785104Y-65649792D01*
X72785106Y-65649788D01*
X72785109Y-65649786D01*
X72910048Y-65477820D01*
X72910047Y-65477820D01*
X72910051Y-65477816D01*
X73006557Y-65288412D01*
X73072246Y-65086243D01*
X73105500Y-64876287D01*
X73105500Y-64663713D01*
X73072246Y-64453757D01*
X73006557Y-64251588D01*
X72910051Y-64062184D01*
X72910049Y-64062181D01*
X72910048Y-64062179D01*
X72785109Y-63890213D01*
X72634786Y-63739890D01*
X72462820Y-63614951D01*
X72462115Y-63614591D01*
X72454054Y-63610485D01*
X72403259Y-63562512D01*
X72386463Y-63494692D01*
X72408999Y-63428556D01*
X72454054Y-63389515D01*
X72462816Y-63385051D01*
X72484789Y-63369086D01*
X72634786Y-63260109D01*
X72634788Y-63260106D01*
X72634792Y-63260104D01*
X72785104Y-63109792D01*
X72785106Y-63109788D01*
X72785109Y-63109786D01*
X72910048Y-62937820D01*
X72910047Y-62937820D01*
X72910051Y-62937816D01*
X73006557Y-62748412D01*
X73072246Y-62546243D01*
X73105500Y-62336287D01*
X73105500Y-62123713D01*
X73072246Y-61913757D01*
X73006557Y-61711588D01*
X72910051Y-61522184D01*
X72910049Y-61522181D01*
X72910048Y-61522179D01*
X72785109Y-61350213D01*
X72634786Y-61199890D01*
X72462820Y-61074951D01*
X72462115Y-61074591D01*
X72454054Y-61070485D01*
X72403259Y-61022512D01*
X72386463Y-60954692D01*
X72408999Y-60888556D01*
X72454054Y-60849515D01*
X72462816Y-60845051D01*
X72484789Y-60829086D01*
X72634786Y-60720109D01*
X72634788Y-60720106D01*
X72634792Y-60720104D01*
X72785104Y-60569792D01*
X72785106Y-60569788D01*
X72785109Y-60569786D01*
X72910048Y-60397820D01*
X72910047Y-60397820D01*
X72910051Y-60397816D01*
X73006557Y-60208412D01*
X73072246Y-60006243D01*
X73105500Y-59796287D01*
X73105500Y-59583713D01*
X73072246Y-59373757D01*
X73006557Y-59171588D01*
X72910051Y-58982184D01*
X72910049Y-58982181D01*
X72910048Y-58982179D01*
X72785109Y-58810213D01*
X72634786Y-58659890D01*
X72462820Y-58534951D01*
X72462115Y-58534591D01*
X72454054Y-58530485D01*
X72403259Y-58482512D01*
X72386463Y-58414692D01*
X72408999Y-58348556D01*
X72454054Y-58309515D01*
X72462816Y-58305051D01*
X72484789Y-58289086D01*
X72634786Y-58180109D01*
X72634788Y-58180106D01*
X72634792Y-58180104D01*
X72785104Y-58029792D01*
X72785106Y-58029788D01*
X72785109Y-58029786D01*
X72910048Y-57857820D01*
X72910047Y-57857820D01*
X72910051Y-57857816D01*
X73006557Y-57668412D01*
X73072246Y-57466243D01*
X73105500Y-57256287D01*
X73105500Y-57043713D01*
X73072246Y-56833757D01*
X73006557Y-56631588D01*
X72910051Y-56442184D01*
X72910049Y-56442181D01*
X72910048Y-56442179D01*
X72785109Y-56270213D01*
X72634786Y-56119890D01*
X72462820Y-55994951D01*
X72462115Y-55994591D01*
X72454054Y-55990485D01*
X72403259Y-55942512D01*
X72386463Y-55874692D01*
X72408999Y-55808556D01*
X72454054Y-55769515D01*
X72462816Y-55765051D01*
X72484789Y-55749086D01*
X72634786Y-55640109D01*
X72634788Y-55640106D01*
X72634792Y-55640104D01*
X72785104Y-55489792D01*
X72785106Y-55489788D01*
X72785109Y-55489786D01*
X72910048Y-55317820D01*
X72910047Y-55317820D01*
X72910051Y-55317816D01*
X73006557Y-55128412D01*
X73072246Y-54926243D01*
X73105500Y-54716287D01*
X73105500Y-54503713D01*
X73072246Y-54293757D01*
X73006557Y-54091588D01*
X72910051Y-53902184D01*
X72910049Y-53902181D01*
X72910048Y-53902179D01*
X72785109Y-53730213D01*
X72634786Y-53579890D01*
X72462820Y-53454951D01*
X72462115Y-53454591D01*
X72454054Y-53450485D01*
X72403259Y-53402512D01*
X72386463Y-53334692D01*
X72408999Y-53268556D01*
X72454054Y-53229515D01*
X72462816Y-53225051D01*
X72484789Y-53209086D01*
X72634786Y-53100109D01*
X72634788Y-53100106D01*
X72634792Y-53100104D01*
X72785104Y-52949792D01*
X72785106Y-52949788D01*
X72785109Y-52949786D01*
X72910048Y-52777820D01*
X72910047Y-52777820D01*
X72910051Y-52777816D01*
X73006557Y-52588412D01*
X73072246Y-52386243D01*
X73105500Y-52176287D01*
X73105500Y-51963713D01*
X73072246Y-51753757D01*
X73006557Y-51551588D01*
X72910051Y-51362184D01*
X72910049Y-51362181D01*
X72910048Y-51362179D01*
X72785109Y-51190213D01*
X72634786Y-51039890D01*
X72462820Y-50914951D01*
X72462115Y-50914591D01*
X72454054Y-50910485D01*
X72403259Y-50862512D01*
X72386463Y-50794692D01*
X72408999Y-50728556D01*
X72454054Y-50689515D01*
X72462816Y-50685051D01*
X72549138Y-50622335D01*
X72634786Y-50560109D01*
X72634788Y-50560106D01*
X72634792Y-50560104D01*
X72785104Y-50409792D01*
X72785106Y-50409788D01*
X72785109Y-50409786D01*
X72910048Y-50237820D01*
X72910047Y-50237820D01*
X72910051Y-50237816D01*
X73006557Y-50048412D01*
X73072246Y-49846243D01*
X73105500Y-49636287D01*
X73105500Y-49423713D01*
X73072246Y-49213757D01*
X73006557Y-49011588D01*
X72910051Y-48822184D01*
X72910049Y-48822181D01*
X72910048Y-48822179D01*
X72785109Y-48650213D01*
X72634786Y-48499890D01*
X72462820Y-48374951D01*
X72462115Y-48374591D01*
X72454054Y-48370485D01*
X72403259Y-48322512D01*
X72386463Y-48254692D01*
X72408999Y-48188556D01*
X72454054Y-48149515D01*
X72462816Y-48145051D01*
X72484789Y-48129086D01*
X72634786Y-48020109D01*
X72634788Y-48020106D01*
X72634792Y-48020104D01*
X72785104Y-47869792D01*
X72785106Y-47869788D01*
X72785109Y-47869786D01*
X72910048Y-47697820D01*
X72910047Y-47697820D01*
X72910051Y-47697816D01*
X73006557Y-47508412D01*
X73072246Y-47306243D01*
X73105500Y-47096287D01*
X73105500Y-46883713D01*
X73072246Y-46673757D01*
X73006557Y-46471588D01*
X72910051Y-46282184D01*
X72910049Y-46282181D01*
X72910048Y-46282179D01*
X72785109Y-46110213D01*
X72634786Y-45959890D01*
X72462820Y-45834951D01*
X72462115Y-45834591D01*
X72454054Y-45830485D01*
X72403259Y-45782512D01*
X72386463Y-45714692D01*
X72408999Y-45648556D01*
X72454054Y-45609515D01*
X72462816Y-45605051D01*
X72484789Y-45589086D01*
X72634786Y-45480109D01*
X72634788Y-45480106D01*
X72634792Y-45480104D01*
X72785104Y-45329792D01*
X72785106Y-45329788D01*
X72785109Y-45329786D01*
X72910048Y-45157820D01*
X72910047Y-45157820D01*
X72910051Y-45157816D01*
X73006557Y-44968412D01*
X73072246Y-44766243D01*
X73105500Y-44556287D01*
X73105500Y-44343713D01*
X73072246Y-44133757D01*
X73006557Y-43931588D01*
X72910051Y-43742184D01*
X72910049Y-43742181D01*
X72910048Y-43742179D01*
X72785109Y-43570213D01*
X72634786Y-43419890D01*
X72462820Y-43294951D01*
X72462115Y-43294591D01*
X72454054Y-43290485D01*
X72403259Y-43242512D01*
X72386463Y-43174692D01*
X72408999Y-43108556D01*
X72454054Y-43069515D01*
X72462816Y-43065051D01*
X72549138Y-43002335D01*
X72634786Y-42940109D01*
X72634788Y-42940106D01*
X72634792Y-42940104D01*
X72785104Y-42789792D01*
X72785106Y-42789788D01*
X72785109Y-42789786D01*
X72910048Y-42617820D01*
X72910047Y-42617820D01*
X72910051Y-42617816D01*
X73006557Y-42428412D01*
X73072246Y-42226243D01*
X73105500Y-42016287D01*
X73105500Y-41803713D01*
X73072246Y-41593757D01*
X73006557Y-41391588D01*
X72910051Y-41202184D01*
X72910049Y-41202181D01*
X72910048Y-41202179D01*
X72785109Y-41030213D01*
X72634786Y-40879890D01*
X72462820Y-40754951D01*
X72462115Y-40754591D01*
X72454054Y-40750485D01*
X72403259Y-40702512D01*
X72386463Y-40634692D01*
X72408999Y-40568556D01*
X72454054Y-40529515D01*
X72462816Y-40525051D01*
X72484789Y-40509086D01*
X72634786Y-40400109D01*
X72634788Y-40400106D01*
X72634792Y-40400104D01*
X72785104Y-40249792D01*
X72785106Y-40249788D01*
X72785109Y-40249786D01*
X72910048Y-40077820D01*
X72910047Y-40077820D01*
X72910051Y-40077816D01*
X73006557Y-39888412D01*
X73072246Y-39686243D01*
X73105500Y-39476287D01*
X73105500Y-39263713D01*
X73072246Y-39053757D01*
X73006557Y-38851588D01*
X72910051Y-38662184D01*
X72910049Y-38662181D01*
X72910048Y-38662179D01*
X72785109Y-38490213D01*
X72671569Y-38376673D01*
X72638084Y-38315350D01*
X72643068Y-38245658D01*
X72684940Y-38189725D01*
X72715915Y-38172810D01*
X72847331Y-38123796D01*
X72962546Y-38037546D01*
X73048796Y-37922331D01*
X73099091Y-37787483D01*
X73105500Y-37727873D01*
X73105499Y-35932128D01*
X73099091Y-35872517D01*
X73048884Y-35737906D01*
X73048797Y-35737671D01*
X73048793Y-35737664D01*
X72962547Y-35622455D01*
X72962544Y-35622452D01*
X72847335Y-35536206D01*
X72847328Y-35536202D01*
X72712482Y-35485908D01*
X72712483Y-35485908D01*
X72652883Y-35479501D01*
X72652881Y-35479500D01*
X72652873Y-35479500D01*
X72652864Y-35479500D01*
X70857129Y-35479500D01*
X70857123Y-35479501D01*
X70797516Y-35485908D01*
X70662671Y-35536202D01*
X70662664Y-35536206D01*
X70547455Y-35622452D01*
X70547452Y-35622455D01*
X70461206Y-35737664D01*
X70461202Y-35737671D01*
X70410908Y-35872517D01*
X70404501Y-35932116D01*
X70404501Y-35932123D01*
X70404500Y-35932135D01*
X70404500Y-37727870D01*
X70404501Y-37727876D01*
X70410908Y-37787483D01*
X70461202Y-37922328D01*
X70461206Y-37922335D01*
X70547452Y-38037544D01*
X70547455Y-38037547D01*
X70662664Y-38123793D01*
X70662671Y-38123797D01*
X70794082Y-38172810D01*
X70850016Y-38214681D01*
X70874433Y-38280145D01*
X70859582Y-38348418D01*
X70838431Y-38376673D01*
X70724889Y-38490215D01*
X70599951Y-38662179D01*
X70503444Y-38851585D01*
X70437753Y-39053760D01*
X70404500Y-39263713D01*
X70404500Y-39476292D01*
X70419616Y-39571728D01*
X70410662Y-39641021D01*
X70384824Y-39678807D01*
X68940451Y-41123181D01*
X68879128Y-41156666D01*
X68852770Y-41159500D01*
X60529499Y-41159500D01*
X60462460Y-41139815D01*
X60416705Y-41087011D01*
X60405499Y-41035500D01*
X60405499Y-41012129D01*
X60405498Y-41012123D01*
X60405497Y-41012116D01*
X60399091Y-40952517D01*
X60348884Y-40817906D01*
X60348797Y-40817671D01*
X60348793Y-40817664D01*
X60262547Y-40702455D01*
X60262544Y-40702452D01*
X60147335Y-40616206D01*
X60147328Y-40616202D01*
X60012482Y-40565908D01*
X60012483Y-40565908D01*
X59952883Y-40559501D01*
X59952881Y-40559500D01*
X59952873Y-40559500D01*
X59952864Y-40559500D01*
X58157129Y-40559500D01*
X58157123Y-40559501D01*
X58097516Y-40565908D01*
X57962671Y-40616202D01*
X57962664Y-40616206D01*
X57847455Y-40702452D01*
X57847452Y-40702455D01*
X57761206Y-40817664D01*
X57761202Y-40817671D01*
X57710908Y-40952517D01*
X57704501Y-41012116D01*
X57704501Y-41012123D01*
X57704500Y-41012135D01*
X57704500Y-41035942D01*
X57684815Y-41102981D01*
X57632011Y-41148736D01*
X57609445Y-41156516D01*
X57597015Y-41159500D01*
X57591082Y-41159500D01*
X57562241Y-41165236D01*
X57446088Y-41188341D01*
X57412669Y-41202184D01*
X57403656Y-41205917D01*
X57403653Y-41205918D01*
X57309508Y-41244914D01*
X57268645Y-41272218D01*
X57186582Y-41327049D01*
X57186579Y-41327052D01*
X55932050Y-42581580D01*
X55932044Y-42581588D01*
X55882812Y-42655268D01*
X55882813Y-42655269D01*
X55849921Y-42704496D01*
X55849914Y-42704508D01*
X55793342Y-42841086D01*
X55793340Y-42841092D01*
X55764500Y-42986079D01*
X55764500Y-42986082D01*
X55764500Y-62303918D01*
X55764500Y-62303920D01*
X55764499Y-62303920D01*
X55793340Y-62448907D01*
X55793343Y-62448917D01*
X55849914Y-62585492D01*
X55882812Y-62634727D01*
X55882813Y-62634730D01*
X55932046Y-62708414D01*
X55932052Y-62708421D01*
X57684824Y-64461191D01*
X57718309Y-64522514D01*
X57719616Y-64568270D01*
X57704500Y-64663707D01*
X57704500Y-64876286D01*
X57737753Y-65086239D01*
X57803444Y-65288414D01*
X57899951Y-65477820D01*
X58024890Y-65649786D01*
X58024896Y-65649792D01*
X58175208Y-65800104D01*
X58253384Y-65856902D01*
X58296051Y-65912231D01*
X58304500Y-65957220D01*
X58304500Y-68375500D01*
X58284815Y-68442539D01*
X58232011Y-68488294D01*
X58180505Y-68499500D01*
X58157132Y-68499500D01*
X58157123Y-68499501D01*
X58097516Y-68505908D01*
X57962671Y-68556202D01*
X57962664Y-68556206D01*
X57847455Y-68642452D01*
X57847452Y-68642455D01*
X57761206Y-68757664D01*
X57761202Y-68757671D01*
X57710908Y-68892517D01*
X57704501Y-68952116D01*
X57704501Y-68952123D01*
X57704500Y-68952135D01*
X57704500Y-70087769D01*
X57684815Y-70154808D01*
X57668181Y-70175450D01*
X55932050Y-71911580D01*
X55932044Y-71911588D01*
X55882812Y-71985268D01*
X55882813Y-71985269D01*
X55849921Y-72034496D01*
X55849914Y-72034508D01*
X55793342Y-72171086D01*
X55793340Y-72171092D01*
X55764500Y-72316079D01*
X55764500Y-72316082D01*
X55764500Y-90243918D01*
X55764500Y-90243920D01*
X55764499Y-90243920D01*
X55793340Y-90388907D01*
X55793343Y-90388917D01*
X55849914Y-90525492D01*
X55849915Y-90525494D01*
X55849916Y-90525495D01*
X55879719Y-90570099D01*
X55882812Y-90574727D01*
X55882813Y-90574730D01*
X55932046Y-90648414D01*
X55932052Y-90648421D01*
X57684824Y-92401191D01*
X57718309Y-92462514D01*
X57719616Y-92508270D01*
X57704500Y-92603707D01*
X57704500Y-92603713D01*
X57704500Y-92816287D01*
X57737754Y-93026243D01*
X57790447Y-93188416D01*
X57803444Y-93228414D01*
X57899951Y-93417820D01*
X58024890Y-93589786D01*
X58175213Y-93740109D01*
X58347179Y-93865048D01*
X58347181Y-93865049D01*
X58347184Y-93865051D01*
X58536588Y-93961557D01*
X58738757Y-94027246D01*
X58948713Y-94060500D01*
X58948714Y-94060500D01*
X59161286Y-94060500D01*
X59161287Y-94060500D01*
X59371243Y-94027246D01*
X59573412Y-93961557D01*
X59762816Y-93865051D01*
X59810811Y-93830181D01*
X59934786Y-93740109D01*
X59934788Y-93740106D01*
X59934792Y-93740104D01*
X60085104Y-93589792D01*
X60085106Y-93589788D01*
X60085109Y-93589786D01*
X60210048Y-93417820D01*
X60210047Y-93417820D01*
X60210051Y-93417816D01*
X60306557Y-93228412D01*
X60372246Y-93026243D01*
X60405500Y-92816287D01*
X60405500Y-92603713D01*
X60372246Y-92393757D01*
X60306557Y-92191588D01*
X60210051Y-92002184D01*
X60210049Y-92002181D01*
X60210048Y-92002179D01*
X60085109Y-91830213D01*
X59934786Y-91679890D01*
X59762820Y-91554951D01*
X59762115Y-91554591D01*
X59754054Y-91550485D01*
X59703259Y-91502512D01*
X59686463Y-91434692D01*
X59708999Y-91368556D01*
X59754054Y-91329515D01*
X59762816Y-91325051D01*
X59817572Y-91285269D01*
X59934786Y-91200109D01*
X59934788Y-91200106D01*
X59934792Y-91200104D01*
X60085104Y-91049792D01*
X60085106Y-91049788D01*
X60085109Y-91049786D01*
X60210048Y-90877820D01*
X60210047Y-90877820D01*
X60210051Y-90877816D01*
X60306557Y-90688412D01*
X60372246Y-90486243D01*
X60405500Y-90276287D01*
X60405500Y-90063713D01*
X60372246Y-89853757D01*
X60306557Y-89651588D01*
X60210051Y-89462184D01*
X60210049Y-89462181D01*
X60210048Y-89462179D01*
X60085109Y-89290213D01*
X59934786Y-89139890D01*
X59762820Y-89014951D01*
X59762115Y-89014591D01*
X59754054Y-89010485D01*
X59703259Y-88962512D01*
X59686463Y-88894692D01*
X59708999Y-88828556D01*
X59754054Y-88789515D01*
X59762816Y-88785051D01*
X59861187Y-88713581D01*
X59934786Y-88660109D01*
X59934788Y-88660106D01*
X59934792Y-88660104D01*
X60085104Y-88509792D01*
X60085106Y-88509788D01*
X60085109Y-88509786D01*
X60210048Y-88337820D01*
X60210047Y-88337820D01*
X60210051Y-88337816D01*
X60306557Y-88148412D01*
X60372246Y-87946243D01*
X60405500Y-87736287D01*
X60405500Y-87523713D01*
X60372246Y-87313757D01*
X60306557Y-87111588D01*
X60210051Y-86922184D01*
X60210049Y-86922181D01*
X60210048Y-86922179D01*
X60085109Y-86750213D01*
X59934786Y-86599890D01*
X59762820Y-86474951D01*
X59754600Y-86470763D01*
X59754054Y-86470485D01*
X59703259Y-86422512D01*
X59686463Y-86354692D01*
X59708999Y-86288556D01*
X59754054Y-86249515D01*
X59762816Y-86245051D01*
X59784789Y-86229086D01*
X59934786Y-86120109D01*
X59934788Y-86120106D01*
X59934792Y-86120104D01*
X60085104Y-85969792D01*
X60085108Y-85969786D01*
X60141903Y-85891615D01*
X60197233Y-85848949D01*
X60242221Y-85840500D01*
X70567779Y-85840500D01*
X70634818Y-85860185D01*
X70668097Y-85891615D01*
X70724892Y-85969788D01*
X70875213Y-86120109D01*
X71047182Y-86245050D01*
X71055946Y-86249516D01*
X71106742Y-86297491D01*
X71123536Y-86365312D01*
X71100998Y-86431447D01*
X71055946Y-86470484D01*
X71047182Y-86474949D01*
X70875213Y-86599890D01*
X70724890Y-86750213D01*
X70599951Y-86922179D01*
X70503444Y-87111585D01*
X70437753Y-87313760D01*
X70404500Y-87523713D01*
X70404500Y-87736292D01*
X70419616Y-87831728D01*
X70410662Y-87901021D01*
X70384824Y-87938807D01*
X63860451Y-94463181D01*
X63799128Y-94496666D01*
X63772770Y-94499500D01*
X56877229Y-94499500D01*
X56810190Y-94479815D01*
X56789548Y-94463181D01*
X54761819Y-92435451D01*
X54728334Y-92374128D01*
X54725500Y-92347770D01*
X54725500Y-71046079D01*
X54696659Y-70901092D01*
X54696658Y-70901091D01*
X54696658Y-70901087D01*
X54640084Y-70764505D01*
X54607186Y-70715270D01*
X54607185Y-70715268D01*
X54557956Y-70641589D01*
X54557952Y-70641584D01*
X53174319Y-69257951D01*
X53140834Y-69196628D01*
X53138000Y-69170270D01*
X53138000Y-60369730D01*
X53157685Y-60302691D01*
X53174319Y-60282049D01*
X53804363Y-59652005D01*
X54557952Y-58898416D01*
X54607186Y-58824729D01*
X54640084Y-58775495D01*
X54696658Y-58638913D01*
X54718226Y-58530486D01*
X54725500Y-58493920D01*
X54725500Y-35704499D01*
X54745185Y-35637460D01*
X54797989Y-35591705D01*
X54849500Y-35580499D01*
X54872871Y-35580499D01*
X54872872Y-35580499D01*
X54932483Y-35574091D01*
X55067331Y-35523796D01*
X55182546Y-35437546D01*
X55268796Y-35322331D01*
X55319091Y-35187483D01*
X55325500Y-35127873D01*
X55325499Y-33992228D01*
X55345184Y-33925190D01*
X55361812Y-33904553D01*
X55459549Y-33806817D01*
X55520872Y-33773334D01*
X55547229Y-33770500D01*
X75202770Y-33770500D01*
X75269809Y-33790185D01*
G37*
%TD.AperFunction*%
%TA.AperFunction,Conductor*%
G36*
X57631378Y-72437501D02*
G01*
X57687312Y-72479372D01*
X57710518Y-72534285D01*
X57737753Y-72706239D01*
X57803444Y-72908414D01*
X57899951Y-73097820D01*
X58024890Y-73269786D01*
X58175213Y-73420109D01*
X58347182Y-73545050D01*
X58355946Y-73549516D01*
X58406742Y-73597491D01*
X58423536Y-73665312D01*
X58400998Y-73731447D01*
X58355946Y-73770484D01*
X58347182Y-73774949D01*
X58175213Y-73899890D01*
X58024890Y-74050213D01*
X57899951Y-74222179D01*
X57803444Y-74411585D01*
X57737753Y-74613760D01*
X57704500Y-74823713D01*
X57704500Y-75036286D01*
X57737753Y-75246239D01*
X57803444Y-75448414D01*
X57899951Y-75637820D01*
X58024890Y-75809786D01*
X58175213Y-75960109D01*
X58347182Y-76085050D01*
X58355946Y-76089516D01*
X58406742Y-76137491D01*
X58423536Y-76205312D01*
X58400998Y-76271447D01*
X58355946Y-76310484D01*
X58347182Y-76314949D01*
X58175213Y-76439890D01*
X58024890Y-76590213D01*
X57899951Y-76762179D01*
X57803444Y-76951585D01*
X57737753Y-77153760D01*
X57704500Y-77363713D01*
X57704500Y-77576286D01*
X57737753Y-77786239D01*
X57803444Y-77988414D01*
X57899951Y-78177820D01*
X58024890Y-78349786D01*
X58175213Y-78500109D01*
X58347182Y-78625050D01*
X58355946Y-78629516D01*
X58406742Y-78677491D01*
X58423536Y-78745312D01*
X58400998Y-78811447D01*
X58355946Y-78850484D01*
X58347182Y-78854949D01*
X58175213Y-78979890D01*
X58024890Y-79130213D01*
X57899951Y-79302179D01*
X57803444Y-79491585D01*
X57737753Y-79693760D01*
X57704500Y-79903713D01*
X57704500Y-80116286D01*
X57737753Y-80326239D01*
X57803444Y-80528414D01*
X57899951Y-80717820D01*
X58024890Y-80889786D01*
X58175213Y-81040109D01*
X58347182Y-81165050D01*
X58355946Y-81169516D01*
X58406742Y-81217491D01*
X58423536Y-81285312D01*
X58400998Y-81351447D01*
X58355946Y-81390484D01*
X58347182Y-81394949D01*
X58175213Y-81519890D01*
X58024890Y-81670213D01*
X57899951Y-81842179D01*
X57803444Y-82031585D01*
X57737753Y-82233760D01*
X57704500Y-82443713D01*
X57704500Y-82656286D01*
X57737753Y-82866239D01*
X57803444Y-83068414D01*
X57899951Y-83257820D01*
X58024890Y-83429786D01*
X58175213Y-83580109D01*
X58347182Y-83705050D01*
X58355946Y-83709516D01*
X58406742Y-83757491D01*
X58423536Y-83825312D01*
X58400998Y-83891447D01*
X58355946Y-83930484D01*
X58347182Y-83934949D01*
X58175213Y-84059890D01*
X58024890Y-84210213D01*
X57899951Y-84382179D01*
X57803444Y-84571585D01*
X57737753Y-84773760D01*
X57704500Y-84983713D01*
X57704500Y-85196286D01*
X57737753Y-85406239D01*
X57803444Y-85608414D01*
X57899951Y-85797820D01*
X58024890Y-85969786D01*
X58175213Y-86120109D01*
X58347182Y-86245050D01*
X58355946Y-86249516D01*
X58406742Y-86297491D01*
X58423536Y-86365312D01*
X58400998Y-86431447D01*
X58355946Y-86470484D01*
X58347182Y-86474949D01*
X58175213Y-86599890D01*
X58024890Y-86750213D01*
X57899951Y-86922179D01*
X57803444Y-87111585D01*
X57737753Y-87313760D01*
X57704500Y-87523713D01*
X57704500Y-87736286D01*
X57737753Y-87946239D01*
X57803444Y-88148414D01*
X57899951Y-88337820D01*
X58024890Y-88509786D01*
X58175213Y-88660109D01*
X58347182Y-88785050D01*
X58355946Y-88789516D01*
X58406742Y-88837491D01*
X58423536Y-88905312D01*
X58400998Y-88971447D01*
X58355946Y-89010484D01*
X58347182Y-89014949D01*
X58175213Y-89139890D01*
X58024890Y-89290213D01*
X57899951Y-89462179D01*
X57803444Y-89651585D01*
X57737753Y-89853760D01*
X57710518Y-90025713D01*
X57680589Y-90088848D01*
X57621277Y-90125779D01*
X57551414Y-90124781D01*
X57500364Y-90093996D01*
X57301819Y-89895451D01*
X57268334Y-89834128D01*
X57265500Y-89807770D01*
X57265500Y-72752229D01*
X57285185Y-72685190D01*
X57301819Y-72664548D01*
X57500366Y-72466000D01*
X57561687Y-72432517D01*
X57631378Y-72437501D01*
G37*
%TD.AperFunction*%
%TA.AperFunction,Conductor*%
G36*
X42694818Y-83320185D02*
G01*
X42728097Y-83351615D01*
X42784892Y-83429788D01*
X42935213Y-83580109D01*
X43107182Y-83705050D01*
X43115946Y-83709516D01*
X43166742Y-83757491D01*
X43183536Y-83825312D01*
X43160998Y-83891447D01*
X43115946Y-83930484D01*
X43107182Y-83934949D01*
X42935213Y-84059890D01*
X42784892Y-84210211D01*
X42728097Y-84288385D01*
X42672767Y-84331051D01*
X42627779Y-84339500D01*
X34842221Y-84339500D01*
X34775182Y-84319815D01*
X34741903Y-84288385D01*
X34685107Y-84210211D01*
X34534786Y-84059890D01*
X34362820Y-83934951D01*
X34362115Y-83934591D01*
X34354054Y-83930485D01*
X34303259Y-83882512D01*
X34286463Y-83814692D01*
X34308999Y-83748556D01*
X34354054Y-83709515D01*
X34362816Y-83705051D01*
X34384789Y-83689086D01*
X34534786Y-83580109D01*
X34534788Y-83580106D01*
X34534792Y-83580104D01*
X34685104Y-83429792D01*
X34685108Y-83429786D01*
X34741903Y-83351615D01*
X34797233Y-83308949D01*
X34842221Y-83300500D01*
X42627779Y-83300500D01*
X42694818Y-83320185D01*
G37*
%TD.AperFunction*%
%TA.AperFunction,Conductor*%
G36*
X70573028Y-83302041D02*
G01*
X70578391Y-83300955D01*
X70606198Y-83311781D01*
X70634818Y-83320185D01*
X70639751Y-83324844D01*
X70643500Y-83326304D01*
X70667594Y-83350927D01*
X70667867Y-83351297D01*
X70724896Y-83429792D01*
X70728050Y-83432946D01*
X70875213Y-83580109D01*
X71047182Y-83705050D01*
X71055946Y-83709516D01*
X71106742Y-83757491D01*
X71123536Y-83825312D01*
X71100998Y-83891447D01*
X71055946Y-83930484D01*
X71047182Y-83934949D01*
X70875213Y-84059890D01*
X70724892Y-84210211D01*
X70668097Y-84288385D01*
X70612767Y-84331051D01*
X70567779Y-84339500D01*
X60242221Y-84339500D01*
X60175182Y-84319815D01*
X60141903Y-84288385D01*
X60085107Y-84210211D01*
X59934786Y-84059890D01*
X59762820Y-83934951D01*
X59762115Y-83934591D01*
X59754054Y-83930485D01*
X59703259Y-83882512D01*
X59686463Y-83814692D01*
X59708999Y-83748556D01*
X59754054Y-83709515D01*
X59762816Y-83705051D01*
X59784789Y-83689086D01*
X59934786Y-83580109D01*
X59934788Y-83580106D01*
X59934792Y-83580104D01*
X60085104Y-83429792D01*
X60085108Y-83429786D01*
X60141903Y-83351615D01*
X60197233Y-83308949D01*
X60242221Y-83300500D01*
X70567779Y-83300500D01*
X70573028Y-83302041D01*
G37*
%TD.AperFunction*%
%TA.AperFunction,Conductor*%
G36*
X42694818Y-80780185D02*
G01*
X42728097Y-80811615D01*
X42784892Y-80889788D01*
X42935213Y-81040109D01*
X43107182Y-81165050D01*
X43115946Y-81169516D01*
X43166742Y-81217491D01*
X43183536Y-81285312D01*
X43160998Y-81351447D01*
X43115946Y-81390484D01*
X43107182Y-81394949D01*
X42935213Y-81519890D01*
X42784892Y-81670211D01*
X42728097Y-81748385D01*
X42672767Y-81791051D01*
X42627779Y-81799500D01*
X34842221Y-81799500D01*
X34775182Y-81779815D01*
X34741903Y-81748385D01*
X34685107Y-81670211D01*
X34534786Y-81519890D01*
X34362820Y-81394951D01*
X34362115Y-81394591D01*
X34354054Y-81390485D01*
X34303259Y-81342512D01*
X34286463Y-81274692D01*
X34308999Y-81208556D01*
X34354054Y-81169515D01*
X34362816Y-81165051D01*
X34384789Y-81149086D01*
X34534786Y-81040109D01*
X34534788Y-81040106D01*
X34534792Y-81040104D01*
X34685104Y-80889792D01*
X34685108Y-80889786D01*
X34741903Y-80811615D01*
X34797233Y-80768949D01*
X34842221Y-80760500D01*
X42627779Y-80760500D01*
X42694818Y-80780185D01*
G37*
%TD.AperFunction*%
%TA.AperFunction,Conductor*%
G36*
X70573028Y-80762041D02*
G01*
X70578391Y-80760955D01*
X70606198Y-80771781D01*
X70634818Y-80780185D01*
X70639751Y-80784844D01*
X70643500Y-80786304D01*
X70667594Y-80810927D01*
X70667867Y-80811297D01*
X70724896Y-80889792D01*
X70728050Y-80892946D01*
X70875213Y-81040109D01*
X71047182Y-81165050D01*
X71055946Y-81169516D01*
X71106742Y-81217491D01*
X71123536Y-81285312D01*
X71100998Y-81351447D01*
X71055946Y-81390484D01*
X71047182Y-81394949D01*
X70875213Y-81519890D01*
X70724892Y-81670211D01*
X70668097Y-81748385D01*
X70612767Y-81791051D01*
X70567779Y-81799500D01*
X60242221Y-81799500D01*
X60175182Y-81779815D01*
X60141903Y-81748385D01*
X60085107Y-81670211D01*
X59934786Y-81519890D01*
X59762820Y-81394951D01*
X59762115Y-81394591D01*
X59754054Y-81390485D01*
X59703259Y-81342512D01*
X59686463Y-81274692D01*
X59708999Y-81208556D01*
X59754054Y-81169515D01*
X59762816Y-81165051D01*
X59784789Y-81149086D01*
X59934786Y-81040109D01*
X59934788Y-81040106D01*
X59934792Y-81040104D01*
X60085104Y-80889792D01*
X60085108Y-80889786D01*
X60141903Y-80811615D01*
X60197233Y-80768949D01*
X60242221Y-80760500D01*
X70567779Y-80760500D01*
X70573028Y-80762041D01*
G37*
%TD.AperFunction*%
%TA.AperFunction,Conductor*%
G36*
X42694818Y-78240185D02*
G01*
X42728097Y-78271615D01*
X42784892Y-78349788D01*
X42935213Y-78500109D01*
X43107182Y-78625050D01*
X43115946Y-78629516D01*
X43166742Y-78677491D01*
X43183536Y-78745312D01*
X43160998Y-78811447D01*
X43115946Y-78850484D01*
X43107182Y-78854949D01*
X42935213Y-78979890D01*
X42784892Y-79130211D01*
X42728097Y-79208385D01*
X42672767Y-79251051D01*
X42627779Y-79259500D01*
X34842221Y-79259500D01*
X34775182Y-79239815D01*
X34741903Y-79208385D01*
X34685107Y-79130211D01*
X34534786Y-78979890D01*
X34362820Y-78854951D01*
X34362115Y-78854591D01*
X34354054Y-78850485D01*
X34303259Y-78802512D01*
X34286463Y-78734692D01*
X34308999Y-78668556D01*
X34354054Y-78629515D01*
X34362816Y-78625051D01*
X34384789Y-78609086D01*
X34534786Y-78500109D01*
X34534788Y-78500106D01*
X34534792Y-78500104D01*
X34685104Y-78349792D01*
X34685108Y-78349786D01*
X34741903Y-78271615D01*
X34797233Y-78228949D01*
X34842221Y-78220500D01*
X42627779Y-78220500D01*
X42694818Y-78240185D01*
G37*
%TD.AperFunction*%
%TA.AperFunction,Conductor*%
G36*
X70573028Y-78222041D02*
G01*
X70578391Y-78220955D01*
X70606198Y-78231781D01*
X70634818Y-78240185D01*
X70639751Y-78244844D01*
X70643500Y-78246304D01*
X70667594Y-78270927D01*
X70667867Y-78271297D01*
X70724896Y-78349792D01*
X70728050Y-78352946D01*
X70875213Y-78500109D01*
X71047182Y-78625050D01*
X71055946Y-78629516D01*
X71106742Y-78677491D01*
X71123536Y-78745312D01*
X71100998Y-78811447D01*
X71055946Y-78850484D01*
X71047182Y-78854949D01*
X70875213Y-78979890D01*
X70724892Y-79130211D01*
X70668097Y-79208385D01*
X70612767Y-79251051D01*
X70567779Y-79259500D01*
X60242221Y-79259500D01*
X60175182Y-79239815D01*
X60141903Y-79208385D01*
X60085107Y-79130211D01*
X59934786Y-78979890D01*
X59762820Y-78854951D01*
X59762115Y-78854591D01*
X59754054Y-78850485D01*
X59703259Y-78802512D01*
X59686463Y-78734692D01*
X59708999Y-78668556D01*
X59754054Y-78629515D01*
X59762816Y-78625051D01*
X59784789Y-78609086D01*
X59934786Y-78500109D01*
X59934788Y-78500106D01*
X59934792Y-78500104D01*
X60085104Y-78349792D01*
X60085108Y-78349786D01*
X60141903Y-78271615D01*
X60197233Y-78228949D01*
X60242221Y-78220500D01*
X70567779Y-78220500D01*
X70573028Y-78222041D01*
G37*
%TD.AperFunction*%
%TA.AperFunction,Conductor*%
G36*
X42694818Y-75700185D02*
G01*
X42728097Y-75731615D01*
X42784892Y-75809788D01*
X42935213Y-75960109D01*
X43107182Y-76085050D01*
X43115946Y-76089516D01*
X43166742Y-76137491D01*
X43183536Y-76205312D01*
X43160998Y-76271447D01*
X43115946Y-76310484D01*
X43107182Y-76314949D01*
X42935213Y-76439890D01*
X42784892Y-76590211D01*
X42728097Y-76668385D01*
X42672767Y-76711051D01*
X42627779Y-76719500D01*
X34842221Y-76719500D01*
X34775182Y-76699815D01*
X34741903Y-76668385D01*
X34685107Y-76590211D01*
X34534786Y-76439890D01*
X34362820Y-76314951D01*
X34362115Y-76314591D01*
X34354054Y-76310485D01*
X34303259Y-76262512D01*
X34286463Y-76194692D01*
X34308999Y-76128556D01*
X34354054Y-76089515D01*
X34362816Y-76085051D01*
X34384789Y-76069086D01*
X34534786Y-75960109D01*
X34534788Y-75960106D01*
X34534792Y-75960104D01*
X34685104Y-75809792D01*
X34685108Y-75809786D01*
X34741903Y-75731615D01*
X34797233Y-75688949D01*
X34842221Y-75680500D01*
X42627779Y-75680500D01*
X42694818Y-75700185D01*
G37*
%TD.AperFunction*%
%TA.AperFunction,Conductor*%
G36*
X70573028Y-75682041D02*
G01*
X70578391Y-75680955D01*
X70606198Y-75691781D01*
X70634818Y-75700185D01*
X70639751Y-75704844D01*
X70643500Y-75706304D01*
X70667594Y-75730927D01*
X70667867Y-75731297D01*
X70724896Y-75809792D01*
X70728050Y-75812946D01*
X70875213Y-75960109D01*
X71047182Y-76085050D01*
X71055946Y-76089516D01*
X71106742Y-76137491D01*
X71123536Y-76205312D01*
X71100998Y-76271447D01*
X71055946Y-76310484D01*
X71047182Y-76314949D01*
X70875213Y-76439890D01*
X70724892Y-76590211D01*
X70668097Y-76668385D01*
X70612767Y-76711051D01*
X70567779Y-76719500D01*
X60242221Y-76719500D01*
X60175182Y-76699815D01*
X60141903Y-76668385D01*
X60085107Y-76590211D01*
X59934786Y-76439890D01*
X59762820Y-76314951D01*
X59762115Y-76314591D01*
X59754054Y-76310485D01*
X59703259Y-76262512D01*
X59686463Y-76194692D01*
X59708999Y-76128556D01*
X59754054Y-76089515D01*
X59762816Y-76085051D01*
X59784789Y-76069086D01*
X59934786Y-75960109D01*
X59934788Y-75960106D01*
X59934792Y-75960104D01*
X60085104Y-75809792D01*
X60085108Y-75809786D01*
X60141903Y-75731615D01*
X60197233Y-75688949D01*
X60242221Y-75680500D01*
X70567779Y-75680500D01*
X70573028Y-75682041D01*
G37*
%TD.AperFunction*%
%TA.AperFunction,Conductor*%
G36*
X42694818Y-73160185D02*
G01*
X42728097Y-73191615D01*
X42784892Y-73269788D01*
X42935213Y-73420109D01*
X43107182Y-73545050D01*
X43115946Y-73549516D01*
X43166742Y-73597491D01*
X43183536Y-73665312D01*
X43160998Y-73731447D01*
X43115946Y-73770484D01*
X43107182Y-73774949D01*
X42935213Y-73899890D01*
X42784892Y-74050211D01*
X42728097Y-74128385D01*
X42672767Y-74171051D01*
X42627779Y-74179500D01*
X34842221Y-74179500D01*
X34775182Y-74159815D01*
X34741903Y-74128385D01*
X34685107Y-74050211D01*
X34534786Y-73899890D01*
X34362820Y-73774951D01*
X34362115Y-73774591D01*
X34354054Y-73770485D01*
X34303259Y-73722512D01*
X34286463Y-73654692D01*
X34308999Y-73588556D01*
X34354054Y-73549515D01*
X34362816Y-73545051D01*
X34384789Y-73529086D01*
X34534786Y-73420109D01*
X34534788Y-73420106D01*
X34534792Y-73420104D01*
X34685104Y-73269792D01*
X34685108Y-73269786D01*
X34741903Y-73191615D01*
X34797233Y-73148949D01*
X34842221Y-73140500D01*
X42627779Y-73140500D01*
X42694818Y-73160185D01*
G37*
%TD.AperFunction*%
%TA.AperFunction,Conductor*%
G36*
X70573028Y-73142041D02*
G01*
X70578391Y-73140955D01*
X70606198Y-73151781D01*
X70634818Y-73160185D01*
X70639751Y-73164844D01*
X70643500Y-73166304D01*
X70667594Y-73190927D01*
X70667867Y-73191297D01*
X70724896Y-73269792D01*
X70728050Y-73272946D01*
X70875213Y-73420109D01*
X71047182Y-73545050D01*
X71055946Y-73549516D01*
X71106742Y-73597491D01*
X71123536Y-73665312D01*
X71100998Y-73731447D01*
X71055946Y-73770484D01*
X71047182Y-73774949D01*
X70875213Y-73899890D01*
X70724892Y-74050211D01*
X70668097Y-74128385D01*
X70612767Y-74171051D01*
X70567779Y-74179500D01*
X60242221Y-74179500D01*
X60175182Y-74159815D01*
X60141903Y-74128385D01*
X60085107Y-74050211D01*
X59934786Y-73899890D01*
X59762820Y-73774951D01*
X59762115Y-73774591D01*
X59754054Y-73770485D01*
X59703259Y-73722512D01*
X59686463Y-73654692D01*
X59708999Y-73588556D01*
X59754054Y-73549515D01*
X59762816Y-73545051D01*
X59784789Y-73529086D01*
X59934786Y-73420109D01*
X59934788Y-73420106D01*
X59934792Y-73420104D01*
X60085104Y-73269792D01*
X60085108Y-73269786D01*
X60141903Y-73191615D01*
X60197233Y-73148949D01*
X60242221Y-73140500D01*
X70567779Y-73140500D01*
X70573028Y-73142041D01*
G37*
%TD.AperFunction*%
%TA.AperFunction,Conductor*%
G36*
X70634818Y-63000185D02*
G01*
X70668097Y-63031615D01*
X70724892Y-63109788D01*
X70875213Y-63260109D01*
X71047182Y-63385050D01*
X71055946Y-63389516D01*
X71106742Y-63437491D01*
X71123536Y-63505312D01*
X71100998Y-63571447D01*
X71055946Y-63610484D01*
X71047182Y-63614949D01*
X70875213Y-63739890D01*
X70724890Y-63890213D01*
X70599951Y-64062179D01*
X70503444Y-64251585D01*
X70437753Y-64453760D01*
X70404500Y-64663713D01*
X70404500Y-64876286D01*
X70437753Y-65086239D01*
X70503444Y-65288414D01*
X70599951Y-65477820D01*
X70724890Y-65649786D01*
X70875213Y-65800109D01*
X71047182Y-65925050D01*
X71055946Y-65929516D01*
X71106742Y-65977491D01*
X71123536Y-66045312D01*
X71100998Y-66111447D01*
X71055946Y-66150484D01*
X71047182Y-66154949D01*
X70875213Y-66279890D01*
X70724890Y-66430213D01*
X70599951Y-66602179D01*
X70503444Y-66791585D01*
X70437753Y-66993760D01*
X70404500Y-67203713D01*
X70404500Y-67416286D01*
X70437753Y-67626239D01*
X70503444Y-67828414D01*
X70599951Y-68017820D01*
X70724890Y-68189786D01*
X70875213Y-68340109D01*
X71047182Y-68465050D01*
X71055946Y-68469516D01*
X71106742Y-68517491D01*
X71123536Y-68585312D01*
X71100998Y-68651447D01*
X71055946Y-68690484D01*
X71047182Y-68694949D01*
X70875213Y-68819890D01*
X70724890Y-68970213D01*
X70599951Y-69142179D01*
X70503444Y-69331585D01*
X70437753Y-69533760D01*
X70404500Y-69743713D01*
X70404500Y-69956286D01*
X70437753Y-70166239D01*
X70503444Y-70368414D01*
X70599951Y-70557820D01*
X70724890Y-70729786D01*
X70875213Y-70880109D01*
X71047182Y-71005050D01*
X71055946Y-71009516D01*
X71106742Y-71057491D01*
X71123536Y-71125312D01*
X71100998Y-71191447D01*
X71055946Y-71230484D01*
X71047182Y-71234949D01*
X70875213Y-71359890D01*
X70724892Y-71510211D01*
X70668097Y-71588385D01*
X70612767Y-71631051D01*
X70567779Y-71639500D01*
X60242221Y-71639500D01*
X60175182Y-71619815D01*
X60141903Y-71588385D01*
X60085107Y-71510211D01*
X59971569Y-71396673D01*
X59938084Y-71335350D01*
X59943068Y-71265658D01*
X59984940Y-71209725D01*
X60015915Y-71192810D01*
X60147331Y-71143796D01*
X60262546Y-71057546D01*
X60348796Y-70942331D01*
X60399091Y-70807483D01*
X60405500Y-70747873D01*
X60405499Y-68952128D01*
X60399091Y-68892517D01*
X60387399Y-68861170D01*
X60348797Y-68757671D01*
X60348793Y-68757664D01*
X60262547Y-68642455D01*
X60262544Y-68642452D01*
X60147335Y-68556206D01*
X60147328Y-68556202D01*
X60012482Y-68505908D01*
X60012483Y-68505908D01*
X59952883Y-68499501D01*
X59952881Y-68499500D01*
X59952873Y-68499500D01*
X59952865Y-68499500D01*
X59929500Y-68499500D01*
X59862461Y-68479815D01*
X59816706Y-68427011D01*
X59805500Y-68375500D01*
X59805500Y-65957220D01*
X59825185Y-65890181D01*
X59856614Y-65856902D01*
X59934792Y-65800104D01*
X60085104Y-65649792D01*
X60085106Y-65649788D01*
X60085109Y-65649786D01*
X60210048Y-65477820D01*
X60210047Y-65477820D01*
X60210051Y-65477816D01*
X60306557Y-65288412D01*
X60372246Y-65086243D01*
X60405500Y-64876287D01*
X60405500Y-64663713D01*
X60372246Y-64453757D01*
X60306557Y-64251588D01*
X60210051Y-64062184D01*
X60210049Y-64062181D01*
X60210048Y-64062179D01*
X60085109Y-63890213D01*
X59934786Y-63739890D01*
X59762820Y-63614951D01*
X59762115Y-63614591D01*
X59754054Y-63610485D01*
X59703259Y-63562512D01*
X59686463Y-63494692D01*
X59708999Y-63428556D01*
X59754054Y-63389515D01*
X59762816Y-63385051D01*
X59784789Y-63369086D01*
X59934786Y-63260109D01*
X59934788Y-63260106D01*
X59934792Y-63260104D01*
X60085104Y-63109792D01*
X60085108Y-63109786D01*
X60141903Y-63031615D01*
X60197233Y-62988949D01*
X60242221Y-62980500D01*
X70567779Y-62980500D01*
X70634818Y-63000185D01*
G37*
%TD.AperFunction*%
%TA.AperFunction,Conductor*%
G36*
X42694818Y-60460185D02*
G01*
X42728097Y-60491615D01*
X42784892Y-60569788D01*
X42935213Y-60720109D01*
X43107182Y-60845050D01*
X43115946Y-60849516D01*
X43166742Y-60897491D01*
X43183536Y-60965312D01*
X43160998Y-61031447D01*
X43115946Y-61070484D01*
X43107182Y-61074949D01*
X42935213Y-61199890D01*
X42784892Y-61350211D01*
X42728097Y-61428385D01*
X42672767Y-61471051D01*
X42627779Y-61479500D01*
X41201080Y-61479500D01*
X41056092Y-61508340D01*
X41056082Y-61508343D01*
X40919511Y-61564912D01*
X40919498Y-61564919D01*
X40796584Y-61647048D01*
X40796580Y-61647051D01*
X35209635Y-67233995D01*
X35148312Y-67267480D01*
X35078620Y-67262496D01*
X35022687Y-67220624D01*
X34999481Y-67165714D01*
X34990382Y-67108268D01*
X34999336Y-67038980D01*
X35025171Y-67001195D01*
X41549548Y-60476819D01*
X41610871Y-60443334D01*
X41637229Y-60440500D01*
X42627779Y-60440500D01*
X42694818Y-60460185D01*
G37*
%TD.AperFunction*%
%TA.AperFunction,Conductor*%
G36*
X42633028Y-57902041D02*
G01*
X42638391Y-57900955D01*
X42666198Y-57911781D01*
X42694818Y-57920185D01*
X42699751Y-57924844D01*
X42703500Y-57926304D01*
X42727594Y-57950927D01*
X42727867Y-57951297D01*
X42784896Y-58029792D01*
X42788050Y-58032946D01*
X42935213Y-58180109D01*
X43107182Y-58305050D01*
X43115946Y-58309516D01*
X43166742Y-58357491D01*
X43183536Y-58425312D01*
X43160998Y-58491447D01*
X43115946Y-58530484D01*
X43107182Y-58534949D01*
X42935213Y-58659890D01*
X42784892Y-58810211D01*
X42728097Y-58888385D01*
X42672767Y-58931051D01*
X42627779Y-58939500D01*
X41201080Y-58939500D01*
X41056092Y-58968340D01*
X41056082Y-58968343D01*
X40919511Y-59024912D01*
X40919498Y-59024919D01*
X40796584Y-59107048D01*
X40796580Y-59107051D01*
X35209635Y-64693995D01*
X35148312Y-64727480D01*
X35078620Y-64722496D01*
X35022687Y-64680624D01*
X34999481Y-64625714D01*
X34990382Y-64568268D01*
X34999336Y-64498980D01*
X35025171Y-64461195D01*
X41549548Y-57936819D01*
X41610871Y-57903334D01*
X41637229Y-57900500D01*
X42627779Y-57900500D01*
X42633028Y-57902041D01*
G37*
%TD.AperFunction*%
%TA.AperFunction,Conductor*%
G36*
X42694818Y-55380185D02*
G01*
X42728097Y-55411615D01*
X42784892Y-55489788D01*
X42935213Y-55640109D01*
X43107182Y-55765050D01*
X43115946Y-55769516D01*
X43166742Y-55817491D01*
X43183536Y-55885312D01*
X43160998Y-55951447D01*
X43115946Y-55990484D01*
X43107182Y-55994949D01*
X42935213Y-56119890D01*
X42784892Y-56270211D01*
X42728097Y-56348385D01*
X42672767Y-56391051D01*
X42627779Y-56399500D01*
X41201080Y-56399500D01*
X41056092Y-56428340D01*
X41056082Y-56428343D01*
X40919511Y-56484912D01*
X40919498Y-56484919D01*
X40796584Y-56567048D01*
X40796580Y-56567051D01*
X35209635Y-62153995D01*
X35148312Y-62187480D01*
X35078620Y-62182496D01*
X35022687Y-62140624D01*
X34999481Y-62085712D01*
X34972246Y-61913757D01*
X34906557Y-61711588D01*
X34810051Y-61522184D01*
X34810049Y-61522181D01*
X34810048Y-61522179D01*
X34685109Y-61350213D01*
X34534786Y-61199890D01*
X34362820Y-61074951D01*
X34362115Y-61074591D01*
X34354054Y-61070485D01*
X34303259Y-61022512D01*
X34286463Y-60954692D01*
X34308999Y-60888556D01*
X34354054Y-60849515D01*
X34362816Y-60845051D01*
X34384789Y-60829086D01*
X34534786Y-60720109D01*
X34534788Y-60720106D01*
X34534792Y-60720104D01*
X34685104Y-60569792D01*
X34685106Y-60569788D01*
X34685109Y-60569786D01*
X34810048Y-60397820D01*
X34810047Y-60397820D01*
X34810051Y-60397816D01*
X34906557Y-60208412D01*
X34972246Y-60006243D01*
X35005500Y-59796287D01*
X35005500Y-59583713D01*
X34990382Y-59488268D01*
X34999336Y-59418979D01*
X35025171Y-59381195D01*
X39009549Y-55396819D01*
X39070872Y-55363334D01*
X39097230Y-55360500D01*
X42627779Y-55360500D01*
X42694818Y-55380185D01*
G37*
%TD.AperFunction*%
%TA.AperFunction,Conductor*%
G36*
X57736586Y-43002293D02*
G01*
X57792520Y-43044163D01*
X57847187Y-43117190D01*
X57847455Y-43117547D01*
X57962664Y-43203793D01*
X57962671Y-43203797D01*
X58094082Y-43252810D01*
X58150016Y-43294681D01*
X58174433Y-43360145D01*
X58159582Y-43428418D01*
X58138431Y-43456673D01*
X58024889Y-43570215D01*
X57899951Y-43742179D01*
X57803444Y-43931585D01*
X57737753Y-44133760D01*
X57704500Y-44343713D01*
X57704500Y-44556286D01*
X57737753Y-44766239D01*
X57803444Y-44968414D01*
X57899951Y-45157820D01*
X58024890Y-45329786D01*
X58175213Y-45480109D01*
X58347182Y-45605050D01*
X58355946Y-45609516D01*
X58406742Y-45657491D01*
X58423536Y-45725312D01*
X58400998Y-45791447D01*
X58355946Y-45830484D01*
X58347182Y-45834949D01*
X58175213Y-45959890D01*
X58024890Y-46110213D01*
X57899951Y-46282179D01*
X57803444Y-46471585D01*
X57737753Y-46673760D01*
X57704500Y-46883713D01*
X57704500Y-47096286D01*
X57737753Y-47306239D01*
X57803444Y-47508414D01*
X57899951Y-47697820D01*
X58024890Y-47869786D01*
X58175213Y-48020109D01*
X58347182Y-48145050D01*
X58355946Y-48149516D01*
X58406742Y-48197491D01*
X58423536Y-48265312D01*
X58400998Y-48331447D01*
X58355946Y-48370484D01*
X58347182Y-48374949D01*
X58175213Y-48499890D01*
X58024890Y-48650213D01*
X57899951Y-48822179D01*
X57803444Y-49011585D01*
X57737753Y-49213760D01*
X57704500Y-49423713D01*
X57704500Y-49636286D01*
X57737753Y-49846239D01*
X57803444Y-50048414D01*
X57899951Y-50237820D01*
X58024890Y-50409786D01*
X58175213Y-50560109D01*
X58347182Y-50685050D01*
X58355946Y-50689516D01*
X58406742Y-50737491D01*
X58423536Y-50805312D01*
X58400998Y-50871447D01*
X58355946Y-50910484D01*
X58347182Y-50914949D01*
X58175213Y-51039890D01*
X58024890Y-51190213D01*
X57899951Y-51362179D01*
X57803444Y-51551585D01*
X57737753Y-51753760D01*
X57704500Y-51963713D01*
X57704500Y-52176286D01*
X57737753Y-52386239D01*
X57803444Y-52588414D01*
X57899951Y-52777820D01*
X58024890Y-52949786D01*
X58175213Y-53100109D01*
X58347182Y-53225050D01*
X58355946Y-53229516D01*
X58406742Y-53277491D01*
X58423536Y-53345312D01*
X58400998Y-53411447D01*
X58355946Y-53450484D01*
X58347182Y-53454949D01*
X58175213Y-53579890D01*
X58024890Y-53730213D01*
X57899951Y-53902179D01*
X57803444Y-54091585D01*
X57737753Y-54293760D01*
X57704500Y-54503713D01*
X57704500Y-54716286D01*
X57737753Y-54926239D01*
X57803444Y-55128414D01*
X57899951Y-55317820D01*
X58024890Y-55489786D01*
X58175213Y-55640109D01*
X58347182Y-55765050D01*
X58355946Y-55769516D01*
X58406742Y-55817491D01*
X58423536Y-55885312D01*
X58400998Y-55951447D01*
X58355946Y-55990484D01*
X58347182Y-55994949D01*
X58175213Y-56119890D01*
X58024890Y-56270213D01*
X57899951Y-56442179D01*
X57803444Y-56631585D01*
X57737753Y-56833760D01*
X57704500Y-57043713D01*
X57704500Y-57256286D01*
X57737753Y-57466239D01*
X57803444Y-57668414D01*
X57899951Y-57857820D01*
X58024890Y-58029786D01*
X58175213Y-58180109D01*
X58347182Y-58305050D01*
X58355946Y-58309516D01*
X58406742Y-58357491D01*
X58423536Y-58425312D01*
X58400998Y-58491447D01*
X58355946Y-58530484D01*
X58347182Y-58534949D01*
X58175213Y-58659890D01*
X58024890Y-58810213D01*
X57899951Y-58982179D01*
X57803444Y-59171585D01*
X57737753Y-59373760D01*
X57704500Y-59583711D01*
X57704500Y-59796286D01*
X57737753Y-60006239D01*
X57803444Y-60208414D01*
X57899951Y-60397820D01*
X58024890Y-60569786D01*
X58175213Y-60720109D01*
X58347182Y-60845050D01*
X58355946Y-60849516D01*
X58406742Y-60897491D01*
X58423536Y-60965312D01*
X58400998Y-61031447D01*
X58355946Y-61070484D01*
X58347182Y-61074949D01*
X58175213Y-61199890D01*
X58024890Y-61350213D01*
X57899951Y-61522179D01*
X57803444Y-61711585D01*
X57737753Y-61913760D01*
X57710518Y-62085713D01*
X57680589Y-62148848D01*
X57621277Y-62185779D01*
X57551414Y-62184781D01*
X57500364Y-62153996D01*
X57301819Y-61955451D01*
X57268334Y-61894128D01*
X57265500Y-61867770D01*
X57265500Y-43422229D01*
X57285185Y-43355190D01*
X57301819Y-43334548D01*
X57451055Y-43185312D01*
X57605574Y-43030792D01*
X57666895Y-42997309D01*
X57736586Y-43002293D01*
G37*
%TD.AperFunction*%
%TA.AperFunction,Conductor*%
G36*
X70573028Y-60442041D02*
G01*
X70578391Y-60440955D01*
X70606198Y-60451781D01*
X70634818Y-60460185D01*
X70639751Y-60464844D01*
X70643500Y-60466304D01*
X70667594Y-60490927D01*
X70667867Y-60491297D01*
X70724896Y-60569792D01*
X70728050Y-60572946D01*
X70875213Y-60720109D01*
X71047182Y-60845050D01*
X71055946Y-60849516D01*
X71106742Y-60897491D01*
X71123536Y-60965312D01*
X71100998Y-61031447D01*
X71055946Y-61070484D01*
X71047182Y-61074949D01*
X70875213Y-61199890D01*
X70724892Y-61350211D01*
X70668097Y-61428385D01*
X70612767Y-61471051D01*
X70567779Y-61479500D01*
X60242221Y-61479500D01*
X60175182Y-61459815D01*
X60141903Y-61428385D01*
X60085107Y-61350211D01*
X59934786Y-61199890D01*
X59762820Y-61074951D01*
X59762115Y-61074591D01*
X59754054Y-61070485D01*
X59703259Y-61022512D01*
X59686463Y-60954692D01*
X59708999Y-60888556D01*
X59754054Y-60849515D01*
X59762816Y-60845051D01*
X59784789Y-60829086D01*
X59934786Y-60720109D01*
X59934788Y-60720106D01*
X59934792Y-60720104D01*
X60085104Y-60569792D01*
X60085108Y-60569786D01*
X60141903Y-60491615D01*
X60197233Y-60448949D01*
X60242221Y-60440500D01*
X70567779Y-60440500D01*
X70573028Y-60442041D01*
G37*
%TD.AperFunction*%
%TA.AperFunction,Conductor*%
G36*
X70634818Y-57920185D02*
G01*
X70668097Y-57951615D01*
X70724892Y-58029788D01*
X70875213Y-58180109D01*
X71047182Y-58305050D01*
X71055946Y-58309516D01*
X71106742Y-58357491D01*
X71123536Y-58425312D01*
X71100998Y-58491447D01*
X71055946Y-58530484D01*
X71047182Y-58534949D01*
X70875213Y-58659890D01*
X70724892Y-58810211D01*
X70668097Y-58888385D01*
X70612767Y-58931051D01*
X70567779Y-58939500D01*
X60242221Y-58939500D01*
X60175182Y-58919815D01*
X60141903Y-58888385D01*
X60085107Y-58810211D01*
X59934786Y-58659890D01*
X59762820Y-58534951D01*
X59762115Y-58534591D01*
X59754054Y-58530485D01*
X59703259Y-58482512D01*
X59686463Y-58414692D01*
X59708999Y-58348556D01*
X59754054Y-58309515D01*
X59762816Y-58305051D01*
X59784789Y-58289086D01*
X59934786Y-58180109D01*
X59934788Y-58180106D01*
X59934792Y-58180104D01*
X60085104Y-58029792D01*
X60085108Y-58029786D01*
X60141903Y-57951615D01*
X60197233Y-57908949D01*
X60242221Y-57900500D01*
X70567779Y-57900500D01*
X70634818Y-57920185D01*
G37*
%TD.AperFunction*%
%TA.AperFunction,Conductor*%
G36*
X42694818Y-52840185D02*
G01*
X42728097Y-52871615D01*
X42784892Y-52949788D01*
X42935213Y-53100109D01*
X43107182Y-53225050D01*
X43115946Y-53229516D01*
X43166742Y-53277491D01*
X43183536Y-53345312D01*
X43160998Y-53411447D01*
X43115946Y-53450484D01*
X43107182Y-53454949D01*
X42935213Y-53579890D01*
X42784892Y-53730211D01*
X42728097Y-53808385D01*
X42672767Y-53851051D01*
X42627779Y-53859500D01*
X38661080Y-53859500D01*
X38516092Y-53888340D01*
X38516082Y-53888343D01*
X38379509Y-53944913D01*
X38379507Y-53944914D01*
X38338645Y-53972218D01*
X38338643Y-53972219D01*
X38256589Y-54027043D01*
X38256584Y-54027047D01*
X35209635Y-57073995D01*
X35148312Y-57107480D01*
X35078620Y-57102496D01*
X35022687Y-57060624D01*
X34999481Y-57005714D01*
X34990382Y-56948268D01*
X34999336Y-56878980D01*
X35025171Y-56841195D01*
X39009549Y-52856819D01*
X39070872Y-52823334D01*
X39097230Y-52820500D01*
X42627779Y-52820500D01*
X42694818Y-52840185D01*
G37*
%TD.AperFunction*%
%TA.AperFunction,Conductor*%
G36*
X70573028Y-55362041D02*
G01*
X70578391Y-55360955D01*
X70606198Y-55371781D01*
X70634818Y-55380185D01*
X70639751Y-55384844D01*
X70643500Y-55386304D01*
X70667594Y-55410927D01*
X70667867Y-55411297D01*
X70724896Y-55489792D01*
X70728050Y-55492946D01*
X70875213Y-55640109D01*
X71047182Y-55765050D01*
X71055946Y-55769516D01*
X71106742Y-55817491D01*
X71123536Y-55885312D01*
X71100998Y-55951447D01*
X71055946Y-55990484D01*
X71047182Y-55994949D01*
X70875213Y-56119890D01*
X70724892Y-56270211D01*
X70668097Y-56348385D01*
X70612767Y-56391051D01*
X70567779Y-56399500D01*
X60242221Y-56399500D01*
X60175182Y-56379815D01*
X60141903Y-56348385D01*
X60085107Y-56270211D01*
X59934786Y-56119890D01*
X59762820Y-55994951D01*
X59762115Y-55994591D01*
X59754054Y-55990485D01*
X59703259Y-55942512D01*
X59686463Y-55874692D01*
X59708999Y-55808556D01*
X59754054Y-55769515D01*
X59762816Y-55765051D01*
X59784789Y-55749086D01*
X59934786Y-55640109D01*
X59934788Y-55640106D01*
X59934792Y-55640104D01*
X60085104Y-55489792D01*
X60085108Y-55489786D01*
X60141903Y-55411615D01*
X60197233Y-55368949D01*
X60242221Y-55360500D01*
X70567779Y-55360500D01*
X70573028Y-55362041D01*
G37*
%TD.AperFunction*%
%TA.AperFunction,Conductor*%
G36*
X42694818Y-50300185D02*
G01*
X42728097Y-50331615D01*
X42784892Y-50409788D01*
X42935213Y-50560109D01*
X43107182Y-50685050D01*
X43115946Y-50689516D01*
X43166742Y-50737491D01*
X43183536Y-50805312D01*
X43160998Y-50871447D01*
X43115946Y-50910484D01*
X43107182Y-50914949D01*
X42935213Y-51039890D01*
X42784892Y-51190211D01*
X42728097Y-51268385D01*
X42672767Y-51311051D01*
X42627779Y-51319500D01*
X38661080Y-51319500D01*
X38516092Y-51348340D01*
X38516082Y-51348343D01*
X38379509Y-51404913D01*
X38379507Y-51404914D01*
X38338645Y-51432218D01*
X38338643Y-51432219D01*
X38256589Y-51487043D01*
X38256584Y-51487047D01*
X35209635Y-54533995D01*
X35148312Y-54567480D01*
X35078620Y-54562496D01*
X35022687Y-54520624D01*
X34999481Y-54465714D01*
X34990382Y-54408268D01*
X34999336Y-54338980D01*
X35025171Y-54301195D01*
X39009549Y-50316819D01*
X39070872Y-50283334D01*
X39097230Y-50280500D01*
X42627779Y-50280500D01*
X42694818Y-50300185D01*
G37*
%TD.AperFunction*%
%TA.AperFunction,Conductor*%
G36*
X70573028Y-52822041D02*
G01*
X70578391Y-52820955D01*
X70606198Y-52831781D01*
X70634818Y-52840185D01*
X70639751Y-52844844D01*
X70643500Y-52846304D01*
X70667594Y-52870927D01*
X70667867Y-52871297D01*
X70724896Y-52949792D01*
X70728050Y-52952946D01*
X70875213Y-53100109D01*
X71047182Y-53225050D01*
X71055946Y-53229516D01*
X71106742Y-53277491D01*
X71123536Y-53345312D01*
X71100998Y-53411447D01*
X71055946Y-53450484D01*
X71047182Y-53454949D01*
X70875213Y-53579890D01*
X70724892Y-53730211D01*
X70668097Y-53808385D01*
X70612767Y-53851051D01*
X70567779Y-53859500D01*
X60242221Y-53859500D01*
X60175182Y-53839815D01*
X60141903Y-53808385D01*
X60085107Y-53730211D01*
X59934786Y-53579890D01*
X59762820Y-53454951D01*
X59762115Y-53454591D01*
X59754054Y-53450485D01*
X59703259Y-53402512D01*
X59686463Y-53334692D01*
X59708999Y-53268556D01*
X59754054Y-53229515D01*
X59762816Y-53225051D01*
X59784789Y-53209086D01*
X59934786Y-53100109D01*
X59934788Y-53100106D01*
X59934792Y-53100104D01*
X60085104Y-52949792D01*
X60085108Y-52949786D01*
X60141903Y-52871615D01*
X60197233Y-52828949D01*
X60242221Y-52820500D01*
X70567779Y-52820500D01*
X70573028Y-52822041D01*
G37*
%TD.AperFunction*%
%TA.AperFunction,Conductor*%
G36*
X42694818Y-47760185D02*
G01*
X42728097Y-47791615D01*
X42784892Y-47869788D01*
X42935213Y-48020109D01*
X43107182Y-48145050D01*
X43115946Y-48149516D01*
X43166742Y-48197491D01*
X43183536Y-48265312D01*
X43160998Y-48331447D01*
X43115946Y-48370484D01*
X43107182Y-48374949D01*
X42935213Y-48499890D01*
X42784892Y-48650211D01*
X42728097Y-48728385D01*
X42672767Y-48771051D01*
X42627779Y-48779500D01*
X38661080Y-48779500D01*
X38516092Y-48808340D01*
X38516082Y-48808343D01*
X38379509Y-48864913D01*
X38379507Y-48864914D01*
X38338645Y-48892218D01*
X38338643Y-48892219D01*
X38256589Y-48947043D01*
X38256584Y-48947047D01*
X35209635Y-51993995D01*
X35148312Y-52027480D01*
X35078620Y-52022496D01*
X35022687Y-51980624D01*
X34999481Y-51925714D01*
X34990382Y-51868268D01*
X34999336Y-51798980D01*
X35025171Y-51761195D01*
X39009549Y-47776819D01*
X39070872Y-47743334D01*
X39097230Y-47740500D01*
X42627779Y-47740500D01*
X42694818Y-47760185D01*
G37*
%TD.AperFunction*%
%TA.AperFunction,Conductor*%
G36*
X70573028Y-50282041D02*
G01*
X70578391Y-50280955D01*
X70606198Y-50291781D01*
X70634818Y-50300185D01*
X70639751Y-50304844D01*
X70643500Y-50306304D01*
X70667594Y-50330927D01*
X70667867Y-50331297D01*
X70724896Y-50409792D01*
X70728050Y-50412946D01*
X70875213Y-50560109D01*
X71047182Y-50685050D01*
X71055946Y-50689516D01*
X71106742Y-50737491D01*
X71123536Y-50805312D01*
X71100998Y-50871447D01*
X71055946Y-50910484D01*
X71047182Y-50914949D01*
X70875213Y-51039890D01*
X70724892Y-51190211D01*
X70668097Y-51268385D01*
X70612767Y-51311051D01*
X70567779Y-51319500D01*
X60242221Y-51319500D01*
X60175182Y-51299815D01*
X60141903Y-51268385D01*
X60085107Y-51190211D01*
X59934786Y-51039890D01*
X59762820Y-50914951D01*
X59762115Y-50914591D01*
X59754054Y-50910485D01*
X59703259Y-50862512D01*
X59686463Y-50794692D01*
X59708999Y-50728556D01*
X59754054Y-50689515D01*
X59762816Y-50685051D01*
X59849138Y-50622335D01*
X59934786Y-50560109D01*
X59934788Y-50560106D01*
X59934792Y-50560104D01*
X60085104Y-50409792D01*
X60085108Y-50409786D01*
X60141903Y-50331615D01*
X60197233Y-50288949D01*
X60242221Y-50280500D01*
X70567779Y-50280500D01*
X70573028Y-50282041D01*
G37*
%TD.AperFunction*%
%TA.AperFunction,Conductor*%
G36*
X42694818Y-45220185D02*
G01*
X42728097Y-45251615D01*
X42784892Y-45329788D01*
X42935213Y-45480109D01*
X43107182Y-45605050D01*
X43115946Y-45609516D01*
X43166742Y-45657491D01*
X43183536Y-45725312D01*
X43160998Y-45791447D01*
X43115946Y-45830484D01*
X43107182Y-45834949D01*
X42935213Y-45959890D01*
X42784892Y-46110211D01*
X42728097Y-46188385D01*
X42672767Y-46231051D01*
X42627779Y-46239500D01*
X38661080Y-46239500D01*
X38516092Y-46268340D01*
X38516082Y-46268343D01*
X38379509Y-46324913D01*
X38379507Y-46324914D01*
X38338645Y-46352218D01*
X38338643Y-46352219D01*
X38256589Y-46407043D01*
X38256584Y-46407047D01*
X35217180Y-49446451D01*
X35155857Y-49479936D01*
X35086165Y-49474952D01*
X35030232Y-49433080D01*
X35005815Y-49367616D01*
X35005499Y-49358770D01*
X35005499Y-49292230D01*
X35025184Y-49225191D01*
X35041818Y-49204549D01*
X39009549Y-45236819D01*
X39070872Y-45203334D01*
X39097230Y-45200500D01*
X42627779Y-45200500D01*
X42694818Y-45220185D01*
G37*
%TD.AperFunction*%
%TA.AperFunction,Conductor*%
G36*
X70573028Y-47742041D02*
G01*
X70578391Y-47740955D01*
X70606198Y-47751781D01*
X70634818Y-47760185D01*
X70639751Y-47764844D01*
X70643500Y-47766304D01*
X70667594Y-47790927D01*
X70667867Y-47791297D01*
X70724896Y-47869792D01*
X70728050Y-47872946D01*
X70875213Y-48020109D01*
X71047182Y-48145050D01*
X71055946Y-48149516D01*
X71106742Y-48197491D01*
X71123536Y-48265312D01*
X71100998Y-48331447D01*
X71055946Y-48370484D01*
X71047182Y-48374949D01*
X70875213Y-48499890D01*
X70724892Y-48650211D01*
X70668097Y-48728385D01*
X70612767Y-48771051D01*
X70567779Y-48779500D01*
X60242221Y-48779500D01*
X60175182Y-48759815D01*
X60141903Y-48728385D01*
X60085107Y-48650211D01*
X59934786Y-48499890D01*
X59762820Y-48374951D01*
X59762115Y-48374591D01*
X59754054Y-48370485D01*
X59703259Y-48322512D01*
X59686463Y-48254692D01*
X59708999Y-48188556D01*
X59754054Y-48149515D01*
X59762816Y-48145051D01*
X59784789Y-48129086D01*
X59934786Y-48020109D01*
X59934788Y-48020106D01*
X59934792Y-48020104D01*
X60085104Y-47869792D01*
X60085108Y-47869786D01*
X60141903Y-47791615D01*
X60197233Y-47748949D01*
X60242221Y-47740500D01*
X70567779Y-47740500D01*
X70573028Y-47742041D01*
G37*
%TD.AperFunction*%
%TA.AperFunction,Conductor*%
G36*
X70634818Y-45220185D02*
G01*
X70668097Y-45251615D01*
X70724892Y-45329788D01*
X70875213Y-45480109D01*
X71047182Y-45605050D01*
X71055946Y-45609516D01*
X71106742Y-45657491D01*
X71123536Y-45725312D01*
X71100998Y-45791447D01*
X71055946Y-45830484D01*
X71047182Y-45834949D01*
X70875213Y-45959890D01*
X70724892Y-46110211D01*
X70668097Y-46188385D01*
X70612767Y-46231051D01*
X70567779Y-46239500D01*
X60242221Y-46239500D01*
X60175182Y-46219815D01*
X60141903Y-46188385D01*
X60085107Y-46110211D01*
X59934786Y-45959890D01*
X59762820Y-45834951D01*
X59762115Y-45834591D01*
X59754054Y-45830485D01*
X59703259Y-45782512D01*
X59686463Y-45714692D01*
X59708999Y-45648556D01*
X59754054Y-45609515D01*
X59762816Y-45605051D01*
X59784789Y-45589086D01*
X59934786Y-45480109D01*
X59934788Y-45480106D01*
X59934792Y-45480104D01*
X60085104Y-45329792D01*
X60085108Y-45329786D01*
X60141903Y-45251615D01*
X60197233Y-45208949D01*
X60242221Y-45200500D01*
X70567779Y-45200500D01*
X70634818Y-45220185D01*
G37*
%TD.AperFunction*%
%TA.AperFunction,Conductor*%
G36*
X70308433Y-41955860D02*
G01*
X70331378Y-41957501D01*
X70341458Y-41965046D01*
X70353588Y-41968421D01*
X70368896Y-41985586D01*
X70387312Y-41999372D01*
X70392824Y-42012417D01*
X70400092Y-42020566D01*
X70410439Y-42053789D01*
X70410469Y-42053975D01*
X70437754Y-42226243D01*
X70439187Y-42230652D01*
X70503444Y-42428414D01*
X70599951Y-42617820D01*
X70724890Y-42789786D01*
X70875213Y-42940109D01*
X71047182Y-43065050D01*
X71055946Y-43069516D01*
X71106742Y-43117491D01*
X71123536Y-43185312D01*
X71100998Y-43251447D01*
X71055946Y-43290484D01*
X71047182Y-43294949D01*
X70875213Y-43419890D01*
X70724892Y-43570211D01*
X70668097Y-43648385D01*
X70612767Y-43691051D01*
X70567779Y-43699500D01*
X60242221Y-43699500D01*
X60175182Y-43679815D01*
X60141903Y-43648385D01*
X60085107Y-43570211D01*
X59971569Y-43456673D01*
X59938084Y-43395350D01*
X59943068Y-43325658D01*
X59984940Y-43269725D01*
X60015915Y-43252810D01*
X60147331Y-43203796D01*
X60262546Y-43117546D01*
X60348796Y-43002331D01*
X60399091Y-42867483D01*
X60405500Y-42807873D01*
X60405500Y-42784500D01*
X60425185Y-42717461D01*
X60477989Y-42671706D01*
X60529500Y-42660500D01*
X69288920Y-42660500D01*
X69386462Y-42641096D01*
X69433913Y-42631658D01*
X69570495Y-42575084D01*
X69619729Y-42542186D01*
X69693416Y-42492952D01*
X70200366Y-41986000D01*
X70211414Y-41979967D01*
X70219523Y-41970336D01*
X70241497Y-41963541D01*
X70261687Y-41952517D01*
X70274245Y-41953415D01*
X70286274Y-41949696D01*
X70308433Y-41955860D01*
G37*
%TD.AperFunction*%
%TA.AperFunction,Conductor*%
G36*
X103582539Y-29095185D02*
G01*
X103628294Y-29147989D01*
X103639500Y-29199500D01*
X103639500Y-99705500D01*
X103619815Y-99772539D01*
X103567011Y-99818294D01*
X103515500Y-99829500D01*
X28564500Y-99829500D01*
X28497461Y-99809815D01*
X28451706Y-99757011D01*
X28440500Y-99705500D01*
X28440500Y-48632135D01*
X32304500Y-48632135D01*
X32304500Y-50427870D01*
X32304501Y-50427876D01*
X32310908Y-50487483D01*
X32361202Y-50622328D01*
X32361206Y-50622335D01*
X32447452Y-50737544D01*
X32447455Y-50737547D01*
X32562664Y-50823793D01*
X32562671Y-50823797D01*
X32694082Y-50872810D01*
X32750016Y-50914681D01*
X32774433Y-50980145D01*
X32759582Y-51048418D01*
X32738431Y-51076673D01*
X32624889Y-51190215D01*
X32499951Y-51362179D01*
X32403444Y-51551585D01*
X32337753Y-51753760D01*
X32304500Y-51963713D01*
X32304500Y-52176286D01*
X32337753Y-52386239D01*
X32403444Y-52588414D01*
X32499951Y-52777820D01*
X32624890Y-52949786D01*
X32775213Y-53100109D01*
X32947182Y-53225050D01*
X32955946Y-53229516D01*
X33006742Y-53277491D01*
X33023536Y-53345312D01*
X33000998Y-53411447D01*
X32955946Y-53450484D01*
X32947182Y-53454949D01*
X32775213Y-53579890D01*
X32624890Y-53730213D01*
X32499951Y-53902179D01*
X32403444Y-54091585D01*
X32337753Y-54293760D01*
X32304500Y-54503713D01*
X32304500Y-54716286D01*
X32337753Y-54926239D01*
X32403444Y-55128414D01*
X32499951Y-55317820D01*
X32624890Y-55489786D01*
X32775213Y-55640109D01*
X32947182Y-55765050D01*
X32955946Y-55769516D01*
X33006742Y-55817491D01*
X33023536Y-55885312D01*
X33000998Y-55951447D01*
X32955946Y-55990484D01*
X32947182Y-55994949D01*
X32775213Y-56119890D01*
X32624890Y-56270213D01*
X32499951Y-56442179D01*
X32403444Y-56631585D01*
X32337753Y-56833760D01*
X32304500Y-57043713D01*
X32304500Y-57256286D01*
X32337753Y-57466239D01*
X32403444Y-57668414D01*
X32499951Y-57857820D01*
X32624890Y-58029786D01*
X32775213Y-58180109D01*
X32947182Y-58305050D01*
X32955946Y-58309516D01*
X33006742Y-58357491D01*
X33023536Y-58425312D01*
X33000998Y-58491447D01*
X32955946Y-58530484D01*
X32947182Y-58534949D01*
X32775213Y-58659890D01*
X32624890Y-58810213D01*
X32499951Y-58982179D01*
X32403444Y-59171585D01*
X32337753Y-59373760D01*
X32304500Y-59583711D01*
X32304500Y-59796286D01*
X32337753Y-60006239D01*
X32403444Y-60208414D01*
X32499951Y-60397820D01*
X32624890Y-60569786D01*
X32775213Y-60720109D01*
X32947182Y-60845050D01*
X32955946Y-60849516D01*
X33006742Y-60897491D01*
X33023536Y-60965312D01*
X33000998Y-61031447D01*
X32955946Y-61070484D01*
X32947182Y-61074949D01*
X32775213Y-61199890D01*
X32624890Y-61350213D01*
X32499951Y-61522179D01*
X32403444Y-61711585D01*
X32337753Y-61913760D01*
X32331150Y-61955451D01*
X32304500Y-62123713D01*
X32304500Y-62336287D01*
X32337754Y-62546243D01*
X32390447Y-62708416D01*
X32403444Y-62748414D01*
X32499951Y-62937820D01*
X32624890Y-63109786D01*
X32775213Y-63260109D01*
X32947182Y-63385050D01*
X32955946Y-63389516D01*
X33006742Y-63437491D01*
X33023536Y-63505312D01*
X33000998Y-63571447D01*
X32955946Y-63610484D01*
X32947182Y-63614949D01*
X32775213Y-63739890D01*
X32624890Y-63890213D01*
X32499951Y-64062179D01*
X32403444Y-64251585D01*
X32337753Y-64453760D01*
X32304500Y-64663713D01*
X32304500Y-64876286D01*
X32337753Y-65086239D01*
X32403444Y-65288414D01*
X32499951Y-65477820D01*
X32624890Y-65649786D01*
X32775213Y-65800109D01*
X32947182Y-65925050D01*
X32955946Y-65929516D01*
X33006742Y-65977491D01*
X33023536Y-66045312D01*
X33000998Y-66111447D01*
X32955946Y-66150484D01*
X32947182Y-66154949D01*
X32775213Y-66279890D01*
X32624890Y-66430213D01*
X32499951Y-66602179D01*
X32403444Y-66791585D01*
X32337753Y-66993760D01*
X32304500Y-67203713D01*
X32304500Y-67416286D01*
X32337753Y-67626239D01*
X32403444Y-67828414D01*
X32499951Y-68017820D01*
X32624890Y-68189786D01*
X32775213Y-68340109D01*
X32947182Y-68465050D01*
X32955946Y-68469516D01*
X33006742Y-68517491D01*
X33023536Y-68585312D01*
X33000998Y-68651447D01*
X32955946Y-68690484D01*
X32947182Y-68694949D01*
X32775213Y-68819890D01*
X32624890Y-68970213D01*
X32499951Y-69142179D01*
X32403444Y-69331585D01*
X32337753Y-69533760D01*
X32304500Y-69743713D01*
X32304500Y-69956286D01*
X32337753Y-70166239D01*
X32403444Y-70368414D01*
X32499951Y-70557820D01*
X32624890Y-70729786D01*
X32775213Y-70880109D01*
X32947182Y-71005050D01*
X32955946Y-71009516D01*
X33006742Y-71057491D01*
X33023536Y-71125312D01*
X33000998Y-71191447D01*
X32955946Y-71230484D01*
X32947182Y-71234949D01*
X32775213Y-71359890D01*
X32624890Y-71510213D01*
X32499951Y-71682179D01*
X32403444Y-71871585D01*
X32337753Y-72073760D01*
X32304500Y-72283713D01*
X32304500Y-72496286D01*
X32337753Y-72706239D01*
X32403444Y-72908414D01*
X32499951Y-73097820D01*
X32624890Y-73269786D01*
X32775213Y-73420109D01*
X32947182Y-73545050D01*
X32955946Y-73549516D01*
X33006742Y-73597491D01*
X33023536Y-73665312D01*
X33000998Y-73731447D01*
X32955946Y-73770484D01*
X32947182Y-73774949D01*
X32775213Y-73899890D01*
X32624890Y-74050213D01*
X32499951Y-74222179D01*
X32403444Y-74411585D01*
X32337753Y-74613760D01*
X32304500Y-74823713D01*
X32304500Y-75036286D01*
X32337753Y-75246239D01*
X32403444Y-75448414D01*
X32499951Y-75637820D01*
X32624890Y-75809786D01*
X32775213Y-75960109D01*
X32947182Y-76085050D01*
X32955946Y-76089516D01*
X33006742Y-76137491D01*
X33023536Y-76205312D01*
X33000998Y-76271447D01*
X32955946Y-76310484D01*
X32947182Y-76314949D01*
X32775213Y-76439890D01*
X32624890Y-76590213D01*
X32499951Y-76762179D01*
X32403444Y-76951585D01*
X32337753Y-77153760D01*
X32304500Y-77363713D01*
X32304500Y-77576286D01*
X32337753Y-77786239D01*
X32403444Y-77988414D01*
X32499951Y-78177820D01*
X32624890Y-78349786D01*
X32775213Y-78500109D01*
X32947182Y-78625050D01*
X32955946Y-78629516D01*
X33006742Y-78677491D01*
X33023536Y-78745312D01*
X33000998Y-78811447D01*
X32955946Y-78850484D01*
X32947182Y-78854949D01*
X32775213Y-78979890D01*
X32624890Y-79130213D01*
X32499951Y-79302179D01*
X32403444Y-79491585D01*
X32337753Y-79693760D01*
X32304500Y-79903713D01*
X32304500Y-80116286D01*
X32337753Y-80326239D01*
X32403444Y-80528414D01*
X32499951Y-80717820D01*
X32624890Y-80889786D01*
X32775213Y-81040109D01*
X32947182Y-81165050D01*
X32955946Y-81169516D01*
X33006742Y-81217491D01*
X33023536Y-81285312D01*
X33000998Y-81351447D01*
X32955946Y-81390484D01*
X32947182Y-81394949D01*
X32775213Y-81519890D01*
X32624890Y-81670213D01*
X32499951Y-81842179D01*
X32403444Y-82031585D01*
X32337753Y-82233760D01*
X32304500Y-82443713D01*
X32304500Y-82656286D01*
X32337753Y-82866239D01*
X32403444Y-83068414D01*
X32499951Y-83257820D01*
X32624890Y-83429786D01*
X32775213Y-83580109D01*
X32947182Y-83705050D01*
X32955946Y-83709516D01*
X33006742Y-83757491D01*
X33023536Y-83825312D01*
X33000998Y-83891447D01*
X32955946Y-83930484D01*
X32947182Y-83934949D01*
X32775213Y-84059890D01*
X32624890Y-84210213D01*
X32499951Y-84382179D01*
X32403444Y-84571585D01*
X32337753Y-84773760D01*
X32304500Y-84983713D01*
X32304500Y-85196286D01*
X32337753Y-85406239D01*
X32403444Y-85608414D01*
X32499951Y-85797820D01*
X32624890Y-85969786D01*
X32775213Y-86120109D01*
X32947179Y-86245048D01*
X32947181Y-86245049D01*
X32947184Y-86245051D01*
X33136588Y-86341557D01*
X33338757Y-86407246D01*
X33548713Y-86440500D01*
X33548714Y-86440500D01*
X33761286Y-86440500D01*
X33761287Y-86440500D01*
X33971243Y-86407246D01*
X34173412Y-86341557D01*
X34362816Y-86245051D01*
X34384789Y-86229086D01*
X34534786Y-86120109D01*
X34534788Y-86120106D01*
X34534792Y-86120104D01*
X34685104Y-85969792D01*
X34685108Y-85969786D01*
X34741903Y-85891615D01*
X34797233Y-85848949D01*
X34842221Y-85840500D01*
X42627779Y-85840500D01*
X42694818Y-85860185D01*
X42728097Y-85891615D01*
X42784892Y-85969788D01*
X42935213Y-86120109D01*
X43107182Y-86245050D01*
X43115946Y-86249516D01*
X43166742Y-86297491D01*
X43183536Y-86365312D01*
X43160998Y-86431447D01*
X43115946Y-86470484D01*
X43107182Y-86474949D01*
X42935213Y-86599890D01*
X42784890Y-86750213D01*
X42659951Y-86922179D01*
X42563444Y-87111585D01*
X42497753Y-87313760D01*
X42464500Y-87523713D01*
X42464500Y-87736286D01*
X42497753Y-87946239D01*
X42563444Y-88148414D01*
X42659951Y-88337820D01*
X42784890Y-88509786D01*
X42935213Y-88660109D01*
X43107182Y-88785050D01*
X43115946Y-88789516D01*
X43166742Y-88837491D01*
X43183536Y-88905312D01*
X43160998Y-88971447D01*
X43115946Y-89010484D01*
X43107182Y-89014949D01*
X42935213Y-89139890D01*
X42784890Y-89290213D01*
X42659951Y-89462179D01*
X42563444Y-89651585D01*
X42497753Y-89853760D01*
X42464500Y-90063713D01*
X42464500Y-90276286D01*
X42497735Y-90486127D01*
X42497754Y-90486243D01*
X42550447Y-90648416D01*
X42563444Y-90688414D01*
X42659951Y-90877820D01*
X42784890Y-91049786D01*
X42935213Y-91200109D01*
X43107182Y-91325050D01*
X43115946Y-91329516D01*
X43166742Y-91377491D01*
X43183536Y-91445312D01*
X43160998Y-91511447D01*
X43115946Y-91550484D01*
X43107182Y-91554949D01*
X42935213Y-91679890D01*
X42784890Y-91830213D01*
X42659951Y-92002179D01*
X42563444Y-92191585D01*
X42497753Y-92393760D01*
X42486864Y-92462514D01*
X42464500Y-92603713D01*
X42464500Y-92816287D01*
X42497754Y-93026243D01*
X42550447Y-93188416D01*
X42563444Y-93228414D01*
X42659951Y-93417820D01*
X42784890Y-93589786D01*
X42784896Y-93589792D01*
X42935208Y-93740104D01*
X43013384Y-93796902D01*
X43056051Y-93852231D01*
X43064500Y-93897220D01*
X43064500Y-94688918D01*
X43064500Y-94688920D01*
X43064499Y-94688920D01*
X43093340Y-94833907D01*
X43093343Y-94833917D01*
X43149914Y-94970492D01*
X43182812Y-95019727D01*
X43182813Y-95019730D01*
X43232046Y-95093414D01*
X43232052Y-95093421D01*
X45241584Y-97102952D01*
X45241586Y-97102954D01*
X45271058Y-97122645D01*
X45315270Y-97152186D01*
X45364505Y-97185084D01*
X45364506Y-97185084D01*
X45364507Y-97185085D01*
X45364509Y-97185086D01*
X45501082Y-97241656D01*
X45501087Y-97241658D01*
X45501091Y-97241658D01*
X45501092Y-97241659D01*
X45646079Y-97270500D01*
X45646082Y-97270500D01*
X72463920Y-97270500D01*
X72561462Y-97251096D01*
X72608913Y-97241658D01*
X72745495Y-97185084D01*
X72794729Y-97152186D01*
X72794734Y-97152183D01*
X72819071Y-97135921D01*
X72868416Y-97102952D01*
X77417951Y-92553416D01*
X77500084Y-92430495D01*
X77556658Y-92293913D01*
X77585500Y-92148918D01*
X77585500Y-92001083D01*
X77585500Y-39263713D01*
X95804500Y-39263713D01*
X95804500Y-39476286D01*
X95837753Y-39686239D01*
X95903444Y-39888414D01*
X95999951Y-40077820D01*
X96124890Y-40249786D01*
X96275213Y-40400109D01*
X96447182Y-40525050D01*
X96455946Y-40529516D01*
X96506742Y-40577491D01*
X96523536Y-40645312D01*
X96500998Y-40711447D01*
X96455946Y-40750484D01*
X96447182Y-40754949D01*
X96275213Y-40879890D01*
X96124890Y-41030213D01*
X95999951Y-41202179D01*
X95903444Y-41391585D01*
X95837753Y-41593760D01*
X95804500Y-41803713D01*
X95804500Y-42016286D01*
X95837753Y-42226239D01*
X95903444Y-42428414D01*
X95999951Y-42617820D01*
X96124890Y-42789786D01*
X96275213Y-42940109D01*
X96447182Y-43065050D01*
X96455946Y-43069516D01*
X96506742Y-43117491D01*
X96523536Y-43185312D01*
X96500998Y-43251447D01*
X96455946Y-43290484D01*
X96447182Y-43294949D01*
X96275213Y-43419890D01*
X96124890Y-43570213D01*
X95999951Y-43742179D01*
X95903444Y-43931585D01*
X95837753Y-44133760D01*
X95804500Y-44343713D01*
X95804500Y-44556286D01*
X95837753Y-44766239D01*
X95903444Y-44968414D01*
X95999951Y-45157820D01*
X96124890Y-45329786D01*
X96275213Y-45480109D01*
X96447182Y-45605050D01*
X96455946Y-45609516D01*
X96506742Y-45657491D01*
X96523536Y-45725312D01*
X96500998Y-45791447D01*
X96455946Y-45830484D01*
X96447182Y-45834949D01*
X96275213Y-45959890D01*
X96124890Y-46110213D01*
X95999951Y-46282179D01*
X95903444Y-46471585D01*
X95837753Y-46673760D01*
X95804500Y-46883713D01*
X95804500Y-47096286D01*
X95837753Y-47306239D01*
X95903444Y-47508414D01*
X95999951Y-47697820D01*
X96124890Y-47869786D01*
X96275213Y-48020109D01*
X96447182Y-48145050D01*
X96455946Y-48149516D01*
X96506742Y-48197491D01*
X96523536Y-48265312D01*
X96500998Y-48331447D01*
X96455946Y-48370484D01*
X96447182Y-48374949D01*
X96275213Y-48499890D01*
X96124890Y-48650213D01*
X95999951Y-48822179D01*
X95903444Y-49011585D01*
X95837753Y-49213760D01*
X95804500Y-49423713D01*
X95804500Y-49636286D01*
X95837753Y-49846239D01*
X95903444Y-50048414D01*
X95999951Y-50237820D01*
X96124890Y-50409786D01*
X96275213Y-50560109D01*
X96447182Y-50685050D01*
X96455946Y-50689516D01*
X96506742Y-50737491D01*
X96523536Y-50805312D01*
X96500998Y-50871447D01*
X96455946Y-50910484D01*
X96447182Y-50914949D01*
X96275213Y-51039890D01*
X96124890Y-51190213D01*
X95999951Y-51362179D01*
X95903444Y-51551585D01*
X95837753Y-51753760D01*
X95804500Y-51963713D01*
X95804500Y-52176286D01*
X95837753Y-52386239D01*
X95903444Y-52588414D01*
X95999951Y-52777820D01*
X96124890Y-52949786D01*
X96275213Y-53100109D01*
X96447182Y-53225050D01*
X96455946Y-53229516D01*
X96506742Y-53277491D01*
X96523536Y-53345312D01*
X96500998Y-53411447D01*
X96455946Y-53450484D01*
X96447182Y-53454949D01*
X96275213Y-53579890D01*
X96124890Y-53730213D01*
X95999951Y-53902179D01*
X95903444Y-54091585D01*
X95837753Y-54293760D01*
X95804500Y-54503713D01*
X95804500Y-54716286D01*
X95837753Y-54926239D01*
X95903444Y-55128414D01*
X95999951Y-55317820D01*
X96124890Y-55489786D01*
X96275213Y-55640109D01*
X96447182Y-55765050D01*
X96455946Y-55769516D01*
X96506742Y-55817491D01*
X96523536Y-55885312D01*
X96500998Y-55951447D01*
X96455946Y-55990484D01*
X96447182Y-55994949D01*
X96275213Y-56119890D01*
X96124890Y-56270213D01*
X95999951Y-56442179D01*
X95903444Y-56631585D01*
X95837753Y-56833760D01*
X95804500Y-57043713D01*
X95804500Y-57256286D01*
X95837753Y-57466239D01*
X95903444Y-57668414D01*
X95999951Y-57857820D01*
X96124890Y-58029786D01*
X96275213Y-58180109D01*
X96447182Y-58305050D01*
X96455946Y-58309516D01*
X96506742Y-58357491D01*
X96523536Y-58425312D01*
X96500998Y-58491447D01*
X96455946Y-58530484D01*
X96447182Y-58534949D01*
X96275213Y-58659890D01*
X96124890Y-58810213D01*
X95999951Y-58982179D01*
X95903444Y-59171585D01*
X95837753Y-59373760D01*
X95804500Y-59583711D01*
X95804500Y-59796286D01*
X95837753Y-60006239D01*
X95903444Y-60208414D01*
X95999951Y-60397820D01*
X96124890Y-60569786D01*
X96275213Y-60720109D01*
X96447182Y-60845050D01*
X96455946Y-60849516D01*
X96506742Y-60897491D01*
X96523536Y-60965312D01*
X96500998Y-61031447D01*
X96455946Y-61070484D01*
X96447182Y-61074949D01*
X96275213Y-61199890D01*
X96124890Y-61350213D01*
X95999951Y-61522179D01*
X95903444Y-61711585D01*
X95837753Y-61913760D01*
X95831150Y-61955451D01*
X95804500Y-62123713D01*
X95804500Y-62336287D01*
X95837754Y-62546243D01*
X95890447Y-62708416D01*
X95903444Y-62748414D01*
X95999951Y-62937820D01*
X96124890Y-63109786D01*
X96275213Y-63260109D01*
X96447182Y-63385050D01*
X96455946Y-63389516D01*
X96506742Y-63437491D01*
X96523536Y-63505312D01*
X96500998Y-63571447D01*
X96455946Y-63610484D01*
X96447182Y-63614949D01*
X96275213Y-63739890D01*
X96124890Y-63890213D01*
X95999951Y-64062179D01*
X95903444Y-64251585D01*
X95837753Y-64453760D01*
X95804500Y-64663713D01*
X95804500Y-64876286D01*
X95837753Y-65086239D01*
X95903444Y-65288414D01*
X95999951Y-65477820D01*
X96124890Y-65649786D01*
X96275213Y-65800109D01*
X96447182Y-65925050D01*
X96455946Y-65929516D01*
X96506742Y-65977491D01*
X96523536Y-66045312D01*
X96500998Y-66111447D01*
X96455946Y-66150484D01*
X96447182Y-66154949D01*
X96275213Y-66279890D01*
X96124890Y-66430213D01*
X95999951Y-66602179D01*
X95903444Y-66791585D01*
X95837753Y-66993760D01*
X95804500Y-67203713D01*
X95804500Y-67416286D01*
X95837753Y-67626239D01*
X95903444Y-67828414D01*
X95999951Y-68017820D01*
X96124890Y-68189786D01*
X96275213Y-68340109D01*
X96447182Y-68465050D01*
X96455946Y-68469516D01*
X96506742Y-68517491D01*
X96523536Y-68585312D01*
X96500998Y-68651447D01*
X96455946Y-68690484D01*
X96447182Y-68694949D01*
X96275213Y-68819890D01*
X96124890Y-68970213D01*
X95999951Y-69142179D01*
X95903444Y-69331585D01*
X95837753Y-69533760D01*
X95804500Y-69743713D01*
X95804500Y-69956286D01*
X95837753Y-70166239D01*
X95903444Y-70368414D01*
X95999951Y-70557820D01*
X96124890Y-70729786D01*
X96275213Y-70880109D01*
X96447182Y-71005050D01*
X96455946Y-71009516D01*
X96506742Y-71057491D01*
X96523536Y-71125312D01*
X96500998Y-71191447D01*
X96455946Y-71230484D01*
X96447182Y-71234949D01*
X96275213Y-71359890D01*
X96124890Y-71510213D01*
X95999951Y-71682179D01*
X95903444Y-71871585D01*
X95837753Y-72073760D01*
X95804500Y-72283713D01*
X95804500Y-72496286D01*
X95837753Y-72706239D01*
X95903444Y-72908414D01*
X95999951Y-73097820D01*
X96124890Y-73269786D01*
X96275213Y-73420109D01*
X96447182Y-73545050D01*
X96455946Y-73549516D01*
X96506742Y-73597491D01*
X96523536Y-73665312D01*
X96500998Y-73731447D01*
X96455946Y-73770484D01*
X96447182Y-73774949D01*
X96275213Y-73899890D01*
X96124890Y-74050213D01*
X95999951Y-74222179D01*
X95903444Y-74411585D01*
X95837753Y-74613760D01*
X95804500Y-74823713D01*
X95804500Y-75036286D01*
X95837753Y-75246239D01*
X95903444Y-75448414D01*
X95999951Y-75637820D01*
X96124890Y-75809786D01*
X96275213Y-75960109D01*
X96447182Y-76085050D01*
X96455946Y-76089516D01*
X96506742Y-76137491D01*
X96523536Y-76205312D01*
X96500998Y-76271447D01*
X96455946Y-76310484D01*
X96447182Y-76314949D01*
X96275213Y-76439890D01*
X96124890Y-76590213D01*
X95999951Y-76762179D01*
X95903444Y-76951585D01*
X95837753Y-77153760D01*
X95804500Y-77363713D01*
X95804500Y-77576286D01*
X95837753Y-77786239D01*
X95903444Y-77988414D01*
X95999951Y-78177820D01*
X96124890Y-78349786D01*
X96275213Y-78500109D01*
X96447182Y-78625050D01*
X96455946Y-78629516D01*
X96506742Y-78677491D01*
X96523536Y-78745312D01*
X96500998Y-78811447D01*
X96455946Y-78850484D01*
X96447182Y-78854949D01*
X96275213Y-78979890D01*
X96124890Y-79130213D01*
X95999951Y-79302179D01*
X95903444Y-79491585D01*
X95837753Y-79693760D01*
X95804500Y-79903713D01*
X95804500Y-80116286D01*
X95837753Y-80326239D01*
X95903444Y-80528414D01*
X95999951Y-80717820D01*
X96124890Y-80889786D01*
X96275213Y-81040109D01*
X96447182Y-81165050D01*
X96455946Y-81169516D01*
X96506742Y-81217491D01*
X96523536Y-81285312D01*
X96500998Y-81351447D01*
X96455946Y-81390484D01*
X96447182Y-81394949D01*
X96275213Y-81519890D01*
X96124890Y-81670213D01*
X95999951Y-81842179D01*
X95903444Y-82031585D01*
X95837753Y-82233760D01*
X95804500Y-82443713D01*
X95804500Y-82656286D01*
X95837753Y-82866239D01*
X95903444Y-83068414D01*
X95999951Y-83257820D01*
X96124890Y-83429786D01*
X96275213Y-83580109D01*
X96447182Y-83705050D01*
X96455946Y-83709516D01*
X96506742Y-83757491D01*
X96523536Y-83825312D01*
X96500998Y-83891447D01*
X96455946Y-83930484D01*
X96447182Y-83934949D01*
X96275213Y-84059890D01*
X96124890Y-84210213D01*
X95999951Y-84382179D01*
X95903444Y-84571585D01*
X95837753Y-84773760D01*
X95804500Y-84983713D01*
X95804500Y-85196286D01*
X95837753Y-85406239D01*
X95903444Y-85608414D01*
X95999951Y-85797820D01*
X96124890Y-85969786D01*
X96275213Y-86120109D01*
X96447179Y-86245048D01*
X96447181Y-86245049D01*
X96447184Y-86245051D01*
X96456493Y-86249794D01*
X96507290Y-86297766D01*
X96524087Y-86365587D01*
X96501552Y-86431722D01*
X96456505Y-86470760D01*
X96447446Y-86475376D01*
X96447440Y-86475380D01*
X96393282Y-86514727D01*
X96393282Y-86514728D01*
X97025591Y-87147037D01*
X96962007Y-87164075D01*
X96847993Y-87229901D01*
X96754901Y-87322993D01*
X96689075Y-87437007D01*
X96672037Y-87500591D01*
X96039728Y-86868282D01*
X96039727Y-86868282D01*
X96000380Y-86922439D01*
X95903904Y-87111782D01*
X95838242Y-87313869D01*
X95838242Y-87313872D01*
X95805000Y-87523753D01*
X95805000Y-87736246D01*
X95838242Y-87946127D01*
X95838242Y-87946130D01*
X95903904Y-88148217D01*
X96000375Y-88337550D01*
X96039728Y-88391716D01*
X96672037Y-87759408D01*
X96689075Y-87822993D01*
X96754901Y-87937007D01*
X96847993Y-88030099D01*
X96962007Y-88095925D01*
X97025591Y-88112962D01*
X96424971Y-88713581D01*
X96503711Y-88830895D01*
X96504920Y-88834729D01*
X96507844Y-88837491D01*
X96515343Y-88867778D01*
X96524727Y-88897529D01*
X96523671Y-88901408D01*
X96524638Y-88905312D01*
X96514573Y-88934844D01*
X96506383Y-88964947D01*
X96503397Y-88967640D01*
X96502100Y-88971447D01*
X96457051Y-89010483D01*
X96447440Y-89015380D01*
X96393282Y-89054727D01*
X96393282Y-89054728D01*
X97025591Y-89687037D01*
X96962007Y-89704075D01*
X96847993Y-89769901D01*
X96754901Y-89862993D01*
X96689075Y-89977007D01*
X96672037Y-90040591D01*
X96039728Y-89408282D01*
X96039727Y-89408282D01*
X96000380Y-89462439D01*
X95903904Y-89651782D01*
X95838242Y-89853869D01*
X95838242Y-89853872D01*
X95805000Y-90063753D01*
X95805000Y-90276246D01*
X95838242Y-90486127D01*
X95838242Y-90486130D01*
X95903904Y-90688217D01*
X96000375Y-90877550D01*
X96039728Y-90931716D01*
X96672037Y-90299408D01*
X96689075Y-90362993D01*
X96754901Y-90477007D01*
X96847993Y-90570099D01*
X96962007Y-90635925D01*
X97025590Y-90652962D01*
X96393282Y-91285269D01*
X96393282Y-91285270D01*
X96447449Y-91324624D01*
X96636782Y-91421095D01*
X96838870Y-91486757D01*
X97048754Y-91520000D01*
X97261246Y-91520000D01*
X97471127Y-91486757D01*
X97471130Y-91486757D01*
X97673217Y-91421095D01*
X97862554Y-91324622D01*
X97916716Y-91285270D01*
X97916717Y-91285270D01*
X97284408Y-90652962D01*
X97347993Y-90635925D01*
X97462007Y-90570099D01*
X97555099Y-90477007D01*
X97620925Y-90362993D01*
X97637962Y-90299408D01*
X98270270Y-90931717D01*
X98270270Y-90931716D01*
X98309622Y-90877554D01*
X98406095Y-90688217D01*
X98471757Y-90486130D01*
X98471757Y-90486127D01*
X98505000Y-90276246D01*
X98505000Y-90063753D01*
X98471757Y-89853872D01*
X98471757Y-89853869D01*
X98406095Y-89651782D01*
X98309624Y-89462449D01*
X98270270Y-89408282D01*
X98270269Y-89408282D01*
X97637962Y-90040590D01*
X97620925Y-89977007D01*
X97555099Y-89862993D01*
X97462007Y-89769901D01*
X97347993Y-89704075D01*
X97284409Y-89687037D01*
X97916716Y-89054728D01*
X97862550Y-89015375D01*
X97852954Y-89010486D01*
X97802157Y-88962512D01*
X97785361Y-88894692D01*
X97807897Y-88828556D01*
X97852954Y-88789514D01*
X97862554Y-88784622D01*
X97916716Y-88745270D01*
X97916717Y-88745270D01*
X97284408Y-88112962D01*
X97347993Y-88095925D01*
X97462007Y-88030099D01*
X97555099Y-87937007D01*
X97620925Y-87822993D01*
X97637962Y-87759408D01*
X98270270Y-88391717D01*
X98270270Y-88391716D01*
X98309622Y-88337554D01*
X98406095Y-88148217D01*
X98471757Y-87946130D01*
X98471757Y-87946127D01*
X98505000Y-87736246D01*
X98505000Y-87523753D01*
X98471757Y-87313872D01*
X98471757Y-87313869D01*
X98406095Y-87111782D01*
X98309624Y-86922449D01*
X98270270Y-86868282D01*
X98270269Y-86868282D01*
X97637962Y-87500590D01*
X97620925Y-87437007D01*
X97555099Y-87322993D01*
X97462007Y-87229901D01*
X97347993Y-87164075D01*
X97284409Y-87147037D01*
X97916716Y-86514728D01*
X97862547Y-86475373D01*
X97862547Y-86475372D01*
X97853500Y-86470763D01*
X97802706Y-86422788D01*
X97785912Y-86354966D01*
X97808451Y-86288832D01*
X97853508Y-86249793D01*
X97862816Y-86245051D01*
X97942007Y-86187515D01*
X98034786Y-86120109D01*
X98034788Y-86120106D01*
X98034792Y-86120104D01*
X98185104Y-85969792D01*
X98185106Y-85969788D01*
X98185109Y-85969786D01*
X98310048Y-85797820D01*
X98310047Y-85797820D01*
X98310051Y-85797816D01*
X98406557Y-85608412D01*
X98472246Y-85406243D01*
X98505500Y-85196287D01*
X98505500Y-84983713D01*
X98472246Y-84773757D01*
X98406557Y-84571588D01*
X98310051Y-84382184D01*
X98310049Y-84382181D01*
X98310048Y-84382179D01*
X98185109Y-84210213D01*
X98034786Y-84059890D01*
X97862820Y-83934951D01*
X97862115Y-83934591D01*
X97854054Y-83930485D01*
X97803259Y-83882512D01*
X97786463Y-83814692D01*
X97808999Y-83748556D01*
X97854054Y-83709515D01*
X97862816Y-83705051D01*
X97884789Y-83689086D01*
X98034786Y-83580109D01*
X98034788Y-83580106D01*
X98034792Y-83580104D01*
X98185104Y-83429792D01*
X98185106Y-83429788D01*
X98185109Y-83429786D01*
X98310048Y-83257820D01*
X98310047Y-83257820D01*
X98310051Y-83257816D01*
X98406557Y-83068412D01*
X98472246Y-82866243D01*
X98505500Y-82656287D01*
X98505500Y-82443713D01*
X98472246Y-82233757D01*
X98406557Y-82031588D01*
X98310051Y-81842184D01*
X98310049Y-81842181D01*
X98310048Y-81842179D01*
X98185109Y-81670213D01*
X98034786Y-81519890D01*
X97862820Y-81394951D01*
X97862115Y-81394591D01*
X97854054Y-81390485D01*
X97803259Y-81342512D01*
X97786463Y-81274692D01*
X97808999Y-81208556D01*
X97854054Y-81169515D01*
X97862816Y-81165051D01*
X97884789Y-81149086D01*
X98034786Y-81040109D01*
X98034788Y-81040106D01*
X98034792Y-81040104D01*
X98185104Y-80889792D01*
X98185106Y-80889788D01*
X98185109Y-80889786D01*
X98310048Y-80717820D01*
X98310047Y-80717820D01*
X98310051Y-80717816D01*
X98406557Y-80528412D01*
X98472246Y-80326243D01*
X98505500Y-80116287D01*
X98505500Y-79903713D01*
X98472246Y-79693757D01*
X98406557Y-79491588D01*
X98310051Y-79302184D01*
X98310049Y-79302181D01*
X98310048Y-79302179D01*
X98185109Y-79130213D01*
X98034786Y-78979890D01*
X97862820Y-78854951D01*
X97862115Y-78854591D01*
X97854054Y-78850485D01*
X97803259Y-78802512D01*
X97786463Y-78734692D01*
X97808999Y-78668556D01*
X97854054Y-78629515D01*
X97862816Y-78625051D01*
X97884789Y-78609086D01*
X98034786Y-78500109D01*
X98034788Y-78500106D01*
X98034792Y-78500104D01*
X98185104Y-78349792D01*
X98185106Y-78349788D01*
X98185109Y-78349786D01*
X98310048Y-78177820D01*
X98310047Y-78177820D01*
X98310051Y-78177816D01*
X98406557Y-77988412D01*
X98472246Y-77786243D01*
X98505500Y-77576287D01*
X98505500Y-77363713D01*
X98472246Y-77153757D01*
X98406557Y-76951588D01*
X98310051Y-76762184D01*
X98310049Y-76762181D01*
X98310048Y-76762179D01*
X98185109Y-76590213D01*
X98034786Y-76439890D01*
X97862820Y-76314951D01*
X97862115Y-76314591D01*
X97854054Y-76310485D01*
X97803259Y-76262512D01*
X97786463Y-76194692D01*
X97808999Y-76128556D01*
X97854054Y-76089515D01*
X97862816Y-76085051D01*
X97884789Y-76069086D01*
X98034786Y-75960109D01*
X98034788Y-75960106D01*
X98034792Y-75960104D01*
X98185104Y-75809792D01*
X98185106Y-75809788D01*
X98185109Y-75809786D01*
X98310048Y-75637820D01*
X98310047Y-75637820D01*
X98310051Y-75637816D01*
X98406557Y-75448412D01*
X98472246Y-75246243D01*
X98505500Y-75036287D01*
X98505500Y-74823713D01*
X98472246Y-74613757D01*
X98406557Y-74411588D01*
X98310051Y-74222184D01*
X98310049Y-74222181D01*
X98310048Y-74222179D01*
X98185109Y-74050213D01*
X98034786Y-73899890D01*
X97862820Y-73774951D01*
X97862115Y-73774591D01*
X97854054Y-73770485D01*
X97803259Y-73722512D01*
X97786463Y-73654692D01*
X97808999Y-73588556D01*
X97854054Y-73549515D01*
X97862816Y-73545051D01*
X97884789Y-73529086D01*
X98034786Y-73420109D01*
X98034788Y-73420106D01*
X98034792Y-73420104D01*
X98185104Y-73269792D01*
X98185106Y-73269788D01*
X98185109Y-73269786D01*
X98310048Y-73097820D01*
X98310047Y-73097820D01*
X98310051Y-73097816D01*
X98406557Y-72908412D01*
X98472246Y-72706243D01*
X98505500Y-72496287D01*
X98505500Y-72283713D01*
X98472246Y-72073757D01*
X98406557Y-71871588D01*
X98310051Y-71682184D01*
X98310049Y-71682181D01*
X98310048Y-71682179D01*
X98185109Y-71510213D01*
X98034786Y-71359890D01*
X97862820Y-71234951D01*
X97862115Y-71234591D01*
X97854054Y-71230485D01*
X97803259Y-71182512D01*
X97786463Y-71114692D01*
X97808999Y-71048556D01*
X97854054Y-71009515D01*
X97862816Y-71005051D01*
X97949138Y-70942335D01*
X98034786Y-70880109D01*
X98034788Y-70880106D01*
X98034792Y-70880104D01*
X98185104Y-70729792D01*
X98185106Y-70729788D01*
X98185109Y-70729786D01*
X98310048Y-70557820D01*
X98310047Y-70557820D01*
X98310051Y-70557816D01*
X98406557Y-70368412D01*
X98472246Y-70166243D01*
X98505500Y-69956287D01*
X98505500Y-69743713D01*
X98472246Y-69533757D01*
X98406557Y-69331588D01*
X98310051Y-69142184D01*
X98310049Y-69142181D01*
X98310048Y-69142179D01*
X98185109Y-68970213D01*
X98034786Y-68819890D01*
X97862820Y-68694951D01*
X97862115Y-68694591D01*
X97854054Y-68690485D01*
X97803259Y-68642512D01*
X97786463Y-68574692D01*
X97808999Y-68508556D01*
X97854054Y-68469515D01*
X97862816Y-68465051D01*
X97915174Y-68427011D01*
X98034786Y-68340109D01*
X98034788Y-68340106D01*
X98034792Y-68340104D01*
X98185104Y-68189792D01*
X98185106Y-68189788D01*
X98185109Y-68189786D01*
X98310048Y-68017820D01*
X98310047Y-68017820D01*
X98310051Y-68017816D01*
X98406557Y-67828412D01*
X98472246Y-67626243D01*
X98505500Y-67416287D01*
X98505500Y-67203713D01*
X98472246Y-66993757D01*
X98406557Y-66791588D01*
X98310051Y-66602184D01*
X98310049Y-66602181D01*
X98310048Y-66602179D01*
X98185109Y-66430213D01*
X98034786Y-66279890D01*
X97862820Y-66154951D01*
X97862115Y-66154591D01*
X97854054Y-66150485D01*
X97803259Y-66102512D01*
X97786463Y-66034692D01*
X97808999Y-65968556D01*
X97854054Y-65929515D01*
X97862816Y-65925051D01*
X97910811Y-65890181D01*
X98034786Y-65800109D01*
X98034788Y-65800106D01*
X98034792Y-65800104D01*
X98185104Y-65649792D01*
X98185106Y-65649788D01*
X98185109Y-65649786D01*
X98310048Y-65477820D01*
X98310047Y-65477820D01*
X98310051Y-65477816D01*
X98406557Y-65288412D01*
X98472246Y-65086243D01*
X98505500Y-64876287D01*
X98505500Y-64663713D01*
X98472246Y-64453757D01*
X98406557Y-64251588D01*
X98310051Y-64062184D01*
X98310049Y-64062181D01*
X98310048Y-64062179D01*
X98185109Y-63890213D01*
X98034786Y-63739890D01*
X97862820Y-63614951D01*
X97862115Y-63614591D01*
X97854054Y-63610485D01*
X97803259Y-63562512D01*
X97786463Y-63494692D01*
X97808999Y-63428556D01*
X97854054Y-63389515D01*
X97862816Y-63385051D01*
X97884789Y-63369086D01*
X98034786Y-63260109D01*
X98034788Y-63260106D01*
X98034792Y-63260104D01*
X98185104Y-63109792D01*
X98185106Y-63109788D01*
X98185109Y-63109786D01*
X98310048Y-62937820D01*
X98310047Y-62937820D01*
X98310051Y-62937816D01*
X98406557Y-62748412D01*
X98472246Y-62546243D01*
X98505500Y-62336287D01*
X98505500Y-62123713D01*
X98472246Y-61913757D01*
X98406557Y-61711588D01*
X98310051Y-61522184D01*
X98310049Y-61522181D01*
X98310048Y-61522179D01*
X98185109Y-61350213D01*
X98034786Y-61199890D01*
X97862820Y-61074951D01*
X97862115Y-61074591D01*
X97854054Y-61070485D01*
X97803259Y-61022512D01*
X97786463Y-60954692D01*
X97808999Y-60888556D01*
X97854054Y-60849515D01*
X97862816Y-60845051D01*
X97884789Y-60829086D01*
X98034786Y-60720109D01*
X98034788Y-60720106D01*
X98034792Y-60720104D01*
X98185104Y-60569792D01*
X98185106Y-60569788D01*
X98185109Y-60569786D01*
X98310048Y-60397820D01*
X98310047Y-60397820D01*
X98310051Y-60397816D01*
X98406557Y-60208412D01*
X98472246Y-60006243D01*
X98505500Y-59796287D01*
X98505500Y-59583713D01*
X98472246Y-59373757D01*
X98406557Y-59171588D01*
X98310051Y-58982184D01*
X98310049Y-58982181D01*
X98310048Y-58982179D01*
X98185109Y-58810213D01*
X98034786Y-58659890D01*
X97862820Y-58534951D01*
X97862115Y-58534591D01*
X97854054Y-58530485D01*
X97803259Y-58482512D01*
X97786463Y-58414692D01*
X97808999Y-58348556D01*
X97854054Y-58309515D01*
X97862816Y-58305051D01*
X97884789Y-58289086D01*
X98034786Y-58180109D01*
X98034788Y-58180106D01*
X98034792Y-58180104D01*
X98185104Y-58029792D01*
X98185106Y-58029788D01*
X98185109Y-58029786D01*
X98310048Y-57857820D01*
X98310047Y-57857820D01*
X98310051Y-57857816D01*
X98406557Y-57668412D01*
X98472246Y-57466243D01*
X98505500Y-57256287D01*
X98505500Y-57043713D01*
X98472246Y-56833757D01*
X98406557Y-56631588D01*
X98310051Y-56442184D01*
X98310049Y-56442181D01*
X98310048Y-56442179D01*
X98185109Y-56270213D01*
X98034786Y-56119890D01*
X97862820Y-55994951D01*
X97862115Y-55994591D01*
X97854054Y-55990485D01*
X97803259Y-55942512D01*
X97786463Y-55874692D01*
X97808999Y-55808556D01*
X97854054Y-55769515D01*
X97862816Y-55765051D01*
X97884789Y-55749086D01*
X98034786Y-55640109D01*
X98034788Y-55640106D01*
X98034792Y-55640104D01*
X98185104Y-55489792D01*
X98185106Y-55489788D01*
X98185109Y-55489786D01*
X98310048Y-55317820D01*
X98310047Y-55317820D01*
X98310051Y-55317816D01*
X98406557Y-55128412D01*
X98472246Y-54926243D01*
X98505500Y-54716287D01*
X98505500Y-54503713D01*
X98472246Y-54293757D01*
X98406557Y-54091588D01*
X98310051Y-53902184D01*
X98310049Y-53902181D01*
X98310048Y-53902179D01*
X98185109Y-53730213D01*
X98034786Y-53579890D01*
X97862820Y-53454951D01*
X97862115Y-53454591D01*
X97854054Y-53450485D01*
X97803259Y-53402512D01*
X97786463Y-53334692D01*
X97808999Y-53268556D01*
X97854054Y-53229515D01*
X97862816Y-53225051D01*
X97884789Y-53209086D01*
X98034786Y-53100109D01*
X98034788Y-53100106D01*
X98034792Y-53100104D01*
X98185104Y-52949792D01*
X98185106Y-52949788D01*
X98185109Y-52949786D01*
X98310048Y-52777820D01*
X98310047Y-52777820D01*
X98310051Y-52777816D01*
X98406557Y-52588412D01*
X98472246Y-52386243D01*
X98505500Y-52176287D01*
X98505500Y-51963713D01*
X98472246Y-51753757D01*
X98406557Y-51551588D01*
X98310051Y-51362184D01*
X98310049Y-51362181D01*
X98310048Y-51362179D01*
X98185109Y-51190213D01*
X98034786Y-51039890D01*
X97862820Y-50914951D01*
X97862115Y-50914591D01*
X97854054Y-50910485D01*
X97803259Y-50862512D01*
X97786463Y-50794692D01*
X97808999Y-50728556D01*
X97854054Y-50689515D01*
X97862816Y-50685051D01*
X97949138Y-50622335D01*
X98034786Y-50560109D01*
X98034788Y-50560106D01*
X98034792Y-50560104D01*
X98185104Y-50409792D01*
X98185106Y-50409788D01*
X98185109Y-50409786D01*
X98310048Y-50237820D01*
X98310047Y-50237820D01*
X98310051Y-50237816D01*
X98406557Y-50048412D01*
X98472246Y-49846243D01*
X98505500Y-49636287D01*
X98505500Y-49423713D01*
X98472246Y-49213757D01*
X98406557Y-49011588D01*
X98310051Y-48822184D01*
X98310049Y-48822181D01*
X98310048Y-48822179D01*
X98185109Y-48650213D01*
X98034786Y-48499890D01*
X97862820Y-48374951D01*
X97862115Y-48374591D01*
X97854054Y-48370485D01*
X97803259Y-48322512D01*
X97786463Y-48254692D01*
X97808999Y-48188556D01*
X97854054Y-48149515D01*
X97862816Y-48145051D01*
X97884789Y-48129086D01*
X98034786Y-48020109D01*
X98034788Y-48020106D01*
X98034792Y-48020104D01*
X98185104Y-47869792D01*
X98185106Y-47869788D01*
X98185109Y-47869786D01*
X98310048Y-47697820D01*
X98310047Y-47697820D01*
X98310051Y-47697816D01*
X98406557Y-47508412D01*
X98472246Y-47306243D01*
X98505500Y-47096287D01*
X98505500Y-46883713D01*
X98472246Y-46673757D01*
X98406557Y-46471588D01*
X98310051Y-46282184D01*
X98310049Y-46282181D01*
X98310048Y-46282179D01*
X98185109Y-46110213D01*
X98034786Y-45959890D01*
X97862820Y-45834951D01*
X97862115Y-45834591D01*
X97854054Y-45830485D01*
X97803259Y-45782512D01*
X97786463Y-45714692D01*
X97808999Y-45648556D01*
X97854054Y-45609515D01*
X97862816Y-45605051D01*
X97884789Y-45589086D01*
X98034786Y-45480109D01*
X98034788Y-45480106D01*
X98034792Y-45480104D01*
X98185104Y-45329792D01*
X98185106Y-45329788D01*
X98185109Y-45329786D01*
X98310048Y-45157820D01*
X98310047Y-45157820D01*
X98310051Y-45157816D01*
X98406557Y-44968412D01*
X98472246Y-44766243D01*
X98505500Y-44556287D01*
X98505500Y-44343713D01*
X98472246Y-44133757D01*
X98406557Y-43931588D01*
X98310051Y-43742184D01*
X98310049Y-43742181D01*
X98310048Y-43742179D01*
X98185109Y-43570213D01*
X98034786Y-43419890D01*
X97862820Y-43294951D01*
X97862115Y-43294591D01*
X97854054Y-43290485D01*
X97803259Y-43242512D01*
X97786463Y-43174692D01*
X97808999Y-43108556D01*
X97854054Y-43069515D01*
X97862816Y-43065051D01*
X97949138Y-43002335D01*
X98034786Y-42940109D01*
X98034788Y-42940106D01*
X98034792Y-42940104D01*
X98185104Y-42789792D01*
X98185106Y-42789788D01*
X98185109Y-42789786D01*
X98310048Y-42617820D01*
X98310047Y-42617820D01*
X98310051Y-42617816D01*
X98406557Y-42428412D01*
X98472246Y-42226243D01*
X98505500Y-42016287D01*
X98505500Y-41803713D01*
X98472246Y-41593757D01*
X98406557Y-41391588D01*
X98310051Y-41202184D01*
X98310049Y-41202181D01*
X98310048Y-41202179D01*
X98185109Y-41030213D01*
X98034786Y-40879890D01*
X97862820Y-40754951D01*
X97862115Y-40754591D01*
X97854054Y-40750485D01*
X97803259Y-40702512D01*
X97786463Y-40634692D01*
X97808999Y-40568556D01*
X97854054Y-40529515D01*
X97862816Y-40525051D01*
X97884789Y-40509086D01*
X98034786Y-40400109D01*
X98034788Y-40400106D01*
X98034792Y-40400104D01*
X98185104Y-40249792D01*
X98185106Y-40249788D01*
X98185109Y-40249786D01*
X98310048Y-40077820D01*
X98310047Y-40077820D01*
X98310051Y-40077816D01*
X98406557Y-39888412D01*
X98472246Y-39686243D01*
X98505500Y-39476287D01*
X98505500Y-39263713D01*
X98472246Y-39053757D01*
X98406557Y-38851588D01*
X98310051Y-38662184D01*
X98310049Y-38662181D01*
X98310048Y-38662179D01*
X98185109Y-38490213D01*
X98071181Y-38376285D01*
X98037696Y-38314962D01*
X98042680Y-38245270D01*
X98084552Y-38189337D01*
X98115529Y-38172422D01*
X98247086Y-38123354D01*
X98247093Y-38123350D01*
X98362187Y-38037190D01*
X98362190Y-38037187D01*
X98448350Y-37922093D01*
X98448354Y-37922086D01*
X98498596Y-37787379D01*
X98498598Y-37787372D01*
X98504999Y-37727844D01*
X98505000Y-37727827D01*
X98505000Y-37080000D01*
X97588012Y-37080000D01*
X97620925Y-37022993D01*
X97655000Y-36895826D01*
X97655000Y-36764174D01*
X97620925Y-36637007D01*
X97588012Y-36580000D01*
X98505000Y-36580000D01*
X98505000Y-35932172D01*
X98504999Y-35932155D01*
X98498598Y-35872627D01*
X98498596Y-35872620D01*
X98448354Y-35737913D01*
X98448350Y-35737906D01*
X98362190Y-35622812D01*
X98362187Y-35622809D01*
X98247093Y-35536649D01*
X98247086Y-35536645D01*
X98112379Y-35486403D01*
X98112372Y-35486401D01*
X98052844Y-35480000D01*
X97405000Y-35480000D01*
X97405000Y-36396988D01*
X97347993Y-36364075D01*
X97220826Y-36330000D01*
X97089174Y-36330000D01*
X96962007Y-36364075D01*
X96905000Y-36396988D01*
X96905000Y-35480000D01*
X96257155Y-35480000D01*
X96197627Y-35486401D01*
X96197620Y-35486403D01*
X96062913Y-35536645D01*
X96062906Y-35536649D01*
X95947812Y-35622809D01*
X95947809Y-35622812D01*
X95861649Y-35737906D01*
X95861645Y-35737913D01*
X95811403Y-35872620D01*
X95811401Y-35872627D01*
X95805000Y-35932155D01*
X95805000Y-36580000D01*
X96721988Y-36580000D01*
X96689075Y-36637007D01*
X96655000Y-36764174D01*
X96655000Y-36895826D01*
X96689075Y-37022993D01*
X96721988Y-37080000D01*
X95805000Y-37080000D01*
X95805000Y-37727844D01*
X95811401Y-37787372D01*
X95811403Y-37787379D01*
X95861645Y-37922086D01*
X95861649Y-37922093D01*
X95947809Y-38037187D01*
X95947812Y-38037190D01*
X96062906Y-38123350D01*
X96062913Y-38123354D01*
X96194470Y-38172422D01*
X96250404Y-38214293D01*
X96274821Y-38279758D01*
X96259969Y-38348031D01*
X96238819Y-38376285D01*
X96124889Y-38490215D01*
X95999951Y-38662179D01*
X95903444Y-38851585D01*
X95837753Y-39053760D01*
X95804500Y-39263713D01*
X77585500Y-39263713D01*
X77585500Y-34216082D01*
X77585500Y-34216079D01*
X77556659Y-34071092D01*
X77556658Y-34071091D01*
X77556658Y-34071087D01*
X77523994Y-33992229D01*
X77500087Y-33934511D01*
X77500080Y-33934498D01*
X77417952Y-33811585D01*
X77370442Y-33764075D01*
X77313416Y-33707049D01*
X77016096Y-33409729D01*
X76043421Y-32437052D01*
X76043414Y-32437046D01*
X75969729Y-32387812D01*
X75969729Y-32387813D01*
X75920491Y-32354913D01*
X75783917Y-32298343D01*
X75783907Y-32298340D01*
X75638920Y-32269500D01*
X75638918Y-32269500D01*
X55258917Y-32269500D01*
X55111082Y-32269500D01*
X55111080Y-32269500D01*
X54966092Y-32298340D01*
X54966082Y-32298343D01*
X54829511Y-32354912D01*
X54829498Y-32354919D01*
X54706584Y-32437048D01*
X54706580Y-32437051D01*
X54300450Y-32843181D01*
X54239127Y-32876666D01*
X54212769Y-32879500D01*
X53077129Y-32879500D01*
X53077123Y-32879501D01*
X53017516Y-32885908D01*
X52882671Y-32936202D01*
X52882664Y-32936206D01*
X52767455Y-33022452D01*
X52767452Y-33022455D01*
X52681206Y-33137664D01*
X52681202Y-33137671D01*
X52630908Y-33272517D01*
X52624501Y-33332116D01*
X52624500Y-33332135D01*
X52624500Y-33342690D01*
X52604815Y-33409729D01*
X52588181Y-33430371D01*
X51917962Y-34100590D01*
X51900925Y-34037007D01*
X51835099Y-33922993D01*
X51742007Y-33829901D01*
X51627993Y-33764075D01*
X51564409Y-33747037D01*
X52196716Y-33114728D01*
X52142550Y-33075375D01*
X51953217Y-32978904D01*
X51751129Y-32913242D01*
X51541246Y-32880000D01*
X51328754Y-32880000D01*
X51118872Y-32913242D01*
X51118869Y-32913242D01*
X50916782Y-32978904D01*
X50727439Y-33075380D01*
X50673282Y-33114727D01*
X50673282Y-33114728D01*
X51305591Y-33747037D01*
X51242007Y-33764075D01*
X51127993Y-33829901D01*
X51034901Y-33922993D01*
X50969075Y-34037007D01*
X50952037Y-34100591D01*
X50319728Y-33468282D01*
X50319727Y-33468282D01*
X50280380Y-33522439D01*
X50183904Y-33711782D01*
X50118242Y-33913869D01*
X50118242Y-33913872D01*
X50085000Y-34123753D01*
X50085000Y-34336246D01*
X50118242Y-34546127D01*
X50118242Y-34546130D01*
X50183904Y-34748217D01*
X50280375Y-34937550D01*
X50319728Y-34991716D01*
X50952037Y-34359408D01*
X50969075Y-34422993D01*
X51034901Y-34537007D01*
X51127993Y-34630099D01*
X51242007Y-34695925D01*
X51305590Y-34712962D01*
X50673282Y-35345269D01*
X50673282Y-35345270D01*
X50727449Y-35384624D01*
X50916782Y-35481095D01*
X51118870Y-35546757D01*
X51328754Y-35580000D01*
X51541246Y-35580000D01*
X51751127Y-35546757D01*
X51751130Y-35546757D01*
X51953217Y-35481095D01*
X52142554Y-35384622D01*
X52196716Y-35345270D01*
X52196717Y-35345270D01*
X51564408Y-34712962D01*
X51627993Y-34695925D01*
X51742007Y-34630099D01*
X51835099Y-34537007D01*
X51900925Y-34422993D01*
X51917962Y-34359408D01*
X52588181Y-35029628D01*
X52621666Y-35090951D01*
X52624500Y-35117300D01*
X52624500Y-35127865D01*
X52624501Y-35127876D01*
X52630908Y-35187483D01*
X52681202Y-35322328D01*
X52681206Y-35322335D01*
X52767452Y-35437544D01*
X52767455Y-35437547D01*
X52882664Y-35523793D01*
X52882671Y-35523797D01*
X52915942Y-35536206D01*
X53017517Y-35574091D01*
X53077127Y-35580500D01*
X53100497Y-35580499D01*
X53167536Y-35600181D01*
X53213292Y-35652983D01*
X53224500Y-35704499D01*
X53224500Y-58057770D01*
X53204815Y-58124809D01*
X53188181Y-58145451D01*
X51804547Y-59529084D01*
X51804545Y-59529086D01*
X51778456Y-59568133D01*
X51768047Y-59583713D01*
X51745152Y-59617976D01*
X51722414Y-59652007D01*
X51665843Y-59788582D01*
X51665840Y-59788592D01*
X51637000Y-59933579D01*
X51637000Y-63895500D01*
X51617315Y-63962539D01*
X51564511Y-64008294D01*
X51513000Y-64019500D01*
X45002221Y-64019500D01*
X44935182Y-63999815D01*
X44901903Y-63968385D01*
X44845107Y-63890211D01*
X44694786Y-63739890D01*
X44522820Y-63614951D01*
X44522115Y-63614591D01*
X44514054Y-63610485D01*
X44463259Y-63562512D01*
X44446463Y-63494692D01*
X44468999Y-63428556D01*
X44514054Y-63389515D01*
X44522816Y-63385051D01*
X44544789Y-63369086D01*
X44694786Y-63260109D01*
X44694788Y-63260106D01*
X44694792Y-63260104D01*
X44845104Y-63109792D01*
X44845106Y-63109788D01*
X44845109Y-63109786D01*
X44970048Y-62937820D01*
X44970047Y-62937820D01*
X44970051Y-62937816D01*
X45066557Y-62748412D01*
X45132246Y-62546243D01*
X45165500Y-62336287D01*
X45165500Y-62123713D01*
X45132246Y-61913757D01*
X45066557Y-61711588D01*
X44970051Y-61522184D01*
X44970049Y-61522181D01*
X44970048Y-61522179D01*
X44845109Y-61350213D01*
X44694786Y-61199890D01*
X44522820Y-61074951D01*
X44522115Y-61074591D01*
X44514054Y-61070485D01*
X44463259Y-61022512D01*
X44446463Y-60954692D01*
X44468999Y-60888556D01*
X44514054Y-60849515D01*
X44522816Y-60845051D01*
X44544789Y-60829086D01*
X44694786Y-60720109D01*
X44694788Y-60720106D01*
X44694792Y-60720104D01*
X44845104Y-60569792D01*
X44845106Y-60569788D01*
X44845109Y-60569786D01*
X44970048Y-60397820D01*
X44970047Y-60397820D01*
X44970051Y-60397816D01*
X45066557Y-60208412D01*
X45132246Y-60006243D01*
X45165500Y-59796287D01*
X45165500Y-59583713D01*
X45132246Y-59373757D01*
X45066557Y-59171588D01*
X44970051Y-58982184D01*
X44970049Y-58982181D01*
X44970048Y-58982179D01*
X44845109Y-58810213D01*
X44694786Y-58659890D01*
X44522820Y-58534951D01*
X44522115Y-58534591D01*
X44514054Y-58530485D01*
X44463259Y-58482512D01*
X44446463Y-58414692D01*
X44468999Y-58348556D01*
X44514054Y-58309515D01*
X44522816Y-58305051D01*
X44544789Y-58289086D01*
X44694786Y-58180109D01*
X44694788Y-58180106D01*
X44694792Y-58180104D01*
X44845104Y-58029792D01*
X44845106Y-58029788D01*
X44845109Y-58029786D01*
X44970048Y-57857820D01*
X44970047Y-57857820D01*
X44970051Y-57857816D01*
X45066557Y-57668412D01*
X45132246Y-57466243D01*
X45165500Y-57256287D01*
X45165500Y-57043713D01*
X45132246Y-56833757D01*
X45066557Y-56631588D01*
X44970051Y-56442184D01*
X44970049Y-56442181D01*
X44970048Y-56442179D01*
X44845109Y-56270213D01*
X44694786Y-56119890D01*
X44522820Y-55994951D01*
X44522115Y-55994591D01*
X44514054Y-55990485D01*
X44463259Y-55942512D01*
X44446463Y-55874692D01*
X44468999Y-55808556D01*
X44514054Y-55769515D01*
X44522816Y-55765051D01*
X44544789Y-55749086D01*
X44694786Y-55640109D01*
X44694788Y-55640106D01*
X44694792Y-55640104D01*
X44845104Y-55489792D01*
X44845106Y-55489788D01*
X44845109Y-55489786D01*
X44970048Y-55317820D01*
X44970047Y-55317820D01*
X44970051Y-55317816D01*
X45066557Y-55128412D01*
X45132246Y-54926243D01*
X45165500Y-54716287D01*
X45165500Y-54503713D01*
X45132246Y-54293757D01*
X45066557Y-54091588D01*
X44970051Y-53902184D01*
X44970049Y-53902181D01*
X44970048Y-53902179D01*
X44845109Y-53730213D01*
X44694786Y-53579890D01*
X44522820Y-53454951D01*
X44522115Y-53454591D01*
X44514054Y-53450485D01*
X44463259Y-53402512D01*
X44446463Y-53334692D01*
X44468999Y-53268556D01*
X44514054Y-53229515D01*
X44522816Y-53225051D01*
X44544789Y-53209086D01*
X44694786Y-53100109D01*
X44694788Y-53100106D01*
X44694792Y-53100104D01*
X44845104Y-52949792D01*
X44845106Y-52949788D01*
X44845109Y-52949786D01*
X44970048Y-52777820D01*
X44970047Y-52777820D01*
X44970051Y-52777816D01*
X45066557Y-52588412D01*
X45132246Y-52386243D01*
X45165500Y-52176287D01*
X45165500Y-51963713D01*
X45132246Y-51753757D01*
X45066557Y-51551588D01*
X44970051Y-51362184D01*
X44970049Y-51362181D01*
X44970048Y-51362179D01*
X44845109Y-51190213D01*
X44694786Y-51039890D01*
X44522820Y-50914951D01*
X44522115Y-50914591D01*
X44514054Y-50910485D01*
X44463259Y-50862512D01*
X44446463Y-50794692D01*
X44468999Y-50728556D01*
X44514054Y-50689515D01*
X44522816Y-50685051D01*
X44609138Y-50622335D01*
X44694786Y-50560109D01*
X44694788Y-50560106D01*
X44694792Y-50560104D01*
X44845104Y-50409792D01*
X44845106Y-50409788D01*
X44845109Y-50409786D01*
X44970048Y-50237820D01*
X44970047Y-50237820D01*
X44970051Y-50237816D01*
X45066557Y-50048412D01*
X45132246Y-49846243D01*
X45165500Y-49636287D01*
X45165500Y-49423713D01*
X45132246Y-49213757D01*
X45066557Y-49011588D01*
X44970051Y-48822184D01*
X44970049Y-48822181D01*
X44970048Y-48822179D01*
X44845109Y-48650213D01*
X44694786Y-48499890D01*
X44522820Y-48374951D01*
X44522115Y-48374591D01*
X44514054Y-48370485D01*
X44463259Y-48322512D01*
X44446463Y-48254692D01*
X44468999Y-48188556D01*
X44514054Y-48149515D01*
X44522816Y-48145051D01*
X44544789Y-48129086D01*
X44694786Y-48020109D01*
X44694788Y-48020106D01*
X44694792Y-48020104D01*
X44845104Y-47869792D01*
X44845106Y-47869788D01*
X44845109Y-47869786D01*
X44970048Y-47697820D01*
X44970047Y-47697820D01*
X44970051Y-47697816D01*
X45066557Y-47508412D01*
X45132246Y-47306243D01*
X45165500Y-47096287D01*
X45165500Y-46883713D01*
X45132246Y-46673757D01*
X45066557Y-46471588D01*
X44970051Y-46282184D01*
X44970049Y-46282181D01*
X44970048Y-46282179D01*
X44845109Y-46110213D01*
X44694786Y-45959890D01*
X44522820Y-45834951D01*
X44522115Y-45834591D01*
X44514054Y-45830485D01*
X44463259Y-45782512D01*
X44446463Y-45714692D01*
X44468999Y-45648556D01*
X44514054Y-45609515D01*
X44522816Y-45605051D01*
X44544789Y-45589086D01*
X44694786Y-45480109D01*
X44694788Y-45480106D01*
X44694792Y-45480104D01*
X44845104Y-45329792D01*
X44845106Y-45329788D01*
X44845109Y-45329786D01*
X44970048Y-45157820D01*
X44970047Y-45157820D01*
X44970051Y-45157816D01*
X45066557Y-44968412D01*
X45132246Y-44766243D01*
X45165500Y-44556287D01*
X45165500Y-44343713D01*
X45132246Y-44133757D01*
X45066557Y-43931588D01*
X44970051Y-43742184D01*
X44970049Y-43742181D01*
X44970048Y-43742179D01*
X44845109Y-43570213D01*
X44731181Y-43456285D01*
X44697696Y-43394962D01*
X44702680Y-43325270D01*
X44744552Y-43269337D01*
X44775529Y-43252422D01*
X44907086Y-43203354D01*
X44907093Y-43203350D01*
X45022187Y-43117190D01*
X45022190Y-43117187D01*
X45108350Y-43002093D01*
X45108354Y-43002086D01*
X45158596Y-42867379D01*
X45158598Y-42867372D01*
X45164999Y-42807844D01*
X45165000Y-42807827D01*
X45165000Y-42160000D01*
X44248012Y-42160000D01*
X44280925Y-42102993D01*
X44315000Y-41975826D01*
X44315000Y-41844174D01*
X44280925Y-41717007D01*
X44248012Y-41660000D01*
X45165000Y-41660000D01*
X45165000Y-41012172D01*
X45164999Y-41012155D01*
X45158598Y-40952627D01*
X45158596Y-40952620D01*
X45108354Y-40817913D01*
X45108350Y-40817906D01*
X45022190Y-40702812D01*
X45022187Y-40702809D01*
X44907093Y-40616649D01*
X44907086Y-40616645D01*
X44772379Y-40566403D01*
X44772372Y-40566401D01*
X44712844Y-40560000D01*
X44065000Y-40560000D01*
X44065000Y-41476988D01*
X44007993Y-41444075D01*
X43880826Y-41410000D01*
X43749174Y-41410000D01*
X43622007Y-41444075D01*
X43565000Y-41476988D01*
X43565000Y-40560000D01*
X42917155Y-40560000D01*
X42857627Y-40566401D01*
X42857620Y-40566403D01*
X42722913Y-40616645D01*
X42722906Y-40616649D01*
X42607812Y-40702809D01*
X42607809Y-40702812D01*
X42521649Y-40817906D01*
X42521645Y-40817913D01*
X42471403Y-40952620D01*
X42471401Y-40952627D01*
X42465000Y-41012155D01*
X42465000Y-41660000D01*
X43381988Y-41660000D01*
X43349075Y-41717007D01*
X43315000Y-41844174D01*
X43315000Y-41975826D01*
X43349075Y-42102993D01*
X43381988Y-42160000D01*
X42465000Y-42160000D01*
X42465000Y-42807844D01*
X42471401Y-42867372D01*
X42471403Y-42867379D01*
X42521645Y-43002086D01*
X42521649Y-43002093D01*
X42607809Y-43117187D01*
X42607812Y-43117190D01*
X42722906Y-43203350D01*
X42722913Y-43203354D01*
X42854470Y-43252422D01*
X42910404Y-43294293D01*
X42934821Y-43359758D01*
X42919969Y-43428031D01*
X42898819Y-43456285D01*
X42784892Y-43570212D01*
X42728097Y-43648385D01*
X42672767Y-43691051D01*
X42627779Y-43699500D01*
X38661080Y-43699500D01*
X38516092Y-43728340D01*
X38516082Y-43728343D01*
X38379511Y-43784912D01*
X38379499Y-43784919D01*
X38341217Y-43810499D01*
X38341216Y-43810500D01*
X38256582Y-43867049D01*
X38256581Y-43867050D01*
X33980449Y-48143181D01*
X33919126Y-48176666D01*
X33892768Y-48179500D01*
X32757129Y-48179500D01*
X32757123Y-48179501D01*
X32697516Y-48185908D01*
X32562671Y-48236202D01*
X32562664Y-48236206D01*
X32447455Y-48322452D01*
X32447452Y-48322455D01*
X32361206Y-48437664D01*
X32361202Y-48437671D01*
X32310908Y-48572517D01*
X32304501Y-48632116D01*
X32304500Y-48632135D01*
X28440500Y-48632135D01*
X28440500Y-29199500D01*
X28460185Y-29132461D01*
X28512989Y-29086706D01*
X28564500Y-29075500D01*
X103515500Y-29075500D01*
X103582539Y-29095185D01*
G37*
%TD.AperFunction*%
%TD*%
M02*
