M48
; DRILL file KiCad 10.0.0 date 2026-04-25T13:09:58
; FORMAT={-:-/ absolute / metric / decimal}
; #@! TF.CreationDate,2026-04-25T13:09:58-05:00
; #@! TF.GenerationSoftware,Kicad,Pcbnew,10.0.0
; #@! TF.FileFunction,Plated,1,2,PTH
FMAT,2
METRIC
; #@! TA.AperFunction,Plated,PTH,ComponentDrill
T1C1.000
; #@! TA.AperFunction,Plated,PTH,ComponentDrill
T2C1.800
%
G90
G05
T1
X29.0Y-28.0
X29.0Y-30.54
X29.0Y-33.08
X29.0Y-35.62
X29.0Y-38.16
X29.0Y-40.7
X29.0Y-43.24
X29.0Y-45.78
X29.0Y-48.32
X29.0Y-50.86
X29.0Y-53.4
X29.0Y-55.94
X29.0Y-58.48
X29.0Y-61.02
X29.0Y-63.56
X38.0Y-26.7
X38.0Y-29.24
X38.0Y-31.78
X38.0Y-34.32
X38.0Y-36.86
X38.0Y-39.4
X38.0Y-43.988
X38.0Y-46.528
X38.0Y-49.068
X38.0Y-51.608
X38.0Y-54.148
X38.0Y-56.688
X38.0Y-61.372
X38.0Y-63.912
X38.0Y-66.452
X38.0Y-68.992
X38.0Y-71.532
X38.0Y-74.072
X38.0Y-78.755
X38.0Y-81.295
X38.0Y-83.835
X38.0Y-86.375
X38.0Y-88.915
X38.0Y-91.455
X48.5Y-26.7
X48.5Y-29.24
X48.5Y-31.78
X48.5Y-34.32
X48.5Y-36.86
X48.5Y-39.4
X48.5Y-43.988
X48.5Y-46.528
X48.5Y-49.068
X48.5Y-51.608
X48.5Y-54.148
X48.5Y-56.688
X48.5Y-61.372
X48.5Y-63.912
X48.5Y-66.452
X48.5Y-68.992
X48.5Y-71.532
X48.5Y-74.072
X48.5Y-78.755
X48.5Y-81.295
X48.5Y-83.835
X48.5Y-86.375
X48.5Y-88.915
X48.5Y-91.455
X59.0Y-28.0
X59.0Y-30.54
X59.0Y-33.08
X59.0Y-35.62
X59.0Y-38.16
X59.0Y-40.7
X59.0Y-43.24
X59.0Y-45.78
X59.0Y-48.32
X59.0Y-50.86
X59.0Y-53.4
X59.0Y-55.94
X59.0Y-58.48
X59.0Y-61.02
X59.0Y-63.56
X59.0Y-66.1
X59.0Y-68.64
X59.0Y-71.18
X59.0Y-73.72
X59.0Y-76.26
X59.0Y-78.8
X59.0Y-81.34
X71.0Y-89.6
X73.54Y-89.6
X76.08Y-89.6
X78.62Y-89.6
X82.86Y-89.6
X84.4Y-28.0
X84.4Y-30.54
X84.4Y-33.08
X84.4Y-35.62
X84.4Y-38.16
X84.4Y-40.7
X84.4Y-43.24
X84.4Y-45.78
X84.4Y-48.32
X84.4Y-50.86
X84.4Y-53.4
X84.4Y-55.94
X84.4Y-58.48
X84.4Y-61.02
X84.4Y-63.56
X84.4Y-66.1
X84.4Y-68.64
X84.4Y-71.18
X84.4Y-73.72
X84.4Y-76.26
X84.4Y-78.8
X84.4Y-81.34
X85.4Y-89.6
T2
X53.68Y-90.6
X57.64Y-90.6
X61.6Y-90.6
X65.56Y-90.6
M30
