%TF.GenerationSoftware,KiCad,Pcbnew,10.0.0*%
%TF.CreationDate,2026-04-25T13:09:51-05:00*%
%TF.ProjectId,ti99-kb-adapter,74693939-2d6b-4622-9d61-646170746572,rev?*%
%TF.SameCoordinates,Original*%
%TF.FileFunction,Soldermask,Top*%
%TF.FilePolarity,Negative*%
%FSLAX46Y46*%
G04 Gerber Fmt 4.6, Leading zero omitted, Abs format (unit mm)*
G04 Created by KiCad (PCBNEW 10.0.0) date 2026-04-25 13:09:51*
%MOMM*%
%LPD*%
G01*
G04 APERTURE LIST*
G04 Aperture macros list*
%AMRoundRect*
0 Rectangle with rounded corners*
0 $1 Rounding radius*
0 $2 $3 $4 $5 $6 $7 $8 $9 X,Y pos of 4 corners*
0 Add a 4 corners polygon primitive as box body*
4,1,4,$2,$3,$4,$5,$6,$7,$8,$9,$2,$3,0*
0 Add four circle primitives for the rounded corners*
1,1,$1+$1,$2,$3*
1,1,$1+$1,$4,$5*
1,1,$1+$1,$6,$7*
1,1,$1+$1,$8,$9*
0 Add four rect primitives between the rounded corners*
20,1,$1+$1,$2,$3,$4,$5,0*
20,1,$1+$1,$4,$5,$6,$7,0*
20,1,$1+$1,$6,$7,$8,$9,0*
20,1,$1+$1,$8,$9,$2,$3,0*%
G04 Aperture macros list end*
%ADD10R,1.700000X1.700000*%
%ADD11C,1.700000*%
%ADD12C,3.200000*%
%ADD13RoundRect,0.250000X-1.330000X-1.850000X1.330000X-1.850000X1.330000X1.850000X-1.330000X1.850000X0*%
%ADD14O,3.160000X4.200000*%
G04 APERTURE END LIST*
D10*
%TO.C,J11*%
X59000000Y-28000000D03*
D11*
X59000000Y-30540000D03*
X59000000Y-33080000D03*
X59000000Y-35620000D03*
X59000000Y-38160000D03*
X59000000Y-40700000D03*
X59000000Y-43240000D03*
X59000000Y-45780000D03*
X59000000Y-48320000D03*
X59000000Y-50860000D03*
X59000000Y-53400000D03*
X59000000Y-55940000D03*
X59000000Y-58480000D03*
X59000000Y-61020000D03*
X59000000Y-63560000D03*
X59000000Y-66100000D03*
X59000000Y-68640000D03*
X59000000Y-71180000D03*
X59000000Y-73720000D03*
X59000000Y-76260000D03*
X59000000Y-78800000D03*
X59000000Y-81340000D03*
%TD*%
D12*
%TO.C,REF\u002A\u002A*%
X86400000Y-95200000D03*
%TD*%
D13*
%TO.C,J14*%
X53680000Y-90600000D03*
D14*
X57640000Y-90600000D03*
X61600000Y-90600000D03*
X65560000Y-90600000D03*
%TD*%
D10*
%TO.C,J10*%
X29000000Y-28000000D03*
D11*
X29000000Y-30540000D03*
X29000000Y-33080000D03*
X29000000Y-35620000D03*
X29000000Y-38160000D03*
X29000000Y-40700000D03*
X29000000Y-43240000D03*
X29000000Y-45780000D03*
X29000000Y-48320000D03*
X29000000Y-50860000D03*
X29000000Y-53400000D03*
X29000000Y-55940000D03*
X29000000Y-58480000D03*
X29000000Y-61020000D03*
X29000000Y-63560000D03*
%TD*%
D10*
%TO.C,J4*%
X48500000Y-43988333D03*
D11*
X48500000Y-46528333D03*
X48500000Y-49068333D03*
X48500000Y-51608333D03*
X48500000Y-54148333D03*
X48500000Y-56688333D03*
%TD*%
D10*
%TO.C,J3*%
X38000000Y-43988333D03*
D11*
X38000000Y-46528333D03*
X38000000Y-49068333D03*
X38000000Y-51608333D03*
X38000000Y-54148333D03*
X38000000Y-56688333D03*
%TD*%
D10*
%TO.C,J6*%
X48500000Y-61371667D03*
D11*
X48500000Y-63911667D03*
X48500000Y-66451667D03*
X48500000Y-68991667D03*
X48500000Y-71531667D03*
X48500000Y-74071667D03*
%TD*%
D10*
%TO.C,J7*%
X38000000Y-78755000D03*
D11*
X38000000Y-81295000D03*
X38000000Y-83835000D03*
X38000000Y-86375000D03*
X38000000Y-88915000D03*
X38000000Y-91455000D03*
%TD*%
D10*
%TO.C,J2*%
X48500000Y-26700000D03*
D11*
X48500000Y-29240000D03*
X48500000Y-31780000D03*
X48500000Y-34320000D03*
X48500000Y-36860000D03*
X48500000Y-39400000D03*
%TD*%
D10*
%TO.C,J8*%
X48500000Y-78755000D03*
D11*
X48500000Y-81295000D03*
X48500000Y-83835000D03*
X48500000Y-86375000D03*
X48500000Y-88915000D03*
X48500000Y-91455000D03*
%TD*%
D10*
%TO.C,J13*%
X71000000Y-89600000D03*
D11*
X73540000Y-89600000D03*
X76080000Y-89600000D03*
X78620000Y-89600000D03*
%TD*%
D12*
%TO.C,REF\u002A\u002A*%
X27750000Y-22250000D03*
%TD*%
%TO.C,REF\u002A\u002A*%
X28000000Y-95200000D03*
%TD*%
D10*
%TO.C,J9*%
X82860000Y-89600000D03*
D11*
X85400000Y-89600000D03*
%TD*%
D12*
%TO.C,REF\u002A\u002A*%
X86400000Y-22200000D03*
%TD*%
D10*
%TO.C,J12*%
X84400000Y-28000000D03*
D11*
X84400000Y-30540000D03*
X84400000Y-33080000D03*
X84400000Y-35620000D03*
X84400000Y-38160000D03*
X84400000Y-40700000D03*
X84400000Y-43240000D03*
X84400000Y-45780000D03*
X84400000Y-48320000D03*
X84400000Y-50860000D03*
X84400000Y-53400000D03*
X84400000Y-55940000D03*
X84400000Y-58480000D03*
X84400000Y-61020000D03*
X84400000Y-63560000D03*
X84400000Y-66100000D03*
X84400000Y-68640000D03*
X84400000Y-71180000D03*
X84400000Y-73720000D03*
X84400000Y-76260000D03*
X84400000Y-78800000D03*
X84400000Y-81340000D03*
%TD*%
D10*
%TO.C,J5*%
X38000000Y-61371667D03*
D11*
X38000000Y-63911667D03*
X38000000Y-66451667D03*
X38000000Y-68991667D03*
X38000000Y-71531667D03*
X38000000Y-74071667D03*
%TD*%
D10*
%TO.C,J1*%
X38000000Y-26700000D03*
D11*
X38000000Y-29240000D03*
X38000000Y-31780000D03*
X38000000Y-34320000D03*
X38000000Y-36860000D03*
X38000000Y-39400000D03*
%TD*%
M02*
