%TF.GenerationSoftware,KiCad,Pcbnew,10.0.0*%
%TF.CreationDate,2026-04-12T22:18:38-05:00*%
%TF.ProjectId,ti99-kb-adapter,74693939-2d6b-4622-9d61-646170746572,rev?*%
%TF.SameCoordinates,Original*%
%TF.FileFunction,Soldermask,Bot*%
%TF.FilePolarity,Negative*%
%FSLAX46Y46*%
G04 Gerber Fmt 4.6, Leading zero omitted, Abs format (unit mm)*
G04 Created by KiCad (PCBNEW 10.0.0) date 2026-04-12 22:18:38*
%MOMM*%
%LPD*%
G01*
G04 APERTURE LIST*
%ADD10R,1.700000X1.700000*%
%ADD11C,1.700000*%
G04 APERTURE END LIST*
D10*
%TO.C,J8*%
X53975000Y-34230000D03*
D11*
X51435000Y-34230000D03*
%TD*%
D10*
%TO.C,J7*%
X33655000Y-49530000D03*
D11*
X33655000Y-52070000D03*
X33655000Y-54610000D03*
X33655000Y-57150000D03*
X33655000Y-59690000D03*
X33655000Y-62230000D03*
X33655000Y-64770000D03*
X33655000Y-67310000D03*
X33655000Y-69850000D03*
X33655000Y-72390000D03*
X33655000Y-74930000D03*
X33655000Y-77470000D03*
X33655000Y-80010000D03*
X33655000Y-82550000D03*
X33655000Y-85090000D03*
%TD*%
D10*
%TO.C,J6*%
X43815000Y-69850000D03*
D11*
X43815000Y-72390000D03*
X43815000Y-74930000D03*
X43815000Y-77470000D03*
X43815000Y-80010000D03*
X43815000Y-82550000D03*
X43815000Y-85090000D03*
X43815000Y-87630000D03*
X43815000Y-90170000D03*
X43815000Y-92710000D03*
%TD*%
%TO.C,J3*%
X59055000Y-64770000D03*
X59055000Y-62230000D03*
X59055000Y-59690000D03*
X59055000Y-57150000D03*
X59055000Y-54610000D03*
X59055000Y-52070000D03*
X59055000Y-49530000D03*
X59055000Y-46990000D03*
X59055000Y-44450000D03*
D10*
X59055000Y-41910000D03*
%TD*%
D11*
%TO.C,J2*%
X97155000Y-90170000D03*
X97155000Y-87630000D03*
X97155000Y-85090000D03*
X97155000Y-82550000D03*
X97155000Y-80010000D03*
X97155000Y-77470000D03*
X97155000Y-74930000D03*
X97155000Y-72390000D03*
X97155000Y-69850000D03*
X97155000Y-67310000D03*
X97155000Y-64770000D03*
X97155000Y-62230000D03*
X97155000Y-59690000D03*
X97155000Y-57150000D03*
X97155000Y-54610000D03*
X97155000Y-52070000D03*
X97155000Y-49530000D03*
X97155000Y-46990000D03*
X97155000Y-44450000D03*
X97155000Y-41910000D03*
X97155000Y-39370000D03*
D10*
X97155000Y-36830000D03*
%TD*%
%TO.C,J1*%
X71755000Y-36830000D03*
D11*
X71755000Y-39370000D03*
X71755000Y-41910000D03*
X71755000Y-44450000D03*
X71755000Y-46990000D03*
X71755000Y-49530000D03*
X71755000Y-52070000D03*
X71755000Y-54610000D03*
X71755000Y-57150000D03*
X71755000Y-59690000D03*
X71755000Y-62230000D03*
X71755000Y-64770000D03*
X71755000Y-67310000D03*
X71755000Y-69850000D03*
X71755000Y-72390000D03*
X71755000Y-74930000D03*
X71755000Y-77470000D03*
X71755000Y-80010000D03*
X71755000Y-82550000D03*
X71755000Y-85090000D03*
X71755000Y-87630000D03*
X71755000Y-90170000D03*
%TD*%
D10*
%TO.C,J4*%
X43815000Y-41910000D03*
D11*
X43815000Y-44450000D03*
X43815000Y-46990000D03*
X43815000Y-49530000D03*
X43815000Y-52070000D03*
X43815000Y-54610000D03*
X43815000Y-57150000D03*
X43815000Y-59690000D03*
X43815000Y-62230000D03*
X43815000Y-64770000D03*
%TD*%
D10*
%TO.C,J5*%
X59055000Y-69850000D03*
D11*
X59055000Y-72390000D03*
X59055000Y-74930000D03*
X59055000Y-77470000D03*
X59055000Y-80010000D03*
X59055000Y-82550000D03*
X59055000Y-85090000D03*
X59055000Y-87630000D03*
X59055000Y-90170000D03*
X59055000Y-92710000D03*
%TD*%
M02*
