%TF.GenerationSoftware,KiCad,Pcbnew,10.0.0*%
%TF.CreationDate,2026-04-25T13:09:51-05:00*%
%TF.ProjectId,ti99-kb-adapter,74693939-2d6b-4622-9d61-646170746572,rev?*%
%TF.SameCoordinates,Original*%
%TF.FileFunction,Copper,L2,Bot*%
%TF.FilePolarity,Positive*%
%FSLAX46Y46*%
G04 Gerber Fmt 4.6, Leading zero omitted, Abs format (unit mm)*
G04 Created by KiCad (PCBNEW 10.0.0) date 2026-04-25 13:09:51*
%MOMM*%
%LPD*%
G01*
G04 APERTURE LIST*
G04 Aperture macros list*
%AMRoundRect*
0 Rectangle with rounded corners*
0 $1 Rounding radius*
0 $2 $3 $4 $5 $6 $7 $8 $9 X,Y pos of 4 corners*
0 Add a 4 corners polygon primitive as box body*
4,1,4,$2,$3,$4,$5,$6,$7,$8,$9,$2,$3,0*
0 Add four circle primitives for the rounded corners*
1,1,$1+$1,$2,$3*
1,1,$1+$1,$4,$5*
1,1,$1+$1,$6,$7*
1,1,$1+$1,$8,$9*
0 Add four rect primitives between the rounded corners*
20,1,$1+$1,$2,$3,$4,$5,0*
20,1,$1+$1,$4,$5,$6,$7,0*
20,1,$1+$1,$6,$7,$8,$9,0*
20,1,$1+$1,$8,$9,$2,$3,0*%
G04 Aperture macros list end*
%TA.AperFunction,ComponentPad*%
%ADD10R,1.700000X1.700000*%
%TD*%
%TA.AperFunction,ComponentPad*%
%ADD11C,1.700000*%
%TD*%
%TA.AperFunction,ComponentPad*%
%ADD12RoundRect,0.250000X-1.330000X-1.850000X1.330000X-1.850000X1.330000X1.850000X-1.330000X1.850000X0*%
%TD*%
%TA.AperFunction,ComponentPad*%
%ADD13O,3.160000X4.200000*%
%TD*%
%TA.AperFunction,Conductor*%
%ADD14C,0.400000*%
%TD*%
G04 APERTURE END LIST*
D10*
%TO.P,J11,1,Pin_1_1*%
%TO.N,+3V3*%
X59000000Y-28000000D03*
D11*
%TO.P,J11,2,Pin_2_2*%
X59000000Y-30540000D03*
%TO.P,J11,3,Pin_3_3*%
%TO.N,unconnected-(J11-Pin_3-Pad3)*%
X59000000Y-33080000D03*
%TO.P,J11,4,Pin_4_4*%
%TO.N,/INT5_LV*%
X59000000Y-35620000D03*
%TO.P,J11,5,Pin_5_5*%
%TO.N,/INT6_LV*%
X59000000Y-38160000D03*
%TO.P,J11,6,Pin_6_6*%
%TO.N,/INT8_LV*%
X59000000Y-40700000D03*
%TO.P,J11,7,Pin_7_7*%
%TO.N,/INT4_LV*%
X59000000Y-43240000D03*
%TO.P,J11,8,Pin_8_8*%
%TO.N,/INT3_LV*%
X59000000Y-45780000D03*
%TO.P,J11,9,Pin_9_9*%
%TO.N,/INT7_LV*%
X59000000Y-48320000D03*
%TO.P,J11,10,Pin_10_10*%
%TO.N,/1Y1_LV*%
X59000000Y-50860000D03*
%TO.P,J11,11,Pin_11_11*%
%TO.N,/1Y0_LV*%
X59000000Y-53400000D03*
%TO.P,J11,12,Pin_12_12*%
%TO.N,unconnected-(J11-Pin_12-Pad12)*%
X59000000Y-55940000D03*
%TO.P,J11,13,Pin_13_13*%
%TO.N,unconnected-(J11-Pin_13-Pad13)*%
X59000000Y-58480000D03*
%TO.P,J11,14,Pin_14_14*%
%TO.N,unconnected-(J11-Pin_14-Pad14)*%
X59000000Y-61020000D03*
%TO.P,J11,15,Pin_15_15*%
%TO.N,/INT9_LV*%
X59000000Y-63560000D03*
%TO.P,J11,16,Pin_16_16*%
%TO.N,/INT10_LV*%
X59000000Y-66100000D03*
%TO.P,J11,17,Pin_17_17*%
%TO.N,/2Y0_LV*%
X59000000Y-68640000D03*
%TO.P,J11,18,Pin_18_18*%
%TO.N,/2Y1_LV*%
X59000000Y-71180000D03*
%TO.P,J11,19,Pin_19_19*%
%TO.N,/2Y2_LV*%
X59000000Y-73720000D03*
%TO.P,J11,20,Pin_20_20*%
%TO.N,/2Y3_LV*%
X59000000Y-76260000D03*
%TO.P,J11,21,Pin_21_21*%
%TO.N,+5V*%
X59000000Y-78800000D03*
%TO.P,J11,22,Pin_22_22*%
%TO.N,GND*%
X59000000Y-81340000D03*
%TD*%
D12*
%TO.P,J14,1,Pin_1_1*%
%TO.N,/PSU_-5V*%
X53680000Y-90600000D03*
D13*
%TO.P,J14,2,Pin_2_2*%
%TO.N,/PSU_+12V*%
X57640000Y-90600000D03*
%TO.P,J14,3,Pin_3_3*%
%TO.N,GND*%
X61600000Y-90600000D03*
%TO.P,J14,4,Pin_4_4*%
%TO.N,+5V*%
X65560000Y-90600000D03*
%TD*%
D10*
%TO.P,J10,1,Pin_1_1*%
%TO.N,/INT5*%
X29000000Y-28000000D03*
D11*
%TO.P,J10,2,Pin_2_2*%
%TO.N,/INT6*%
X29000000Y-30540000D03*
%TO.P,J10,3,Pin_3_3*%
%TO.N,/INT8*%
X29000000Y-33080000D03*
%TO.P,J10,4,Pin_4_4*%
%TO.N,/INT4*%
X29000000Y-35620000D03*
%TO.P,J10,5,Pin_5_5*%
%TO.N,/INT3*%
X29000000Y-38160000D03*
%TO.P,J10,6,Pin_6_6*%
%TO.N,unconnected-(J10-Pin_6-Pad6)*%
X29000000Y-40700000D03*
%TO.P,J10,7,Pin_7_7*%
%TO.N,/INT7*%
X29000000Y-43240000D03*
%TO.P,J10,8,Pin_8_8*%
%TO.N,/1Y1*%
X29000000Y-45780000D03*
%TO.P,J10,9,Pin_9_9*%
%TO.N,/1Y0*%
X29000000Y-48320000D03*
%TO.P,J10,10,Pin_10_10*%
%TO.N,/INT9*%
X29000000Y-50860000D03*
%TO.P,J10,11,Pin_11_11*%
%TO.N,/INT10*%
X29000000Y-53400000D03*
%TO.P,J10,12,Pin_12_12*%
%TO.N,/2Y0*%
X29000000Y-55940000D03*
%TO.P,J10,13,Pin_13_13*%
%TO.N,/2Y1*%
X29000000Y-58480000D03*
%TO.P,J10,14,Pin_14_14*%
%TO.N,/2Y2*%
X29000000Y-61020000D03*
%TO.P,J10,15,Pin_15_15*%
%TO.N,/2Y3*%
X29000000Y-63560000D03*
%TD*%
D10*
%TO.P,J4,1,Pin_1_1*%
%TO.N,/INT3_LV*%
X48500000Y-43988333D03*
D11*
%TO.P,J4,2,Pin_2_2*%
%TO.N,/INT7_LV*%
X48500000Y-46528333D03*
%TO.P,J4,3,Pin_3_3*%
%TO.N,+3V3*%
X48500000Y-49068333D03*
%TO.P,J4,4,Pin_4_4*%
%TO.N,GND*%
X48500000Y-51608333D03*
%TO.P,J4,5,Pin_5_5*%
%TO.N,/1Y1_LV*%
X48500000Y-54148333D03*
%TO.P,J4,6,Pin_6_6*%
%TO.N,/1Y0_LV*%
X48500000Y-56688333D03*
%TD*%
D10*
%TO.P,J3,1,Pin_1_1*%
%TO.N,/INT3*%
X38000000Y-43988333D03*
D11*
%TO.P,J3,2,Pin_2_2*%
%TO.N,/INT7*%
X38000000Y-46528333D03*
%TO.P,J3,3,Pin_3_3*%
%TO.N,+5V*%
X38000000Y-49068333D03*
%TO.P,J3,4,Pin_4_4*%
%TO.N,GND*%
X38000000Y-51608333D03*
%TO.P,J3,5,Pin_5_5*%
%TO.N,/1Y1*%
X38000000Y-54148333D03*
%TO.P,J3,6,Pin_6_6*%
%TO.N,/1Y0*%
X38000000Y-56688333D03*
%TD*%
D10*
%TO.P,J6,1,Pin_1_1*%
%TO.N,/INT9_LV*%
X48500000Y-61371667D03*
D11*
%TO.P,J6,2,Pin_2_2*%
%TO.N,/INT10_LV*%
X48500000Y-63911667D03*
%TO.P,J6,3,Pin_3_3*%
%TO.N,+3V3*%
X48500000Y-66451667D03*
%TO.P,J6,4,Pin_4_4*%
%TO.N,GND*%
X48500000Y-68991667D03*
%TO.P,J6,5,Pin_5_5*%
%TO.N,/2Y0_LV*%
X48500000Y-71531667D03*
%TO.P,J6,6,Pin_6_6*%
%TO.N,/2Y1_LV*%
X48500000Y-74071667D03*
%TD*%
D10*
%TO.P,J7,1,Pin_1_1*%
%TO.N,/2Y2*%
X38000000Y-78755000D03*
D11*
%TO.P,J7,2,Pin_2_2*%
%TO.N,/2Y3*%
X38000000Y-81295000D03*
%TO.P,J7,3,Pin_3_3*%
%TO.N,+5V*%
X38000000Y-83835000D03*
%TO.P,J7,4,Pin_4_4*%
%TO.N,GND*%
X38000000Y-86375000D03*
%TO.P,J7,5,Pin_5_5*%
%TO.N,unconnected-(J7-Pin_5-Pad5)*%
X38000000Y-88915000D03*
%TO.P,J7,6,Pin_6_6*%
%TO.N,unconnected-(J7-Pin_6-Pad6)*%
X38000000Y-91455000D03*
%TD*%
D10*
%TO.P,J2,1,Pin_1_1*%
%TO.N,/INT5_LV*%
X48500000Y-26700000D03*
D11*
%TO.P,J2,2,Pin_2_2*%
%TO.N,/INT6_LV*%
X48500000Y-29240000D03*
%TO.P,J2,3,Pin_3_3*%
%TO.N,+3V3*%
X48500000Y-31780000D03*
%TO.P,J2,4,Pin_4_4*%
%TO.N,GND*%
X48500000Y-34320000D03*
%TO.P,J2,5,Pin_5_5*%
%TO.N,/INT8_LV*%
X48500000Y-36860000D03*
%TO.P,J2,6,Pin_6_6*%
%TO.N,/INT4_LV*%
X48500000Y-39400000D03*
%TD*%
D10*
%TO.P,J8,1,Pin_1_1*%
%TO.N,/2Y2_LV*%
X48500000Y-78755000D03*
D11*
%TO.P,J8,2,Pin_2_2*%
%TO.N,/2Y3_LV*%
X48500000Y-81295000D03*
%TO.P,J8,3,Pin_3_3*%
%TO.N,+3V3*%
X48500000Y-83835000D03*
%TO.P,J8,4,Pin_4_4*%
%TO.N,GND*%
X48500000Y-86375000D03*
%TO.P,J8,5,Pin_5_5*%
%TO.N,unconnected-(J8-Pin_5-Pad5)*%
X48500000Y-88915000D03*
%TO.P,J8,6,Pin_6_6*%
%TO.N,unconnected-(J8-Pin_6-Pad6)*%
X48500000Y-91455000D03*
%TD*%
D10*
%TO.P,J13,1,Pin_1_1*%
%TO.N,/PSU_-5V*%
X71000000Y-89600000D03*
D11*
%TO.P,J13,2,Pin_2_2*%
%TO.N,/PSU_+12V*%
X73540000Y-89600000D03*
%TO.P,J13,3,Pin_3_3*%
%TO.N,GND*%
X76080000Y-89600000D03*
%TO.P,J13,4,Pin_4_4*%
%TO.N,+5V*%
X78620000Y-89600000D03*
%TD*%
D10*
%TO.P,J9,1,Pin_1_1*%
%TO.N,+5V*%
X82860000Y-89600000D03*
D11*
%TO.P,J9,2,Pin_2_2*%
%TO.N,GND*%
X85400000Y-89600000D03*
%TD*%
D10*
%TO.P,J12,1,Pin_1_1*%
%TO.N,GND*%
X84400000Y-28000000D03*
D11*
%TO.P,J12,2,Pin_2_2*%
%TO.N,unconnected-(J12-Pin_2-Pad2)*%
X84400000Y-30540000D03*
%TO.P,J12,3,Pin_3_3*%
%TO.N,unconnected-(J12-Pin_3-Pad3)*%
X84400000Y-33080000D03*
%TO.P,J12,4,Pin_4_4*%
%TO.N,unconnected-(J12-Pin_4-Pad4)*%
X84400000Y-35620000D03*
%TO.P,J12,5,Pin_5_5*%
%TO.N,unconnected-(J12-Pin_5-Pad5)*%
X84400000Y-38160000D03*
%TO.P,J12,6,Pin_6_6*%
%TO.N,unconnected-(J12-Pin_6-Pad6)*%
X84400000Y-40700000D03*
%TO.P,J12,7,Pin_7_7*%
%TO.N,unconnected-(J12-Pin_7-Pad7)*%
X84400000Y-43240000D03*
%TO.P,J12,8,Pin_8_8*%
%TO.N,unconnected-(J12-Pin_8-Pad8)*%
X84400000Y-45780000D03*
%TO.P,J12,9,Pin_9_9*%
%TO.N,unconnected-(J12-Pin_9-Pad9)*%
X84400000Y-48320000D03*
%TO.P,J12,10,Pin_10_10*%
%TO.N,unconnected-(J12-Pin_10-Pad10)*%
X84400000Y-50860000D03*
%TO.P,J12,11,Pin_11_11*%
%TO.N,unconnected-(J12-Pin_11-Pad11)*%
X84400000Y-53400000D03*
%TO.P,J12,12,Pin_12_12*%
%TO.N,unconnected-(J12-Pin_12-Pad12)*%
X84400000Y-55940000D03*
%TO.P,J12,13,Pin_13_13*%
%TO.N,unconnected-(J12-Pin_13-Pad13)*%
X84400000Y-58480000D03*
%TO.P,J12,14,Pin_14_14*%
%TO.N,unconnected-(J12-Pin_14-Pad14)*%
X84400000Y-61020000D03*
%TO.P,J12,15,Pin_15_15*%
%TO.N,unconnected-(J12-Pin_15-Pad15)*%
X84400000Y-63560000D03*
%TO.P,J12,16,Pin_16_16*%
%TO.N,unconnected-(J12-Pin_16-Pad16)*%
X84400000Y-66100000D03*
%TO.P,J12,17,Pin_17_17*%
%TO.N,unconnected-(J12-Pin_17-Pad17)*%
X84400000Y-68640000D03*
%TO.P,J12,18,Pin_18_18*%
%TO.N,unconnected-(J12-Pin_18-Pad18)*%
X84400000Y-71180000D03*
%TO.P,J12,19,Pin_19_19*%
%TO.N,unconnected-(J12-Pin_19-Pad19)*%
X84400000Y-73720000D03*
%TO.P,J12,20,Pin_20_20*%
%TO.N,unconnected-(J12-Pin_20-Pad20)*%
X84400000Y-76260000D03*
%TO.P,J12,21,Pin_21_21*%
%TO.N,GND*%
X84400000Y-78800000D03*
%TO.P,J12,22,Pin_22_22*%
X84400000Y-81340000D03*
%TD*%
D10*
%TO.P,J5,1,Pin_1_1*%
%TO.N,/INT9*%
X38000000Y-61371667D03*
D11*
%TO.P,J5,2,Pin_2_2*%
%TO.N,/INT10*%
X38000000Y-63911667D03*
%TO.P,J5,3,Pin_3_3*%
%TO.N,+5V*%
X38000000Y-66451667D03*
%TO.P,J5,4,Pin_4_4*%
%TO.N,GND*%
X38000000Y-68991667D03*
%TO.P,J5,5,Pin_5_5*%
%TO.N,/2Y0*%
X38000000Y-71531667D03*
%TO.P,J5,6,Pin_6_6*%
%TO.N,/2Y1*%
X38000000Y-74071667D03*
%TD*%
D10*
%TO.P,J1,1,Pin_1_1*%
%TO.N,/INT5*%
X38000000Y-26700000D03*
D11*
%TO.P,J1,2,Pin_2_2*%
%TO.N,/INT6*%
X38000000Y-29240000D03*
%TO.P,J1,3,Pin_3_3*%
%TO.N,+5V*%
X38000000Y-31780000D03*
%TO.P,J1,4,Pin_4_4*%
%TO.N,GND*%
X38000000Y-34320000D03*
%TO.P,J1,5,Pin_5_5*%
%TO.N,/INT8*%
X38000000Y-36860000D03*
%TO.P,J1,6,Pin_6_6*%
%TO.N,/INT4*%
X38000000Y-39400000D03*
%TD*%
%TO.N,+5V*%
D14*
X78620000Y-81420000D02*
X76000000Y-78800000D01*
X38000000Y-49068333D02*
X41500000Y-49068333D01*
X41500000Y-66600000D02*
X41500000Y-83800000D01*
X41351667Y-66451667D02*
X41500000Y-66600000D01*
X65600000Y-94560000D02*
X63400000Y-96760000D01*
X65600000Y-90640000D02*
X65600000Y-94560000D01*
X78620000Y-89600000D02*
X82860000Y-89600000D01*
X76860661Y-96800000D02*
X63400000Y-96800000D01*
X59470000Y-78800000D02*
X58800000Y-78130000D01*
X47600000Y-96800000D02*
X63400000Y-96800000D01*
X41500000Y-49068333D02*
X41500000Y-48800000D01*
X63400000Y-96760000D02*
X63400000Y-96800000D01*
X41500000Y-66300000D02*
X41500000Y-66600000D01*
X41500000Y-90700000D02*
X47600000Y-96800000D01*
X78620000Y-89600000D02*
X78620000Y-95040661D01*
X79020000Y-89200000D02*
X78620000Y-89600000D01*
X41500000Y-33300000D02*
X41500000Y-48800000D01*
X38000000Y-31685000D02*
X39885000Y-31685000D01*
X39885000Y-31685000D02*
X41500000Y-33300000D01*
X78620000Y-95040661D02*
X76860661Y-96800000D01*
X78620000Y-89600000D02*
X78620000Y-81420000D01*
X41500000Y-83800000D02*
X41500000Y-90700000D01*
X76000000Y-78800000D02*
X59470000Y-78800000D01*
X38000000Y-66451667D02*
X41351667Y-66451667D01*
X41500000Y-48800000D02*
X41500000Y-66300000D01*
X38000000Y-83835000D02*
X41465000Y-83835000D01*
X41465000Y-83835000D02*
X41500000Y-83800000D01*
%TO.N,/PSU_+12V*%
X59400000Y-86200000D02*
X57640000Y-87960000D01*
X72400000Y-86200000D02*
X59400000Y-86200000D01*
X73540000Y-87340000D02*
X72400000Y-86200000D01*
X57640000Y-87960000D02*
X57640000Y-90600000D01*
X73540000Y-89600000D02*
X73540000Y-87340000D01*
X74000000Y-89140000D02*
X73540000Y-89600000D01*
%TD*%
%TA.AperFunction,Conductor*%
%TO.N,GND*%
G36*
X72249784Y-86620185D02*
G01*
X72270426Y-86636819D01*
X73103181Y-87469574D01*
X73136666Y-87530897D01*
X73139500Y-87557255D01*
X73139500Y-88545985D01*
X73119815Y-88613024D01*
X73067011Y-88658779D01*
X73062956Y-88660544D01*
X73042402Y-88669059D01*
X73042395Y-88669062D01*
X72870344Y-88784022D01*
X72724024Y-88930342D01*
X72609058Y-89102403D01*
X72529870Y-89293579D01*
X72529868Y-89293587D01*
X72489500Y-89496530D01*
X72489500Y-89703469D01*
X72529868Y-89906412D01*
X72529870Y-89906420D01*
X72598865Y-90072989D01*
X72609059Y-90097598D01*
X72622836Y-90118217D01*
X72724024Y-90269657D01*
X72870342Y-90415975D01*
X72870345Y-90415977D01*
X73042402Y-90530941D01*
X73233580Y-90610130D01*
X73378052Y-90638867D01*
X73436530Y-90650499D01*
X73436534Y-90650500D01*
X73436535Y-90650500D01*
X73643466Y-90650500D01*
X73643467Y-90650499D01*
X73846420Y-90610130D01*
X74037598Y-90530941D01*
X74209655Y-90415977D01*
X74355977Y-90269655D01*
X74470941Y-90097598D01*
X74539165Y-89932889D01*
X74583004Y-89878488D01*
X74649298Y-89856423D01*
X74716998Y-89873702D01*
X74764609Y-89924839D01*
X74771656Y-89942026D01*
X74828904Y-90118216D01*
X74925375Y-90307550D01*
X74964728Y-90361716D01*
X75597037Y-89729408D01*
X75614075Y-89792993D01*
X75679901Y-89907007D01*
X75772993Y-90000099D01*
X75887007Y-90065925D01*
X75950590Y-90082962D01*
X75318282Y-90715269D01*
X75318282Y-90715270D01*
X75372449Y-90754624D01*
X75561782Y-90851095D01*
X75763870Y-90916757D01*
X75973754Y-90950000D01*
X76186246Y-90950000D01*
X76396127Y-90916757D01*
X76396130Y-90916757D01*
X76598217Y-90851095D01*
X76787554Y-90754622D01*
X76841716Y-90715270D01*
X76841717Y-90715270D01*
X76209408Y-90082962D01*
X76272993Y-90065925D01*
X76387007Y-90000099D01*
X76480099Y-89907007D01*
X76545925Y-89792993D01*
X76562962Y-89729408D01*
X77195270Y-90361717D01*
X77195270Y-90361716D01*
X77234622Y-90307554D01*
X77331095Y-90118217D01*
X77388343Y-89942026D01*
X77427780Y-89884351D01*
X77492139Y-89857152D01*
X77560985Y-89869066D01*
X77612461Y-89916310D01*
X77620833Y-89932887D01*
X77648872Y-90000579D01*
X77678865Y-90072989D01*
X77689059Y-90097598D01*
X77702836Y-90118217D01*
X77804024Y-90269657D01*
X77950342Y-90415975D01*
X77950345Y-90415977D01*
X78122402Y-90530941D01*
X78142952Y-90539453D01*
X78197356Y-90583293D01*
X78219421Y-90649587D01*
X78219500Y-90654014D01*
X78219500Y-94823406D01*
X78199815Y-94890445D01*
X78183181Y-94911087D01*
X76731087Y-96363181D01*
X76669764Y-96396666D01*
X76643406Y-96399500D01*
X64626255Y-96399500D01*
X64559216Y-96379815D01*
X64513461Y-96327011D01*
X64503517Y-96257853D01*
X64532542Y-96194297D01*
X64538574Y-96187819D01*
X65164608Y-95561785D01*
X65920480Y-94805913D01*
X65973207Y-94714588D01*
X66000500Y-94612727D01*
X66000500Y-94507273D01*
X66000500Y-92940425D01*
X66020185Y-92873386D01*
X66072989Y-92827631D01*
X66092401Y-92820652D01*
X66133551Y-92809626D01*
X66349185Y-92720308D01*
X66551315Y-92603608D01*
X66736484Y-92461523D01*
X66901523Y-92296484D01*
X67043608Y-92111315D01*
X67160308Y-91909185D01*
X67249626Y-91693551D01*
X67310035Y-91468104D01*
X67340500Y-91236700D01*
X67340500Y-89963300D01*
X67310035Y-89731896D01*
X67249626Y-89506449D01*
X67160308Y-89290815D01*
X67160306Y-89290812D01*
X67160304Y-89290807D01*
X67043612Y-89088692D01*
X67043608Y-89088685D01*
X66901523Y-88903516D01*
X66901518Y-88903510D01*
X66736489Y-88738481D01*
X66736482Y-88738475D01*
X66725759Y-88730247D01*
X69949500Y-88730247D01*
X69949500Y-90469752D01*
X69961131Y-90528229D01*
X69961132Y-90528230D01*
X70005447Y-90594552D01*
X70071769Y-90638867D01*
X70071770Y-90638868D01*
X70130247Y-90650499D01*
X70130250Y-90650500D01*
X70130252Y-90650500D01*
X71869750Y-90650500D01*
X71869751Y-90650499D01*
X71885971Y-90647273D01*
X71928229Y-90638868D01*
X71928229Y-90638867D01*
X71928231Y-90638867D01*
X71994552Y-90594552D01*
X72038867Y-90528231D01*
X72038867Y-90528229D01*
X72038868Y-90528229D01*
X72050499Y-90469752D01*
X72050500Y-90469750D01*
X72050500Y-88730249D01*
X72050499Y-88730247D01*
X72038868Y-88671770D01*
X72038867Y-88671769D01*
X71994552Y-88605447D01*
X71928230Y-88561132D01*
X71928229Y-88561131D01*
X71869752Y-88549500D01*
X71869748Y-88549500D01*
X70130252Y-88549500D01*
X70130247Y-88549500D01*
X70071770Y-88561131D01*
X70071769Y-88561132D01*
X70005447Y-88605447D01*
X69961132Y-88671769D01*
X69961131Y-88671770D01*
X69949500Y-88730247D01*
X66725759Y-88730247D01*
X66551323Y-88596398D01*
X66551321Y-88596396D01*
X66551315Y-88596392D01*
X66551310Y-88596389D01*
X66551307Y-88596387D01*
X66349192Y-88479695D01*
X66349181Y-88479690D01*
X66133555Y-88390375D01*
X66020827Y-88360169D01*
X65908104Y-88329965D01*
X65908103Y-88329964D01*
X65908100Y-88329964D01*
X65676709Y-88299501D01*
X65676706Y-88299500D01*
X65676700Y-88299500D01*
X65443300Y-88299500D01*
X65443294Y-88299500D01*
X65443290Y-88299501D01*
X65211899Y-88329964D01*
X64986444Y-88390375D01*
X64770818Y-88479690D01*
X64770807Y-88479695D01*
X64568692Y-88596387D01*
X64568676Y-88596398D01*
X64383517Y-88738475D01*
X64383510Y-88738481D01*
X64218481Y-88903510D01*
X64218475Y-88903517D01*
X64076398Y-89088676D01*
X64076387Y-89088692D01*
X63959695Y-89290807D01*
X63959690Y-89290818D01*
X63870375Y-89506444D01*
X63870374Y-89506449D01*
X63854809Y-89564540D01*
X63854808Y-89564542D01*
X63818442Y-89624202D01*
X63755595Y-89654731D01*
X63686220Y-89646436D01*
X63632342Y-89601950D01*
X63615258Y-89564542D01*
X63573840Y-89409970D01*
X63469500Y-89158072D01*
X63469496Y-89158062D01*
X63333168Y-88921933D01*
X63167181Y-88705617D01*
X63167174Y-88705609D01*
X62974391Y-88512826D01*
X62974382Y-88512818D01*
X62758066Y-88346831D01*
X62521937Y-88210503D01*
X62521927Y-88210499D01*
X62270029Y-88106159D01*
X62006655Y-88035588D01*
X61850000Y-88014963D01*
X61850000Y-89732095D01*
X61688642Y-89700000D01*
X61511358Y-89700000D01*
X61350000Y-89732095D01*
X61350000Y-88014963D01*
X61349999Y-88014963D01*
X61193344Y-88035588D01*
X60929970Y-88106159D01*
X60678072Y-88210499D01*
X60678062Y-88210503D01*
X60441933Y-88346831D01*
X60225617Y-88512818D01*
X60032818Y-88705617D01*
X59866831Y-88921933D01*
X59730503Y-89158062D01*
X59730499Y-89158072D01*
X59626159Y-89409970D01*
X59584741Y-89564542D01*
X59548375Y-89624203D01*
X59485528Y-89654731D01*
X59416153Y-89646436D01*
X59362275Y-89601950D01*
X59345192Y-89564542D01*
X59329626Y-89506449D01*
X59240308Y-89290815D01*
X59240306Y-89290812D01*
X59240304Y-89290807D01*
X59123612Y-89088692D01*
X59123608Y-89088685D01*
X58981523Y-88903516D01*
X58981518Y-88903510D01*
X58816489Y-88738481D01*
X58816482Y-88738475D01*
X58631323Y-88596398D01*
X58631321Y-88596396D01*
X58631315Y-88596392D01*
X58631310Y-88596389D01*
X58631307Y-88596387D01*
X58429192Y-88479695D01*
X58429176Y-88479687D01*
X58278803Y-88417402D01*
X58213551Y-88390374D01*
X58208963Y-88389144D01*
X58132404Y-88368629D01*
X58072745Y-88332263D01*
X58042216Y-88269416D01*
X58040500Y-88248855D01*
X58040500Y-88177255D01*
X58060185Y-88110216D01*
X58076819Y-88089574D01*
X59529574Y-86636819D01*
X59590897Y-86603334D01*
X59617255Y-86600500D01*
X72182745Y-86600500D01*
X72249784Y-86620185D01*
G37*
%TD.AperFunction*%
%TA.AperFunction,Conductor*%
G36*
X89242539Y-19220185D02*
G01*
X89288294Y-19272989D01*
X89299500Y-19324500D01*
X89299500Y-98075500D01*
X89279815Y-98142539D01*
X89227011Y-98188294D01*
X89175500Y-98199500D01*
X25024500Y-98199500D01*
X24957461Y-98179815D01*
X24911706Y-98127011D01*
X24900500Y-98075500D01*
X24900500Y-95078711D01*
X26149500Y-95078711D01*
X26149500Y-95321288D01*
X26181161Y-95561785D01*
X26243947Y-95796104D01*
X26336773Y-96020205D01*
X26336776Y-96020212D01*
X26458064Y-96230289D01*
X26458066Y-96230292D01*
X26458067Y-96230293D01*
X26605733Y-96422736D01*
X26605739Y-96422743D01*
X26777256Y-96594260D01*
X26777262Y-96594265D01*
X26969711Y-96741936D01*
X27179788Y-96863224D01*
X27403900Y-96956054D01*
X27638211Y-97018838D01*
X27818586Y-97042584D01*
X27878711Y-97050500D01*
X27878712Y-97050500D01*
X28121289Y-97050500D01*
X28169388Y-97044167D01*
X28361789Y-97018838D01*
X28596100Y-96956054D01*
X28820212Y-96863224D01*
X29030289Y-96741936D01*
X29222738Y-96594265D01*
X29394265Y-96422738D01*
X29541936Y-96230289D01*
X29663224Y-96020212D01*
X29756054Y-95796100D01*
X29818838Y-95561789D01*
X29850500Y-95321288D01*
X29850500Y-95078712D01*
X29818838Y-94838211D01*
X29756054Y-94603900D01*
X29663224Y-94379788D01*
X29541936Y-94169711D01*
X29394265Y-93977262D01*
X29394260Y-93977256D01*
X29222743Y-93805739D01*
X29222736Y-93805733D01*
X29030293Y-93658067D01*
X29030292Y-93658066D01*
X29030289Y-93658064D01*
X28820212Y-93536776D01*
X28820205Y-93536773D01*
X28596104Y-93443947D01*
X28361785Y-93381161D01*
X28121289Y-93349500D01*
X28121288Y-93349500D01*
X27878712Y-93349500D01*
X27878711Y-93349500D01*
X27638214Y-93381161D01*
X27403895Y-93443947D01*
X27179794Y-93536773D01*
X27179785Y-93536777D01*
X26969706Y-93658067D01*
X26777263Y-93805733D01*
X26777256Y-93805739D01*
X26605739Y-93977256D01*
X26605733Y-93977263D01*
X26458067Y-94169706D01*
X26336777Y-94379785D01*
X26336773Y-94379794D01*
X26243947Y-94603895D01*
X26181161Y-94838214D01*
X26149500Y-95078711D01*
X24900500Y-95078711D01*
X24900500Y-91351530D01*
X36949500Y-91351530D01*
X36949500Y-91558469D01*
X36989868Y-91761412D01*
X36989870Y-91761420D01*
X37069058Y-91952596D01*
X37184024Y-92124657D01*
X37330342Y-92270975D01*
X37330345Y-92270977D01*
X37502402Y-92385941D01*
X37693580Y-92465130D01*
X37840641Y-92494382D01*
X37896530Y-92505499D01*
X37896534Y-92505500D01*
X37896535Y-92505500D01*
X38103466Y-92505500D01*
X38103467Y-92505499D01*
X38306420Y-92465130D01*
X38497598Y-92385941D01*
X38669655Y-92270977D01*
X38815977Y-92124655D01*
X38930941Y-91952598D01*
X39010130Y-91761420D01*
X39050500Y-91558465D01*
X39050500Y-91351535D01*
X39010130Y-91148580D01*
X38930941Y-90957402D01*
X38815977Y-90785345D01*
X38815975Y-90785342D01*
X38669657Y-90639024D01*
X38512636Y-90534107D01*
X38497598Y-90524059D01*
X38466935Y-90511358D01*
X38306420Y-90444870D01*
X38306412Y-90444868D01*
X38103469Y-90404500D01*
X38103465Y-90404500D01*
X37896535Y-90404500D01*
X37896530Y-90404500D01*
X37693587Y-90444868D01*
X37693579Y-90444870D01*
X37502403Y-90524058D01*
X37330342Y-90639024D01*
X37184024Y-90785342D01*
X37069058Y-90957403D01*
X36989870Y-91148579D01*
X36989868Y-91148587D01*
X36949500Y-91351530D01*
X24900500Y-91351530D01*
X24900500Y-81191530D01*
X36949500Y-81191530D01*
X36949500Y-81398469D01*
X36989868Y-81601412D01*
X36989870Y-81601420D01*
X37069058Y-81792596D01*
X37184024Y-81964657D01*
X37330342Y-82110975D01*
X37330345Y-82110977D01*
X37502402Y-82225941D01*
X37693580Y-82305130D01*
X37896530Y-82345499D01*
X37896534Y-82345500D01*
X37896535Y-82345500D01*
X38103466Y-82345500D01*
X38103467Y-82345499D01*
X38306420Y-82305130D01*
X38497598Y-82225941D01*
X38669655Y-82110977D01*
X38815977Y-81964655D01*
X38930941Y-81792598D01*
X39010130Y-81601420D01*
X39050500Y-81398465D01*
X39050500Y-81191535D01*
X39010130Y-80988580D01*
X38930941Y-80797402D01*
X38815977Y-80625345D01*
X38815975Y-80625342D01*
X38669657Y-80479024D01*
X38583626Y-80421541D01*
X38497598Y-80364059D01*
X38306420Y-80284870D01*
X38306412Y-80284868D01*
X38103469Y-80244500D01*
X38103465Y-80244500D01*
X37896535Y-80244500D01*
X37896530Y-80244500D01*
X37693587Y-80284868D01*
X37693579Y-80284870D01*
X37502403Y-80364058D01*
X37330342Y-80479024D01*
X37184024Y-80625342D01*
X37069058Y-80797403D01*
X36989870Y-80988579D01*
X36989868Y-80988587D01*
X36949500Y-81191530D01*
X24900500Y-81191530D01*
X24900500Y-77885247D01*
X36949500Y-77885247D01*
X36949500Y-79624752D01*
X36961131Y-79683229D01*
X36961132Y-79683230D01*
X37005447Y-79749552D01*
X37071769Y-79793867D01*
X37071770Y-79793868D01*
X37130247Y-79805499D01*
X37130250Y-79805500D01*
X37130252Y-79805500D01*
X38869750Y-79805500D01*
X38869751Y-79805499D01*
X38884568Y-79802552D01*
X38928229Y-79793868D01*
X38928229Y-79793867D01*
X38928231Y-79793867D01*
X38994552Y-79749552D01*
X39038867Y-79683231D01*
X39038867Y-79683229D01*
X39038868Y-79683229D01*
X39050499Y-79624752D01*
X39050500Y-79624750D01*
X39050500Y-77885249D01*
X39050499Y-77885247D01*
X39038868Y-77826770D01*
X39038867Y-77826769D01*
X38994552Y-77760447D01*
X38928230Y-77716132D01*
X38928229Y-77716131D01*
X38869752Y-77704500D01*
X38869748Y-77704500D01*
X37130252Y-77704500D01*
X37130247Y-77704500D01*
X37071770Y-77716131D01*
X37071769Y-77716132D01*
X37005447Y-77760447D01*
X36961132Y-77826769D01*
X36961131Y-77826770D01*
X36949500Y-77885247D01*
X24900500Y-77885247D01*
X24900500Y-73968197D01*
X36949500Y-73968197D01*
X36949500Y-74175136D01*
X36989868Y-74378079D01*
X36989870Y-74378087D01*
X37069058Y-74569263D01*
X37184024Y-74741324D01*
X37330342Y-74887642D01*
X37330345Y-74887644D01*
X37502402Y-75002608D01*
X37693580Y-75081797D01*
X37896530Y-75122166D01*
X37896534Y-75122167D01*
X37896535Y-75122167D01*
X38103466Y-75122167D01*
X38103467Y-75122166D01*
X38306420Y-75081797D01*
X38497598Y-75002608D01*
X38669655Y-74887644D01*
X38815977Y-74741322D01*
X38930941Y-74569265D01*
X39010130Y-74378087D01*
X39050500Y-74175132D01*
X39050500Y-73968202D01*
X39010130Y-73765247D01*
X38930941Y-73574069D01*
X38815977Y-73402012D01*
X38815975Y-73402009D01*
X38669657Y-73255691D01*
X38583626Y-73198208D01*
X38497598Y-73140726D01*
X38306420Y-73061537D01*
X38306412Y-73061535D01*
X38103469Y-73021167D01*
X38103465Y-73021167D01*
X37896535Y-73021167D01*
X37896530Y-73021167D01*
X37693587Y-73061535D01*
X37693579Y-73061537D01*
X37502403Y-73140725D01*
X37330342Y-73255691D01*
X37184024Y-73402009D01*
X37069058Y-73574070D01*
X36989870Y-73765246D01*
X36989868Y-73765254D01*
X36949500Y-73968197D01*
X24900500Y-73968197D01*
X24900500Y-63456530D01*
X27949500Y-63456530D01*
X27949500Y-63663469D01*
X27989868Y-63866412D01*
X27989870Y-63866420D01*
X28069058Y-64057596D01*
X28184024Y-64229657D01*
X28330342Y-64375975D01*
X28330345Y-64375977D01*
X28502402Y-64490941D01*
X28693580Y-64570130D01*
X28896530Y-64610499D01*
X28896534Y-64610500D01*
X28896535Y-64610500D01*
X29103466Y-64610500D01*
X29103467Y-64610499D01*
X29306420Y-64570130D01*
X29497598Y-64490941D01*
X29669655Y-64375977D01*
X29815977Y-64229655D01*
X29930941Y-64057598D01*
X30010130Y-63866420D01*
X30021711Y-63808197D01*
X36949500Y-63808197D01*
X36949500Y-64015136D01*
X36989868Y-64218079D01*
X36989870Y-64218087D01*
X37069058Y-64409263D01*
X37184024Y-64581324D01*
X37330342Y-64727642D01*
X37330345Y-64727644D01*
X37502402Y-64842608D01*
X37693580Y-64921797D01*
X37896530Y-64962166D01*
X37896534Y-64962167D01*
X37896535Y-64962167D01*
X38103466Y-64962167D01*
X38103467Y-64962166D01*
X38306420Y-64921797D01*
X38497598Y-64842608D01*
X38669655Y-64727644D01*
X38815977Y-64581322D01*
X38930941Y-64409265D01*
X39010130Y-64218087D01*
X39050500Y-64015132D01*
X39050500Y-63808202D01*
X39010130Y-63605247D01*
X38930941Y-63414069D01*
X38815977Y-63242012D01*
X38815975Y-63242009D01*
X38669657Y-63095691D01*
X38583626Y-63038208D01*
X38497598Y-62980726D01*
X38306420Y-62901537D01*
X38306412Y-62901535D01*
X38103469Y-62861167D01*
X38103465Y-62861167D01*
X37896535Y-62861167D01*
X37896530Y-62861167D01*
X37693587Y-62901535D01*
X37693579Y-62901537D01*
X37502403Y-62980725D01*
X37330342Y-63095691D01*
X37184024Y-63242009D01*
X37069058Y-63414070D01*
X36989870Y-63605246D01*
X36989868Y-63605254D01*
X36949500Y-63808197D01*
X30021711Y-63808197D01*
X30050500Y-63663465D01*
X30050500Y-63456535D01*
X30010130Y-63253580D01*
X29930941Y-63062402D01*
X29815977Y-62890345D01*
X29815975Y-62890342D01*
X29669657Y-62744024D01*
X29583626Y-62686541D01*
X29497598Y-62629059D01*
X29306420Y-62549870D01*
X29306412Y-62549868D01*
X29103469Y-62509500D01*
X29103465Y-62509500D01*
X28896535Y-62509500D01*
X28896530Y-62509500D01*
X28693587Y-62549868D01*
X28693579Y-62549870D01*
X28502403Y-62629058D01*
X28330342Y-62744024D01*
X28184024Y-62890342D01*
X28069058Y-63062403D01*
X27989870Y-63253579D01*
X27989868Y-63253587D01*
X27949500Y-63456530D01*
X24900500Y-63456530D01*
X24900500Y-60916530D01*
X27949500Y-60916530D01*
X27949500Y-61123469D01*
X27989868Y-61326412D01*
X27989870Y-61326420D01*
X28069058Y-61517596D01*
X28184024Y-61689657D01*
X28330342Y-61835975D01*
X28330345Y-61835977D01*
X28502402Y-61950941D01*
X28693580Y-62030130D01*
X28896530Y-62070499D01*
X28896534Y-62070500D01*
X28896535Y-62070500D01*
X29103466Y-62070500D01*
X29103467Y-62070499D01*
X29306420Y-62030130D01*
X29497598Y-61950941D01*
X29669655Y-61835977D01*
X29815977Y-61689655D01*
X29930941Y-61517598D01*
X30010130Y-61326420D01*
X30050500Y-61123465D01*
X30050500Y-60916535D01*
X30010130Y-60713580D01*
X29930941Y-60522402D01*
X29917251Y-60501914D01*
X36949500Y-60501914D01*
X36949500Y-62241419D01*
X36961131Y-62299896D01*
X36961132Y-62299897D01*
X37005447Y-62366219D01*
X37071769Y-62410534D01*
X37071770Y-62410535D01*
X37130247Y-62422166D01*
X37130250Y-62422167D01*
X37130252Y-62422167D01*
X38869750Y-62422167D01*
X38869751Y-62422166D01*
X38884568Y-62419219D01*
X38928229Y-62410535D01*
X38928229Y-62410534D01*
X38928231Y-62410534D01*
X38994552Y-62366219D01*
X39038867Y-62299898D01*
X39038867Y-62299896D01*
X39038868Y-62299896D01*
X39050499Y-62241419D01*
X39050500Y-62241417D01*
X39050500Y-60501916D01*
X39050499Y-60501914D01*
X39038868Y-60443437D01*
X39038867Y-60443436D01*
X38994552Y-60377114D01*
X38928230Y-60332799D01*
X38928229Y-60332798D01*
X38869752Y-60321167D01*
X38869748Y-60321167D01*
X37130252Y-60321167D01*
X37130247Y-60321167D01*
X37071770Y-60332798D01*
X37071769Y-60332799D01*
X37005447Y-60377114D01*
X36961132Y-60443436D01*
X36961131Y-60443437D01*
X36949500Y-60501914D01*
X29917251Y-60501914D01*
X29815977Y-60350345D01*
X29815975Y-60350342D01*
X29669657Y-60204024D01*
X29583626Y-60146541D01*
X29497598Y-60089059D01*
X29306420Y-60009870D01*
X29306412Y-60009868D01*
X29103469Y-59969500D01*
X29103465Y-59969500D01*
X28896535Y-59969500D01*
X28896530Y-59969500D01*
X28693587Y-60009868D01*
X28693579Y-60009870D01*
X28502403Y-60089058D01*
X28330342Y-60204024D01*
X28184024Y-60350342D01*
X28069058Y-60522403D01*
X27989870Y-60713579D01*
X27989868Y-60713587D01*
X27949500Y-60916530D01*
X24900500Y-60916530D01*
X24900500Y-58376530D01*
X27949500Y-58376530D01*
X27949500Y-58583469D01*
X27989868Y-58786412D01*
X27989870Y-58786420D01*
X28069058Y-58977596D01*
X28184024Y-59149657D01*
X28330342Y-59295975D01*
X28330345Y-59295977D01*
X28502402Y-59410941D01*
X28693580Y-59490130D01*
X28896530Y-59530499D01*
X28896534Y-59530500D01*
X28896535Y-59530500D01*
X29103466Y-59530500D01*
X29103467Y-59530499D01*
X29306420Y-59490130D01*
X29497598Y-59410941D01*
X29669655Y-59295977D01*
X29815977Y-59149655D01*
X29930941Y-58977598D01*
X30010130Y-58786420D01*
X30050500Y-58583465D01*
X30050500Y-58376535D01*
X30010130Y-58173580D01*
X29930941Y-57982402D01*
X29815977Y-57810345D01*
X29815975Y-57810342D01*
X29669657Y-57664024D01*
X29583626Y-57606541D01*
X29497598Y-57549059D01*
X29306420Y-57469870D01*
X29306412Y-57469868D01*
X29103469Y-57429500D01*
X29103465Y-57429500D01*
X28896535Y-57429500D01*
X28896530Y-57429500D01*
X28693587Y-57469868D01*
X28693579Y-57469870D01*
X28502403Y-57549058D01*
X28330342Y-57664024D01*
X28184024Y-57810342D01*
X28069058Y-57982403D01*
X27989870Y-58173579D01*
X27989868Y-58173587D01*
X27949500Y-58376530D01*
X24900500Y-58376530D01*
X24900500Y-55836530D01*
X27949500Y-55836530D01*
X27949500Y-56043469D01*
X27989868Y-56246412D01*
X27989870Y-56246420D01*
X28069058Y-56437596D01*
X28184024Y-56609657D01*
X28330342Y-56755975D01*
X28330345Y-56755977D01*
X28502402Y-56870941D01*
X28693580Y-56950130D01*
X28896530Y-56990499D01*
X28896534Y-56990500D01*
X28896535Y-56990500D01*
X29103466Y-56990500D01*
X29103467Y-56990499D01*
X29306420Y-56950130D01*
X29497598Y-56870941D01*
X29669655Y-56755977D01*
X29815977Y-56609655D01*
X29832542Y-56584863D01*
X36949500Y-56584863D01*
X36949500Y-56791802D01*
X36989868Y-56994745D01*
X36989870Y-56994753D01*
X37069058Y-57185929D01*
X37184024Y-57357990D01*
X37330342Y-57504308D01*
X37330345Y-57504310D01*
X37502402Y-57619274D01*
X37693580Y-57698463D01*
X37896530Y-57738832D01*
X37896534Y-57738833D01*
X37896535Y-57738833D01*
X38103466Y-57738833D01*
X38103467Y-57738832D01*
X38306420Y-57698463D01*
X38497598Y-57619274D01*
X38669655Y-57504310D01*
X38815977Y-57357988D01*
X38930941Y-57185931D01*
X39010130Y-56994753D01*
X39050500Y-56791798D01*
X39050500Y-56584868D01*
X39010130Y-56381913D01*
X38930941Y-56190735D01*
X38815977Y-56018678D01*
X38815975Y-56018675D01*
X38669657Y-55872357D01*
X38583626Y-55814874D01*
X38497598Y-55757392D01*
X38306420Y-55678203D01*
X38306412Y-55678201D01*
X38103469Y-55637833D01*
X38103465Y-55637833D01*
X37896535Y-55637833D01*
X37896530Y-55637833D01*
X37693587Y-55678201D01*
X37693579Y-55678203D01*
X37502403Y-55757391D01*
X37330342Y-55872357D01*
X37184024Y-56018675D01*
X37069058Y-56190736D01*
X36989870Y-56381912D01*
X36989868Y-56381920D01*
X36949500Y-56584863D01*
X29832542Y-56584863D01*
X29930941Y-56437598D01*
X30010130Y-56246420D01*
X30050500Y-56043465D01*
X30050500Y-55836535D01*
X30010130Y-55633580D01*
X29930941Y-55442402D01*
X29815977Y-55270345D01*
X29815975Y-55270342D01*
X29669657Y-55124024D01*
X29583626Y-55066541D01*
X29497598Y-55009059D01*
X29306420Y-54929870D01*
X29306412Y-54929868D01*
X29103469Y-54889500D01*
X29103465Y-54889500D01*
X28896535Y-54889500D01*
X28896530Y-54889500D01*
X28693587Y-54929868D01*
X28693579Y-54929870D01*
X28502403Y-55009058D01*
X28330342Y-55124024D01*
X28184024Y-55270342D01*
X28069058Y-55442403D01*
X27989870Y-55633579D01*
X27989868Y-55633587D01*
X27949500Y-55836530D01*
X24900500Y-55836530D01*
X24900500Y-53296530D01*
X27949500Y-53296530D01*
X27949500Y-53503469D01*
X27989868Y-53706412D01*
X27989870Y-53706420D01*
X28069058Y-53897596D01*
X28184024Y-54069657D01*
X28330342Y-54215975D01*
X28330345Y-54215977D01*
X28502402Y-54330941D01*
X28693580Y-54410130D01*
X28896530Y-54450499D01*
X28896534Y-54450500D01*
X28896535Y-54450500D01*
X29103466Y-54450500D01*
X29103467Y-54450499D01*
X29306420Y-54410130D01*
X29497598Y-54330941D01*
X29669655Y-54215977D01*
X29815977Y-54069655D01*
X29930941Y-53897598D01*
X30010130Y-53706420D01*
X30050500Y-53503465D01*
X30050500Y-53296535D01*
X30010130Y-53093580D01*
X29930941Y-52902402D01*
X29815977Y-52730345D01*
X29815975Y-52730342D01*
X29669657Y-52584024D01*
X29583626Y-52526541D01*
X29497598Y-52469059D01*
X29306420Y-52389870D01*
X29306412Y-52389868D01*
X29103469Y-52349500D01*
X29103465Y-52349500D01*
X28896535Y-52349500D01*
X28896530Y-52349500D01*
X28693587Y-52389868D01*
X28693579Y-52389870D01*
X28502403Y-52469058D01*
X28330342Y-52584024D01*
X28184024Y-52730342D01*
X28069058Y-52902403D01*
X27989870Y-53093579D01*
X27989868Y-53093587D01*
X27949500Y-53296530D01*
X24900500Y-53296530D01*
X24900500Y-50756530D01*
X27949500Y-50756530D01*
X27949500Y-50963469D01*
X27989868Y-51166412D01*
X27989870Y-51166420D01*
X28069058Y-51357596D01*
X28184024Y-51529657D01*
X28330342Y-51675975D01*
X28330345Y-51675977D01*
X28502402Y-51790941D01*
X28693580Y-51870130D01*
X28896530Y-51910499D01*
X28896534Y-51910500D01*
X28896535Y-51910500D01*
X29103466Y-51910500D01*
X29103467Y-51910499D01*
X29306420Y-51870130D01*
X29497598Y-51790941D01*
X29669655Y-51675977D01*
X29815977Y-51529655D01*
X29834398Y-51502086D01*
X29883685Y-51428323D01*
X29898335Y-51406396D01*
X29930941Y-51357598D01*
X30010130Y-51166420D01*
X30050500Y-50963465D01*
X30050500Y-50756535D01*
X30010130Y-50553580D01*
X29930941Y-50362402D01*
X29815977Y-50190345D01*
X29815975Y-50190342D01*
X29669657Y-50044024D01*
X29583626Y-49986541D01*
X29497598Y-49929059D01*
X29306420Y-49849870D01*
X29306412Y-49849868D01*
X29103469Y-49809500D01*
X29103465Y-49809500D01*
X28896535Y-49809500D01*
X28896530Y-49809500D01*
X28693587Y-49849868D01*
X28693579Y-49849870D01*
X28502403Y-49929058D01*
X28330342Y-50044024D01*
X28184024Y-50190342D01*
X28069058Y-50362403D01*
X27989870Y-50553579D01*
X27989868Y-50553587D01*
X27949500Y-50756530D01*
X24900500Y-50756530D01*
X24900500Y-48216530D01*
X27949500Y-48216530D01*
X27949500Y-48423469D01*
X27989868Y-48626412D01*
X27989870Y-48626420D01*
X28069058Y-48817596D01*
X28184024Y-48989657D01*
X28330342Y-49135975D01*
X28330345Y-49135977D01*
X28502402Y-49250941D01*
X28693580Y-49330130D01*
X28896530Y-49370499D01*
X28896534Y-49370500D01*
X28896535Y-49370500D01*
X29103466Y-49370500D01*
X29103467Y-49370499D01*
X29306420Y-49330130D01*
X29497598Y-49250941D01*
X29669655Y-49135977D01*
X29815977Y-48989655D01*
X29930941Y-48817598D01*
X30010130Y-48626420D01*
X30050500Y-48423465D01*
X30050500Y-48216535D01*
X30010130Y-48013580D01*
X29930941Y-47822402D01*
X29815977Y-47650345D01*
X29815975Y-47650342D01*
X29669657Y-47504024D01*
X29583626Y-47446541D01*
X29497598Y-47389059D01*
X29306420Y-47309870D01*
X29306412Y-47309868D01*
X29103469Y-47269500D01*
X29103465Y-47269500D01*
X28896535Y-47269500D01*
X28896530Y-47269500D01*
X28693587Y-47309868D01*
X28693579Y-47309870D01*
X28502403Y-47389058D01*
X28330342Y-47504024D01*
X28184024Y-47650342D01*
X28069058Y-47822403D01*
X27989870Y-48013579D01*
X27989868Y-48013587D01*
X27949500Y-48216530D01*
X24900500Y-48216530D01*
X24900500Y-45676530D01*
X27949500Y-45676530D01*
X27949500Y-45883469D01*
X27989868Y-46086412D01*
X27989870Y-46086420D01*
X28069058Y-46277596D01*
X28184024Y-46449657D01*
X28330342Y-46595975D01*
X28330345Y-46595977D01*
X28502402Y-46710941D01*
X28693580Y-46790130D01*
X28896530Y-46830499D01*
X28896534Y-46830500D01*
X28896535Y-46830500D01*
X29103466Y-46830500D01*
X29103467Y-46830499D01*
X29306420Y-46790130D01*
X29497598Y-46710941D01*
X29669655Y-46595977D01*
X29815977Y-46449655D01*
X29832542Y-46424863D01*
X36949500Y-46424863D01*
X36949500Y-46631802D01*
X36989868Y-46834745D01*
X36989870Y-46834753D01*
X37069058Y-47025929D01*
X37184024Y-47197990D01*
X37330342Y-47344308D01*
X37330345Y-47344310D01*
X37502402Y-47459274D01*
X37693580Y-47538463D01*
X37896530Y-47578832D01*
X37896534Y-47578833D01*
X37896535Y-47578833D01*
X38103466Y-47578833D01*
X38103467Y-47578832D01*
X38306420Y-47538463D01*
X38497598Y-47459274D01*
X38669655Y-47344310D01*
X38815977Y-47197988D01*
X38930941Y-47025931D01*
X39010130Y-46834753D01*
X39050500Y-46631798D01*
X39050500Y-46424868D01*
X39010130Y-46221913D01*
X38930941Y-46030735D01*
X38815977Y-45858678D01*
X38815975Y-45858675D01*
X38669657Y-45712357D01*
X38583626Y-45654874D01*
X38497598Y-45597392D01*
X38306420Y-45518203D01*
X38306412Y-45518201D01*
X38103469Y-45477833D01*
X38103465Y-45477833D01*
X37896535Y-45477833D01*
X37896530Y-45477833D01*
X37693587Y-45518201D01*
X37693579Y-45518203D01*
X37502403Y-45597391D01*
X37330342Y-45712357D01*
X37184024Y-45858675D01*
X37069058Y-46030736D01*
X36989870Y-46221912D01*
X36989868Y-46221920D01*
X36949500Y-46424863D01*
X29832542Y-46424863D01*
X29930941Y-46277598D01*
X30010130Y-46086420D01*
X30050500Y-45883465D01*
X30050500Y-45676535D01*
X30010130Y-45473580D01*
X29930941Y-45282402D01*
X29815977Y-45110345D01*
X29815975Y-45110342D01*
X29669657Y-44964024D01*
X29511100Y-44858081D01*
X29497598Y-44849059D01*
X29306420Y-44769870D01*
X29306412Y-44769868D01*
X29103469Y-44729500D01*
X29103465Y-44729500D01*
X28896535Y-44729500D01*
X28896530Y-44729500D01*
X28693587Y-44769868D01*
X28693579Y-44769870D01*
X28502403Y-44849058D01*
X28330342Y-44964024D01*
X28184024Y-45110342D01*
X28069058Y-45282403D01*
X27989870Y-45473579D01*
X27989868Y-45473587D01*
X27949500Y-45676530D01*
X24900500Y-45676530D01*
X24900500Y-43136530D01*
X27949500Y-43136530D01*
X27949500Y-43343469D01*
X27989868Y-43546412D01*
X27989870Y-43546420D01*
X28069058Y-43737596D01*
X28184024Y-43909657D01*
X28330342Y-44055975D01*
X28330345Y-44055977D01*
X28502402Y-44170941D01*
X28693580Y-44250130D01*
X28896530Y-44290499D01*
X28896534Y-44290500D01*
X28896535Y-44290500D01*
X29103466Y-44290500D01*
X29103467Y-44290499D01*
X29306420Y-44250130D01*
X29497598Y-44170941D01*
X29669655Y-44055977D01*
X29815977Y-43909655D01*
X29930941Y-43737598D01*
X30010130Y-43546420D01*
X30050500Y-43343465D01*
X30050500Y-43136535D01*
X30046929Y-43118580D01*
X36949500Y-43118580D01*
X36949500Y-44858085D01*
X36961131Y-44916562D01*
X36961132Y-44916563D01*
X37005447Y-44982885D01*
X37071769Y-45027200D01*
X37071770Y-45027201D01*
X37130247Y-45038832D01*
X37130250Y-45038833D01*
X37130252Y-45038833D01*
X38869750Y-45038833D01*
X38869751Y-45038832D01*
X38884568Y-45035885D01*
X38928229Y-45027201D01*
X38928229Y-45027200D01*
X38928231Y-45027200D01*
X38994552Y-44982885D01*
X39038867Y-44916564D01*
X39038867Y-44916562D01*
X39038868Y-44916562D01*
X39050499Y-44858085D01*
X39050500Y-44858083D01*
X39050500Y-43118582D01*
X39050499Y-43118580D01*
X39038868Y-43060103D01*
X39038867Y-43060102D01*
X38994552Y-42993780D01*
X38928230Y-42949465D01*
X38928229Y-42949464D01*
X38869752Y-42937833D01*
X38869748Y-42937833D01*
X37130252Y-42937833D01*
X37130247Y-42937833D01*
X37071770Y-42949464D01*
X37071769Y-42949465D01*
X37005447Y-42993780D01*
X36961132Y-43060102D01*
X36961131Y-43060103D01*
X36949500Y-43118580D01*
X30046929Y-43118580D01*
X30010130Y-42933580D01*
X29930941Y-42742402D01*
X29815977Y-42570345D01*
X29815975Y-42570342D01*
X29669657Y-42424024D01*
X29583626Y-42366541D01*
X29497598Y-42309059D01*
X29306420Y-42229870D01*
X29306412Y-42229868D01*
X29103469Y-42189500D01*
X29103465Y-42189500D01*
X28896535Y-42189500D01*
X28896530Y-42189500D01*
X28693587Y-42229868D01*
X28693579Y-42229870D01*
X28502403Y-42309058D01*
X28330342Y-42424024D01*
X28184024Y-42570342D01*
X28069058Y-42742403D01*
X27989870Y-42933579D01*
X27989868Y-42933587D01*
X27949500Y-43136530D01*
X24900500Y-43136530D01*
X24900500Y-40596530D01*
X27949500Y-40596530D01*
X27949500Y-40803469D01*
X27989868Y-41006412D01*
X27989870Y-41006420D01*
X28069058Y-41197596D01*
X28184024Y-41369657D01*
X28330342Y-41515975D01*
X28330345Y-41515977D01*
X28502402Y-41630941D01*
X28693580Y-41710130D01*
X28896530Y-41750499D01*
X28896534Y-41750500D01*
X28896535Y-41750500D01*
X29103466Y-41750500D01*
X29103467Y-41750499D01*
X29306420Y-41710130D01*
X29497598Y-41630941D01*
X29669655Y-41515977D01*
X29815977Y-41369655D01*
X29930941Y-41197598D01*
X30010130Y-41006420D01*
X30050500Y-40803465D01*
X30050500Y-40596535D01*
X30010130Y-40393580D01*
X29930941Y-40202402D01*
X29815977Y-40030345D01*
X29815975Y-40030342D01*
X29669657Y-39884024D01*
X29583626Y-39826541D01*
X29497598Y-39769059D01*
X29306420Y-39689870D01*
X29306412Y-39689868D01*
X29103469Y-39649500D01*
X29103465Y-39649500D01*
X28896535Y-39649500D01*
X28896530Y-39649500D01*
X28693587Y-39689868D01*
X28693579Y-39689870D01*
X28502403Y-39769058D01*
X28330342Y-39884024D01*
X28184024Y-40030342D01*
X28069058Y-40202403D01*
X27989870Y-40393579D01*
X27989868Y-40393587D01*
X27949500Y-40596530D01*
X24900500Y-40596530D01*
X24900500Y-39296530D01*
X36949500Y-39296530D01*
X36949500Y-39503469D01*
X36989868Y-39706412D01*
X36989870Y-39706420D01*
X37069058Y-39897596D01*
X37184024Y-40069657D01*
X37330342Y-40215975D01*
X37330345Y-40215977D01*
X37502402Y-40330941D01*
X37693580Y-40410130D01*
X37896530Y-40450499D01*
X37896534Y-40450500D01*
X37896535Y-40450500D01*
X38103466Y-40450500D01*
X38103467Y-40450499D01*
X38306420Y-40410130D01*
X38497598Y-40330941D01*
X38669655Y-40215977D01*
X38815977Y-40069655D01*
X38930941Y-39897598D01*
X39010130Y-39706420D01*
X39050500Y-39503465D01*
X39050500Y-39296535D01*
X39010130Y-39093580D01*
X38930941Y-38902402D01*
X38815977Y-38730345D01*
X38815975Y-38730342D01*
X38669657Y-38584024D01*
X38583626Y-38526541D01*
X38497598Y-38469059D01*
X38306420Y-38389870D01*
X38306412Y-38389868D01*
X38103469Y-38349500D01*
X38103465Y-38349500D01*
X37896535Y-38349500D01*
X37896530Y-38349500D01*
X37693587Y-38389868D01*
X37693579Y-38389870D01*
X37502403Y-38469058D01*
X37330342Y-38584024D01*
X37184024Y-38730342D01*
X37069058Y-38902403D01*
X36989870Y-39093579D01*
X36989868Y-39093587D01*
X36949500Y-39296530D01*
X24900500Y-39296530D01*
X24900500Y-38056530D01*
X27949500Y-38056530D01*
X27949500Y-38263469D01*
X27989868Y-38466412D01*
X27989870Y-38466420D01*
X28069058Y-38657596D01*
X28184024Y-38829657D01*
X28330342Y-38975975D01*
X28330345Y-38975977D01*
X28502402Y-39090941D01*
X28693580Y-39170130D01*
X28896530Y-39210499D01*
X28896534Y-39210500D01*
X28896535Y-39210500D01*
X29103466Y-39210500D01*
X29103467Y-39210499D01*
X29306420Y-39170130D01*
X29497598Y-39090941D01*
X29669655Y-38975977D01*
X29815977Y-38829655D01*
X29930941Y-38657598D01*
X30010130Y-38466420D01*
X30050500Y-38263465D01*
X30050500Y-38056535D01*
X30010130Y-37853580D01*
X29930941Y-37662402D01*
X29815977Y-37490345D01*
X29815975Y-37490342D01*
X29669657Y-37344024D01*
X29583626Y-37286541D01*
X29497598Y-37229059D01*
X29306420Y-37149870D01*
X29306412Y-37149868D01*
X29103469Y-37109500D01*
X29103465Y-37109500D01*
X28896535Y-37109500D01*
X28896530Y-37109500D01*
X28693587Y-37149868D01*
X28693579Y-37149870D01*
X28502403Y-37229058D01*
X28330342Y-37344024D01*
X28184024Y-37490342D01*
X28069058Y-37662403D01*
X27989870Y-37853579D01*
X27989868Y-37853587D01*
X27949500Y-38056530D01*
X24900500Y-38056530D01*
X24900500Y-35516530D01*
X27949500Y-35516530D01*
X27949500Y-35723469D01*
X27989868Y-35926412D01*
X27989870Y-35926420D01*
X28069058Y-36117596D01*
X28184024Y-36289657D01*
X28330342Y-36435975D01*
X28330345Y-36435977D01*
X28502402Y-36550941D01*
X28693580Y-36630130D01*
X28896530Y-36670499D01*
X28896534Y-36670500D01*
X28896535Y-36670500D01*
X29103466Y-36670500D01*
X29103467Y-36670499D01*
X29306420Y-36630130D01*
X29497598Y-36550941D01*
X29669655Y-36435977D01*
X29815977Y-36289655D01*
X29930941Y-36117598D01*
X30010130Y-35926420D01*
X30050500Y-35723465D01*
X30050500Y-35516535D01*
X30010130Y-35313580D01*
X29930941Y-35122402D01*
X29815977Y-34950345D01*
X29815975Y-34950342D01*
X29669657Y-34804024D01*
X29544053Y-34720099D01*
X29497598Y-34689059D01*
X29306420Y-34609870D01*
X29306412Y-34609868D01*
X29103469Y-34569500D01*
X29103465Y-34569500D01*
X28896535Y-34569500D01*
X28896530Y-34569500D01*
X28693587Y-34609868D01*
X28693579Y-34609870D01*
X28502403Y-34689058D01*
X28330342Y-34804024D01*
X28184024Y-34950342D01*
X28069058Y-35122403D01*
X27989870Y-35313579D01*
X27989868Y-35313587D01*
X27949500Y-35516530D01*
X24900500Y-35516530D01*
X24900500Y-34213753D01*
X36650000Y-34213753D01*
X36650000Y-34426246D01*
X36683242Y-34636127D01*
X36683242Y-34636130D01*
X36748904Y-34838217D01*
X36845375Y-35027550D01*
X36884728Y-35081716D01*
X37517037Y-34449408D01*
X37534075Y-34512993D01*
X37599901Y-34627007D01*
X37692993Y-34720099D01*
X37807007Y-34785925D01*
X37870590Y-34802962D01*
X37238282Y-35435269D01*
X37238282Y-35435270D01*
X37292449Y-35474624D01*
X37481782Y-35571095D01*
X37657973Y-35628343D01*
X37715648Y-35667780D01*
X37742847Y-35732139D01*
X37730932Y-35800985D01*
X37683688Y-35852461D01*
X37667108Y-35860835D01*
X37502403Y-35929057D01*
X37330342Y-36044024D01*
X37184024Y-36190342D01*
X37069058Y-36362403D01*
X36989870Y-36553579D01*
X36989868Y-36553587D01*
X36949500Y-36756530D01*
X36949500Y-36963469D01*
X36989868Y-37166412D01*
X36989870Y-37166420D01*
X37069058Y-37357596D01*
X37184024Y-37529657D01*
X37330342Y-37675975D01*
X37330345Y-37675977D01*
X37502402Y-37790941D01*
X37693580Y-37870130D01*
X37896530Y-37910499D01*
X37896534Y-37910500D01*
X37896535Y-37910500D01*
X38103466Y-37910500D01*
X38103467Y-37910499D01*
X38306420Y-37870130D01*
X38497598Y-37790941D01*
X38669655Y-37675977D01*
X38815977Y-37529655D01*
X38930941Y-37357598D01*
X39010130Y-37166420D01*
X39050500Y-36963465D01*
X39050500Y-36756535D01*
X39010130Y-36553580D01*
X38930941Y-36362402D01*
X38815977Y-36190345D01*
X38815975Y-36190342D01*
X38669657Y-36044024D01*
X38583626Y-35986541D01*
X38497598Y-35929059D01*
X38497593Y-35929057D01*
X38435891Y-35903499D01*
X38332890Y-35860834D01*
X38278488Y-35816994D01*
X38256423Y-35750700D01*
X38273702Y-35683001D01*
X38324839Y-35635390D01*
X38342026Y-35628343D01*
X38518217Y-35571095D01*
X38707554Y-35474622D01*
X38761716Y-35435270D01*
X38761717Y-35435270D01*
X38129408Y-34802962D01*
X38192993Y-34785925D01*
X38307007Y-34720099D01*
X38400099Y-34627007D01*
X38465925Y-34512993D01*
X38482962Y-34449409D01*
X39115270Y-35081717D01*
X39115270Y-35081716D01*
X39154622Y-35027554D01*
X39251095Y-34838217D01*
X39316757Y-34636130D01*
X39316757Y-34636127D01*
X39350000Y-34426246D01*
X39350000Y-34213753D01*
X39316757Y-34003872D01*
X39316757Y-34003869D01*
X39251095Y-33801782D01*
X39154624Y-33612449D01*
X39115270Y-33558282D01*
X39115269Y-33558282D01*
X38482962Y-34190590D01*
X38465925Y-34127007D01*
X38400099Y-34012993D01*
X38307007Y-33919901D01*
X38192993Y-33854075D01*
X38129409Y-33837037D01*
X38761716Y-33204728D01*
X38707550Y-33165375D01*
X38518216Y-33068904D01*
X38342026Y-33011656D01*
X38284350Y-32972218D01*
X38257152Y-32907860D01*
X38269067Y-32839013D01*
X38316311Y-32787538D01*
X38332882Y-32779168D01*
X38497598Y-32710941D01*
X38669655Y-32595977D01*
X38815977Y-32449655D01*
X38930941Y-32277598D01*
X38978804Y-32162046D01*
X39022645Y-32107644D01*
X39088939Y-32085579D01*
X39093365Y-32085500D01*
X39667745Y-32085500D01*
X39734784Y-32105185D01*
X39755426Y-32121819D01*
X41063181Y-33429574D01*
X41096666Y-33490897D01*
X41099500Y-33517255D01*
X41099500Y-48543833D01*
X41079815Y-48610872D01*
X41027011Y-48656627D01*
X40975500Y-48667833D01*
X39054015Y-48667833D01*
X38986976Y-48648148D01*
X38941221Y-48595344D01*
X38939454Y-48591287D01*
X38930941Y-48570735D01*
X38930938Y-48570730D01*
X38930937Y-48570728D01*
X38815977Y-48398677D01*
X38669657Y-48252357D01*
X38583626Y-48194874D01*
X38497598Y-48137392D01*
X38306420Y-48058203D01*
X38306412Y-48058201D01*
X38103469Y-48017833D01*
X38103465Y-48017833D01*
X37896535Y-48017833D01*
X37896530Y-48017833D01*
X37693587Y-48058201D01*
X37693579Y-48058203D01*
X37502403Y-48137391D01*
X37330342Y-48252357D01*
X37184024Y-48398675D01*
X37069058Y-48570736D01*
X36989870Y-48761912D01*
X36989868Y-48761920D01*
X36949500Y-48964863D01*
X36949500Y-49171802D01*
X36989868Y-49374745D01*
X36989870Y-49374753D01*
X37069058Y-49565929D01*
X37184024Y-49737990D01*
X37330342Y-49884308D01*
X37502405Y-49999276D01*
X37605043Y-50041789D01*
X37667108Y-50067497D01*
X37721511Y-50111338D01*
X37743576Y-50177632D01*
X37726297Y-50245331D01*
X37675160Y-50292942D01*
X37657974Y-50299989D01*
X37481781Y-50357238D01*
X37292439Y-50453713D01*
X37238282Y-50493060D01*
X37238282Y-50493061D01*
X37870591Y-51125370D01*
X37807007Y-51142408D01*
X37692993Y-51208234D01*
X37599901Y-51301326D01*
X37534075Y-51415340D01*
X37517037Y-51478924D01*
X36884728Y-50846615D01*
X36884727Y-50846615D01*
X36845380Y-50900772D01*
X36748904Y-51090115D01*
X36683242Y-51292202D01*
X36683242Y-51292205D01*
X36650000Y-51502086D01*
X36650000Y-51714579D01*
X36683242Y-51924460D01*
X36683242Y-51924463D01*
X36748904Y-52126550D01*
X36845375Y-52315883D01*
X36884728Y-52370049D01*
X37517037Y-51737741D01*
X37534075Y-51801326D01*
X37599901Y-51915340D01*
X37692993Y-52008432D01*
X37807007Y-52074258D01*
X37870590Y-52091295D01*
X37238282Y-52723602D01*
X37238282Y-52723603D01*
X37292449Y-52762957D01*
X37481782Y-52859428D01*
X37657973Y-52916676D01*
X37715648Y-52956113D01*
X37742847Y-53020472D01*
X37730932Y-53089318D01*
X37683688Y-53140794D01*
X37667108Y-53149168D01*
X37502403Y-53217390D01*
X37330342Y-53332357D01*
X37184024Y-53478675D01*
X37069058Y-53650736D01*
X36989870Y-53841912D01*
X36989868Y-53841920D01*
X36949500Y-54044863D01*
X36949500Y-54251802D01*
X36989868Y-54454745D01*
X36989870Y-54454753D01*
X37069058Y-54645929D01*
X37184024Y-54817990D01*
X37330342Y-54964308D01*
X37330345Y-54964310D01*
X37502402Y-55079274D01*
X37693580Y-55158463D01*
X37896530Y-55198832D01*
X37896534Y-55198833D01*
X37896535Y-55198833D01*
X38103466Y-55198833D01*
X38103467Y-55198832D01*
X38306420Y-55158463D01*
X38497598Y-55079274D01*
X38669655Y-54964310D01*
X38815977Y-54817988D01*
X38930941Y-54645931D01*
X39010130Y-54454753D01*
X39050500Y-54251798D01*
X39050500Y-54044868D01*
X39010130Y-53841913D01*
X38930941Y-53650735D01*
X38815977Y-53478678D01*
X38815975Y-53478675D01*
X38669657Y-53332357D01*
X38583626Y-53274874D01*
X38497598Y-53217392D01*
X38497593Y-53217390D01*
X38435891Y-53191832D01*
X38332890Y-53149167D01*
X38278488Y-53105327D01*
X38256423Y-53039033D01*
X38273702Y-52971334D01*
X38324839Y-52923723D01*
X38342026Y-52916676D01*
X38518217Y-52859428D01*
X38707554Y-52762955D01*
X38761716Y-52723603D01*
X38761717Y-52723603D01*
X38129408Y-52091295D01*
X38192993Y-52074258D01*
X38307007Y-52008432D01*
X38400099Y-51915340D01*
X38465925Y-51801326D01*
X38482962Y-51737742D01*
X39115270Y-52370050D01*
X39115270Y-52370049D01*
X39154622Y-52315887D01*
X39251095Y-52126550D01*
X39316757Y-51924463D01*
X39316757Y-51924460D01*
X39350000Y-51714579D01*
X39350000Y-51502086D01*
X39316757Y-51292205D01*
X39316757Y-51292202D01*
X39251095Y-51090115D01*
X39154624Y-50900782D01*
X39115270Y-50846615D01*
X39115269Y-50846615D01*
X38482962Y-51478923D01*
X38465925Y-51415340D01*
X38400099Y-51301326D01*
X38307007Y-51208234D01*
X38192993Y-51142408D01*
X38129409Y-51125370D01*
X38761716Y-50493061D01*
X38707550Y-50453708D01*
X38518216Y-50357237D01*
X38342026Y-50299989D01*
X38284350Y-50260551D01*
X38257152Y-50196193D01*
X38269067Y-50127346D01*
X38316311Y-50075871D01*
X38332882Y-50067501D01*
X38497598Y-49999274D01*
X38669655Y-49884310D01*
X38815977Y-49737988D01*
X38930941Y-49565931D01*
X38939454Y-49545378D01*
X38983296Y-49490976D01*
X39049590Y-49468912D01*
X39054015Y-49468833D01*
X40975500Y-49468833D01*
X41042539Y-49488518D01*
X41088294Y-49541322D01*
X41099500Y-49592833D01*
X41099500Y-65927167D01*
X41079815Y-65994206D01*
X41027011Y-66039961D01*
X40975500Y-66051167D01*
X39054015Y-66051167D01*
X38986976Y-66031482D01*
X38941221Y-65978678D01*
X38939454Y-65974621D01*
X38930941Y-65954069D01*
X38930938Y-65954064D01*
X38930937Y-65954062D01*
X38815977Y-65782011D01*
X38669657Y-65635691D01*
X38583626Y-65578208D01*
X38497598Y-65520726D01*
X38306420Y-65441537D01*
X38306412Y-65441535D01*
X38103469Y-65401167D01*
X38103465Y-65401167D01*
X37896535Y-65401167D01*
X37896530Y-65401167D01*
X37693587Y-65441535D01*
X37693579Y-65441537D01*
X37502403Y-65520725D01*
X37330342Y-65635691D01*
X37184024Y-65782009D01*
X37069058Y-65954070D01*
X36989870Y-66145246D01*
X36989868Y-66145254D01*
X36949500Y-66348197D01*
X36949500Y-66555136D01*
X36989868Y-66758079D01*
X36989870Y-66758087D01*
X37069058Y-66949263D01*
X37184024Y-67121324D01*
X37330342Y-67267642D01*
X37502405Y-67382610D01*
X37605043Y-67425123D01*
X37667108Y-67450831D01*
X37721511Y-67494672D01*
X37743576Y-67560966D01*
X37726297Y-67628665D01*
X37675160Y-67676276D01*
X37657974Y-67683323D01*
X37481781Y-67740572D01*
X37292439Y-67837047D01*
X37238282Y-67876394D01*
X37238282Y-67876395D01*
X37870591Y-68508704D01*
X37807007Y-68525742D01*
X37692993Y-68591568D01*
X37599901Y-68684660D01*
X37534075Y-68798674D01*
X37517037Y-68862258D01*
X36884728Y-68229949D01*
X36884727Y-68229949D01*
X36845380Y-68284106D01*
X36748904Y-68473449D01*
X36683242Y-68675536D01*
X36683242Y-68675539D01*
X36650000Y-68885420D01*
X36650000Y-69097913D01*
X36683242Y-69307794D01*
X36683242Y-69307797D01*
X36748904Y-69509884D01*
X36845375Y-69699217D01*
X36884728Y-69753383D01*
X37517037Y-69121075D01*
X37534075Y-69184660D01*
X37599901Y-69298674D01*
X37692993Y-69391766D01*
X37807007Y-69457592D01*
X37870590Y-69474629D01*
X37238282Y-70106936D01*
X37238282Y-70106937D01*
X37292449Y-70146291D01*
X37481782Y-70242762D01*
X37657973Y-70300010D01*
X37715648Y-70339447D01*
X37742847Y-70403806D01*
X37730932Y-70472652D01*
X37683688Y-70524128D01*
X37667108Y-70532502D01*
X37502403Y-70600724D01*
X37330342Y-70715691D01*
X37184024Y-70862009D01*
X37069058Y-71034070D01*
X36989870Y-71225246D01*
X36989868Y-71225254D01*
X36949500Y-71428197D01*
X36949500Y-71635136D01*
X36989868Y-71838079D01*
X36989870Y-71838087D01*
X37069058Y-72029263D01*
X37184024Y-72201324D01*
X37330342Y-72347642D01*
X37330345Y-72347644D01*
X37502402Y-72462608D01*
X37693580Y-72541797D01*
X37896530Y-72582166D01*
X37896534Y-72582167D01*
X37896535Y-72582167D01*
X38103466Y-72582167D01*
X38103467Y-72582166D01*
X38306420Y-72541797D01*
X38497598Y-72462608D01*
X38669655Y-72347644D01*
X38815977Y-72201322D01*
X38930941Y-72029265D01*
X39010130Y-71838087D01*
X39050500Y-71635132D01*
X39050500Y-71428202D01*
X39010130Y-71225247D01*
X38930941Y-71034069D01*
X38815977Y-70862012D01*
X38815975Y-70862009D01*
X38669657Y-70715691D01*
X38583626Y-70658208D01*
X38497598Y-70600726D01*
X38497593Y-70600724D01*
X38435891Y-70575166D01*
X38332890Y-70532501D01*
X38278488Y-70488661D01*
X38256423Y-70422367D01*
X38273702Y-70354668D01*
X38324839Y-70307057D01*
X38342026Y-70300010D01*
X38518217Y-70242762D01*
X38707554Y-70146289D01*
X38761716Y-70106937D01*
X38761717Y-70106937D01*
X38129408Y-69474629D01*
X38192993Y-69457592D01*
X38307007Y-69391766D01*
X38400099Y-69298674D01*
X38465925Y-69184660D01*
X38482962Y-69121076D01*
X39115270Y-69753384D01*
X39115270Y-69753383D01*
X39154622Y-69699221D01*
X39251095Y-69509884D01*
X39316757Y-69307797D01*
X39316757Y-69307794D01*
X39350000Y-69097913D01*
X39350000Y-68885420D01*
X39316757Y-68675539D01*
X39316757Y-68675536D01*
X39251095Y-68473449D01*
X39154624Y-68284116D01*
X39115270Y-68229949D01*
X39115269Y-68229949D01*
X38482962Y-68862257D01*
X38465925Y-68798674D01*
X38400099Y-68684660D01*
X38307007Y-68591568D01*
X38192993Y-68525742D01*
X38129409Y-68508704D01*
X38761716Y-67876395D01*
X38707550Y-67837042D01*
X38518216Y-67740571D01*
X38342026Y-67683323D01*
X38284350Y-67643885D01*
X38257152Y-67579527D01*
X38269067Y-67510680D01*
X38316311Y-67459205D01*
X38332882Y-67450835D01*
X38497598Y-67382608D01*
X38669655Y-67267644D01*
X38815977Y-67121322D01*
X38930941Y-66949265D01*
X38939454Y-66928712D01*
X38983296Y-66874310D01*
X39049590Y-66852246D01*
X39054015Y-66852167D01*
X40975500Y-66852167D01*
X41042539Y-66871852D01*
X41088294Y-66924656D01*
X41099500Y-66976167D01*
X41099500Y-83310500D01*
X41079815Y-83377539D01*
X41027011Y-83423294D01*
X40975500Y-83434500D01*
X39054015Y-83434500D01*
X38986976Y-83414815D01*
X38941221Y-83362011D01*
X38939454Y-83357954D01*
X38930941Y-83337402D01*
X38930938Y-83337397D01*
X38930937Y-83337395D01*
X38815977Y-83165344D01*
X38669657Y-83019024D01*
X38583626Y-82961541D01*
X38497598Y-82904059D01*
X38306420Y-82824870D01*
X38306412Y-82824868D01*
X38103469Y-82784500D01*
X38103465Y-82784500D01*
X37896535Y-82784500D01*
X37896530Y-82784500D01*
X37693587Y-82824868D01*
X37693579Y-82824870D01*
X37502403Y-82904058D01*
X37330342Y-83019024D01*
X37184024Y-83165342D01*
X37069058Y-83337403D01*
X36989870Y-83528579D01*
X36989868Y-83528587D01*
X36949500Y-83731530D01*
X36949500Y-83938469D01*
X36989868Y-84141412D01*
X36989870Y-84141420D01*
X37069058Y-84332596D01*
X37184024Y-84504657D01*
X37330342Y-84650975D01*
X37502405Y-84765943D01*
X37605043Y-84808456D01*
X37667108Y-84834164D01*
X37721511Y-84878005D01*
X37743576Y-84944299D01*
X37726297Y-85011998D01*
X37675160Y-85059609D01*
X37657974Y-85066656D01*
X37481781Y-85123905D01*
X37292439Y-85220380D01*
X37238282Y-85259727D01*
X37238282Y-85259728D01*
X37870591Y-85892037D01*
X37807007Y-85909075D01*
X37692993Y-85974901D01*
X37599901Y-86067993D01*
X37534075Y-86182007D01*
X37517037Y-86245591D01*
X36884728Y-85613282D01*
X36884727Y-85613282D01*
X36845380Y-85667439D01*
X36748904Y-85856782D01*
X36683242Y-86058869D01*
X36683242Y-86058872D01*
X36650000Y-86268753D01*
X36650000Y-86481246D01*
X36683242Y-86691127D01*
X36683242Y-86691130D01*
X36748904Y-86893217D01*
X36845375Y-87082550D01*
X36884728Y-87136716D01*
X37517037Y-86504408D01*
X37534075Y-86567993D01*
X37599901Y-86682007D01*
X37692993Y-86775099D01*
X37807007Y-86840925D01*
X37870590Y-86857962D01*
X37238282Y-87490269D01*
X37238282Y-87490270D01*
X37292449Y-87529624D01*
X37481782Y-87626095D01*
X37657973Y-87683343D01*
X37715648Y-87722780D01*
X37742847Y-87787139D01*
X37730932Y-87855985D01*
X37683688Y-87907461D01*
X37667108Y-87915835D01*
X37502403Y-87984057D01*
X37330342Y-88099024D01*
X37184024Y-88245342D01*
X37069058Y-88417403D01*
X36989870Y-88608579D01*
X36989868Y-88608587D01*
X36949500Y-88811530D01*
X36949500Y-89018469D01*
X36989868Y-89221412D01*
X36989870Y-89221420D01*
X37069058Y-89412596D01*
X37184024Y-89584657D01*
X37330342Y-89730975D01*
X37330345Y-89730977D01*
X37502402Y-89845941D01*
X37693580Y-89925130D01*
X37885425Y-89963290D01*
X37896530Y-89965499D01*
X37896534Y-89965500D01*
X37896535Y-89965500D01*
X38103466Y-89965500D01*
X38103467Y-89965499D01*
X38306420Y-89925130D01*
X38497598Y-89845941D01*
X38669655Y-89730977D01*
X38815977Y-89584655D01*
X38930941Y-89412598D01*
X39010130Y-89221420D01*
X39050500Y-89018465D01*
X39050500Y-88811535D01*
X39010130Y-88608580D01*
X38930941Y-88417402D01*
X38815977Y-88245345D01*
X38815975Y-88245342D01*
X38669657Y-88099024D01*
X38543849Y-88014963D01*
X38497598Y-87984059D01*
X38497593Y-87984057D01*
X38435891Y-87958499D01*
X38332890Y-87915834D01*
X38278488Y-87871994D01*
X38256423Y-87805700D01*
X38273702Y-87738001D01*
X38324839Y-87690390D01*
X38342026Y-87683343D01*
X38518217Y-87626095D01*
X38707554Y-87529622D01*
X38761716Y-87490270D01*
X38761717Y-87490270D01*
X38129408Y-86857962D01*
X38192993Y-86840925D01*
X38307007Y-86775099D01*
X38400099Y-86682007D01*
X38465925Y-86567993D01*
X38482962Y-86504409D01*
X39115270Y-87136717D01*
X39115270Y-87136716D01*
X39154622Y-87082554D01*
X39251095Y-86893217D01*
X39316757Y-86691130D01*
X39316757Y-86691127D01*
X39350000Y-86481246D01*
X39350000Y-86268753D01*
X39316757Y-86058872D01*
X39316757Y-86058869D01*
X39251095Y-85856782D01*
X39154624Y-85667449D01*
X39115270Y-85613282D01*
X39115269Y-85613282D01*
X38482962Y-86245590D01*
X38465925Y-86182007D01*
X38400099Y-86067993D01*
X38307007Y-85974901D01*
X38192993Y-85909075D01*
X38129409Y-85892037D01*
X38761716Y-85259728D01*
X38707550Y-85220375D01*
X38518216Y-85123904D01*
X38342026Y-85066656D01*
X38284350Y-85027218D01*
X38257152Y-84962860D01*
X38269067Y-84894013D01*
X38316311Y-84842538D01*
X38332882Y-84834168D01*
X38497598Y-84765941D01*
X38669655Y-84650977D01*
X38815977Y-84504655D01*
X38930941Y-84332598D01*
X38939454Y-84312045D01*
X38983296Y-84257643D01*
X39049590Y-84235579D01*
X39054015Y-84235500D01*
X40975500Y-84235500D01*
X41042539Y-84255185D01*
X41088294Y-84307989D01*
X41099500Y-84359500D01*
X41099500Y-90647273D01*
X41099500Y-90752727D01*
X41108239Y-90785342D01*
X41126793Y-90854589D01*
X41153156Y-90900250D01*
X41179520Y-90945913D01*
X47279518Y-97045910D01*
X47279520Y-97045913D01*
X47354087Y-97120480D01*
X47423404Y-97160500D01*
X47445411Y-97173206D01*
X47445412Y-97173206D01*
X47445413Y-97173207D01*
X47547273Y-97200501D01*
X47547275Y-97200501D01*
X47660323Y-97200501D01*
X47660339Y-97200500D01*
X76913386Y-97200500D01*
X76913388Y-97200500D01*
X77015249Y-97173207D01*
X77106574Y-97120480D01*
X78940480Y-95286574D01*
X78993207Y-95195249D01*
X79020500Y-95093388D01*
X79020500Y-95078711D01*
X84549500Y-95078711D01*
X84549500Y-95321288D01*
X84581161Y-95561785D01*
X84643947Y-95796104D01*
X84736773Y-96020205D01*
X84736776Y-96020212D01*
X84858064Y-96230289D01*
X84858066Y-96230292D01*
X84858067Y-96230293D01*
X85005733Y-96422736D01*
X85005739Y-96422743D01*
X85177256Y-96594260D01*
X85177262Y-96594265D01*
X85369711Y-96741936D01*
X85579788Y-96863224D01*
X85803900Y-96956054D01*
X86038211Y-97018838D01*
X86218586Y-97042584D01*
X86278711Y-97050500D01*
X86278712Y-97050500D01*
X86521289Y-97050500D01*
X86569388Y-97044167D01*
X86761789Y-97018838D01*
X86996100Y-96956054D01*
X87220212Y-96863224D01*
X87430289Y-96741936D01*
X87622738Y-96594265D01*
X87794265Y-96422738D01*
X87941936Y-96230289D01*
X88063224Y-96020212D01*
X88156054Y-95796100D01*
X88218838Y-95561789D01*
X88250500Y-95321288D01*
X88250500Y-95078712D01*
X88218838Y-94838211D01*
X88156054Y-94603900D01*
X88063224Y-94379788D01*
X87941936Y-94169711D01*
X87794265Y-93977262D01*
X87794260Y-93977256D01*
X87622743Y-93805739D01*
X87622736Y-93805733D01*
X87430293Y-93658067D01*
X87430292Y-93658066D01*
X87430289Y-93658064D01*
X87220212Y-93536776D01*
X87220205Y-93536773D01*
X86996104Y-93443947D01*
X86761785Y-93381161D01*
X86521289Y-93349500D01*
X86521288Y-93349500D01*
X86278712Y-93349500D01*
X86278711Y-93349500D01*
X86038214Y-93381161D01*
X85803895Y-93443947D01*
X85579794Y-93536773D01*
X85579785Y-93536777D01*
X85369706Y-93658067D01*
X85177263Y-93805733D01*
X85177256Y-93805739D01*
X85005739Y-93977256D01*
X85005733Y-93977263D01*
X84858067Y-94169706D01*
X84736777Y-94379785D01*
X84736773Y-94379794D01*
X84643947Y-94603895D01*
X84581161Y-94838214D01*
X84549500Y-95078711D01*
X79020500Y-95078711D01*
X79020500Y-94987934D01*
X79020500Y-90654014D01*
X79040185Y-90586975D01*
X79092989Y-90541220D01*
X79097048Y-90539453D01*
X79117598Y-90530941D01*
X79289655Y-90415977D01*
X79435977Y-90269655D01*
X79500098Y-90173690D01*
X79550937Y-90097604D01*
X79550937Y-90097603D01*
X79550941Y-90097598D01*
X79559454Y-90077045D01*
X79603296Y-90022643D01*
X79669590Y-90000579D01*
X79674015Y-90000500D01*
X81685500Y-90000500D01*
X81752539Y-90020185D01*
X81798294Y-90072989D01*
X81809500Y-90124500D01*
X81809500Y-90469752D01*
X81821131Y-90528229D01*
X81821132Y-90528230D01*
X81865447Y-90594552D01*
X81931769Y-90638867D01*
X81931770Y-90638868D01*
X81990247Y-90650499D01*
X81990250Y-90650500D01*
X81990252Y-90650500D01*
X83729750Y-90650500D01*
X83729751Y-90650499D01*
X83745971Y-90647273D01*
X83788229Y-90638868D01*
X83788229Y-90638867D01*
X83788231Y-90638867D01*
X83854552Y-90594552D01*
X83898867Y-90528231D01*
X83898867Y-90528229D01*
X83898868Y-90528229D01*
X83910499Y-90469752D01*
X83910500Y-90469750D01*
X83910500Y-90166048D01*
X83930185Y-90099009D01*
X83982989Y-90053254D01*
X84052147Y-90043310D01*
X84115703Y-90072335D01*
X84145938Y-90114264D01*
X84146694Y-90113879D01*
X84245375Y-90307550D01*
X84284728Y-90361716D01*
X84917037Y-89729408D01*
X84934075Y-89792993D01*
X84999901Y-89907007D01*
X85092993Y-90000099D01*
X85207007Y-90065925D01*
X85270590Y-90082962D01*
X84638282Y-90715269D01*
X84638282Y-90715270D01*
X84692449Y-90754624D01*
X84881782Y-90851095D01*
X85083870Y-90916757D01*
X85293754Y-90950000D01*
X85506246Y-90950000D01*
X85716127Y-90916757D01*
X85716130Y-90916757D01*
X85918217Y-90851095D01*
X86107554Y-90754622D01*
X86161716Y-90715270D01*
X86161717Y-90715270D01*
X85529408Y-90082962D01*
X85592993Y-90065925D01*
X85707007Y-90000099D01*
X85800099Y-89907007D01*
X85865925Y-89792993D01*
X85882962Y-89729408D01*
X86515270Y-90361717D01*
X86515270Y-90361716D01*
X86554622Y-90307554D01*
X86651095Y-90118217D01*
X86716757Y-89916130D01*
X86716757Y-89916127D01*
X86750000Y-89706246D01*
X86750000Y-89493753D01*
X86716757Y-89283872D01*
X86716757Y-89283869D01*
X86651095Y-89081782D01*
X86554624Y-88892449D01*
X86515270Y-88838282D01*
X86515269Y-88838282D01*
X85882962Y-89470590D01*
X85865925Y-89407007D01*
X85800099Y-89292993D01*
X85707007Y-89199901D01*
X85592993Y-89134075D01*
X85529409Y-89117037D01*
X86161716Y-88484728D01*
X86107550Y-88445375D01*
X85918217Y-88348904D01*
X85716129Y-88283242D01*
X85506246Y-88250000D01*
X85293754Y-88250000D01*
X85083872Y-88283242D01*
X85083869Y-88283242D01*
X84881782Y-88348904D01*
X84692439Y-88445380D01*
X84638282Y-88484727D01*
X84638282Y-88484728D01*
X85270591Y-89117037D01*
X85207007Y-89134075D01*
X85092993Y-89199901D01*
X84999901Y-89292993D01*
X84934075Y-89407007D01*
X84917037Y-89470591D01*
X84284728Y-88838282D01*
X84284727Y-88838282D01*
X84245380Y-88892439D01*
X84146694Y-89086121D01*
X84145678Y-89085603D01*
X84105212Y-89135813D01*
X84038916Y-89157872D01*
X83971218Y-89140588D01*
X83923612Y-89089447D01*
X83910500Y-89033951D01*
X83910500Y-88730249D01*
X83910499Y-88730247D01*
X83898868Y-88671770D01*
X83898867Y-88671769D01*
X83854552Y-88605447D01*
X83788230Y-88561132D01*
X83788229Y-88561131D01*
X83729752Y-88549500D01*
X83729748Y-88549500D01*
X81990252Y-88549500D01*
X81990247Y-88549500D01*
X81931770Y-88561131D01*
X81931769Y-88561132D01*
X81865447Y-88605447D01*
X81821132Y-88671769D01*
X81821131Y-88671770D01*
X81809500Y-88730247D01*
X81809500Y-89075500D01*
X81789815Y-89142539D01*
X81737011Y-89188294D01*
X81685500Y-89199500D01*
X79674015Y-89199500D01*
X79606976Y-89179815D01*
X79561221Y-89127011D01*
X79559454Y-89122954D01*
X79550941Y-89102402D01*
X79550938Y-89102397D01*
X79550937Y-89102395D01*
X79435977Y-88930344D01*
X79289655Y-88784022D01*
X79117604Y-88669062D01*
X79117599Y-88669060D01*
X79117598Y-88669059D01*
X79097045Y-88660545D01*
X79042643Y-88616704D01*
X79020579Y-88550410D01*
X79020500Y-88545985D01*
X79020500Y-81482729D01*
X79020501Y-81482716D01*
X79020501Y-81367274D01*
X78993207Y-81265413D01*
X78974928Y-81233753D01*
X78940480Y-81174087D01*
X78865913Y-81099520D01*
X78865912Y-81099519D01*
X78861582Y-81095189D01*
X78861571Y-81095179D01*
X77722084Y-79955692D01*
X77515944Y-79749552D01*
X76460146Y-78693753D01*
X83050000Y-78693753D01*
X83050000Y-78906246D01*
X83083242Y-79116127D01*
X83083242Y-79116130D01*
X83148904Y-79318217D01*
X83245375Y-79507550D01*
X83284728Y-79561716D01*
X83917037Y-78929408D01*
X83934075Y-78992993D01*
X83999901Y-79107007D01*
X84092993Y-79200099D01*
X84207007Y-79265925D01*
X84270591Y-79282962D01*
X83669971Y-79883581D01*
X83748711Y-80000895D01*
X83749920Y-80004729D01*
X83752844Y-80007491D01*
X83760343Y-80037778D01*
X83769727Y-80067529D01*
X83768671Y-80071408D01*
X83769638Y-80075312D01*
X83759573Y-80104844D01*
X83751383Y-80134947D01*
X83748397Y-80137640D01*
X83747100Y-80141447D01*
X83702051Y-80180483D01*
X83692440Y-80185380D01*
X83638282Y-80224727D01*
X83638282Y-80224728D01*
X84270591Y-80857037D01*
X84207007Y-80874075D01*
X84092993Y-80939901D01*
X83999901Y-81032993D01*
X83934075Y-81147007D01*
X83917037Y-81210591D01*
X83284728Y-80578282D01*
X83284727Y-80578282D01*
X83245380Y-80632439D01*
X83148904Y-80821782D01*
X83083242Y-81023869D01*
X83083242Y-81023872D01*
X83050000Y-81233753D01*
X83050000Y-81446246D01*
X83083242Y-81656127D01*
X83083242Y-81656130D01*
X83148904Y-81858217D01*
X83245375Y-82047550D01*
X83284728Y-82101716D01*
X83917037Y-81469408D01*
X83934075Y-81532993D01*
X83999901Y-81647007D01*
X84092993Y-81740099D01*
X84207007Y-81805925D01*
X84270590Y-81822962D01*
X83638282Y-82455269D01*
X83638282Y-82455270D01*
X83692449Y-82494624D01*
X83881782Y-82591095D01*
X84083870Y-82656757D01*
X84293754Y-82690000D01*
X84506246Y-82690000D01*
X84716127Y-82656757D01*
X84716130Y-82656757D01*
X84918217Y-82591095D01*
X85107554Y-82494622D01*
X85161716Y-82455270D01*
X85161717Y-82455270D01*
X84529408Y-81822962D01*
X84592993Y-81805925D01*
X84707007Y-81740099D01*
X84800099Y-81647007D01*
X84865925Y-81532993D01*
X84882962Y-81469408D01*
X85515270Y-82101717D01*
X85515270Y-82101716D01*
X85554622Y-82047554D01*
X85651095Y-81858217D01*
X85716757Y-81656130D01*
X85716757Y-81656127D01*
X85750000Y-81446246D01*
X85750000Y-81233753D01*
X85716757Y-81023872D01*
X85716757Y-81023869D01*
X85651095Y-80821782D01*
X85554624Y-80632449D01*
X85515270Y-80578282D01*
X85515269Y-80578282D01*
X84882962Y-81210590D01*
X84865925Y-81147007D01*
X84800099Y-81032993D01*
X84707007Y-80939901D01*
X84592993Y-80874075D01*
X84529409Y-80857037D01*
X85161716Y-80224728D01*
X85107550Y-80185375D01*
X85097954Y-80180486D01*
X85047157Y-80132512D01*
X85030361Y-80064692D01*
X85052897Y-79998556D01*
X85097954Y-79959514D01*
X85107554Y-79954622D01*
X85161716Y-79915270D01*
X85161717Y-79915270D01*
X84529408Y-79282962D01*
X84592993Y-79265925D01*
X84707007Y-79200099D01*
X84800099Y-79107007D01*
X84865925Y-78992993D01*
X84882962Y-78929408D01*
X85515270Y-79561717D01*
X85515270Y-79561716D01*
X85554622Y-79507554D01*
X85651095Y-79318217D01*
X85716757Y-79116130D01*
X85716757Y-79116127D01*
X85750000Y-78906246D01*
X85750000Y-78693753D01*
X85716757Y-78483872D01*
X85716757Y-78483869D01*
X85651095Y-78281782D01*
X85554624Y-78092449D01*
X85515270Y-78038282D01*
X85515269Y-78038282D01*
X84882962Y-78670590D01*
X84865925Y-78607007D01*
X84800099Y-78492993D01*
X84707007Y-78399901D01*
X84592993Y-78334075D01*
X84529409Y-78317037D01*
X85161716Y-77684728D01*
X85107550Y-77645375D01*
X84918216Y-77548904D01*
X84742026Y-77491656D01*
X84684350Y-77452218D01*
X84657152Y-77387860D01*
X84669067Y-77319013D01*
X84716311Y-77267538D01*
X84732882Y-77259168D01*
X84897598Y-77190941D01*
X85069655Y-77075977D01*
X85215977Y-76929655D01*
X85330941Y-76757598D01*
X85410130Y-76566420D01*
X85450500Y-76363465D01*
X85450500Y-76156535D01*
X85410130Y-75953580D01*
X85330941Y-75762402D01*
X85215977Y-75590345D01*
X85215975Y-75590342D01*
X85069657Y-75444024D01*
X84983626Y-75386541D01*
X84897598Y-75329059D01*
X84706420Y-75249870D01*
X84706412Y-75249868D01*
X84503469Y-75209500D01*
X84503465Y-75209500D01*
X84296535Y-75209500D01*
X84296530Y-75209500D01*
X84093587Y-75249868D01*
X84093579Y-75249870D01*
X83902403Y-75329058D01*
X83730342Y-75444024D01*
X83584024Y-75590342D01*
X83469058Y-75762403D01*
X83389870Y-75953579D01*
X83389868Y-75953587D01*
X83349500Y-76156530D01*
X83349500Y-76363469D01*
X83389868Y-76566412D01*
X83389870Y-76566420D01*
X83469058Y-76757596D01*
X83584024Y-76929657D01*
X83730342Y-77075975D01*
X83902405Y-77190943D01*
X84005043Y-77233456D01*
X84067108Y-77259164D01*
X84121511Y-77303005D01*
X84143576Y-77369299D01*
X84126297Y-77436998D01*
X84075160Y-77484609D01*
X84057974Y-77491656D01*
X83881781Y-77548905D01*
X83692439Y-77645380D01*
X83638282Y-77684727D01*
X83638282Y-77684728D01*
X84270591Y-78317037D01*
X84207007Y-78334075D01*
X84092993Y-78399901D01*
X83999901Y-78492993D01*
X83934075Y-78607007D01*
X83917037Y-78670591D01*
X83284728Y-78038282D01*
X83284727Y-78038282D01*
X83245380Y-78092439D01*
X83148904Y-78281782D01*
X83083242Y-78483869D01*
X83083242Y-78483872D01*
X83050000Y-78693753D01*
X76460146Y-78693753D01*
X76245913Y-78479520D01*
X76188628Y-78446446D01*
X76154589Y-78426793D01*
X76103657Y-78413146D01*
X76052727Y-78399500D01*
X76052726Y-78399500D01*
X60054015Y-78399500D01*
X59986976Y-78379815D01*
X59941221Y-78327011D01*
X59939454Y-78322954D01*
X59930941Y-78302402D01*
X59930938Y-78302397D01*
X59930937Y-78302395D01*
X59815977Y-78130344D01*
X59669657Y-77984024D01*
X59531420Y-77891658D01*
X59497598Y-77869059D01*
X59306420Y-77789870D01*
X59306412Y-77789868D01*
X59103469Y-77749500D01*
X59103465Y-77749500D01*
X58943694Y-77749500D01*
X58911602Y-77745275D01*
X58852728Y-77729500D01*
X58852727Y-77729500D01*
X58747273Y-77729500D01*
X58645410Y-77756793D01*
X58554087Y-77809520D01*
X58487369Y-77876238D01*
X58468579Y-77891658D01*
X58330344Y-77984022D01*
X58184024Y-78130342D01*
X58069058Y-78302403D01*
X57989870Y-78493579D01*
X57989868Y-78493587D01*
X57949500Y-78696530D01*
X57949500Y-78903469D01*
X57989868Y-79106412D01*
X57989870Y-79106420D01*
X58069058Y-79297596D01*
X58184024Y-79469657D01*
X58330342Y-79615975D01*
X58502405Y-79730943D01*
X58605043Y-79773456D01*
X58667108Y-79799164D01*
X58721511Y-79843005D01*
X58743576Y-79909299D01*
X58726297Y-79976998D01*
X58675160Y-80024609D01*
X58657974Y-80031656D01*
X58481781Y-80088905D01*
X58292439Y-80185380D01*
X58238282Y-80224727D01*
X58238282Y-80224728D01*
X58870591Y-80857037D01*
X58807007Y-80874075D01*
X58692993Y-80939901D01*
X58599901Y-81032993D01*
X58534075Y-81147007D01*
X58517037Y-81210591D01*
X57884728Y-80578282D01*
X57884727Y-80578282D01*
X57845380Y-80632439D01*
X57748904Y-80821782D01*
X57683242Y-81023869D01*
X57683242Y-81023872D01*
X57650000Y-81233753D01*
X57650000Y-81446246D01*
X57683242Y-81656127D01*
X57683242Y-81656130D01*
X57748904Y-81858217D01*
X57845375Y-82047550D01*
X57884728Y-82101716D01*
X58517037Y-81469408D01*
X58534075Y-81532993D01*
X58599901Y-81647007D01*
X58692993Y-81740099D01*
X58807007Y-81805925D01*
X58870590Y-81822962D01*
X58238282Y-82455269D01*
X58238282Y-82455270D01*
X58292449Y-82494624D01*
X58481782Y-82591095D01*
X58683870Y-82656757D01*
X58893754Y-82690000D01*
X59106246Y-82690000D01*
X59316127Y-82656757D01*
X59316130Y-82656757D01*
X59518217Y-82591095D01*
X59707554Y-82494622D01*
X59761716Y-82455270D01*
X59761717Y-82455270D01*
X59129408Y-81822962D01*
X59192993Y-81805925D01*
X59307007Y-81740099D01*
X59400099Y-81647007D01*
X59465925Y-81532993D01*
X59482962Y-81469408D01*
X60115270Y-82101717D01*
X60115270Y-82101716D01*
X60154622Y-82047554D01*
X60251095Y-81858217D01*
X60316757Y-81656130D01*
X60316757Y-81656127D01*
X60350000Y-81446246D01*
X60350000Y-81233753D01*
X60316757Y-81023872D01*
X60316757Y-81023869D01*
X60251095Y-80821782D01*
X60154624Y-80632449D01*
X60115270Y-80578282D01*
X60115269Y-80578282D01*
X59482962Y-81210590D01*
X59465925Y-81147007D01*
X59400099Y-81032993D01*
X59307007Y-80939901D01*
X59192993Y-80874075D01*
X59129409Y-80857037D01*
X59761716Y-80224728D01*
X59707550Y-80185375D01*
X59518216Y-80088904D01*
X59342026Y-80031656D01*
X59284350Y-79992218D01*
X59257152Y-79927860D01*
X59269067Y-79859013D01*
X59316311Y-79807538D01*
X59332882Y-79799168D01*
X59497598Y-79730941D01*
X59669655Y-79615977D01*
X59815977Y-79469655D01*
X59930941Y-79297598D01*
X59939454Y-79277045D01*
X59983296Y-79222643D01*
X60049590Y-79200579D01*
X60054015Y-79200500D01*
X75782745Y-79200500D01*
X75849784Y-79220185D01*
X75870426Y-79236819D01*
X78183181Y-81549573D01*
X78216666Y-81610896D01*
X78219500Y-81637254D01*
X78219500Y-88545985D01*
X78199815Y-88613024D01*
X78147011Y-88658779D01*
X78142956Y-88660544D01*
X78122402Y-88669059D01*
X78122395Y-88669062D01*
X77950344Y-88784022D01*
X77804024Y-88930342D01*
X77689057Y-89102403D01*
X77620835Y-89267108D01*
X77576994Y-89321511D01*
X77510700Y-89343576D01*
X77443000Y-89326297D01*
X77395390Y-89275159D01*
X77388343Y-89257973D01*
X77331095Y-89081782D01*
X77234624Y-88892449D01*
X77195270Y-88838282D01*
X77195269Y-88838282D01*
X76562962Y-89470590D01*
X76545925Y-89407007D01*
X76480099Y-89292993D01*
X76387007Y-89199901D01*
X76272993Y-89134075D01*
X76209409Y-89117037D01*
X76841716Y-88484728D01*
X76787550Y-88445375D01*
X76598217Y-88348904D01*
X76396129Y-88283242D01*
X76186246Y-88250000D01*
X75973754Y-88250000D01*
X75763872Y-88283242D01*
X75763869Y-88283242D01*
X75561782Y-88348904D01*
X75372439Y-88445380D01*
X75318282Y-88484727D01*
X75318282Y-88484728D01*
X75950591Y-89117037D01*
X75887007Y-89134075D01*
X75772993Y-89199901D01*
X75679901Y-89292993D01*
X75614075Y-89407007D01*
X75597037Y-89470591D01*
X74964728Y-88838282D01*
X74964727Y-88838282D01*
X74925380Y-88892439D01*
X74828905Y-89081781D01*
X74771656Y-89257974D01*
X74732218Y-89315649D01*
X74667859Y-89342847D01*
X74599013Y-89330932D01*
X74547537Y-89283688D01*
X74539164Y-89267107D01*
X74470943Y-89102405D01*
X74355977Y-88930345D01*
X74347565Y-88921933D01*
X74321518Y-88895886D01*
X74320480Y-88894088D01*
X74245912Y-88819520D01*
X74244113Y-88818481D01*
X74209655Y-88784023D01*
X74209654Y-88784022D01*
X74209653Y-88784021D01*
X74037604Y-88669062D01*
X74037599Y-88669060D01*
X74037598Y-88669059D01*
X74017045Y-88660545D01*
X73962643Y-88616704D01*
X73940579Y-88550410D01*
X73940500Y-88545985D01*
X73940500Y-87287275D01*
X73940500Y-87287273D01*
X73913207Y-87185413D01*
X73860480Y-87094087D01*
X73785913Y-87019520D01*
X72645913Y-85879520D01*
X72600250Y-85853156D01*
X72554589Y-85826793D01*
X72503657Y-85813146D01*
X72452727Y-85799500D01*
X59452727Y-85799500D01*
X59347273Y-85799500D01*
X59245410Y-85826793D01*
X59154087Y-85879520D01*
X59154084Y-85879522D01*
X57319522Y-87714084D01*
X57319518Y-87714090D01*
X57266792Y-87805412D01*
X57266793Y-87805413D01*
X57239500Y-87907273D01*
X57239500Y-88248855D01*
X57219815Y-88315894D01*
X57167011Y-88361649D01*
X57147596Y-88368629D01*
X57066452Y-88390373D01*
X57066450Y-88390373D01*
X57066449Y-88390374D01*
X57066447Y-88390375D01*
X56850823Y-88479687D01*
X56850807Y-88479695D01*
X56648692Y-88596387D01*
X56648676Y-88596398D01*
X56463517Y-88738475D01*
X56463510Y-88738481D01*
X56298481Y-88903510D01*
X56298475Y-88903517D01*
X56156398Y-89088676D01*
X56156387Y-89088692D01*
X56039695Y-89290807D01*
X56039690Y-89290818D01*
X55950375Y-89506444D01*
X55889964Y-89731899D01*
X55859501Y-89963290D01*
X55859500Y-89963306D01*
X55859500Y-91236693D01*
X55859501Y-91236709D01*
X55889610Y-91465414D01*
X55889965Y-91468104D01*
X55918822Y-91575797D01*
X55950375Y-91693555D01*
X56039690Y-91909181D01*
X56039695Y-91909192D01*
X56156387Y-92111307D01*
X56156398Y-92111323D01*
X56298475Y-92296482D01*
X56298481Y-92296489D01*
X56463510Y-92461518D01*
X56463517Y-92461524D01*
X56595370Y-92562698D01*
X56648685Y-92603608D01*
X56648692Y-92603612D01*
X56850807Y-92720304D01*
X56850812Y-92720306D01*
X56850815Y-92720308D01*
X57066449Y-92809626D01*
X57291896Y-92870035D01*
X57523300Y-92900500D01*
X57523307Y-92900500D01*
X57756693Y-92900500D01*
X57756700Y-92900500D01*
X57988104Y-92870035D01*
X58213551Y-92809626D01*
X58429185Y-92720308D01*
X58631315Y-92603608D01*
X58816484Y-92461523D01*
X58981523Y-92296484D01*
X59123608Y-92111315D01*
X59240308Y-91909185D01*
X59329626Y-91693551D01*
X59345192Y-91635456D01*
X59381555Y-91575798D01*
X59444401Y-91545268D01*
X59513777Y-91553562D01*
X59567656Y-91598047D01*
X59584741Y-91635457D01*
X59626159Y-91790029D01*
X59730499Y-92041927D01*
X59730503Y-92041937D01*
X59866831Y-92278066D01*
X60032818Y-92494382D01*
X60032826Y-92494391D01*
X60225609Y-92687174D01*
X60225617Y-92687181D01*
X60441933Y-92853168D01*
X60678062Y-92989496D01*
X60678072Y-92989500D01*
X60929970Y-93093840D01*
X61193344Y-93164411D01*
X61350000Y-93185034D01*
X61350000Y-91467904D01*
X61511358Y-91500000D01*
X61688642Y-91500000D01*
X61850000Y-91467904D01*
X61850000Y-93185033D01*
X62006655Y-93164411D01*
X62270029Y-93093840D01*
X62521927Y-92989500D01*
X62521937Y-92989496D01*
X62758066Y-92853168D01*
X62974382Y-92687181D01*
X62974391Y-92687174D01*
X63167174Y-92494391D01*
X63167181Y-92494382D01*
X63333168Y-92278066D01*
X63469496Y-92041937D01*
X63469500Y-92041927D01*
X63573840Y-91790029D01*
X63615258Y-91635457D01*
X63651623Y-91575797D01*
X63714470Y-91545268D01*
X63783846Y-91553563D01*
X63837723Y-91598048D01*
X63854807Y-91635454D01*
X63868055Y-91684896D01*
X63870375Y-91693555D01*
X63959690Y-91909181D01*
X63959695Y-91909192D01*
X64076387Y-92111307D01*
X64076398Y-92111323D01*
X64218475Y-92296482D01*
X64218481Y-92296489D01*
X64383510Y-92461518D01*
X64383517Y-92461524D01*
X64515370Y-92562698D01*
X64568685Y-92603608D01*
X64568692Y-92603612D01*
X64770807Y-92720304D01*
X64770812Y-92720306D01*
X64770815Y-92720308D01*
X64878632Y-92764967D01*
X64986446Y-92809625D01*
X64986447Y-92809625D01*
X64986449Y-92809626D01*
X65107594Y-92842086D01*
X65167254Y-92878451D01*
X65197783Y-92941298D01*
X65199500Y-92961861D01*
X65199500Y-94342745D01*
X65179815Y-94409784D01*
X65163181Y-94430426D01*
X63230426Y-96363181D01*
X63169103Y-96396666D01*
X63142745Y-96399500D01*
X47817254Y-96399500D01*
X47750215Y-96379815D01*
X47729573Y-96363181D01*
X42799517Y-91433124D01*
X42717923Y-91351530D01*
X47449500Y-91351530D01*
X47449500Y-91558469D01*
X47489868Y-91761412D01*
X47489870Y-91761420D01*
X47569058Y-91952596D01*
X47684024Y-92124657D01*
X47830342Y-92270975D01*
X47830345Y-92270977D01*
X48002402Y-92385941D01*
X48193580Y-92465130D01*
X48340641Y-92494382D01*
X48396530Y-92505499D01*
X48396534Y-92505500D01*
X48396535Y-92505500D01*
X48603466Y-92505500D01*
X48603467Y-92505499D01*
X48806420Y-92465130D01*
X48997598Y-92385941D01*
X49169655Y-92270977D01*
X49315977Y-92124655D01*
X49430941Y-91952598D01*
X49510130Y-91761420D01*
X49550500Y-91558465D01*
X49550500Y-91351535D01*
X49510130Y-91148580D01*
X49430941Y-90957402D01*
X49315977Y-90785345D01*
X49315975Y-90785342D01*
X49169657Y-90639024D01*
X49012636Y-90534107D01*
X48997598Y-90524059D01*
X48966935Y-90511358D01*
X48806420Y-90444870D01*
X48806412Y-90444868D01*
X48603469Y-90404500D01*
X48603465Y-90404500D01*
X48396535Y-90404500D01*
X48396530Y-90404500D01*
X48193587Y-90444868D01*
X48193579Y-90444870D01*
X48002403Y-90524058D01*
X47830342Y-90639024D01*
X47684024Y-90785342D01*
X47569058Y-90957403D01*
X47489870Y-91148579D01*
X47489868Y-91148587D01*
X47449500Y-91351530D01*
X42717923Y-91351530D01*
X41936819Y-90570426D01*
X41903334Y-90509103D01*
X41900500Y-90482745D01*
X41900500Y-86268753D01*
X47150000Y-86268753D01*
X47150000Y-86481246D01*
X47183242Y-86691127D01*
X47183242Y-86691130D01*
X47248904Y-86893217D01*
X47345375Y-87082550D01*
X47384728Y-87136716D01*
X48017037Y-86504408D01*
X48034075Y-86567993D01*
X48099901Y-86682007D01*
X48192993Y-86775099D01*
X48307007Y-86840925D01*
X48370590Y-86857962D01*
X47738282Y-87490269D01*
X47738282Y-87490270D01*
X47792449Y-87529624D01*
X47981782Y-87626095D01*
X48157973Y-87683343D01*
X48215648Y-87722780D01*
X48242847Y-87787139D01*
X48230932Y-87855985D01*
X48183688Y-87907461D01*
X48167108Y-87915835D01*
X48002403Y-87984057D01*
X47830342Y-88099024D01*
X47684024Y-88245342D01*
X47569058Y-88417403D01*
X47489870Y-88608579D01*
X47489868Y-88608587D01*
X47449500Y-88811530D01*
X47449500Y-89018469D01*
X47489868Y-89221412D01*
X47489870Y-89221420D01*
X47569058Y-89412596D01*
X47684024Y-89584657D01*
X47830342Y-89730975D01*
X47830345Y-89730977D01*
X48002402Y-89845941D01*
X48193580Y-89925130D01*
X48385425Y-89963290D01*
X48396530Y-89965499D01*
X48396534Y-89965500D01*
X48396535Y-89965500D01*
X48603466Y-89965500D01*
X48603467Y-89965499D01*
X48806420Y-89925130D01*
X48997598Y-89845941D01*
X49169655Y-89730977D01*
X49315977Y-89584655D01*
X49430941Y-89412598D01*
X49510130Y-89221420D01*
X49550500Y-89018465D01*
X49550500Y-88811535D01*
X49545028Y-88784023D01*
X49531702Y-88717026D01*
X49527466Y-88695730D01*
X51899500Y-88695730D01*
X51899500Y-92504269D01*
X51902353Y-92534699D01*
X51902353Y-92534701D01*
X51947206Y-92662880D01*
X51947207Y-92662882D01*
X52027850Y-92772150D01*
X52137118Y-92852793D01*
X52176899Y-92866713D01*
X52265299Y-92897646D01*
X52295730Y-92900500D01*
X52295734Y-92900500D01*
X55064270Y-92900500D01*
X55094699Y-92897646D01*
X55094701Y-92897646D01*
X55173607Y-92870035D01*
X55222882Y-92852793D01*
X55332150Y-92772150D01*
X55412793Y-92662882D01*
X55435219Y-92598790D01*
X55457646Y-92534701D01*
X55457646Y-92534699D01*
X55460500Y-92504269D01*
X55460500Y-88695730D01*
X55457646Y-88665300D01*
X55457646Y-88665298D01*
X55417444Y-88550410D01*
X55412793Y-88537118D01*
X55332150Y-88427850D01*
X55222882Y-88347207D01*
X55222880Y-88347206D01*
X55094700Y-88302353D01*
X55064270Y-88299500D01*
X55064266Y-88299500D01*
X52295734Y-88299500D01*
X52295730Y-88299500D01*
X52265300Y-88302353D01*
X52265298Y-88302353D01*
X52137119Y-88347206D01*
X52137117Y-88347207D01*
X52027850Y-88427850D01*
X51947207Y-88537117D01*
X51947206Y-88537119D01*
X51902353Y-88665298D01*
X51902353Y-88665300D01*
X51899500Y-88695730D01*
X49527466Y-88695730D01*
X49510131Y-88608587D01*
X49510130Y-88608580D01*
X49430941Y-88417402D01*
X49315977Y-88245345D01*
X49315975Y-88245342D01*
X49169657Y-88099024D01*
X49043849Y-88014963D01*
X48997598Y-87984059D01*
X48997593Y-87984057D01*
X48935891Y-87958499D01*
X48832890Y-87915834D01*
X48778488Y-87871994D01*
X48756423Y-87805700D01*
X48773702Y-87738001D01*
X48824839Y-87690390D01*
X48842026Y-87683343D01*
X49018217Y-87626095D01*
X49207554Y-87529622D01*
X49261716Y-87490270D01*
X49261717Y-87490270D01*
X48629408Y-86857962D01*
X48692993Y-86840925D01*
X48807007Y-86775099D01*
X48900099Y-86682007D01*
X48965925Y-86567993D01*
X48982962Y-86504409D01*
X49615270Y-87136717D01*
X49615270Y-87136716D01*
X49654622Y-87082554D01*
X49751095Y-86893217D01*
X49816757Y-86691130D01*
X49816757Y-86691127D01*
X49850000Y-86481246D01*
X49850000Y-86268753D01*
X49816757Y-86058872D01*
X49816757Y-86058869D01*
X49751095Y-85856782D01*
X49654624Y-85667449D01*
X49615270Y-85613282D01*
X49615269Y-85613282D01*
X48982962Y-86245590D01*
X48965925Y-86182007D01*
X48900099Y-86067993D01*
X48807007Y-85974901D01*
X48692993Y-85909075D01*
X48629409Y-85892037D01*
X49261716Y-85259728D01*
X49207550Y-85220375D01*
X49018216Y-85123904D01*
X48842026Y-85066656D01*
X48784350Y-85027218D01*
X48757152Y-84962860D01*
X48769067Y-84894013D01*
X48816311Y-84842538D01*
X48832882Y-84834168D01*
X48997598Y-84765941D01*
X49169655Y-84650977D01*
X49315977Y-84504655D01*
X49430941Y-84332598D01*
X49510130Y-84141420D01*
X49550500Y-83938465D01*
X49550500Y-83731535D01*
X49510130Y-83528580D01*
X49430941Y-83337402D01*
X49315977Y-83165345D01*
X49315976Y-83165344D01*
X49315975Y-83165342D01*
X49169657Y-83019024D01*
X49083626Y-82961541D01*
X48997598Y-82904059D01*
X48806420Y-82824870D01*
X48806412Y-82824868D01*
X48603469Y-82784500D01*
X48603465Y-82784500D01*
X48396535Y-82784500D01*
X48396530Y-82784500D01*
X48193587Y-82824868D01*
X48193579Y-82824870D01*
X48002403Y-82904058D01*
X47830342Y-83019024D01*
X47684024Y-83165342D01*
X47569058Y-83337403D01*
X47489870Y-83528579D01*
X47489868Y-83528587D01*
X47449500Y-83731530D01*
X47449500Y-83938469D01*
X47489868Y-84141412D01*
X47489870Y-84141420D01*
X47569058Y-84332596D01*
X47684024Y-84504657D01*
X47830342Y-84650975D01*
X48002405Y-84765943D01*
X48105043Y-84808456D01*
X48167108Y-84834164D01*
X48221511Y-84878005D01*
X48243576Y-84944299D01*
X48226297Y-85011998D01*
X48175160Y-85059609D01*
X48157974Y-85066656D01*
X47981781Y-85123905D01*
X47792439Y-85220380D01*
X47738282Y-85259727D01*
X47738282Y-85259728D01*
X48370591Y-85892037D01*
X48307007Y-85909075D01*
X48192993Y-85974901D01*
X48099901Y-86067993D01*
X48034075Y-86182007D01*
X48017037Y-86245591D01*
X47384728Y-85613282D01*
X47384727Y-85613282D01*
X47345380Y-85667439D01*
X47248904Y-85856782D01*
X47183242Y-86058869D01*
X47183242Y-86058872D01*
X47150000Y-86268753D01*
X41900500Y-86268753D01*
X41900500Y-81191530D01*
X47449500Y-81191530D01*
X47449500Y-81398469D01*
X47489868Y-81601412D01*
X47489870Y-81601420D01*
X47569058Y-81792596D01*
X47684024Y-81964657D01*
X47830342Y-82110975D01*
X47830345Y-82110977D01*
X48002402Y-82225941D01*
X48193580Y-82305130D01*
X48396530Y-82345499D01*
X48396534Y-82345500D01*
X48396535Y-82345500D01*
X48603466Y-82345500D01*
X48603467Y-82345499D01*
X48806420Y-82305130D01*
X48997598Y-82225941D01*
X49169655Y-82110977D01*
X49315977Y-81964655D01*
X49430941Y-81792598D01*
X49510130Y-81601420D01*
X49550500Y-81398465D01*
X49550500Y-81191535D01*
X49510130Y-80988580D01*
X49430941Y-80797402D01*
X49315977Y-80625345D01*
X49315975Y-80625342D01*
X49169657Y-80479024D01*
X49083626Y-80421541D01*
X48997598Y-80364059D01*
X48806420Y-80284870D01*
X48806412Y-80284868D01*
X48603469Y-80244500D01*
X48603465Y-80244500D01*
X48396535Y-80244500D01*
X48396530Y-80244500D01*
X48193587Y-80284868D01*
X48193579Y-80284870D01*
X48002403Y-80364058D01*
X47830342Y-80479024D01*
X47684024Y-80625342D01*
X47569058Y-80797403D01*
X47489870Y-80988579D01*
X47489868Y-80988587D01*
X47449500Y-81191530D01*
X41900500Y-81191530D01*
X41900500Y-77885247D01*
X47449500Y-77885247D01*
X47449500Y-79624752D01*
X47461131Y-79683229D01*
X47461132Y-79683230D01*
X47505447Y-79749552D01*
X47571769Y-79793867D01*
X47571770Y-79793868D01*
X47630247Y-79805499D01*
X47630250Y-79805500D01*
X47630252Y-79805500D01*
X49369750Y-79805500D01*
X49369751Y-79805499D01*
X49384568Y-79802552D01*
X49428229Y-79793868D01*
X49428229Y-79793867D01*
X49428231Y-79793867D01*
X49494552Y-79749552D01*
X49538867Y-79683231D01*
X49538867Y-79683229D01*
X49538868Y-79683229D01*
X49550499Y-79624752D01*
X49550500Y-79624750D01*
X49550500Y-77885249D01*
X49550499Y-77885247D01*
X49538868Y-77826770D01*
X49538867Y-77826769D01*
X49494552Y-77760447D01*
X49428230Y-77716132D01*
X49428229Y-77716131D01*
X49369752Y-77704500D01*
X49369748Y-77704500D01*
X47630252Y-77704500D01*
X47630247Y-77704500D01*
X47571770Y-77716131D01*
X47571769Y-77716132D01*
X47505447Y-77760447D01*
X47461132Y-77826769D01*
X47461131Y-77826770D01*
X47449500Y-77885247D01*
X41900500Y-77885247D01*
X41900500Y-76156530D01*
X57949500Y-76156530D01*
X57949500Y-76363469D01*
X57989868Y-76566412D01*
X57989870Y-76566420D01*
X58069058Y-76757596D01*
X58184024Y-76929657D01*
X58330342Y-77075975D01*
X58330345Y-77075977D01*
X58502402Y-77190941D01*
X58693580Y-77270130D01*
X58858855Y-77303005D01*
X58896530Y-77310499D01*
X58896534Y-77310500D01*
X58896535Y-77310500D01*
X59103466Y-77310500D01*
X59103467Y-77310499D01*
X59306420Y-77270130D01*
X59497598Y-77190941D01*
X59669655Y-77075977D01*
X59815977Y-76929655D01*
X59930941Y-76757598D01*
X60010130Y-76566420D01*
X60050500Y-76363465D01*
X60050500Y-76156535D01*
X60010130Y-75953580D01*
X59930941Y-75762402D01*
X59815977Y-75590345D01*
X59815975Y-75590342D01*
X59669657Y-75444024D01*
X59583626Y-75386541D01*
X59497598Y-75329059D01*
X59306420Y-75249870D01*
X59306412Y-75249868D01*
X59103469Y-75209500D01*
X59103465Y-75209500D01*
X58896535Y-75209500D01*
X58896530Y-75209500D01*
X58693587Y-75249868D01*
X58693579Y-75249870D01*
X58502403Y-75329058D01*
X58330342Y-75444024D01*
X58184024Y-75590342D01*
X58069058Y-75762403D01*
X57989870Y-75953579D01*
X57989868Y-75953587D01*
X57949500Y-76156530D01*
X41900500Y-76156530D01*
X41900500Y-73968197D01*
X47449500Y-73968197D01*
X47449500Y-74175136D01*
X47489868Y-74378079D01*
X47489870Y-74378087D01*
X47569058Y-74569263D01*
X47684024Y-74741324D01*
X47830342Y-74887642D01*
X47830345Y-74887644D01*
X48002402Y-75002608D01*
X48193580Y-75081797D01*
X48396530Y-75122166D01*
X48396534Y-75122167D01*
X48396535Y-75122167D01*
X48603466Y-75122167D01*
X48603467Y-75122166D01*
X48806420Y-75081797D01*
X48997598Y-75002608D01*
X49169655Y-74887644D01*
X49315977Y-74741322D01*
X49430941Y-74569265D01*
X49510130Y-74378087D01*
X49550500Y-74175132D01*
X49550500Y-73968202D01*
X49510130Y-73765247D01*
X49510128Y-73765242D01*
X49465664Y-73657895D01*
X49448530Y-73616530D01*
X57949500Y-73616530D01*
X57949500Y-73823469D01*
X57989868Y-74026412D01*
X57989870Y-74026420D01*
X58069058Y-74217596D01*
X58184024Y-74389657D01*
X58330342Y-74535975D01*
X58330345Y-74535977D01*
X58502402Y-74650941D01*
X58693580Y-74730130D01*
X58896530Y-74770499D01*
X58896534Y-74770500D01*
X58896535Y-74770500D01*
X59103466Y-74770500D01*
X59103467Y-74770499D01*
X59306420Y-74730130D01*
X59497598Y-74650941D01*
X59669655Y-74535977D01*
X59815977Y-74389655D01*
X59930941Y-74217598D01*
X60010130Y-74026420D01*
X60050500Y-73823465D01*
X60050500Y-73616535D01*
X60050499Y-73616530D01*
X83349500Y-73616530D01*
X83349500Y-73823469D01*
X83389868Y-74026412D01*
X83389870Y-74026420D01*
X83469058Y-74217596D01*
X83584024Y-74389657D01*
X83730342Y-74535975D01*
X83730345Y-74535977D01*
X83902402Y-74650941D01*
X84093580Y-74730130D01*
X84296530Y-74770499D01*
X84296534Y-74770500D01*
X84296535Y-74770500D01*
X84503466Y-74770500D01*
X84503467Y-74770499D01*
X84706420Y-74730130D01*
X84897598Y-74650941D01*
X85069655Y-74535977D01*
X85215977Y-74389655D01*
X85330941Y-74217598D01*
X85410130Y-74026420D01*
X85450500Y-73823465D01*
X85450500Y-73616535D01*
X85410130Y-73413580D01*
X85330941Y-73222402D01*
X85215977Y-73050345D01*
X85215975Y-73050342D01*
X85069657Y-72904024D01*
X84983626Y-72846541D01*
X84897598Y-72789059D01*
X84706420Y-72709870D01*
X84706412Y-72709868D01*
X84503469Y-72669500D01*
X84503465Y-72669500D01*
X84296535Y-72669500D01*
X84296530Y-72669500D01*
X84093587Y-72709868D01*
X84093579Y-72709870D01*
X83902403Y-72789058D01*
X83730342Y-72904024D01*
X83584024Y-73050342D01*
X83469058Y-73222403D01*
X83389870Y-73413579D01*
X83389868Y-73413587D01*
X83349500Y-73616530D01*
X60050499Y-73616530D01*
X60010130Y-73413580D01*
X59930941Y-73222402D01*
X59815977Y-73050345D01*
X59815975Y-73050342D01*
X59669657Y-72904024D01*
X59583626Y-72846541D01*
X59497598Y-72789059D01*
X59306420Y-72709870D01*
X59306412Y-72709868D01*
X59103469Y-72669500D01*
X59103465Y-72669500D01*
X58896535Y-72669500D01*
X58896530Y-72669500D01*
X58693587Y-72709868D01*
X58693579Y-72709870D01*
X58502403Y-72789058D01*
X58330342Y-72904024D01*
X58184024Y-73050342D01*
X58069058Y-73222403D01*
X57989870Y-73413579D01*
X57989868Y-73413587D01*
X57949500Y-73616530D01*
X49448530Y-73616530D01*
X49430942Y-73574071D01*
X49315975Y-73402009D01*
X49169657Y-73255691D01*
X49083626Y-73198208D01*
X48997598Y-73140726D01*
X48806420Y-73061537D01*
X48806412Y-73061535D01*
X48603469Y-73021167D01*
X48603465Y-73021167D01*
X48396535Y-73021167D01*
X48396530Y-73021167D01*
X48193587Y-73061535D01*
X48193579Y-73061537D01*
X48002403Y-73140725D01*
X47830342Y-73255691D01*
X47684024Y-73402009D01*
X47569058Y-73574070D01*
X47489870Y-73765246D01*
X47489868Y-73765254D01*
X47449500Y-73968197D01*
X41900500Y-73968197D01*
X41900500Y-68885420D01*
X47150000Y-68885420D01*
X47150000Y-69097913D01*
X47183242Y-69307794D01*
X47183242Y-69307797D01*
X47248904Y-69509884D01*
X47345375Y-69699217D01*
X47384728Y-69753383D01*
X48017037Y-69121075D01*
X48034075Y-69184660D01*
X48099901Y-69298674D01*
X48192993Y-69391766D01*
X48307007Y-69457592D01*
X48370590Y-69474629D01*
X47738282Y-70106936D01*
X47738282Y-70106937D01*
X47792449Y-70146291D01*
X47981782Y-70242762D01*
X48157973Y-70300010D01*
X48215648Y-70339447D01*
X48242847Y-70403806D01*
X48230932Y-70472652D01*
X48183688Y-70524128D01*
X48167108Y-70532502D01*
X48002403Y-70600724D01*
X47830342Y-70715691D01*
X47684024Y-70862009D01*
X47569058Y-71034070D01*
X47489870Y-71225246D01*
X47489868Y-71225254D01*
X47449500Y-71428197D01*
X47449500Y-71635136D01*
X47489868Y-71838079D01*
X47489870Y-71838087D01*
X47569058Y-72029263D01*
X47684024Y-72201324D01*
X47830342Y-72347642D01*
X47830345Y-72347644D01*
X48002402Y-72462608D01*
X48193580Y-72541797D01*
X48396530Y-72582166D01*
X48396534Y-72582167D01*
X48396535Y-72582167D01*
X48603466Y-72582167D01*
X48603467Y-72582166D01*
X48806420Y-72541797D01*
X48997598Y-72462608D01*
X49169655Y-72347644D01*
X49315977Y-72201322D01*
X49430941Y-72029265D01*
X49510130Y-71838087D01*
X49550500Y-71635132D01*
X49550500Y-71428202D01*
X49510130Y-71225247D01*
X49510128Y-71225242D01*
X49465664Y-71117895D01*
X49448530Y-71076530D01*
X57949500Y-71076530D01*
X57949500Y-71283469D01*
X57989868Y-71486412D01*
X57989870Y-71486420D01*
X58069058Y-71677596D01*
X58184024Y-71849657D01*
X58330342Y-71995975D01*
X58330345Y-71995977D01*
X58502402Y-72110941D01*
X58693580Y-72190130D01*
X58896530Y-72230499D01*
X58896534Y-72230500D01*
X58896535Y-72230500D01*
X59103466Y-72230500D01*
X59103467Y-72230499D01*
X59306420Y-72190130D01*
X59497598Y-72110941D01*
X59669655Y-71995977D01*
X59815977Y-71849655D01*
X59930941Y-71677598D01*
X60010130Y-71486420D01*
X60050500Y-71283465D01*
X60050500Y-71076535D01*
X60050499Y-71076530D01*
X83349500Y-71076530D01*
X83349500Y-71283469D01*
X83389868Y-71486412D01*
X83389870Y-71486420D01*
X83469058Y-71677596D01*
X83584024Y-71849657D01*
X83730342Y-71995975D01*
X83730345Y-71995977D01*
X83902402Y-72110941D01*
X84093580Y-72190130D01*
X84296530Y-72230499D01*
X84296534Y-72230500D01*
X84296535Y-72230500D01*
X84503466Y-72230500D01*
X84503467Y-72230499D01*
X84706420Y-72190130D01*
X84897598Y-72110941D01*
X85069655Y-71995977D01*
X85215977Y-71849655D01*
X85330941Y-71677598D01*
X85410130Y-71486420D01*
X85450500Y-71283465D01*
X85450500Y-71076535D01*
X85410130Y-70873580D01*
X85330941Y-70682402D01*
X85215977Y-70510345D01*
X85215975Y-70510342D01*
X85069657Y-70364024D01*
X84973852Y-70300010D01*
X84897598Y-70249059D01*
X84706420Y-70169870D01*
X84706412Y-70169868D01*
X84503469Y-70129500D01*
X84503465Y-70129500D01*
X84296535Y-70129500D01*
X84296530Y-70129500D01*
X84093587Y-70169868D01*
X84093579Y-70169870D01*
X83902403Y-70249058D01*
X83730342Y-70364024D01*
X83584024Y-70510342D01*
X83469058Y-70682403D01*
X83389870Y-70873579D01*
X83389868Y-70873587D01*
X83349500Y-71076530D01*
X60050499Y-71076530D01*
X60010130Y-70873580D01*
X59930941Y-70682402D01*
X59815977Y-70510345D01*
X59815975Y-70510342D01*
X59669657Y-70364024D01*
X59573852Y-70300010D01*
X59497598Y-70249059D01*
X59306420Y-70169870D01*
X59306412Y-70169868D01*
X59103469Y-70129500D01*
X59103465Y-70129500D01*
X58896535Y-70129500D01*
X58896530Y-70129500D01*
X58693587Y-70169868D01*
X58693579Y-70169870D01*
X58502403Y-70249058D01*
X58330342Y-70364024D01*
X58184024Y-70510342D01*
X58069058Y-70682403D01*
X57989870Y-70873579D01*
X57989868Y-70873587D01*
X57949500Y-71076530D01*
X49448530Y-71076530D01*
X49430942Y-71034071D01*
X49315975Y-70862009D01*
X49169657Y-70715691D01*
X49083626Y-70658208D01*
X48997598Y-70600726D01*
X48997593Y-70600724D01*
X48935891Y-70575166D01*
X48832890Y-70532501D01*
X48778488Y-70488661D01*
X48756423Y-70422367D01*
X48773702Y-70354668D01*
X48824839Y-70307057D01*
X48842026Y-70300010D01*
X49018217Y-70242762D01*
X49207554Y-70146289D01*
X49261716Y-70106937D01*
X49261717Y-70106937D01*
X48629408Y-69474629D01*
X48692993Y-69457592D01*
X48807007Y-69391766D01*
X48900099Y-69298674D01*
X48965925Y-69184660D01*
X48982962Y-69121076D01*
X49615270Y-69753384D01*
X49615270Y-69753383D01*
X49654622Y-69699221D01*
X49751095Y-69509884D01*
X49816757Y-69307797D01*
X49816757Y-69307794D01*
X49850000Y-69097913D01*
X49850000Y-68885420D01*
X49816757Y-68675539D01*
X49816757Y-68675536D01*
X49782064Y-68568761D01*
X49771591Y-68536530D01*
X57949500Y-68536530D01*
X57949500Y-68743469D01*
X57989868Y-68946412D01*
X57989870Y-68946420D01*
X58069058Y-69137596D01*
X58184024Y-69309657D01*
X58330342Y-69455975D01*
X58330345Y-69455977D01*
X58502402Y-69570941D01*
X58693580Y-69650130D01*
X58896530Y-69690499D01*
X58896534Y-69690500D01*
X58896535Y-69690500D01*
X59103466Y-69690500D01*
X59103467Y-69690499D01*
X59306420Y-69650130D01*
X59497598Y-69570941D01*
X59669655Y-69455977D01*
X59815977Y-69309655D01*
X59930941Y-69137598D01*
X60010130Y-68946420D01*
X60050500Y-68743465D01*
X60050500Y-68536535D01*
X60050499Y-68536530D01*
X83349500Y-68536530D01*
X83349500Y-68743469D01*
X83389868Y-68946412D01*
X83389870Y-68946420D01*
X83469058Y-69137596D01*
X83584024Y-69309657D01*
X83730342Y-69455975D01*
X83730345Y-69455977D01*
X83902402Y-69570941D01*
X84093580Y-69650130D01*
X84296530Y-69690499D01*
X84296534Y-69690500D01*
X84296535Y-69690500D01*
X84503466Y-69690500D01*
X84503467Y-69690499D01*
X84706420Y-69650130D01*
X84897598Y-69570941D01*
X85069655Y-69455977D01*
X85215977Y-69309655D01*
X85330941Y-69137598D01*
X85410130Y-68946420D01*
X85450500Y-68743465D01*
X85450500Y-68536535D01*
X85410130Y-68333580D01*
X85330941Y-68142402D01*
X85215977Y-67970345D01*
X85215975Y-67970342D01*
X85069657Y-67824024D01*
X84944759Y-67740571D01*
X84897598Y-67709059D01*
X84818453Y-67676276D01*
X84706420Y-67629870D01*
X84706412Y-67629868D01*
X84503469Y-67589500D01*
X84503465Y-67589500D01*
X84296535Y-67589500D01*
X84296530Y-67589500D01*
X84093587Y-67629868D01*
X84093579Y-67629870D01*
X83902403Y-67709058D01*
X83730342Y-67824024D01*
X83584024Y-67970342D01*
X83469058Y-68142403D01*
X83389870Y-68333579D01*
X83389868Y-68333587D01*
X83349500Y-68536530D01*
X60050499Y-68536530D01*
X60010130Y-68333580D01*
X59930941Y-68142402D01*
X59815977Y-67970345D01*
X59815975Y-67970342D01*
X59669657Y-67824024D01*
X59544759Y-67740571D01*
X59497598Y-67709059D01*
X59418453Y-67676276D01*
X59306420Y-67629870D01*
X59306412Y-67629868D01*
X59103469Y-67589500D01*
X59103465Y-67589500D01*
X58896535Y-67589500D01*
X58896530Y-67589500D01*
X58693587Y-67629868D01*
X58693579Y-67629870D01*
X58502403Y-67709058D01*
X58330342Y-67824024D01*
X58184024Y-67970342D01*
X58069058Y-68142403D01*
X57989870Y-68333579D01*
X57989868Y-68333587D01*
X57949500Y-68536530D01*
X49771591Y-68536530D01*
X49751095Y-68473449D01*
X49654624Y-68284116D01*
X49615270Y-68229949D01*
X49615269Y-68229949D01*
X48982962Y-68862257D01*
X48965925Y-68798674D01*
X48900099Y-68684660D01*
X48807007Y-68591568D01*
X48692993Y-68525742D01*
X48629409Y-68508704D01*
X49261716Y-67876395D01*
X49207550Y-67837042D01*
X49018216Y-67740571D01*
X48842026Y-67683323D01*
X48784350Y-67643885D01*
X48757152Y-67579527D01*
X48769067Y-67510680D01*
X48816311Y-67459205D01*
X48832882Y-67450835D01*
X48997598Y-67382608D01*
X49169655Y-67267644D01*
X49315977Y-67121322D01*
X49430941Y-66949265D01*
X49510130Y-66758087D01*
X49550500Y-66555132D01*
X49550500Y-66348202D01*
X49510130Y-66145247D01*
X49471161Y-66051167D01*
X49465664Y-66037895D01*
X49448530Y-65996530D01*
X57949500Y-65996530D01*
X57949500Y-66203469D01*
X57989868Y-66406412D01*
X57989870Y-66406420D01*
X58069058Y-66597596D01*
X58184024Y-66769657D01*
X58330342Y-66915975D01*
X58330345Y-66915977D01*
X58502402Y-67030941D01*
X58693580Y-67110130D01*
X58896530Y-67150499D01*
X58896534Y-67150500D01*
X58896535Y-67150500D01*
X59103466Y-67150500D01*
X59103467Y-67150499D01*
X59306420Y-67110130D01*
X59497598Y-67030941D01*
X59669655Y-66915977D01*
X59815977Y-66769655D01*
X59930941Y-66597598D01*
X60010130Y-66406420D01*
X60050500Y-66203465D01*
X60050500Y-65996535D01*
X60050499Y-65996530D01*
X83349500Y-65996530D01*
X83349500Y-66203469D01*
X83389868Y-66406412D01*
X83389870Y-66406420D01*
X83469058Y-66597596D01*
X83584024Y-66769657D01*
X83730342Y-66915975D01*
X83730345Y-66915977D01*
X83902402Y-67030941D01*
X84093580Y-67110130D01*
X84296530Y-67150499D01*
X84296534Y-67150500D01*
X84296535Y-67150500D01*
X84503466Y-67150500D01*
X84503467Y-67150499D01*
X84706420Y-67110130D01*
X84897598Y-67030941D01*
X85069655Y-66915977D01*
X85215977Y-66769655D01*
X85330941Y-66597598D01*
X85410130Y-66406420D01*
X85450500Y-66203465D01*
X85450500Y-65996535D01*
X85410130Y-65793580D01*
X85330941Y-65602402D01*
X85215977Y-65430345D01*
X85215975Y-65430342D01*
X85069657Y-65284024D01*
X84983626Y-65226541D01*
X84897598Y-65169059D01*
X84706420Y-65089870D01*
X84706412Y-65089868D01*
X84503469Y-65049500D01*
X84503465Y-65049500D01*
X84296535Y-65049500D01*
X84296530Y-65049500D01*
X84093587Y-65089868D01*
X84093579Y-65089870D01*
X83902403Y-65169058D01*
X83730342Y-65284024D01*
X83584024Y-65430342D01*
X83469058Y-65602403D01*
X83389870Y-65793579D01*
X83389868Y-65793587D01*
X83349500Y-65996530D01*
X60050499Y-65996530D01*
X60010130Y-65793580D01*
X59930941Y-65602402D01*
X59815977Y-65430345D01*
X59815975Y-65430342D01*
X59669657Y-65284024D01*
X59583626Y-65226541D01*
X59497598Y-65169059D01*
X59306420Y-65089870D01*
X59306412Y-65089868D01*
X59103469Y-65049500D01*
X59103465Y-65049500D01*
X58896535Y-65049500D01*
X58896530Y-65049500D01*
X58693587Y-65089868D01*
X58693579Y-65089870D01*
X58502403Y-65169058D01*
X58330342Y-65284024D01*
X58184024Y-65430342D01*
X58069058Y-65602403D01*
X57989870Y-65793579D01*
X57989868Y-65793587D01*
X57949500Y-65996530D01*
X49448530Y-65996530D01*
X49430942Y-65954071D01*
X49315975Y-65782009D01*
X49169657Y-65635691D01*
X49083626Y-65578208D01*
X48997598Y-65520726D01*
X48806420Y-65441537D01*
X48806412Y-65441535D01*
X48603469Y-65401167D01*
X48603465Y-65401167D01*
X48396535Y-65401167D01*
X48396530Y-65401167D01*
X48193587Y-65441535D01*
X48193579Y-65441537D01*
X48002403Y-65520725D01*
X47830342Y-65635691D01*
X47684024Y-65782009D01*
X47569058Y-65954070D01*
X47489870Y-66145246D01*
X47489868Y-66145254D01*
X47449500Y-66348197D01*
X47449500Y-66555136D01*
X47489868Y-66758079D01*
X47489870Y-66758087D01*
X47569058Y-66949263D01*
X47684024Y-67121324D01*
X47830342Y-67267642D01*
X48002405Y-67382610D01*
X48105043Y-67425123D01*
X48167108Y-67450831D01*
X48221511Y-67494672D01*
X48243576Y-67560966D01*
X48226297Y-67628665D01*
X48175160Y-67676276D01*
X48157974Y-67683323D01*
X47981781Y-67740572D01*
X47792439Y-67837047D01*
X47738282Y-67876394D01*
X47738282Y-67876395D01*
X48370591Y-68508704D01*
X48307007Y-68525742D01*
X48192993Y-68591568D01*
X48099901Y-68684660D01*
X48034075Y-68798674D01*
X48017037Y-68862258D01*
X47384728Y-68229949D01*
X47384727Y-68229949D01*
X47345380Y-68284106D01*
X47248904Y-68473449D01*
X47183242Y-68675536D01*
X47183242Y-68675539D01*
X47150000Y-68885420D01*
X41900500Y-68885420D01*
X41900500Y-66652730D01*
X41900501Y-66652727D01*
X41900501Y-66547273D01*
X41900500Y-66547269D01*
X41900500Y-66247273D01*
X41900500Y-63808197D01*
X47449500Y-63808197D01*
X47449500Y-64015136D01*
X47489868Y-64218079D01*
X47489870Y-64218087D01*
X47569058Y-64409263D01*
X47684024Y-64581324D01*
X47830342Y-64727642D01*
X47830345Y-64727644D01*
X48002402Y-64842608D01*
X48193580Y-64921797D01*
X48396530Y-64962166D01*
X48396534Y-64962167D01*
X48396535Y-64962167D01*
X48603466Y-64962167D01*
X48603467Y-64962166D01*
X48806420Y-64921797D01*
X48997598Y-64842608D01*
X49169655Y-64727644D01*
X49315977Y-64581322D01*
X49430941Y-64409265D01*
X49510130Y-64218087D01*
X49550500Y-64015132D01*
X49550500Y-63808202D01*
X49510130Y-63605247D01*
X49510128Y-63605242D01*
X49465664Y-63497895D01*
X49448530Y-63456530D01*
X57949500Y-63456530D01*
X57949500Y-63663469D01*
X57989868Y-63866412D01*
X57989870Y-63866420D01*
X58069058Y-64057596D01*
X58184024Y-64229657D01*
X58330342Y-64375975D01*
X58330345Y-64375977D01*
X58502402Y-64490941D01*
X58693580Y-64570130D01*
X58896530Y-64610499D01*
X58896534Y-64610500D01*
X58896535Y-64610500D01*
X59103466Y-64610500D01*
X59103467Y-64610499D01*
X59306420Y-64570130D01*
X59497598Y-64490941D01*
X59669655Y-64375977D01*
X59815977Y-64229655D01*
X59930941Y-64057598D01*
X60010130Y-63866420D01*
X60050500Y-63663465D01*
X60050500Y-63456535D01*
X60050499Y-63456530D01*
X83349500Y-63456530D01*
X83349500Y-63663469D01*
X83389868Y-63866412D01*
X83389870Y-63866420D01*
X83469058Y-64057596D01*
X83584024Y-64229657D01*
X83730342Y-64375975D01*
X83730345Y-64375977D01*
X83902402Y-64490941D01*
X84093580Y-64570130D01*
X84296530Y-64610499D01*
X84296534Y-64610500D01*
X84296535Y-64610500D01*
X84503466Y-64610500D01*
X84503467Y-64610499D01*
X84706420Y-64570130D01*
X84897598Y-64490941D01*
X85069655Y-64375977D01*
X85215977Y-64229655D01*
X85330941Y-64057598D01*
X85410130Y-63866420D01*
X85450500Y-63663465D01*
X85450500Y-63456535D01*
X85410130Y-63253580D01*
X85330941Y-63062402D01*
X85215977Y-62890345D01*
X85215975Y-62890342D01*
X85069657Y-62744024D01*
X84983626Y-62686541D01*
X84897598Y-62629059D01*
X84706420Y-62549870D01*
X84706412Y-62549868D01*
X84503469Y-62509500D01*
X84503465Y-62509500D01*
X84296535Y-62509500D01*
X84296530Y-62509500D01*
X84093587Y-62549868D01*
X84093579Y-62549870D01*
X83902403Y-62629058D01*
X83730342Y-62744024D01*
X83584024Y-62890342D01*
X83469058Y-63062403D01*
X83389870Y-63253579D01*
X83389868Y-63253587D01*
X83349500Y-63456530D01*
X60050499Y-63456530D01*
X60010130Y-63253580D01*
X59930941Y-63062402D01*
X59815977Y-62890345D01*
X59815975Y-62890342D01*
X59669657Y-62744024D01*
X59583626Y-62686541D01*
X59497598Y-62629059D01*
X59306420Y-62549870D01*
X59306412Y-62549868D01*
X59103469Y-62509500D01*
X59103465Y-62509500D01*
X58896535Y-62509500D01*
X58896530Y-62509500D01*
X58693587Y-62549868D01*
X58693579Y-62549870D01*
X58502403Y-62629058D01*
X58330342Y-62744024D01*
X58184024Y-62890342D01*
X58069058Y-63062403D01*
X57989870Y-63253579D01*
X57989868Y-63253587D01*
X57949500Y-63456530D01*
X49448530Y-63456530D01*
X49430942Y-63414071D01*
X49315975Y-63242009D01*
X49169657Y-63095691D01*
X49083626Y-63038208D01*
X48997598Y-62980726D01*
X48806420Y-62901537D01*
X48806412Y-62901535D01*
X48603469Y-62861167D01*
X48603465Y-62861167D01*
X48396535Y-62861167D01*
X48396530Y-62861167D01*
X48193587Y-62901535D01*
X48193579Y-62901537D01*
X48002403Y-62980725D01*
X47830342Y-63095691D01*
X47684024Y-63242009D01*
X47569058Y-63414070D01*
X47489870Y-63605246D01*
X47489868Y-63605254D01*
X47449500Y-63808197D01*
X41900500Y-63808197D01*
X41900500Y-60501914D01*
X47449500Y-60501914D01*
X47449500Y-62241419D01*
X47461131Y-62299896D01*
X47461132Y-62299897D01*
X47505447Y-62366219D01*
X47571769Y-62410534D01*
X47571770Y-62410535D01*
X47630247Y-62422166D01*
X47630250Y-62422167D01*
X47630252Y-62422167D01*
X49369750Y-62422167D01*
X49369751Y-62422166D01*
X49384568Y-62419219D01*
X49428229Y-62410535D01*
X49428229Y-62410534D01*
X49428231Y-62410534D01*
X49494552Y-62366219D01*
X49538867Y-62299898D01*
X49538867Y-62299896D01*
X49538868Y-62299896D01*
X49550499Y-62241419D01*
X49550500Y-62241417D01*
X49550500Y-60916530D01*
X57949500Y-60916530D01*
X57949500Y-61123469D01*
X57989868Y-61326412D01*
X57989870Y-61326420D01*
X58069058Y-61517596D01*
X58184024Y-61689657D01*
X58330342Y-61835975D01*
X58330345Y-61835977D01*
X58502402Y-61950941D01*
X58693580Y-62030130D01*
X58896530Y-62070499D01*
X58896534Y-62070500D01*
X58896535Y-62070500D01*
X59103466Y-62070500D01*
X59103467Y-62070499D01*
X59306420Y-62030130D01*
X59497598Y-61950941D01*
X59669655Y-61835977D01*
X59815977Y-61689655D01*
X59930941Y-61517598D01*
X60010130Y-61326420D01*
X60050500Y-61123465D01*
X60050500Y-60916535D01*
X60050499Y-60916530D01*
X83349500Y-60916530D01*
X83349500Y-61123469D01*
X83389868Y-61326412D01*
X83389870Y-61326420D01*
X83469058Y-61517596D01*
X83584024Y-61689657D01*
X83730342Y-61835975D01*
X83730345Y-61835977D01*
X83902402Y-61950941D01*
X84093580Y-62030130D01*
X84296530Y-62070499D01*
X84296534Y-62070500D01*
X84296535Y-62070500D01*
X84503466Y-62070500D01*
X84503467Y-62070499D01*
X84706420Y-62030130D01*
X84897598Y-61950941D01*
X85069655Y-61835977D01*
X85215977Y-61689655D01*
X85330941Y-61517598D01*
X85410130Y-61326420D01*
X85450500Y-61123465D01*
X85450500Y-60916535D01*
X85410130Y-60713580D01*
X85330941Y-60522402D01*
X85215977Y-60350345D01*
X85215975Y-60350342D01*
X85069657Y-60204024D01*
X84983626Y-60146541D01*
X84897598Y-60089059D01*
X84706420Y-60009870D01*
X84706412Y-60009868D01*
X84503469Y-59969500D01*
X84503465Y-59969500D01*
X84296535Y-59969500D01*
X84296530Y-59969500D01*
X84093587Y-60009868D01*
X84093579Y-60009870D01*
X83902403Y-60089058D01*
X83730342Y-60204024D01*
X83584024Y-60350342D01*
X83469058Y-60522403D01*
X83389870Y-60713579D01*
X83389868Y-60713587D01*
X83349500Y-60916530D01*
X60050499Y-60916530D01*
X60010130Y-60713580D01*
X59930941Y-60522402D01*
X59815977Y-60350345D01*
X59815975Y-60350342D01*
X59669657Y-60204024D01*
X59583626Y-60146541D01*
X59497598Y-60089059D01*
X59306420Y-60009870D01*
X59306412Y-60009868D01*
X59103469Y-59969500D01*
X59103465Y-59969500D01*
X58896535Y-59969500D01*
X58896530Y-59969500D01*
X58693587Y-60009868D01*
X58693579Y-60009870D01*
X58502403Y-60089058D01*
X58330342Y-60204024D01*
X58184024Y-60350342D01*
X58069058Y-60522403D01*
X57989870Y-60713579D01*
X57989868Y-60713587D01*
X57949500Y-60916530D01*
X49550500Y-60916530D01*
X49550500Y-60501916D01*
X49550499Y-60501914D01*
X49538868Y-60443437D01*
X49538867Y-60443436D01*
X49494552Y-60377114D01*
X49428230Y-60332799D01*
X49428229Y-60332798D01*
X49369752Y-60321167D01*
X49369748Y-60321167D01*
X47630252Y-60321167D01*
X47630247Y-60321167D01*
X47571770Y-60332798D01*
X47571769Y-60332799D01*
X47505447Y-60377114D01*
X47461132Y-60443436D01*
X47461131Y-60443437D01*
X47449500Y-60501914D01*
X41900500Y-60501914D01*
X41900500Y-58376530D01*
X57949500Y-58376530D01*
X57949500Y-58583469D01*
X57989868Y-58786412D01*
X57989870Y-58786420D01*
X58069058Y-58977596D01*
X58184024Y-59149657D01*
X58330342Y-59295975D01*
X58330345Y-59295977D01*
X58502402Y-59410941D01*
X58693580Y-59490130D01*
X58896530Y-59530499D01*
X58896534Y-59530500D01*
X58896535Y-59530500D01*
X59103466Y-59530500D01*
X59103467Y-59530499D01*
X59306420Y-59490130D01*
X59497598Y-59410941D01*
X59669655Y-59295977D01*
X59815977Y-59149655D01*
X59930941Y-58977598D01*
X60010130Y-58786420D01*
X60050500Y-58583465D01*
X60050500Y-58376535D01*
X60050499Y-58376530D01*
X83349500Y-58376530D01*
X83349500Y-58583469D01*
X83389868Y-58786412D01*
X83389870Y-58786420D01*
X83469058Y-58977596D01*
X83584024Y-59149657D01*
X83730342Y-59295975D01*
X83730345Y-59295977D01*
X83902402Y-59410941D01*
X84093580Y-59490130D01*
X84296530Y-59530499D01*
X84296534Y-59530500D01*
X84296535Y-59530500D01*
X84503466Y-59530500D01*
X84503467Y-59530499D01*
X84706420Y-59490130D01*
X84897598Y-59410941D01*
X85069655Y-59295977D01*
X85215977Y-59149655D01*
X85330941Y-58977598D01*
X85410130Y-58786420D01*
X85450500Y-58583465D01*
X85450500Y-58376535D01*
X85410130Y-58173580D01*
X85330941Y-57982402D01*
X85215977Y-57810345D01*
X85215975Y-57810342D01*
X85069657Y-57664024D01*
X84983626Y-57606541D01*
X84897598Y-57549059D01*
X84706420Y-57469870D01*
X84706412Y-57469868D01*
X84503469Y-57429500D01*
X84503465Y-57429500D01*
X84296535Y-57429500D01*
X84296530Y-57429500D01*
X84093587Y-57469868D01*
X84093579Y-57469870D01*
X83902403Y-57549058D01*
X83730342Y-57664024D01*
X83584024Y-57810342D01*
X83469058Y-57982403D01*
X83389870Y-58173579D01*
X83389868Y-58173587D01*
X83349500Y-58376530D01*
X60050499Y-58376530D01*
X60010130Y-58173580D01*
X59930941Y-57982402D01*
X59815977Y-57810345D01*
X59815975Y-57810342D01*
X59669657Y-57664024D01*
X59583626Y-57606541D01*
X59497598Y-57549059D01*
X59306420Y-57469870D01*
X59306412Y-57469868D01*
X59103469Y-57429500D01*
X59103465Y-57429500D01*
X58896535Y-57429500D01*
X58896530Y-57429500D01*
X58693587Y-57469868D01*
X58693579Y-57469870D01*
X58502403Y-57549058D01*
X58330342Y-57664024D01*
X58184024Y-57810342D01*
X58069058Y-57982403D01*
X57989870Y-58173579D01*
X57989868Y-58173587D01*
X57949500Y-58376530D01*
X41900500Y-58376530D01*
X41900500Y-56584863D01*
X47449500Y-56584863D01*
X47449500Y-56791802D01*
X47489868Y-56994745D01*
X47489870Y-56994753D01*
X47569058Y-57185929D01*
X47684024Y-57357990D01*
X47830342Y-57504308D01*
X47830345Y-57504310D01*
X48002402Y-57619274D01*
X48193580Y-57698463D01*
X48396530Y-57738832D01*
X48396534Y-57738833D01*
X48396535Y-57738833D01*
X48603466Y-57738833D01*
X48603467Y-57738832D01*
X48806420Y-57698463D01*
X48997598Y-57619274D01*
X49169655Y-57504310D01*
X49315977Y-57357988D01*
X49430941Y-57185931D01*
X49510130Y-56994753D01*
X49550500Y-56791798D01*
X49550500Y-56584868D01*
X49510130Y-56381913D01*
X49430941Y-56190735D01*
X49315977Y-56018678D01*
X49315975Y-56018675D01*
X49169657Y-55872357D01*
X49116037Y-55836530D01*
X57949500Y-55836530D01*
X57949500Y-56043469D01*
X57989868Y-56246412D01*
X57989870Y-56246420D01*
X58069058Y-56437596D01*
X58184024Y-56609657D01*
X58330342Y-56755975D01*
X58330345Y-56755977D01*
X58502402Y-56870941D01*
X58693580Y-56950130D01*
X58896530Y-56990499D01*
X58896534Y-56990500D01*
X58896535Y-56990500D01*
X59103466Y-56990500D01*
X59103467Y-56990499D01*
X59306420Y-56950130D01*
X59497598Y-56870941D01*
X59669655Y-56755977D01*
X59815977Y-56609655D01*
X59930941Y-56437598D01*
X60010130Y-56246420D01*
X60050500Y-56043465D01*
X60050500Y-55836535D01*
X60050499Y-55836530D01*
X83349500Y-55836530D01*
X83349500Y-56043469D01*
X83389868Y-56246412D01*
X83389870Y-56246420D01*
X83469058Y-56437596D01*
X83584024Y-56609657D01*
X83730342Y-56755975D01*
X83730345Y-56755977D01*
X83902402Y-56870941D01*
X84093580Y-56950130D01*
X84296530Y-56990499D01*
X84296534Y-56990500D01*
X84296535Y-56990500D01*
X84503466Y-56990500D01*
X84503467Y-56990499D01*
X84706420Y-56950130D01*
X84897598Y-56870941D01*
X85069655Y-56755977D01*
X85215977Y-56609655D01*
X85330941Y-56437598D01*
X85410130Y-56246420D01*
X85450500Y-56043465D01*
X85450500Y-55836535D01*
X85410130Y-55633580D01*
X85330941Y-55442402D01*
X85215977Y-55270345D01*
X85215975Y-55270342D01*
X85069657Y-55124024D01*
X84983626Y-55066541D01*
X84897598Y-55009059D01*
X84706420Y-54929870D01*
X84706412Y-54929868D01*
X84503469Y-54889500D01*
X84503465Y-54889500D01*
X84296535Y-54889500D01*
X84296530Y-54889500D01*
X84093587Y-54929868D01*
X84093579Y-54929870D01*
X83902403Y-55009058D01*
X83730342Y-55124024D01*
X83584024Y-55270342D01*
X83469058Y-55442403D01*
X83389870Y-55633579D01*
X83389868Y-55633587D01*
X83349500Y-55836530D01*
X60050499Y-55836530D01*
X60010130Y-55633580D01*
X59930941Y-55442402D01*
X59815977Y-55270345D01*
X59815975Y-55270342D01*
X59669657Y-55124024D01*
X59583626Y-55066541D01*
X59497598Y-55009059D01*
X59306420Y-54929870D01*
X59306412Y-54929868D01*
X59103469Y-54889500D01*
X59103465Y-54889500D01*
X58896535Y-54889500D01*
X58896530Y-54889500D01*
X58693587Y-54929868D01*
X58693579Y-54929870D01*
X58502403Y-55009058D01*
X58330342Y-55124024D01*
X58184024Y-55270342D01*
X58069058Y-55442403D01*
X57989870Y-55633579D01*
X57989868Y-55633587D01*
X57949500Y-55836530D01*
X49116037Y-55836530D01*
X49083626Y-55814874D01*
X48997598Y-55757392D01*
X48806420Y-55678203D01*
X48806412Y-55678201D01*
X48603469Y-55637833D01*
X48603465Y-55637833D01*
X48396535Y-55637833D01*
X48396530Y-55637833D01*
X48193587Y-55678201D01*
X48193579Y-55678203D01*
X48002403Y-55757391D01*
X47830342Y-55872357D01*
X47684024Y-56018675D01*
X47569058Y-56190736D01*
X47489870Y-56381912D01*
X47489868Y-56381920D01*
X47449500Y-56584863D01*
X41900500Y-56584863D01*
X41900500Y-51502086D01*
X47150000Y-51502086D01*
X47150000Y-51714579D01*
X47183242Y-51924460D01*
X47183242Y-51924463D01*
X47248904Y-52126550D01*
X47345375Y-52315883D01*
X47384728Y-52370049D01*
X48017037Y-51737741D01*
X48034075Y-51801326D01*
X48099901Y-51915340D01*
X48192993Y-52008432D01*
X48307007Y-52074258D01*
X48370590Y-52091295D01*
X47738282Y-52723602D01*
X47738282Y-52723603D01*
X47792449Y-52762957D01*
X47981782Y-52859428D01*
X48157973Y-52916676D01*
X48215648Y-52956113D01*
X48242847Y-53020472D01*
X48230932Y-53089318D01*
X48183688Y-53140794D01*
X48167108Y-53149168D01*
X48002403Y-53217390D01*
X47830342Y-53332357D01*
X47684024Y-53478675D01*
X47569058Y-53650736D01*
X47489870Y-53841912D01*
X47489868Y-53841920D01*
X47449500Y-54044863D01*
X47449500Y-54251802D01*
X47489868Y-54454745D01*
X47489870Y-54454753D01*
X47569058Y-54645929D01*
X47684024Y-54817990D01*
X47830342Y-54964308D01*
X47830345Y-54964310D01*
X48002402Y-55079274D01*
X48193580Y-55158463D01*
X48396530Y-55198832D01*
X48396534Y-55198833D01*
X48396535Y-55198833D01*
X48603466Y-55198833D01*
X48603467Y-55198832D01*
X48806420Y-55158463D01*
X48997598Y-55079274D01*
X49169655Y-54964310D01*
X49315977Y-54817988D01*
X49430941Y-54645931D01*
X49510130Y-54454753D01*
X49550500Y-54251798D01*
X49550500Y-54044868D01*
X49510130Y-53841913D01*
X49430941Y-53650735D01*
X49315977Y-53478678D01*
X49315975Y-53478675D01*
X49169657Y-53332357D01*
X49116037Y-53296530D01*
X57949500Y-53296530D01*
X57949500Y-53503469D01*
X57989868Y-53706412D01*
X57989870Y-53706420D01*
X58069058Y-53897596D01*
X58184024Y-54069657D01*
X58330342Y-54215975D01*
X58330345Y-54215977D01*
X58502402Y-54330941D01*
X58693580Y-54410130D01*
X58896530Y-54450499D01*
X58896534Y-54450500D01*
X58896535Y-54450500D01*
X59103466Y-54450500D01*
X59103467Y-54450499D01*
X59306420Y-54410130D01*
X59497598Y-54330941D01*
X59669655Y-54215977D01*
X59815977Y-54069655D01*
X59930941Y-53897598D01*
X60010130Y-53706420D01*
X60050500Y-53503465D01*
X60050500Y-53296535D01*
X60050499Y-53296530D01*
X83349500Y-53296530D01*
X83349500Y-53503469D01*
X83389868Y-53706412D01*
X83389870Y-53706420D01*
X83469058Y-53897596D01*
X83584024Y-54069657D01*
X83730342Y-54215975D01*
X83730345Y-54215977D01*
X83902402Y-54330941D01*
X84093580Y-54410130D01*
X84296530Y-54450499D01*
X84296534Y-54450500D01*
X84296535Y-54450500D01*
X84503466Y-54450500D01*
X84503467Y-54450499D01*
X84706420Y-54410130D01*
X84897598Y-54330941D01*
X85069655Y-54215977D01*
X85215977Y-54069655D01*
X85330941Y-53897598D01*
X85410130Y-53706420D01*
X85450500Y-53503465D01*
X85450500Y-53296535D01*
X85410130Y-53093580D01*
X85330941Y-52902402D01*
X85215977Y-52730345D01*
X85215975Y-52730342D01*
X85069657Y-52584024D01*
X84983626Y-52526541D01*
X84897598Y-52469059D01*
X84706420Y-52389870D01*
X84706412Y-52389868D01*
X84503469Y-52349500D01*
X84503465Y-52349500D01*
X84296535Y-52349500D01*
X84296530Y-52349500D01*
X84093587Y-52389868D01*
X84093579Y-52389870D01*
X83902403Y-52469058D01*
X83730342Y-52584024D01*
X83584024Y-52730342D01*
X83469058Y-52902403D01*
X83389870Y-53093579D01*
X83389868Y-53093587D01*
X83349500Y-53296530D01*
X60050499Y-53296530D01*
X60010130Y-53093580D01*
X59930941Y-52902402D01*
X59815977Y-52730345D01*
X59815975Y-52730342D01*
X59669657Y-52584024D01*
X59583626Y-52526541D01*
X59497598Y-52469059D01*
X59306420Y-52389870D01*
X59306412Y-52389868D01*
X59103469Y-52349500D01*
X59103465Y-52349500D01*
X58896535Y-52349500D01*
X58896530Y-52349500D01*
X58693587Y-52389868D01*
X58693579Y-52389870D01*
X58502403Y-52469058D01*
X58330342Y-52584024D01*
X58184024Y-52730342D01*
X58069058Y-52902403D01*
X57989870Y-53093579D01*
X57989868Y-53093587D01*
X57949500Y-53296530D01*
X49116037Y-53296530D01*
X49083626Y-53274874D01*
X48997598Y-53217392D01*
X48997593Y-53217390D01*
X48935891Y-53191832D01*
X48832890Y-53149167D01*
X48778488Y-53105327D01*
X48756423Y-53039033D01*
X48773702Y-52971334D01*
X48824839Y-52923723D01*
X48842026Y-52916676D01*
X49018217Y-52859428D01*
X49207554Y-52762955D01*
X49261716Y-52723603D01*
X49261717Y-52723603D01*
X48629408Y-52091295D01*
X48692993Y-52074258D01*
X48807007Y-52008432D01*
X48900099Y-51915340D01*
X48965925Y-51801326D01*
X48982962Y-51737741D01*
X49615270Y-52370050D01*
X49615270Y-52370049D01*
X49654622Y-52315887D01*
X49751095Y-52126550D01*
X49816757Y-51924463D01*
X49816757Y-51924460D01*
X49850000Y-51714579D01*
X49850000Y-51502086D01*
X49816757Y-51292205D01*
X49816757Y-51292202D01*
X49751095Y-51090115D01*
X49654623Y-50900780D01*
X49654621Y-50900776D01*
X49615271Y-50846615D01*
X49615269Y-50846615D01*
X48982962Y-51478923D01*
X48965925Y-51415340D01*
X48900099Y-51301326D01*
X48807007Y-51208234D01*
X48692993Y-51142408D01*
X48629409Y-51125370D01*
X48998248Y-50756530D01*
X57949500Y-50756530D01*
X57949500Y-50963469D01*
X57989868Y-51166412D01*
X57989870Y-51166420D01*
X58069058Y-51357596D01*
X58184024Y-51529657D01*
X58330342Y-51675975D01*
X58330345Y-51675977D01*
X58502402Y-51790941D01*
X58693580Y-51870130D01*
X58896530Y-51910499D01*
X58896534Y-51910500D01*
X58896535Y-51910500D01*
X59103466Y-51910500D01*
X59103467Y-51910499D01*
X59306420Y-51870130D01*
X59497598Y-51790941D01*
X59669655Y-51675977D01*
X59815977Y-51529655D01*
X59930941Y-51357598D01*
X60010130Y-51166420D01*
X60050500Y-50963465D01*
X60050500Y-50756535D01*
X60050499Y-50756530D01*
X83349500Y-50756530D01*
X83349500Y-50963469D01*
X83389868Y-51166412D01*
X83389870Y-51166420D01*
X83469058Y-51357596D01*
X83584024Y-51529657D01*
X83730342Y-51675975D01*
X83730345Y-51675977D01*
X83902402Y-51790941D01*
X84093580Y-51870130D01*
X84296530Y-51910499D01*
X84296534Y-51910500D01*
X84296535Y-51910500D01*
X84503466Y-51910500D01*
X84503467Y-51910499D01*
X84706420Y-51870130D01*
X84897598Y-51790941D01*
X85069655Y-51675977D01*
X85215977Y-51529655D01*
X85330941Y-51357598D01*
X85410130Y-51166420D01*
X85450500Y-50963465D01*
X85450500Y-50756535D01*
X85410130Y-50553580D01*
X85330941Y-50362402D01*
X85215977Y-50190345D01*
X85215975Y-50190342D01*
X85069657Y-50044024D01*
X84983626Y-49986541D01*
X84897598Y-49929059D01*
X84706420Y-49849870D01*
X84706412Y-49849868D01*
X84503469Y-49809500D01*
X84503465Y-49809500D01*
X84296535Y-49809500D01*
X84296530Y-49809500D01*
X84093587Y-49849868D01*
X84093579Y-49849870D01*
X83902403Y-49929058D01*
X83730342Y-50044024D01*
X83584024Y-50190342D01*
X83469058Y-50362403D01*
X83389870Y-50553579D01*
X83389868Y-50553587D01*
X83349500Y-50756530D01*
X60050499Y-50756530D01*
X60010130Y-50553580D01*
X59930941Y-50362402D01*
X59815977Y-50190345D01*
X59815975Y-50190342D01*
X59669657Y-50044024D01*
X59583626Y-49986541D01*
X59497598Y-49929059D01*
X59306420Y-49849870D01*
X59306412Y-49849868D01*
X59103469Y-49809500D01*
X59103465Y-49809500D01*
X58896535Y-49809500D01*
X58896530Y-49809500D01*
X58693587Y-49849868D01*
X58693579Y-49849870D01*
X58502403Y-49929058D01*
X58330342Y-50044024D01*
X58184024Y-50190342D01*
X58069058Y-50362403D01*
X57989870Y-50553579D01*
X57989868Y-50553587D01*
X57949500Y-50756530D01*
X48998248Y-50756530D01*
X49261716Y-50493061D01*
X49207550Y-50453708D01*
X49018216Y-50357237D01*
X48842026Y-50299989D01*
X48784350Y-50260551D01*
X48757152Y-50196193D01*
X48769067Y-50127346D01*
X48816311Y-50075871D01*
X48832882Y-50067501D01*
X48997598Y-49999274D01*
X49169655Y-49884310D01*
X49315977Y-49737988D01*
X49430941Y-49565931D01*
X49510130Y-49374753D01*
X49550500Y-49171798D01*
X49550500Y-48964868D01*
X49510130Y-48761913D01*
X49430941Y-48570735D01*
X49315977Y-48398678D01*
X49315976Y-48398677D01*
X49315975Y-48398675D01*
X49169657Y-48252357D01*
X49116037Y-48216530D01*
X57949500Y-48216530D01*
X57949500Y-48423469D01*
X57989868Y-48626412D01*
X57989870Y-48626420D01*
X58069058Y-48817596D01*
X58184024Y-48989657D01*
X58330342Y-49135975D01*
X58330345Y-49135977D01*
X58502402Y-49250941D01*
X58693580Y-49330130D01*
X58896530Y-49370499D01*
X58896534Y-49370500D01*
X58896535Y-49370500D01*
X59103466Y-49370500D01*
X59103467Y-49370499D01*
X59306420Y-49330130D01*
X59497598Y-49250941D01*
X59669655Y-49135977D01*
X59815977Y-48989655D01*
X59930941Y-48817598D01*
X60010130Y-48626420D01*
X60050500Y-48423465D01*
X60050500Y-48216535D01*
X60050499Y-48216530D01*
X83349500Y-48216530D01*
X83349500Y-48423469D01*
X83389868Y-48626412D01*
X83389870Y-48626420D01*
X83469058Y-48817596D01*
X83584024Y-48989657D01*
X83730342Y-49135975D01*
X83730345Y-49135977D01*
X83902402Y-49250941D01*
X84093580Y-49330130D01*
X84296530Y-49370499D01*
X84296534Y-49370500D01*
X84296535Y-49370500D01*
X84503466Y-49370500D01*
X84503467Y-49370499D01*
X84706420Y-49330130D01*
X84897598Y-49250941D01*
X85069655Y-49135977D01*
X85215977Y-48989655D01*
X85330941Y-48817598D01*
X85410130Y-48626420D01*
X85450500Y-48423465D01*
X85450500Y-48216535D01*
X85410130Y-48013580D01*
X85330941Y-47822402D01*
X85215977Y-47650345D01*
X85215975Y-47650342D01*
X85069657Y-47504024D01*
X84983626Y-47446541D01*
X84897598Y-47389059D01*
X84706420Y-47309870D01*
X84706412Y-47309868D01*
X84503469Y-47269500D01*
X84503465Y-47269500D01*
X84296535Y-47269500D01*
X84296530Y-47269500D01*
X84093587Y-47309868D01*
X84093579Y-47309870D01*
X83902403Y-47389058D01*
X83730342Y-47504024D01*
X83584024Y-47650342D01*
X83469058Y-47822403D01*
X83389870Y-48013579D01*
X83389868Y-48013587D01*
X83349500Y-48216530D01*
X60050499Y-48216530D01*
X60010130Y-48013580D01*
X59930941Y-47822402D01*
X59815977Y-47650345D01*
X59815975Y-47650342D01*
X59669657Y-47504024D01*
X59583626Y-47446541D01*
X59497598Y-47389059D01*
X59306420Y-47309870D01*
X59306412Y-47309868D01*
X59103469Y-47269500D01*
X59103465Y-47269500D01*
X58896535Y-47269500D01*
X58896530Y-47269500D01*
X58693587Y-47309868D01*
X58693579Y-47309870D01*
X58502403Y-47389058D01*
X58330342Y-47504024D01*
X58184024Y-47650342D01*
X58069058Y-47822403D01*
X57989870Y-48013579D01*
X57989868Y-48013587D01*
X57949500Y-48216530D01*
X49116037Y-48216530D01*
X49083626Y-48194874D01*
X48997598Y-48137392D01*
X48806420Y-48058203D01*
X48806412Y-48058201D01*
X48603469Y-48017833D01*
X48603465Y-48017833D01*
X48396535Y-48017833D01*
X48396530Y-48017833D01*
X48193587Y-48058201D01*
X48193579Y-48058203D01*
X48002403Y-48137391D01*
X47830342Y-48252357D01*
X47684024Y-48398675D01*
X47569058Y-48570736D01*
X47489870Y-48761912D01*
X47489868Y-48761920D01*
X47449500Y-48964863D01*
X47449500Y-49171802D01*
X47489868Y-49374745D01*
X47489870Y-49374753D01*
X47569058Y-49565929D01*
X47684024Y-49737990D01*
X47830342Y-49884308D01*
X48002405Y-49999276D01*
X48105043Y-50041789D01*
X48167108Y-50067497D01*
X48221511Y-50111338D01*
X48243576Y-50177632D01*
X48226297Y-50245331D01*
X48175160Y-50292942D01*
X48157974Y-50299989D01*
X47981781Y-50357238D01*
X47792439Y-50453713D01*
X47738282Y-50493060D01*
X47738282Y-50493061D01*
X48370591Y-51125370D01*
X48307007Y-51142408D01*
X48192993Y-51208234D01*
X48099901Y-51301326D01*
X48034075Y-51415340D01*
X48017037Y-51478924D01*
X47384728Y-50846615D01*
X47384727Y-50846615D01*
X47345380Y-50900772D01*
X47248904Y-51090115D01*
X47183242Y-51292202D01*
X47183242Y-51292205D01*
X47150000Y-51502086D01*
X41900500Y-51502086D01*
X41900500Y-48747273D01*
X41900500Y-46424863D01*
X47449500Y-46424863D01*
X47449500Y-46631802D01*
X47489868Y-46834745D01*
X47489870Y-46834753D01*
X47569058Y-47025929D01*
X47684024Y-47197990D01*
X47830342Y-47344308D01*
X47830345Y-47344310D01*
X48002402Y-47459274D01*
X48193580Y-47538463D01*
X48396530Y-47578832D01*
X48396534Y-47578833D01*
X48396535Y-47578833D01*
X48603466Y-47578833D01*
X48603467Y-47578832D01*
X48806420Y-47538463D01*
X48997598Y-47459274D01*
X49169655Y-47344310D01*
X49315977Y-47197988D01*
X49430941Y-47025931D01*
X49510130Y-46834753D01*
X49550500Y-46631798D01*
X49550500Y-46424868D01*
X49510130Y-46221913D01*
X49430941Y-46030735D01*
X49315977Y-45858678D01*
X49315975Y-45858675D01*
X49169657Y-45712357D01*
X49116037Y-45676530D01*
X57949500Y-45676530D01*
X57949500Y-45883469D01*
X57989868Y-46086412D01*
X57989870Y-46086420D01*
X58069058Y-46277596D01*
X58184024Y-46449657D01*
X58330342Y-46595975D01*
X58330345Y-46595977D01*
X58502402Y-46710941D01*
X58693580Y-46790130D01*
X58896530Y-46830499D01*
X58896534Y-46830500D01*
X58896535Y-46830500D01*
X59103466Y-46830500D01*
X59103467Y-46830499D01*
X59306420Y-46790130D01*
X59497598Y-46710941D01*
X59669655Y-46595977D01*
X59815977Y-46449655D01*
X59930941Y-46277598D01*
X60010130Y-46086420D01*
X60050500Y-45883465D01*
X60050500Y-45676535D01*
X60050499Y-45676530D01*
X83349500Y-45676530D01*
X83349500Y-45883469D01*
X83389868Y-46086412D01*
X83389870Y-46086420D01*
X83469058Y-46277596D01*
X83584024Y-46449657D01*
X83730342Y-46595975D01*
X83730345Y-46595977D01*
X83902402Y-46710941D01*
X84093580Y-46790130D01*
X84296530Y-46830499D01*
X84296534Y-46830500D01*
X84296535Y-46830500D01*
X84503466Y-46830500D01*
X84503467Y-46830499D01*
X84706420Y-46790130D01*
X84897598Y-46710941D01*
X85069655Y-46595977D01*
X85215977Y-46449655D01*
X85330941Y-46277598D01*
X85410130Y-46086420D01*
X85450500Y-45883465D01*
X85450500Y-45676535D01*
X85410130Y-45473580D01*
X85330941Y-45282402D01*
X85215977Y-45110345D01*
X85215975Y-45110342D01*
X85069657Y-44964024D01*
X84911100Y-44858081D01*
X84897598Y-44849059D01*
X84706420Y-44769870D01*
X84706412Y-44769868D01*
X84503469Y-44729500D01*
X84503465Y-44729500D01*
X84296535Y-44729500D01*
X84296530Y-44729500D01*
X84093587Y-44769868D01*
X84093579Y-44769870D01*
X83902403Y-44849058D01*
X83730342Y-44964024D01*
X83584024Y-45110342D01*
X83469058Y-45282403D01*
X83389870Y-45473579D01*
X83389868Y-45473587D01*
X83349500Y-45676530D01*
X60050499Y-45676530D01*
X60010130Y-45473580D01*
X59930941Y-45282402D01*
X59815977Y-45110345D01*
X59815975Y-45110342D01*
X59669657Y-44964024D01*
X59511100Y-44858081D01*
X59497598Y-44849059D01*
X59306420Y-44769870D01*
X59306412Y-44769868D01*
X59103469Y-44729500D01*
X59103465Y-44729500D01*
X58896535Y-44729500D01*
X58896530Y-44729500D01*
X58693587Y-44769868D01*
X58693579Y-44769870D01*
X58502403Y-44849058D01*
X58330342Y-44964024D01*
X58184024Y-45110342D01*
X58069058Y-45282403D01*
X57989870Y-45473579D01*
X57989868Y-45473587D01*
X57949500Y-45676530D01*
X49116037Y-45676530D01*
X49083626Y-45654874D01*
X48997598Y-45597392D01*
X48806420Y-45518203D01*
X48806412Y-45518201D01*
X48603469Y-45477833D01*
X48603465Y-45477833D01*
X48396535Y-45477833D01*
X48396530Y-45477833D01*
X48193587Y-45518201D01*
X48193579Y-45518203D01*
X48002403Y-45597391D01*
X47830342Y-45712357D01*
X47684024Y-45858675D01*
X47569058Y-46030736D01*
X47489870Y-46221912D01*
X47489868Y-46221920D01*
X47449500Y-46424863D01*
X41900500Y-46424863D01*
X41900500Y-43118580D01*
X47449500Y-43118580D01*
X47449500Y-44858085D01*
X47461131Y-44916562D01*
X47461132Y-44916563D01*
X47505447Y-44982885D01*
X47571769Y-45027200D01*
X47571770Y-45027201D01*
X47630247Y-45038832D01*
X47630250Y-45038833D01*
X47630252Y-45038833D01*
X49369750Y-45038833D01*
X49369751Y-45038832D01*
X49384568Y-45035885D01*
X49428229Y-45027201D01*
X49428229Y-45027200D01*
X49428231Y-45027200D01*
X49494552Y-44982885D01*
X49538867Y-44916564D01*
X49538867Y-44916562D01*
X49538868Y-44916562D01*
X49550499Y-44858085D01*
X49550500Y-44858083D01*
X49550500Y-43136530D01*
X57949500Y-43136530D01*
X57949500Y-43343469D01*
X57989868Y-43546412D01*
X57989870Y-43546420D01*
X58069058Y-43737596D01*
X58184024Y-43909657D01*
X58330342Y-44055975D01*
X58330345Y-44055977D01*
X58502402Y-44170941D01*
X58693580Y-44250130D01*
X58896530Y-44290499D01*
X58896534Y-44290500D01*
X58896535Y-44290500D01*
X59103466Y-44290500D01*
X59103467Y-44290499D01*
X59306420Y-44250130D01*
X59497598Y-44170941D01*
X59669655Y-44055977D01*
X59815977Y-43909655D01*
X59930941Y-43737598D01*
X60010130Y-43546420D01*
X60050500Y-43343465D01*
X60050500Y-43136535D01*
X60050499Y-43136532D01*
X60050499Y-43136530D01*
X83349500Y-43136530D01*
X83349500Y-43343469D01*
X83389868Y-43546412D01*
X83389870Y-43546420D01*
X83469058Y-43737596D01*
X83584024Y-43909657D01*
X83730342Y-44055975D01*
X83730345Y-44055977D01*
X83902402Y-44170941D01*
X84093580Y-44250130D01*
X84296530Y-44290499D01*
X84296534Y-44290500D01*
X84296535Y-44290500D01*
X84503466Y-44290500D01*
X84503467Y-44290499D01*
X84706420Y-44250130D01*
X84897598Y-44170941D01*
X85069655Y-44055977D01*
X85215977Y-43909655D01*
X85330941Y-43737598D01*
X85410130Y-43546420D01*
X85450500Y-43343465D01*
X85450500Y-43136535D01*
X85450499Y-43136532D01*
X85450499Y-43136530D01*
X85435297Y-43060103D01*
X85410130Y-42933580D01*
X85330941Y-42742402D01*
X85215977Y-42570345D01*
X85215975Y-42570342D01*
X85069657Y-42424024D01*
X84983626Y-42366541D01*
X84897598Y-42309059D01*
X84706420Y-42229870D01*
X84706412Y-42229868D01*
X84503469Y-42189500D01*
X84503465Y-42189500D01*
X84296535Y-42189500D01*
X84296530Y-42189500D01*
X84093587Y-42229868D01*
X84093579Y-42229870D01*
X83902403Y-42309058D01*
X83730342Y-42424024D01*
X83584024Y-42570342D01*
X83469058Y-42742403D01*
X83389870Y-42933579D01*
X83389868Y-42933587D01*
X83349500Y-43136530D01*
X60050499Y-43136530D01*
X60035297Y-43060103D01*
X60010130Y-42933580D01*
X59930941Y-42742402D01*
X59815977Y-42570345D01*
X59815975Y-42570342D01*
X59669657Y-42424024D01*
X59583626Y-42366541D01*
X59497598Y-42309059D01*
X59306420Y-42229870D01*
X59306412Y-42229868D01*
X59103469Y-42189500D01*
X59103465Y-42189500D01*
X58896535Y-42189500D01*
X58896530Y-42189500D01*
X58693587Y-42229868D01*
X58693579Y-42229870D01*
X58502403Y-42309058D01*
X58330342Y-42424024D01*
X58184024Y-42570342D01*
X58069058Y-42742403D01*
X57989870Y-42933579D01*
X57989868Y-42933587D01*
X57949500Y-43136530D01*
X49550500Y-43136530D01*
X49550500Y-43118582D01*
X49550499Y-43118580D01*
X49538868Y-43060103D01*
X49538867Y-43060102D01*
X49494552Y-42993780D01*
X49428230Y-42949465D01*
X49428229Y-42949464D01*
X49369752Y-42937833D01*
X49369748Y-42937833D01*
X47630252Y-42937833D01*
X47630247Y-42937833D01*
X47571770Y-42949464D01*
X47571769Y-42949465D01*
X47505447Y-42993780D01*
X47461132Y-43060102D01*
X47461131Y-43060103D01*
X47449500Y-43118580D01*
X41900500Y-43118580D01*
X41900500Y-40596530D01*
X57949500Y-40596530D01*
X57949500Y-40803469D01*
X57989868Y-41006412D01*
X57989870Y-41006420D01*
X58069058Y-41197596D01*
X58184024Y-41369657D01*
X58330342Y-41515975D01*
X58330345Y-41515977D01*
X58502402Y-41630941D01*
X58693580Y-41710130D01*
X58896530Y-41750499D01*
X58896534Y-41750500D01*
X58896535Y-41750500D01*
X59103466Y-41750500D01*
X59103467Y-41750499D01*
X59306420Y-41710130D01*
X59497598Y-41630941D01*
X59669655Y-41515977D01*
X59815977Y-41369655D01*
X59930941Y-41197598D01*
X60010130Y-41006420D01*
X60050500Y-40803465D01*
X60050500Y-40596535D01*
X60050499Y-40596530D01*
X83349500Y-40596530D01*
X83349500Y-40803469D01*
X83389868Y-41006412D01*
X83389870Y-41006420D01*
X83469058Y-41197596D01*
X83584024Y-41369657D01*
X83730342Y-41515975D01*
X83730345Y-41515977D01*
X83902402Y-41630941D01*
X84093580Y-41710130D01*
X84296530Y-41750499D01*
X84296534Y-41750500D01*
X84296535Y-41750500D01*
X84503466Y-41750500D01*
X84503467Y-41750499D01*
X84706420Y-41710130D01*
X84897598Y-41630941D01*
X85069655Y-41515977D01*
X85215977Y-41369655D01*
X85330941Y-41197598D01*
X85410130Y-41006420D01*
X85450500Y-40803465D01*
X85450500Y-40596535D01*
X85410130Y-40393580D01*
X85330941Y-40202402D01*
X85215977Y-40030345D01*
X85215975Y-40030342D01*
X85069657Y-39884024D01*
X84983626Y-39826541D01*
X84897598Y-39769059D01*
X84706420Y-39689870D01*
X84706412Y-39689868D01*
X84503469Y-39649500D01*
X84503465Y-39649500D01*
X84296535Y-39649500D01*
X84296530Y-39649500D01*
X84093587Y-39689868D01*
X84093579Y-39689870D01*
X83902403Y-39769058D01*
X83730342Y-39884024D01*
X83584024Y-40030342D01*
X83469058Y-40202403D01*
X83389870Y-40393579D01*
X83389868Y-40393587D01*
X83349500Y-40596530D01*
X60050499Y-40596530D01*
X60010130Y-40393580D01*
X59930941Y-40202402D01*
X59815977Y-40030345D01*
X59815975Y-40030342D01*
X59669657Y-39884024D01*
X59583626Y-39826541D01*
X59497598Y-39769059D01*
X59306420Y-39689870D01*
X59306412Y-39689868D01*
X59103469Y-39649500D01*
X59103465Y-39649500D01*
X58896535Y-39649500D01*
X58896530Y-39649500D01*
X58693587Y-39689868D01*
X58693579Y-39689870D01*
X58502403Y-39769058D01*
X58330342Y-39884024D01*
X58184024Y-40030342D01*
X58069058Y-40202403D01*
X57989870Y-40393579D01*
X57989868Y-40393587D01*
X57949500Y-40596530D01*
X41900500Y-40596530D01*
X41900500Y-39296530D01*
X47449500Y-39296530D01*
X47449500Y-39503469D01*
X47489868Y-39706412D01*
X47489870Y-39706420D01*
X47569058Y-39897596D01*
X47684024Y-40069657D01*
X47830342Y-40215975D01*
X47830345Y-40215977D01*
X48002402Y-40330941D01*
X48193580Y-40410130D01*
X48396530Y-40450499D01*
X48396534Y-40450500D01*
X48396535Y-40450500D01*
X48603466Y-40450500D01*
X48603467Y-40450499D01*
X48806420Y-40410130D01*
X48997598Y-40330941D01*
X49169655Y-40215977D01*
X49315977Y-40069655D01*
X49430941Y-39897598D01*
X49510130Y-39706420D01*
X49550500Y-39503465D01*
X49550500Y-39296535D01*
X49510130Y-39093580D01*
X49430941Y-38902402D01*
X49315977Y-38730345D01*
X49315975Y-38730342D01*
X49169657Y-38584024D01*
X49083626Y-38526541D01*
X48997598Y-38469059D01*
X48806420Y-38389870D01*
X48806412Y-38389868D01*
X48603469Y-38349500D01*
X48603465Y-38349500D01*
X48396535Y-38349500D01*
X48396530Y-38349500D01*
X48193587Y-38389868D01*
X48193579Y-38389870D01*
X48002403Y-38469058D01*
X47830342Y-38584024D01*
X47684024Y-38730342D01*
X47569058Y-38902403D01*
X47489870Y-39093579D01*
X47489868Y-39093587D01*
X47449500Y-39296530D01*
X41900500Y-39296530D01*
X41900500Y-38056530D01*
X57949500Y-38056530D01*
X57949500Y-38263469D01*
X57989868Y-38466412D01*
X57989870Y-38466420D01*
X58069058Y-38657596D01*
X58184024Y-38829657D01*
X58330342Y-38975975D01*
X58330345Y-38975977D01*
X58502402Y-39090941D01*
X58693580Y-39170130D01*
X58896530Y-39210499D01*
X58896534Y-39210500D01*
X58896535Y-39210500D01*
X59103466Y-39210500D01*
X59103467Y-39210499D01*
X59306420Y-39170130D01*
X59497598Y-39090941D01*
X59669655Y-38975977D01*
X59815977Y-38829655D01*
X59930941Y-38657598D01*
X60010130Y-38466420D01*
X60050500Y-38263465D01*
X60050500Y-38056535D01*
X60050499Y-38056530D01*
X83349500Y-38056530D01*
X83349500Y-38263469D01*
X83389868Y-38466412D01*
X83389870Y-38466420D01*
X83469058Y-38657596D01*
X83584024Y-38829657D01*
X83730342Y-38975975D01*
X83730345Y-38975977D01*
X83902402Y-39090941D01*
X84093580Y-39170130D01*
X84296530Y-39210499D01*
X84296534Y-39210500D01*
X84296535Y-39210500D01*
X84503466Y-39210500D01*
X84503467Y-39210499D01*
X84706420Y-39170130D01*
X84897598Y-39090941D01*
X85069655Y-38975977D01*
X85215977Y-38829655D01*
X85330941Y-38657598D01*
X85410130Y-38466420D01*
X85450500Y-38263465D01*
X85450500Y-38056535D01*
X85410130Y-37853580D01*
X85330941Y-37662402D01*
X85215977Y-37490345D01*
X85215975Y-37490342D01*
X85069657Y-37344024D01*
X84983626Y-37286541D01*
X84897598Y-37229059D01*
X84706420Y-37149870D01*
X84706412Y-37149868D01*
X84503469Y-37109500D01*
X84503465Y-37109500D01*
X84296535Y-37109500D01*
X84296530Y-37109500D01*
X84093587Y-37149868D01*
X84093579Y-37149870D01*
X83902403Y-37229058D01*
X83730342Y-37344024D01*
X83584024Y-37490342D01*
X83469058Y-37662403D01*
X83389870Y-37853579D01*
X83389868Y-37853587D01*
X83349500Y-38056530D01*
X60050499Y-38056530D01*
X60010130Y-37853580D01*
X59930941Y-37662402D01*
X59815977Y-37490345D01*
X59815975Y-37490342D01*
X59669657Y-37344024D01*
X59583626Y-37286541D01*
X59497598Y-37229059D01*
X59306420Y-37149870D01*
X59306412Y-37149868D01*
X59103469Y-37109500D01*
X59103465Y-37109500D01*
X58896535Y-37109500D01*
X58896530Y-37109500D01*
X58693587Y-37149868D01*
X58693579Y-37149870D01*
X58502403Y-37229058D01*
X58330342Y-37344024D01*
X58184024Y-37490342D01*
X58069058Y-37662403D01*
X57989870Y-37853579D01*
X57989868Y-37853587D01*
X57949500Y-38056530D01*
X41900500Y-38056530D01*
X41900500Y-34213753D01*
X47150000Y-34213753D01*
X47150000Y-34426246D01*
X47183242Y-34636127D01*
X47183242Y-34636130D01*
X47248904Y-34838217D01*
X47345375Y-35027550D01*
X47384728Y-35081716D01*
X48017037Y-34449408D01*
X48034075Y-34512993D01*
X48099901Y-34627007D01*
X48192993Y-34720099D01*
X48307007Y-34785925D01*
X48370590Y-34802962D01*
X47738282Y-35435269D01*
X47738282Y-35435270D01*
X47792449Y-35474624D01*
X47981782Y-35571095D01*
X48157973Y-35628343D01*
X48215648Y-35667780D01*
X48242847Y-35732139D01*
X48230932Y-35800985D01*
X48183688Y-35852461D01*
X48167108Y-35860835D01*
X48002403Y-35929057D01*
X47830342Y-36044024D01*
X47684024Y-36190342D01*
X47569058Y-36362403D01*
X47489870Y-36553579D01*
X47489868Y-36553587D01*
X47449500Y-36756530D01*
X47449500Y-36963469D01*
X47489868Y-37166412D01*
X47489870Y-37166420D01*
X47569058Y-37357596D01*
X47684024Y-37529657D01*
X47830342Y-37675975D01*
X47830345Y-37675977D01*
X48002402Y-37790941D01*
X48193580Y-37870130D01*
X48396530Y-37910499D01*
X48396534Y-37910500D01*
X48396535Y-37910500D01*
X48603466Y-37910500D01*
X48603467Y-37910499D01*
X48806420Y-37870130D01*
X48997598Y-37790941D01*
X49169655Y-37675977D01*
X49315977Y-37529655D01*
X49430941Y-37357598D01*
X49510130Y-37166420D01*
X49550500Y-36963465D01*
X49550500Y-36756535D01*
X49510130Y-36553580D01*
X49430941Y-36362402D01*
X49315977Y-36190345D01*
X49315975Y-36190342D01*
X49169657Y-36044024D01*
X49083626Y-35986541D01*
X48997598Y-35929059D01*
X48997593Y-35929057D01*
X48935891Y-35903499D01*
X48832890Y-35860834D01*
X48778488Y-35816994D01*
X48756423Y-35750700D01*
X48773702Y-35683001D01*
X48824839Y-35635390D01*
X48842026Y-35628343D01*
X49018217Y-35571095D01*
X49125306Y-35516530D01*
X57949500Y-35516530D01*
X57949500Y-35723469D01*
X57989868Y-35926412D01*
X57989870Y-35926420D01*
X58069058Y-36117596D01*
X58184024Y-36289657D01*
X58330342Y-36435975D01*
X58330345Y-36435977D01*
X58502402Y-36550941D01*
X58693580Y-36630130D01*
X58896530Y-36670499D01*
X58896534Y-36670500D01*
X58896535Y-36670500D01*
X59103466Y-36670500D01*
X59103467Y-36670499D01*
X59306420Y-36630130D01*
X59497598Y-36550941D01*
X59669655Y-36435977D01*
X59815977Y-36289655D01*
X59930941Y-36117598D01*
X60010130Y-35926420D01*
X60050500Y-35723465D01*
X60050500Y-35516535D01*
X60050499Y-35516530D01*
X83349500Y-35516530D01*
X83349500Y-35723469D01*
X83389868Y-35926412D01*
X83389870Y-35926420D01*
X83469058Y-36117596D01*
X83584024Y-36289657D01*
X83730342Y-36435975D01*
X83730345Y-36435977D01*
X83902402Y-36550941D01*
X84093580Y-36630130D01*
X84296530Y-36670499D01*
X84296534Y-36670500D01*
X84296535Y-36670500D01*
X84503466Y-36670500D01*
X84503467Y-36670499D01*
X84706420Y-36630130D01*
X84897598Y-36550941D01*
X85069655Y-36435977D01*
X85215977Y-36289655D01*
X85330941Y-36117598D01*
X85410130Y-35926420D01*
X85450500Y-35723465D01*
X85450500Y-35516535D01*
X85410130Y-35313580D01*
X85330941Y-35122402D01*
X85215977Y-34950345D01*
X85215975Y-34950342D01*
X85069657Y-34804024D01*
X84944053Y-34720099D01*
X84897598Y-34689059D01*
X84706420Y-34609870D01*
X84706412Y-34609868D01*
X84503469Y-34569500D01*
X84503465Y-34569500D01*
X84296535Y-34569500D01*
X84296530Y-34569500D01*
X84093587Y-34609868D01*
X84093579Y-34609870D01*
X83902403Y-34689058D01*
X83730342Y-34804024D01*
X83584024Y-34950342D01*
X83469058Y-35122403D01*
X83389870Y-35313579D01*
X83389868Y-35313587D01*
X83349500Y-35516530D01*
X60050499Y-35516530D01*
X60010130Y-35313580D01*
X59930941Y-35122402D01*
X59815977Y-34950345D01*
X59815975Y-34950342D01*
X59669657Y-34804024D01*
X59544053Y-34720099D01*
X59497598Y-34689059D01*
X59306420Y-34609870D01*
X59306412Y-34609868D01*
X59103469Y-34569500D01*
X59103465Y-34569500D01*
X58896535Y-34569500D01*
X58896530Y-34569500D01*
X58693587Y-34609868D01*
X58693579Y-34609870D01*
X58502403Y-34689058D01*
X58330342Y-34804024D01*
X58184024Y-34950342D01*
X58069058Y-35122403D01*
X57989870Y-35313579D01*
X57989868Y-35313587D01*
X57949500Y-35516530D01*
X49125306Y-35516530D01*
X49207554Y-35474622D01*
X49261716Y-35435270D01*
X49261717Y-35435270D01*
X48629408Y-34802962D01*
X48692993Y-34785925D01*
X48807007Y-34720099D01*
X48900099Y-34627007D01*
X48965925Y-34512993D01*
X48982962Y-34449408D01*
X49615270Y-35081717D01*
X49615270Y-35081716D01*
X49654622Y-35027554D01*
X49751095Y-34838217D01*
X49816757Y-34636130D01*
X49816757Y-34636127D01*
X49850000Y-34426246D01*
X49850000Y-34213753D01*
X49816757Y-34003872D01*
X49816757Y-34003869D01*
X49751095Y-33801782D01*
X49654624Y-33612449D01*
X49615270Y-33558282D01*
X49615269Y-33558282D01*
X48982962Y-34190590D01*
X48965925Y-34127007D01*
X48900099Y-34012993D01*
X48807007Y-33919901D01*
X48692993Y-33854075D01*
X48629409Y-33837037D01*
X49261716Y-33204728D01*
X49207550Y-33165375D01*
X49049142Y-33084661D01*
X48839141Y-33010679D01*
X48811975Y-32991108D01*
X48790656Y-32976530D01*
X57949500Y-32976530D01*
X57949500Y-33183469D01*
X57989868Y-33386412D01*
X57989870Y-33386420D01*
X58069058Y-33577596D01*
X58184024Y-33749657D01*
X58330342Y-33895975D01*
X58330345Y-33895977D01*
X58502402Y-34010941D01*
X58693580Y-34090130D01*
X58896530Y-34130499D01*
X58896534Y-34130500D01*
X58896535Y-34130500D01*
X59103466Y-34130500D01*
X59103467Y-34130499D01*
X59306420Y-34090130D01*
X59497598Y-34010941D01*
X59669655Y-33895977D01*
X59815977Y-33749655D01*
X59930941Y-33577598D01*
X60010130Y-33386420D01*
X60050500Y-33183465D01*
X60050500Y-32976535D01*
X60050499Y-32976530D01*
X83349500Y-32976530D01*
X83349500Y-33183469D01*
X83389868Y-33386412D01*
X83389870Y-33386420D01*
X83469058Y-33577596D01*
X83584024Y-33749657D01*
X83730342Y-33895975D01*
X83730345Y-33895977D01*
X83902402Y-34010941D01*
X84093580Y-34090130D01*
X84296530Y-34130499D01*
X84296534Y-34130500D01*
X84296535Y-34130500D01*
X84503466Y-34130500D01*
X84503467Y-34130499D01*
X84706420Y-34090130D01*
X84897598Y-34010941D01*
X85069655Y-33895977D01*
X85215977Y-33749655D01*
X85330941Y-33577598D01*
X85410130Y-33386420D01*
X85450500Y-33183465D01*
X85450500Y-32976535D01*
X85410130Y-32773580D01*
X85330941Y-32582402D01*
X85215977Y-32410345D01*
X85215975Y-32410342D01*
X85069657Y-32264024D01*
X84917036Y-32162047D01*
X84897598Y-32149059D01*
X84791677Y-32105185D01*
X84706420Y-32069870D01*
X84706412Y-32069868D01*
X84503469Y-32029500D01*
X84503465Y-32029500D01*
X84296535Y-32029500D01*
X84296530Y-32029500D01*
X84093587Y-32069868D01*
X84093579Y-32069870D01*
X83902403Y-32149058D01*
X83730342Y-32264024D01*
X83584024Y-32410342D01*
X83469058Y-32582403D01*
X83389870Y-32773579D01*
X83389868Y-32773587D01*
X83349500Y-32976530D01*
X60050499Y-32976530D01*
X60010130Y-32773580D01*
X59930941Y-32582402D01*
X59815977Y-32410345D01*
X59815975Y-32410342D01*
X59669657Y-32264024D01*
X59517036Y-32162047D01*
X59497598Y-32149059D01*
X59391677Y-32105185D01*
X59306420Y-32069870D01*
X59306412Y-32069868D01*
X59103469Y-32029500D01*
X59103465Y-32029500D01*
X58896535Y-32029500D01*
X58896530Y-32029500D01*
X58693587Y-32069868D01*
X58693579Y-32069870D01*
X58502403Y-32149058D01*
X58330342Y-32264024D01*
X58184024Y-32410342D01*
X58069058Y-32582403D01*
X57989870Y-32773579D01*
X57989868Y-32773587D01*
X57949500Y-32976530D01*
X48790656Y-32976530D01*
X48784350Y-32972218D01*
X48783734Y-32970762D01*
X48782452Y-32969838D01*
X48770185Y-32938700D01*
X48757152Y-32907860D01*
X48757421Y-32906301D01*
X48756842Y-32904830D01*
X48763359Y-32871991D01*
X48769067Y-32839013D01*
X48770136Y-32837848D01*
X48770444Y-32836297D01*
X48793681Y-32812193D01*
X48816311Y-32787538D01*
X48818535Y-32786414D01*
X48818938Y-32785997D01*
X48819813Y-32785768D01*
X48832882Y-32779168D01*
X48997598Y-32710941D01*
X49169655Y-32595977D01*
X49315977Y-32449655D01*
X49430941Y-32277598D01*
X49510130Y-32086420D01*
X49550500Y-31883465D01*
X49550500Y-31676535D01*
X49510130Y-31473580D01*
X49430941Y-31282402D01*
X49315977Y-31110345D01*
X49315976Y-31110344D01*
X49315975Y-31110342D01*
X49169657Y-30964024D01*
X49083626Y-30906541D01*
X48997598Y-30849059D01*
X48806420Y-30769870D01*
X48806412Y-30769868D01*
X48603469Y-30729500D01*
X48603465Y-30729500D01*
X48396535Y-30729500D01*
X48396530Y-30729500D01*
X48193587Y-30769868D01*
X48193579Y-30769870D01*
X48002403Y-30849058D01*
X47830342Y-30964024D01*
X47684024Y-31110342D01*
X47569058Y-31282403D01*
X47489870Y-31473579D01*
X47489868Y-31473587D01*
X47449500Y-31676530D01*
X47449500Y-31883469D01*
X47489868Y-32086412D01*
X47489870Y-32086420D01*
X47569058Y-32277596D01*
X47684024Y-32449657D01*
X47830342Y-32595975D01*
X48002405Y-32710943D01*
X48105043Y-32753456D01*
X48167108Y-32779164D01*
X48221511Y-32823005D01*
X48243576Y-32889299D01*
X48226297Y-32956998D01*
X48175160Y-33004609D01*
X48157974Y-33011656D01*
X47981781Y-33068905D01*
X47792439Y-33165380D01*
X47738282Y-33204727D01*
X47738282Y-33204728D01*
X48370591Y-33837037D01*
X48307007Y-33854075D01*
X48192993Y-33919901D01*
X48099901Y-34012993D01*
X48034075Y-34127007D01*
X48017037Y-34190591D01*
X47384728Y-33558282D01*
X47384727Y-33558282D01*
X47345380Y-33612439D01*
X47248904Y-33801782D01*
X47183242Y-34003869D01*
X47183242Y-34003872D01*
X47150000Y-34213753D01*
X41900500Y-34213753D01*
X41900500Y-33247273D01*
X41873207Y-33145413D01*
X41873207Y-33145412D01*
X41820480Y-33054087D01*
X40130913Y-31364520D01*
X40085250Y-31338156D01*
X40039589Y-31311793D01*
X39988657Y-31298146D01*
X39937727Y-31284500D01*
X39937726Y-31284500D01*
X38998623Y-31284500D01*
X38931584Y-31264815D01*
X38895521Y-31229391D01*
X38815977Y-31110344D01*
X38669657Y-30964024D01*
X38583626Y-30906541D01*
X38497598Y-30849059D01*
X38306420Y-30769870D01*
X38306412Y-30769868D01*
X38103469Y-30729500D01*
X38103465Y-30729500D01*
X37896535Y-30729500D01*
X37896530Y-30729500D01*
X37693587Y-30769868D01*
X37693579Y-30769870D01*
X37502403Y-30849058D01*
X37330342Y-30964024D01*
X37184024Y-31110342D01*
X37069058Y-31282403D01*
X36989870Y-31473579D01*
X36989868Y-31473587D01*
X36949500Y-31676530D01*
X36949500Y-31883469D01*
X36989868Y-32086412D01*
X36989870Y-32086420D01*
X37069058Y-32277596D01*
X37184024Y-32449657D01*
X37330342Y-32595975D01*
X37502405Y-32710943D01*
X37605043Y-32753456D01*
X37667108Y-32779164D01*
X37721511Y-32823005D01*
X37743576Y-32889299D01*
X37726297Y-32956998D01*
X37675160Y-33004609D01*
X37657974Y-33011656D01*
X37481781Y-33068905D01*
X37292439Y-33165380D01*
X37238282Y-33204727D01*
X37238282Y-33204728D01*
X37870591Y-33837037D01*
X37807007Y-33854075D01*
X37692993Y-33919901D01*
X37599901Y-34012993D01*
X37534075Y-34127007D01*
X37517037Y-34190591D01*
X36884728Y-33558282D01*
X36884727Y-33558282D01*
X36845380Y-33612439D01*
X36748904Y-33801782D01*
X36683242Y-34003869D01*
X36683242Y-34003872D01*
X36650000Y-34213753D01*
X24900500Y-34213753D01*
X24900500Y-32976530D01*
X27949500Y-32976530D01*
X27949500Y-33183469D01*
X27989868Y-33386412D01*
X27989870Y-33386420D01*
X28069058Y-33577596D01*
X28184024Y-33749657D01*
X28330342Y-33895975D01*
X28330345Y-33895977D01*
X28502402Y-34010941D01*
X28693580Y-34090130D01*
X28896530Y-34130499D01*
X28896534Y-34130500D01*
X28896535Y-34130500D01*
X29103466Y-34130500D01*
X29103467Y-34130499D01*
X29306420Y-34090130D01*
X29497598Y-34010941D01*
X29669655Y-33895977D01*
X29815977Y-33749655D01*
X29930941Y-33577598D01*
X30010130Y-33386420D01*
X30050500Y-33183465D01*
X30050500Y-32976535D01*
X30010130Y-32773580D01*
X29930941Y-32582402D01*
X29815977Y-32410345D01*
X29815975Y-32410342D01*
X29669657Y-32264024D01*
X29517036Y-32162047D01*
X29497598Y-32149059D01*
X29391677Y-32105185D01*
X29306420Y-32069870D01*
X29306412Y-32069868D01*
X29103469Y-32029500D01*
X29103465Y-32029500D01*
X28896535Y-32029500D01*
X28896530Y-32029500D01*
X28693587Y-32069868D01*
X28693579Y-32069870D01*
X28502403Y-32149058D01*
X28330342Y-32264024D01*
X28184024Y-32410342D01*
X28069058Y-32582403D01*
X27989870Y-32773579D01*
X27989868Y-32773587D01*
X27949500Y-32976530D01*
X24900500Y-32976530D01*
X24900500Y-30436530D01*
X27949500Y-30436530D01*
X27949500Y-30643469D01*
X27989868Y-30846412D01*
X27989870Y-30846420D01*
X28069058Y-31037596D01*
X28184024Y-31209657D01*
X28330342Y-31355975D01*
X28330345Y-31355977D01*
X28502402Y-31470941D01*
X28693580Y-31550130D01*
X28896530Y-31590499D01*
X28896534Y-31590500D01*
X28896535Y-31590500D01*
X29103466Y-31590500D01*
X29103467Y-31590499D01*
X29306420Y-31550130D01*
X29497598Y-31470941D01*
X29669655Y-31355977D01*
X29815977Y-31209655D01*
X29930941Y-31037598D01*
X30010130Y-30846420D01*
X30050500Y-30643465D01*
X30050500Y-30436535D01*
X30050499Y-30436530D01*
X57949500Y-30436530D01*
X57949500Y-30643469D01*
X57989868Y-30846412D01*
X57989870Y-30846420D01*
X58069058Y-31037596D01*
X58184024Y-31209657D01*
X58330342Y-31355975D01*
X58330345Y-31355977D01*
X58502402Y-31470941D01*
X58693580Y-31550130D01*
X58896530Y-31590499D01*
X58896534Y-31590500D01*
X58896535Y-31590500D01*
X59103466Y-31590500D01*
X59103467Y-31590499D01*
X59306420Y-31550130D01*
X59497598Y-31470941D01*
X59669655Y-31355977D01*
X59815977Y-31209655D01*
X59930941Y-31037598D01*
X60010130Y-30846420D01*
X60050500Y-30643465D01*
X60050500Y-30436535D01*
X60010130Y-30233580D01*
X59930941Y-30042402D01*
X59815977Y-29870345D01*
X59815975Y-29870342D01*
X59669657Y-29724024D01*
X59583626Y-29666541D01*
X59497598Y-29609059D01*
X59306420Y-29529870D01*
X59306412Y-29529868D01*
X59103469Y-29489500D01*
X59103465Y-29489500D01*
X58896535Y-29489500D01*
X58896530Y-29489500D01*
X58693587Y-29529868D01*
X58693579Y-29529870D01*
X58502403Y-29609058D01*
X58330342Y-29724024D01*
X58184024Y-29870342D01*
X58069058Y-30042403D01*
X57989870Y-30233579D01*
X57989868Y-30233587D01*
X57949500Y-30436530D01*
X30050499Y-30436530D01*
X30010130Y-30233580D01*
X29930941Y-30042402D01*
X29815977Y-29870345D01*
X29815975Y-29870342D01*
X29669657Y-29724024D01*
X29583626Y-29666541D01*
X29497598Y-29609059D01*
X29306420Y-29529870D01*
X29306412Y-29529868D01*
X29103469Y-29489500D01*
X29103465Y-29489500D01*
X28896535Y-29489500D01*
X28896530Y-29489500D01*
X28693587Y-29529868D01*
X28693579Y-29529870D01*
X28502403Y-29609058D01*
X28330342Y-29724024D01*
X28184024Y-29870342D01*
X28069058Y-30042403D01*
X27989870Y-30233579D01*
X27989868Y-30233587D01*
X27949500Y-30436530D01*
X24900500Y-30436530D01*
X24900500Y-29136530D01*
X36949500Y-29136530D01*
X36949500Y-29343469D01*
X36989868Y-29546412D01*
X36989870Y-29546420D01*
X37069058Y-29737596D01*
X37184024Y-29909657D01*
X37330342Y-30055975D01*
X37330345Y-30055977D01*
X37502402Y-30170941D01*
X37693580Y-30250130D01*
X37896530Y-30290499D01*
X37896534Y-30290500D01*
X37896535Y-30290500D01*
X38103466Y-30290500D01*
X38103467Y-30290499D01*
X38306420Y-30250130D01*
X38497598Y-30170941D01*
X38669655Y-30055977D01*
X38815977Y-29909655D01*
X38930941Y-29737598D01*
X39010130Y-29546420D01*
X39050500Y-29343465D01*
X39050500Y-29136535D01*
X39050499Y-29136530D01*
X47449500Y-29136530D01*
X47449500Y-29343469D01*
X47489868Y-29546412D01*
X47489870Y-29546420D01*
X47569058Y-29737596D01*
X47684024Y-29909657D01*
X47830342Y-30055975D01*
X47830345Y-30055977D01*
X48002402Y-30170941D01*
X48193580Y-30250130D01*
X48396530Y-30290499D01*
X48396534Y-30290500D01*
X48396535Y-30290500D01*
X48603466Y-30290500D01*
X48603467Y-30290499D01*
X48806420Y-30250130D01*
X48997598Y-30170941D01*
X49169655Y-30055977D01*
X49315977Y-29909655D01*
X49430941Y-29737598D01*
X49510130Y-29546420D01*
X49550500Y-29343465D01*
X49550500Y-29136535D01*
X49510130Y-28933580D01*
X49430941Y-28742402D01*
X49315977Y-28570345D01*
X49315975Y-28570342D01*
X49169657Y-28424024D01*
X49083626Y-28366541D01*
X48997598Y-28309059D01*
X48806420Y-28229870D01*
X48806412Y-28229868D01*
X48603469Y-28189500D01*
X48603465Y-28189500D01*
X48396535Y-28189500D01*
X48396530Y-28189500D01*
X48193587Y-28229868D01*
X48193579Y-28229870D01*
X48002403Y-28309058D01*
X47830342Y-28424024D01*
X47684024Y-28570342D01*
X47569058Y-28742403D01*
X47489870Y-28933579D01*
X47489868Y-28933587D01*
X47449500Y-29136530D01*
X39050499Y-29136530D01*
X39010130Y-28933580D01*
X38930941Y-28742402D01*
X38815977Y-28570345D01*
X38815975Y-28570342D01*
X38669657Y-28424024D01*
X38583626Y-28366541D01*
X38497598Y-28309059D01*
X38306420Y-28229870D01*
X38306412Y-28229868D01*
X38103469Y-28189500D01*
X38103465Y-28189500D01*
X37896535Y-28189500D01*
X37896530Y-28189500D01*
X37693587Y-28229868D01*
X37693579Y-28229870D01*
X37502403Y-28309058D01*
X37330342Y-28424024D01*
X37184024Y-28570342D01*
X37069058Y-28742403D01*
X36989870Y-28933579D01*
X36989868Y-28933587D01*
X36949500Y-29136530D01*
X24900500Y-29136530D01*
X24900500Y-27130247D01*
X27949500Y-27130247D01*
X27949500Y-28869752D01*
X27961131Y-28928229D01*
X27961132Y-28928230D01*
X28005447Y-28994552D01*
X28071769Y-29038867D01*
X28071770Y-29038868D01*
X28130247Y-29050499D01*
X28130250Y-29050500D01*
X28130252Y-29050500D01*
X29869750Y-29050500D01*
X29869751Y-29050499D01*
X29884568Y-29047552D01*
X29928229Y-29038868D01*
X29928229Y-29038867D01*
X29928231Y-29038867D01*
X29994552Y-28994552D01*
X30038867Y-28928231D01*
X30038867Y-28928229D01*
X30038868Y-28928229D01*
X30050499Y-28869752D01*
X30050500Y-28869750D01*
X30050500Y-27130249D01*
X30050499Y-27130247D01*
X30038868Y-27071770D01*
X30038867Y-27071769D01*
X29994552Y-27005447D01*
X29928230Y-26961132D01*
X29928229Y-26961131D01*
X29869752Y-26949500D01*
X29869748Y-26949500D01*
X28130252Y-26949500D01*
X28130247Y-26949500D01*
X28071770Y-26961131D01*
X28071769Y-26961132D01*
X28005447Y-27005447D01*
X27961132Y-27071769D01*
X27961131Y-27071770D01*
X27949500Y-27130247D01*
X24900500Y-27130247D01*
X24900500Y-25830247D01*
X36949500Y-25830247D01*
X36949500Y-27569752D01*
X36961131Y-27628229D01*
X36961132Y-27628230D01*
X37005447Y-27694552D01*
X37071769Y-27738867D01*
X37071770Y-27738868D01*
X37130247Y-27750499D01*
X37130250Y-27750500D01*
X37130252Y-27750500D01*
X38869750Y-27750500D01*
X38869751Y-27750499D01*
X38884568Y-27747552D01*
X38928229Y-27738868D01*
X38928229Y-27738867D01*
X38928231Y-27738867D01*
X38994552Y-27694552D01*
X39038867Y-27628231D01*
X39038867Y-27628229D01*
X39038868Y-27628229D01*
X39050499Y-27569752D01*
X39050500Y-27569750D01*
X39050500Y-25830249D01*
X39050499Y-25830247D01*
X47449500Y-25830247D01*
X47449500Y-27569752D01*
X47461131Y-27628229D01*
X47461132Y-27628230D01*
X47505447Y-27694552D01*
X47571769Y-27738867D01*
X47571770Y-27738868D01*
X47630247Y-27750499D01*
X47630250Y-27750500D01*
X47630252Y-27750500D01*
X49369750Y-27750500D01*
X49369751Y-27750499D01*
X49384568Y-27747552D01*
X49428229Y-27738868D01*
X49428229Y-27738867D01*
X49428231Y-27738867D01*
X49494552Y-27694552D01*
X49538867Y-27628231D01*
X49538867Y-27628229D01*
X49538868Y-27628229D01*
X49550499Y-27569752D01*
X49550500Y-27569750D01*
X49550500Y-27130247D01*
X57949500Y-27130247D01*
X57949500Y-28869752D01*
X57961131Y-28928229D01*
X57961132Y-28928230D01*
X58005447Y-28994552D01*
X58071769Y-29038867D01*
X58071770Y-29038868D01*
X58130247Y-29050499D01*
X58130250Y-29050500D01*
X58130252Y-29050500D01*
X59869750Y-29050500D01*
X59869751Y-29050499D01*
X59884568Y-29047552D01*
X59928229Y-29038868D01*
X59928229Y-29038867D01*
X59928231Y-29038867D01*
X59994552Y-28994552D01*
X60038867Y-28928231D01*
X60038867Y-28928229D01*
X60038868Y-28928229D01*
X60050499Y-28869752D01*
X60050500Y-28869750D01*
X60050500Y-27130249D01*
X60050499Y-27130247D01*
X60049066Y-27123038D01*
X60049066Y-27123037D01*
X60044912Y-27102155D01*
X83050000Y-27102155D01*
X83050000Y-27750000D01*
X83966988Y-27750000D01*
X83934075Y-27807007D01*
X83900000Y-27934174D01*
X83900000Y-28065826D01*
X83934075Y-28192993D01*
X83966988Y-28250000D01*
X83050000Y-28250000D01*
X83050000Y-28897844D01*
X83056401Y-28957372D01*
X83056403Y-28957379D01*
X83106645Y-29092086D01*
X83106649Y-29092093D01*
X83192809Y-29207187D01*
X83192812Y-29207190D01*
X83307906Y-29293350D01*
X83307913Y-29293354D01*
X83442620Y-29343596D01*
X83442627Y-29343598D01*
X83502155Y-29349999D01*
X83502172Y-29350000D01*
X83904435Y-29350000D01*
X83971474Y-29369685D01*
X84017229Y-29422489D01*
X84027173Y-29491647D01*
X83998148Y-29555203D01*
X83951888Y-29588561D01*
X83902403Y-29609058D01*
X83730342Y-29724024D01*
X83584024Y-29870342D01*
X83469058Y-30042403D01*
X83389870Y-30233579D01*
X83389868Y-30233587D01*
X83349500Y-30436530D01*
X83349500Y-30643469D01*
X83389868Y-30846412D01*
X83389870Y-30846420D01*
X83469058Y-31037596D01*
X83584024Y-31209657D01*
X83730342Y-31355975D01*
X83730345Y-31355977D01*
X83902402Y-31470941D01*
X84093580Y-31550130D01*
X84296530Y-31590499D01*
X84296534Y-31590500D01*
X84296535Y-31590500D01*
X84503466Y-31590500D01*
X84503467Y-31590499D01*
X84706420Y-31550130D01*
X84897598Y-31470941D01*
X85069655Y-31355977D01*
X85215977Y-31209655D01*
X85330941Y-31037598D01*
X85410130Y-30846420D01*
X85450500Y-30643465D01*
X85450500Y-30436535D01*
X85410130Y-30233580D01*
X85330941Y-30042402D01*
X85215977Y-29870345D01*
X85215975Y-29870342D01*
X85069657Y-29724024D01*
X84983626Y-29666541D01*
X84897598Y-29609059D01*
X84848112Y-29588561D01*
X84793709Y-29544720D01*
X84771644Y-29478426D01*
X84788923Y-29410726D01*
X84840061Y-29363116D01*
X84895565Y-29350000D01*
X85297828Y-29350000D01*
X85297844Y-29349999D01*
X85357372Y-29343598D01*
X85357379Y-29343596D01*
X85492086Y-29293354D01*
X85492093Y-29293350D01*
X85607187Y-29207190D01*
X85607190Y-29207187D01*
X85693350Y-29092093D01*
X85693354Y-29092086D01*
X85743596Y-28957379D01*
X85743598Y-28957372D01*
X85749999Y-28897844D01*
X85750000Y-28897827D01*
X85750000Y-28250000D01*
X84833012Y-28250000D01*
X84865925Y-28192993D01*
X84900000Y-28065826D01*
X84900000Y-27934174D01*
X84865925Y-27807007D01*
X84833012Y-27750000D01*
X85750000Y-27750000D01*
X85750000Y-27102172D01*
X85749999Y-27102155D01*
X85743598Y-27042627D01*
X85743596Y-27042620D01*
X85693354Y-26907913D01*
X85693350Y-26907906D01*
X85607190Y-26792812D01*
X85607187Y-26792809D01*
X85492093Y-26706649D01*
X85492086Y-26706645D01*
X85357379Y-26656403D01*
X85357372Y-26656401D01*
X85297844Y-26650000D01*
X84650000Y-26650000D01*
X84650000Y-27566988D01*
X84592993Y-27534075D01*
X84465826Y-27500000D01*
X84334174Y-27500000D01*
X84207007Y-27534075D01*
X84150000Y-27566988D01*
X84150000Y-26650000D01*
X83502155Y-26650000D01*
X83442627Y-26656401D01*
X83442620Y-26656403D01*
X83307913Y-26706645D01*
X83307906Y-26706649D01*
X83192812Y-26792809D01*
X83192809Y-26792812D01*
X83106649Y-26907906D01*
X83106645Y-26907913D01*
X83056403Y-27042620D01*
X83056401Y-27042627D01*
X83050000Y-27102155D01*
X60044912Y-27102155D01*
X60038867Y-27071770D01*
X60038867Y-27071769D01*
X59994552Y-27005447D01*
X59928230Y-26961132D01*
X59928229Y-26961131D01*
X59869752Y-26949500D01*
X59869748Y-26949500D01*
X58130252Y-26949500D01*
X58130247Y-26949500D01*
X58071770Y-26961131D01*
X58071769Y-26961132D01*
X58005447Y-27005447D01*
X57961132Y-27071769D01*
X57961131Y-27071770D01*
X57949500Y-27130247D01*
X49550500Y-27130247D01*
X49550500Y-25830249D01*
X49550499Y-25830247D01*
X49538868Y-25771770D01*
X49538867Y-25771769D01*
X49494552Y-25705447D01*
X49428230Y-25661132D01*
X49428229Y-25661131D01*
X49369752Y-25649500D01*
X49369748Y-25649500D01*
X47630252Y-25649500D01*
X47630247Y-25649500D01*
X47571770Y-25661131D01*
X47571769Y-25661132D01*
X47505447Y-25705447D01*
X47461132Y-25771769D01*
X47461131Y-25771770D01*
X47449500Y-25830247D01*
X39050499Y-25830247D01*
X39038868Y-25771770D01*
X39038867Y-25771769D01*
X38994552Y-25705447D01*
X38928230Y-25661132D01*
X38928229Y-25661131D01*
X38869752Y-25649500D01*
X38869748Y-25649500D01*
X37130252Y-25649500D01*
X37130247Y-25649500D01*
X37071770Y-25661131D01*
X37071769Y-25661132D01*
X37005447Y-25705447D01*
X36961132Y-25771769D01*
X36961131Y-25771770D01*
X36949500Y-25830247D01*
X24900500Y-25830247D01*
X24900500Y-22128711D01*
X25899500Y-22128711D01*
X25899500Y-22371288D01*
X25931161Y-22611785D01*
X25993947Y-22846104D01*
X26066062Y-23020205D01*
X26086776Y-23070212D01*
X26208064Y-23280289D01*
X26208066Y-23280292D01*
X26208067Y-23280293D01*
X26355733Y-23472736D01*
X26355739Y-23472743D01*
X26527256Y-23644260D01*
X26527262Y-23644265D01*
X26719711Y-23791936D01*
X26929788Y-23913224D01*
X27153900Y-24006054D01*
X27388211Y-24068838D01*
X27568586Y-24092584D01*
X27628711Y-24100500D01*
X27628712Y-24100500D01*
X27871289Y-24100500D01*
X27919388Y-24094167D01*
X28111789Y-24068838D01*
X28346100Y-24006054D01*
X28570212Y-23913224D01*
X28780289Y-23791936D01*
X28972738Y-23644265D01*
X29144265Y-23472738D01*
X29291936Y-23280289D01*
X29413224Y-23070212D01*
X29506054Y-22846100D01*
X29568838Y-22611789D01*
X29600500Y-22371288D01*
X29600500Y-22128712D01*
X29593917Y-22078712D01*
X29593917Y-22078711D01*
X84549500Y-22078711D01*
X84549500Y-22321288D01*
X84581161Y-22561785D01*
X84643947Y-22796104D01*
X84664658Y-22846104D01*
X84736776Y-23020212D01*
X84858064Y-23230289D01*
X84858066Y-23230292D01*
X84858067Y-23230293D01*
X85005733Y-23422736D01*
X85005739Y-23422743D01*
X85177256Y-23594260D01*
X85177262Y-23594265D01*
X85369711Y-23741936D01*
X85579788Y-23863224D01*
X85803900Y-23956054D01*
X86038211Y-24018838D01*
X86218586Y-24042584D01*
X86278711Y-24050500D01*
X86278712Y-24050500D01*
X86521289Y-24050500D01*
X86569388Y-24044167D01*
X86761789Y-24018838D01*
X86996100Y-23956054D01*
X87220212Y-23863224D01*
X87430289Y-23741936D01*
X87622738Y-23594265D01*
X87794265Y-23422738D01*
X87941936Y-23230289D01*
X88063224Y-23020212D01*
X88156054Y-22796100D01*
X88218838Y-22561789D01*
X88250500Y-22321288D01*
X88250500Y-22078712D01*
X88218838Y-21838211D01*
X88156054Y-21603900D01*
X88063224Y-21379788D01*
X87941936Y-21169711D01*
X87794265Y-20977262D01*
X87794260Y-20977256D01*
X87622743Y-20805739D01*
X87622736Y-20805733D01*
X87430293Y-20658067D01*
X87430292Y-20658066D01*
X87430289Y-20658064D01*
X87220212Y-20536776D01*
X87220205Y-20536773D01*
X86996104Y-20443947D01*
X86761785Y-20381161D01*
X86521289Y-20349500D01*
X86521288Y-20349500D01*
X86278712Y-20349500D01*
X86278711Y-20349500D01*
X86038214Y-20381161D01*
X85803895Y-20443947D01*
X85579794Y-20536773D01*
X85579785Y-20536777D01*
X85369706Y-20658067D01*
X85177263Y-20805733D01*
X85177256Y-20805739D01*
X85005739Y-20977256D01*
X85005733Y-20977263D01*
X84858067Y-21169706D01*
X84736777Y-21379785D01*
X84736773Y-21379794D01*
X84643947Y-21603895D01*
X84581161Y-21838214D01*
X84549500Y-22078711D01*
X29593917Y-22078711D01*
X29568838Y-21888214D01*
X29568838Y-21888211D01*
X29506054Y-21653900D01*
X29413224Y-21429788D01*
X29291936Y-21219711D01*
X29144265Y-21027262D01*
X29144260Y-21027256D01*
X28972743Y-20855739D01*
X28972736Y-20855733D01*
X28780293Y-20708067D01*
X28780292Y-20708066D01*
X28780289Y-20708064D01*
X28570212Y-20586776D01*
X28570205Y-20586773D01*
X28346104Y-20493947D01*
X28111785Y-20431161D01*
X27871289Y-20399500D01*
X27871288Y-20399500D01*
X27628712Y-20399500D01*
X27628711Y-20399500D01*
X27388214Y-20431161D01*
X27153895Y-20493947D01*
X26929794Y-20586773D01*
X26929785Y-20586777D01*
X26719706Y-20708067D01*
X26527263Y-20855733D01*
X26527256Y-20855739D01*
X26355739Y-21027256D01*
X26355733Y-21027263D01*
X26208067Y-21219706D01*
X26086777Y-21429785D01*
X26086773Y-21429794D01*
X25993947Y-21653895D01*
X25931161Y-21888214D01*
X25899500Y-22128711D01*
X24900500Y-22128711D01*
X24900500Y-19324500D01*
X24920185Y-19257461D01*
X24972989Y-19211706D01*
X25024500Y-19200500D01*
X89175500Y-19200500D01*
X89242539Y-19220185D01*
G37*
%TD.AperFunction*%
%TD*%
M02*
