%TF.GenerationSoftware,KiCad,Pcbnew,10.0.0*%
%TF.CreationDate,2026-04-25T13:09:51-05:00*%
%TF.ProjectId,ti99-kb-adapter,74693939-2d6b-4622-9d61-646170746572,rev?*%
%TF.SameCoordinates,Original*%
%TF.FileFunction,Legend,Top*%
%TF.FilePolarity,Positive*%
%FSLAX46Y46*%
G04 Gerber Fmt 4.6, Leading zero omitted, Abs format (unit mm)*
G04 Created by KiCad (PCBNEW 10.0.0) date 2026-04-25 13:09:51*
%MOMM*%
%LPD*%
G01*
G04 APERTURE LIST*
%ADD10C,0.100000*%
%ADD11C,0.187500*%
%ADD12C,0.150000*%
%ADD13C,0.120000*%
G04 APERTURE END LIST*
D10*
X60761027Y-20152531D02*
X61332455Y-20152531D01*
X61046741Y-21152531D02*
X61046741Y-20152531D01*
X61665789Y-21152531D02*
X61665789Y-20152531D01*
X62141979Y-20771578D02*
X62903884Y-20771578D01*
X63427693Y-21152531D02*
X63618169Y-21152531D01*
X63618169Y-21152531D02*
X63713407Y-21104912D01*
X63713407Y-21104912D02*
X63761026Y-21057292D01*
X63761026Y-21057292D02*
X63856264Y-20914435D01*
X63856264Y-20914435D02*
X63903883Y-20723959D01*
X63903883Y-20723959D02*
X63903883Y-20343007D01*
X63903883Y-20343007D02*
X63856264Y-20247769D01*
X63856264Y-20247769D02*
X63808645Y-20200150D01*
X63808645Y-20200150D02*
X63713407Y-20152531D01*
X63713407Y-20152531D02*
X63522931Y-20152531D01*
X63522931Y-20152531D02*
X63427693Y-20200150D01*
X63427693Y-20200150D02*
X63380074Y-20247769D01*
X63380074Y-20247769D02*
X63332455Y-20343007D01*
X63332455Y-20343007D02*
X63332455Y-20581102D01*
X63332455Y-20581102D02*
X63380074Y-20676340D01*
X63380074Y-20676340D02*
X63427693Y-20723959D01*
X63427693Y-20723959D02*
X63522931Y-20771578D01*
X63522931Y-20771578D02*
X63713407Y-20771578D01*
X63713407Y-20771578D02*
X63808645Y-20723959D01*
X63808645Y-20723959D02*
X63856264Y-20676340D01*
X63856264Y-20676340D02*
X63903883Y-20581102D01*
X64380074Y-21152531D02*
X64570550Y-21152531D01*
X64570550Y-21152531D02*
X64665788Y-21104912D01*
X64665788Y-21104912D02*
X64713407Y-21057292D01*
X64713407Y-21057292D02*
X64808645Y-20914435D01*
X64808645Y-20914435D02*
X64856264Y-20723959D01*
X64856264Y-20723959D02*
X64856264Y-20343007D01*
X64856264Y-20343007D02*
X64808645Y-20247769D01*
X64808645Y-20247769D02*
X64761026Y-20200150D01*
X64761026Y-20200150D02*
X64665788Y-20152531D01*
X64665788Y-20152531D02*
X64475312Y-20152531D01*
X64475312Y-20152531D02*
X64380074Y-20200150D01*
X64380074Y-20200150D02*
X64332455Y-20247769D01*
X64332455Y-20247769D02*
X64284836Y-20343007D01*
X64284836Y-20343007D02*
X64284836Y-20581102D01*
X64284836Y-20581102D02*
X64332455Y-20676340D01*
X64332455Y-20676340D02*
X64380074Y-20723959D01*
X64380074Y-20723959D02*
X64475312Y-20771578D01*
X64475312Y-20771578D02*
X64665788Y-20771578D01*
X64665788Y-20771578D02*
X64761026Y-20723959D01*
X64761026Y-20723959D02*
X64808645Y-20676340D01*
X64808645Y-20676340D02*
X64856264Y-20581102D01*
X65999121Y-20104912D02*
X65141979Y-21390626D01*
X66761026Y-20485864D02*
X66761026Y-21152531D01*
X66522931Y-20104912D02*
X66284836Y-20819197D01*
X66284836Y-20819197D02*
X66903883Y-20819197D01*
X67237217Y-20866816D02*
X67713407Y-20866816D01*
X67141979Y-21152531D02*
X67475312Y-20152531D01*
X67475312Y-20152531D02*
X67808645Y-21152531D01*
X68903884Y-21152531D02*
X68903884Y-20152531D01*
X69475312Y-21152531D02*
X69046741Y-20581102D01*
X69475312Y-20152531D02*
X68903884Y-20723959D01*
X70284836Y-21104912D02*
X70189598Y-21152531D01*
X70189598Y-21152531D02*
X69999122Y-21152531D01*
X69999122Y-21152531D02*
X69903884Y-21104912D01*
X69903884Y-21104912D02*
X69856265Y-21009673D01*
X69856265Y-21009673D02*
X69856265Y-20628721D01*
X69856265Y-20628721D02*
X69903884Y-20533483D01*
X69903884Y-20533483D02*
X69999122Y-20485864D01*
X69999122Y-20485864D02*
X70189598Y-20485864D01*
X70189598Y-20485864D02*
X70284836Y-20533483D01*
X70284836Y-20533483D02*
X70332455Y-20628721D01*
X70332455Y-20628721D02*
X70332455Y-20723959D01*
X70332455Y-20723959D02*
X69856265Y-20819197D01*
X70665789Y-20485864D02*
X70903884Y-21152531D01*
X71141979Y-20485864D02*
X70903884Y-21152531D01*
X70903884Y-21152531D02*
X70808646Y-21390626D01*
X70808646Y-21390626D02*
X70761027Y-21438245D01*
X70761027Y-21438245D02*
X70665789Y-21485864D01*
X71522932Y-21152531D02*
X71522932Y-20152531D01*
X71522932Y-20533483D02*
X71618170Y-20485864D01*
X71618170Y-20485864D02*
X71808646Y-20485864D01*
X71808646Y-20485864D02*
X71903884Y-20533483D01*
X71903884Y-20533483D02*
X71951503Y-20581102D01*
X71951503Y-20581102D02*
X71999122Y-20676340D01*
X71999122Y-20676340D02*
X71999122Y-20962054D01*
X71999122Y-20962054D02*
X71951503Y-21057292D01*
X71951503Y-21057292D02*
X71903884Y-21104912D01*
X71903884Y-21104912D02*
X71808646Y-21152531D01*
X71808646Y-21152531D02*
X71618170Y-21152531D01*
X71618170Y-21152531D02*
X71522932Y-21104912D01*
X72570551Y-21152531D02*
X72475313Y-21104912D01*
X72475313Y-21104912D02*
X72427694Y-21057292D01*
X72427694Y-21057292D02*
X72380075Y-20962054D01*
X72380075Y-20962054D02*
X72380075Y-20676340D01*
X72380075Y-20676340D02*
X72427694Y-20581102D01*
X72427694Y-20581102D02*
X72475313Y-20533483D01*
X72475313Y-20533483D02*
X72570551Y-20485864D01*
X72570551Y-20485864D02*
X72713408Y-20485864D01*
X72713408Y-20485864D02*
X72808646Y-20533483D01*
X72808646Y-20533483D02*
X72856265Y-20581102D01*
X72856265Y-20581102D02*
X72903884Y-20676340D01*
X72903884Y-20676340D02*
X72903884Y-20962054D01*
X72903884Y-20962054D02*
X72856265Y-21057292D01*
X72856265Y-21057292D02*
X72808646Y-21104912D01*
X72808646Y-21104912D02*
X72713408Y-21152531D01*
X72713408Y-21152531D02*
X72570551Y-21152531D01*
X73761027Y-21152531D02*
X73761027Y-20628721D01*
X73761027Y-20628721D02*
X73713408Y-20533483D01*
X73713408Y-20533483D02*
X73618170Y-20485864D01*
X73618170Y-20485864D02*
X73427694Y-20485864D01*
X73427694Y-20485864D02*
X73332456Y-20533483D01*
X73761027Y-21104912D02*
X73665789Y-21152531D01*
X73665789Y-21152531D02*
X73427694Y-21152531D01*
X73427694Y-21152531D02*
X73332456Y-21104912D01*
X73332456Y-21104912D02*
X73284837Y-21009673D01*
X73284837Y-21009673D02*
X73284837Y-20914435D01*
X73284837Y-20914435D02*
X73332456Y-20819197D01*
X73332456Y-20819197D02*
X73427694Y-20771578D01*
X73427694Y-20771578D02*
X73665789Y-20771578D01*
X73665789Y-20771578D02*
X73761027Y-20723959D01*
X74237218Y-21152531D02*
X74237218Y-20485864D01*
X74237218Y-20676340D02*
X74284837Y-20581102D01*
X74284837Y-20581102D02*
X74332456Y-20533483D01*
X74332456Y-20533483D02*
X74427694Y-20485864D01*
X74427694Y-20485864D02*
X74522932Y-20485864D01*
X75284837Y-21152531D02*
X75284837Y-20152531D01*
X75284837Y-21104912D02*
X75189599Y-21152531D01*
X75189599Y-21152531D02*
X74999123Y-21152531D01*
X74999123Y-21152531D02*
X74903885Y-21104912D01*
X74903885Y-21104912D02*
X74856266Y-21057292D01*
X74856266Y-21057292D02*
X74808647Y-20962054D01*
X74808647Y-20962054D02*
X74808647Y-20676340D01*
X74808647Y-20676340D02*
X74856266Y-20581102D01*
X74856266Y-20581102D02*
X74903885Y-20533483D01*
X74903885Y-20533483D02*
X74999123Y-20485864D01*
X74999123Y-20485864D02*
X75189599Y-20485864D01*
X75189599Y-20485864D02*
X75284837Y-20533483D01*
X76522933Y-21152531D02*
X76522933Y-20152531D01*
X76999123Y-20485864D02*
X76999123Y-21152531D01*
X76999123Y-20581102D02*
X77046742Y-20533483D01*
X77046742Y-20533483D02*
X77141980Y-20485864D01*
X77141980Y-20485864D02*
X77284837Y-20485864D01*
X77284837Y-20485864D02*
X77380075Y-20533483D01*
X77380075Y-20533483D02*
X77427694Y-20628721D01*
X77427694Y-20628721D02*
X77427694Y-21152531D01*
X77761028Y-20485864D02*
X78141980Y-20485864D01*
X77903885Y-20152531D02*
X77903885Y-21009673D01*
X77903885Y-21009673D02*
X77951504Y-21104912D01*
X77951504Y-21104912D02*
X78046742Y-21152531D01*
X78046742Y-21152531D02*
X78141980Y-21152531D01*
X78856266Y-21104912D02*
X78761028Y-21152531D01*
X78761028Y-21152531D02*
X78570552Y-21152531D01*
X78570552Y-21152531D02*
X78475314Y-21104912D01*
X78475314Y-21104912D02*
X78427695Y-21009673D01*
X78427695Y-21009673D02*
X78427695Y-20628721D01*
X78427695Y-20628721D02*
X78475314Y-20533483D01*
X78475314Y-20533483D02*
X78570552Y-20485864D01*
X78570552Y-20485864D02*
X78761028Y-20485864D01*
X78761028Y-20485864D02*
X78856266Y-20533483D01*
X78856266Y-20533483D02*
X78903885Y-20628721D01*
X78903885Y-20628721D02*
X78903885Y-20723959D01*
X78903885Y-20723959D02*
X78427695Y-20819197D01*
X79332457Y-21152531D02*
X79332457Y-20485864D01*
X79332457Y-20676340D02*
X79380076Y-20581102D01*
X79380076Y-20581102D02*
X79427695Y-20533483D01*
X79427695Y-20533483D02*
X79522933Y-20485864D01*
X79522933Y-20485864D02*
X79618171Y-20485864D01*
X79808648Y-20485864D02*
X80189600Y-20485864D01*
X79951505Y-21152531D02*
X79951505Y-20295388D01*
X79951505Y-20295388D02*
X79999124Y-20200150D01*
X79999124Y-20200150D02*
X80094362Y-20152531D01*
X80094362Y-20152531D02*
X80189600Y-20152531D01*
X80951505Y-21152531D02*
X80951505Y-20628721D01*
X80951505Y-20628721D02*
X80903886Y-20533483D01*
X80903886Y-20533483D02*
X80808648Y-20485864D01*
X80808648Y-20485864D02*
X80618172Y-20485864D01*
X80618172Y-20485864D02*
X80522934Y-20533483D01*
X80951505Y-21104912D02*
X80856267Y-21152531D01*
X80856267Y-21152531D02*
X80618172Y-21152531D01*
X80618172Y-21152531D02*
X80522934Y-21104912D01*
X80522934Y-21104912D02*
X80475315Y-21009673D01*
X80475315Y-21009673D02*
X80475315Y-20914435D01*
X80475315Y-20914435D02*
X80522934Y-20819197D01*
X80522934Y-20819197D02*
X80618172Y-20771578D01*
X80618172Y-20771578D02*
X80856267Y-20771578D01*
X80856267Y-20771578D02*
X80951505Y-20723959D01*
X81856267Y-21104912D02*
X81761029Y-21152531D01*
X81761029Y-21152531D02*
X81570553Y-21152531D01*
X81570553Y-21152531D02*
X81475315Y-21104912D01*
X81475315Y-21104912D02*
X81427696Y-21057292D01*
X81427696Y-21057292D02*
X81380077Y-20962054D01*
X81380077Y-20962054D02*
X81380077Y-20676340D01*
X81380077Y-20676340D02*
X81427696Y-20581102D01*
X81427696Y-20581102D02*
X81475315Y-20533483D01*
X81475315Y-20533483D02*
X81570553Y-20485864D01*
X81570553Y-20485864D02*
X81761029Y-20485864D01*
X81761029Y-20485864D02*
X81856267Y-20533483D01*
X82665791Y-21104912D02*
X82570553Y-21152531D01*
X82570553Y-21152531D02*
X82380077Y-21152531D01*
X82380077Y-21152531D02*
X82284839Y-21104912D01*
X82284839Y-21104912D02*
X82237220Y-21009673D01*
X82237220Y-21009673D02*
X82237220Y-20628721D01*
X82237220Y-20628721D02*
X82284839Y-20533483D01*
X82284839Y-20533483D02*
X82380077Y-20485864D01*
X82380077Y-20485864D02*
X82570553Y-20485864D01*
X82570553Y-20485864D02*
X82665791Y-20533483D01*
X82665791Y-20533483D02*
X82713410Y-20628721D01*
X82713410Y-20628721D02*
X82713410Y-20723959D01*
X82713410Y-20723959D02*
X82237220Y-20819197D01*
X61475312Y-22667236D02*
X61427693Y-22714856D01*
X61427693Y-22714856D02*
X61284836Y-22762475D01*
X61284836Y-22762475D02*
X61189598Y-22762475D01*
X61189598Y-22762475D02*
X61046741Y-22714856D01*
X61046741Y-22714856D02*
X60951503Y-22619617D01*
X60951503Y-22619617D02*
X60903884Y-22524379D01*
X60903884Y-22524379D02*
X60856265Y-22333903D01*
X60856265Y-22333903D02*
X60856265Y-22191046D01*
X60856265Y-22191046D02*
X60903884Y-22000570D01*
X60903884Y-22000570D02*
X60951503Y-21905332D01*
X60951503Y-21905332D02*
X61046741Y-21810094D01*
X61046741Y-21810094D02*
X61189598Y-21762475D01*
X61189598Y-21762475D02*
X61284836Y-21762475D01*
X61284836Y-21762475D02*
X61427693Y-21810094D01*
X61427693Y-21810094D02*
X61475312Y-21857713D01*
X62046741Y-22762475D02*
X61951503Y-22714856D01*
X61951503Y-22714856D02*
X61903884Y-22667236D01*
X61903884Y-22667236D02*
X61856265Y-22571998D01*
X61856265Y-22571998D02*
X61856265Y-22286284D01*
X61856265Y-22286284D02*
X61903884Y-22191046D01*
X61903884Y-22191046D02*
X61951503Y-22143427D01*
X61951503Y-22143427D02*
X62046741Y-22095808D01*
X62046741Y-22095808D02*
X62189598Y-22095808D01*
X62189598Y-22095808D02*
X62284836Y-22143427D01*
X62284836Y-22143427D02*
X62332455Y-22191046D01*
X62332455Y-22191046D02*
X62380074Y-22286284D01*
X62380074Y-22286284D02*
X62380074Y-22571998D01*
X62380074Y-22571998D02*
X62332455Y-22667236D01*
X62332455Y-22667236D02*
X62284836Y-22714856D01*
X62284836Y-22714856D02*
X62189598Y-22762475D01*
X62189598Y-22762475D02*
X62046741Y-22762475D01*
X62808646Y-22095808D02*
X62808646Y-23095808D01*
X62808646Y-22143427D02*
X62903884Y-22095808D01*
X62903884Y-22095808D02*
X63094360Y-22095808D01*
X63094360Y-22095808D02*
X63189598Y-22143427D01*
X63189598Y-22143427D02*
X63237217Y-22191046D01*
X63237217Y-22191046D02*
X63284836Y-22286284D01*
X63284836Y-22286284D02*
X63284836Y-22571998D01*
X63284836Y-22571998D02*
X63237217Y-22667236D01*
X63237217Y-22667236D02*
X63189598Y-22714856D01*
X63189598Y-22714856D02*
X63094360Y-22762475D01*
X63094360Y-22762475D02*
X62903884Y-22762475D01*
X62903884Y-22762475D02*
X62808646Y-22714856D01*
X63618170Y-22095808D02*
X63856265Y-22762475D01*
X64094360Y-22095808D02*
X63856265Y-22762475D01*
X63856265Y-22762475D02*
X63761027Y-23000570D01*
X63761027Y-23000570D02*
X63713408Y-23048189D01*
X63713408Y-23048189D02*
X63618170Y-23095808D01*
X64475313Y-22762475D02*
X64475313Y-22095808D01*
X64475313Y-22286284D02*
X64522932Y-22191046D01*
X64522932Y-22191046D02*
X64570551Y-22143427D01*
X64570551Y-22143427D02*
X64665789Y-22095808D01*
X64665789Y-22095808D02*
X64761027Y-22095808D01*
X65094361Y-22762475D02*
X65094361Y-22095808D01*
X65094361Y-21762475D02*
X65046742Y-21810094D01*
X65046742Y-21810094D02*
X65094361Y-21857713D01*
X65094361Y-21857713D02*
X65141980Y-21810094D01*
X65141980Y-21810094D02*
X65094361Y-21762475D01*
X65094361Y-21762475D02*
X65094361Y-21857713D01*
X65999122Y-22095808D02*
X65999122Y-22905332D01*
X65999122Y-22905332D02*
X65951503Y-23000570D01*
X65951503Y-23000570D02*
X65903884Y-23048189D01*
X65903884Y-23048189D02*
X65808646Y-23095808D01*
X65808646Y-23095808D02*
X65665789Y-23095808D01*
X65665789Y-23095808D02*
X65570551Y-23048189D01*
X65999122Y-22714856D02*
X65903884Y-22762475D01*
X65903884Y-22762475D02*
X65713408Y-22762475D01*
X65713408Y-22762475D02*
X65618170Y-22714856D01*
X65618170Y-22714856D02*
X65570551Y-22667236D01*
X65570551Y-22667236D02*
X65522932Y-22571998D01*
X65522932Y-22571998D02*
X65522932Y-22286284D01*
X65522932Y-22286284D02*
X65570551Y-22191046D01*
X65570551Y-22191046D02*
X65618170Y-22143427D01*
X65618170Y-22143427D02*
X65713408Y-22095808D01*
X65713408Y-22095808D02*
X65903884Y-22095808D01*
X65903884Y-22095808D02*
X65999122Y-22143427D01*
X66475313Y-22762475D02*
X66475313Y-21762475D01*
X66903884Y-22762475D02*
X66903884Y-22238665D01*
X66903884Y-22238665D02*
X66856265Y-22143427D01*
X66856265Y-22143427D02*
X66761027Y-22095808D01*
X66761027Y-22095808D02*
X66618170Y-22095808D01*
X66618170Y-22095808D02*
X66522932Y-22143427D01*
X66522932Y-22143427D02*
X66475313Y-22191046D01*
X67237218Y-22095808D02*
X67618170Y-22095808D01*
X67380075Y-21762475D02*
X67380075Y-22619617D01*
X67380075Y-22619617D02*
X67427694Y-22714856D01*
X67427694Y-22714856D02*
X67522932Y-22762475D01*
X67522932Y-22762475D02*
X67618170Y-22762475D01*
X68665790Y-21857713D02*
X68713409Y-21810094D01*
X68713409Y-21810094D02*
X68808647Y-21762475D01*
X68808647Y-21762475D02*
X69046742Y-21762475D01*
X69046742Y-21762475D02*
X69141980Y-21810094D01*
X69141980Y-21810094D02*
X69189599Y-21857713D01*
X69189599Y-21857713D02*
X69237218Y-21952951D01*
X69237218Y-21952951D02*
X69237218Y-22048189D01*
X69237218Y-22048189D02*
X69189599Y-22191046D01*
X69189599Y-22191046D02*
X68618171Y-22762475D01*
X68618171Y-22762475D02*
X69237218Y-22762475D01*
X69856266Y-21762475D02*
X69951504Y-21762475D01*
X69951504Y-21762475D02*
X70046742Y-21810094D01*
X70046742Y-21810094D02*
X70094361Y-21857713D01*
X70094361Y-21857713D02*
X70141980Y-21952951D01*
X70141980Y-21952951D02*
X70189599Y-22143427D01*
X70189599Y-22143427D02*
X70189599Y-22381522D01*
X70189599Y-22381522D02*
X70141980Y-22571998D01*
X70141980Y-22571998D02*
X70094361Y-22667236D01*
X70094361Y-22667236D02*
X70046742Y-22714856D01*
X70046742Y-22714856D02*
X69951504Y-22762475D01*
X69951504Y-22762475D02*
X69856266Y-22762475D01*
X69856266Y-22762475D02*
X69761028Y-22714856D01*
X69761028Y-22714856D02*
X69713409Y-22667236D01*
X69713409Y-22667236D02*
X69665790Y-22571998D01*
X69665790Y-22571998D02*
X69618171Y-22381522D01*
X69618171Y-22381522D02*
X69618171Y-22143427D01*
X69618171Y-22143427D02*
X69665790Y-21952951D01*
X69665790Y-21952951D02*
X69713409Y-21857713D01*
X69713409Y-21857713D02*
X69761028Y-21810094D01*
X69761028Y-21810094D02*
X69856266Y-21762475D01*
X70570552Y-21857713D02*
X70618171Y-21810094D01*
X70618171Y-21810094D02*
X70713409Y-21762475D01*
X70713409Y-21762475D02*
X70951504Y-21762475D01*
X70951504Y-21762475D02*
X71046742Y-21810094D01*
X71046742Y-21810094D02*
X71094361Y-21857713D01*
X71094361Y-21857713D02*
X71141980Y-21952951D01*
X71141980Y-21952951D02*
X71141980Y-22048189D01*
X71141980Y-22048189D02*
X71094361Y-22191046D01*
X71094361Y-22191046D02*
X70522933Y-22762475D01*
X70522933Y-22762475D02*
X71141980Y-22762475D01*
X71999123Y-21762475D02*
X71808647Y-21762475D01*
X71808647Y-21762475D02*
X71713409Y-21810094D01*
X71713409Y-21810094D02*
X71665790Y-21857713D01*
X71665790Y-21857713D02*
X71570552Y-22000570D01*
X71570552Y-22000570D02*
X71522933Y-22191046D01*
X71522933Y-22191046D02*
X71522933Y-22571998D01*
X71522933Y-22571998D02*
X71570552Y-22667236D01*
X71570552Y-22667236D02*
X71618171Y-22714856D01*
X71618171Y-22714856D02*
X71713409Y-22762475D01*
X71713409Y-22762475D02*
X71903885Y-22762475D01*
X71903885Y-22762475D02*
X71999123Y-22714856D01*
X71999123Y-22714856D02*
X72046742Y-22667236D01*
X72046742Y-22667236D02*
X72094361Y-22571998D01*
X72094361Y-22571998D02*
X72094361Y-22333903D01*
X72094361Y-22333903D02*
X72046742Y-22238665D01*
X72046742Y-22238665D02*
X71999123Y-22191046D01*
X71999123Y-22191046D02*
X71903885Y-22143427D01*
X71903885Y-22143427D02*
X71713409Y-22143427D01*
X71713409Y-22143427D02*
X71618171Y-22191046D01*
X71618171Y-22191046D02*
X71570552Y-22238665D01*
X71570552Y-22238665D02*
X71522933Y-22333903D01*
X73284838Y-22762475D02*
X73284838Y-21762475D01*
X73284838Y-22143427D02*
X73380076Y-22095808D01*
X73380076Y-22095808D02*
X73570552Y-22095808D01*
X73570552Y-22095808D02*
X73665790Y-22143427D01*
X73665790Y-22143427D02*
X73713409Y-22191046D01*
X73713409Y-22191046D02*
X73761028Y-22286284D01*
X73761028Y-22286284D02*
X73761028Y-22571998D01*
X73761028Y-22571998D02*
X73713409Y-22667236D01*
X73713409Y-22667236D02*
X73665790Y-22714856D01*
X73665790Y-22714856D02*
X73570552Y-22762475D01*
X73570552Y-22762475D02*
X73380076Y-22762475D01*
X73380076Y-22762475D02*
X73284838Y-22714856D01*
X74094362Y-22095808D02*
X74332457Y-22762475D01*
X74570552Y-22095808D02*
X74332457Y-22762475D01*
X74332457Y-22762475D02*
X74237219Y-23000570D01*
X74237219Y-23000570D02*
X74189600Y-23048189D01*
X74189600Y-23048189D02*
X74094362Y-23095808D01*
X75999124Y-21762475D02*
X75999124Y-22476760D01*
X75999124Y-22476760D02*
X75951505Y-22619617D01*
X75951505Y-22619617D02*
X75856267Y-22714856D01*
X75856267Y-22714856D02*
X75713410Y-22762475D01*
X75713410Y-22762475D02*
X75618172Y-22762475D01*
X76618172Y-22762475D02*
X76522934Y-22714856D01*
X76522934Y-22714856D02*
X76475315Y-22667236D01*
X76475315Y-22667236D02*
X76427696Y-22571998D01*
X76427696Y-22571998D02*
X76427696Y-22286284D01*
X76427696Y-22286284D02*
X76475315Y-22191046D01*
X76475315Y-22191046D02*
X76522934Y-22143427D01*
X76522934Y-22143427D02*
X76618172Y-22095808D01*
X76618172Y-22095808D02*
X76761029Y-22095808D01*
X76761029Y-22095808D02*
X76856267Y-22143427D01*
X76856267Y-22143427D02*
X76903886Y-22191046D01*
X76903886Y-22191046D02*
X76951505Y-22286284D01*
X76951505Y-22286284D02*
X76951505Y-22571998D01*
X76951505Y-22571998D02*
X76903886Y-22667236D01*
X76903886Y-22667236D02*
X76856267Y-22714856D01*
X76856267Y-22714856D02*
X76761029Y-22762475D01*
X76761029Y-22762475D02*
X76618172Y-22762475D01*
X77380077Y-22095808D02*
X77380077Y-22762475D01*
X77380077Y-22191046D02*
X77427696Y-22143427D01*
X77427696Y-22143427D02*
X77522934Y-22095808D01*
X77522934Y-22095808D02*
X77665791Y-22095808D01*
X77665791Y-22095808D02*
X77761029Y-22143427D01*
X77761029Y-22143427D02*
X77808648Y-22238665D01*
X77808648Y-22238665D02*
X77808648Y-22762475D01*
X78903887Y-21762475D02*
X79237220Y-22762475D01*
X79237220Y-22762475D02*
X79570553Y-21762475D01*
X80046744Y-22762475D02*
X79951506Y-22714856D01*
X79951506Y-22714856D02*
X79903887Y-22667236D01*
X79903887Y-22667236D02*
X79856268Y-22571998D01*
X79856268Y-22571998D02*
X79856268Y-22286284D01*
X79856268Y-22286284D02*
X79903887Y-22191046D01*
X79903887Y-22191046D02*
X79951506Y-22143427D01*
X79951506Y-22143427D02*
X80046744Y-22095808D01*
X80046744Y-22095808D02*
X80189601Y-22095808D01*
X80189601Y-22095808D02*
X80284839Y-22143427D01*
X80284839Y-22143427D02*
X80332458Y-22191046D01*
X80332458Y-22191046D02*
X80380077Y-22286284D01*
X80380077Y-22286284D02*
X80380077Y-22571998D01*
X80380077Y-22571998D02*
X80332458Y-22667236D01*
X80332458Y-22667236D02*
X80284839Y-22714856D01*
X80284839Y-22714856D02*
X80189601Y-22762475D01*
X80189601Y-22762475D02*
X80046744Y-22762475D01*
X81237220Y-22095808D02*
X81237220Y-22905332D01*
X81237220Y-22905332D02*
X81189601Y-23000570D01*
X81189601Y-23000570D02*
X81141982Y-23048189D01*
X81141982Y-23048189D02*
X81046744Y-23095808D01*
X81046744Y-23095808D02*
X80903887Y-23095808D01*
X80903887Y-23095808D02*
X80808649Y-23048189D01*
X81237220Y-22714856D02*
X81141982Y-22762475D01*
X81141982Y-22762475D02*
X80951506Y-22762475D01*
X80951506Y-22762475D02*
X80856268Y-22714856D01*
X80856268Y-22714856D02*
X80808649Y-22667236D01*
X80808649Y-22667236D02*
X80761030Y-22571998D01*
X80761030Y-22571998D02*
X80761030Y-22286284D01*
X80761030Y-22286284D02*
X80808649Y-22191046D01*
X80808649Y-22191046D02*
X80856268Y-22143427D01*
X80856268Y-22143427D02*
X80951506Y-22095808D01*
X80951506Y-22095808D02*
X81141982Y-22095808D01*
X81141982Y-22095808D02*
X81237220Y-22143427D01*
X82094363Y-22714856D02*
X81999125Y-22762475D01*
X81999125Y-22762475D02*
X81808649Y-22762475D01*
X81808649Y-22762475D02*
X81713411Y-22714856D01*
X81713411Y-22714856D02*
X81665792Y-22619617D01*
X81665792Y-22619617D02*
X81665792Y-22238665D01*
X81665792Y-22238665D02*
X81713411Y-22143427D01*
X81713411Y-22143427D02*
X81808649Y-22095808D01*
X81808649Y-22095808D02*
X81999125Y-22095808D01*
X81999125Y-22095808D02*
X82094363Y-22143427D01*
X82094363Y-22143427D02*
X82141982Y-22238665D01*
X82141982Y-22238665D02*
X82141982Y-22333903D01*
X82141982Y-22333903D02*
X81665792Y-22429141D01*
X82713411Y-22762475D02*
X82618173Y-22714856D01*
X82618173Y-22714856D02*
X82570554Y-22619617D01*
X82570554Y-22619617D02*
X82570554Y-21762475D01*
X60903884Y-23705752D02*
X60903884Y-24562895D01*
X60903884Y-24562895D02*
X60856265Y-24658133D01*
X60856265Y-24658133D02*
X60761027Y-24705752D01*
X60761027Y-24705752D02*
X60713408Y-24705752D01*
X60903884Y-23372419D02*
X60856265Y-23420038D01*
X60856265Y-23420038D02*
X60903884Y-23467657D01*
X60903884Y-23467657D02*
X60951503Y-23420038D01*
X60951503Y-23420038D02*
X60903884Y-23372419D01*
X60903884Y-23372419D02*
X60903884Y-23467657D01*
X61522931Y-24372419D02*
X61427693Y-24324800D01*
X61427693Y-24324800D02*
X61380074Y-24277180D01*
X61380074Y-24277180D02*
X61332455Y-24181942D01*
X61332455Y-24181942D02*
X61332455Y-23896228D01*
X61332455Y-23896228D02*
X61380074Y-23800990D01*
X61380074Y-23800990D02*
X61427693Y-23753371D01*
X61427693Y-23753371D02*
X61522931Y-23705752D01*
X61522931Y-23705752D02*
X61665788Y-23705752D01*
X61665788Y-23705752D02*
X61761026Y-23753371D01*
X61761026Y-23753371D02*
X61808645Y-23800990D01*
X61808645Y-23800990D02*
X61856264Y-23896228D01*
X61856264Y-23896228D02*
X61856264Y-24181942D01*
X61856264Y-24181942D02*
X61808645Y-24277180D01*
X61808645Y-24277180D02*
X61761026Y-24324800D01*
X61761026Y-24324800D02*
X61665788Y-24372419D01*
X61665788Y-24372419D02*
X61522931Y-24372419D01*
X62284836Y-23705752D02*
X62284836Y-24372419D01*
X62284836Y-23800990D02*
X62332455Y-23753371D01*
X62332455Y-23753371D02*
X62427693Y-23705752D01*
X62427693Y-23705752D02*
X62570550Y-23705752D01*
X62570550Y-23705752D02*
X62665788Y-23753371D01*
X62665788Y-23753371D02*
X62713407Y-23848609D01*
X62713407Y-23848609D02*
X62713407Y-24372419D01*
X63189598Y-23705752D02*
X63189598Y-24705752D01*
X63189598Y-23753371D02*
X63284836Y-23705752D01*
X63284836Y-23705752D02*
X63475312Y-23705752D01*
X63475312Y-23705752D02*
X63570550Y-23753371D01*
X63570550Y-23753371D02*
X63618169Y-23800990D01*
X63618169Y-23800990D02*
X63665788Y-23896228D01*
X63665788Y-23896228D02*
X63665788Y-24181942D01*
X63665788Y-24181942D02*
X63618169Y-24277180D01*
X63618169Y-24277180D02*
X63570550Y-24324800D01*
X63570550Y-24324800D02*
X63475312Y-24372419D01*
X63475312Y-24372419D02*
X63284836Y-24372419D01*
X63284836Y-24372419D02*
X63189598Y-24324800D01*
X63999122Y-23705752D02*
X64237217Y-24372419D01*
X64237217Y-24372419D02*
X64475312Y-23705752D01*
X64999122Y-24372419D02*
X64903884Y-24324800D01*
X64903884Y-24324800D02*
X64856265Y-24277180D01*
X64856265Y-24277180D02*
X64808646Y-24181942D01*
X64808646Y-24181942D02*
X64808646Y-23896228D01*
X64808646Y-23896228D02*
X64856265Y-23800990D01*
X64856265Y-23800990D02*
X64903884Y-23753371D01*
X64903884Y-23753371D02*
X64999122Y-23705752D01*
X64999122Y-23705752D02*
X65141979Y-23705752D01*
X65141979Y-23705752D02*
X65237217Y-23753371D01*
X65237217Y-23753371D02*
X65284836Y-23800990D01*
X65284836Y-23800990D02*
X65332455Y-23896228D01*
X65332455Y-23896228D02*
X65332455Y-24181942D01*
X65332455Y-24181942D02*
X65284836Y-24277180D01*
X65284836Y-24277180D02*
X65237217Y-24324800D01*
X65237217Y-24324800D02*
X65141979Y-24372419D01*
X65141979Y-24372419D02*
X64999122Y-24372419D01*
X66189598Y-23705752D02*
X66189598Y-24515276D01*
X66189598Y-24515276D02*
X66141979Y-24610514D01*
X66141979Y-24610514D02*
X66094360Y-24658133D01*
X66094360Y-24658133D02*
X65999122Y-24705752D01*
X65999122Y-24705752D02*
X65856265Y-24705752D01*
X65856265Y-24705752D02*
X65761027Y-24658133D01*
X66189598Y-24324800D02*
X66094360Y-24372419D01*
X66094360Y-24372419D02*
X65903884Y-24372419D01*
X65903884Y-24372419D02*
X65808646Y-24324800D01*
X65808646Y-24324800D02*
X65761027Y-24277180D01*
X65761027Y-24277180D02*
X65713408Y-24181942D01*
X65713408Y-24181942D02*
X65713408Y-23896228D01*
X65713408Y-23896228D02*
X65761027Y-23800990D01*
X65761027Y-23800990D02*
X65808646Y-23753371D01*
X65808646Y-23753371D02*
X65903884Y-23705752D01*
X65903884Y-23705752D02*
X66094360Y-23705752D01*
X66094360Y-23705752D02*
X66189598Y-23753371D01*
X67046741Y-24324800D02*
X66951503Y-24372419D01*
X66951503Y-24372419D02*
X66761027Y-24372419D01*
X66761027Y-24372419D02*
X66665789Y-24324800D01*
X66665789Y-24324800D02*
X66618170Y-24229561D01*
X66618170Y-24229561D02*
X66618170Y-23848609D01*
X66618170Y-23848609D02*
X66665789Y-23753371D01*
X66665789Y-23753371D02*
X66761027Y-23705752D01*
X66761027Y-23705752D02*
X66951503Y-23705752D01*
X66951503Y-23705752D02*
X67046741Y-23753371D01*
X67046741Y-23753371D02*
X67094360Y-23848609D01*
X67094360Y-23848609D02*
X67094360Y-23943847D01*
X67094360Y-23943847D02*
X66618170Y-24039085D01*
X67665789Y-24372419D02*
X67570551Y-24324800D01*
X67570551Y-24324800D02*
X67522932Y-24229561D01*
X67522932Y-24229561D02*
X67522932Y-23372419D01*
X68665789Y-23896228D02*
X68618170Y-23848609D01*
X68618170Y-23848609D02*
X68522932Y-23800990D01*
X68522932Y-23800990D02*
X68427694Y-23800990D01*
X68427694Y-23800990D02*
X68332456Y-23848609D01*
X68332456Y-23848609D02*
X68284837Y-23896228D01*
X68284837Y-23896228D02*
X68237218Y-23991466D01*
X68237218Y-23991466D02*
X68237218Y-24086704D01*
X68237218Y-24086704D02*
X68284837Y-24181942D01*
X68284837Y-24181942D02*
X68332456Y-24229561D01*
X68332456Y-24229561D02*
X68427694Y-24277180D01*
X68427694Y-24277180D02*
X68522932Y-24277180D01*
X68522932Y-24277180D02*
X68618170Y-24229561D01*
X68618170Y-24229561D02*
X68665789Y-24181942D01*
X68665789Y-23800990D02*
X68665789Y-24181942D01*
X68665789Y-24181942D02*
X68713408Y-24229561D01*
X68713408Y-24229561D02*
X68761027Y-24229561D01*
X68761027Y-24229561D02*
X68856266Y-24181942D01*
X68856266Y-24181942D02*
X68903885Y-24086704D01*
X68903885Y-24086704D02*
X68903885Y-23848609D01*
X68903885Y-23848609D02*
X68808647Y-23705752D01*
X68808647Y-23705752D02*
X68665789Y-23610514D01*
X68665789Y-23610514D02*
X68475313Y-23562895D01*
X68475313Y-23562895D02*
X68284837Y-23610514D01*
X68284837Y-23610514D02*
X68141980Y-23705752D01*
X68141980Y-23705752D02*
X68046742Y-23848609D01*
X68046742Y-23848609D02*
X67999123Y-24039085D01*
X67999123Y-24039085D02*
X68046742Y-24229561D01*
X68046742Y-24229561D02*
X68141980Y-24372419D01*
X68141980Y-24372419D02*
X68284837Y-24467657D01*
X68284837Y-24467657D02*
X68475313Y-24515276D01*
X68475313Y-24515276D02*
X68665789Y-24467657D01*
X68665789Y-24467657D02*
X68808647Y-24372419D01*
X69761027Y-23705752D02*
X69761027Y-24515276D01*
X69761027Y-24515276D02*
X69713408Y-24610514D01*
X69713408Y-24610514D02*
X69665789Y-24658133D01*
X69665789Y-24658133D02*
X69570551Y-24705752D01*
X69570551Y-24705752D02*
X69427694Y-24705752D01*
X69427694Y-24705752D02*
X69332456Y-24658133D01*
X69761027Y-24324800D02*
X69665789Y-24372419D01*
X69665789Y-24372419D02*
X69475313Y-24372419D01*
X69475313Y-24372419D02*
X69380075Y-24324800D01*
X69380075Y-24324800D02*
X69332456Y-24277180D01*
X69332456Y-24277180D02*
X69284837Y-24181942D01*
X69284837Y-24181942D02*
X69284837Y-23896228D01*
X69284837Y-23896228D02*
X69332456Y-23800990D01*
X69332456Y-23800990D02*
X69380075Y-23753371D01*
X69380075Y-23753371D02*
X69475313Y-23705752D01*
X69475313Y-23705752D02*
X69665789Y-23705752D01*
X69665789Y-23705752D02*
X69761027Y-23753371D01*
X70237218Y-24372419D02*
X70237218Y-23705752D01*
X70237218Y-23800990D02*
X70284837Y-23753371D01*
X70284837Y-23753371D02*
X70380075Y-23705752D01*
X70380075Y-23705752D02*
X70522932Y-23705752D01*
X70522932Y-23705752D02*
X70618170Y-23753371D01*
X70618170Y-23753371D02*
X70665789Y-23848609D01*
X70665789Y-23848609D02*
X70665789Y-24372419D01*
X70665789Y-23848609D02*
X70713408Y-23753371D01*
X70713408Y-23753371D02*
X70808646Y-23705752D01*
X70808646Y-23705752D02*
X70951503Y-23705752D01*
X70951503Y-23705752D02*
X71046742Y-23753371D01*
X71046742Y-23753371D02*
X71094361Y-23848609D01*
X71094361Y-23848609D02*
X71094361Y-24372419D01*
X71999122Y-24372419D02*
X71999122Y-23848609D01*
X71999122Y-23848609D02*
X71951503Y-23753371D01*
X71951503Y-23753371D02*
X71856265Y-23705752D01*
X71856265Y-23705752D02*
X71665789Y-23705752D01*
X71665789Y-23705752D02*
X71570551Y-23753371D01*
X71999122Y-24324800D02*
X71903884Y-24372419D01*
X71903884Y-24372419D02*
X71665789Y-24372419D01*
X71665789Y-24372419D02*
X71570551Y-24324800D01*
X71570551Y-24324800D02*
X71522932Y-24229561D01*
X71522932Y-24229561D02*
X71522932Y-24134323D01*
X71522932Y-24134323D02*
X71570551Y-24039085D01*
X71570551Y-24039085D02*
X71665789Y-23991466D01*
X71665789Y-23991466D02*
X71903884Y-23991466D01*
X71903884Y-23991466D02*
X71999122Y-23943847D01*
X72475313Y-24372419D02*
X72475313Y-23705752D01*
X72475313Y-23372419D02*
X72427694Y-23420038D01*
X72427694Y-23420038D02*
X72475313Y-23467657D01*
X72475313Y-23467657D02*
X72522932Y-23420038D01*
X72522932Y-23420038D02*
X72475313Y-23372419D01*
X72475313Y-23372419D02*
X72475313Y-23467657D01*
X73094360Y-24372419D02*
X72999122Y-24324800D01*
X72999122Y-24324800D02*
X72951503Y-24229561D01*
X72951503Y-24229561D02*
X72951503Y-23372419D01*
X73475313Y-24277180D02*
X73522932Y-24324800D01*
X73522932Y-24324800D02*
X73475313Y-24372419D01*
X73475313Y-24372419D02*
X73427694Y-24324800D01*
X73427694Y-24324800D02*
X73475313Y-24277180D01*
X73475313Y-24277180D02*
X73475313Y-24372419D01*
X74380074Y-24324800D02*
X74284836Y-24372419D01*
X74284836Y-24372419D02*
X74094360Y-24372419D01*
X74094360Y-24372419D02*
X73999122Y-24324800D01*
X73999122Y-24324800D02*
X73951503Y-24277180D01*
X73951503Y-24277180D02*
X73903884Y-24181942D01*
X73903884Y-24181942D02*
X73903884Y-23896228D01*
X73903884Y-23896228D02*
X73951503Y-23800990D01*
X73951503Y-23800990D02*
X73999122Y-23753371D01*
X73999122Y-23753371D02*
X74094360Y-23705752D01*
X74094360Y-23705752D02*
X74284836Y-23705752D01*
X74284836Y-23705752D02*
X74380074Y-23753371D01*
X74951503Y-24372419D02*
X74856265Y-24324800D01*
X74856265Y-24324800D02*
X74808646Y-24277180D01*
X74808646Y-24277180D02*
X74761027Y-24181942D01*
X74761027Y-24181942D02*
X74761027Y-23896228D01*
X74761027Y-23896228D02*
X74808646Y-23800990D01*
X74808646Y-23800990D02*
X74856265Y-23753371D01*
X74856265Y-23753371D02*
X74951503Y-23705752D01*
X74951503Y-23705752D02*
X75094360Y-23705752D01*
X75094360Y-23705752D02*
X75189598Y-23753371D01*
X75189598Y-23753371D02*
X75237217Y-23800990D01*
X75237217Y-23800990D02*
X75284836Y-23896228D01*
X75284836Y-23896228D02*
X75284836Y-24181942D01*
X75284836Y-24181942D02*
X75237217Y-24277180D01*
X75237217Y-24277180D02*
X75189598Y-24324800D01*
X75189598Y-24324800D02*
X75094360Y-24372419D01*
X75094360Y-24372419D02*
X74951503Y-24372419D01*
X75713408Y-24372419D02*
X75713408Y-23705752D01*
X75713408Y-23800990D02*
X75761027Y-23753371D01*
X75761027Y-23753371D02*
X75856265Y-23705752D01*
X75856265Y-23705752D02*
X75999122Y-23705752D01*
X75999122Y-23705752D02*
X76094360Y-23753371D01*
X76094360Y-23753371D02*
X76141979Y-23848609D01*
X76141979Y-23848609D02*
X76141979Y-24372419D01*
X76141979Y-23848609D02*
X76189598Y-23753371D01*
X76189598Y-23753371D02*
X76284836Y-23705752D01*
X76284836Y-23705752D02*
X76427693Y-23705752D01*
X76427693Y-23705752D02*
X76522932Y-23753371D01*
X76522932Y-23753371D02*
X76570551Y-23848609D01*
X76570551Y-23848609D02*
X76570551Y-24372419D01*
X65403884Y-52648609D02*
X65737217Y-52648609D01*
X65880074Y-53172419D02*
X65403884Y-53172419D01*
X65403884Y-53172419D02*
X65403884Y-52172419D01*
X65403884Y-52172419D02*
X65880074Y-52172419D01*
X66261027Y-53124800D02*
X66403884Y-53172419D01*
X66403884Y-53172419D02*
X66641979Y-53172419D01*
X66641979Y-53172419D02*
X66737217Y-53124800D01*
X66737217Y-53124800D02*
X66784836Y-53077180D01*
X66784836Y-53077180D02*
X66832455Y-52981942D01*
X66832455Y-52981942D02*
X66832455Y-52886704D01*
X66832455Y-52886704D02*
X66784836Y-52791466D01*
X66784836Y-52791466D02*
X66737217Y-52743847D01*
X66737217Y-52743847D02*
X66641979Y-52696228D01*
X66641979Y-52696228D02*
X66451503Y-52648609D01*
X66451503Y-52648609D02*
X66356265Y-52600990D01*
X66356265Y-52600990D02*
X66308646Y-52553371D01*
X66308646Y-52553371D02*
X66261027Y-52458133D01*
X66261027Y-52458133D02*
X66261027Y-52362895D01*
X66261027Y-52362895D02*
X66308646Y-52267657D01*
X66308646Y-52267657D02*
X66356265Y-52220038D01*
X66356265Y-52220038D02*
X66451503Y-52172419D01*
X66451503Y-52172419D02*
X66689598Y-52172419D01*
X66689598Y-52172419D02*
X66832455Y-52220038D01*
X67261027Y-53172419D02*
X67261027Y-52172419D01*
X67261027Y-52172419D02*
X67641979Y-52172419D01*
X67641979Y-52172419D02*
X67737217Y-52220038D01*
X67737217Y-52220038D02*
X67784836Y-52267657D01*
X67784836Y-52267657D02*
X67832455Y-52362895D01*
X67832455Y-52362895D02*
X67832455Y-52505752D01*
X67832455Y-52505752D02*
X67784836Y-52600990D01*
X67784836Y-52600990D02*
X67737217Y-52648609D01*
X67737217Y-52648609D02*
X67641979Y-52696228D01*
X67641979Y-52696228D02*
X67261027Y-52696228D01*
X68165789Y-52172419D02*
X68784836Y-52172419D01*
X68784836Y-52172419D02*
X68451503Y-52553371D01*
X68451503Y-52553371D02*
X68594360Y-52553371D01*
X68594360Y-52553371D02*
X68689598Y-52600990D01*
X68689598Y-52600990D02*
X68737217Y-52648609D01*
X68737217Y-52648609D02*
X68784836Y-52743847D01*
X68784836Y-52743847D02*
X68784836Y-52981942D01*
X68784836Y-52981942D02*
X68737217Y-53077180D01*
X68737217Y-53077180D02*
X68689598Y-53124800D01*
X68689598Y-53124800D02*
X68594360Y-53172419D01*
X68594360Y-53172419D02*
X68308646Y-53172419D01*
X68308646Y-53172419D02*
X68213408Y-53124800D01*
X68213408Y-53124800D02*
X68165789Y-53077180D01*
X69165789Y-52267657D02*
X69213408Y-52220038D01*
X69213408Y-52220038D02*
X69308646Y-52172419D01*
X69308646Y-52172419D02*
X69546741Y-52172419D01*
X69546741Y-52172419D02*
X69641979Y-52220038D01*
X69641979Y-52220038D02*
X69689598Y-52267657D01*
X69689598Y-52267657D02*
X69737217Y-52362895D01*
X69737217Y-52362895D02*
X69737217Y-52458133D01*
X69737217Y-52458133D02*
X69689598Y-52600990D01*
X69689598Y-52600990D02*
X69118170Y-53172419D01*
X69118170Y-53172419D02*
X69737217Y-53172419D01*
X70165789Y-52791466D02*
X70927694Y-52791466D01*
X71356265Y-53124800D02*
X71499122Y-53172419D01*
X71499122Y-53172419D02*
X71737217Y-53172419D01*
X71737217Y-53172419D02*
X71832455Y-53124800D01*
X71832455Y-53124800D02*
X71880074Y-53077180D01*
X71880074Y-53077180D02*
X71927693Y-52981942D01*
X71927693Y-52981942D02*
X71927693Y-52886704D01*
X71927693Y-52886704D02*
X71880074Y-52791466D01*
X71880074Y-52791466D02*
X71832455Y-52743847D01*
X71832455Y-52743847D02*
X71737217Y-52696228D01*
X71737217Y-52696228D02*
X71546741Y-52648609D01*
X71546741Y-52648609D02*
X71451503Y-52600990D01*
X71451503Y-52600990D02*
X71403884Y-52553371D01*
X71403884Y-52553371D02*
X71356265Y-52458133D01*
X71356265Y-52458133D02*
X71356265Y-52362895D01*
X71356265Y-52362895D02*
X71403884Y-52267657D01*
X71403884Y-52267657D02*
X71451503Y-52220038D01*
X71451503Y-52220038D02*
X71546741Y-52172419D01*
X71546741Y-52172419D02*
X71784836Y-52172419D01*
X71784836Y-52172419D02*
X71927693Y-52220038D01*
X72261027Y-52172419D02*
X72880074Y-52172419D01*
X72880074Y-52172419D02*
X72546741Y-52553371D01*
X72546741Y-52553371D02*
X72689598Y-52553371D01*
X72689598Y-52553371D02*
X72784836Y-52600990D01*
X72784836Y-52600990D02*
X72832455Y-52648609D01*
X72832455Y-52648609D02*
X72880074Y-52743847D01*
X72880074Y-52743847D02*
X72880074Y-52981942D01*
X72880074Y-52981942D02*
X72832455Y-53077180D01*
X72832455Y-53077180D02*
X72784836Y-53124800D01*
X72784836Y-53124800D02*
X72689598Y-53172419D01*
X72689598Y-53172419D02*
X72403884Y-53172419D01*
X72403884Y-53172419D02*
X72308646Y-53124800D01*
X72308646Y-53124800D02*
X72261027Y-53077180D01*
X74070551Y-53172419D02*
X74070551Y-52172419D01*
X74070551Y-52172419D02*
X74641979Y-53172419D01*
X74641979Y-53172419D02*
X74641979Y-52172419D01*
X75641979Y-53172419D02*
X75070551Y-53172419D01*
X75356265Y-53172419D02*
X75356265Y-52172419D01*
X75356265Y-52172419D02*
X75261027Y-52315276D01*
X75261027Y-52315276D02*
X75165789Y-52410514D01*
X75165789Y-52410514D02*
X75070551Y-52458133D01*
X76499122Y-52172419D02*
X76308646Y-52172419D01*
X76308646Y-52172419D02*
X76213408Y-52220038D01*
X76213408Y-52220038D02*
X76165789Y-52267657D01*
X76165789Y-52267657D02*
X76070551Y-52410514D01*
X76070551Y-52410514D02*
X76022932Y-52600990D01*
X76022932Y-52600990D02*
X76022932Y-52981942D01*
X76022932Y-52981942D02*
X76070551Y-53077180D01*
X76070551Y-53077180D02*
X76118170Y-53124800D01*
X76118170Y-53124800D02*
X76213408Y-53172419D01*
X76213408Y-53172419D02*
X76403884Y-53172419D01*
X76403884Y-53172419D02*
X76499122Y-53124800D01*
X76499122Y-53124800D02*
X76546741Y-53077180D01*
X76546741Y-53077180D02*
X76594360Y-52981942D01*
X76594360Y-52981942D02*
X76594360Y-52743847D01*
X76594360Y-52743847D02*
X76546741Y-52648609D01*
X76546741Y-52648609D02*
X76499122Y-52600990D01*
X76499122Y-52600990D02*
X76403884Y-52553371D01*
X76403884Y-52553371D02*
X76213408Y-52553371D01*
X76213408Y-52553371D02*
X76118170Y-52600990D01*
X76118170Y-52600990D02*
X76070551Y-52648609D01*
X76070551Y-52648609D02*
X76022932Y-52743847D01*
X77594360Y-53172419D02*
X77261027Y-52696228D01*
X77022932Y-53172419D02*
X77022932Y-52172419D01*
X77022932Y-52172419D02*
X77403884Y-52172419D01*
X77403884Y-52172419D02*
X77499122Y-52220038D01*
X77499122Y-52220038D02*
X77546741Y-52267657D01*
X77546741Y-52267657D02*
X77594360Y-52362895D01*
X77594360Y-52362895D02*
X77594360Y-52505752D01*
X77594360Y-52505752D02*
X77546741Y-52600990D01*
X77546741Y-52600990D02*
X77499122Y-52648609D01*
X77499122Y-52648609D02*
X77403884Y-52696228D01*
X77403884Y-52696228D02*
X77022932Y-52696228D01*
X78165789Y-52600990D02*
X78070551Y-52553371D01*
X78070551Y-52553371D02*
X78022932Y-52505752D01*
X78022932Y-52505752D02*
X77975313Y-52410514D01*
X77975313Y-52410514D02*
X77975313Y-52362895D01*
X77975313Y-52362895D02*
X78022932Y-52267657D01*
X78022932Y-52267657D02*
X78070551Y-52220038D01*
X78070551Y-52220038D02*
X78165789Y-52172419D01*
X78165789Y-52172419D02*
X78356265Y-52172419D01*
X78356265Y-52172419D02*
X78451503Y-52220038D01*
X78451503Y-52220038D02*
X78499122Y-52267657D01*
X78499122Y-52267657D02*
X78546741Y-52362895D01*
X78546741Y-52362895D02*
X78546741Y-52410514D01*
X78546741Y-52410514D02*
X78499122Y-52505752D01*
X78499122Y-52505752D02*
X78451503Y-52553371D01*
X78451503Y-52553371D02*
X78356265Y-52600990D01*
X78356265Y-52600990D02*
X78165789Y-52600990D01*
X78165789Y-52600990D02*
X78070551Y-52648609D01*
X78070551Y-52648609D02*
X78022932Y-52696228D01*
X78022932Y-52696228D02*
X77975313Y-52791466D01*
X77975313Y-52791466D02*
X77975313Y-52981942D01*
X77975313Y-52981942D02*
X78022932Y-53077180D01*
X78022932Y-53077180D02*
X78070551Y-53124800D01*
X78070551Y-53124800D02*
X78165789Y-53172419D01*
X78165789Y-53172419D02*
X78356265Y-53172419D01*
X78356265Y-53172419D02*
X78451503Y-53124800D01*
X78451503Y-53124800D02*
X78499122Y-53077180D01*
X78499122Y-53077180D02*
X78546741Y-52981942D01*
X78546741Y-52981942D02*
X78546741Y-52791466D01*
X78546741Y-52791466D02*
X78499122Y-52696228D01*
X78499122Y-52696228D02*
X78451503Y-52648609D01*
X78451503Y-52648609D02*
X78356265Y-52600990D01*
X80963884Y-87891466D02*
X81725789Y-87891466D01*
X81344836Y-88272419D02*
X81344836Y-87510514D01*
X82678169Y-87272419D02*
X82201979Y-87272419D01*
X82201979Y-87272419D02*
X82154360Y-87748609D01*
X82154360Y-87748609D02*
X82201979Y-87700990D01*
X82201979Y-87700990D02*
X82297217Y-87653371D01*
X82297217Y-87653371D02*
X82535312Y-87653371D01*
X82535312Y-87653371D02*
X82630550Y-87700990D01*
X82630550Y-87700990D02*
X82678169Y-87748609D01*
X82678169Y-87748609D02*
X82725788Y-87843847D01*
X82725788Y-87843847D02*
X82725788Y-88081942D01*
X82725788Y-88081942D02*
X82678169Y-88177180D01*
X82678169Y-88177180D02*
X82630550Y-88224800D01*
X82630550Y-88224800D02*
X82535312Y-88272419D01*
X82535312Y-88272419D02*
X82297217Y-88272419D01*
X82297217Y-88272419D02*
X82201979Y-88224800D01*
X82201979Y-88224800D02*
X82154360Y-88177180D01*
X83011503Y-87272419D02*
X83344836Y-88272419D01*
X83344836Y-88272419D02*
X83678169Y-87272419D01*
X84887693Y-87120038D02*
X84792455Y-87072419D01*
X84792455Y-87072419D02*
X84649598Y-87072419D01*
X84649598Y-87072419D02*
X84506741Y-87120038D01*
X84506741Y-87120038D02*
X84411503Y-87215276D01*
X84411503Y-87215276D02*
X84363884Y-87310514D01*
X84363884Y-87310514D02*
X84316265Y-87500990D01*
X84316265Y-87500990D02*
X84316265Y-87643847D01*
X84316265Y-87643847D02*
X84363884Y-87834323D01*
X84363884Y-87834323D02*
X84411503Y-87929561D01*
X84411503Y-87929561D02*
X84506741Y-88024800D01*
X84506741Y-88024800D02*
X84649598Y-88072419D01*
X84649598Y-88072419D02*
X84744836Y-88072419D01*
X84744836Y-88072419D02*
X84887693Y-88024800D01*
X84887693Y-88024800D02*
X84935312Y-87977180D01*
X84935312Y-87977180D02*
X84935312Y-87643847D01*
X84935312Y-87643847D02*
X84744836Y-87643847D01*
X85363884Y-87405752D02*
X85363884Y-88072419D01*
X85363884Y-87500990D02*
X85411503Y-87453371D01*
X85411503Y-87453371D02*
X85506741Y-87405752D01*
X85506741Y-87405752D02*
X85649598Y-87405752D01*
X85649598Y-87405752D02*
X85744836Y-87453371D01*
X85744836Y-87453371D02*
X85792455Y-87548609D01*
X85792455Y-87548609D02*
X85792455Y-88072419D01*
X86697217Y-88072419D02*
X86697217Y-87072419D01*
X86697217Y-88024800D02*
X86601979Y-88072419D01*
X86601979Y-88072419D02*
X86411503Y-88072419D01*
X86411503Y-88072419D02*
X86316265Y-88024800D01*
X86316265Y-88024800D02*
X86268646Y-87977180D01*
X86268646Y-87977180D02*
X86221027Y-87881942D01*
X86221027Y-87881942D02*
X86221027Y-87596228D01*
X86221027Y-87596228D02*
X86268646Y-87500990D01*
X86268646Y-87500990D02*
X86316265Y-87453371D01*
X86316265Y-87453371D02*
X86411503Y-87405752D01*
X86411503Y-87405752D02*
X86601979Y-87405752D01*
X86601979Y-87405752D02*
X86697217Y-87453371D01*
X26927580Y-36561027D02*
X26927580Y-37132455D01*
X25927580Y-36846741D02*
X26927580Y-36846741D01*
X25927580Y-37465789D02*
X26927580Y-37465789D01*
X25927580Y-38703884D02*
X26927580Y-38703884D01*
X25927580Y-39275312D02*
X26499009Y-38846741D01*
X26927580Y-39275312D02*
X26356152Y-38703884D01*
X25975200Y-40084836D02*
X25927580Y-39989598D01*
X25927580Y-39989598D02*
X25927580Y-39799122D01*
X25927580Y-39799122D02*
X25975200Y-39703884D01*
X25975200Y-39703884D02*
X26070438Y-39656265D01*
X26070438Y-39656265D02*
X26451390Y-39656265D01*
X26451390Y-39656265D02*
X26546628Y-39703884D01*
X26546628Y-39703884D02*
X26594247Y-39799122D01*
X26594247Y-39799122D02*
X26594247Y-39989598D01*
X26594247Y-39989598D02*
X26546628Y-40084836D01*
X26546628Y-40084836D02*
X26451390Y-40132455D01*
X26451390Y-40132455D02*
X26356152Y-40132455D01*
X26356152Y-40132455D02*
X26260914Y-39656265D01*
X26594247Y-40465789D02*
X25927580Y-40703884D01*
X26594247Y-40941979D02*
X25927580Y-40703884D01*
X25927580Y-40703884D02*
X25689485Y-40608646D01*
X25689485Y-40608646D02*
X25641866Y-40561027D01*
X25641866Y-40561027D02*
X25594247Y-40465789D01*
X25927580Y-41322932D02*
X26927580Y-41322932D01*
X26546628Y-41322932D02*
X26594247Y-41418170D01*
X26594247Y-41418170D02*
X26594247Y-41608646D01*
X26594247Y-41608646D02*
X26546628Y-41703884D01*
X26546628Y-41703884D02*
X26499009Y-41751503D01*
X26499009Y-41751503D02*
X26403771Y-41799122D01*
X26403771Y-41799122D02*
X26118057Y-41799122D01*
X26118057Y-41799122D02*
X26022819Y-41751503D01*
X26022819Y-41751503D02*
X25975200Y-41703884D01*
X25975200Y-41703884D02*
X25927580Y-41608646D01*
X25927580Y-41608646D02*
X25927580Y-41418170D01*
X25927580Y-41418170D02*
X25975200Y-41322932D01*
X25927580Y-42370551D02*
X25975200Y-42275313D01*
X25975200Y-42275313D02*
X26022819Y-42227694D01*
X26022819Y-42227694D02*
X26118057Y-42180075D01*
X26118057Y-42180075D02*
X26403771Y-42180075D01*
X26403771Y-42180075D02*
X26499009Y-42227694D01*
X26499009Y-42227694D02*
X26546628Y-42275313D01*
X26546628Y-42275313D02*
X26594247Y-42370551D01*
X26594247Y-42370551D02*
X26594247Y-42513408D01*
X26594247Y-42513408D02*
X26546628Y-42608646D01*
X26546628Y-42608646D02*
X26499009Y-42656265D01*
X26499009Y-42656265D02*
X26403771Y-42703884D01*
X26403771Y-42703884D02*
X26118057Y-42703884D01*
X26118057Y-42703884D02*
X26022819Y-42656265D01*
X26022819Y-42656265D02*
X25975200Y-42608646D01*
X25975200Y-42608646D02*
X25927580Y-42513408D01*
X25927580Y-42513408D02*
X25927580Y-42370551D01*
X25927580Y-43561027D02*
X26451390Y-43561027D01*
X26451390Y-43561027D02*
X26546628Y-43513408D01*
X26546628Y-43513408D02*
X26594247Y-43418170D01*
X26594247Y-43418170D02*
X26594247Y-43227694D01*
X26594247Y-43227694D02*
X26546628Y-43132456D01*
X25975200Y-43561027D02*
X25927580Y-43465789D01*
X25927580Y-43465789D02*
X25927580Y-43227694D01*
X25927580Y-43227694D02*
X25975200Y-43132456D01*
X25975200Y-43132456D02*
X26070438Y-43084837D01*
X26070438Y-43084837D02*
X26165676Y-43084837D01*
X26165676Y-43084837D02*
X26260914Y-43132456D01*
X26260914Y-43132456D02*
X26308533Y-43227694D01*
X26308533Y-43227694D02*
X26308533Y-43465789D01*
X26308533Y-43465789D02*
X26356152Y-43561027D01*
X25927580Y-44037218D02*
X26594247Y-44037218D01*
X26403771Y-44037218D02*
X26499009Y-44084837D01*
X26499009Y-44084837D02*
X26546628Y-44132456D01*
X26546628Y-44132456D02*
X26594247Y-44227694D01*
X26594247Y-44227694D02*
X26594247Y-44322932D01*
X25927580Y-45084837D02*
X26927580Y-45084837D01*
X25975200Y-45084837D02*
X25927580Y-44989599D01*
X25927580Y-44989599D02*
X25927580Y-44799123D01*
X25927580Y-44799123D02*
X25975200Y-44703885D01*
X25975200Y-44703885D02*
X26022819Y-44656266D01*
X26022819Y-44656266D02*
X26118057Y-44608647D01*
X26118057Y-44608647D02*
X26403771Y-44608647D01*
X26403771Y-44608647D02*
X26499009Y-44656266D01*
X26499009Y-44656266D02*
X26546628Y-44703885D01*
X26546628Y-44703885D02*
X26594247Y-44799123D01*
X26594247Y-44799123D02*
X26594247Y-44989599D01*
X26594247Y-44989599D02*
X26546628Y-45084837D01*
X25927580Y-46322933D02*
X26927580Y-46322933D01*
X26594247Y-46799123D02*
X25927580Y-46799123D01*
X26499009Y-46799123D02*
X26546628Y-46846742D01*
X26546628Y-46846742D02*
X26594247Y-46941980D01*
X26594247Y-46941980D02*
X26594247Y-47084837D01*
X26594247Y-47084837D02*
X26546628Y-47180075D01*
X26546628Y-47180075D02*
X26451390Y-47227694D01*
X26451390Y-47227694D02*
X25927580Y-47227694D01*
X26594247Y-47561028D02*
X26594247Y-47941980D01*
X26927580Y-47703885D02*
X26070438Y-47703885D01*
X26070438Y-47703885D02*
X25975200Y-47751504D01*
X25975200Y-47751504D02*
X25927580Y-47846742D01*
X25927580Y-47846742D02*
X25927580Y-47941980D01*
X25975200Y-48656266D02*
X25927580Y-48561028D01*
X25927580Y-48561028D02*
X25927580Y-48370552D01*
X25927580Y-48370552D02*
X25975200Y-48275314D01*
X25975200Y-48275314D02*
X26070438Y-48227695D01*
X26070438Y-48227695D02*
X26451390Y-48227695D01*
X26451390Y-48227695D02*
X26546628Y-48275314D01*
X26546628Y-48275314D02*
X26594247Y-48370552D01*
X26594247Y-48370552D02*
X26594247Y-48561028D01*
X26594247Y-48561028D02*
X26546628Y-48656266D01*
X26546628Y-48656266D02*
X26451390Y-48703885D01*
X26451390Y-48703885D02*
X26356152Y-48703885D01*
X26356152Y-48703885D02*
X26260914Y-48227695D01*
X25927580Y-49132457D02*
X26594247Y-49132457D01*
X26403771Y-49132457D02*
X26499009Y-49180076D01*
X26499009Y-49180076D02*
X26546628Y-49227695D01*
X26546628Y-49227695D02*
X26594247Y-49322933D01*
X26594247Y-49322933D02*
X26594247Y-49418171D01*
X26594247Y-49608648D02*
X26594247Y-49989600D01*
X25927580Y-49751505D02*
X26784723Y-49751505D01*
X26784723Y-49751505D02*
X26879961Y-49799124D01*
X26879961Y-49799124D02*
X26927580Y-49894362D01*
X26927580Y-49894362D02*
X26927580Y-49989600D01*
X25927580Y-50751505D02*
X26451390Y-50751505D01*
X26451390Y-50751505D02*
X26546628Y-50703886D01*
X26546628Y-50703886D02*
X26594247Y-50608648D01*
X26594247Y-50608648D02*
X26594247Y-50418172D01*
X26594247Y-50418172D02*
X26546628Y-50322934D01*
X25975200Y-50751505D02*
X25927580Y-50656267D01*
X25927580Y-50656267D02*
X25927580Y-50418172D01*
X25927580Y-50418172D02*
X25975200Y-50322934D01*
X25975200Y-50322934D02*
X26070438Y-50275315D01*
X26070438Y-50275315D02*
X26165676Y-50275315D01*
X26165676Y-50275315D02*
X26260914Y-50322934D01*
X26260914Y-50322934D02*
X26308533Y-50418172D01*
X26308533Y-50418172D02*
X26308533Y-50656267D01*
X26308533Y-50656267D02*
X26356152Y-50751505D01*
X25975200Y-51656267D02*
X25927580Y-51561029D01*
X25927580Y-51561029D02*
X25927580Y-51370553D01*
X25927580Y-51370553D02*
X25975200Y-51275315D01*
X25975200Y-51275315D02*
X26022819Y-51227696D01*
X26022819Y-51227696D02*
X26118057Y-51180077D01*
X26118057Y-51180077D02*
X26403771Y-51180077D01*
X26403771Y-51180077D02*
X26499009Y-51227696D01*
X26499009Y-51227696D02*
X26546628Y-51275315D01*
X26546628Y-51275315D02*
X26594247Y-51370553D01*
X26594247Y-51370553D02*
X26594247Y-51561029D01*
X26594247Y-51561029D02*
X26546628Y-51656267D01*
X25975200Y-52465791D02*
X25927580Y-52370553D01*
X25927580Y-52370553D02*
X25927580Y-52180077D01*
X25927580Y-52180077D02*
X25975200Y-52084839D01*
X25975200Y-52084839D02*
X26070438Y-52037220D01*
X26070438Y-52037220D02*
X26451390Y-52037220D01*
X26451390Y-52037220D02*
X26546628Y-52084839D01*
X26546628Y-52084839D02*
X26594247Y-52180077D01*
X26594247Y-52180077D02*
X26594247Y-52370553D01*
X26594247Y-52370553D02*
X26546628Y-52465791D01*
X26546628Y-52465791D02*
X26451390Y-52513410D01*
X26451390Y-52513410D02*
X26356152Y-52513410D01*
X26356152Y-52513410D02*
X26260914Y-52037220D01*
D11*
X52170974Y-45165488D02*
X52075736Y-45117869D01*
X52075736Y-45117869D02*
X51932879Y-45117869D01*
X51932879Y-45117869D02*
X51790022Y-45165488D01*
X51790022Y-45165488D02*
X51694784Y-45260726D01*
X51694784Y-45260726D02*
X51647165Y-45355964D01*
X51647165Y-45355964D02*
X51599546Y-45546440D01*
X51599546Y-45546440D02*
X51599546Y-45689297D01*
X51599546Y-45689297D02*
X51647165Y-45879773D01*
X51647165Y-45879773D02*
X51694784Y-45975011D01*
X51694784Y-45975011D02*
X51790022Y-46070250D01*
X51790022Y-46070250D02*
X51932879Y-46117869D01*
X51932879Y-46117869D02*
X52028117Y-46117869D01*
X52028117Y-46117869D02*
X52170974Y-46070250D01*
X52170974Y-46070250D02*
X52218593Y-46022630D01*
X52218593Y-46022630D02*
X52218593Y-45689297D01*
X52218593Y-45689297D02*
X52028117Y-45689297D01*
X52647165Y-46117869D02*
X52647165Y-45117869D01*
X52647165Y-45117869D02*
X53028117Y-45117869D01*
X53028117Y-45117869D02*
X53123355Y-45165488D01*
X53123355Y-45165488D02*
X53170974Y-45213107D01*
X53170974Y-45213107D02*
X53218593Y-45308345D01*
X53218593Y-45308345D02*
X53218593Y-45451202D01*
X53218593Y-45451202D02*
X53170974Y-45546440D01*
X53170974Y-45546440D02*
X53123355Y-45594059D01*
X53123355Y-45594059D02*
X53028117Y-45641678D01*
X53028117Y-45641678D02*
X52647165Y-45641678D01*
X53647165Y-46117869D02*
X53647165Y-45117869D01*
X54313831Y-45117869D02*
X54504307Y-45117869D01*
X54504307Y-45117869D02*
X54599545Y-45165488D01*
X54599545Y-45165488D02*
X54694783Y-45260726D01*
X54694783Y-45260726D02*
X54742402Y-45451202D01*
X54742402Y-45451202D02*
X54742402Y-45784535D01*
X54742402Y-45784535D02*
X54694783Y-45975011D01*
X54694783Y-45975011D02*
X54599545Y-46070250D01*
X54599545Y-46070250D02*
X54504307Y-46117869D01*
X54504307Y-46117869D02*
X54313831Y-46117869D01*
X54313831Y-46117869D02*
X54218593Y-46070250D01*
X54218593Y-46070250D02*
X54123355Y-45975011D01*
X54123355Y-45975011D02*
X54075736Y-45784535D01*
X54075736Y-45784535D02*
X54075736Y-45451202D01*
X54075736Y-45451202D02*
X54123355Y-45260726D01*
X54123355Y-45260726D02*
X54218593Y-45165488D01*
X54218593Y-45165488D02*
X54313831Y-45117869D01*
X55694783Y-46117869D02*
X55123355Y-46117869D01*
X55409069Y-46117869D02*
X55409069Y-45117869D01*
X55409069Y-45117869D02*
X55313831Y-45260726D01*
X55313831Y-45260726D02*
X55218593Y-45355964D01*
X55218593Y-45355964D02*
X55123355Y-45403583D01*
X56599545Y-45117869D02*
X56123355Y-45117869D01*
X56123355Y-45117869D02*
X56075736Y-45594059D01*
X56075736Y-45594059D02*
X56123355Y-45546440D01*
X56123355Y-45546440D02*
X56218593Y-45498821D01*
X56218593Y-45498821D02*
X56456688Y-45498821D01*
X56456688Y-45498821D02*
X56551926Y-45546440D01*
X56551926Y-45546440D02*
X56599545Y-45594059D01*
X56599545Y-45594059D02*
X56647164Y-45689297D01*
X56647164Y-45689297D02*
X56647164Y-45927392D01*
X56647164Y-45927392D02*
X56599545Y-46022630D01*
X56599545Y-46022630D02*
X56551926Y-46070250D01*
X56551926Y-46070250D02*
X56456688Y-46117869D01*
X56456688Y-46117869D02*
X56218593Y-46117869D01*
X56218593Y-46117869D02*
X56123355Y-46070250D01*
X56123355Y-46070250D02*
X56075736Y-46022630D01*
X52170974Y-47665488D02*
X52075736Y-47617869D01*
X52075736Y-47617869D02*
X51932879Y-47617869D01*
X51932879Y-47617869D02*
X51790022Y-47665488D01*
X51790022Y-47665488D02*
X51694784Y-47760726D01*
X51694784Y-47760726D02*
X51647165Y-47855964D01*
X51647165Y-47855964D02*
X51599546Y-48046440D01*
X51599546Y-48046440D02*
X51599546Y-48189297D01*
X51599546Y-48189297D02*
X51647165Y-48379773D01*
X51647165Y-48379773D02*
X51694784Y-48475011D01*
X51694784Y-48475011D02*
X51790022Y-48570250D01*
X51790022Y-48570250D02*
X51932879Y-48617869D01*
X51932879Y-48617869D02*
X52028117Y-48617869D01*
X52028117Y-48617869D02*
X52170974Y-48570250D01*
X52170974Y-48570250D02*
X52218593Y-48522630D01*
X52218593Y-48522630D02*
X52218593Y-48189297D01*
X52218593Y-48189297D02*
X52028117Y-48189297D01*
X52647165Y-48617869D02*
X52647165Y-47617869D01*
X52647165Y-47617869D02*
X53028117Y-47617869D01*
X53028117Y-47617869D02*
X53123355Y-47665488D01*
X53123355Y-47665488D02*
X53170974Y-47713107D01*
X53170974Y-47713107D02*
X53218593Y-47808345D01*
X53218593Y-47808345D02*
X53218593Y-47951202D01*
X53218593Y-47951202D02*
X53170974Y-48046440D01*
X53170974Y-48046440D02*
X53123355Y-48094059D01*
X53123355Y-48094059D02*
X53028117Y-48141678D01*
X53028117Y-48141678D02*
X52647165Y-48141678D01*
X53647165Y-48617869D02*
X53647165Y-47617869D01*
X54313831Y-47617869D02*
X54504307Y-47617869D01*
X54504307Y-47617869D02*
X54599545Y-47665488D01*
X54599545Y-47665488D02*
X54694783Y-47760726D01*
X54694783Y-47760726D02*
X54742402Y-47951202D01*
X54742402Y-47951202D02*
X54742402Y-48284535D01*
X54742402Y-48284535D02*
X54694783Y-48475011D01*
X54694783Y-48475011D02*
X54599545Y-48570250D01*
X54599545Y-48570250D02*
X54504307Y-48617869D01*
X54504307Y-48617869D02*
X54313831Y-48617869D01*
X54313831Y-48617869D02*
X54218593Y-48570250D01*
X54218593Y-48570250D02*
X54123355Y-48475011D01*
X54123355Y-48475011D02*
X54075736Y-48284535D01*
X54075736Y-48284535D02*
X54075736Y-47951202D01*
X54075736Y-47951202D02*
X54123355Y-47760726D01*
X54123355Y-47760726D02*
X54218593Y-47665488D01*
X54218593Y-47665488D02*
X54313831Y-47617869D01*
X55694783Y-48617869D02*
X55123355Y-48617869D01*
X55409069Y-48617869D02*
X55409069Y-47617869D01*
X55409069Y-47617869D02*
X55313831Y-47760726D01*
X55313831Y-47760726D02*
X55218593Y-47855964D01*
X55218593Y-47855964D02*
X55123355Y-47903583D01*
X56551926Y-47617869D02*
X56361450Y-47617869D01*
X56361450Y-47617869D02*
X56266212Y-47665488D01*
X56266212Y-47665488D02*
X56218593Y-47713107D01*
X56218593Y-47713107D02*
X56123355Y-47855964D01*
X56123355Y-47855964D02*
X56075736Y-48046440D01*
X56075736Y-48046440D02*
X56075736Y-48427392D01*
X56075736Y-48427392D02*
X56123355Y-48522630D01*
X56123355Y-48522630D02*
X56170974Y-48570250D01*
X56170974Y-48570250D02*
X56266212Y-48617869D01*
X56266212Y-48617869D02*
X56456688Y-48617869D01*
X56456688Y-48617869D02*
X56551926Y-48570250D01*
X56551926Y-48570250D02*
X56599545Y-48522630D01*
X56599545Y-48522630D02*
X56647164Y-48427392D01*
X56647164Y-48427392D02*
X56647164Y-48189297D01*
X56647164Y-48189297D02*
X56599545Y-48094059D01*
X56599545Y-48094059D02*
X56551926Y-48046440D01*
X56551926Y-48046440D02*
X56456688Y-47998821D01*
X56456688Y-47998821D02*
X56266212Y-47998821D01*
X56266212Y-47998821D02*
X56170974Y-48046440D01*
X56170974Y-48046440D02*
X56123355Y-48094059D01*
X56123355Y-48094059D02*
X56075736Y-48189297D01*
X52170974Y-50415488D02*
X52075736Y-50367869D01*
X52075736Y-50367869D02*
X51932879Y-50367869D01*
X51932879Y-50367869D02*
X51790022Y-50415488D01*
X51790022Y-50415488D02*
X51694784Y-50510726D01*
X51694784Y-50510726D02*
X51647165Y-50605964D01*
X51647165Y-50605964D02*
X51599546Y-50796440D01*
X51599546Y-50796440D02*
X51599546Y-50939297D01*
X51599546Y-50939297D02*
X51647165Y-51129773D01*
X51647165Y-51129773D02*
X51694784Y-51225011D01*
X51694784Y-51225011D02*
X51790022Y-51320250D01*
X51790022Y-51320250D02*
X51932879Y-51367869D01*
X51932879Y-51367869D02*
X52028117Y-51367869D01*
X52028117Y-51367869D02*
X52170974Y-51320250D01*
X52170974Y-51320250D02*
X52218593Y-51272630D01*
X52218593Y-51272630D02*
X52218593Y-50939297D01*
X52218593Y-50939297D02*
X52028117Y-50939297D01*
X52647165Y-51367869D02*
X52647165Y-50367869D01*
X52647165Y-50367869D02*
X53028117Y-50367869D01*
X53028117Y-50367869D02*
X53123355Y-50415488D01*
X53123355Y-50415488D02*
X53170974Y-50463107D01*
X53170974Y-50463107D02*
X53218593Y-50558345D01*
X53218593Y-50558345D02*
X53218593Y-50701202D01*
X53218593Y-50701202D02*
X53170974Y-50796440D01*
X53170974Y-50796440D02*
X53123355Y-50844059D01*
X53123355Y-50844059D02*
X53028117Y-50891678D01*
X53028117Y-50891678D02*
X52647165Y-50891678D01*
X53647165Y-51367869D02*
X53647165Y-50367869D01*
X54313831Y-50367869D02*
X54504307Y-50367869D01*
X54504307Y-50367869D02*
X54599545Y-50415488D01*
X54599545Y-50415488D02*
X54694783Y-50510726D01*
X54694783Y-50510726D02*
X54742402Y-50701202D01*
X54742402Y-50701202D02*
X54742402Y-51034535D01*
X54742402Y-51034535D02*
X54694783Y-51225011D01*
X54694783Y-51225011D02*
X54599545Y-51320250D01*
X54599545Y-51320250D02*
X54504307Y-51367869D01*
X54504307Y-51367869D02*
X54313831Y-51367869D01*
X54313831Y-51367869D02*
X54218593Y-51320250D01*
X54218593Y-51320250D02*
X54123355Y-51225011D01*
X54123355Y-51225011D02*
X54075736Y-51034535D01*
X54075736Y-51034535D02*
X54075736Y-50701202D01*
X54075736Y-50701202D02*
X54123355Y-50510726D01*
X54123355Y-50510726D02*
X54218593Y-50415488D01*
X54218593Y-50415488D02*
X54313831Y-50367869D01*
X55694783Y-51367869D02*
X55123355Y-51367869D01*
X55409069Y-51367869D02*
X55409069Y-50367869D01*
X55409069Y-50367869D02*
X55313831Y-50510726D01*
X55313831Y-50510726D02*
X55218593Y-50605964D01*
X55218593Y-50605964D02*
X55123355Y-50653583D01*
X56028117Y-50367869D02*
X56694783Y-50367869D01*
X56694783Y-50367869D02*
X56266212Y-51367869D01*
X52170974Y-52915488D02*
X52075736Y-52867869D01*
X52075736Y-52867869D02*
X51932879Y-52867869D01*
X51932879Y-52867869D02*
X51790022Y-52915488D01*
X51790022Y-52915488D02*
X51694784Y-53010726D01*
X51694784Y-53010726D02*
X51647165Y-53105964D01*
X51647165Y-53105964D02*
X51599546Y-53296440D01*
X51599546Y-53296440D02*
X51599546Y-53439297D01*
X51599546Y-53439297D02*
X51647165Y-53629773D01*
X51647165Y-53629773D02*
X51694784Y-53725011D01*
X51694784Y-53725011D02*
X51790022Y-53820250D01*
X51790022Y-53820250D02*
X51932879Y-53867869D01*
X51932879Y-53867869D02*
X52028117Y-53867869D01*
X52028117Y-53867869D02*
X52170974Y-53820250D01*
X52170974Y-53820250D02*
X52218593Y-53772630D01*
X52218593Y-53772630D02*
X52218593Y-53439297D01*
X52218593Y-53439297D02*
X52028117Y-53439297D01*
X52647165Y-53867869D02*
X52647165Y-52867869D01*
X52647165Y-52867869D02*
X53028117Y-52867869D01*
X53028117Y-52867869D02*
X53123355Y-52915488D01*
X53123355Y-52915488D02*
X53170974Y-52963107D01*
X53170974Y-52963107D02*
X53218593Y-53058345D01*
X53218593Y-53058345D02*
X53218593Y-53201202D01*
X53218593Y-53201202D02*
X53170974Y-53296440D01*
X53170974Y-53296440D02*
X53123355Y-53344059D01*
X53123355Y-53344059D02*
X53028117Y-53391678D01*
X53028117Y-53391678D02*
X52647165Y-53391678D01*
X53647165Y-53867869D02*
X53647165Y-52867869D01*
X54313831Y-52867869D02*
X54504307Y-52867869D01*
X54504307Y-52867869D02*
X54599545Y-52915488D01*
X54599545Y-52915488D02*
X54694783Y-53010726D01*
X54694783Y-53010726D02*
X54742402Y-53201202D01*
X54742402Y-53201202D02*
X54742402Y-53534535D01*
X54742402Y-53534535D02*
X54694783Y-53725011D01*
X54694783Y-53725011D02*
X54599545Y-53820250D01*
X54599545Y-53820250D02*
X54504307Y-53867869D01*
X54504307Y-53867869D02*
X54313831Y-53867869D01*
X54313831Y-53867869D02*
X54218593Y-53820250D01*
X54218593Y-53820250D02*
X54123355Y-53725011D01*
X54123355Y-53725011D02*
X54075736Y-53534535D01*
X54075736Y-53534535D02*
X54075736Y-53201202D01*
X54075736Y-53201202D02*
X54123355Y-53010726D01*
X54123355Y-53010726D02*
X54218593Y-52915488D01*
X54218593Y-52915488D02*
X54313831Y-52867869D01*
X55694783Y-53867869D02*
X55123355Y-53867869D01*
X55409069Y-53867869D02*
X55409069Y-52867869D01*
X55409069Y-52867869D02*
X55313831Y-53010726D01*
X55313831Y-53010726D02*
X55218593Y-53105964D01*
X55218593Y-53105964D02*
X55123355Y-53153583D01*
X56266212Y-53296440D02*
X56170974Y-53248821D01*
X56170974Y-53248821D02*
X56123355Y-53201202D01*
X56123355Y-53201202D02*
X56075736Y-53105964D01*
X56075736Y-53105964D02*
X56075736Y-53058345D01*
X56075736Y-53058345D02*
X56123355Y-52963107D01*
X56123355Y-52963107D02*
X56170974Y-52915488D01*
X56170974Y-52915488D02*
X56266212Y-52867869D01*
X56266212Y-52867869D02*
X56456688Y-52867869D01*
X56456688Y-52867869D02*
X56551926Y-52915488D01*
X56551926Y-52915488D02*
X56599545Y-52963107D01*
X56599545Y-52963107D02*
X56647164Y-53058345D01*
X56647164Y-53058345D02*
X56647164Y-53105964D01*
X56647164Y-53105964D02*
X56599545Y-53201202D01*
X56599545Y-53201202D02*
X56551926Y-53248821D01*
X56551926Y-53248821D02*
X56456688Y-53296440D01*
X56456688Y-53296440D02*
X56266212Y-53296440D01*
X56266212Y-53296440D02*
X56170974Y-53344059D01*
X56170974Y-53344059D02*
X56123355Y-53391678D01*
X56123355Y-53391678D02*
X56075736Y-53486916D01*
X56075736Y-53486916D02*
X56075736Y-53677392D01*
X56075736Y-53677392D02*
X56123355Y-53772630D01*
X56123355Y-53772630D02*
X56170974Y-53820250D01*
X56170974Y-53820250D02*
X56266212Y-53867869D01*
X56266212Y-53867869D02*
X56456688Y-53867869D01*
X56456688Y-53867869D02*
X56551926Y-53820250D01*
X56551926Y-53820250D02*
X56599545Y-53772630D01*
X56599545Y-53772630D02*
X56647164Y-53677392D01*
X56647164Y-53677392D02*
X56647164Y-53486916D01*
X56647164Y-53486916D02*
X56599545Y-53391678D01*
X56599545Y-53391678D02*
X56551926Y-53344059D01*
X56551926Y-53344059D02*
X56456688Y-53296440D01*
X52170974Y-60415488D02*
X52075736Y-60367869D01*
X52075736Y-60367869D02*
X51932879Y-60367869D01*
X51932879Y-60367869D02*
X51790022Y-60415488D01*
X51790022Y-60415488D02*
X51694784Y-60510726D01*
X51694784Y-60510726D02*
X51647165Y-60605964D01*
X51647165Y-60605964D02*
X51599546Y-60796440D01*
X51599546Y-60796440D02*
X51599546Y-60939297D01*
X51599546Y-60939297D02*
X51647165Y-61129773D01*
X51647165Y-61129773D02*
X51694784Y-61225011D01*
X51694784Y-61225011D02*
X51790022Y-61320250D01*
X51790022Y-61320250D02*
X51932879Y-61367869D01*
X51932879Y-61367869D02*
X52028117Y-61367869D01*
X52028117Y-61367869D02*
X52170974Y-61320250D01*
X52170974Y-61320250D02*
X52218593Y-61272630D01*
X52218593Y-61272630D02*
X52218593Y-60939297D01*
X52218593Y-60939297D02*
X52028117Y-60939297D01*
X52647165Y-61367869D02*
X52647165Y-60367869D01*
X52647165Y-60367869D02*
X53028117Y-60367869D01*
X53028117Y-60367869D02*
X53123355Y-60415488D01*
X53123355Y-60415488D02*
X53170974Y-60463107D01*
X53170974Y-60463107D02*
X53218593Y-60558345D01*
X53218593Y-60558345D02*
X53218593Y-60701202D01*
X53218593Y-60701202D02*
X53170974Y-60796440D01*
X53170974Y-60796440D02*
X53123355Y-60844059D01*
X53123355Y-60844059D02*
X53028117Y-60891678D01*
X53028117Y-60891678D02*
X52647165Y-60891678D01*
X53647165Y-61367869D02*
X53647165Y-60367869D01*
X54313831Y-60367869D02*
X54504307Y-60367869D01*
X54504307Y-60367869D02*
X54599545Y-60415488D01*
X54599545Y-60415488D02*
X54694783Y-60510726D01*
X54694783Y-60510726D02*
X54742402Y-60701202D01*
X54742402Y-60701202D02*
X54742402Y-61034535D01*
X54742402Y-61034535D02*
X54694783Y-61225011D01*
X54694783Y-61225011D02*
X54599545Y-61320250D01*
X54599545Y-61320250D02*
X54504307Y-61367869D01*
X54504307Y-61367869D02*
X54313831Y-61367869D01*
X54313831Y-61367869D02*
X54218593Y-61320250D01*
X54218593Y-61320250D02*
X54123355Y-61225011D01*
X54123355Y-61225011D02*
X54075736Y-61034535D01*
X54075736Y-61034535D02*
X54075736Y-60701202D01*
X54075736Y-60701202D02*
X54123355Y-60510726D01*
X54123355Y-60510726D02*
X54218593Y-60415488D01*
X54218593Y-60415488D02*
X54313831Y-60367869D01*
X55599545Y-60701202D02*
X55599545Y-61367869D01*
X55361450Y-60320250D02*
X55123355Y-61034535D01*
X55123355Y-61034535D02*
X55742402Y-61034535D01*
X56551926Y-60367869D02*
X56361450Y-60367869D01*
X56361450Y-60367869D02*
X56266212Y-60415488D01*
X56266212Y-60415488D02*
X56218593Y-60463107D01*
X56218593Y-60463107D02*
X56123355Y-60605964D01*
X56123355Y-60605964D02*
X56075736Y-60796440D01*
X56075736Y-60796440D02*
X56075736Y-61177392D01*
X56075736Y-61177392D02*
X56123355Y-61272630D01*
X56123355Y-61272630D02*
X56170974Y-61320250D01*
X56170974Y-61320250D02*
X56266212Y-61367869D01*
X56266212Y-61367869D02*
X56456688Y-61367869D01*
X56456688Y-61367869D02*
X56551926Y-61320250D01*
X56551926Y-61320250D02*
X56599545Y-61272630D01*
X56599545Y-61272630D02*
X56647164Y-61177392D01*
X56647164Y-61177392D02*
X56647164Y-60939297D01*
X56647164Y-60939297D02*
X56599545Y-60844059D01*
X56599545Y-60844059D02*
X56551926Y-60796440D01*
X56551926Y-60796440D02*
X56456688Y-60748821D01*
X56456688Y-60748821D02*
X56266212Y-60748821D01*
X56266212Y-60748821D02*
X56170974Y-60796440D01*
X56170974Y-60796440D02*
X56123355Y-60844059D01*
X56123355Y-60844059D02*
X56075736Y-60939297D01*
X52170974Y-65665488D02*
X52075736Y-65617869D01*
X52075736Y-65617869D02*
X51932879Y-65617869D01*
X51932879Y-65617869D02*
X51790022Y-65665488D01*
X51790022Y-65665488D02*
X51694784Y-65760726D01*
X51694784Y-65760726D02*
X51647165Y-65855964D01*
X51647165Y-65855964D02*
X51599546Y-66046440D01*
X51599546Y-66046440D02*
X51599546Y-66189297D01*
X51599546Y-66189297D02*
X51647165Y-66379773D01*
X51647165Y-66379773D02*
X51694784Y-66475011D01*
X51694784Y-66475011D02*
X51790022Y-66570250D01*
X51790022Y-66570250D02*
X51932879Y-66617869D01*
X51932879Y-66617869D02*
X52028117Y-66617869D01*
X52028117Y-66617869D02*
X52170974Y-66570250D01*
X52170974Y-66570250D02*
X52218593Y-66522630D01*
X52218593Y-66522630D02*
X52218593Y-66189297D01*
X52218593Y-66189297D02*
X52028117Y-66189297D01*
X52647165Y-66617869D02*
X52647165Y-65617869D01*
X52647165Y-65617869D02*
X53028117Y-65617869D01*
X53028117Y-65617869D02*
X53123355Y-65665488D01*
X53123355Y-65665488D02*
X53170974Y-65713107D01*
X53170974Y-65713107D02*
X53218593Y-65808345D01*
X53218593Y-65808345D02*
X53218593Y-65951202D01*
X53218593Y-65951202D02*
X53170974Y-66046440D01*
X53170974Y-66046440D02*
X53123355Y-66094059D01*
X53123355Y-66094059D02*
X53028117Y-66141678D01*
X53028117Y-66141678D02*
X52647165Y-66141678D01*
X53647165Y-66617869D02*
X53647165Y-65617869D01*
X54313831Y-65617869D02*
X54504307Y-65617869D01*
X54504307Y-65617869D02*
X54599545Y-65665488D01*
X54599545Y-65665488D02*
X54694783Y-65760726D01*
X54694783Y-65760726D02*
X54742402Y-65951202D01*
X54742402Y-65951202D02*
X54742402Y-66284535D01*
X54742402Y-66284535D02*
X54694783Y-66475011D01*
X54694783Y-66475011D02*
X54599545Y-66570250D01*
X54599545Y-66570250D02*
X54504307Y-66617869D01*
X54504307Y-66617869D02*
X54313831Y-66617869D01*
X54313831Y-66617869D02*
X54218593Y-66570250D01*
X54218593Y-66570250D02*
X54123355Y-66475011D01*
X54123355Y-66475011D02*
X54075736Y-66284535D01*
X54075736Y-66284535D02*
X54075736Y-65951202D01*
X54075736Y-65951202D02*
X54123355Y-65760726D01*
X54123355Y-65760726D02*
X54218593Y-65665488D01*
X54218593Y-65665488D02*
X54313831Y-65617869D01*
X55694783Y-66617869D02*
X55123355Y-66617869D01*
X55409069Y-66617869D02*
X55409069Y-65617869D01*
X55409069Y-65617869D02*
X55313831Y-65760726D01*
X55313831Y-65760726D02*
X55218593Y-65855964D01*
X55218593Y-65855964D02*
X55123355Y-65903583D01*
X56313831Y-65617869D02*
X56409069Y-65617869D01*
X56409069Y-65617869D02*
X56504307Y-65665488D01*
X56504307Y-65665488D02*
X56551926Y-65713107D01*
X56551926Y-65713107D02*
X56599545Y-65808345D01*
X56599545Y-65808345D02*
X56647164Y-65998821D01*
X56647164Y-65998821D02*
X56647164Y-66236916D01*
X56647164Y-66236916D02*
X56599545Y-66427392D01*
X56599545Y-66427392D02*
X56551926Y-66522630D01*
X56551926Y-66522630D02*
X56504307Y-66570250D01*
X56504307Y-66570250D02*
X56409069Y-66617869D01*
X56409069Y-66617869D02*
X56313831Y-66617869D01*
X56313831Y-66617869D02*
X56218593Y-66570250D01*
X56218593Y-66570250D02*
X56170974Y-66522630D01*
X56170974Y-66522630D02*
X56123355Y-66427392D01*
X56123355Y-66427392D02*
X56075736Y-66236916D01*
X56075736Y-66236916D02*
X56075736Y-65998821D01*
X56075736Y-65998821D02*
X56123355Y-65808345D01*
X56123355Y-65808345D02*
X56170974Y-65713107D01*
X56170974Y-65713107D02*
X56218593Y-65665488D01*
X56218593Y-65665488D02*
X56313831Y-65617869D01*
X52170974Y-68165488D02*
X52075736Y-68117869D01*
X52075736Y-68117869D02*
X51932879Y-68117869D01*
X51932879Y-68117869D02*
X51790022Y-68165488D01*
X51790022Y-68165488D02*
X51694784Y-68260726D01*
X51694784Y-68260726D02*
X51647165Y-68355964D01*
X51647165Y-68355964D02*
X51599546Y-68546440D01*
X51599546Y-68546440D02*
X51599546Y-68689297D01*
X51599546Y-68689297D02*
X51647165Y-68879773D01*
X51647165Y-68879773D02*
X51694784Y-68975011D01*
X51694784Y-68975011D02*
X51790022Y-69070250D01*
X51790022Y-69070250D02*
X51932879Y-69117869D01*
X51932879Y-69117869D02*
X52028117Y-69117869D01*
X52028117Y-69117869D02*
X52170974Y-69070250D01*
X52170974Y-69070250D02*
X52218593Y-69022630D01*
X52218593Y-69022630D02*
X52218593Y-68689297D01*
X52218593Y-68689297D02*
X52028117Y-68689297D01*
X52647165Y-69117869D02*
X52647165Y-68117869D01*
X52647165Y-68117869D02*
X53028117Y-68117869D01*
X53028117Y-68117869D02*
X53123355Y-68165488D01*
X53123355Y-68165488D02*
X53170974Y-68213107D01*
X53170974Y-68213107D02*
X53218593Y-68308345D01*
X53218593Y-68308345D02*
X53218593Y-68451202D01*
X53218593Y-68451202D02*
X53170974Y-68546440D01*
X53170974Y-68546440D02*
X53123355Y-68594059D01*
X53123355Y-68594059D02*
X53028117Y-68641678D01*
X53028117Y-68641678D02*
X52647165Y-68641678D01*
X53647165Y-69117869D02*
X53647165Y-68117869D01*
X54313831Y-68117869D02*
X54504307Y-68117869D01*
X54504307Y-68117869D02*
X54599545Y-68165488D01*
X54599545Y-68165488D02*
X54694783Y-68260726D01*
X54694783Y-68260726D02*
X54742402Y-68451202D01*
X54742402Y-68451202D02*
X54742402Y-68784535D01*
X54742402Y-68784535D02*
X54694783Y-68975011D01*
X54694783Y-68975011D02*
X54599545Y-69070250D01*
X54599545Y-69070250D02*
X54504307Y-69117869D01*
X54504307Y-69117869D02*
X54313831Y-69117869D01*
X54313831Y-69117869D02*
X54218593Y-69070250D01*
X54218593Y-69070250D02*
X54123355Y-68975011D01*
X54123355Y-68975011D02*
X54075736Y-68784535D01*
X54075736Y-68784535D02*
X54075736Y-68451202D01*
X54075736Y-68451202D02*
X54123355Y-68260726D01*
X54123355Y-68260726D02*
X54218593Y-68165488D01*
X54218593Y-68165488D02*
X54313831Y-68117869D01*
X55694783Y-69117869D02*
X55123355Y-69117869D01*
X55409069Y-69117869D02*
X55409069Y-68117869D01*
X55409069Y-68117869D02*
X55313831Y-68260726D01*
X55313831Y-68260726D02*
X55218593Y-68355964D01*
X55218593Y-68355964D02*
X55123355Y-68403583D01*
X56647164Y-69117869D02*
X56075736Y-69117869D01*
X56361450Y-69117869D02*
X56361450Y-68117869D01*
X56361450Y-68117869D02*
X56266212Y-68260726D01*
X56266212Y-68260726D02*
X56170974Y-68355964D01*
X56170974Y-68355964D02*
X56075736Y-68403583D01*
X52170974Y-70665488D02*
X52075736Y-70617869D01*
X52075736Y-70617869D02*
X51932879Y-70617869D01*
X51932879Y-70617869D02*
X51790022Y-70665488D01*
X51790022Y-70665488D02*
X51694784Y-70760726D01*
X51694784Y-70760726D02*
X51647165Y-70855964D01*
X51647165Y-70855964D02*
X51599546Y-71046440D01*
X51599546Y-71046440D02*
X51599546Y-71189297D01*
X51599546Y-71189297D02*
X51647165Y-71379773D01*
X51647165Y-71379773D02*
X51694784Y-71475011D01*
X51694784Y-71475011D02*
X51790022Y-71570250D01*
X51790022Y-71570250D02*
X51932879Y-71617869D01*
X51932879Y-71617869D02*
X52028117Y-71617869D01*
X52028117Y-71617869D02*
X52170974Y-71570250D01*
X52170974Y-71570250D02*
X52218593Y-71522630D01*
X52218593Y-71522630D02*
X52218593Y-71189297D01*
X52218593Y-71189297D02*
X52028117Y-71189297D01*
X52647165Y-71617869D02*
X52647165Y-70617869D01*
X52647165Y-70617869D02*
X53028117Y-70617869D01*
X53028117Y-70617869D02*
X53123355Y-70665488D01*
X53123355Y-70665488D02*
X53170974Y-70713107D01*
X53170974Y-70713107D02*
X53218593Y-70808345D01*
X53218593Y-70808345D02*
X53218593Y-70951202D01*
X53218593Y-70951202D02*
X53170974Y-71046440D01*
X53170974Y-71046440D02*
X53123355Y-71094059D01*
X53123355Y-71094059D02*
X53028117Y-71141678D01*
X53028117Y-71141678D02*
X52647165Y-71141678D01*
X53647165Y-71617869D02*
X53647165Y-70617869D01*
X54313831Y-70617869D02*
X54504307Y-70617869D01*
X54504307Y-70617869D02*
X54599545Y-70665488D01*
X54599545Y-70665488D02*
X54694783Y-70760726D01*
X54694783Y-70760726D02*
X54742402Y-70951202D01*
X54742402Y-70951202D02*
X54742402Y-71284535D01*
X54742402Y-71284535D02*
X54694783Y-71475011D01*
X54694783Y-71475011D02*
X54599545Y-71570250D01*
X54599545Y-71570250D02*
X54504307Y-71617869D01*
X54504307Y-71617869D02*
X54313831Y-71617869D01*
X54313831Y-71617869D02*
X54218593Y-71570250D01*
X54218593Y-71570250D02*
X54123355Y-71475011D01*
X54123355Y-71475011D02*
X54075736Y-71284535D01*
X54075736Y-71284535D02*
X54075736Y-70951202D01*
X54075736Y-70951202D02*
X54123355Y-70760726D01*
X54123355Y-70760726D02*
X54218593Y-70665488D01*
X54218593Y-70665488D02*
X54313831Y-70617869D01*
X55694783Y-71617869D02*
X55123355Y-71617869D01*
X55409069Y-71617869D02*
X55409069Y-70617869D01*
X55409069Y-70617869D02*
X55313831Y-70760726D01*
X55313831Y-70760726D02*
X55218593Y-70855964D01*
X55218593Y-70855964D02*
X55123355Y-70903583D01*
X56075736Y-70713107D02*
X56123355Y-70665488D01*
X56123355Y-70665488D02*
X56218593Y-70617869D01*
X56218593Y-70617869D02*
X56456688Y-70617869D01*
X56456688Y-70617869D02*
X56551926Y-70665488D01*
X56551926Y-70665488D02*
X56599545Y-70713107D01*
X56599545Y-70713107D02*
X56647164Y-70808345D01*
X56647164Y-70808345D02*
X56647164Y-70903583D01*
X56647164Y-70903583D02*
X56599545Y-71046440D01*
X56599545Y-71046440D02*
X56028117Y-71617869D01*
X56028117Y-71617869D02*
X56647164Y-71617869D01*
X52170974Y-73165488D02*
X52075736Y-73117869D01*
X52075736Y-73117869D02*
X51932879Y-73117869D01*
X51932879Y-73117869D02*
X51790022Y-73165488D01*
X51790022Y-73165488D02*
X51694784Y-73260726D01*
X51694784Y-73260726D02*
X51647165Y-73355964D01*
X51647165Y-73355964D02*
X51599546Y-73546440D01*
X51599546Y-73546440D02*
X51599546Y-73689297D01*
X51599546Y-73689297D02*
X51647165Y-73879773D01*
X51647165Y-73879773D02*
X51694784Y-73975011D01*
X51694784Y-73975011D02*
X51790022Y-74070250D01*
X51790022Y-74070250D02*
X51932879Y-74117869D01*
X51932879Y-74117869D02*
X52028117Y-74117869D01*
X52028117Y-74117869D02*
X52170974Y-74070250D01*
X52170974Y-74070250D02*
X52218593Y-74022630D01*
X52218593Y-74022630D02*
X52218593Y-73689297D01*
X52218593Y-73689297D02*
X52028117Y-73689297D01*
X52647165Y-74117869D02*
X52647165Y-73117869D01*
X52647165Y-73117869D02*
X53028117Y-73117869D01*
X53028117Y-73117869D02*
X53123355Y-73165488D01*
X53123355Y-73165488D02*
X53170974Y-73213107D01*
X53170974Y-73213107D02*
X53218593Y-73308345D01*
X53218593Y-73308345D02*
X53218593Y-73451202D01*
X53218593Y-73451202D02*
X53170974Y-73546440D01*
X53170974Y-73546440D02*
X53123355Y-73594059D01*
X53123355Y-73594059D02*
X53028117Y-73641678D01*
X53028117Y-73641678D02*
X52647165Y-73641678D01*
X53647165Y-74117869D02*
X53647165Y-73117869D01*
X54313831Y-73117869D02*
X54504307Y-73117869D01*
X54504307Y-73117869D02*
X54599545Y-73165488D01*
X54599545Y-73165488D02*
X54694783Y-73260726D01*
X54694783Y-73260726D02*
X54742402Y-73451202D01*
X54742402Y-73451202D02*
X54742402Y-73784535D01*
X54742402Y-73784535D02*
X54694783Y-73975011D01*
X54694783Y-73975011D02*
X54599545Y-74070250D01*
X54599545Y-74070250D02*
X54504307Y-74117869D01*
X54504307Y-74117869D02*
X54313831Y-74117869D01*
X54313831Y-74117869D02*
X54218593Y-74070250D01*
X54218593Y-74070250D02*
X54123355Y-73975011D01*
X54123355Y-73975011D02*
X54075736Y-73784535D01*
X54075736Y-73784535D02*
X54075736Y-73451202D01*
X54075736Y-73451202D02*
X54123355Y-73260726D01*
X54123355Y-73260726D02*
X54218593Y-73165488D01*
X54218593Y-73165488D02*
X54313831Y-73117869D01*
X55694783Y-74117869D02*
X55123355Y-74117869D01*
X55409069Y-74117869D02*
X55409069Y-73117869D01*
X55409069Y-73117869D02*
X55313831Y-73260726D01*
X55313831Y-73260726D02*
X55218593Y-73355964D01*
X55218593Y-73355964D02*
X55123355Y-73403583D01*
X56028117Y-73117869D02*
X56647164Y-73117869D01*
X56647164Y-73117869D02*
X56313831Y-73498821D01*
X56313831Y-73498821D02*
X56456688Y-73498821D01*
X56456688Y-73498821D02*
X56551926Y-73546440D01*
X56551926Y-73546440D02*
X56599545Y-73594059D01*
X56599545Y-73594059D02*
X56647164Y-73689297D01*
X56647164Y-73689297D02*
X56647164Y-73927392D01*
X56647164Y-73927392D02*
X56599545Y-74022630D01*
X56599545Y-74022630D02*
X56551926Y-74070250D01*
X56551926Y-74070250D02*
X56456688Y-74117869D01*
X56456688Y-74117869D02*
X56170974Y-74117869D01*
X56170974Y-74117869D02*
X56075736Y-74070250D01*
X56075736Y-74070250D02*
X56028117Y-74022630D01*
X52170974Y-75915488D02*
X52075736Y-75867869D01*
X52075736Y-75867869D02*
X51932879Y-75867869D01*
X51932879Y-75867869D02*
X51790022Y-75915488D01*
X51790022Y-75915488D02*
X51694784Y-76010726D01*
X51694784Y-76010726D02*
X51647165Y-76105964D01*
X51647165Y-76105964D02*
X51599546Y-76296440D01*
X51599546Y-76296440D02*
X51599546Y-76439297D01*
X51599546Y-76439297D02*
X51647165Y-76629773D01*
X51647165Y-76629773D02*
X51694784Y-76725011D01*
X51694784Y-76725011D02*
X51790022Y-76820250D01*
X51790022Y-76820250D02*
X51932879Y-76867869D01*
X51932879Y-76867869D02*
X52028117Y-76867869D01*
X52028117Y-76867869D02*
X52170974Y-76820250D01*
X52170974Y-76820250D02*
X52218593Y-76772630D01*
X52218593Y-76772630D02*
X52218593Y-76439297D01*
X52218593Y-76439297D02*
X52028117Y-76439297D01*
X52647165Y-76867869D02*
X52647165Y-75867869D01*
X52647165Y-75867869D02*
X53028117Y-75867869D01*
X53028117Y-75867869D02*
X53123355Y-75915488D01*
X53123355Y-75915488D02*
X53170974Y-75963107D01*
X53170974Y-75963107D02*
X53218593Y-76058345D01*
X53218593Y-76058345D02*
X53218593Y-76201202D01*
X53218593Y-76201202D02*
X53170974Y-76296440D01*
X53170974Y-76296440D02*
X53123355Y-76344059D01*
X53123355Y-76344059D02*
X53028117Y-76391678D01*
X53028117Y-76391678D02*
X52647165Y-76391678D01*
X53647165Y-76867869D02*
X53647165Y-75867869D01*
X54313831Y-75867869D02*
X54504307Y-75867869D01*
X54504307Y-75867869D02*
X54599545Y-75915488D01*
X54599545Y-75915488D02*
X54694783Y-76010726D01*
X54694783Y-76010726D02*
X54742402Y-76201202D01*
X54742402Y-76201202D02*
X54742402Y-76534535D01*
X54742402Y-76534535D02*
X54694783Y-76725011D01*
X54694783Y-76725011D02*
X54599545Y-76820250D01*
X54599545Y-76820250D02*
X54504307Y-76867869D01*
X54504307Y-76867869D02*
X54313831Y-76867869D01*
X54313831Y-76867869D02*
X54218593Y-76820250D01*
X54218593Y-76820250D02*
X54123355Y-76725011D01*
X54123355Y-76725011D02*
X54075736Y-76534535D01*
X54075736Y-76534535D02*
X54075736Y-76201202D01*
X54075736Y-76201202D02*
X54123355Y-76010726D01*
X54123355Y-76010726D02*
X54218593Y-75915488D01*
X54218593Y-75915488D02*
X54313831Y-75867869D01*
X55694783Y-76867869D02*
X55123355Y-76867869D01*
X55409069Y-76867869D02*
X55409069Y-75867869D01*
X55409069Y-75867869D02*
X55313831Y-76010726D01*
X55313831Y-76010726D02*
X55218593Y-76105964D01*
X55218593Y-76105964D02*
X55123355Y-76153583D01*
X56551926Y-76201202D02*
X56551926Y-76867869D01*
X56313831Y-75820250D02*
X56075736Y-76534535D01*
X56075736Y-76534535D02*
X56694783Y-76534535D01*
X53123355Y-35115488D02*
X53028117Y-35067869D01*
X53028117Y-35067869D02*
X52885260Y-35067869D01*
X52885260Y-35067869D02*
X52742403Y-35115488D01*
X52742403Y-35115488D02*
X52647165Y-35210726D01*
X52647165Y-35210726D02*
X52599546Y-35305964D01*
X52599546Y-35305964D02*
X52551927Y-35496440D01*
X52551927Y-35496440D02*
X52551927Y-35639297D01*
X52551927Y-35639297D02*
X52599546Y-35829773D01*
X52599546Y-35829773D02*
X52647165Y-35925011D01*
X52647165Y-35925011D02*
X52742403Y-36020250D01*
X52742403Y-36020250D02*
X52885260Y-36067869D01*
X52885260Y-36067869D02*
X52980498Y-36067869D01*
X52980498Y-36067869D02*
X53123355Y-36020250D01*
X53123355Y-36020250D02*
X53170974Y-35972630D01*
X53170974Y-35972630D02*
X53170974Y-35639297D01*
X53170974Y-35639297D02*
X52980498Y-35639297D01*
X53599546Y-36067869D02*
X53599546Y-35067869D01*
X53599546Y-35067869D02*
X53980498Y-35067869D01*
X53980498Y-35067869D02*
X54075736Y-35115488D01*
X54075736Y-35115488D02*
X54123355Y-35163107D01*
X54123355Y-35163107D02*
X54170974Y-35258345D01*
X54170974Y-35258345D02*
X54170974Y-35401202D01*
X54170974Y-35401202D02*
X54123355Y-35496440D01*
X54123355Y-35496440D02*
X54075736Y-35544059D01*
X54075736Y-35544059D02*
X53980498Y-35591678D01*
X53980498Y-35591678D02*
X53599546Y-35591678D01*
X54599546Y-36067869D02*
X54599546Y-35067869D01*
X55266212Y-35067869D02*
X55456688Y-35067869D01*
X55456688Y-35067869D02*
X55551926Y-35115488D01*
X55551926Y-35115488D02*
X55647164Y-35210726D01*
X55647164Y-35210726D02*
X55694783Y-35401202D01*
X55694783Y-35401202D02*
X55694783Y-35734535D01*
X55694783Y-35734535D02*
X55647164Y-35925011D01*
X55647164Y-35925011D02*
X55551926Y-36020250D01*
X55551926Y-36020250D02*
X55456688Y-36067869D01*
X55456688Y-36067869D02*
X55266212Y-36067869D01*
X55266212Y-36067869D02*
X55170974Y-36020250D01*
X55170974Y-36020250D02*
X55075736Y-35925011D01*
X55075736Y-35925011D02*
X55028117Y-35734535D01*
X55028117Y-35734535D02*
X55028117Y-35401202D01*
X55028117Y-35401202D02*
X55075736Y-35210726D01*
X55075736Y-35210726D02*
X55170974Y-35115488D01*
X55170974Y-35115488D02*
X55266212Y-35067869D01*
X56551926Y-35401202D02*
X56551926Y-36067869D01*
X56313831Y-35020250D02*
X56075736Y-35734535D01*
X56075736Y-35734535D02*
X56694783Y-35734535D01*
X53123355Y-37615488D02*
X53028117Y-37567869D01*
X53028117Y-37567869D02*
X52885260Y-37567869D01*
X52885260Y-37567869D02*
X52742403Y-37615488D01*
X52742403Y-37615488D02*
X52647165Y-37710726D01*
X52647165Y-37710726D02*
X52599546Y-37805964D01*
X52599546Y-37805964D02*
X52551927Y-37996440D01*
X52551927Y-37996440D02*
X52551927Y-38139297D01*
X52551927Y-38139297D02*
X52599546Y-38329773D01*
X52599546Y-38329773D02*
X52647165Y-38425011D01*
X52647165Y-38425011D02*
X52742403Y-38520250D01*
X52742403Y-38520250D02*
X52885260Y-38567869D01*
X52885260Y-38567869D02*
X52980498Y-38567869D01*
X52980498Y-38567869D02*
X53123355Y-38520250D01*
X53123355Y-38520250D02*
X53170974Y-38472630D01*
X53170974Y-38472630D02*
X53170974Y-38139297D01*
X53170974Y-38139297D02*
X52980498Y-38139297D01*
X53599546Y-38567869D02*
X53599546Y-37567869D01*
X53599546Y-37567869D02*
X53980498Y-37567869D01*
X53980498Y-37567869D02*
X54075736Y-37615488D01*
X54075736Y-37615488D02*
X54123355Y-37663107D01*
X54123355Y-37663107D02*
X54170974Y-37758345D01*
X54170974Y-37758345D02*
X54170974Y-37901202D01*
X54170974Y-37901202D02*
X54123355Y-37996440D01*
X54123355Y-37996440D02*
X54075736Y-38044059D01*
X54075736Y-38044059D02*
X53980498Y-38091678D01*
X53980498Y-38091678D02*
X53599546Y-38091678D01*
X54599546Y-38567869D02*
X54599546Y-37567869D01*
X55266212Y-37567869D02*
X55456688Y-37567869D01*
X55456688Y-37567869D02*
X55551926Y-37615488D01*
X55551926Y-37615488D02*
X55647164Y-37710726D01*
X55647164Y-37710726D02*
X55694783Y-37901202D01*
X55694783Y-37901202D02*
X55694783Y-38234535D01*
X55694783Y-38234535D02*
X55647164Y-38425011D01*
X55647164Y-38425011D02*
X55551926Y-38520250D01*
X55551926Y-38520250D02*
X55456688Y-38567869D01*
X55456688Y-38567869D02*
X55266212Y-38567869D01*
X55266212Y-38567869D02*
X55170974Y-38520250D01*
X55170974Y-38520250D02*
X55075736Y-38425011D01*
X55075736Y-38425011D02*
X55028117Y-38234535D01*
X55028117Y-38234535D02*
X55028117Y-37901202D01*
X55028117Y-37901202D02*
X55075736Y-37710726D01*
X55075736Y-37710726D02*
X55170974Y-37615488D01*
X55170974Y-37615488D02*
X55266212Y-37567869D01*
X56599545Y-37567869D02*
X56123355Y-37567869D01*
X56123355Y-37567869D02*
X56075736Y-38044059D01*
X56075736Y-38044059D02*
X56123355Y-37996440D01*
X56123355Y-37996440D02*
X56218593Y-37948821D01*
X56218593Y-37948821D02*
X56456688Y-37948821D01*
X56456688Y-37948821D02*
X56551926Y-37996440D01*
X56551926Y-37996440D02*
X56599545Y-38044059D01*
X56599545Y-38044059D02*
X56647164Y-38139297D01*
X56647164Y-38139297D02*
X56647164Y-38377392D01*
X56647164Y-38377392D02*
X56599545Y-38472630D01*
X56599545Y-38472630D02*
X56551926Y-38520250D01*
X56551926Y-38520250D02*
X56456688Y-38567869D01*
X56456688Y-38567869D02*
X56218593Y-38567869D01*
X56218593Y-38567869D02*
X56123355Y-38520250D01*
X56123355Y-38520250D02*
X56075736Y-38472630D01*
X53123355Y-40165488D02*
X53028117Y-40117869D01*
X53028117Y-40117869D02*
X52885260Y-40117869D01*
X52885260Y-40117869D02*
X52742403Y-40165488D01*
X52742403Y-40165488D02*
X52647165Y-40260726D01*
X52647165Y-40260726D02*
X52599546Y-40355964D01*
X52599546Y-40355964D02*
X52551927Y-40546440D01*
X52551927Y-40546440D02*
X52551927Y-40689297D01*
X52551927Y-40689297D02*
X52599546Y-40879773D01*
X52599546Y-40879773D02*
X52647165Y-40975011D01*
X52647165Y-40975011D02*
X52742403Y-41070250D01*
X52742403Y-41070250D02*
X52885260Y-41117869D01*
X52885260Y-41117869D02*
X52980498Y-41117869D01*
X52980498Y-41117869D02*
X53123355Y-41070250D01*
X53123355Y-41070250D02*
X53170974Y-41022630D01*
X53170974Y-41022630D02*
X53170974Y-40689297D01*
X53170974Y-40689297D02*
X52980498Y-40689297D01*
X53599546Y-41117869D02*
X53599546Y-40117869D01*
X53599546Y-40117869D02*
X53980498Y-40117869D01*
X53980498Y-40117869D02*
X54075736Y-40165488D01*
X54075736Y-40165488D02*
X54123355Y-40213107D01*
X54123355Y-40213107D02*
X54170974Y-40308345D01*
X54170974Y-40308345D02*
X54170974Y-40451202D01*
X54170974Y-40451202D02*
X54123355Y-40546440D01*
X54123355Y-40546440D02*
X54075736Y-40594059D01*
X54075736Y-40594059D02*
X53980498Y-40641678D01*
X53980498Y-40641678D02*
X53599546Y-40641678D01*
X54599546Y-41117869D02*
X54599546Y-40117869D01*
X55266212Y-40117869D02*
X55456688Y-40117869D01*
X55456688Y-40117869D02*
X55551926Y-40165488D01*
X55551926Y-40165488D02*
X55647164Y-40260726D01*
X55647164Y-40260726D02*
X55694783Y-40451202D01*
X55694783Y-40451202D02*
X55694783Y-40784535D01*
X55694783Y-40784535D02*
X55647164Y-40975011D01*
X55647164Y-40975011D02*
X55551926Y-41070250D01*
X55551926Y-41070250D02*
X55456688Y-41117869D01*
X55456688Y-41117869D02*
X55266212Y-41117869D01*
X55266212Y-41117869D02*
X55170974Y-41070250D01*
X55170974Y-41070250D02*
X55075736Y-40975011D01*
X55075736Y-40975011D02*
X55028117Y-40784535D01*
X55028117Y-40784535D02*
X55028117Y-40451202D01*
X55028117Y-40451202D02*
X55075736Y-40260726D01*
X55075736Y-40260726D02*
X55170974Y-40165488D01*
X55170974Y-40165488D02*
X55266212Y-40117869D01*
X56551926Y-40117869D02*
X56361450Y-40117869D01*
X56361450Y-40117869D02*
X56266212Y-40165488D01*
X56266212Y-40165488D02*
X56218593Y-40213107D01*
X56218593Y-40213107D02*
X56123355Y-40355964D01*
X56123355Y-40355964D02*
X56075736Y-40546440D01*
X56075736Y-40546440D02*
X56075736Y-40927392D01*
X56075736Y-40927392D02*
X56123355Y-41022630D01*
X56123355Y-41022630D02*
X56170974Y-41070250D01*
X56170974Y-41070250D02*
X56266212Y-41117869D01*
X56266212Y-41117869D02*
X56456688Y-41117869D01*
X56456688Y-41117869D02*
X56551926Y-41070250D01*
X56551926Y-41070250D02*
X56599545Y-41022630D01*
X56599545Y-41022630D02*
X56647164Y-40927392D01*
X56647164Y-40927392D02*
X56647164Y-40689297D01*
X56647164Y-40689297D02*
X56599545Y-40594059D01*
X56599545Y-40594059D02*
X56551926Y-40546440D01*
X56551926Y-40546440D02*
X56456688Y-40498821D01*
X56456688Y-40498821D02*
X56266212Y-40498821D01*
X56266212Y-40498821D02*
X56170974Y-40546440D01*
X56170974Y-40546440D02*
X56123355Y-40594059D01*
X56123355Y-40594059D02*
X56075736Y-40689297D01*
X53123355Y-42665488D02*
X53028117Y-42617869D01*
X53028117Y-42617869D02*
X52885260Y-42617869D01*
X52885260Y-42617869D02*
X52742403Y-42665488D01*
X52742403Y-42665488D02*
X52647165Y-42760726D01*
X52647165Y-42760726D02*
X52599546Y-42855964D01*
X52599546Y-42855964D02*
X52551927Y-43046440D01*
X52551927Y-43046440D02*
X52551927Y-43189297D01*
X52551927Y-43189297D02*
X52599546Y-43379773D01*
X52599546Y-43379773D02*
X52647165Y-43475011D01*
X52647165Y-43475011D02*
X52742403Y-43570250D01*
X52742403Y-43570250D02*
X52885260Y-43617869D01*
X52885260Y-43617869D02*
X52980498Y-43617869D01*
X52980498Y-43617869D02*
X53123355Y-43570250D01*
X53123355Y-43570250D02*
X53170974Y-43522630D01*
X53170974Y-43522630D02*
X53170974Y-43189297D01*
X53170974Y-43189297D02*
X52980498Y-43189297D01*
X53599546Y-43617869D02*
X53599546Y-42617869D01*
X53599546Y-42617869D02*
X53980498Y-42617869D01*
X53980498Y-42617869D02*
X54075736Y-42665488D01*
X54075736Y-42665488D02*
X54123355Y-42713107D01*
X54123355Y-42713107D02*
X54170974Y-42808345D01*
X54170974Y-42808345D02*
X54170974Y-42951202D01*
X54170974Y-42951202D02*
X54123355Y-43046440D01*
X54123355Y-43046440D02*
X54075736Y-43094059D01*
X54075736Y-43094059D02*
X53980498Y-43141678D01*
X53980498Y-43141678D02*
X53599546Y-43141678D01*
X54599546Y-43617869D02*
X54599546Y-42617869D01*
X55266212Y-42617869D02*
X55456688Y-42617869D01*
X55456688Y-42617869D02*
X55551926Y-42665488D01*
X55551926Y-42665488D02*
X55647164Y-42760726D01*
X55647164Y-42760726D02*
X55694783Y-42951202D01*
X55694783Y-42951202D02*
X55694783Y-43284535D01*
X55694783Y-43284535D02*
X55647164Y-43475011D01*
X55647164Y-43475011D02*
X55551926Y-43570250D01*
X55551926Y-43570250D02*
X55456688Y-43617869D01*
X55456688Y-43617869D02*
X55266212Y-43617869D01*
X55266212Y-43617869D02*
X55170974Y-43570250D01*
X55170974Y-43570250D02*
X55075736Y-43475011D01*
X55075736Y-43475011D02*
X55028117Y-43284535D01*
X55028117Y-43284535D02*
X55028117Y-42951202D01*
X55028117Y-42951202D02*
X55075736Y-42760726D01*
X55075736Y-42760726D02*
X55170974Y-42665488D01*
X55170974Y-42665488D02*
X55266212Y-42617869D01*
X56028117Y-42617869D02*
X56694783Y-42617869D01*
X56694783Y-42617869D02*
X56266212Y-43617869D01*
X53123355Y-55415488D02*
X53028117Y-55367869D01*
X53028117Y-55367869D02*
X52885260Y-55367869D01*
X52885260Y-55367869D02*
X52742403Y-55415488D01*
X52742403Y-55415488D02*
X52647165Y-55510726D01*
X52647165Y-55510726D02*
X52599546Y-55605964D01*
X52599546Y-55605964D02*
X52551927Y-55796440D01*
X52551927Y-55796440D02*
X52551927Y-55939297D01*
X52551927Y-55939297D02*
X52599546Y-56129773D01*
X52599546Y-56129773D02*
X52647165Y-56225011D01*
X52647165Y-56225011D02*
X52742403Y-56320250D01*
X52742403Y-56320250D02*
X52885260Y-56367869D01*
X52885260Y-56367869D02*
X52980498Y-56367869D01*
X52980498Y-56367869D02*
X53123355Y-56320250D01*
X53123355Y-56320250D02*
X53170974Y-56272630D01*
X53170974Y-56272630D02*
X53170974Y-55939297D01*
X53170974Y-55939297D02*
X52980498Y-55939297D01*
X53599546Y-56367869D02*
X53599546Y-55367869D01*
X53599546Y-55367869D02*
X53980498Y-55367869D01*
X53980498Y-55367869D02*
X54075736Y-55415488D01*
X54075736Y-55415488D02*
X54123355Y-55463107D01*
X54123355Y-55463107D02*
X54170974Y-55558345D01*
X54170974Y-55558345D02*
X54170974Y-55701202D01*
X54170974Y-55701202D02*
X54123355Y-55796440D01*
X54123355Y-55796440D02*
X54075736Y-55844059D01*
X54075736Y-55844059D02*
X53980498Y-55891678D01*
X53980498Y-55891678D02*
X53599546Y-55891678D01*
X54599546Y-56367869D02*
X54599546Y-55367869D01*
X55266212Y-55367869D02*
X55456688Y-55367869D01*
X55456688Y-55367869D02*
X55551926Y-55415488D01*
X55551926Y-55415488D02*
X55647164Y-55510726D01*
X55647164Y-55510726D02*
X55694783Y-55701202D01*
X55694783Y-55701202D02*
X55694783Y-56034535D01*
X55694783Y-56034535D02*
X55647164Y-56225011D01*
X55647164Y-56225011D02*
X55551926Y-56320250D01*
X55551926Y-56320250D02*
X55456688Y-56367869D01*
X55456688Y-56367869D02*
X55266212Y-56367869D01*
X55266212Y-56367869D02*
X55170974Y-56320250D01*
X55170974Y-56320250D02*
X55075736Y-56225011D01*
X55075736Y-56225011D02*
X55028117Y-56034535D01*
X55028117Y-56034535D02*
X55028117Y-55701202D01*
X55028117Y-55701202D02*
X55075736Y-55510726D01*
X55075736Y-55510726D02*
X55170974Y-55415488D01*
X55170974Y-55415488D02*
X55266212Y-55367869D01*
X56266212Y-55796440D02*
X56170974Y-55748821D01*
X56170974Y-55748821D02*
X56123355Y-55701202D01*
X56123355Y-55701202D02*
X56075736Y-55605964D01*
X56075736Y-55605964D02*
X56075736Y-55558345D01*
X56075736Y-55558345D02*
X56123355Y-55463107D01*
X56123355Y-55463107D02*
X56170974Y-55415488D01*
X56170974Y-55415488D02*
X56266212Y-55367869D01*
X56266212Y-55367869D02*
X56456688Y-55367869D01*
X56456688Y-55367869D02*
X56551926Y-55415488D01*
X56551926Y-55415488D02*
X56599545Y-55463107D01*
X56599545Y-55463107D02*
X56647164Y-55558345D01*
X56647164Y-55558345D02*
X56647164Y-55605964D01*
X56647164Y-55605964D02*
X56599545Y-55701202D01*
X56599545Y-55701202D02*
X56551926Y-55748821D01*
X56551926Y-55748821D02*
X56456688Y-55796440D01*
X56456688Y-55796440D02*
X56266212Y-55796440D01*
X56266212Y-55796440D02*
X56170974Y-55844059D01*
X56170974Y-55844059D02*
X56123355Y-55891678D01*
X56123355Y-55891678D02*
X56075736Y-55986916D01*
X56075736Y-55986916D02*
X56075736Y-56177392D01*
X56075736Y-56177392D02*
X56123355Y-56272630D01*
X56123355Y-56272630D02*
X56170974Y-56320250D01*
X56170974Y-56320250D02*
X56266212Y-56367869D01*
X56266212Y-56367869D02*
X56456688Y-56367869D01*
X56456688Y-56367869D02*
X56551926Y-56320250D01*
X56551926Y-56320250D02*
X56599545Y-56272630D01*
X56599545Y-56272630D02*
X56647164Y-56177392D01*
X56647164Y-56177392D02*
X56647164Y-55986916D01*
X56647164Y-55986916D02*
X56599545Y-55891678D01*
X56599545Y-55891678D02*
X56551926Y-55844059D01*
X56551926Y-55844059D02*
X56456688Y-55796440D01*
X53123355Y-57915488D02*
X53028117Y-57867869D01*
X53028117Y-57867869D02*
X52885260Y-57867869D01*
X52885260Y-57867869D02*
X52742403Y-57915488D01*
X52742403Y-57915488D02*
X52647165Y-58010726D01*
X52647165Y-58010726D02*
X52599546Y-58105964D01*
X52599546Y-58105964D02*
X52551927Y-58296440D01*
X52551927Y-58296440D02*
X52551927Y-58439297D01*
X52551927Y-58439297D02*
X52599546Y-58629773D01*
X52599546Y-58629773D02*
X52647165Y-58725011D01*
X52647165Y-58725011D02*
X52742403Y-58820250D01*
X52742403Y-58820250D02*
X52885260Y-58867869D01*
X52885260Y-58867869D02*
X52980498Y-58867869D01*
X52980498Y-58867869D02*
X53123355Y-58820250D01*
X53123355Y-58820250D02*
X53170974Y-58772630D01*
X53170974Y-58772630D02*
X53170974Y-58439297D01*
X53170974Y-58439297D02*
X52980498Y-58439297D01*
X53599546Y-58867869D02*
X53599546Y-57867869D01*
X53599546Y-57867869D02*
X53980498Y-57867869D01*
X53980498Y-57867869D02*
X54075736Y-57915488D01*
X54075736Y-57915488D02*
X54123355Y-57963107D01*
X54123355Y-57963107D02*
X54170974Y-58058345D01*
X54170974Y-58058345D02*
X54170974Y-58201202D01*
X54170974Y-58201202D02*
X54123355Y-58296440D01*
X54123355Y-58296440D02*
X54075736Y-58344059D01*
X54075736Y-58344059D02*
X53980498Y-58391678D01*
X53980498Y-58391678D02*
X53599546Y-58391678D01*
X54599546Y-58867869D02*
X54599546Y-57867869D01*
X55266212Y-57867869D02*
X55456688Y-57867869D01*
X55456688Y-57867869D02*
X55551926Y-57915488D01*
X55551926Y-57915488D02*
X55647164Y-58010726D01*
X55647164Y-58010726D02*
X55694783Y-58201202D01*
X55694783Y-58201202D02*
X55694783Y-58534535D01*
X55694783Y-58534535D02*
X55647164Y-58725011D01*
X55647164Y-58725011D02*
X55551926Y-58820250D01*
X55551926Y-58820250D02*
X55456688Y-58867869D01*
X55456688Y-58867869D02*
X55266212Y-58867869D01*
X55266212Y-58867869D02*
X55170974Y-58820250D01*
X55170974Y-58820250D02*
X55075736Y-58725011D01*
X55075736Y-58725011D02*
X55028117Y-58534535D01*
X55028117Y-58534535D02*
X55028117Y-58201202D01*
X55028117Y-58201202D02*
X55075736Y-58010726D01*
X55075736Y-58010726D02*
X55170974Y-57915488D01*
X55170974Y-57915488D02*
X55266212Y-57867869D01*
X56028117Y-57867869D02*
X56647164Y-57867869D01*
X56647164Y-57867869D02*
X56313831Y-58248821D01*
X56313831Y-58248821D02*
X56456688Y-58248821D01*
X56456688Y-58248821D02*
X56551926Y-58296440D01*
X56551926Y-58296440D02*
X56599545Y-58344059D01*
X56599545Y-58344059D02*
X56647164Y-58439297D01*
X56647164Y-58439297D02*
X56647164Y-58677392D01*
X56647164Y-58677392D02*
X56599545Y-58772630D01*
X56599545Y-58772630D02*
X56551926Y-58820250D01*
X56551926Y-58820250D02*
X56456688Y-58867869D01*
X56456688Y-58867869D02*
X56170974Y-58867869D01*
X56170974Y-58867869D02*
X56075736Y-58820250D01*
X56075736Y-58820250D02*
X56028117Y-58772630D01*
X53123355Y-63165488D02*
X53028117Y-63117869D01*
X53028117Y-63117869D02*
X52885260Y-63117869D01*
X52885260Y-63117869D02*
X52742403Y-63165488D01*
X52742403Y-63165488D02*
X52647165Y-63260726D01*
X52647165Y-63260726D02*
X52599546Y-63355964D01*
X52599546Y-63355964D02*
X52551927Y-63546440D01*
X52551927Y-63546440D02*
X52551927Y-63689297D01*
X52551927Y-63689297D02*
X52599546Y-63879773D01*
X52599546Y-63879773D02*
X52647165Y-63975011D01*
X52647165Y-63975011D02*
X52742403Y-64070250D01*
X52742403Y-64070250D02*
X52885260Y-64117869D01*
X52885260Y-64117869D02*
X52980498Y-64117869D01*
X52980498Y-64117869D02*
X53123355Y-64070250D01*
X53123355Y-64070250D02*
X53170974Y-64022630D01*
X53170974Y-64022630D02*
X53170974Y-63689297D01*
X53170974Y-63689297D02*
X52980498Y-63689297D01*
X53599546Y-64117869D02*
X53599546Y-63117869D01*
X53599546Y-63117869D02*
X53980498Y-63117869D01*
X53980498Y-63117869D02*
X54075736Y-63165488D01*
X54075736Y-63165488D02*
X54123355Y-63213107D01*
X54123355Y-63213107D02*
X54170974Y-63308345D01*
X54170974Y-63308345D02*
X54170974Y-63451202D01*
X54170974Y-63451202D02*
X54123355Y-63546440D01*
X54123355Y-63546440D02*
X54075736Y-63594059D01*
X54075736Y-63594059D02*
X53980498Y-63641678D01*
X53980498Y-63641678D02*
X53599546Y-63641678D01*
X54599546Y-64117869D02*
X54599546Y-63117869D01*
X55266212Y-63117869D02*
X55456688Y-63117869D01*
X55456688Y-63117869D02*
X55551926Y-63165488D01*
X55551926Y-63165488D02*
X55647164Y-63260726D01*
X55647164Y-63260726D02*
X55694783Y-63451202D01*
X55694783Y-63451202D02*
X55694783Y-63784535D01*
X55694783Y-63784535D02*
X55647164Y-63975011D01*
X55647164Y-63975011D02*
X55551926Y-64070250D01*
X55551926Y-64070250D02*
X55456688Y-64117869D01*
X55456688Y-64117869D02*
X55266212Y-64117869D01*
X55266212Y-64117869D02*
X55170974Y-64070250D01*
X55170974Y-64070250D02*
X55075736Y-63975011D01*
X55075736Y-63975011D02*
X55028117Y-63784535D01*
X55028117Y-63784535D02*
X55028117Y-63451202D01*
X55028117Y-63451202D02*
X55075736Y-63260726D01*
X55075736Y-63260726D02*
X55170974Y-63165488D01*
X55170974Y-63165488D02*
X55266212Y-63117869D01*
X56170974Y-64117869D02*
X56361450Y-64117869D01*
X56361450Y-64117869D02*
X56456688Y-64070250D01*
X56456688Y-64070250D02*
X56504307Y-64022630D01*
X56504307Y-64022630D02*
X56599545Y-63879773D01*
X56599545Y-63879773D02*
X56647164Y-63689297D01*
X56647164Y-63689297D02*
X56647164Y-63308345D01*
X56647164Y-63308345D02*
X56599545Y-63213107D01*
X56599545Y-63213107D02*
X56551926Y-63165488D01*
X56551926Y-63165488D02*
X56456688Y-63117869D01*
X56456688Y-63117869D02*
X56266212Y-63117869D01*
X56266212Y-63117869D02*
X56170974Y-63165488D01*
X56170974Y-63165488D02*
X56123355Y-63213107D01*
X56123355Y-63213107D02*
X56075736Y-63308345D01*
X56075736Y-63308345D02*
X56075736Y-63546440D01*
X56075736Y-63546440D02*
X56123355Y-63641678D01*
X56123355Y-63641678D02*
X56170974Y-63689297D01*
X56170974Y-63689297D02*
X56266212Y-63736916D01*
X56266212Y-63736916D02*
X56456688Y-63736916D01*
X56456688Y-63736916D02*
X56551926Y-63689297D01*
X56551926Y-63689297D02*
X56599545Y-63641678D01*
X56599545Y-63641678D02*
X56647164Y-63546440D01*
X53837641Y-27467869D02*
X54456688Y-27467869D01*
X54456688Y-27467869D02*
X54123355Y-27848821D01*
X54123355Y-27848821D02*
X54266212Y-27848821D01*
X54266212Y-27848821D02*
X54361450Y-27896440D01*
X54361450Y-27896440D02*
X54409069Y-27944059D01*
X54409069Y-27944059D02*
X54456688Y-28039297D01*
X54456688Y-28039297D02*
X54456688Y-28277392D01*
X54456688Y-28277392D02*
X54409069Y-28372630D01*
X54409069Y-28372630D02*
X54361450Y-28420250D01*
X54361450Y-28420250D02*
X54266212Y-28467869D01*
X54266212Y-28467869D02*
X53980498Y-28467869D01*
X53980498Y-28467869D02*
X53885260Y-28420250D01*
X53885260Y-28420250D02*
X53837641Y-28372630D01*
X54885260Y-28372630D02*
X54932879Y-28420250D01*
X54932879Y-28420250D02*
X54885260Y-28467869D01*
X54885260Y-28467869D02*
X54837641Y-28420250D01*
X54837641Y-28420250D02*
X54885260Y-28372630D01*
X54885260Y-28372630D02*
X54885260Y-28467869D01*
X55266212Y-27467869D02*
X55885259Y-27467869D01*
X55885259Y-27467869D02*
X55551926Y-27848821D01*
X55551926Y-27848821D02*
X55694783Y-27848821D01*
X55694783Y-27848821D02*
X55790021Y-27896440D01*
X55790021Y-27896440D02*
X55837640Y-27944059D01*
X55837640Y-27944059D02*
X55885259Y-28039297D01*
X55885259Y-28039297D02*
X55885259Y-28277392D01*
X55885259Y-28277392D02*
X55837640Y-28372630D01*
X55837640Y-28372630D02*
X55790021Y-28420250D01*
X55790021Y-28420250D02*
X55694783Y-28467869D01*
X55694783Y-28467869D02*
X55409069Y-28467869D01*
X55409069Y-28467869D02*
X55313831Y-28420250D01*
X55313831Y-28420250D02*
X55266212Y-28372630D01*
X56218593Y-27801202D02*
X56456688Y-28467869D01*
X56456688Y-28467869D02*
X56694783Y-27801202D01*
X53837641Y-29967869D02*
X54456688Y-29967869D01*
X54456688Y-29967869D02*
X54123355Y-30348821D01*
X54123355Y-30348821D02*
X54266212Y-30348821D01*
X54266212Y-30348821D02*
X54361450Y-30396440D01*
X54361450Y-30396440D02*
X54409069Y-30444059D01*
X54409069Y-30444059D02*
X54456688Y-30539297D01*
X54456688Y-30539297D02*
X54456688Y-30777392D01*
X54456688Y-30777392D02*
X54409069Y-30872630D01*
X54409069Y-30872630D02*
X54361450Y-30920250D01*
X54361450Y-30920250D02*
X54266212Y-30967869D01*
X54266212Y-30967869D02*
X53980498Y-30967869D01*
X53980498Y-30967869D02*
X53885260Y-30920250D01*
X53885260Y-30920250D02*
X53837641Y-30872630D01*
X54885260Y-30872630D02*
X54932879Y-30920250D01*
X54932879Y-30920250D02*
X54885260Y-30967869D01*
X54885260Y-30967869D02*
X54837641Y-30920250D01*
X54837641Y-30920250D02*
X54885260Y-30872630D01*
X54885260Y-30872630D02*
X54885260Y-30967869D01*
X55266212Y-29967869D02*
X55885259Y-29967869D01*
X55885259Y-29967869D02*
X55551926Y-30348821D01*
X55551926Y-30348821D02*
X55694783Y-30348821D01*
X55694783Y-30348821D02*
X55790021Y-30396440D01*
X55790021Y-30396440D02*
X55837640Y-30444059D01*
X55837640Y-30444059D02*
X55885259Y-30539297D01*
X55885259Y-30539297D02*
X55885259Y-30777392D01*
X55885259Y-30777392D02*
X55837640Y-30872630D01*
X55837640Y-30872630D02*
X55790021Y-30920250D01*
X55790021Y-30920250D02*
X55694783Y-30967869D01*
X55694783Y-30967869D02*
X55409069Y-30967869D01*
X55409069Y-30967869D02*
X55313831Y-30920250D01*
X55313831Y-30920250D02*
X55266212Y-30872630D01*
X56218593Y-30301202D02*
X56456688Y-30967869D01*
X56456688Y-30967869D02*
X56694783Y-30301202D01*
X54028117Y-78736916D02*
X54790022Y-78736916D01*
X54409069Y-79117869D02*
X54409069Y-78355964D01*
X55742402Y-78117869D02*
X55266212Y-78117869D01*
X55266212Y-78117869D02*
X55218593Y-78594059D01*
X55218593Y-78594059D02*
X55266212Y-78546440D01*
X55266212Y-78546440D02*
X55361450Y-78498821D01*
X55361450Y-78498821D02*
X55599545Y-78498821D01*
X55599545Y-78498821D02*
X55694783Y-78546440D01*
X55694783Y-78546440D02*
X55742402Y-78594059D01*
X55742402Y-78594059D02*
X55790021Y-78689297D01*
X55790021Y-78689297D02*
X55790021Y-78927392D01*
X55790021Y-78927392D02*
X55742402Y-79022630D01*
X55742402Y-79022630D02*
X55694783Y-79070250D01*
X55694783Y-79070250D02*
X55599545Y-79117869D01*
X55599545Y-79117869D02*
X55361450Y-79117869D01*
X55361450Y-79117869D02*
X55266212Y-79070250D01*
X55266212Y-79070250D02*
X55218593Y-79022630D01*
X56075736Y-78117869D02*
X56409069Y-79117869D01*
X56409069Y-79117869D02*
X56742402Y-78117869D01*
X54551926Y-80915488D02*
X54456688Y-80867869D01*
X54456688Y-80867869D02*
X54313831Y-80867869D01*
X54313831Y-80867869D02*
X54170974Y-80915488D01*
X54170974Y-80915488D02*
X54075736Y-81010726D01*
X54075736Y-81010726D02*
X54028117Y-81105964D01*
X54028117Y-81105964D02*
X53980498Y-81296440D01*
X53980498Y-81296440D02*
X53980498Y-81439297D01*
X53980498Y-81439297D02*
X54028117Y-81629773D01*
X54028117Y-81629773D02*
X54075736Y-81725011D01*
X54075736Y-81725011D02*
X54170974Y-81820250D01*
X54170974Y-81820250D02*
X54313831Y-81867869D01*
X54313831Y-81867869D02*
X54409069Y-81867869D01*
X54409069Y-81867869D02*
X54551926Y-81820250D01*
X54551926Y-81820250D02*
X54599545Y-81772630D01*
X54599545Y-81772630D02*
X54599545Y-81439297D01*
X54599545Y-81439297D02*
X54409069Y-81439297D01*
X55028117Y-81867869D02*
X55028117Y-80867869D01*
X55028117Y-80867869D02*
X55599545Y-81867869D01*
X55599545Y-81867869D02*
X55599545Y-80867869D01*
X56075736Y-81867869D02*
X56075736Y-80867869D01*
X56075736Y-80867869D02*
X56313831Y-80867869D01*
X56313831Y-80867869D02*
X56456688Y-80915488D01*
X56456688Y-80915488D02*
X56551926Y-81010726D01*
X56551926Y-81010726D02*
X56599545Y-81105964D01*
X56599545Y-81105964D02*
X56647164Y-81296440D01*
X56647164Y-81296440D02*
X56647164Y-81439297D01*
X56647164Y-81439297D02*
X56599545Y-81629773D01*
X56599545Y-81629773D02*
X56551926Y-81725011D01*
X56551926Y-81725011D02*
X56456688Y-81820250D01*
X56456688Y-81820250D02*
X56313831Y-81867869D01*
X56313831Y-81867869D02*
X56075736Y-81867869D01*
X54932878Y-33367869D02*
X54599545Y-32891678D01*
X54361450Y-33367869D02*
X54361450Y-32367869D01*
X54361450Y-32367869D02*
X54742402Y-32367869D01*
X54742402Y-32367869D02*
X54837640Y-32415488D01*
X54837640Y-32415488D02*
X54885259Y-32463107D01*
X54885259Y-32463107D02*
X54932878Y-32558345D01*
X54932878Y-32558345D02*
X54932878Y-32701202D01*
X54932878Y-32701202D02*
X54885259Y-32796440D01*
X54885259Y-32796440D02*
X54837640Y-32844059D01*
X54837640Y-32844059D02*
X54742402Y-32891678D01*
X54742402Y-32891678D02*
X54361450Y-32891678D01*
X55313831Y-33320250D02*
X55456688Y-33367869D01*
X55456688Y-33367869D02*
X55694783Y-33367869D01*
X55694783Y-33367869D02*
X55790021Y-33320250D01*
X55790021Y-33320250D02*
X55837640Y-33272630D01*
X55837640Y-33272630D02*
X55885259Y-33177392D01*
X55885259Y-33177392D02*
X55885259Y-33082154D01*
X55885259Y-33082154D02*
X55837640Y-32986916D01*
X55837640Y-32986916D02*
X55790021Y-32939297D01*
X55790021Y-32939297D02*
X55694783Y-32891678D01*
X55694783Y-32891678D02*
X55504307Y-32844059D01*
X55504307Y-32844059D02*
X55409069Y-32796440D01*
X55409069Y-32796440D02*
X55361450Y-32748821D01*
X55361450Y-32748821D02*
X55313831Y-32653583D01*
X55313831Y-32653583D02*
X55313831Y-32558345D01*
X55313831Y-32558345D02*
X55361450Y-32463107D01*
X55361450Y-32463107D02*
X55409069Y-32415488D01*
X55409069Y-32415488D02*
X55504307Y-32367869D01*
X55504307Y-32367869D02*
X55742402Y-32367869D01*
X55742402Y-32367869D02*
X55885259Y-32415488D01*
X56170974Y-32367869D02*
X56742402Y-32367869D01*
X56456688Y-33367869D02*
X56456688Y-32367869D01*
X87135259Y-27665488D02*
X87040021Y-27617869D01*
X87040021Y-27617869D02*
X86897164Y-27617869D01*
X86897164Y-27617869D02*
X86754307Y-27665488D01*
X86754307Y-27665488D02*
X86659069Y-27760726D01*
X86659069Y-27760726D02*
X86611450Y-27855964D01*
X86611450Y-27855964D02*
X86563831Y-28046440D01*
X86563831Y-28046440D02*
X86563831Y-28189297D01*
X86563831Y-28189297D02*
X86611450Y-28379773D01*
X86611450Y-28379773D02*
X86659069Y-28475011D01*
X86659069Y-28475011D02*
X86754307Y-28570250D01*
X86754307Y-28570250D02*
X86897164Y-28617869D01*
X86897164Y-28617869D02*
X86992402Y-28617869D01*
X86992402Y-28617869D02*
X87135259Y-28570250D01*
X87135259Y-28570250D02*
X87182878Y-28522630D01*
X87182878Y-28522630D02*
X87182878Y-28189297D01*
X87182878Y-28189297D02*
X86992402Y-28189297D01*
X87611450Y-28617869D02*
X87611450Y-27617869D01*
X87611450Y-27617869D02*
X88182878Y-28617869D01*
X88182878Y-28617869D02*
X88182878Y-27617869D01*
X88659069Y-28617869D02*
X88659069Y-27617869D01*
X88659069Y-27617869D02*
X88897164Y-27617869D01*
X88897164Y-27617869D02*
X89040021Y-27665488D01*
X89040021Y-27665488D02*
X89135259Y-27760726D01*
X89135259Y-27760726D02*
X89182878Y-27855964D01*
X89182878Y-27855964D02*
X89230497Y-28046440D01*
X89230497Y-28046440D02*
X89230497Y-28189297D01*
X89230497Y-28189297D02*
X89182878Y-28379773D01*
X89182878Y-28379773D02*
X89135259Y-28475011D01*
X89135259Y-28475011D02*
X89040021Y-28570250D01*
X89040021Y-28570250D02*
X88897164Y-28617869D01*
X88897164Y-28617869D02*
X88659069Y-28617869D01*
X87135259Y-78415488D02*
X87040021Y-78367869D01*
X87040021Y-78367869D02*
X86897164Y-78367869D01*
X86897164Y-78367869D02*
X86754307Y-78415488D01*
X86754307Y-78415488D02*
X86659069Y-78510726D01*
X86659069Y-78510726D02*
X86611450Y-78605964D01*
X86611450Y-78605964D02*
X86563831Y-78796440D01*
X86563831Y-78796440D02*
X86563831Y-78939297D01*
X86563831Y-78939297D02*
X86611450Y-79129773D01*
X86611450Y-79129773D02*
X86659069Y-79225011D01*
X86659069Y-79225011D02*
X86754307Y-79320250D01*
X86754307Y-79320250D02*
X86897164Y-79367869D01*
X86897164Y-79367869D02*
X86992402Y-79367869D01*
X86992402Y-79367869D02*
X87135259Y-79320250D01*
X87135259Y-79320250D02*
X87182878Y-79272630D01*
X87182878Y-79272630D02*
X87182878Y-78939297D01*
X87182878Y-78939297D02*
X86992402Y-78939297D01*
X87611450Y-79367869D02*
X87611450Y-78367869D01*
X87611450Y-78367869D02*
X88182878Y-79367869D01*
X88182878Y-79367869D02*
X88182878Y-78367869D01*
X88659069Y-79367869D02*
X88659069Y-78367869D01*
X88659069Y-78367869D02*
X88897164Y-78367869D01*
X88897164Y-78367869D02*
X89040021Y-78415488D01*
X89040021Y-78415488D02*
X89135259Y-78510726D01*
X89135259Y-78510726D02*
X89182878Y-78605964D01*
X89182878Y-78605964D02*
X89230497Y-78796440D01*
X89230497Y-78796440D02*
X89230497Y-78939297D01*
X89230497Y-78939297D02*
X89182878Y-79129773D01*
X89182878Y-79129773D02*
X89135259Y-79225011D01*
X89135259Y-79225011D02*
X89040021Y-79320250D01*
X89040021Y-79320250D02*
X88897164Y-79367869D01*
X88897164Y-79367869D02*
X88659069Y-79367869D01*
X87135259Y-80915488D02*
X87040021Y-80867869D01*
X87040021Y-80867869D02*
X86897164Y-80867869D01*
X86897164Y-80867869D02*
X86754307Y-80915488D01*
X86754307Y-80915488D02*
X86659069Y-81010726D01*
X86659069Y-81010726D02*
X86611450Y-81105964D01*
X86611450Y-81105964D02*
X86563831Y-81296440D01*
X86563831Y-81296440D02*
X86563831Y-81439297D01*
X86563831Y-81439297D02*
X86611450Y-81629773D01*
X86611450Y-81629773D02*
X86659069Y-81725011D01*
X86659069Y-81725011D02*
X86754307Y-81820250D01*
X86754307Y-81820250D02*
X86897164Y-81867869D01*
X86897164Y-81867869D02*
X86992402Y-81867869D01*
X86992402Y-81867869D02*
X87135259Y-81820250D01*
X87135259Y-81820250D02*
X87182878Y-81772630D01*
X87182878Y-81772630D02*
X87182878Y-81439297D01*
X87182878Y-81439297D02*
X86992402Y-81439297D01*
X87611450Y-81867869D02*
X87611450Y-80867869D01*
X87611450Y-80867869D02*
X88182878Y-81867869D01*
X88182878Y-81867869D02*
X88182878Y-80867869D01*
X88659069Y-81867869D02*
X88659069Y-80867869D01*
X88659069Y-80867869D02*
X88897164Y-80867869D01*
X88897164Y-80867869D02*
X89040021Y-80915488D01*
X89040021Y-80915488D02*
X89135259Y-81010726D01*
X89135259Y-81010726D02*
X89182878Y-81105964D01*
X89182878Y-81105964D02*
X89230497Y-81296440D01*
X89230497Y-81296440D02*
X89230497Y-81439297D01*
X89230497Y-81439297D02*
X89182878Y-81629773D01*
X89182878Y-81629773D02*
X89135259Y-81725011D01*
X89135259Y-81725011D02*
X89040021Y-81820250D01*
X89040021Y-81820250D02*
X88897164Y-81867869D01*
X88897164Y-81867869D02*
X88659069Y-81867869D01*
D12*
X58190476Y-24684819D02*
X58190476Y-25399104D01*
X58190476Y-25399104D02*
X58142857Y-25541961D01*
X58142857Y-25541961D02*
X58047619Y-25637200D01*
X58047619Y-25637200D02*
X57904762Y-25684819D01*
X57904762Y-25684819D02*
X57809524Y-25684819D01*
X59190476Y-25684819D02*
X58619048Y-25684819D01*
X58904762Y-25684819D02*
X58904762Y-24684819D01*
X58904762Y-24684819D02*
X58809524Y-24827676D01*
X58809524Y-24827676D02*
X58714286Y-24922914D01*
X58714286Y-24922914D02*
X58619048Y-24970533D01*
X60142857Y-25684819D02*
X59571429Y-25684819D01*
X59857143Y-25684819D02*
X59857143Y-24684819D01*
X59857143Y-24684819D02*
X59761905Y-24827676D01*
X59761905Y-24827676D02*
X59666667Y-24922914D01*
X59666667Y-24922914D02*
X59571429Y-24970533D01*
X58790476Y-93654819D02*
X58790476Y-94369104D01*
X58790476Y-94369104D02*
X58742857Y-94511961D01*
X58742857Y-94511961D02*
X58647619Y-94607200D01*
X58647619Y-94607200D02*
X58504762Y-94654819D01*
X58504762Y-94654819D02*
X58409524Y-94654819D01*
X59790476Y-94654819D02*
X59219048Y-94654819D01*
X59504762Y-94654819D02*
X59504762Y-93654819D01*
X59504762Y-93654819D02*
X59409524Y-93797676D01*
X59409524Y-93797676D02*
X59314286Y-93892914D01*
X59314286Y-93892914D02*
X59219048Y-93940533D01*
X60647619Y-93988152D02*
X60647619Y-94654819D01*
X60409524Y-93607200D02*
X60171429Y-94321485D01*
X60171429Y-94321485D02*
X60790476Y-94321485D01*
X28190476Y-25074819D02*
X28190476Y-25789104D01*
X28190476Y-25789104D02*
X28142857Y-25931961D01*
X28142857Y-25931961D02*
X28047619Y-26027200D01*
X28047619Y-26027200D02*
X27904762Y-26074819D01*
X27904762Y-26074819D02*
X27809524Y-26074819D01*
X29190476Y-26074819D02*
X28619048Y-26074819D01*
X28904762Y-26074819D02*
X28904762Y-25074819D01*
X28904762Y-25074819D02*
X28809524Y-25217676D01*
X28809524Y-25217676D02*
X28714286Y-25312914D01*
X28714286Y-25312914D02*
X28619048Y-25360533D01*
X29809524Y-25074819D02*
X29904762Y-25074819D01*
X29904762Y-25074819D02*
X30000000Y-25122438D01*
X30000000Y-25122438D02*
X30047619Y-25170057D01*
X30047619Y-25170057D02*
X30095238Y-25265295D01*
X30095238Y-25265295D02*
X30142857Y-25455771D01*
X30142857Y-25455771D02*
X30142857Y-25693866D01*
X30142857Y-25693866D02*
X30095238Y-25884342D01*
X30095238Y-25884342D02*
X30047619Y-25979580D01*
X30047619Y-25979580D02*
X30000000Y-26027200D01*
X30000000Y-26027200D02*
X29904762Y-26074819D01*
X29904762Y-26074819D02*
X29809524Y-26074819D01*
X29809524Y-26074819D02*
X29714286Y-26027200D01*
X29714286Y-26027200D02*
X29666667Y-25979580D01*
X29666667Y-25979580D02*
X29619048Y-25884342D01*
X29619048Y-25884342D02*
X29571429Y-25693866D01*
X29571429Y-25693866D02*
X29571429Y-25455771D01*
X29571429Y-25455771D02*
X29619048Y-25265295D01*
X29619048Y-25265295D02*
X29666667Y-25170057D01*
X29666667Y-25170057D02*
X29714286Y-25122438D01*
X29714286Y-25122438D02*
X29809524Y-25074819D01*
X45666666Y-50454819D02*
X45666666Y-51169104D01*
X45666666Y-51169104D02*
X45619047Y-51311961D01*
X45619047Y-51311961D02*
X45523809Y-51407200D01*
X45523809Y-51407200D02*
X45380952Y-51454819D01*
X45380952Y-51454819D02*
X45285714Y-51454819D01*
X46571428Y-50788152D02*
X46571428Y-51454819D01*
X46333333Y-50407200D02*
X46095238Y-51121485D01*
X46095238Y-51121485D02*
X46714285Y-51121485D01*
X35066666Y-49754819D02*
X35066666Y-50469104D01*
X35066666Y-50469104D02*
X35019047Y-50611961D01*
X35019047Y-50611961D02*
X34923809Y-50707200D01*
X34923809Y-50707200D02*
X34780952Y-50754819D01*
X34780952Y-50754819D02*
X34685714Y-50754819D01*
X35447619Y-49754819D02*
X36066666Y-49754819D01*
X36066666Y-49754819D02*
X35733333Y-50135771D01*
X35733333Y-50135771D02*
X35876190Y-50135771D01*
X35876190Y-50135771D02*
X35971428Y-50183390D01*
X35971428Y-50183390D02*
X36019047Y-50231009D01*
X36019047Y-50231009D02*
X36066666Y-50326247D01*
X36066666Y-50326247D02*
X36066666Y-50564342D01*
X36066666Y-50564342D02*
X36019047Y-50659580D01*
X36019047Y-50659580D02*
X35971428Y-50707200D01*
X35971428Y-50707200D02*
X35876190Y-50754819D01*
X35876190Y-50754819D02*
X35590476Y-50754819D01*
X35590476Y-50754819D02*
X35495238Y-50707200D01*
X35495238Y-50707200D02*
X35447619Y-50659580D01*
X45166666Y-67254819D02*
X45166666Y-67969104D01*
X45166666Y-67969104D02*
X45119047Y-68111961D01*
X45119047Y-68111961D02*
X45023809Y-68207200D01*
X45023809Y-68207200D02*
X44880952Y-68254819D01*
X44880952Y-68254819D02*
X44785714Y-68254819D01*
X46071428Y-67254819D02*
X45880952Y-67254819D01*
X45880952Y-67254819D02*
X45785714Y-67302438D01*
X45785714Y-67302438D02*
X45738095Y-67350057D01*
X45738095Y-67350057D02*
X45642857Y-67492914D01*
X45642857Y-67492914D02*
X45595238Y-67683390D01*
X45595238Y-67683390D02*
X45595238Y-68064342D01*
X45595238Y-68064342D02*
X45642857Y-68159580D01*
X45642857Y-68159580D02*
X45690476Y-68207200D01*
X45690476Y-68207200D02*
X45785714Y-68254819D01*
X45785714Y-68254819D02*
X45976190Y-68254819D01*
X45976190Y-68254819D02*
X46071428Y-68207200D01*
X46071428Y-68207200D02*
X46119047Y-68159580D01*
X46119047Y-68159580D02*
X46166666Y-68064342D01*
X46166666Y-68064342D02*
X46166666Y-67826247D01*
X46166666Y-67826247D02*
X46119047Y-67731009D01*
X46119047Y-67731009D02*
X46071428Y-67683390D01*
X46071428Y-67683390D02*
X45976190Y-67635771D01*
X45976190Y-67635771D02*
X45785714Y-67635771D01*
X45785714Y-67635771D02*
X45690476Y-67683390D01*
X45690476Y-67683390D02*
X45642857Y-67731009D01*
X45642857Y-67731009D02*
X45595238Y-67826247D01*
X35166666Y-84559819D02*
X35166666Y-85274104D01*
X35166666Y-85274104D02*
X35119047Y-85416961D01*
X35119047Y-85416961D02*
X35023809Y-85512200D01*
X35023809Y-85512200D02*
X34880952Y-85559819D01*
X34880952Y-85559819D02*
X34785714Y-85559819D01*
X35547619Y-84559819D02*
X36214285Y-84559819D01*
X36214285Y-84559819D02*
X35785714Y-85559819D01*
X45666666Y-32349819D02*
X45666666Y-33064104D01*
X45666666Y-33064104D02*
X45619047Y-33206961D01*
X45619047Y-33206961D02*
X45523809Y-33302200D01*
X45523809Y-33302200D02*
X45380952Y-33349819D01*
X45380952Y-33349819D02*
X45285714Y-33349819D01*
X46095238Y-32445057D02*
X46142857Y-32397438D01*
X46142857Y-32397438D02*
X46238095Y-32349819D01*
X46238095Y-32349819D02*
X46476190Y-32349819D01*
X46476190Y-32349819D02*
X46571428Y-32397438D01*
X46571428Y-32397438D02*
X46619047Y-32445057D01*
X46619047Y-32445057D02*
X46666666Y-32540295D01*
X46666666Y-32540295D02*
X46666666Y-32635533D01*
X46666666Y-32635533D02*
X46619047Y-32778390D01*
X46619047Y-32778390D02*
X46047619Y-33349819D01*
X46047619Y-33349819D02*
X46666666Y-33349819D01*
X45166666Y-84454819D02*
X45166666Y-85169104D01*
X45166666Y-85169104D02*
X45119047Y-85311961D01*
X45119047Y-85311961D02*
X45023809Y-85407200D01*
X45023809Y-85407200D02*
X44880952Y-85454819D01*
X44880952Y-85454819D02*
X44785714Y-85454819D01*
X45785714Y-84883390D02*
X45690476Y-84835771D01*
X45690476Y-84835771D02*
X45642857Y-84788152D01*
X45642857Y-84788152D02*
X45595238Y-84692914D01*
X45595238Y-84692914D02*
X45595238Y-84645295D01*
X45595238Y-84645295D02*
X45642857Y-84550057D01*
X45642857Y-84550057D02*
X45690476Y-84502438D01*
X45690476Y-84502438D02*
X45785714Y-84454819D01*
X45785714Y-84454819D02*
X45976190Y-84454819D01*
X45976190Y-84454819D02*
X46071428Y-84502438D01*
X46071428Y-84502438D02*
X46119047Y-84550057D01*
X46119047Y-84550057D02*
X46166666Y-84645295D01*
X46166666Y-84645295D02*
X46166666Y-84692914D01*
X46166666Y-84692914D02*
X46119047Y-84788152D01*
X46119047Y-84788152D02*
X46071428Y-84835771D01*
X46071428Y-84835771D02*
X45976190Y-84883390D01*
X45976190Y-84883390D02*
X45785714Y-84883390D01*
X45785714Y-84883390D02*
X45690476Y-84931009D01*
X45690476Y-84931009D02*
X45642857Y-84978628D01*
X45642857Y-84978628D02*
X45595238Y-85073866D01*
X45595238Y-85073866D02*
X45595238Y-85264342D01*
X45595238Y-85264342D02*
X45642857Y-85359580D01*
X45642857Y-85359580D02*
X45690476Y-85407200D01*
X45690476Y-85407200D02*
X45785714Y-85454819D01*
X45785714Y-85454819D02*
X45976190Y-85454819D01*
X45976190Y-85454819D02*
X46071428Y-85407200D01*
X46071428Y-85407200D02*
X46119047Y-85359580D01*
X46119047Y-85359580D02*
X46166666Y-85264342D01*
X46166666Y-85264342D02*
X46166666Y-85073866D01*
X46166666Y-85073866D02*
X46119047Y-84978628D01*
X46119047Y-84978628D02*
X46071428Y-84931009D01*
X46071428Y-84931009D02*
X45976190Y-84883390D01*
X73810476Y-91654819D02*
X73810476Y-92369104D01*
X73810476Y-92369104D02*
X73762857Y-92511961D01*
X73762857Y-92511961D02*
X73667619Y-92607200D01*
X73667619Y-92607200D02*
X73524762Y-92654819D01*
X73524762Y-92654819D02*
X73429524Y-92654819D01*
X74810476Y-92654819D02*
X74239048Y-92654819D01*
X74524762Y-92654819D02*
X74524762Y-91654819D01*
X74524762Y-91654819D02*
X74429524Y-91797676D01*
X74429524Y-91797676D02*
X74334286Y-91892914D01*
X74334286Y-91892914D02*
X74239048Y-91940533D01*
X75143810Y-91654819D02*
X75762857Y-91654819D01*
X75762857Y-91654819D02*
X75429524Y-92035771D01*
X75429524Y-92035771D02*
X75572381Y-92035771D01*
X75572381Y-92035771D02*
X75667619Y-92083390D01*
X75667619Y-92083390D02*
X75715238Y-92131009D01*
X75715238Y-92131009D02*
X75762857Y-92226247D01*
X75762857Y-92226247D02*
X75762857Y-92464342D01*
X75762857Y-92464342D02*
X75715238Y-92559580D01*
X75715238Y-92559580D02*
X75667619Y-92607200D01*
X75667619Y-92607200D02*
X75572381Y-92654819D01*
X75572381Y-92654819D02*
X75286667Y-92654819D01*
X75286667Y-92654819D02*
X75191429Y-92607200D01*
X75191429Y-92607200D02*
X75143810Y-92559580D01*
X83666666Y-91704819D02*
X83666666Y-92419104D01*
X83666666Y-92419104D02*
X83619047Y-92561961D01*
X83619047Y-92561961D02*
X83523809Y-92657200D01*
X83523809Y-92657200D02*
X83380952Y-92704819D01*
X83380952Y-92704819D02*
X83285714Y-92704819D01*
X84190476Y-92704819D02*
X84380952Y-92704819D01*
X84380952Y-92704819D02*
X84476190Y-92657200D01*
X84476190Y-92657200D02*
X84523809Y-92609580D01*
X84523809Y-92609580D02*
X84619047Y-92466723D01*
X84619047Y-92466723D02*
X84666666Y-92276247D01*
X84666666Y-92276247D02*
X84666666Y-91895295D01*
X84666666Y-91895295D02*
X84619047Y-91800057D01*
X84619047Y-91800057D02*
X84571428Y-91752438D01*
X84571428Y-91752438D02*
X84476190Y-91704819D01*
X84476190Y-91704819D02*
X84285714Y-91704819D01*
X84285714Y-91704819D02*
X84190476Y-91752438D01*
X84190476Y-91752438D02*
X84142857Y-91800057D01*
X84142857Y-91800057D02*
X84095238Y-91895295D01*
X84095238Y-91895295D02*
X84095238Y-92133390D01*
X84095238Y-92133390D02*
X84142857Y-92228628D01*
X84142857Y-92228628D02*
X84190476Y-92276247D01*
X84190476Y-92276247D02*
X84285714Y-92323866D01*
X84285714Y-92323866D02*
X84476190Y-92323866D01*
X84476190Y-92323866D02*
X84571428Y-92276247D01*
X84571428Y-92276247D02*
X84619047Y-92228628D01*
X84619047Y-92228628D02*
X84666666Y-92133390D01*
X83590476Y-24684819D02*
X83590476Y-25399104D01*
X83590476Y-25399104D02*
X83542857Y-25541961D01*
X83542857Y-25541961D02*
X83447619Y-25637200D01*
X83447619Y-25637200D02*
X83304762Y-25684819D01*
X83304762Y-25684819D02*
X83209524Y-25684819D01*
X84590476Y-25684819D02*
X84019048Y-25684819D01*
X84304762Y-25684819D02*
X84304762Y-24684819D01*
X84304762Y-24684819D02*
X84209524Y-24827676D01*
X84209524Y-24827676D02*
X84114286Y-24922914D01*
X84114286Y-24922914D02*
X84019048Y-24970533D01*
X84971429Y-24780057D02*
X85019048Y-24732438D01*
X85019048Y-24732438D02*
X85114286Y-24684819D01*
X85114286Y-24684819D02*
X85352381Y-24684819D01*
X85352381Y-24684819D02*
X85447619Y-24732438D01*
X85447619Y-24732438D02*
X85495238Y-24780057D01*
X85495238Y-24780057D02*
X85542857Y-24875295D01*
X85542857Y-24875295D02*
X85542857Y-24970533D01*
X85542857Y-24970533D02*
X85495238Y-25113390D01*
X85495238Y-25113390D02*
X84923810Y-25684819D01*
X84923810Y-25684819D02*
X85542857Y-25684819D01*
X35266666Y-67254819D02*
X35266666Y-67969104D01*
X35266666Y-67969104D02*
X35219047Y-68111961D01*
X35219047Y-68111961D02*
X35123809Y-68207200D01*
X35123809Y-68207200D02*
X34980952Y-68254819D01*
X34980952Y-68254819D02*
X34885714Y-68254819D01*
X36219047Y-67254819D02*
X35742857Y-67254819D01*
X35742857Y-67254819D02*
X35695238Y-67731009D01*
X35695238Y-67731009D02*
X35742857Y-67683390D01*
X35742857Y-67683390D02*
X35838095Y-67635771D01*
X35838095Y-67635771D02*
X36076190Y-67635771D01*
X36076190Y-67635771D02*
X36171428Y-67683390D01*
X36171428Y-67683390D02*
X36219047Y-67731009D01*
X36219047Y-67731009D02*
X36266666Y-67826247D01*
X36266666Y-67826247D02*
X36266666Y-68064342D01*
X36266666Y-68064342D02*
X36219047Y-68159580D01*
X36219047Y-68159580D02*
X36171428Y-68207200D01*
X36171428Y-68207200D02*
X36076190Y-68254819D01*
X36076190Y-68254819D02*
X35838095Y-68254819D01*
X35838095Y-68254819D02*
X35742857Y-68207200D01*
X35742857Y-68207200D02*
X35695238Y-68159580D01*
X35166666Y-32349819D02*
X35166666Y-33064104D01*
X35166666Y-33064104D02*
X35119047Y-33206961D01*
X35119047Y-33206961D02*
X35023809Y-33302200D01*
X35023809Y-33302200D02*
X34880952Y-33349819D01*
X34880952Y-33349819D02*
X34785714Y-33349819D01*
X36166666Y-33349819D02*
X35595238Y-33349819D01*
X35880952Y-33349819D02*
X35880952Y-32349819D01*
X35880952Y-32349819D02*
X35785714Y-32492676D01*
X35785714Y-32492676D02*
X35690476Y-32587914D01*
X35690476Y-32587914D02*
X35595238Y-32635533D01*
%TO.C,J11*%
D13*
X57670000Y-29270000D02*
X57670000Y-82670000D01*
X57670000Y-29270000D02*
X60330000Y-29270000D01*
X57670000Y-82670000D02*
X60330000Y-82670000D01*
X59000000Y-26670000D02*
X60330000Y-26670000D01*
X60330000Y-26670000D02*
X60330000Y-28000000D01*
X60330000Y-29270000D02*
X60330000Y-82670000D01*
%TO.C,J14*%
X51680000Y-88600000D02*
X51680000Y-92600000D01*
X51970000Y-84890000D02*
X54250000Y-84890000D01*
X51970000Y-94860000D02*
X51970000Y-84890000D01*
X51970000Y-94860000D02*
X67270000Y-94860000D01*
X51970000Y-95860000D02*
X51970000Y-94860000D01*
X54250000Y-84890000D02*
X54250000Y-85290000D01*
X54250000Y-85290000D02*
X56950000Y-85290000D01*
X56950000Y-84890000D02*
X67270000Y-84890000D01*
X56950000Y-85290000D02*
X56950000Y-84890000D01*
X67270000Y-84890000D02*
X67270000Y-95860000D01*
X67270000Y-95860000D02*
X51970000Y-95860000D01*
%TO.C,J10*%
X27620000Y-26620000D02*
X29000000Y-26620000D01*
X27620000Y-28000000D02*
X27620000Y-26620000D01*
X27620000Y-29270000D02*
X27620000Y-64940000D01*
X27620000Y-29270000D02*
X30380000Y-29270000D01*
X27620000Y-64940000D02*
X30380000Y-64940000D01*
X30380000Y-29270000D02*
X30380000Y-64940000D01*
%TO.C,J4*%
X47170000Y-45258333D02*
X47170000Y-58018333D01*
X47170000Y-45258333D02*
X49830000Y-45258333D01*
X47170000Y-58018333D02*
X49830000Y-58018333D01*
X48500000Y-42658333D02*
X49830000Y-42658333D01*
X49830000Y-42658333D02*
X49830000Y-43988333D01*
X49830000Y-45258333D02*
X49830000Y-58018333D01*
%TO.C,J3*%
X36670000Y-45258333D02*
X36670000Y-58018333D01*
X36670000Y-45258333D02*
X39330000Y-45258333D01*
X36670000Y-58018333D02*
X39330000Y-58018333D01*
X38000000Y-42658333D02*
X39330000Y-42658333D01*
X39330000Y-42658333D02*
X39330000Y-43988333D01*
X39330000Y-45258333D02*
X39330000Y-58018333D01*
%TO.C,J6*%
X47170000Y-62641667D02*
X47170000Y-75401667D01*
X47170000Y-62641667D02*
X49830000Y-62641667D01*
X47170000Y-75401667D02*
X49830000Y-75401667D01*
X48500000Y-60041667D02*
X49830000Y-60041667D01*
X49830000Y-60041667D02*
X49830000Y-61371667D01*
X49830000Y-62641667D02*
X49830000Y-75401667D01*
%TO.C,J7*%
X36670000Y-80025000D02*
X36670000Y-92785000D01*
X36670000Y-80025000D02*
X39330000Y-80025000D01*
X36670000Y-92785000D02*
X39330000Y-92785000D01*
X38000000Y-77425000D02*
X39330000Y-77425000D01*
X39330000Y-77425000D02*
X39330000Y-78755000D01*
X39330000Y-80025000D02*
X39330000Y-92785000D01*
%TO.C,J2*%
X47170000Y-27970000D02*
X47170000Y-40730000D01*
X47170000Y-27970000D02*
X49830000Y-27970000D01*
X47170000Y-40730000D02*
X49830000Y-40730000D01*
X48500000Y-25370000D02*
X49830000Y-25370000D01*
X49830000Y-25370000D02*
X49830000Y-26700000D01*
X49830000Y-27970000D02*
X49830000Y-40730000D01*
%TO.C,J8*%
X47170000Y-80025000D02*
X47170000Y-92785000D01*
X47170000Y-80025000D02*
X49830000Y-80025000D01*
X47170000Y-92785000D02*
X49830000Y-92785000D01*
X48500000Y-77425000D02*
X49830000Y-77425000D01*
X49830000Y-77425000D02*
X49830000Y-78755000D01*
X49830000Y-80025000D02*
X49830000Y-92785000D01*
%TO.C,J13*%
X69620000Y-90980000D02*
X69620000Y-89600000D01*
X71000000Y-90980000D02*
X69620000Y-90980000D01*
X72270000Y-88220000D02*
X80000000Y-88220000D01*
X72270000Y-90980000D02*
X72270000Y-88220000D01*
X72270000Y-90980000D02*
X80000000Y-90980000D01*
X80000000Y-90980000D02*
X80000000Y-88220000D01*
%TO.C,J9*%
X81480000Y-90980000D02*
X81480000Y-89600000D01*
X82860000Y-90980000D02*
X81480000Y-90980000D01*
X84130000Y-88220000D02*
X86780000Y-88220000D01*
X84130000Y-90980000D02*
X84130000Y-88220000D01*
X84130000Y-90980000D02*
X86780000Y-90980000D01*
X86780000Y-90980000D02*
X86780000Y-88220000D01*
%TO.C,J12*%
X83070000Y-29270000D02*
X83070000Y-82670000D01*
X83070000Y-29270000D02*
X85730000Y-29270000D01*
X83070000Y-82670000D02*
X85730000Y-82670000D01*
X84400000Y-26670000D02*
X85730000Y-26670000D01*
X85730000Y-26670000D02*
X85730000Y-28000000D01*
X85730000Y-29270000D02*
X85730000Y-82670000D01*
%TO.C,J5*%
X36670000Y-62641667D02*
X36670000Y-75401667D01*
X36670000Y-62641667D02*
X39330000Y-62641667D01*
X36670000Y-75401667D02*
X39330000Y-75401667D01*
X38000000Y-60041667D02*
X39330000Y-60041667D01*
X39330000Y-60041667D02*
X39330000Y-61371667D01*
X39330000Y-62641667D02*
X39330000Y-75401667D01*
%TO.C,J1*%
X36670000Y-27970000D02*
X36670000Y-40730000D01*
X36670000Y-27970000D02*
X39330000Y-27970000D01*
X36670000Y-40730000D02*
X39330000Y-40730000D01*
X38000000Y-25370000D02*
X39330000Y-25370000D01*
X39330000Y-25370000D02*
X39330000Y-26700000D01*
X39330000Y-27970000D02*
X39330000Y-40730000D01*
%TD*%
M02*
