%TF.GenerationSoftware,KiCad,Pcbnew,10.0.0*%
%TF.CreationDate,2026-08-07T22:23:52-05:00*%
%TF.ProjectId,ti99-kb-adapter,74693939-2d6b-4622-9d61-646170746572,rev?*%
%TF.SameCoordinates,Original*%
%TF.FileFunction,Copper,L2,Bot*%
%TF.FilePolarity,Positive*%
%FSLAX46Y46*%
G04 Gerber Fmt 4.6, Leading zero omitted, Abs format (unit mm)*
G04 Created by KiCad (PCBNEW 10.0.0) date 2026-08-07 22:23:52*
%MOMM*%
%LPD*%
G01*
G04 APERTURE LIST*
G04 Aperture macros list*
%AMRoundRect*
0 Rectangle with rounded corners*
0 $1 Rounding radius*
0 $2 $3 $4 $5 $6 $7 $8 $9 X,Y pos of 4 corners*
0 Add a 4 corners polygon primitive as box body*
4,1,4,$2,$3,$4,$5,$6,$7,$8,$9,$2,$3,0*
0 Add four circle primitives for the rounded corners*
1,1,$1+$1,$2,$3*
1,1,$1+$1,$4,$5*
1,1,$1+$1,$6,$7*
1,1,$1+$1,$8,$9*
0 Add four rect primitives between the rounded corners*
20,1,$1+$1,$2,$3,$4,$5,0*
20,1,$1+$1,$4,$5,$6,$7,0*
20,1,$1+$1,$6,$7,$8,$9,0*
20,1,$1+$1,$8,$9,$2,$3,0*%
G04 Aperture macros list end*
%TA.AperFunction,ComponentPad*%
%ADD10R,1.700000X1.700000*%
%TD*%
%TA.AperFunction,ComponentPad*%
%ADD11C,1.700000*%
%TD*%
%TA.AperFunction,ComponentPad*%
%ADD12RoundRect,0.250000X-1.330000X-1.850000X1.330000X-1.850000X1.330000X1.850000X-1.330000X1.850000X0*%
%TD*%
%TA.AperFunction,ComponentPad*%
%ADD13O,3.160000X4.200000*%
%TD*%
%TA.AperFunction,ComponentPad*%
%ADD14R,2.200000X2.200000*%
%TD*%
%TA.AperFunction,ComponentPad*%
%ADD15C,2.200000*%
%TD*%
%TA.AperFunction,ViaPad*%
%ADD16C,0.600000*%
%TD*%
%TA.AperFunction,Conductor*%
%ADD17C,0.500000*%
%TD*%
G04 APERTURE END LIST*
D10*
%TO.P,J10,1,Pin_1_1*%
%TO.N,/INT5*%
X72450000Y-68760000D03*
D11*
%TO.P,J10,2,Pin_2_2*%
%TO.N,/INT6*%
X72450000Y-71300000D03*
%TO.P,J10,3,Pin_3_3*%
%TO.N,/INT8*%
X72450000Y-73840000D03*
%TO.P,J10,4,Pin_4_4*%
%TO.N,/INT4*%
X72450000Y-76380000D03*
%TO.P,J10,5,Pin_5_5*%
%TO.N,/INT3*%
X72450000Y-78920000D03*
%TO.P,J10,6,Pin_6_6*%
%TO.N,/INT9*%
X72450000Y-81460000D03*
%TO.P,J10,7,Pin_7_7*%
%TO.N,/INT7*%
X72450000Y-84000000D03*
%TO.P,J10,8,Pin_8_8*%
%TO.N,/1Y1*%
X72450000Y-86540000D03*
%TO.P,J10,9,Pin_9_9*%
%TO.N,/1Y0*%
X72450000Y-89080000D03*
%TO.P,J10,10,Pin_10_10*%
%TO.N,/ALPHA_LOCK*%
X72450000Y-91620000D03*
%TO.P,J10,11,Pin_11_11*%
%TO.N,/INT10*%
X72450000Y-94160000D03*
%TO.P,J10,12,Pin_12_12*%
%TO.N,/2Y0*%
X72450000Y-96700000D03*
%TO.P,J10,13,Pin_13_13*%
%TO.N,/2Y1*%
X72450000Y-99240000D03*
%TO.P,J10,14,Pin_14_14*%
%TO.N,/2Y2*%
X72450000Y-101780000D03*
%TO.P,J10,15,Pin_15_15*%
%TO.N,/2Y3*%
X72450000Y-104320000D03*
%TD*%
D12*
%TO.P,J14,1,Pin_1_1*%
%TO.N,+5V*%
X76540000Y-50000000D03*
D13*
%TO.P,J14,2,Pin_2_2*%
%TO.N,GND*%
X80500000Y-50000000D03*
%TO.P,J14,3,Pin_3_3*%
%TO.N,/PSU_+12V*%
X84460000Y-50000000D03*
%TO.P,J14,4,Pin_4_4*%
%TO.N,/PSU_-5V*%
X88420000Y-50000000D03*
%TD*%
D10*
%TO.P,J15,1,Pin_1_1*%
%TO.N,/SPARE*%
X65500000Y-110000000D03*
%TD*%
%TO.P,U1,1,3V3_1*%
%TO.N,+3V3*%
X98000000Y-61900000D03*
D11*
%TO.P,U1,2,3V3_2*%
X98000000Y-64440000D03*
%TO.P,U1,3,EN_3*%
%TO.N,unconnected-(U1A-EN-Pad3)*%
X98000000Y-66980000D03*
%TO.P,U1,4,IO4_4*%
%TO.N,/INT5_LV*%
X98000000Y-69520000D03*
%TO.P,U1,5,IO5_5*%
%TO.N,/INT6_LV*%
X98000000Y-72060000D03*
%TO.P,U1,6,IO6_6*%
%TO.N,/INT8_LV*%
X98000000Y-74600000D03*
%TO.P,U1,7,IO7_7*%
%TO.N,/INT4_LV*%
X98000000Y-77140000D03*
%TO.P,U1,8,IO15_8*%
%TO.N,/INT3_LV*%
X98000000Y-79680000D03*
%TO.P,U1,9,IO16_9*%
%TO.N,/INT9_LV*%
X98000000Y-82220000D03*
%TO.P,U1,10,IO17_10*%
%TO.N,/INT7_LV*%
X98000000Y-84760000D03*
%TO.P,U1,11,IO18_11*%
%TO.N,/1Y1_LV*%
X98000000Y-87300000D03*
%TO.P,U1,12,IO8_12*%
%TO.N,/1Y0_LV*%
X98000000Y-89840000D03*
%TO.P,U1,13,IO3_13*%
%TO.N,/ALPHA_LOCK_LV*%
X98000000Y-92380000D03*
%TO.P,U1,14,IO46_14*%
%TO.N,unconnected-(U1A-IO46-Pad14)*%
X98000000Y-94920000D03*
%TO.P,U1,15,IO9_15*%
%TO.N,/INT10_LV*%
X98000000Y-97460000D03*
%TO.P,U1,16,IO10_16*%
%TO.N,/2Y0_LV*%
X98000000Y-100000000D03*
%TO.P,U1,17,IO11_17*%
%TO.N,/2Y1_LV*%
X98000000Y-102540000D03*
%TO.P,U1,18,IO12_18*%
%TO.N,/2Y2_LV*%
X98000000Y-105080000D03*
%TO.P,U1,19,IO13_19*%
%TO.N,/2Y3_LV*%
X98000000Y-107620000D03*
%TO.P,U1,20,IO14_20*%
%TO.N,/SPARE_LV*%
X98000000Y-110160000D03*
%TO.P,U1,21,5V_21*%
%TO.N,+5V*%
X98000000Y-112700000D03*
%TO.P,U1,22,GND_22*%
%TO.N,GND*%
X98000000Y-115240000D03*
%TO.P,U1,23,GND_23*%
X123400000Y-61900000D03*
%TO.P,U1,24,TXD0_24*%
%TO.N,unconnected-(U1B-TXD0-Pad24)*%
X123400000Y-64440000D03*
%TO.P,U1,25,RXD0_25*%
%TO.N,unconnected-(U1B-RXD0-Pad25)*%
X123400000Y-66980000D03*
%TO.P,U1,26,IO1_26*%
%TO.N,unconnected-(U1B-IO1-Pad26)*%
X123400000Y-69520000D03*
%TO.P,U1,27,IO2_27*%
%TO.N,unconnected-(U1B-IO2-Pad27)*%
X123400000Y-72060000D03*
%TO.P,U1,28,IO42_28*%
%TO.N,unconnected-(U1B-IO42-Pad28)*%
X123400000Y-74600000D03*
%TO.P,U1,29,IO41_29*%
%TO.N,unconnected-(U1B-IO41-Pad29)*%
X123400000Y-77140000D03*
%TO.P,U1,30,IO40_30*%
%TO.N,unconnected-(U1B-IO40-Pad30)*%
X123400000Y-79680000D03*
%TO.P,U1,31,IO39_31*%
%TO.N,unconnected-(U1B-IO39-Pad31)*%
X123400000Y-82220000D03*
%TO.P,U1,32,IO38_32*%
%TO.N,unconnected-(U1B-IO38-Pad32)*%
X123400000Y-84760000D03*
%TO.P,U1,33,IO37_33*%
%TO.N,unconnected-(U1B-IO37-Pad33)*%
X123400000Y-87300000D03*
%TO.P,U1,34,IO36_34*%
%TO.N,unconnected-(U1B-IO36-Pad34)*%
X123400000Y-89840000D03*
%TO.P,U1,35,IO35_35*%
%TO.N,unconnected-(U1B-IO35-Pad35)*%
X123400000Y-92380000D03*
%TO.P,U1,36,IO0_36*%
%TO.N,unconnected-(U1B-IO0-Pad36)*%
X123400000Y-94920000D03*
%TO.P,U1,37,IO45_37*%
%TO.N,unconnected-(U1B-IO45-Pad37)*%
X123400000Y-97460000D03*
%TO.P,U1,38,IO48_38*%
%TO.N,unconnected-(U1B-IO48-Pad38)*%
X123400000Y-100000000D03*
%TO.P,U1,39,IO47_39*%
%TO.N,unconnected-(U1B-IO47-Pad39)*%
X123400000Y-102540000D03*
%TO.P,U1,40,IO21_40*%
%TO.N,unconnected-(U1B-IO21-Pad40)*%
X123400000Y-105080000D03*
%TO.P,U1,41,IO20_41*%
%TO.N,unconnected-(U1B-IO20-Pad41)*%
X123400000Y-107620000D03*
%TO.P,U1,42,IO19_42*%
%TO.N,unconnected-(U1B-IO19-Pad42)*%
X123400000Y-110160000D03*
%TO.P,U1,43,GND_43*%
%TO.N,GND*%
X123400000Y-112700000D03*
%TO.P,U1,44,GND_44*%
X123400000Y-115240000D03*
%TD*%
D10*
%TO.P,J9,1,Pin_1_1*%
%TO.N,+5V*%
X66000000Y-48725000D03*
D11*
%TO.P,J9,2,Pin_2_2*%
%TO.N,GND*%
X66000000Y-51265000D03*
%TD*%
D14*
%TO.P,J13,1,Pin_1_1*%
%TO.N,/PSU_-5V*%
X96285000Y-50000000D03*
D15*
%TO.P,J13,2,Pin_2_2*%
%TO.N,/PSU_+12V*%
X100095000Y-50000000D03*
%TO.P,J13,3,Pin_3_3*%
%TO.N,GND*%
X103905000Y-50000000D03*
%TO.P,J13,4,Pin_4_4*%
%TO.N,+5V*%
X107715000Y-50000000D03*
%TD*%
D10*
%TO.P,J20,1,Pin_1_1*%
%TO.N,/INT5*%
X65500000Y-68845000D03*
D11*
%TO.P,J20,2,Pin_2_2*%
%TO.N,/INT6*%
X65500000Y-71385000D03*
%TO.P,J20,3,Pin_3_3*%
%TO.N,/INT8*%
X65500000Y-73925000D03*
%TO.P,J20,4,Pin_4_4*%
%TO.N,/INT4*%
X65500000Y-76465000D03*
%TO.P,J20,5,Pin_5_5*%
%TO.N,/INT3*%
X65500000Y-79005000D03*
%TO.P,J20,6,Pin_6_6*%
%TO.N,/INT9*%
X65500000Y-81545000D03*
%TO.P,J20,7,Pin_7_7*%
%TO.N,/INT7*%
X65500000Y-84085000D03*
%TO.P,J20,8,Pin_8_8*%
%TO.N,/1Y1*%
X65500000Y-86625000D03*
%TO.P,J20,9,Pin_9_9*%
%TO.N,/1Y0*%
X65500000Y-89165000D03*
%TO.P,J20,10,Pin_10_10*%
%TO.N,/ALPHA_LOCK*%
X65500000Y-91705000D03*
%TO.P,J20,11,Pin_11_11*%
%TO.N,/INT10*%
X65500000Y-94245000D03*
%TO.P,J20,12,Pin_12_12*%
%TO.N,/2Y0*%
X65500000Y-96785000D03*
%TO.P,J20,13,Pin_13_13*%
%TO.N,/2Y1*%
X65500000Y-99325000D03*
%TO.P,J20,14,Pin_14_14*%
%TO.N,/2Y2*%
X65500000Y-101865000D03*
%TO.P,J20,15,Pin_15_15*%
%TO.N,/2Y3*%
X65500000Y-104405000D03*
%TD*%
D16*
%TO.N,+3V3*%
X91250000Y-81500000D03*
X82250000Y-100250000D03*
X82250000Y-69750000D03*
X87500000Y-102500000D03*
X82250000Y-79950000D03*
X82250000Y-95250000D03*
X82250000Y-85000000D03*
X82250000Y-89950000D03*
X91250000Y-86250000D03*
X91250000Y-92500000D03*
X87500000Y-106250000D03*
X90750000Y-97000000D03*
X82250000Y-105250000D03*
X91250000Y-71000000D03*
X91250000Y-76000000D03*
X82250000Y-74700000D03*
X89000000Y-112500000D03*
%TD*%
%TO.N,+3V3*%
D17*
X82250000Y-74700000D02*
X89950000Y-74700000D01*
X87500000Y-102500000D02*
X87500000Y-102250000D01*
X82200000Y-74700000D02*
X82200000Y-79950000D01*
X82200000Y-84950000D02*
X82250000Y-85000000D01*
X82250000Y-69750000D02*
X82250000Y-74650000D01*
X82250000Y-74650000D02*
X82200000Y-74700000D01*
X82250000Y-79950000D02*
X89700000Y-79950000D01*
X82250000Y-105250000D02*
X86500000Y-105250000D01*
X98000000Y-61900000D02*
X98000000Y-64440000D01*
X89950000Y-74700000D02*
X91250000Y-76000000D01*
X87500000Y-102250000D02*
X85500000Y-100250000D01*
X89700000Y-79950000D02*
X91250000Y-81500000D01*
X82250000Y-85000000D02*
X90000000Y-85000000D01*
X98000000Y-61900000D02*
X84350000Y-61900000D01*
X82250000Y-85000000D02*
X82250000Y-89900000D01*
X89000000Y-112500000D02*
X82250000Y-105750000D01*
X82250000Y-100250000D02*
X82250000Y-105250000D01*
X90000000Y-85000000D02*
X91250000Y-86250000D01*
X82250000Y-105750000D02*
X82250000Y-105250000D01*
X84350000Y-61900000D02*
X82250000Y-64000000D01*
X86500000Y-105250000D02*
X87500000Y-106250000D01*
X82250000Y-95250000D02*
X82250000Y-100250000D01*
X85500000Y-100250000D02*
X82250000Y-100250000D01*
X82200000Y-79950000D02*
X82200000Y-84950000D01*
X82200000Y-95200000D02*
X82250000Y-95250000D01*
X82250000Y-95250000D02*
X89000000Y-95250000D01*
X82250000Y-64000000D02*
X82250000Y-69750000D01*
X82250000Y-89900000D02*
X82200000Y-89950000D01*
X82200000Y-89950000D02*
X82200000Y-95200000D01*
X90000000Y-69750000D02*
X91250000Y-71000000D01*
X89000000Y-95250000D02*
X90750000Y-97000000D01*
X88700000Y-89950000D02*
X91250000Y-92500000D01*
X82250000Y-69750000D02*
X90000000Y-69750000D01*
X82250000Y-89950000D02*
X88700000Y-89950000D01*
%TD*%
%TA.AperFunction,Conductor*%
%TO.N,GND*%
G36*
X128442539Y-40520185D02*
G01*
X128488294Y-40572989D01*
X128499500Y-40624500D01*
X128499500Y-129625500D01*
X128479815Y-129692539D01*
X128427011Y-129738294D01*
X128375500Y-129749500D01*
X56124500Y-129749500D01*
X56057461Y-129729815D01*
X56011706Y-129677011D01*
X56000500Y-129625500D01*
X56000500Y-126393713D01*
X58149500Y-126393713D01*
X58149500Y-126606286D01*
X58182753Y-126816239D01*
X58248444Y-127018414D01*
X58344951Y-127207820D01*
X58469890Y-127379786D01*
X58620213Y-127530109D01*
X58792179Y-127655048D01*
X58792181Y-127655049D01*
X58792184Y-127655051D01*
X58981588Y-127751557D01*
X59183757Y-127817246D01*
X59393713Y-127850500D01*
X59393714Y-127850500D01*
X59606286Y-127850500D01*
X59606287Y-127850500D01*
X59816243Y-127817246D01*
X60018412Y-127751557D01*
X60207816Y-127655051D01*
X60229789Y-127639086D01*
X60379786Y-127530109D01*
X60379788Y-127530106D01*
X60379792Y-127530104D01*
X60530104Y-127379792D01*
X60530106Y-127379788D01*
X60530109Y-127379786D01*
X60655048Y-127207820D01*
X60655047Y-127207820D01*
X60655051Y-127207816D01*
X60751557Y-127018412D01*
X60817246Y-126816243D01*
X60850500Y-126606287D01*
X60850500Y-126393713D01*
X123899500Y-126393713D01*
X123899500Y-126606286D01*
X123932753Y-126816239D01*
X123998444Y-127018414D01*
X124094951Y-127207820D01*
X124219890Y-127379786D01*
X124370213Y-127530109D01*
X124542179Y-127655048D01*
X124542181Y-127655049D01*
X124542184Y-127655051D01*
X124731588Y-127751557D01*
X124933757Y-127817246D01*
X125143713Y-127850500D01*
X125143714Y-127850500D01*
X125356286Y-127850500D01*
X125356287Y-127850500D01*
X125566243Y-127817246D01*
X125768412Y-127751557D01*
X125957816Y-127655051D01*
X125979789Y-127639086D01*
X126129786Y-127530109D01*
X126129788Y-127530106D01*
X126129792Y-127530104D01*
X126280104Y-127379792D01*
X126280106Y-127379788D01*
X126280109Y-127379786D01*
X126405048Y-127207820D01*
X126405047Y-127207820D01*
X126405051Y-127207816D01*
X126501557Y-127018412D01*
X126567246Y-126816243D01*
X126600500Y-126606287D01*
X126600500Y-126393713D01*
X126567246Y-126183757D01*
X126501557Y-125981588D01*
X126405051Y-125792184D01*
X126405049Y-125792181D01*
X126405048Y-125792179D01*
X126280109Y-125620213D01*
X126129786Y-125469890D01*
X125957820Y-125344951D01*
X125768414Y-125248444D01*
X125768413Y-125248443D01*
X125768412Y-125248443D01*
X125566243Y-125182754D01*
X125566241Y-125182753D01*
X125566240Y-125182753D01*
X125404957Y-125157208D01*
X125356287Y-125149500D01*
X125143713Y-125149500D01*
X125095042Y-125157208D01*
X124933760Y-125182753D01*
X124731585Y-125248444D01*
X124542179Y-125344951D01*
X124370213Y-125469890D01*
X124219890Y-125620213D01*
X124094951Y-125792179D01*
X123998444Y-125981585D01*
X123932753Y-126183760D01*
X123899500Y-126393713D01*
X60850500Y-126393713D01*
X60817246Y-126183757D01*
X60751557Y-125981588D01*
X60655051Y-125792184D01*
X60655049Y-125792181D01*
X60655048Y-125792179D01*
X60530109Y-125620213D01*
X60379786Y-125469890D01*
X60207820Y-125344951D01*
X60018414Y-125248444D01*
X60018413Y-125248443D01*
X60018412Y-125248443D01*
X59816243Y-125182754D01*
X59816241Y-125182753D01*
X59816240Y-125182753D01*
X59654957Y-125157208D01*
X59606287Y-125149500D01*
X59393713Y-125149500D01*
X59345042Y-125157208D01*
X59183760Y-125182753D01*
X58981585Y-125248444D01*
X58792179Y-125344951D01*
X58620213Y-125469890D01*
X58469890Y-125620213D01*
X58344951Y-125792179D01*
X58248444Y-125981585D01*
X58182753Y-126183760D01*
X58149500Y-126393713D01*
X56000500Y-126393713D01*
X56000500Y-109102135D01*
X64149500Y-109102135D01*
X64149500Y-110897870D01*
X64149501Y-110897876D01*
X64155908Y-110957483D01*
X64206202Y-111092328D01*
X64206206Y-111092335D01*
X64292452Y-111207544D01*
X64292455Y-111207547D01*
X64407664Y-111293793D01*
X64407671Y-111293797D01*
X64542517Y-111344091D01*
X64542516Y-111344091D01*
X64549444Y-111344835D01*
X64602127Y-111350500D01*
X66397872Y-111350499D01*
X66457483Y-111344091D01*
X66592331Y-111293796D01*
X66707546Y-111207546D01*
X66793796Y-111092331D01*
X66844091Y-110957483D01*
X66850500Y-110897873D01*
X66850499Y-109102128D01*
X66844091Y-109042517D01*
X66828414Y-109000486D01*
X66793797Y-108907671D01*
X66793793Y-108907664D01*
X66707547Y-108792455D01*
X66707544Y-108792452D01*
X66592335Y-108706206D01*
X66592328Y-108706202D01*
X66457482Y-108655908D01*
X66457483Y-108655908D01*
X66397883Y-108649501D01*
X66397881Y-108649500D01*
X66397873Y-108649500D01*
X66397864Y-108649500D01*
X64602129Y-108649500D01*
X64602123Y-108649501D01*
X64542516Y-108655908D01*
X64407671Y-108706202D01*
X64407664Y-108706206D01*
X64292455Y-108792452D01*
X64292452Y-108792455D01*
X64206206Y-108907664D01*
X64206202Y-108907671D01*
X64155908Y-109042517D01*
X64149501Y-109102116D01*
X64149501Y-109102123D01*
X64149500Y-109102135D01*
X56000500Y-109102135D01*
X56000500Y-67947135D01*
X64149500Y-67947135D01*
X64149500Y-69742870D01*
X64149501Y-69742876D01*
X64155908Y-69802483D01*
X64206202Y-69937328D01*
X64206206Y-69937335D01*
X64292452Y-70052544D01*
X64292455Y-70052547D01*
X64407664Y-70138793D01*
X64407671Y-70138797D01*
X64539082Y-70187810D01*
X64595016Y-70229681D01*
X64619433Y-70295145D01*
X64604582Y-70363418D01*
X64583431Y-70391673D01*
X64469889Y-70505215D01*
X64344951Y-70677179D01*
X64248444Y-70866585D01*
X64182753Y-71068760D01*
X64156661Y-71233501D01*
X64149500Y-71278713D01*
X64149500Y-71491287D01*
X64157467Y-71541588D01*
X64170169Y-71621789D01*
X64182754Y-71701243D01*
X64220825Y-71818414D01*
X64248444Y-71903414D01*
X64344951Y-72092820D01*
X64469890Y-72264786D01*
X64620213Y-72415109D01*
X64792182Y-72540050D01*
X64800946Y-72544516D01*
X64851742Y-72592491D01*
X64868536Y-72660312D01*
X64845998Y-72726447D01*
X64800946Y-72765484D01*
X64792182Y-72769949D01*
X64620213Y-72894890D01*
X64469890Y-73045213D01*
X64344951Y-73217179D01*
X64248444Y-73406585D01*
X64182753Y-73608760D01*
X64165102Y-73720208D01*
X64149500Y-73818713D01*
X64149500Y-74031287D01*
X64157467Y-74081588D01*
X64169290Y-74156239D01*
X64182754Y-74241243D01*
X64248259Y-74442847D01*
X64248444Y-74443414D01*
X64344951Y-74632820D01*
X64469890Y-74804786D01*
X64620213Y-74955109D01*
X64792182Y-75080050D01*
X64800946Y-75084516D01*
X64851742Y-75132491D01*
X64868536Y-75200312D01*
X64845998Y-75266447D01*
X64800946Y-75305484D01*
X64792182Y-75309949D01*
X64620213Y-75434890D01*
X64469890Y-75585213D01*
X64344951Y-75757179D01*
X64248444Y-75946585D01*
X64182753Y-76148760D01*
X64165102Y-76260208D01*
X64149500Y-76358713D01*
X64149500Y-76571287D01*
X64157467Y-76621588D01*
X64180931Y-76769738D01*
X64182754Y-76781243D01*
X64220825Y-76898414D01*
X64248444Y-76983414D01*
X64344951Y-77172820D01*
X64469890Y-77344786D01*
X64620213Y-77495109D01*
X64792182Y-77620050D01*
X64800946Y-77624516D01*
X64851742Y-77672491D01*
X64868536Y-77740312D01*
X64845998Y-77806447D01*
X64800946Y-77845484D01*
X64792182Y-77849949D01*
X64620213Y-77974890D01*
X64469890Y-78125213D01*
X64344951Y-78297179D01*
X64248444Y-78486585D01*
X64182753Y-78688760D01*
X64165102Y-78800208D01*
X64149500Y-78898713D01*
X64149500Y-79111287D01*
X64157467Y-79161588D01*
X64182210Y-79317813D01*
X64182754Y-79321243D01*
X64220825Y-79438414D01*
X64248444Y-79523414D01*
X64344951Y-79712820D01*
X64469890Y-79884786D01*
X64620213Y-80035109D01*
X64792182Y-80160050D01*
X64800946Y-80164516D01*
X64851742Y-80212491D01*
X64868536Y-80280312D01*
X64845998Y-80346447D01*
X64800946Y-80385484D01*
X64792182Y-80389949D01*
X64620213Y-80514890D01*
X64469890Y-80665213D01*
X64344951Y-80837179D01*
X64248444Y-81026585D01*
X64182753Y-81228760D01*
X64176774Y-81266510D01*
X64149500Y-81438713D01*
X64149500Y-81651287D01*
X64157467Y-81701588D01*
X64169290Y-81776239D01*
X64182754Y-81861243D01*
X64231183Y-82010292D01*
X64248444Y-82063414D01*
X64344951Y-82252820D01*
X64469890Y-82424786D01*
X64620213Y-82575109D01*
X64792182Y-82700050D01*
X64800946Y-82704516D01*
X64851742Y-82752491D01*
X64868536Y-82820312D01*
X64845998Y-82886447D01*
X64800946Y-82925484D01*
X64792182Y-82929949D01*
X64620213Y-83054890D01*
X64469890Y-83205213D01*
X64344951Y-83377179D01*
X64248444Y-83566585D01*
X64182753Y-83768760D01*
X64165102Y-83880208D01*
X64149500Y-83978713D01*
X64149500Y-84191287D01*
X64157467Y-84241588D01*
X64169290Y-84316239D01*
X64182754Y-84401243D01*
X64220825Y-84518414D01*
X64248444Y-84603414D01*
X64344951Y-84792820D01*
X64469890Y-84964786D01*
X64620213Y-85115109D01*
X64792182Y-85240050D01*
X64800946Y-85244516D01*
X64851742Y-85292491D01*
X64868536Y-85360312D01*
X64845998Y-85426447D01*
X64800946Y-85465484D01*
X64792182Y-85469949D01*
X64620213Y-85594890D01*
X64469890Y-85745213D01*
X64344951Y-85917179D01*
X64248444Y-86106585D01*
X64182753Y-86308760D01*
X64179572Y-86328846D01*
X64149500Y-86518713D01*
X64149500Y-86731287D01*
X64157467Y-86781588D01*
X64169290Y-86856239D01*
X64182754Y-86941243D01*
X64220825Y-87058414D01*
X64248444Y-87143414D01*
X64344951Y-87332820D01*
X64469890Y-87504786D01*
X64620213Y-87655109D01*
X64792182Y-87780050D01*
X64800946Y-87784516D01*
X64851742Y-87832491D01*
X64868536Y-87900312D01*
X64845998Y-87966447D01*
X64800946Y-88005484D01*
X64792182Y-88009949D01*
X64620213Y-88134890D01*
X64469890Y-88285213D01*
X64344951Y-88457179D01*
X64248444Y-88646585D01*
X64182753Y-88848760D01*
X64165102Y-88960208D01*
X64149500Y-89058713D01*
X64149500Y-89271287D01*
X64157467Y-89321588D01*
X64169290Y-89396239D01*
X64182754Y-89481243D01*
X64220825Y-89598414D01*
X64248444Y-89683414D01*
X64344951Y-89872820D01*
X64469890Y-90044786D01*
X64620213Y-90195109D01*
X64792182Y-90320050D01*
X64800946Y-90324516D01*
X64851742Y-90372491D01*
X64868536Y-90440312D01*
X64845998Y-90506447D01*
X64800946Y-90545484D01*
X64792182Y-90549949D01*
X64620213Y-90674890D01*
X64469890Y-90825213D01*
X64344951Y-90997179D01*
X64248444Y-91186585D01*
X64182753Y-91388760D01*
X64165102Y-91500208D01*
X64149500Y-91598713D01*
X64149500Y-91811287D01*
X64157467Y-91861588D01*
X64177759Y-91989711D01*
X64182754Y-92021243D01*
X64220825Y-92138414D01*
X64248444Y-92223414D01*
X64344951Y-92412820D01*
X64469890Y-92584786D01*
X64620213Y-92735109D01*
X64792182Y-92860050D01*
X64800946Y-92864516D01*
X64851742Y-92912491D01*
X64868536Y-92980312D01*
X64845998Y-93046447D01*
X64800946Y-93085484D01*
X64792182Y-93089949D01*
X64620213Y-93214890D01*
X64469890Y-93365213D01*
X64344951Y-93537179D01*
X64248444Y-93726585D01*
X64182753Y-93928760D01*
X64165102Y-94040208D01*
X64149500Y-94138713D01*
X64149500Y-94351287D01*
X64157467Y-94401588D01*
X64177542Y-94528340D01*
X64182754Y-94561243D01*
X64220825Y-94678414D01*
X64248444Y-94763414D01*
X64344951Y-94952820D01*
X64469890Y-95124786D01*
X64620213Y-95275109D01*
X64792182Y-95400050D01*
X64800946Y-95404516D01*
X64851742Y-95452491D01*
X64868536Y-95520312D01*
X64845998Y-95586447D01*
X64800946Y-95625484D01*
X64792182Y-95629949D01*
X64620213Y-95754890D01*
X64469890Y-95905213D01*
X64344951Y-96077179D01*
X64248444Y-96266585D01*
X64182753Y-96468760D01*
X64179435Y-96489711D01*
X64149500Y-96678713D01*
X64149500Y-96891287D01*
X64157467Y-96941588D01*
X64179206Y-97078846D01*
X64182754Y-97101243D01*
X64225727Y-97233501D01*
X64248444Y-97303414D01*
X64344951Y-97492820D01*
X64469890Y-97664786D01*
X64620213Y-97815109D01*
X64792182Y-97940050D01*
X64800946Y-97944516D01*
X64851742Y-97992491D01*
X64868536Y-98060312D01*
X64845998Y-98126447D01*
X64800946Y-98165484D01*
X64792182Y-98169949D01*
X64620213Y-98294890D01*
X64469890Y-98445213D01*
X64344951Y-98617179D01*
X64248444Y-98806585D01*
X64182753Y-99008760D01*
X64165102Y-99120208D01*
X64149500Y-99218713D01*
X64149500Y-99431287D01*
X64157467Y-99481588D01*
X64173832Y-99584916D01*
X64182754Y-99641243D01*
X64220825Y-99758414D01*
X64248444Y-99843414D01*
X64344951Y-100032820D01*
X64469890Y-100204786D01*
X64620213Y-100355109D01*
X64792182Y-100480050D01*
X64800946Y-100484516D01*
X64851742Y-100532491D01*
X64868536Y-100600312D01*
X64845998Y-100666447D01*
X64800946Y-100705484D01*
X64792182Y-100709949D01*
X64620213Y-100834890D01*
X64469890Y-100985213D01*
X64344951Y-101157179D01*
X64248444Y-101346585D01*
X64182753Y-101548760D01*
X64165102Y-101660208D01*
X64149500Y-101758713D01*
X64149500Y-101971287D01*
X64157467Y-102021588D01*
X64181936Y-102176082D01*
X64182754Y-102181243D01*
X64220825Y-102298414D01*
X64248444Y-102383414D01*
X64344951Y-102572820D01*
X64469890Y-102744786D01*
X64620213Y-102895109D01*
X64792182Y-103020050D01*
X64800946Y-103024516D01*
X64851742Y-103072491D01*
X64868536Y-103140312D01*
X64845998Y-103206447D01*
X64800946Y-103245484D01*
X64792182Y-103249949D01*
X64620213Y-103374890D01*
X64469890Y-103525213D01*
X64344951Y-103697179D01*
X64248444Y-103886585D01*
X64182753Y-104088760D01*
X64165102Y-104200208D01*
X64149500Y-104298713D01*
X64149500Y-104511287D01*
X64157467Y-104561588D01*
X64169290Y-104636239D01*
X64182754Y-104721243D01*
X64220825Y-104838414D01*
X64248444Y-104923414D01*
X64344951Y-105112820D01*
X64469890Y-105284786D01*
X64620213Y-105435109D01*
X64792179Y-105560048D01*
X64792181Y-105560049D01*
X64792184Y-105560051D01*
X64981588Y-105656557D01*
X65183757Y-105722246D01*
X65393713Y-105755500D01*
X65393714Y-105755500D01*
X65606286Y-105755500D01*
X65606287Y-105755500D01*
X65816243Y-105722246D01*
X66018412Y-105656557D01*
X66207816Y-105560051D01*
X66285065Y-105503927D01*
X66379786Y-105435109D01*
X66379788Y-105435106D01*
X66379792Y-105435104D01*
X66530104Y-105284792D01*
X66530106Y-105284788D01*
X66530109Y-105284786D01*
X66655048Y-105112820D01*
X66655047Y-105112820D01*
X66655051Y-105112816D01*
X66751557Y-104923412D01*
X66817246Y-104721243D01*
X66850500Y-104511287D01*
X66850500Y-104298713D01*
X66817246Y-104088757D01*
X66751557Y-103886588D01*
X66655051Y-103697184D01*
X66655049Y-103697181D01*
X66655048Y-103697179D01*
X66530109Y-103525213D01*
X66379786Y-103374890D01*
X66207820Y-103249951D01*
X66207115Y-103249591D01*
X66199054Y-103245485D01*
X66148259Y-103197512D01*
X66131463Y-103129692D01*
X66153999Y-103063556D01*
X66199054Y-103024515D01*
X66207816Y-103020051D01*
X66252631Y-102987491D01*
X66379786Y-102895109D01*
X66379788Y-102895106D01*
X66379792Y-102895104D01*
X66530104Y-102744792D01*
X66530106Y-102744788D01*
X66530109Y-102744786D01*
X66655048Y-102572820D01*
X66655047Y-102572820D01*
X66655051Y-102572816D01*
X66751557Y-102383412D01*
X66817246Y-102181243D01*
X66850500Y-101971287D01*
X66850500Y-101758713D01*
X66817246Y-101548757D01*
X66751557Y-101346588D01*
X66655051Y-101157184D01*
X66655049Y-101157181D01*
X66655048Y-101157179D01*
X66530109Y-100985213D01*
X66379786Y-100834890D01*
X66207820Y-100709951D01*
X66207115Y-100709591D01*
X66199054Y-100705485D01*
X66148259Y-100657512D01*
X66131463Y-100589692D01*
X66153999Y-100523556D01*
X66199054Y-100484515D01*
X66207816Y-100480051D01*
X66252631Y-100447491D01*
X66379786Y-100355109D01*
X66379788Y-100355106D01*
X66379792Y-100355104D01*
X66530104Y-100204792D01*
X66530106Y-100204788D01*
X66530109Y-100204786D01*
X66655048Y-100032820D01*
X66655047Y-100032820D01*
X66655051Y-100032816D01*
X66751557Y-99843412D01*
X66817246Y-99641243D01*
X66850500Y-99431287D01*
X66850500Y-99218713D01*
X66817246Y-99008757D01*
X66751557Y-98806588D01*
X66655051Y-98617184D01*
X66655049Y-98617181D01*
X66655048Y-98617179D01*
X66530109Y-98445213D01*
X66379786Y-98294890D01*
X66207820Y-98169951D01*
X66207115Y-98169591D01*
X66199054Y-98165485D01*
X66148259Y-98117512D01*
X66131463Y-98049692D01*
X66153999Y-97983556D01*
X66199054Y-97944515D01*
X66207816Y-97940051D01*
X66252631Y-97907491D01*
X66379786Y-97815109D01*
X66379788Y-97815106D01*
X66379792Y-97815104D01*
X66530104Y-97664792D01*
X66530106Y-97664788D01*
X66530109Y-97664786D01*
X66655048Y-97492820D01*
X66655047Y-97492820D01*
X66655051Y-97492816D01*
X66751557Y-97303412D01*
X66817246Y-97101243D01*
X66850500Y-96891287D01*
X66850500Y-96678713D01*
X66817246Y-96468757D01*
X66751557Y-96266588D01*
X66655051Y-96077184D01*
X66655049Y-96077181D01*
X66655048Y-96077179D01*
X66530109Y-95905213D01*
X66379786Y-95754890D01*
X66207820Y-95629951D01*
X66207115Y-95629591D01*
X66199054Y-95625485D01*
X66148259Y-95577512D01*
X66131463Y-95509692D01*
X66153999Y-95443556D01*
X66199054Y-95404515D01*
X66207816Y-95400051D01*
X66252631Y-95367491D01*
X66379786Y-95275109D01*
X66379788Y-95275106D01*
X66379792Y-95275104D01*
X66530104Y-95124792D01*
X66530106Y-95124788D01*
X66530109Y-95124786D01*
X66655048Y-94952820D01*
X66655047Y-94952820D01*
X66655051Y-94952816D01*
X66751557Y-94763412D01*
X66817246Y-94561243D01*
X66850500Y-94351287D01*
X66850500Y-94138713D01*
X66817246Y-93928757D01*
X66751557Y-93726588D01*
X66655051Y-93537184D01*
X66655049Y-93537181D01*
X66655048Y-93537179D01*
X66530109Y-93365213D01*
X66379786Y-93214890D01*
X66207820Y-93089951D01*
X66207115Y-93089591D01*
X66199054Y-93085485D01*
X66148259Y-93037512D01*
X66131463Y-92969692D01*
X66153999Y-92903556D01*
X66199054Y-92864515D01*
X66207816Y-92860051D01*
X66252631Y-92827491D01*
X66379786Y-92735109D01*
X66379788Y-92735106D01*
X66379792Y-92735104D01*
X66530104Y-92584792D01*
X66530106Y-92584788D01*
X66530109Y-92584786D01*
X66655048Y-92412820D01*
X66655047Y-92412820D01*
X66655051Y-92412816D01*
X66751557Y-92223412D01*
X66817246Y-92021243D01*
X66850500Y-91811287D01*
X66850500Y-91598713D01*
X66817246Y-91388757D01*
X66751557Y-91186588D01*
X66655051Y-90997184D01*
X66655049Y-90997181D01*
X66655048Y-90997179D01*
X66530109Y-90825213D01*
X66379786Y-90674890D01*
X66207820Y-90549951D01*
X66207115Y-90549591D01*
X66199054Y-90545485D01*
X66148259Y-90497512D01*
X66131463Y-90429692D01*
X66153999Y-90363556D01*
X66199054Y-90324515D01*
X66207816Y-90320051D01*
X66252631Y-90287491D01*
X66379786Y-90195109D01*
X66379788Y-90195106D01*
X66379792Y-90195104D01*
X66530104Y-90044792D01*
X66530106Y-90044788D01*
X66530109Y-90044786D01*
X66655048Y-89872820D01*
X66655047Y-89872820D01*
X66655051Y-89872816D01*
X66751557Y-89683412D01*
X66817246Y-89481243D01*
X66850500Y-89271287D01*
X66850500Y-89058713D01*
X66817246Y-88848757D01*
X66751557Y-88646588D01*
X66655051Y-88457184D01*
X66655049Y-88457181D01*
X66655048Y-88457179D01*
X66530109Y-88285213D01*
X66379786Y-88134890D01*
X66207820Y-88009951D01*
X66207115Y-88009591D01*
X66199054Y-88005485D01*
X66148259Y-87957512D01*
X66131463Y-87889692D01*
X66153999Y-87823556D01*
X66199054Y-87784515D01*
X66207816Y-87780051D01*
X66252631Y-87747491D01*
X66379786Y-87655109D01*
X66379788Y-87655106D01*
X66379792Y-87655104D01*
X66530104Y-87504792D01*
X66530106Y-87504788D01*
X66530109Y-87504786D01*
X66655048Y-87332820D01*
X66655047Y-87332820D01*
X66655051Y-87332816D01*
X66751557Y-87143412D01*
X66817246Y-86941243D01*
X66850500Y-86731287D01*
X66850500Y-86518713D01*
X66817246Y-86308757D01*
X66751557Y-86106588D01*
X66655051Y-85917184D01*
X66655049Y-85917181D01*
X66655048Y-85917179D01*
X66530109Y-85745213D01*
X66379786Y-85594890D01*
X66207820Y-85469951D01*
X66207115Y-85469591D01*
X66199054Y-85465485D01*
X66148259Y-85417512D01*
X66131463Y-85349692D01*
X66153999Y-85283556D01*
X66199054Y-85244515D01*
X66207816Y-85240051D01*
X66252631Y-85207491D01*
X66379786Y-85115109D01*
X66379788Y-85115106D01*
X66379792Y-85115104D01*
X66530104Y-84964792D01*
X66530106Y-84964788D01*
X66530109Y-84964786D01*
X66655048Y-84792820D01*
X66655047Y-84792820D01*
X66655051Y-84792816D01*
X66751557Y-84603412D01*
X66817246Y-84401243D01*
X66850500Y-84191287D01*
X66850500Y-83978713D01*
X66817246Y-83768757D01*
X66751557Y-83566588D01*
X66655051Y-83377184D01*
X66655049Y-83377181D01*
X66655048Y-83377179D01*
X66530109Y-83205213D01*
X66379786Y-83054890D01*
X66207820Y-82929951D01*
X66207115Y-82929591D01*
X66199054Y-82925485D01*
X66148259Y-82877512D01*
X66131463Y-82809692D01*
X66153999Y-82743556D01*
X66199054Y-82704515D01*
X66207816Y-82700051D01*
X66252631Y-82667491D01*
X66379786Y-82575109D01*
X66379788Y-82575106D01*
X66379792Y-82575104D01*
X66530104Y-82424792D01*
X66530106Y-82424788D01*
X66530109Y-82424786D01*
X66655048Y-82252820D01*
X66655047Y-82252820D01*
X66655051Y-82252816D01*
X66751557Y-82063412D01*
X66817246Y-81861243D01*
X66850500Y-81651287D01*
X66850500Y-81438713D01*
X66817246Y-81228757D01*
X66751557Y-81026588D01*
X66655051Y-80837184D01*
X66655049Y-80837181D01*
X66655048Y-80837179D01*
X66530109Y-80665213D01*
X66379786Y-80514890D01*
X66207820Y-80389951D01*
X66207115Y-80389591D01*
X66199054Y-80385485D01*
X66148259Y-80337512D01*
X66131463Y-80269692D01*
X66153999Y-80203556D01*
X66199054Y-80164515D01*
X66207816Y-80160051D01*
X66252631Y-80127491D01*
X66379786Y-80035109D01*
X66379788Y-80035106D01*
X66379792Y-80035104D01*
X66530104Y-79884792D01*
X66530106Y-79884788D01*
X66530109Y-79884786D01*
X66655048Y-79712820D01*
X66655047Y-79712820D01*
X66655051Y-79712816D01*
X66751557Y-79523412D01*
X66817246Y-79321243D01*
X66850500Y-79111287D01*
X66850500Y-78898713D01*
X66817246Y-78688757D01*
X66751557Y-78486588D01*
X66655051Y-78297184D01*
X66655049Y-78297181D01*
X66655048Y-78297179D01*
X66530109Y-78125213D01*
X66379786Y-77974890D01*
X66207820Y-77849951D01*
X66207115Y-77849591D01*
X66199054Y-77845485D01*
X66148259Y-77797512D01*
X66131463Y-77729692D01*
X66153999Y-77663556D01*
X66199054Y-77624515D01*
X66207816Y-77620051D01*
X66252631Y-77587491D01*
X66379786Y-77495109D01*
X66379788Y-77495106D01*
X66379792Y-77495104D01*
X66530104Y-77344792D01*
X66530106Y-77344788D01*
X66530109Y-77344786D01*
X66655048Y-77172820D01*
X66655047Y-77172820D01*
X66655051Y-77172816D01*
X66751557Y-76983412D01*
X66817246Y-76781243D01*
X66850500Y-76571287D01*
X66850500Y-76358713D01*
X66817246Y-76148757D01*
X66751557Y-75946588D01*
X66655051Y-75757184D01*
X66655049Y-75757181D01*
X66655048Y-75757179D01*
X66530109Y-75585213D01*
X66379786Y-75434890D01*
X66207820Y-75309951D01*
X66207115Y-75309591D01*
X66199054Y-75305485D01*
X66148259Y-75257512D01*
X66131463Y-75189692D01*
X66153999Y-75123556D01*
X66199054Y-75084515D01*
X66207816Y-75080051D01*
X66252631Y-75047491D01*
X66379786Y-74955109D01*
X66379788Y-74955106D01*
X66379792Y-74955104D01*
X66530104Y-74804792D01*
X66530106Y-74804788D01*
X66530109Y-74804786D01*
X66655048Y-74632820D01*
X66655047Y-74632820D01*
X66655051Y-74632816D01*
X66751557Y-74443412D01*
X66817246Y-74241243D01*
X66850500Y-74031287D01*
X66850500Y-73818713D01*
X66817246Y-73608757D01*
X66751557Y-73406588D01*
X66655051Y-73217184D01*
X66655049Y-73217181D01*
X66655048Y-73217179D01*
X66530109Y-73045213D01*
X66379786Y-72894890D01*
X66207820Y-72769951D01*
X66207115Y-72769591D01*
X66199054Y-72765485D01*
X66148259Y-72717512D01*
X66131463Y-72649692D01*
X66153999Y-72583556D01*
X66199054Y-72544515D01*
X66207816Y-72540051D01*
X66252631Y-72507491D01*
X66379786Y-72415109D01*
X66379788Y-72415106D01*
X66379792Y-72415104D01*
X66530104Y-72264792D01*
X66530106Y-72264788D01*
X66530109Y-72264786D01*
X66655048Y-72092820D01*
X66655047Y-72092820D01*
X66655051Y-72092816D01*
X66751557Y-71903412D01*
X66817246Y-71701243D01*
X66850500Y-71491287D01*
X66850500Y-71278713D01*
X66817246Y-71068757D01*
X66751557Y-70866588D01*
X66655051Y-70677184D01*
X66655049Y-70677181D01*
X66655048Y-70677179D01*
X66530109Y-70505213D01*
X66416569Y-70391673D01*
X66383084Y-70330350D01*
X66388068Y-70260658D01*
X66429940Y-70204725D01*
X66460915Y-70187810D01*
X66592331Y-70138796D01*
X66707546Y-70052546D01*
X66793796Y-69937331D01*
X66844091Y-69802483D01*
X66850500Y-69742873D01*
X66850499Y-67947128D01*
X66844091Y-67887517D01*
X66834624Y-67862135D01*
X71099500Y-67862135D01*
X71099500Y-69657870D01*
X71099501Y-69657876D01*
X71105908Y-69717483D01*
X71156202Y-69852328D01*
X71156206Y-69852335D01*
X71242452Y-69967544D01*
X71242455Y-69967547D01*
X71357664Y-70053793D01*
X71357671Y-70053797D01*
X71489082Y-70102810D01*
X71545016Y-70144681D01*
X71569433Y-70210145D01*
X71554582Y-70278418D01*
X71533431Y-70306673D01*
X71419889Y-70420215D01*
X71294951Y-70592179D01*
X71198444Y-70781585D01*
X71132753Y-70983760D01*
X71117693Y-71078846D01*
X71099500Y-71193713D01*
X71099500Y-71406287D01*
X71132754Y-71616243D01*
X71182627Y-71769737D01*
X71198444Y-71818414D01*
X71294951Y-72007820D01*
X71419890Y-72179786D01*
X71570213Y-72330109D01*
X71742182Y-72455050D01*
X71750946Y-72459516D01*
X71801742Y-72507491D01*
X71818536Y-72575312D01*
X71795998Y-72641447D01*
X71750946Y-72680484D01*
X71742182Y-72684949D01*
X71570213Y-72809890D01*
X71419890Y-72960213D01*
X71294951Y-73132179D01*
X71198444Y-73321585D01*
X71132753Y-73523760D01*
X71099500Y-73733713D01*
X71099500Y-73946286D01*
X71126546Y-74117052D01*
X71132754Y-74156243D01*
X71160372Y-74241243D01*
X71198444Y-74358414D01*
X71294951Y-74547820D01*
X71419890Y-74719786D01*
X71570213Y-74870109D01*
X71742182Y-74995050D01*
X71750946Y-74999516D01*
X71801742Y-75047491D01*
X71818536Y-75115312D01*
X71795998Y-75181447D01*
X71750946Y-75220484D01*
X71742182Y-75224949D01*
X71570213Y-75349890D01*
X71419890Y-75500213D01*
X71294951Y-75672179D01*
X71198444Y-75861585D01*
X71132753Y-76063760D01*
X71105871Y-76233489D01*
X71099500Y-76273713D01*
X71099500Y-76486287D01*
X71103302Y-76510289D01*
X71120961Y-76621789D01*
X71132754Y-76696243D01*
X71166629Y-76800500D01*
X71198444Y-76898414D01*
X71294951Y-77087820D01*
X71419890Y-77259786D01*
X71570213Y-77410109D01*
X71742182Y-77535050D01*
X71750946Y-77539516D01*
X71801742Y-77587491D01*
X71818536Y-77655312D01*
X71795998Y-77721447D01*
X71750946Y-77760484D01*
X71742182Y-77764949D01*
X71570213Y-77889890D01*
X71419890Y-78040213D01*
X71294951Y-78212179D01*
X71198444Y-78401585D01*
X71132753Y-78603760D01*
X71099500Y-78813713D01*
X71099500Y-79026286D01*
X71131502Y-79228343D01*
X71132754Y-79236243D01*
X71175255Y-79367048D01*
X71198444Y-79438414D01*
X71294951Y-79627820D01*
X71419890Y-79799786D01*
X71570213Y-79950109D01*
X71742182Y-80075050D01*
X71750946Y-80079516D01*
X71801742Y-80127491D01*
X71818536Y-80195312D01*
X71795998Y-80261447D01*
X71750946Y-80300484D01*
X71742182Y-80304949D01*
X71570213Y-80429890D01*
X71419890Y-80580213D01*
X71294951Y-80752179D01*
X71198444Y-80941585D01*
X71132753Y-81143760D01*
X71099500Y-81353713D01*
X71099500Y-81566286D01*
X71125983Y-81733497D01*
X71132754Y-81776243D01*
X71160372Y-81861243D01*
X71198444Y-81978414D01*
X71294951Y-82167820D01*
X71419890Y-82339786D01*
X71570213Y-82490109D01*
X71742182Y-82615050D01*
X71750946Y-82619516D01*
X71801742Y-82667491D01*
X71818536Y-82735312D01*
X71795998Y-82801447D01*
X71750946Y-82840484D01*
X71742182Y-82844949D01*
X71570213Y-82969890D01*
X71419890Y-83120213D01*
X71294951Y-83292179D01*
X71198444Y-83481585D01*
X71132753Y-83683760D01*
X71099500Y-83893713D01*
X71099500Y-84106286D01*
X71126750Y-84278340D01*
X71132754Y-84316243D01*
X71160372Y-84401243D01*
X71198444Y-84518414D01*
X71294951Y-84707820D01*
X71419890Y-84879786D01*
X71570213Y-85030109D01*
X71742182Y-85155050D01*
X71750946Y-85159516D01*
X71801742Y-85207491D01*
X71818536Y-85275312D01*
X71795998Y-85341447D01*
X71750946Y-85380484D01*
X71742182Y-85384949D01*
X71570213Y-85509890D01*
X71419890Y-85660213D01*
X71294951Y-85832179D01*
X71198444Y-86021585D01*
X71132753Y-86223760D01*
X71116109Y-86328846D01*
X71099500Y-86433713D01*
X71099500Y-86646287D01*
X71132754Y-86856243D01*
X71195872Y-87050500D01*
X71198444Y-87058414D01*
X71294951Y-87247820D01*
X71419890Y-87419786D01*
X71570213Y-87570109D01*
X71742182Y-87695050D01*
X71750946Y-87699516D01*
X71801742Y-87747491D01*
X71818536Y-87815312D01*
X71795998Y-87881447D01*
X71750946Y-87920484D01*
X71742182Y-87924949D01*
X71570213Y-88049890D01*
X71419890Y-88200213D01*
X71294951Y-88372179D01*
X71198444Y-88561585D01*
X71132753Y-88763760D01*
X71099500Y-88973713D01*
X71099500Y-89186286D01*
X71128130Y-89367052D01*
X71132754Y-89396243D01*
X71160372Y-89481243D01*
X71198444Y-89598414D01*
X71294951Y-89787820D01*
X71419890Y-89959786D01*
X71570213Y-90110109D01*
X71742182Y-90235050D01*
X71750946Y-90239516D01*
X71801742Y-90287491D01*
X71818536Y-90355312D01*
X71795998Y-90421447D01*
X71750946Y-90460484D01*
X71742182Y-90464949D01*
X71570213Y-90589890D01*
X71419890Y-90740213D01*
X71294951Y-90912179D01*
X71198444Y-91101585D01*
X71132753Y-91303760D01*
X71099500Y-91513713D01*
X71099500Y-91726286D01*
X71123562Y-91878211D01*
X71132754Y-91936243D01*
X71192729Y-92120827D01*
X71198444Y-92138414D01*
X71294951Y-92327820D01*
X71419890Y-92499786D01*
X71570213Y-92650109D01*
X71742182Y-92775050D01*
X71750946Y-92779516D01*
X71801742Y-92827491D01*
X71818536Y-92895312D01*
X71795998Y-92961447D01*
X71750946Y-93000484D01*
X71742182Y-93004949D01*
X71570213Y-93129890D01*
X71419890Y-93280213D01*
X71294951Y-93452179D01*
X71198444Y-93641585D01*
X71132753Y-93843760D01*
X71101639Y-94040208D01*
X71099500Y-94053713D01*
X71099500Y-94266287D01*
X71132754Y-94476243D01*
X71178504Y-94617047D01*
X71198444Y-94678414D01*
X71294951Y-94867820D01*
X71419890Y-95039786D01*
X71570213Y-95190109D01*
X71742182Y-95315050D01*
X71750946Y-95319516D01*
X71801742Y-95367491D01*
X71818536Y-95435312D01*
X71795998Y-95501447D01*
X71750946Y-95540484D01*
X71742182Y-95544949D01*
X71570213Y-95669890D01*
X71419890Y-95820213D01*
X71294951Y-95992179D01*
X71198444Y-96181585D01*
X71132753Y-96383760D01*
X71115973Y-96489707D01*
X71099500Y-96593713D01*
X71099500Y-96806287D01*
X71132754Y-97016243D01*
X71160372Y-97101243D01*
X71198444Y-97218414D01*
X71294951Y-97407820D01*
X71419890Y-97579786D01*
X71570213Y-97730109D01*
X71742182Y-97855050D01*
X71750946Y-97859516D01*
X71801742Y-97907491D01*
X71818536Y-97975312D01*
X71795998Y-98041447D01*
X71750946Y-98080484D01*
X71742182Y-98084949D01*
X71570213Y-98209890D01*
X71419890Y-98360213D01*
X71294951Y-98532179D01*
X71198444Y-98721585D01*
X71132753Y-98923760D01*
X71099500Y-99133713D01*
X71099500Y-99346286D01*
X71128334Y-99528340D01*
X71132754Y-99556243D01*
X71160372Y-99641243D01*
X71198444Y-99758414D01*
X71294951Y-99947820D01*
X71419890Y-100119786D01*
X71570213Y-100270109D01*
X71742182Y-100395050D01*
X71750946Y-100399516D01*
X71801742Y-100447491D01*
X71818536Y-100515312D01*
X71795998Y-100581447D01*
X71750946Y-100620484D01*
X71742182Y-100624949D01*
X71570213Y-100749890D01*
X71419890Y-100900213D01*
X71294951Y-101072179D01*
X71198444Y-101261585D01*
X71132753Y-101463760D01*
X71101639Y-101660208D01*
X71099500Y-101673713D01*
X71099500Y-101886287D01*
X71132754Y-102096243D01*
X71160372Y-102181243D01*
X71198444Y-102298414D01*
X71294951Y-102487820D01*
X71419890Y-102659786D01*
X71570213Y-102810109D01*
X71742182Y-102935050D01*
X71750946Y-102939516D01*
X71801742Y-102987491D01*
X71818536Y-103055312D01*
X71795998Y-103121447D01*
X71750946Y-103160484D01*
X71742182Y-103164949D01*
X71570213Y-103289890D01*
X71419890Y-103440213D01*
X71294951Y-103612179D01*
X71198444Y-103801585D01*
X71132753Y-104003760D01*
X71099500Y-104213713D01*
X71099500Y-104426286D01*
X71127977Y-104606086D01*
X71132754Y-104636243D01*
X71160372Y-104721243D01*
X71198444Y-104838414D01*
X71294951Y-105027820D01*
X71419890Y-105199786D01*
X71570213Y-105350109D01*
X71742179Y-105475048D01*
X71742181Y-105475049D01*
X71742184Y-105475051D01*
X71931588Y-105571557D01*
X72133757Y-105637246D01*
X72343713Y-105670500D01*
X72343714Y-105670500D01*
X72556286Y-105670500D01*
X72556287Y-105670500D01*
X72766243Y-105637246D01*
X72968412Y-105571557D01*
X73157816Y-105475051D01*
X73266287Y-105396243D01*
X73329786Y-105350109D01*
X73329788Y-105350106D01*
X73329792Y-105350104D01*
X73480104Y-105199792D01*
X73480106Y-105199788D01*
X73480109Y-105199786D01*
X73605048Y-105027820D01*
X73605047Y-105027820D01*
X73605051Y-105027816D01*
X73701557Y-104838412D01*
X73767246Y-104636243D01*
X73800500Y-104426287D01*
X73800500Y-104213713D01*
X73767246Y-104003757D01*
X73701557Y-103801588D01*
X73605051Y-103612184D01*
X73605049Y-103612181D01*
X73605048Y-103612179D01*
X73480109Y-103440213D01*
X73329786Y-103289890D01*
X73157820Y-103164951D01*
X73157115Y-103164591D01*
X73149054Y-103160485D01*
X73098259Y-103112512D01*
X73081463Y-103044692D01*
X73103999Y-102978556D01*
X73149054Y-102939515D01*
X73157816Y-102935051D01*
X73212799Y-102895104D01*
X73329786Y-102810109D01*
X73329788Y-102810106D01*
X73329792Y-102810104D01*
X73480104Y-102659792D01*
X73480106Y-102659788D01*
X73480109Y-102659786D01*
X73605048Y-102487820D01*
X73605047Y-102487820D01*
X73605051Y-102487816D01*
X73701557Y-102298412D01*
X73767246Y-102096243D01*
X73800500Y-101886287D01*
X73800500Y-101673713D01*
X73767246Y-101463757D01*
X73701557Y-101261588D01*
X73605051Y-101072184D01*
X73605049Y-101072181D01*
X73605048Y-101072179D01*
X73480109Y-100900213D01*
X73329786Y-100749890D01*
X73157820Y-100624951D01*
X73157115Y-100624591D01*
X73149054Y-100620485D01*
X73098259Y-100572512D01*
X73081463Y-100504692D01*
X73103999Y-100438556D01*
X73149054Y-100399515D01*
X73157816Y-100395051D01*
X73266287Y-100316243D01*
X73329786Y-100270109D01*
X73329788Y-100270106D01*
X73329792Y-100270104D01*
X73480104Y-100119792D01*
X73480106Y-100119788D01*
X73480109Y-100119786D01*
X73605048Y-99947820D01*
X73605047Y-99947820D01*
X73605051Y-99947816D01*
X73701557Y-99758412D01*
X73767246Y-99556243D01*
X73800500Y-99346287D01*
X73800500Y-99133713D01*
X73767246Y-98923757D01*
X73701557Y-98721588D01*
X73605051Y-98532184D01*
X73605049Y-98532181D01*
X73605048Y-98532179D01*
X73480109Y-98360213D01*
X73329786Y-98209890D01*
X73157820Y-98084951D01*
X73157115Y-98084591D01*
X73149054Y-98080485D01*
X73098259Y-98032512D01*
X73081463Y-97964692D01*
X73103999Y-97898556D01*
X73149054Y-97859515D01*
X73157816Y-97855051D01*
X73266287Y-97776243D01*
X73329786Y-97730109D01*
X73329788Y-97730106D01*
X73329792Y-97730104D01*
X73480104Y-97579792D01*
X73480106Y-97579788D01*
X73480109Y-97579786D01*
X73605048Y-97407820D01*
X73605047Y-97407820D01*
X73605051Y-97407816D01*
X73701557Y-97218412D01*
X73767246Y-97016243D01*
X73800500Y-96806287D01*
X73800500Y-96593713D01*
X73767246Y-96383757D01*
X73701557Y-96181588D01*
X73605051Y-95992184D01*
X73605049Y-95992181D01*
X73605048Y-95992179D01*
X73480109Y-95820213D01*
X73329786Y-95669890D01*
X73157820Y-95544951D01*
X73157115Y-95544591D01*
X73149054Y-95540485D01*
X73098259Y-95492512D01*
X73081463Y-95424692D01*
X73103999Y-95358556D01*
X73149054Y-95319515D01*
X73157816Y-95315051D01*
X73266287Y-95236243D01*
X73329786Y-95190109D01*
X73329788Y-95190106D01*
X73329792Y-95190104D01*
X73480104Y-95039792D01*
X73480106Y-95039788D01*
X73480109Y-95039786D01*
X73605048Y-94867820D01*
X73605047Y-94867820D01*
X73605051Y-94867816D01*
X73701557Y-94678412D01*
X73767246Y-94476243D01*
X73800500Y-94266287D01*
X73800500Y-94053713D01*
X73767246Y-93843757D01*
X73701557Y-93641588D01*
X73605051Y-93452184D01*
X73605049Y-93452181D01*
X73605048Y-93452179D01*
X73480109Y-93280213D01*
X73329786Y-93129890D01*
X73157820Y-93004951D01*
X73157115Y-93004591D01*
X73149054Y-93000485D01*
X73098259Y-92952512D01*
X73081463Y-92884692D01*
X73103999Y-92818556D01*
X73149054Y-92779515D01*
X73157816Y-92775051D01*
X73266287Y-92696243D01*
X73329786Y-92650109D01*
X73329788Y-92650106D01*
X73329792Y-92650104D01*
X73480104Y-92499792D01*
X73480106Y-92499788D01*
X73480109Y-92499786D01*
X73605048Y-92327820D01*
X73605047Y-92327820D01*
X73605051Y-92327816D01*
X73701557Y-92138412D01*
X73767246Y-91936243D01*
X73800500Y-91726287D01*
X73800500Y-91513713D01*
X73767246Y-91303757D01*
X73701557Y-91101588D01*
X73605051Y-90912184D01*
X73605049Y-90912181D01*
X73605048Y-90912179D01*
X73480109Y-90740213D01*
X73329786Y-90589890D01*
X73157820Y-90464951D01*
X73157115Y-90464591D01*
X73149054Y-90460485D01*
X73098259Y-90412512D01*
X73081463Y-90344692D01*
X73103999Y-90278556D01*
X73149054Y-90239515D01*
X73157816Y-90235051D01*
X73266287Y-90156243D01*
X73329786Y-90110109D01*
X73329788Y-90110106D01*
X73329792Y-90110104D01*
X73480104Y-89959792D01*
X73480106Y-89959788D01*
X73480109Y-89959786D01*
X73605048Y-89787820D01*
X73605047Y-89787820D01*
X73605051Y-89787816D01*
X73701557Y-89598412D01*
X73767246Y-89396243D01*
X73800500Y-89186287D01*
X73800500Y-88973713D01*
X73767246Y-88763757D01*
X73701557Y-88561588D01*
X73605051Y-88372184D01*
X73605049Y-88372181D01*
X73605048Y-88372179D01*
X73480109Y-88200213D01*
X73329786Y-88049890D01*
X73157820Y-87924951D01*
X73157115Y-87924591D01*
X73149054Y-87920485D01*
X73098259Y-87872512D01*
X73081463Y-87804692D01*
X73103999Y-87738556D01*
X73149054Y-87699515D01*
X73157816Y-87695051D01*
X73266287Y-87616243D01*
X73329786Y-87570109D01*
X73329788Y-87570106D01*
X73329792Y-87570104D01*
X73480104Y-87419792D01*
X73480106Y-87419788D01*
X73480109Y-87419786D01*
X73605048Y-87247820D01*
X73605047Y-87247820D01*
X73605051Y-87247816D01*
X73701557Y-87058412D01*
X73767246Y-86856243D01*
X73800500Y-86646287D01*
X73800500Y-86433713D01*
X73767246Y-86223757D01*
X73701557Y-86021588D01*
X73605051Y-85832184D01*
X73605049Y-85832181D01*
X73605048Y-85832179D01*
X73480109Y-85660213D01*
X73329786Y-85509890D01*
X73157820Y-85384951D01*
X73157115Y-85384591D01*
X73149054Y-85380485D01*
X73098259Y-85332512D01*
X73081463Y-85264692D01*
X73103999Y-85198556D01*
X73149054Y-85159515D01*
X73157816Y-85155051D01*
X73262704Y-85078846D01*
X73329786Y-85030109D01*
X73329788Y-85030106D01*
X73329792Y-85030104D01*
X73480104Y-84879792D01*
X73480106Y-84879788D01*
X73480109Y-84879786D01*
X73605048Y-84707820D01*
X73605047Y-84707820D01*
X73605051Y-84707816D01*
X73701557Y-84518412D01*
X73767246Y-84316243D01*
X73800500Y-84106287D01*
X73800500Y-83893713D01*
X73767246Y-83683757D01*
X73701557Y-83481588D01*
X73605051Y-83292184D01*
X73605049Y-83292181D01*
X73605048Y-83292179D01*
X73480109Y-83120213D01*
X73329786Y-82969890D01*
X73157820Y-82844951D01*
X73157115Y-82844591D01*
X73149054Y-82840485D01*
X73098259Y-82792512D01*
X73081463Y-82724692D01*
X73103999Y-82658556D01*
X73149054Y-82619515D01*
X73157816Y-82615051D01*
X73266287Y-82536243D01*
X73329786Y-82490109D01*
X73329788Y-82490106D01*
X73329792Y-82490104D01*
X73480104Y-82339792D01*
X73480106Y-82339788D01*
X73480109Y-82339786D01*
X73605048Y-82167820D01*
X73605047Y-82167820D01*
X73605051Y-82167816D01*
X73701557Y-81978412D01*
X73767246Y-81776243D01*
X73800500Y-81566287D01*
X73800500Y-81353713D01*
X73767246Y-81143757D01*
X73701557Y-80941588D01*
X73605051Y-80752184D01*
X73605049Y-80752181D01*
X73605048Y-80752179D01*
X73480109Y-80580213D01*
X73329786Y-80429890D01*
X73157820Y-80304951D01*
X73157115Y-80304591D01*
X73149054Y-80300485D01*
X73098259Y-80252512D01*
X73081463Y-80184692D01*
X73103999Y-80118556D01*
X73149054Y-80079515D01*
X73157816Y-80075051D01*
X73266287Y-79996243D01*
X73329786Y-79950109D01*
X73329788Y-79950106D01*
X73329792Y-79950104D01*
X73480104Y-79799792D01*
X73480106Y-79799788D01*
X73480109Y-79799786D01*
X73605048Y-79627820D01*
X73605047Y-79627820D01*
X73605051Y-79627816D01*
X73701557Y-79438412D01*
X73767246Y-79236243D01*
X73800500Y-79026287D01*
X73800500Y-78813713D01*
X73767246Y-78603757D01*
X73701557Y-78401588D01*
X73605051Y-78212184D01*
X73605049Y-78212181D01*
X73605048Y-78212179D01*
X73480109Y-78040213D01*
X73329786Y-77889890D01*
X73157820Y-77764951D01*
X73157115Y-77764591D01*
X73149054Y-77760485D01*
X73098259Y-77712512D01*
X73081463Y-77644692D01*
X73103999Y-77578556D01*
X73149054Y-77539515D01*
X73157816Y-77535051D01*
X73266287Y-77456243D01*
X73329786Y-77410109D01*
X73329788Y-77410106D01*
X73329792Y-77410104D01*
X73480104Y-77259792D01*
X73480106Y-77259788D01*
X73480109Y-77259786D01*
X73605048Y-77087820D01*
X73605047Y-77087820D01*
X73605051Y-77087816D01*
X73701557Y-76898412D01*
X73767246Y-76696243D01*
X73800500Y-76486287D01*
X73800500Y-76273713D01*
X73767246Y-76063757D01*
X73701557Y-75861588D01*
X73605051Y-75672184D01*
X73605049Y-75672181D01*
X73605048Y-75672179D01*
X73480109Y-75500213D01*
X73329786Y-75349890D01*
X73157820Y-75224951D01*
X73157115Y-75224591D01*
X73149054Y-75220485D01*
X73098259Y-75172512D01*
X73081463Y-75104692D01*
X73103999Y-75038556D01*
X73149054Y-74999515D01*
X73157816Y-74995051D01*
X73266287Y-74916243D01*
X73329786Y-74870109D01*
X73329788Y-74870106D01*
X73329792Y-74870104D01*
X73480104Y-74719792D01*
X73480106Y-74719788D01*
X73480109Y-74719786D01*
X73605048Y-74547820D01*
X73605047Y-74547820D01*
X73605051Y-74547816D01*
X73701557Y-74358412D01*
X73767246Y-74156243D01*
X73800500Y-73946287D01*
X73800500Y-73733713D01*
X73767246Y-73523757D01*
X73701557Y-73321588D01*
X73605051Y-73132184D01*
X73605049Y-73132181D01*
X73605048Y-73132179D01*
X73480109Y-72960213D01*
X73329786Y-72809890D01*
X73157820Y-72684951D01*
X73157115Y-72684591D01*
X73149054Y-72680485D01*
X73098259Y-72632512D01*
X73081463Y-72564692D01*
X73103999Y-72498556D01*
X73149054Y-72459515D01*
X73157816Y-72455051D01*
X73266287Y-72376243D01*
X73329786Y-72330109D01*
X73329788Y-72330106D01*
X73329792Y-72330104D01*
X73480104Y-72179792D01*
X73480106Y-72179788D01*
X73480109Y-72179786D01*
X73605048Y-72007820D01*
X73605047Y-72007820D01*
X73605051Y-72007816D01*
X73701557Y-71818412D01*
X73767246Y-71616243D01*
X73800500Y-71406287D01*
X73800500Y-71193713D01*
X73767246Y-70983757D01*
X73701557Y-70781588D01*
X73605051Y-70592184D01*
X73605049Y-70592181D01*
X73605048Y-70592179D01*
X73480109Y-70420213D01*
X73366569Y-70306673D01*
X73333084Y-70245350D01*
X73338068Y-70175658D01*
X73379940Y-70119725D01*
X73410915Y-70102810D01*
X73542331Y-70053796D01*
X73657546Y-69967546D01*
X73743796Y-69852331D01*
X73794091Y-69717483D01*
X73799072Y-69671158D01*
X81449500Y-69671158D01*
X81449500Y-69828842D01*
X81450593Y-69834338D01*
X81450593Y-69834342D01*
X81480261Y-69983489D01*
X81480263Y-69983497D01*
X81490061Y-70007151D01*
X81499500Y-70054604D01*
X81499500Y-74395396D01*
X81490062Y-74442844D01*
X81489827Y-74443414D01*
X81480262Y-74466506D01*
X81480260Y-74466511D01*
X81449500Y-74621153D01*
X81449500Y-85078846D01*
X81480261Y-85233489D01*
X81480263Y-85233497D01*
X81490061Y-85257151D01*
X81499500Y-85304604D01*
X81499500Y-89645396D01*
X81490062Y-89692844D01*
X81480263Y-89716503D01*
X81480262Y-89716506D01*
X81480260Y-89716511D01*
X81449500Y-89871153D01*
X81449500Y-95328846D01*
X81480261Y-95483489D01*
X81480263Y-95483497D01*
X81490061Y-95507151D01*
X81499500Y-95554604D01*
X81499500Y-99945396D01*
X81490062Y-99992844D01*
X81480263Y-100016503D01*
X81480262Y-100016506D01*
X81480260Y-100016511D01*
X81449500Y-100171153D01*
X81449500Y-100328846D01*
X81480261Y-100483489D01*
X81480263Y-100483497D01*
X81490061Y-100507151D01*
X81499500Y-100554604D01*
X81499500Y-104945396D01*
X81490062Y-104992844D01*
X81480263Y-105016503D01*
X81480262Y-105016506D01*
X81480260Y-105016511D01*
X81449500Y-105171153D01*
X81449500Y-105328846D01*
X81478582Y-105475048D01*
X81480263Y-105483497D01*
X81488725Y-105503927D01*
X81490061Y-105507151D01*
X81499500Y-105554604D01*
X81499500Y-105823918D01*
X81499500Y-105823920D01*
X81499499Y-105823920D01*
X81528340Y-105968907D01*
X81528342Y-105968913D01*
X81551670Y-106025233D01*
X81584916Y-106105494D01*
X81584918Y-106105499D01*
X81587990Y-106110095D01*
X81587993Y-106110105D01*
X81587996Y-106110104D01*
X81656200Y-106212181D01*
X81667051Y-106228420D01*
X81667052Y-106228421D01*
X88253926Y-112815293D01*
X88280805Y-112855519D01*
X88290603Y-112879172D01*
X88290606Y-112879178D01*
X88290609Y-112879185D01*
X88378210Y-113010288D01*
X88378213Y-113010292D01*
X88489707Y-113121786D01*
X88489711Y-113121789D01*
X88620814Y-113209390D01*
X88620827Y-113209397D01*
X88766498Y-113269735D01*
X88766503Y-113269737D01*
X88921153Y-113300499D01*
X88921156Y-113300500D01*
X88921158Y-113300500D01*
X89078844Y-113300500D01*
X89078845Y-113300499D01*
X89233497Y-113269737D01*
X89357403Y-113218414D01*
X89379172Y-113209397D01*
X89379172Y-113209396D01*
X89379179Y-113209394D01*
X89510289Y-113121789D01*
X89621789Y-113010289D01*
X89709394Y-112879179D01*
X89769737Y-112733497D01*
X89800500Y-112578842D01*
X89800500Y-112421158D01*
X89800500Y-112421155D01*
X89800499Y-112421153D01*
X89769738Y-112266510D01*
X89769737Y-112266503D01*
X89734645Y-112181782D01*
X89709397Y-112120827D01*
X89709390Y-112120814D01*
X89621789Y-111989711D01*
X89621786Y-111989707D01*
X89510292Y-111878213D01*
X89510288Y-111878210D01*
X89379185Y-111790609D01*
X89379180Y-111790607D01*
X89379179Y-111790606D01*
X89355519Y-111780805D01*
X89315293Y-111753926D01*
X83773549Y-106212181D01*
X83740064Y-106150858D01*
X83745048Y-106081166D01*
X83786920Y-106025233D01*
X83852384Y-106000816D01*
X83861230Y-106000500D01*
X86137770Y-106000500D01*
X86204809Y-106020185D01*
X86225451Y-106036819D01*
X86753927Y-106565295D01*
X86780806Y-106605521D01*
X86790606Y-106629179D01*
X86790607Y-106629181D01*
X86878207Y-106760284D01*
X86878213Y-106760292D01*
X86989707Y-106871786D01*
X86989711Y-106871789D01*
X87120814Y-106959390D01*
X87120827Y-106959397D01*
X87266498Y-107019735D01*
X87266503Y-107019737D01*
X87421153Y-107050499D01*
X87421156Y-107050500D01*
X87421158Y-107050500D01*
X87578844Y-107050500D01*
X87578845Y-107050499D01*
X87733497Y-107019737D01*
X87879179Y-106959394D01*
X88010289Y-106871789D01*
X88121789Y-106760289D01*
X88209394Y-106629179D01*
X88269737Y-106483497D01*
X88300500Y-106328842D01*
X88300500Y-106171158D01*
X88300500Y-106171155D01*
X88300499Y-106171153D01*
X88296462Y-106150858D01*
X88269737Y-106016503D01*
X88263239Y-106000816D01*
X88209397Y-105870827D01*
X88209390Y-105870814D01*
X88121789Y-105739711D01*
X88121786Y-105739707D01*
X88010292Y-105628213D01*
X88010284Y-105628207D01*
X87879181Y-105540607D01*
X87879179Y-105540606D01*
X87855521Y-105530806D01*
X87815295Y-105503927D01*
X86978421Y-104667052D01*
X86978420Y-104667051D01*
X86887178Y-104606086D01*
X86855495Y-104584916D01*
X86855488Y-104584912D01*
X86718917Y-104528343D01*
X86718907Y-104528340D01*
X86573920Y-104499500D01*
X86573918Y-104499500D01*
X83124500Y-104499500D01*
X83057461Y-104479815D01*
X83011706Y-104427011D01*
X83000500Y-104375500D01*
X83000500Y-101124500D01*
X83020185Y-101057461D01*
X83072989Y-101011706D01*
X83124500Y-101000500D01*
X85137770Y-101000500D01*
X85204809Y-101020185D01*
X85225451Y-101036819D01*
X86663181Y-102474548D01*
X86696666Y-102535871D01*
X86699500Y-102562229D01*
X86699500Y-102578846D01*
X86730261Y-102733489D01*
X86730264Y-102733501D01*
X86790602Y-102879172D01*
X86790609Y-102879185D01*
X86878210Y-103010288D01*
X86878213Y-103010292D01*
X86989707Y-103121786D01*
X86989711Y-103121789D01*
X87120814Y-103209390D01*
X87120827Y-103209397D01*
X87266498Y-103269735D01*
X87266503Y-103269737D01*
X87421153Y-103300499D01*
X87421156Y-103300500D01*
X87421158Y-103300500D01*
X87578844Y-103300500D01*
X87578845Y-103300499D01*
X87733497Y-103269737D01*
X87879179Y-103209394D01*
X88010289Y-103121789D01*
X88121789Y-103010289D01*
X88209394Y-102879179D01*
X88269737Y-102733497D01*
X88300500Y-102578842D01*
X88300500Y-102421158D01*
X88300500Y-102421155D01*
X88300499Y-102421153D01*
X88269739Y-102266511D01*
X88269738Y-102266508D01*
X88269737Y-102266503D01*
X88259937Y-102242844D01*
X88250500Y-102195396D01*
X88250500Y-102176079D01*
X88221659Y-102031092D01*
X88221658Y-102031091D01*
X88221658Y-102031087D01*
X88196888Y-101971286D01*
X88165087Y-101894511D01*
X88165080Y-101894498D01*
X88082952Y-101771585D01*
X88070080Y-101758713D01*
X87978416Y-101667049D01*
X85978416Y-99667048D01*
X85978415Y-99667047D01*
X85978413Y-99667045D01*
X85933325Y-99636920D01*
X85903265Y-99616835D01*
X85855495Y-99584916D01*
X85855488Y-99584912D01*
X85718917Y-99528343D01*
X85718907Y-99528340D01*
X85573920Y-99499500D01*
X85573918Y-99499500D01*
X83124500Y-99499500D01*
X83057461Y-99479815D01*
X83011706Y-99427011D01*
X83000500Y-99375500D01*
X83000500Y-96124500D01*
X83020185Y-96057461D01*
X83072989Y-96011706D01*
X83124500Y-96000500D01*
X88637770Y-96000500D01*
X88704809Y-96020185D01*
X88725451Y-96036819D01*
X90003927Y-97315295D01*
X90030807Y-97355523D01*
X90040604Y-97379175D01*
X90040609Y-97379185D01*
X90128210Y-97510288D01*
X90128213Y-97510292D01*
X90239707Y-97621786D01*
X90239711Y-97621789D01*
X90370814Y-97709390D01*
X90370827Y-97709397D01*
X90516498Y-97769735D01*
X90516503Y-97769737D01*
X90671153Y-97800499D01*
X90671156Y-97800500D01*
X90671158Y-97800500D01*
X90828844Y-97800500D01*
X90828845Y-97800499D01*
X90983497Y-97769737D01*
X91129179Y-97709394D01*
X91260289Y-97621789D01*
X91371789Y-97510289D01*
X91459394Y-97379179D01*
X91519737Y-97233497D01*
X91550500Y-97078842D01*
X91550500Y-96921158D01*
X91550500Y-96921155D01*
X91550499Y-96921153D01*
X91544558Y-96891286D01*
X91519737Y-96766503D01*
X91513804Y-96752179D01*
X91459397Y-96620827D01*
X91459390Y-96620814D01*
X91371789Y-96489711D01*
X91371786Y-96489707D01*
X91260292Y-96378213D01*
X91260288Y-96378210D01*
X91129185Y-96290609D01*
X91129175Y-96290604D01*
X91105523Y-96280807D01*
X91065295Y-96253927D01*
X89478421Y-94667052D01*
X89478420Y-94667051D01*
X89403584Y-94617048D01*
X89403583Y-94617047D01*
X89355501Y-94584919D01*
X89355488Y-94584912D01*
X89218917Y-94528343D01*
X89218907Y-94528340D01*
X89073920Y-94499500D01*
X89073918Y-94499500D01*
X83074500Y-94499500D01*
X83007461Y-94479815D01*
X82961706Y-94427011D01*
X82950500Y-94375500D01*
X82950500Y-90824500D01*
X82970185Y-90757461D01*
X83022989Y-90711706D01*
X83074500Y-90700500D01*
X88337770Y-90700500D01*
X88404809Y-90720185D01*
X88425451Y-90736819D01*
X90503926Y-92815293D01*
X90530805Y-92855519D01*
X90540603Y-92879172D01*
X90540606Y-92879178D01*
X90540609Y-92879185D01*
X90628210Y-93010288D01*
X90628213Y-93010292D01*
X90739707Y-93121786D01*
X90739711Y-93121789D01*
X90870814Y-93209390D01*
X90870827Y-93209397D01*
X90992479Y-93259786D01*
X91016503Y-93269737D01*
X91171153Y-93300499D01*
X91171156Y-93300500D01*
X91171158Y-93300500D01*
X91328844Y-93300500D01*
X91328845Y-93300499D01*
X91483497Y-93269737D01*
X91615896Y-93214896D01*
X91629172Y-93209397D01*
X91629172Y-93209396D01*
X91629179Y-93209394D01*
X91760289Y-93121789D01*
X91871789Y-93010289D01*
X91959394Y-92879179D01*
X92019737Y-92733497D01*
X92050500Y-92578842D01*
X92050500Y-92421158D01*
X92050500Y-92421155D01*
X92050499Y-92421153D01*
X92019738Y-92266510D01*
X92019737Y-92266503D01*
X92001888Y-92223412D01*
X91959397Y-92120827D01*
X91959390Y-92120814D01*
X91871789Y-91989711D01*
X91871786Y-91989707D01*
X91760292Y-91878213D01*
X91760288Y-91878210D01*
X91629185Y-91790609D01*
X91629180Y-91790607D01*
X91629179Y-91790606D01*
X91605519Y-91780805D01*
X91565293Y-91753926D01*
X89178421Y-89367052D01*
X89178420Y-89367051D01*
X89103584Y-89317048D01*
X89103583Y-89317047D01*
X89055501Y-89284919D01*
X89055488Y-89284912D01*
X88918917Y-89228343D01*
X88918907Y-89228340D01*
X88773920Y-89199500D01*
X88773918Y-89199500D01*
X83124500Y-89199500D01*
X83057461Y-89179815D01*
X83011706Y-89127011D01*
X83000500Y-89075500D01*
X83000500Y-85874500D01*
X83020185Y-85807461D01*
X83072989Y-85761706D01*
X83124500Y-85750500D01*
X89637770Y-85750500D01*
X89704809Y-85770185D01*
X89725451Y-85786819D01*
X90503927Y-86565295D01*
X90530807Y-86605523D01*
X90540604Y-86629175D01*
X90540609Y-86629185D01*
X90628210Y-86760288D01*
X90628213Y-86760292D01*
X90739707Y-86871786D01*
X90739711Y-86871789D01*
X90870814Y-86959390D01*
X90870827Y-86959397D01*
X91016498Y-87019735D01*
X91016503Y-87019737D01*
X91171153Y-87050499D01*
X91171156Y-87050500D01*
X91171158Y-87050500D01*
X91328844Y-87050500D01*
X91328845Y-87050499D01*
X91483497Y-87019737D01*
X91629179Y-86959394D01*
X91760289Y-86871789D01*
X91871789Y-86760289D01*
X91959394Y-86629179D01*
X92019737Y-86483497D01*
X92050500Y-86328842D01*
X92050500Y-86171158D01*
X92050500Y-86171155D01*
X92050499Y-86171153D01*
X92044399Y-86140486D01*
X92019737Y-86016503D01*
X91979564Y-85919516D01*
X91959397Y-85870827D01*
X91959390Y-85870814D01*
X91871789Y-85739711D01*
X91871786Y-85739707D01*
X91760292Y-85628213D01*
X91760288Y-85628210D01*
X91629185Y-85540609D01*
X91629175Y-85540604D01*
X91605523Y-85530807D01*
X91565295Y-85503927D01*
X90478421Y-84417052D01*
X90478420Y-84417051D01*
X90454761Y-84401243D01*
X90403584Y-84367048D01*
X90403583Y-84367047D01*
X90355501Y-84334919D01*
X90355488Y-84334912D01*
X90218917Y-84278343D01*
X90218907Y-84278340D01*
X90073920Y-84249500D01*
X90073918Y-84249500D01*
X83074500Y-84249500D01*
X83007461Y-84229815D01*
X82961706Y-84177011D01*
X82950500Y-84125500D01*
X82950500Y-80824500D01*
X82970185Y-80757461D01*
X83022989Y-80711706D01*
X83074500Y-80700500D01*
X89337770Y-80700500D01*
X89404809Y-80720185D01*
X89425451Y-80736819D01*
X90503927Y-81815295D01*
X90530807Y-81855523D01*
X90540604Y-81879175D01*
X90540609Y-81879185D01*
X90628210Y-82010288D01*
X90628213Y-82010292D01*
X90739707Y-82121786D01*
X90739711Y-82121789D01*
X90870814Y-82209390D01*
X90870827Y-82209397D01*
X90975661Y-82252820D01*
X91016503Y-82269737D01*
X91171153Y-82300499D01*
X91171156Y-82300500D01*
X91171158Y-82300500D01*
X91328844Y-82300500D01*
X91328845Y-82300499D01*
X91483497Y-82269737D01*
X91629179Y-82209394D01*
X91760289Y-82121789D01*
X91871789Y-82010289D01*
X91959394Y-81879179D01*
X92019737Y-81733497D01*
X92050500Y-81578842D01*
X92050500Y-81421158D01*
X92050500Y-81421155D01*
X92050499Y-81421153D01*
X92019738Y-81266510D01*
X92019737Y-81266503D01*
X92019735Y-81266498D01*
X91959397Y-81120827D01*
X91959390Y-81120814D01*
X91871789Y-80989711D01*
X91871786Y-80989707D01*
X91760292Y-80878213D01*
X91760288Y-80878210D01*
X91629185Y-80790609D01*
X91629175Y-80790604D01*
X91605523Y-80780807D01*
X91565295Y-80753927D01*
X90178421Y-79367052D01*
X90178414Y-79367046D01*
X90104729Y-79317812D01*
X90104729Y-79317813D01*
X90055491Y-79284913D01*
X89918917Y-79228343D01*
X89918907Y-79228340D01*
X89773920Y-79199500D01*
X89773918Y-79199500D01*
X83074500Y-79199500D01*
X83007461Y-79179815D01*
X82961706Y-79127011D01*
X82950500Y-79075500D01*
X82950500Y-75574500D01*
X82970185Y-75507461D01*
X83022989Y-75461706D01*
X83074500Y-75450500D01*
X89587770Y-75450500D01*
X89654809Y-75470185D01*
X89675451Y-75486819D01*
X90503927Y-76315295D01*
X90530806Y-76355521D01*
X90540606Y-76379179D01*
X90540607Y-76379181D01*
X90628207Y-76510284D01*
X90628213Y-76510292D01*
X90739707Y-76621786D01*
X90739711Y-76621789D01*
X90870814Y-76709390D01*
X90870827Y-76709397D01*
X91016498Y-76769735D01*
X91016503Y-76769737D01*
X91171153Y-76800499D01*
X91171156Y-76800500D01*
X91171158Y-76800500D01*
X91328844Y-76800500D01*
X91328845Y-76800499D01*
X91483497Y-76769737D01*
X91629179Y-76709394D01*
X91760289Y-76621789D01*
X91871789Y-76510289D01*
X91959394Y-76379179D01*
X92019737Y-76233497D01*
X92050500Y-76078842D01*
X92050500Y-75921158D01*
X92050500Y-75921155D01*
X92050499Y-75921153D01*
X92019737Y-75766503D01*
X92015875Y-75757179D01*
X91959397Y-75620827D01*
X91959390Y-75620814D01*
X91871789Y-75489711D01*
X91871786Y-75489707D01*
X91760292Y-75378213D01*
X91760284Y-75378207D01*
X91629181Y-75290607D01*
X91629179Y-75290606D01*
X91605521Y-75280806D01*
X91565295Y-75253927D01*
X90428421Y-74117052D01*
X90428420Y-74117051D01*
X90353584Y-74067048D01*
X90353583Y-74067047D01*
X90305501Y-74034919D01*
X90305488Y-74034912D01*
X90168917Y-73978343D01*
X90168907Y-73978340D01*
X90023920Y-73949500D01*
X90023918Y-73949500D01*
X83124500Y-73949500D01*
X83057461Y-73929815D01*
X83011706Y-73877011D01*
X83000500Y-73825500D01*
X83000500Y-70624500D01*
X83020185Y-70557461D01*
X83072989Y-70511706D01*
X83124500Y-70500500D01*
X89637770Y-70500500D01*
X89704809Y-70520185D01*
X89725451Y-70536819D01*
X90503927Y-71315295D01*
X90530807Y-71355523D01*
X90540604Y-71379175D01*
X90540609Y-71379185D01*
X90628210Y-71510288D01*
X90628213Y-71510292D01*
X90739707Y-71621786D01*
X90739711Y-71621789D01*
X90870814Y-71709390D01*
X90870827Y-71709397D01*
X90953781Y-71743757D01*
X91016503Y-71769737D01*
X91171153Y-71800499D01*
X91171156Y-71800500D01*
X91171158Y-71800500D01*
X91328844Y-71800500D01*
X91328845Y-71800499D01*
X91483497Y-71769737D01*
X91629179Y-71709394D01*
X91760289Y-71621789D01*
X91871789Y-71510289D01*
X91959394Y-71379179D01*
X92019737Y-71233497D01*
X92050500Y-71078842D01*
X92050500Y-70921158D01*
X92050500Y-70921155D01*
X92050499Y-70921153D01*
X92028079Y-70808443D01*
X92019737Y-70766503D01*
X91983706Y-70679516D01*
X91959397Y-70620827D01*
X91959390Y-70620814D01*
X91871789Y-70489711D01*
X91871786Y-70489707D01*
X91760292Y-70378213D01*
X91760288Y-70378210D01*
X91629185Y-70290609D01*
X91629175Y-70290604D01*
X91605523Y-70280807D01*
X91565295Y-70253927D01*
X90478421Y-69167052D01*
X90478414Y-69167046D01*
X90404729Y-69117812D01*
X90404729Y-69117813D01*
X90355491Y-69084913D01*
X90218917Y-69028343D01*
X90218907Y-69028340D01*
X90073920Y-68999500D01*
X90073918Y-68999500D01*
X83124500Y-68999500D01*
X83057461Y-68979815D01*
X83011706Y-68927011D01*
X83000500Y-68875500D01*
X83000500Y-64362229D01*
X83020185Y-64295190D01*
X83036819Y-64274548D01*
X84624548Y-62686819D01*
X84685871Y-62653334D01*
X84712229Y-62650500D01*
X96525501Y-62650500D01*
X96592540Y-62670185D01*
X96638295Y-62722989D01*
X96649501Y-62774500D01*
X96649501Y-62797876D01*
X96655908Y-62857483D01*
X96706202Y-62992328D01*
X96706206Y-62992335D01*
X96792452Y-63107544D01*
X96792455Y-63107547D01*
X96907664Y-63193793D01*
X96907671Y-63193797D01*
X97039082Y-63242810D01*
X97095016Y-63284681D01*
X97119433Y-63350145D01*
X97104582Y-63418418D01*
X97083431Y-63446673D01*
X96969889Y-63560215D01*
X96844951Y-63732179D01*
X96748444Y-63921585D01*
X96682753Y-64123760D01*
X96649500Y-64333713D01*
X96649500Y-64546286D01*
X96682753Y-64756239D01*
X96748444Y-64958414D01*
X96844951Y-65147820D01*
X96969890Y-65319786D01*
X97120213Y-65470109D01*
X97292182Y-65595050D01*
X97300946Y-65599516D01*
X97351742Y-65647491D01*
X97368536Y-65715312D01*
X97345998Y-65781447D01*
X97300946Y-65820484D01*
X97292182Y-65824949D01*
X97120213Y-65949890D01*
X96969890Y-66100213D01*
X96844951Y-66272179D01*
X96748444Y-66461585D01*
X96682753Y-66663760D01*
X96649500Y-66873713D01*
X96649500Y-67086287D01*
X96682754Y-67296243D01*
X96747172Y-67494501D01*
X96748444Y-67498414D01*
X96844951Y-67687820D01*
X96969890Y-67859786D01*
X97120213Y-68010109D01*
X97292182Y-68135050D01*
X97300946Y-68139516D01*
X97351742Y-68187491D01*
X97368536Y-68255312D01*
X97345998Y-68321447D01*
X97300946Y-68360484D01*
X97292182Y-68364949D01*
X97120213Y-68489890D01*
X96969890Y-68640213D01*
X96844951Y-68812179D01*
X96748444Y-69001585D01*
X96682753Y-69203760D01*
X96649500Y-69413713D01*
X96649500Y-69626286D01*
X96681581Y-69828842D01*
X96682754Y-69836243D01*
X96730597Y-69983489D01*
X96748444Y-70038414D01*
X96844951Y-70227820D01*
X96969890Y-70399786D01*
X97120213Y-70550109D01*
X97292182Y-70675050D01*
X97300946Y-70679516D01*
X97351742Y-70727491D01*
X97368536Y-70795312D01*
X97345998Y-70861447D01*
X97300946Y-70900484D01*
X97292182Y-70904949D01*
X97120213Y-71029890D01*
X96969890Y-71180213D01*
X96844951Y-71352179D01*
X96748444Y-71541585D01*
X96682753Y-71743760D01*
X96670929Y-71818414D01*
X96649500Y-71953713D01*
X96649500Y-72166287D01*
X96682754Y-72376243D01*
X96739717Y-72551557D01*
X96748444Y-72578414D01*
X96844951Y-72767820D01*
X96969890Y-72939786D01*
X97120213Y-73090109D01*
X97292182Y-73215050D01*
X97300946Y-73219516D01*
X97351742Y-73267491D01*
X97368536Y-73335312D01*
X97345998Y-73401447D01*
X97300946Y-73440484D01*
X97292182Y-73444949D01*
X97120213Y-73569890D01*
X96969890Y-73720213D01*
X96844951Y-73892179D01*
X96748444Y-74081585D01*
X96682753Y-74283760D01*
X96657556Y-74442847D01*
X96649500Y-74493713D01*
X96649500Y-74706287D01*
X96682754Y-74916243D01*
X96739717Y-75091557D01*
X96748444Y-75118414D01*
X96844951Y-75307820D01*
X96969890Y-75479786D01*
X97120213Y-75630109D01*
X97292182Y-75755050D01*
X97300946Y-75759516D01*
X97351742Y-75807491D01*
X97368536Y-75875312D01*
X97345998Y-75941447D01*
X97300946Y-75980484D01*
X97292182Y-75984949D01*
X97120213Y-76109890D01*
X96969890Y-76260213D01*
X96844951Y-76432179D01*
X96748444Y-76621585D01*
X96682753Y-76823760D01*
X96670929Y-76898414D01*
X96649500Y-77033713D01*
X96649500Y-77246287D01*
X96682754Y-77456243D01*
X96739717Y-77631557D01*
X96748444Y-77658414D01*
X96844951Y-77847820D01*
X96969890Y-78019786D01*
X97120213Y-78170109D01*
X97292182Y-78295050D01*
X97300946Y-78299516D01*
X97351742Y-78347491D01*
X97368536Y-78415312D01*
X97345998Y-78481447D01*
X97300946Y-78520484D01*
X97292182Y-78524949D01*
X97120213Y-78649890D01*
X96969890Y-78800213D01*
X96844951Y-78972179D01*
X96748444Y-79161585D01*
X96682753Y-79363760D01*
X96670929Y-79438414D01*
X96649500Y-79573713D01*
X96649500Y-79786287D01*
X96682754Y-79996243D01*
X96739717Y-80171557D01*
X96748444Y-80198414D01*
X96844951Y-80387820D01*
X96969890Y-80559786D01*
X97120213Y-80710109D01*
X97292182Y-80835050D01*
X97300946Y-80839516D01*
X97351742Y-80887491D01*
X97368536Y-80955312D01*
X97345998Y-81021447D01*
X97300946Y-81060484D01*
X97292182Y-81064949D01*
X97120213Y-81189890D01*
X96969890Y-81340213D01*
X96844951Y-81512179D01*
X96748444Y-81701585D01*
X96682753Y-81903760D01*
X96670929Y-81978414D01*
X96649500Y-82113713D01*
X96649500Y-82326287D01*
X96682754Y-82536243D01*
X96739717Y-82711557D01*
X96748444Y-82738414D01*
X96844951Y-82927820D01*
X96969890Y-83099786D01*
X97120213Y-83250109D01*
X97292182Y-83375050D01*
X97300946Y-83379516D01*
X97351742Y-83427491D01*
X97368536Y-83495312D01*
X97345998Y-83561447D01*
X97300946Y-83600484D01*
X97292182Y-83604949D01*
X97120213Y-83729890D01*
X96969890Y-83880213D01*
X96844951Y-84052179D01*
X96748444Y-84241585D01*
X96748443Y-84241587D01*
X96748443Y-84241588D01*
X96736501Y-84278342D01*
X96682753Y-84443760D01*
X96670929Y-84518414D01*
X96649500Y-84653713D01*
X96649500Y-84866287D01*
X96682754Y-85076243D01*
X96739717Y-85251557D01*
X96748444Y-85278414D01*
X96844951Y-85467820D01*
X96969890Y-85639786D01*
X97120213Y-85790109D01*
X97292182Y-85915050D01*
X97300946Y-85919516D01*
X97351742Y-85967491D01*
X97368536Y-86035312D01*
X97345998Y-86101447D01*
X97300946Y-86140484D01*
X97292182Y-86144949D01*
X97120213Y-86269890D01*
X96969890Y-86420213D01*
X96844951Y-86592179D01*
X96748444Y-86781585D01*
X96682753Y-86983760D01*
X96670929Y-87058414D01*
X96649500Y-87193713D01*
X96649500Y-87406287D01*
X96682754Y-87616243D01*
X96739717Y-87791557D01*
X96748444Y-87818414D01*
X96844951Y-88007820D01*
X96969890Y-88179786D01*
X97120213Y-88330109D01*
X97292182Y-88455050D01*
X97300946Y-88459516D01*
X97351742Y-88507491D01*
X97368536Y-88575312D01*
X97345998Y-88641447D01*
X97300946Y-88680484D01*
X97292182Y-88684949D01*
X97120213Y-88809890D01*
X96969890Y-88960213D01*
X96844951Y-89132179D01*
X96748444Y-89321585D01*
X96682753Y-89523760D01*
X96652226Y-89716503D01*
X96649500Y-89733713D01*
X96649500Y-89946287D01*
X96682754Y-90156243D01*
X96739717Y-90331557D01*
X96748444Y-90358414D01*
X96844951Y-90547820D01*
X96969890Y-90719786D01*
X97120213Y-90870109D01*
X97292182Y-90995050D01*
X97300946Y-90999516D01*
X97351742Y-91047491D01*
X97368536Y-91115312D01*
X97345998Y-91181447D01*
X97300946Y-91220484D01*
X97292182Y-91224949D01*
X97120213Y-91349890D01*
X96969890Y-91500213D01*
X96844951Y-91672179D01*
X96748444Y-91861585D01*
X96682753Y-92063760D01*
X96670929Y-92138414D01*
X96649500Y-92273713D01*
X96649500Y-92486287D01*
X96682754Y-92696243D01*
X96742193Y-92879178D01*
X96748444Y-92898414D01*
X96844951Y-93087820D01*
X96969890Y-93259786D01*
X97120213Y-93410109D01*
X97292182Y-93535050D01*
X97300946Y-93539516D01*
X97351742Y-93587491D01*
X97368536Y-93655312D01*
X97345998Y-93721447D01*
X97300946Y-93760484D01*
X97292182Y-93764949D01*
X97120213Y-93889890D01*
X96969890Y-94040213D01*
X96844951Y-94212179D01*
X96748444Y-94401585D01*
X96682753Y-94603760D01*
X96670929Y-94678414D01*
X96649500Y-94813713D01*
X96649500Y-95026287D01*
X96682754Y-95236243D01*
X96739717Y-95411557D01*
X96748444Y-95438414D01*
X96844951Y-95627820D01*
X96969890Y-95799786D01*
X97120213Y-95950109D01*
X97292182Y-96075050D01*
X97300946Y-96079516D01*
X97351742Y-96127491D01*
X97368536Y-96195312D01*
X97345998Y-96261447D01*
X97300946Y-96300484D01*
X97292182Y-96304949D01*
X97120213Y-96429890D01*
X96969890Y-96580213D01*
X96844951Y-96752179D01*
X96748444Y-96941585D01*
X96682753Y-97143760D01*
X96649500Y-97353713D01*
X96649500Y-97566286D01*
X96681723Y-97769738D01*
X96682754Y-97776243D01*
X96739717Y-97951557D01*
X96748444Y-97978414D01*
X96844951Y-98167820D01*
X96969890Y-98339786D01*
X97120213Y-98490109D01*
X97292182Y-98615050D01*
X97300946Y-98619516D01*
X97351742Y-98667491D01*
X97368536Y-98735312D01*
X97345998Y-98801447D01*
X97300946Y-98840484D01*
X97292182Y-98844949D01*
X97120213Y-98969890D01*
X96969890Y-99120213D01*
X96844951Y-99292179D01*
X96748444Y-99481585D01*
X96682753Y-99683760D01*
X96670929Y-99758414D01*
X96649500Y-99893713D01*
X96649500Y-100106287D01*
X96682754Y-100316243D01*
X96739717Y-100491557D01*
X96748444Y-100518414D01*
X96844951Y-100707820D01*
X96969890Y-100879786D01*
X97120213Y-101030109D01*
X97292182Y-101155050D01*
X97300946Y-101159516D01*
X97351742Y-101207491D01*
X97368536Y-101275312D01*
X97345998Y-101341447D01*
X97300946Y-101380484D01*
X97292182Y-101384949D01*
X97120213Y-101509890D01*
X96969890Y-101660213D01*
X96844951Y-101832179D01*
X96748444Y-102021585D01*
X96682753Y-102223760D01*
X96649500Y-102433713D01*
X96649500Y-102646286D01*
X96663311Y-102733489D01*
X96682754Y-102856243D01*
X96739717Y-103031557D01*
X96748444Y-103058414D01*
X96844951Y-103247820D01*
X96969890Y-103419786D01*
X97120213Y-103570109D01*
X97292182Y-103695050D01*
X97300946Y-103699516D01*
X97351742Y-103747491D01*
X97368536Y-103815312D01*
X97345998Y-103881447D01*
X97300946Y-103920484D01*
X97292182Y-103924949D01*
X97120213Y-104049890D01*
X96969890Y-104200213D01*
X96844951Y-104372179D01*
X96748444Y-104561585D01*
X96682753Y-104763760D01*
X96649500Y-104973713D01*
X96649500Y-105186286D01*
X96672078Y-105328842D01*
X96682754Y-105396243D01*
X96739717Y-105571557D01*
X96748444Y-105598414D01*
X96844951Y-105787820D01*
X96969890Y-105959786D01*
X97120213Y-106110109D01*
X97292182Y-106235050D01*
X97300946Y-106239516D01*
X97351742Y-106287491D01*
X97368536Y-106355312D01*
X97345998Y-106421447D01*
X97300946Y-106460484D01*
X97292182Y-106464949D01*
X97120213Y-106589890D01*
X96969890Y-106740213D01*
X96844951Y-106912179D01*
X96748444Y-107101585D01*
X96682753Y-107303760D01*
X96649500Y-107513713D01*
X96649500Y-107726286D01*
X96682753Y-107936239D01*
X96748444Y-108138414D01*
X96844951Y-108327820D01*
X96969890Y-108499786D01*
X97120213Y-108650109D01*
X97292182Y-108775050D01*
X97300946Y-108779516D01*
X97351742Y-108827491D01*
X97368536Y-108895312D01*
X97345998Y-108961447D01*
X97300946Y-109000484D01*
X97292182Y-109004949D01*
X97120213Y-109129890D01*
X96969890Y-109280213D01*
X96844951Y-109452179D01*
X96748444Y-109641585D01*
X96682753Y-109843760D01*
X96649500Y-110053713D01*
X96649500Y-110266286D01*
X96682753Y-110476239D01*
X96748444Y-110678414D01*
X96844951Y-110867820D01*
X96969890Y-111039786D01*
X97120213Y-111190109D01*
X97292182Y-111315050D01*
X97300946Y-111319516D01*
X97351742Y-111367491D01*
X97368536Y-111435312D01*
X97345998Y-111501447D01*
X97300946Y-111540484D01*
X97292182Y-111544949D01*
X97120213Y-111669890D01*
X96969890Y-111820213D01*
X96844951Y-111992179D01*
X96748444Y-112181585D01*
X96682753Y-112383760D01*
X96676830Y-112421158D01*
X96649500Y-112593713D01*
X96649500Y-112806287D01*
X96653689Y-112832735D01*
X96682753Y-113016239D01*
X96748444Y-113218414D01*
X96844951Y-113407820D01*
X96969890Y-113579786D01*
X97120213Y-113730109D01*
X97292179Y-113855048D01*
X97292181Y-113855049D01*
X97292184Y-113855051D01*
X97301493Y-113859794D01*
X97352290Y-113907766D01*
X97369087Y-113975587D01*
X97346552Y-114041722D01*
X97301505Y-114080760D01*
X97292446Y-114085376D01*
X97292440Y-114085380D01*
X97238282Y-114124727D01*
X97238282Y-114124728D01*
X97870591Y-114757037D01*
X97807007Y-114774075D01*
X97692993Y-114839901D01*
X97599901Y-114932993D01*
X97534075Y-115047007D01*
X97517037Y-115110591D01*
X96884728Y-114478282D01*
X96884727Y-114478282D01*
X96845380Y-114532439D01*
X96748904Y-114721782D01*
X96683242Y-114923869D01*
X96683242Y-114923872D01*
X96650000Y-115133753D01*
X96650000Y-115346246D01*
X96683242Y-115556127D01*
X96683242Y-115556130D01*
X96748904Y-115758217D01*
X96845375Y-115947550D01*
X96884728Y-116001716D01*
X97517037Y-115369408D01*
X97534075Y-115432993D01*
X97599901Y-115547007D01*
X97692993Y-115640099D01*
X97807007Y-115705925D01*
X97870590Y-115722962D01*
X97238282Y-116355269D01*
X97238282Y-116355270D01*
X97292449Y-116394624D01*
X97481782Y-116491095D01*
X97683870Y-116556757D01*
X97893754Y-116590000D01*
X98106246Y-116590000D01*
X98316127Y-116556757D01*
X98316130Y-116556757D01*
X98518217Y-116491095D01*
X98707554Y-116394622D01*
X98761716Y-116355270D01*
X98761717Y-116355270D01*
X98129408Y-115722962D01*
X98192993Y-115705925D01*
X98307007Y-115640099D01*
X98400099Y-115547007D01*
X98465925Y-115432993D01*
X98482962Y-115369409D01*
X99115270Y-116001717D01*
X99115270Y-116001716D01*
X99154622Y-115947554D01*
X99251095Y-115758217D01*
X99316757Y-115556130D01*
X99316757Y-115556127D01*
X99350000Y-115346246D01*
X99350000Y-115133753D01*
X99316757Y-114923872D01*
X99316757Y-114923869D01*
X99251095Y-114721782D01*
X99154624Y-114532449D01*
X99115270Y-114478282D01*
X99115269Y-114478282D01*
X98482962Y-115110590D01*
X98465925Y-115047007D01*
X98400099Y-114932993D01*
X98307007Y-114839901D01*
X98192993Y-114774075D01*
X98129409Y-114757037D01*
X98761716Y-114124728D01*
X98707547Y-114085373D01*
X98707547Y-114085372D01*
X98698500Y-114080763D01*
X98647706Y-114032788D01*
X98630912Y-113964966D01*
X98653451Y-113898832D01*
X98698508Y-113859793D01*
X98707816Y-113855051D01*
X98806187Y-113783581D01*
X98879786Y-113730109D01*
X98879788Y-113730106D01*
X98879792Y-113730104D01*
X99030104Y-113579792D01*
X99030106Y-113579788D01*
X99030109Y-113579786D01*
X99155048Y-113407820D01*
X99155047Y-113407820D01*
X99155051Y-113407816D01*
X99251557Y-113218412D01*
X99317246Y-113016243D01*
X99350500Y-112806287D01*
X99350500Y-112593713D01*
X99317246Y-112383757D01*
X99251557Y-112181588D01*
X99155051Y-111992184D01*
X99155049Y-111992181D01*
X99155048Y-111992179D01*
X99030109Y-111820213D01*
X98879786Y-111669890D01*
X98707820Y-111544951D01*
X98699600Y-111540763D01*
X98699054Y-111540485D01*
X98648259Y-111492512D01*
X98631463Y-111424692D01*
X98653999Y-111358556D01*
X98699054Y-111319515D01*
X98707816Y-111315051D01*
X98855784Y-111207547D01*
X98879786Y-111190109D01*
X98879788Y-111190106D01*
X98879792Y-111190104D01*
X99030104Y-111039792D01*
X99030106Y-111039788D01*
X99030109Y-111039786D01*
X99155048Y-110867820D01*
X99155047Y-110867820D01*
X99155051Y-110867816D01*
X99251557Y-110678412D01*
X99317246Y-110476243D01*
X99350500Y-110266287D01*
X99350500Y-110053713D01*
X99317246Y-109843757D01*
X99251557Y-109641588D01*
X99155051Y-109452184D01*
X99155049Y-109452181D01*
X99155048Y-109452179D01*
X99030109Y-109280213D01*
X98879786Y-109129890D01*
X98707820Y-109004951D01*
X98707115Y-109004591D01*
X98699054Y-109000485D01*
X98648259Y-108952512D01*
X98631463Y-108884692D01*
X98653999Y-108818556D01*
X98699054Y-108779515D01*
X98707816Y-108775051D01*
X98802574Y-108706206D01*
X98879786Y-108650109D01*
X98879788Y-108650106D01*
X98879792Y-108650104D01*
X99030104Y-108499792D01*
X99030106Y-108499788D01*
X99030109Y-108499786D01*
X99155048Y-108327820D01*
X99155047Y-108327820D01*
X99155051Y-108327816D01*
X99251557Y-108138412D01*
X99317246Y-107936243D01*
X99350500Y-107726287D01*
X99350500Y-107513713D01*
X99317246Y-107303757D01*
X99251557Y-107101588D01*
X99155051Y-106912184D01*
X99155049Y-106912181D01*
X99155048Y-106912179D01*
X99030109Y-106740213D01*
X98879786Y-106589890D01*
X98707820Y-106464951D01*
X98707115Y-106464591D01*
X98699054Y-106460485D01*
X98648259Y-106412512D01*
X98631463Y-106344692D01*
X98653999Y-106278556D01*
X98699054Y-106239515D01*
X98707816Y-106235051D01*
X98823699Y-106150858D01*
X98879786Y-106110109D01*
X98879792Y-106110104D01*
X98953077Y-106036819D01*
X99030104Y-105959792D01*
X99030106Y-105959788D01*
X99030109Y-105959786D01*
X99155048Y-105787820D01*
X99155047Y-105787820D01*
X99155051Y-105787816D01*
X99251557Y-105598412D01*
X99317246Y-105396243D01*
X99350500Y-105186287D01*
X99350500Y-104973713D01*
X99317246Y-104763757D01*
X99251557Y-104561588D01*
X99155051Y-104372184D01*
X99155049Y-104372181D01*
X99155048Y-104372179D01*
X99030109Y-104200213D01*
X98879786Y-104049890D01*
X98707820Y-103924951D01*
X98707115Y-103924591D01*
X98699054Y-103920485D01*
X98648259Y-103872512D01*
X98631463Y-103804692D01*
X98653999Y-103738556D01*
X98699054Y-103699515D01*
X98707816Y-103695051D01*
X98729789Y-103679086D01*
X98879786Y-103570109D01*
X98879788Y-103570106D01*
X98879792Y-103570104D01*
X99030104Y-103419792D01*
X99030106Y-103419788D01*
X99030109Y-103419786D01*
X99155048Y-103247820D01*
X99155047Y-103247820D01*
X99155051Y-103247816D01*
X99251557Y-103058412D01*
X99317246Y-102856243D01*
X99350500Y-102646287D01*
X99350500Y-102433713D01*
X99317246Y-102223757D01*
X99251557Y-102021588D01*
X99155051Y-101832184D01*
X99155049Y-101832181D01*
X99155048Y-101832179D01*
X99030109Y-101660213D01*
X98879786Y-101509890D01*
X98707820Y-101384951D01*
X98707115Y-101384591D01*
X98699054Y-101380485D01*
X98648259Y-101332512D01*
X98631463Y-101264692D01*
X98653999Y-101198556D01*
X98699054Y-101159515D01*
X98707816Y-101155051D01*
X98749866Y-101124500D01*
X98879786Y-101030109D01*
X98879788Y-101030106D01*
X98879792Y-101030104D01*
X99030104Y-100879792D01*
X99030106Y-100879788D01*
X99030109Y-100879786D01*
X99155048Y-100707820D01*
X99155047Y-100707820D01*
X99155051Y-100707816D01*
X99251557Y-100518412D01*
X99317246Y-100316243D01*
X99350500Y-100106287D01*
X99350500Y-99893713D01*
X99317246Y-99683757D01*
X99251557Y-99481588D01*
X99155051Y-99292184D01*
X99155049Y-99292181D01*
X99155048Y-99292179D01*
X99030109Y-99120213D01*
X98879786Y-98969890D01*
X98707820Y-98844951D01*
X98707115Y-98844591D01*
X98699054Y-98840485D01*
X98648259Y-98792512D01*
X98631463Y-98724692D01*
X98653999Y-98658556D01*
X98699054Y-98619515D01*
X98707816Y-98615051D01*
X98729789Y-98599086D01*
X98879786Y-98490109D01*
X98879788Y-98490106D01*
X98879792Y-98490104D01*
X99030104Y-98339792D01*
X99030106Y-98339788D01*
X99030109Y-98339786D01*
X99155048Y-98167820D01*
X99155047Y-98167820D01*
X99155051Y-98167816D01*
X99251557Y-97978412D01*
X99317246Y-97776243D01*
X99350500Y-97566287D01*
X99350500Y-97353713D01*
X99317246Y-97143757D01*
X99251557Y-96941588D01*
X99155051Y-96752184D01*
X99155049Y-96752181D01*
X99155048Y-96752179D01*
X99030109Y-96580213D01*
X98879786Y-96429890D01*
X98707820Y-96304951D01*
X98707115Y-96304591D01*
X98699054Y-96300485D01*
X98648259Y-96252512D01*
X98631463Y-96184692D01*
X98653999Y-96118556D01*
X98699054Y-96079515D01*
X98707816Y-96075051D01*
X98795004Y-96011706D01*
X98879786Y-95950109D01*
X98879788Y-95950106D01*
X98879792Y-95950104D01*
X99030104Y-95799792D01*
X99030106Y-95799788D01*
X99030109Y-95799786D01*
X99155048Y-95627820D01*
X99155047Y-95627820D01*
X99155051Y-95627816D01*
X99251557Y-95438412D01*
X99317246Y-95236243D01*
X99350500Y-95026287D01*
X99350500Y-94813713D01*
X99317246Y-94603757D01*
X99251557Y-94401588D01*
X99155051Y-94212184D01*
X99155049Y-94212181D01*
X99155048Y-94212179D01*
X99030109Y-94040213D01*
X98879786Y-93889890D01*
X98707820Y-93764951D01*
X98707115Y-93764591D01*
X98699054Y-93760485D01*
X98648259Y-93712512D01*
X98631463Y-93644692D01*
X98653999Y-93578556D01*
X98699054Y-93539515D01*
X98707816Y-93535051D01*
X98729789Y-93519086D01*
X98879786Y-93410109D01*
X98879788Y-93410106D01*
X98879792Y-93410104D01*
X99030104Y-93259792D01*
X99030106Y-93259788D01*
X99030109Y-93259786D01*
X99155048Y-93087820D01*
X99155047Y-93087820D01*
X99155051Y-93087816D01*
X99251557Y-92898412D01*
X99317246Y-92696243D01*
X99350500Y-92486287D01*
X99350500Y-92273713D01*
X99317246Y-92063757D01*
X99251557Y-91861588D01*
X99155051Y-91672184D01*
X99155049Y-91672181D01*
X99155048Y-91672179D01*
X99030109Y-91500213D01*
X98879786Y-91349890D01*
X98707820Y-91224951D01*
X98707115Y-91224591D01*
X98699054Y-91220485D01*
X98648259Y-91172512D01*
X98631463Y-91104692D01*
X98653999Y-91038556D01*
X98699054Y-90999515D01*
X98707816Y-90995051D01*
X98729789Y-90979086D01*
X98879786Y-90870109D01*
X98879788Y-90870106D01*
X98879792Y-90870104D01*
X99030104Y-90719792D01*
X99030106Y-90719788D01*
X99030109Y-90719786D01*
X99155048Y-90547820D01*
X99155047Y-90547820D01*
X99155051Y-90547816D01*
X99251557Y-90358412D01*
X99317246Y-90156243D01*
X99350500Y-89946287D01*
X99350500Y-89733713D01*
X99317246Y-89523757D01*
X99251557Y-89321588D01*
X99155051Y-89132184D01*
X99155049Y-89132181D01*
X99155048Y-89132179D01*
X99030109Y-88960213D01*
X98879786Y-88809890D01*
X98707820Y-88684951D01*
X98707115Y-88684591D01*
X98699054Y-88680485D01*
X98648259Y-88632512D01*
X98631463Y-88564692D01*
X98653999Y-88498556D01*
X98699054Y-88459515D01*
X98707816Y-88455051D01*
X98729789Y-88439086D01*
X98879786Y-88330109D01*
X98879788Y-88330106D01*
X98879792Y-88330104D01*
X99030104Y-88179792D01*
X99030106Y-88179788D01*
X99030109Y-88179786D01*
X99155048Y-88007820D01*
X99155047Y-88007820D01*
X99155051Y-88007816D01*
X99251557Y-87818412D01*
X99317246Y-87616243D01*
X99350500Y-87406287D01*
X99350500Y-87193713D01*
X99317246Y-86983757D01*
X99251557Y-86781588D01*
X99155051Y-86592184D01*
X99155049Y-86592181D01*
X99155048Y-86592179D01*
X99030109Y-86420213D01*
X98879786Y-86269890D01*
X98707820Y-86144951D01*
X98707115Y-86144591D01*
X98699054Y-86140485D01*
X98648259Y-86092512D01*
X98631463Y-86024692D01*
X98653999Y-85958556D01*
X98699054Y-85919515D01*
X98707816Y-85915051D01*
X98768694Y-85870821D01*
X98879786Y-85790109D01*
X98879788Y-85790106D01*
X98879792Y-85790104D01*
X99030104Y-85639792D01*
X99030106Y-85639788D01*
X99030109Y-85639786D01*
X99155048Y-85467820D01*
X99155047Y-85467820D01*
X99155051Y-85467816D01*
X99251557Y-85278412D01*
X99317246Y-85076243D01*
X99350500Y-84866287D01*
X99350500Y-84653713D01*
X99317246Y-84443757D01*
X99251557Y-84241588D01*
X99155051Y-84052184D01*
X99155049Y-84052181D01*
X99155048Y-84052179D01*
X99030109Y-83880213D01*
X98879786Y-83729890D01*
X98707820Y-83604951D01*
X98707115Y-83604591D01*
X98699054Y-83600485D01*
X98648259Y-83552512D01*
X98631463Y-83484692D01*
X98653999Y-83418556D01*
X98699054Y-83379515D01*
X98707816Y-83375051D01*
X98729789Y-83359086D01*
X98879786Y-83250109D01*
X98879788Y-83250106D01*
X98879792Y-83250104D01*
X99030104Y-83099792D01*
X99030106Y-83099788D01*
X99030109Y-83099786D01*
X99155048Y-82927820D01*
X99155047Y-82927820D01*
X99155051Y-82927816D01*
X99251557Y-82738412D01*
X99317246Y-82536243D01*
X99350500Y-82326287D01*
X99350500Y-82113713D01*
X99317246Y-81903757D01*
X99251557Y-81701588D01*
X99155051Y-81512184D01*
X99155049Y-81512181D01*
X99155048Y-81512179D01*
X99030109Y-81340213D01*
X98879786Y-81189890D01*
X98707820Y-81064951D01*
X98707115Y-81064591D01*
X98699054Y-81060485D01*
X98648259Y-81012512D01*
X98631463Y-80944692D01*
X98653999Y-80878556D01*
X98699054Y-80839515D01*
X98707816Y-80835051D01*
X98768990Y-80790606D01*
X98879786Y-80710109D01*
X98879788Y-80710106D01*
X98879792Y-80710104D01*
X99030104Y-80559792D01*
X99030106Y-80559788D01*
X99030109Y-80559786D01*
X99155048Y-80387820D01*
X99155047Y-80387820D01*
X99155051Y-80387816D01*
X99251557Y-80198412D01*
X99317246Y-79996243D01*
X99350500Y-79786287D01*
X99350500Y-79573713D01*
X99317246Y-79363757D01*
X99251557Y-79161588D01*
X99155051Y-78972184D01*
X99155049Y-78972181D01*
X99155048Y-78972179D01*
X99030109Y-78800213D01*
X98879786Y-78649890D01*
X98707820Y-78524951D01*
X98707115Y-78524591D01*
X98699054Y-78520485D01*
X98648259Y-78472512D01*
X98631463Y-78404692D01*
X98653999Y-78338556D01*
X98699054Y-78299515D01*
X98707816Y-78295051D01*
X98729789Y-78279086D01*
X98879786Y-78170109D01*
X98879788Y-78170106D01*
X98879792Y-78170104D01*
X99030104Y-78019792D01*
X99030106Y-78019788D01*
X99030109Y-78019786D01*
X99155048Y-77847820D01*
X99155047Y-77847820D01*
X99155051Y-77847816D01*
X99251557Y-77658412D01*
X99317246Y-77456243D01*
X99350500Y-77246287D01*
X99350500Y-77033713D01*
X99317246Y-76823757D01*
X99251557Y-76621588D01*
X99155051Y-76432184D01*
X99155049Y-76432181D01*
X99155048Y-76432179D01*
X99030109Y-76260213D01*
X98879786Y-76109890D01*
X98707820Y-75984951D01*
X98707115Y-75984591D01*
X98699054Y-75980485D01*
X98648259Y-75932512D01*
X98631463Y-75864692D01*
X98653999Y-75798556D01*
X98699054Y-75759515D01*
X98707816Y-75755051D01*
X98729789Y-75739086D01*
X98879786Y-75630109D01*
X98879788Y-75630106D01*
X98879792Y-75630104D01*
X99030104Y-75479792D01*
X99030106Y-75479788D01*
X99030109Y-75479786D01*
X99155048Y-75307820D01*
X99155047Y-75307820D01*
X99155051Y-75307816D01*
X99251557Y-75118412D01*
X99317246Y-74916243D01*
X99350500Y-74706287D01*
X99350500Y-74493713D01*
X99317246Y-74283757D01*
X99251557Y-74081588D01*
X99155051Y-73892184D01*
X99155049Y-73892181D01*
X99155048Y-73892179D01*
X99030109Y-73720213D01*
X98879786Y-73569890D01*
X98707820Y-73444951D01*
X98707115Y-73444591D01*
X98699054Y-73440485D01*
X98648259Y-73392512D01*
X98631463Y-73324692D01*
X98653999Y-73258556D01*
X98699054Y-73219515D01*
X98707816Y-73215051D01*
X98729789Y-73199086D01*
X98879786Y-73090109D01*
X98879788Y-73090106D01*
X98879792Y-73090104D01*
X99030104Y-72939792D01*
X99030106Y-72939788D01*
X99030109Y-72939786D01*
X99155048Y-72767820D01*
X99155047Y-72767820D01*
X99155051Y-72767816D01*
X99251557Y-72578412D01*
X99317246Y-72376243D01*
X99350500Y-72166287D01*
X99350500Y-71953713D01*
X99317246Y-71743757D01*
X99251557Y-71541588D01*
X99155051Y-71352184D01*
X99155049Y-71352181D01*
X99155048Y-71352179D01*
X99030109Y-71180213D01*
X98879786Y-71029890D01*
X98707820Y-70904951D01*
X98707115Y-70904591D01*
X98699054Y-70900485D01*
X98648259Y-70852512D01*
X98631463Y-70784692D01*
X98653999Y-70718556D01*
X98699054Y-70679515D01*
X98707816Y-70675051D01*
X98777394Y-70624500D01*
X98879786Y-70550109D01*
X98879788Y-70550106D01*
X98879792Y-70550104D01*
X99030104Y-70399792D01*
X99030106Y-70399788D01*
X99030109Y-70399786D01*
X99155048Y-70227820D01*
X99155047Y-70227820D01*
X99155051Y-70227816D01*
X99251557Y-70038412D01*
X99317246Y-69836243D01*
X99350500Y-69626287D01*
X99350500Y-69413713D01*
X99317246Y-69203757D01*
X99251557Y-69001588D01*
X99155051Y-68812184D01*
X99155049Y-68812181D01*
X99155048Y-68812179D01*
X99030109Y-68640213D01*
X98879786Y-68489890D01*
X98707820Y-68364951D01*
X98707115Y-68364591D01*
X98699054Y-68360485D01*
X98648259Y-68312512D01*
X98631463Y-68244692D01*
X98653999Y-68178556D01*
X98699054Y-68139515D01*
X98707816Y-68135051D01*
X98729789Y-68119086D01*
X98879786Y-68010109D01*
X98879788Y-68010106D01*
X98879792Y-68010104D01*
X99030104Y-67859792D01*
X99030106Y-67859788D01*
X99030109Y-67859786D01*
X99155048Y-67687820D01*
X99155047Y-67687820D01*
X99155051Y-67687816D01*
X99251557Y-67498412D01*
X99317246Y-67296243D01*
X99350500Y-67086287D01*
X99350500Y-66873713D01*
X99317246Y-66663757D01*
X99251557Y-66461588D01*
X99155051Y-66272184D01*
X99155049Y-66272181D01*
X99155048Y-66272179D01*
X99030109Y-66100213D01*
X98879786Y-65949890D01*
X98707820Y-65824951D01*
X98707115Y-65824591D01*
X98699054Y-65820485D01*
X98648259Y-65772512D01*
X98631463Y-65704692D01*
X98653999Y-65638556D01*
X98699054Y-65599515D01*
X98707816Y-65595051D01*
X98729789Y-65579086D01*
X98879786Y-65470109D01*
X98879788Y-65470106D01*
X98879792Y-65470104D01*
X99030104Y-65319792D01*
X99030106Y-65319788D01*
X99030109Y-65319786D01*
X99155048Y-65147820D01*
X99155047Y-65147820D01*
X99155051Y-65147816D01*
X99251557Y-64958412D01*
X99317246Y-64756243D01*
X99350500Y-64546287D01*
X99350500Y-64333713D01*
X122049500Y-64333713D01*
X122049500Y-64546286D01*
X122082753Y-64756239D01*
X122148444Y-64958414D01*
X122244951Y-65147820D01*
X122369890Y-65319786D01*
X122520213Y-65470109D01*
X122692182Y-65595050D01*
X122700946Y-65599516D01*
X122751742Y-65647491D01*
X122768536Y-65715312D01*
X122745998Y-65781447D01*
X122700946Y-65820484D01*
X122692182Y-65824949D01*
X122520213Y-65949890D01*
X122369890Y-66100213D01*
X122244951Y-66272179D01*
X122148444Y-66461585D01*
X122082753Y-66663760D01*
X122049500Y-66873713D01*
X122049500Y-67086287D01*
X122082754Y-67296243D01*
X122147172Y-67494501D01*
X122148444Y-67498414D01*
X122244951Y-67687820D01*
X122369890Y-67859786D01*
X122520213Y-68010109D01*
X122692182Y-68135050D01*
X122700946Y-68139516D01*
X122751742Y-68187491D01*
X122768536Y-68255312D01*
X122745998Y-68321447D01*
X122700946Y-68360484D01*
X122692182Y-68364949D01*
X122520213Y-68489890D01*
X122369890Y-68640213D01*
X122244951Y-68812179D01*
X122148444Y-69001585D01*
X122082753Y-69203760D01*
X122049500Y-69413713D01*
X122049500Y-69626286D01*
X122081581Y-69828842D01*
X122082754Y-69836243D01*
X122130597Y-69983489D01*
X122148444Y-70038414D01*
X122244951Y-70227820D01*
X122369890Y-70399786D01*
X122520213Y-70550109D01*
X122692182Y-70675050D01*
X122700946Y-70679516D01*
X122751742Y-70727491D01*
X122768536Y-70795312D01*
X122745998Y-70861447D01*
X122700946Y-70900484D01*
X122692182Y-70904949D01*
X122520213Y-71029890D01*
X122369890Y-71180213D01*
X122244951Y-71352179D01*
X122148444Y-71541585D01*
X122082753Y-71743760D01*
X122070929Y-71818414D01*
X122049500Y-71953713D01*
X122049500Y-72166287D01*
X122082754Y-72376243D01*
X122139717Y-72551557D01*
X122148444Y-72578414D01*
X122244951Y-72767820D01*
X122369890Y-72939786D01*
X122520213Y-73090109D01*
X122692182Y-73215050D01*
X122700946Y-73219516D01*
X122751742Y-73267491D01*
X122768536Y-73335312D01*
X122745998Y-73401447D01*
X122700946Y-73440484D01*
X122692182Y-73444949D01*
X122520213Y-73569890D01*
X122369890Y-73720213D01*
X122244951Y-73892179D01*
X122148444Y-74081585D01*
X122082753Y-74283760D01*
X122057556Y-74442847D01*
X122049500Y-74493713D01*
X122049500Y-74706287D01*
X122082754Y-74916243D01*
X122139717Y-75091557D01*
X122148444Y-75118414D01*
X122244951Y-75307820D01*
X122369890Y-75479786D01*
X122520213Y-75630109D01*
X122692182Y-75755050D01*
X122700946Y-75759516D01*
X122751742Y-75807491D01*
X122768536Y-75875312D01*
X122745998Y-75941447D01*
X122700946Y-75980484D01*
X122692182Y-75984949D01*
X122520213Y-76109890D01*
X122369890Y-76260213D01*
X122244951Y-76432179D01*
X122148444Y-76621585D01*
X122082753Y-76823760D01*
X122070929Y-76898414D01*
X122049500Y-77033713D01*
X122049500Y-77246287D01*
X122082754Y-77456243D01*
X122139717Y-77631557D01*
X122148444Y-77658414D01*
X122244951Y-77847820D01*
X122369890Y-78019786D01*
X122520213Y-78170109D01*
X122692182Y-78295050D01*
X122700946Y-78299516D01*
X122751742Y-78347491D01*
X122768536Y-78415312D01*
X122745998Y-78481447D01*
X122700946Y-78520484D01*
X122692182Y-78524949D01*
X122520213Y-78649890D01*
X122369890Y-78800213D01*
X122244951Y-78972179D01*
X122148444Y-79161585D01*
X122082753Y-79363760D01*
X122070929Y-79438414D01*
X122049500Y-79573713D01*
X122049500Y-79786287D01*
X122082754Y-79996243D01*
X122139717Y-80171557D01*
X122148444Y-80198414D01*
X122244951Y-80387820D01*
X122369890Y-80559786D01*
X122520213Y-80710109D01*
X122692182Y-80835050D01*
X122700946Y-80839516D01*
X122751742Y-80887491D01*
X122768536Y-80955312D01*
X122745998Y-81021447D01*
X122700946Y-81060484D01*
X122692182Y-81064949D01*
X122520213Y-81189890D01*
X122369890Y-81340213D01*
X122244951Y-81512179D01*
X122148444Y-81701585D01*
X122082753Y-81903760D01*
X122070929Y-81978414D01*
X122049500Y-82113713D01*
X122049500Y-82326287D01*
X122082754Y-82536243D01*
X122139717Y-82711557D01*
X122148444Y-82738414D01*
X122244951Y-82927820D01*
X122369890Y-83099786D01*
X122520213Y-83250109D01*
X122692182Y-83375050D01*
X122700946Y-83379516D01*
X122751742Y-83427491D01*
X122768536Y-83495312D01*
X122745998Y-83561447D01*
X122700946Y-83600484D01*
X122692182Y-83604949D01*
X122520213Y-83729890D01*
X122369890Y-83880213D01*
X122244951Y-84052179D01*
X122148444Y-84241585D01*
X122148443Y-84241587D01*
X122148443Y-84241588D01*
X122136501Y-84278342D01*
X122082753Y-84443760D01*
X122070929Y-84518414D01*
X122049500Y-84653713D01*
X122049500Y-84866287D01*
X122082754Y-85076243D01*
X122139717Y-85251557D01*
X122148444Y-85278414D01*
X122244951Y-85467820D01*
X122369890Y-85639786D01*
X122520213Y-85790109D01*
X122692182Y-85915050D01*
X122700946Y-85919516D01*
X122751742Y-85967491D01*
X122768536Y-86035312D01*
X122745998Y-86101447D01*
X122700946Y-86140484D01*
X122692182Y-86144949D01*
X122520213Y-86269890D01*
X122369890Y-86420213D01*
X122244951Y-86592179D01*
X122148444Y-86781585D01*
X122082753Y-86983760D01*
X122070929Y-87058414D01*
X122049500Y-87193713D01*
X122049500Y-87406287D01*
X122082754Y-87616243D01*
X122139717Y-87791557D01*
X122148444Y-87818414D01*
X122244951Y-88007820D01*
X122369890Y-88179786D01*
X122520213Y-88330109D01*
X122692182Y-88455050D01*
X122700946Y-88459516D01*
X122751742Y-88507491D01*
X122768536Y-88575312D01*
X122745998Y-88641447D01*
X122700946Y-88680484D01*
X122692182Y-88684949D01*
X122520213Y-88809890D01*
X122369890Y-88960213D01*
X122244951Y-89132179D01*
X122148444Y-89321585D01*
X122082753Y-89523760D01*
X122052226Y-89716503D01*
X122049500Y-89733713D01*
X122049500Y-89946287D01*
X122082754Y-90156243D01*
X122139717Y-90331557D01*
X122148444Y-90358414D01*
X122244951Y-90547820D01*
X122369890Y-90719786D01*
X122520213Y-90870109D01*
X122692182Y-90995050D01*
X122700946Y-90999516D01*
X122751742Y-91047491D01*
X122768536Y-91115312D01*
X122745998Y-91181447D01*
X122700946Y-91220484D01*
X122692182Y-91224949D01*
X122520213Y-91349890D01*
X122369890Y-91500213D01*
X122244951Y-91672179D01*
X122148444Y-91861585D01*
X122082753Y-92063760D01*
X122070929Y-92138414D01*
X122049500Y-92273713D01*
X122049500Y-92486287D01*
X122082754Y-92696243D01*
X122142193Y-92879178D01*
X122148444Y-92898414D01*
X122244951Y-93087820D01*
X122369890Y-93259786D01*
X122520213Y-93410109D01*
X122692182Y-93535050D01*
X122700946Y-93539516D01*
X122751742Y-93587491D01*
X122768536Y-93655312D01*
X122745998Y-93721447D01*
X122700946Y-93760484D01*
X122692182Y-93764949D01*
X122520213Y-93889890D01*
X122369890Y-94040213D01*
X122244951Y-94212179D01*
X122148444Y-94401585D01*
X122082753Y-94603760D01*
X122070929Y-94678414D01*
X122049500Y-94813713D01*
X122049500Y-95026287D01*
X122082754Y-95236243D01*
X122139717Y-95411557D01*
X122148444Y-95438414D01*
X122244951Y-95627820D01*
X122369890Y-95799786D01*
X122520213Y-95950109D01*
X122692182Y-96075050D01*
X122700946Y-96079516D01*
X122751742Y-96127491D01*
X122768536Y-96195312D01*
X122745998Y-96261447D01*
X122700946Y-96300484D01*
X122692182Y-96304949D01*
X122520213Y-96429890D01*
X122369890Y-96580213D01*
X122244951Y-96752179D01*
X122148444Y-96941585D01*
X122082753Y-97143760D01*
X122049500Y-97353713D01*
X122049500Y-97566286D01*
X122081723Y-97769738D01*
X122082754Y-97776243D01*
X122139717Y-97951557D01*
X122148444Y-97978414D01*
X122244951Y-98167820D01*
X122369890Y-98339786D01*
X122520213Y-98490109D01*
X122692182Y-98615050D01*
X122700946Y-98619516D01*
X122751742Y-98667491D01*
X122768536Y-98735312D01*
X122745998Y-98801447D01*
X122700946Y-98840484D01*
X122692182Y-98844949D01*
X122520213Y-98969890D01*
X122369890Y-99120213D01*
X122244951Y-99292179D01*
X122148444Y-99481585D01*
X122082753Y-99683760D01*
X122070929Y-99758414D01*
X122049500Y-99893713D01*
X122049500Y-100106287D01*
X122082754Y-100316243D01*
X122139717Y-100491557D01*
X122148444Y-100518414D01*
X122244951Y-100707820D01*
X122369890Y-100879786D01*
X122520213Y-101030109D01*
X122692182Y-101155050D01*
X122700946Y-101159516D01*
X122751742Y-101207491D01*
X122768536Y-101275312D01*
X122745998Y-101341447D01*
X122700946Y-101380484D01*
X122692182Y-101384949D01*
X122520213Y-101509890D01*
X122369890Y-101660213D01*
X122244951Y-101832179D01*
X122148444Y-102021585D01*
X122082753Y-102223760D01*
X122049500Y-102433713D01*
X122049500Y-102646286D01*
X122063311Y-102733489D01*
X122082754Y-102856243D01*
X122139717Y-103031557D01*
X122148444Y-103058414D01*
X122244951Y-103247820D01*
X122369890Y-103419786D01*
X122520213Y-103570109D01*
X122692182Y-103695050D01*
X122700946Y-103699516D01*
X122751742Y-103747491D01*
X122768536Y-103815312D01*
X122745998Y-103881447D01*
X122700946Y-103920484D01*
X122692182Y-103924949D01*
X122520213Y-104049890D01*
X122369890Y-104200213D01*
X122244951Y-104372179D01*
X122148444Y-104561585D01*
X122082753Y-104763760D01*
X122049500Y-104973713D01*
X122049500Y-105186286D01*
X122072078Y-105328842D01*
X122082754Y-105396243D01*
X122139717Y-105571557D01*
X122148444Y-105598414D01*
X122244951Y-105787820D01*
X122369890Y-105959786D01*
X122520213Y-106110109D01*
X122692182Y-106235050D01*
X122700946Y-106239516D01*
X122751742Y-106287491D01*
X122768536Y-106355312D01*
X122745998Y-106421447D01*
X122700946Y-106460484D01*
X122692182Y-106464949D01*
X122520213Y-106589890D01*
X122369890Y-106740213D01*
X122244951Y-106912179D01*
X122148444Y-107101585D01*
X122082753Y-107303760D01*
X122049500Y-107513713D01*
X122049500Y-107726286D01*
X122082753Y-107936239D01*
X122148444Y-108138414D01*
X122244951Y-108327820D01*
X122369890Y-108499786D01*
X122520213Y-108650109D01*
X122692182Y-108775050D01*
X122700946Y-108779516D01*
X122751742Y-108827491D01*
X122768536Y-108895312D01*
X122745998Y-108961447D01*
X122700946Y-109000484D01*
X122692182Y-109004949D01*
X122520213Y-109129890D01*
X122369890Y-109280213D01*
X122244951Y-109452179D01*
X122148444Y-109641585D01*
X122082753Y-109843760D01*
X122049500Y-110053713D01*
X122049500Y-110266286D01*
X122082753Y-110476239D01*
X122148444Y-110678414D01*
X122244951Y-110867820D01*
X122369890Y-111039786D01*
X122520213Y-111190109D01*
X122692179Y-111315048D01*
X122692181Y-111315049D01*
X122692184Y-111315051D01*
X122701493Y-111319794D01*
X122752290Y-111367766D01*
X122769087Y-111435587D01*
X122746552Y-111501722D01*
X122701505Y-111540760D01*
X122692446Y-111545376D01*
X122692440Y-111545380D01*
X122638282Y-111584727D01*
X122638282Y-111584728D01*
X123270591Y-112217037D01*
X123207007Y-112234075D01*
X123092993Y-112299901D01*
X122999901Y-112392993D01*
X122934075Y-112507007D01*
X122917037Y-112570591D01*
X122284728Y-111938282D01*
X122284727Y-111938282D01*
X122245380Y-111992439D01*
X122148904Y-112181782D01*
X122083242Y-112383869D01*
X122083242Y-112383872D01*
X122050000Y-112593753D01*
X122050000Y-112806246D01*
X122083242Y-113016127D01*
X122083242Y-113016130D01*
X122148904Y-113218217D01*
X122245375Y-113407550D01*
X122284728Y-113461716D01*
X122917037Y-112829408D01*
X122934075Y-112892993D01*
X122999901Y-113007007D01*
X123092993Y-113100099D01*
X123207007Y-113165925D01*
X123270591Y-113182962D01*
X122669971Y-113783581D01*
X122748711Y-113900895D01*
X122749920Y-113904729D01*
X122752844Y-113907491D01*
X122760343Y-113937778D01*
X122769727Y-113967529D01*
X122768671Y-113971408D01*
X122769638Y-113975312D01*
X122759573Y-114004844D01*
X122751383Y-114034947D01*
X122748397Y-114037640D01*
X122747100Y-114041447D01*
X122702051Y-114080483D01*
X122692440Y-114085380D01*
X122638282Y-114124727D01*
X122638282Y-114124728D01*
X123270591Y-114757037D01*
X123207007Y-114774075D01*
X123092993Y-114839901D01*
X122999901Y-114932993D01*
X122934075Y-115047007D01*
X122917037Y-115110591D01*
X122284728Y-114478282D01*
X122284727Y-114478282D01*
X122245380Y-114532439D01*
X122148904Y-114721782D01*
X122083242Y-114923869D01*
X122083242Y-114923872D01*
X122050000Y-115133753D01*
X122050000Y-115346246D01*
X122083242Y-115556127D01*
X122083242Y-115556130D01*
X122148904Y-115758217D01*
X122245375Y-115947550D01*
X122284728Y-116001716D01*
X122917037Y-115369408D01*
X122934075Y-115432993D01*
X122999901Y-115547007D01*
X123092993Y-115640099D01*
X123207007Y-115705925D01*
X123270590Y-115722962D01*
X122638282Y-116355269D01*
X122638282Y-116355270D01*
X122692449Y-116394624D01*
X122881782Y-116491095D01*
X123083870Y-116556757D01*
X123293754Y-116590000D01*
X123506246Y-116590000D01*
X123716127Y-116556757D01*
X123716130Y-116556757D01*
X123918217Y-116491095D01*
X124107554Y-116394622D01*
X124161716Y-116355270D01*
X124161717Y-116355270D01*
X123529408Y-115722962D01*
X123592993Y-115705925D01*
X123707007Y-115640099D01*
X123800099Y-115547007D01*
X123865925Y-115432993D01*
X123882962Y-115369408D01*
X124515270Y-116001717D01*
X124515270Y-116001716D01*
X124554622Y-115947554D01*
X124651095Y-115758217D01*
X124716757Y-115556130D01*
X124716757Y-115556127D01*
X124750000Y-115346246D01*
X124750000Y-115133753D01*
X124716757Y-114923872D01*
X124716757Y-114923869D01*
X124651095Y-114721782D01*
X124554624Y-114532449D01*
X124515270Y-114478282D01*
X124515269Y-114478282D01*
X123882962Y-115110590D01*
X123865925Y-115047007D01*
X123800099Y-114932993D01*
X123707007Y-114839901D01*
X123592993Y-114774075D01*
X123529409Y-114757037D01*
X124161716Y-114124728D01*
X124107550Y-114085375D01*
X124097954Y-114080486D01*
X124047157Y-114032512D01*
X124030361Y-113964692D01*
X124052897Y-113898556D01*
X124097954Y-113859514D01*
X124107554Y-113854622D01*
X124161716Y-113815270D01*
X124161717Y-113815270D01*
X123529408Y-113182962D01*
X123592993Y-113165925D01*
X123707007Y-113100099D01*
X123800099Y-113007007D01*
X123865925Y-112892993D01*
X123882962Y-112829408D01*
X124515270Y-113461717D01*
X124515270Y-113461716D01*
X124554622Y-113407554D01*
X124651095Y-113218217D01*
X124716757Y-113016130D01*
X124716757Y-113016127D01*
X124750000Y-112806246D01*
X124750000Y-112593753D01*
X124716757Y-112383872D01*
X124716757Y-112383869D01*
X124651095Y-112181782D01*
X124554624Y-111992449D01*
X124515270Y-111938282D01*
X124515269Y-111938282D01*
X123882962Y-112570590D01*
X123865925Y-112507007D01*
X123800099Y-112392993D01*
X123707007Y-112299901D01*
X123592993Y-112234075D01*
X123529409Y-112217037D01*
X124161716Y-111584728D01*
X124107547Y-111545373D01*
X124107547Y-111545372D01*
X124098500Y-111540763D01*
X124047706Y-111492788D01*
X124030912Y-111424966D01*
X124053451Y-111358832D01*
X124098508Y-111319793D01*
X124107816Y-111315051D01*
X124255784Y-111207547D01*
X124279786Y-111190109D01*
X124279788Y-111190106D01*
X124279792Y-111190104D01*
X124430104Y-111039792D01*
X124430106Y-111039788D01*
X124430109Y-111039786D01*
X124555048Y-110867820D01*
X124555047Y-110867820D01*
X124555051Y-110867816D01*
X124651557Y-110678412D01*
X124717246Y-110476243D01*
X124750500Y-110266287D01*
X124750500Y-110053713D01*
X124717246Y-109843757D01*
X124651557Y-109641588D01*
X124555051Y-109452184D01*
X124555049Y-109452181D01*
X124555048Y-109452179D01*
X124430109Y-109280213D01*
X124279786Y-109129890D01*
X124107820Y-109004951D01*
X124107115Y-109004591D01*
X124099054Y-109000485D01*
X124048259Y-108952512D01*
X124031463Y-108884692D01*
X124053999Y-108818556D01*
X124099054Y-108779515D01*
X124107816Y-108775051D01*
X124202574Y-108706206D01*
X124279786Y-108650109D01*
X124279788Y-108650106D01*
X124279792Y-108650104D01*
X124430104Y-108499792D01*
X124430106Y-108499788D01*
X124430109Y-108499786D01*
X124555048Y-108327820D01*
X124555047Y-108327820D01*
X124555051Y-108327816D01*
X124651557Y-108138412D01*
X124717246Y-107936243D01*
X124750500Y-107726287D01*
X124750500Y-107513713D01*
X124717246Y-107303757D01*
X124651557Y-107101588D01*
X124555051Y-106912184D01*
X124555049Y-106912181D01*
X124555048Y-106912179D01*
X124430109Y-106740213D01*
X124279786Y-106589890D01*
X124107820Y-106464951D01*
X124107115Y-106464591D01*
X124099054Y-106460485D01*
X124048259Y-106412512D01*
X124031463Y-106344692D01*
X124053999Y-106278556D01*
X124099054Y-106239515D01*
X124107816Y-106235051D01*
X124223699Y-106150858D01*
X124279786Y-106110109D01*
X124279792Y-106110104D01*
X124353077Y-106036819D01*
X124430104Y-105959792D01*
X124430106Y-105959788D01*
X124430109Y-105959786D01*
X124555048Y-105787820D01*
X124555047Y-105787820D01*
X124555051Y-105787816D01*
X124651557Y-105598412D01*
X124717246Y-105396243D01*
X124750500Y-105186287D01*
X124750500Y-104973713D01*
X124717246Y-104763757D01*
X124651557Y-104561588D01*
X124555051Y-104372184D01*
X124555049Y-104372181D01*
X124555048Y-104372179D01*
X124430109Y-104200213D01*
X124279786Y-104049890D01*
X124107820Y-103924951D01*
X124107115Y-103924591D01*
X124099054Y-103920485D01*
X124048259Y-103872512D01*
X124031463Y-103804692D01*
X124053999Y-103738556D01*
X124099054Y-103699515D01*
X124107816Y-103695051D01*
X124129789Y-103679086D01*
X124279786Y-103570109D01*
X124279788Y-103570106D01*
X124279792Y-103570104D01*
X124430104Y-103419792D01*
X124430106Y-103419788D01*
X124430109Y-103419786D01*
X124555048Y-103247820D01*
X124555047Y-103247820D01*
X124555051Y-103247816D01*
X124651557Y-103058412D01*
X124717246Y-102856243D01*
X124750500Y-102646287D01*
X124750500Y-102433713D01*
X124717246Y-102223757D01*
X124651557Y-102021588D01*
X124555051Y-101832184D01*
X124555049Y-101832181D01*
X124555048Y-101832179D01*
X124430109Y-101660213D01*
X124279786Y-101509890D01*
X124107820Y-101384951D01*
X124107115Y-101384591D01*
X124099054Y-101380485D01*
X124048259Y-101332512D01*
X124031463Y-101264692D01*
X124053999Y-101198556D01*
X124099054Y-101159515D01*
X124107816Y-101155051D01*
X124149866Y-101124500D01*
X124279786Y-101030109D01*
X124279788Y-101030106D01*
X124279792Y-101030104D01*
X124430104Y-100879792D01*
X124430106Y-100879788D01*
X124430109Y-100879786D01*
X124555048Y-100707820D01*
X124555047Y-100707820D01*
X124555051Y-100707816D01*
X124651557Y-100518412D01*
X124717246Y-100316243D01*
X124750500Y-100106287D01*
X124750500Y-99893713D01*
X124717246Y-99683757D01*
X124651557Y-99481588D01*
X124555051Y-99292184D01*
X124555049Y-99292181D01*
X124555048Y-99292179D01*
X124430109Y-99120213D01*
X124279786Y-98969890D01*
X124107820Y-98844951D01*
X124107115Y-98844591D01*
X124099054Y-98840485D01*
X124048259Y-98792512D01*
X124031463Y-98724692D01*
X124053999Y-98658556D01*
X124099054Y-98619515D01*
X124107816Y-98615051D01*
X124129789Y-98599086D01*
X124279786Y-98490109D01*
X124279788Y-98490106D01*
X124279792Y-98490104D01*
X124430104Y-98339792D01*
X124430106Y-98339788D01*
X124430109Y-98339786D01*
X124555048Y-98167820D01*
X124555047Y-98167820D01*
X124555051Y-98167816D01*
X124651557Y-97978412D01*
X124717246Y-97776243D01*
X124750500Y-97566287D01*
X124750500Y-97353713D01*
X124717246Y-97143757D01*
X124651557Y-96941588D01*
X124555051Y-96752184D01*
X124555049Y-96752181D01*
X124555048Y-96752179D01*
X124430109Y-96580213D01*
X124279786Y-96429890D01*
X124107820Y-96304951D01*
X124107115Y-96304591D01*
X124099054Y-96300485D01*
X124048259Y-96252512D01*
X124031463Y-96184692D01*
X124053999Y-96118556D01*
X124099054Y-96079515D01*
X124107816Y-96075051D01*
X124195004Y-96011706D01*
X124279786Y-95950109D01*
X124279788Y-95950106D01*
X124279792Y-95950104D01*
X124430104Y-95799792D01*
X124430106Y-95799788D01*
X124430109Y-95799786D01*
X124555048Y-95627820D01*
X124555047Y-95627820D01*
X124555051Y-95627816D01*
X124651557Y-95438412D01*
X124717246Y-95236243D01*
X124750500Y-95026287D01*
X124750500Y-94813713D01*
X124717246Y-94603757D01*
X124651557Y-94401588D01*
X124555051Y-94212184D01*
X124555049Y-94212181D01*
X124555048Y-94212179D01*
X124430109Y-94040213D01*
X124279786Y-93889890D01*
X124107820Y-93764951D01*
X124107115Y-93764591D01*
X124099054Y-93760485D01*
X124048259Y-93712512D01*
X124031463Y-93644692D01*
X124053999Y-93578556D01*
X124099054Y-93539515D01*
X124107816Y-93535051D01*
X124129789Y-93519086D01*
X124279786Y-93410109D01*
X124279788Y-93410106D01*
X124279792Y-93410104D01*
X124430104Y-93259792D01*
X124430106Y-93259788D01*
X124430109Y-93259786D01*
X124555048Y-93087820D01*
X124555047Y-93087820D01*
X124555051Y-93087816D01*
X124651557Y-92898412D01*
X124717246Y-92696243D01*
X124750500Y-92486287D01*
X124750500Y-92273713D01*
X124717246Y-92063757D01*
X124651557Y-91861588D01*
X124555051Y-91672184D01*
X124555049Y-91672181D01*
X124555048Y-91672179D01*
X124430109Y-91500213D01*
X124279786Y-91349890D01*
X124107820Y-91224951D01*
X124107115Y-91224591D01*
X124099054Y-91220485D01*
X124048259Y-91172512D01*
X124031463Y-91104692D01*
X124053999Y-91038556D01*
X124099054Y-90999515D01*
X124107816Y-90995051D01*
X124129789Y-90979086D01*
X124279786Y-90870109D01*
X124279788Y-90870106D01*
X124279792Y-90870104D01*
X124430104Y-90719792D01*
X124430106Y-90719788D01*
X124430109Y-90719786D01*
X124555048Y-90547820D01*
X124555047Y-90547820D01*
X124555051Y-90547816D01*
X124651557Y-90358412D01*
X124717246Y-90156243D01*
X124750500Y-89946287D01*
X124750500Y-89733713D01*
X124717246Y-89523757D01*
X124651557Y-89321588D01*
X124555051Y-89132184D01*
X124555049Y-89132181D01*
X124555048Y-89132179D01*
X124430109Y-88960213D01*
X124279786Y-88809890D01*
X124107820Y-88684951D01*
X124107115Y-88684591D01*
X124099054Y-88680485D01*
X124048259Y-88632512D01*
X124031463Y-88564692D01*
X124053999Y-88498556D01*
X124099054Y-88459515D01*
X124107816Y-88455051D01*
X124129789Y-88439086D01*
X124279786Y-88330109D01*
X124279788Y-88330106D01*
X124279792Y-88330104D01*
X124430104Y-88179792D01*
X124430106Y-88179788D01*
X124430109Y-88179786D01*
X124555048Y-88007820D01*
X124555047Y-88007820D01*
X124555051Y-88007816D01*
X124651557Y-87818412D01*
X124717246Y-87616243D01*
X124750500Y-87406287D01*
X124750500Y-87193713D01*
X124717246Y-86983757D01*
X124651557Y-86781588D01*
X124555051Y-86592184D01*
X124555049Y-86592181D01*
X124555048Y-86592179D01*
X124430109Y-86420213D01*
X124279786Y-86269890D01*
X124107820Y-86144951D01*
X124107115Y-86144591D01*
X124099054Y-86140485D01*
X124048259Y-86092512D01*
X124031463Y-86024692D01*
X124053999Y-85958556D01*
X124099054Y-85919515D01*
X124107816Y-85915051D01*
X124168694Y-85870821D01*
X124279786Y-85790109D01*
X124279788Y-85790106D01*
X124279792Y-85790104D01*
X124430104Y-85639792D01*
X124430106Y-85639788D01*
X124430109Y-85639786D01*
X124555048Y-85467820D01*
X124555047Y-85467820D01*
X124555051Y-85467816D01*
X124651557Y-85278412D01*
X124717246Y-85076243D01*
X124750500Y-84866287D01*
X124750500Y-84653713D01*
X124717246Y-84443757D01*
X124651557Y-84241588D01*
X124555051Y-84052184D01*
X124555049Y-84052181D01*
X124555048Y-84052179D01*
X124430109Y-83880213D01*
X124279786Y-83729890D01*
X124107820Y-83604951D01*
X124107115Y-83604591D01*
X124099054Y-83600485D01*
X124048259Y-83552512D01*
X124031463Y-83484692D01*
X124053999Y-83418556D01*
X124099054Y-83379515D01*
X124107816Y-83375051D01*
X124129789Y-83359086D01*
X124279786Y-83250109D01*
X124279788Y-83250106D01*
X124279792Y-83250104D01*
X124430104Y-83099792D01*
X124430106Y-83099788D01*
X124430109Y-83099786D01*
X124555048Y-82927820D01*
X124555047Y-82927820D01*
X124555051Y-82927816D01*
X124651557Y-82738412D01*
X124717246Y-82536243D01*
X124750500Y-82326287D01*
X124750500Y-82113713D01*
X124717246Y-81903757D01*
X124651557Y-81701588D01*
X124555051Y-81512184D01*
X124555049Y-81512181D01*
X124555048Y-81512179D01*
X124430109Y-81340213D01*
X124279786Y-81189890D01*
X124107820Y-81064951D01*
X124107115Y-81064591D01*
X124099054Y-81060485D01*
X124048259Y-81012512D01*
X124031463Y-80944692D01*
X124053999Y-80878556D01*
X124099054Y-80839515D01*
X124107816Y-80835051D01*
X124168990Y-80790606D01*
X124279786Y-80710109D01*
X124279788Y-80710106D01*
X124279792Y-80710104D01*
X124430104Y-80559792D01*
X124430106Y-80559788D01*
X124430109Y-80559786D01*
X124555048Y-80387820D01*
X124555047Y-80387820D01*
X124555051Y-80387816D01*
X124651557Y-80198412D01*
X124717246Y-79996243D01*
X124750500Y-79786287D01*
X124750500Y-79573713D01*
X124717246Y-79363757D01*
X124651557Y-79161588D01*
X124555051Y-78972184D01*
X124555049Y-78972181D01*
X124555048Y-78972179D01*
X124430109Y-78800213D01*
X124279786Y-78649890D01*
X124107820Y-78524951D01*
X124107115Y-78524591D01*
X124099054Y-78520485D01*
X124048259Y-78472512D01*
X124031463Y-78404692D01*
X124053999Y-78338556D01*
X124099054Y-78299515D01*
X124107816Y-78295051D01*
X124129789Y-78279086D01*
X124279786Y-78170109D01*
X124279788Y-78170106D01*
X124279792Y-78170104D01*
X124430104Y-78019792D01*
X124430106Y-78019788D01*
X124430109Y-78019786D01*
X124555048Y-77847820D01*
X124555047Y-77847820D01*
X124555051Y-77847816D01*
X124651557Y-77658412D01*
X124717246Y-77456243D01*
X124750500Y-77246287D01*
X124750500Y-77033713D01*
X124717246Y-76823757D01*
X124651557Y-76621588D01*
X124555051Y-76432184D01*
X124555049Y-76432181D01*
X124555048Y-76432179D01*
X124430109Y-76260213D01*
X124279786Y-76109890D01*
X124107820Y-75984951D01*
X124107115Y-75984591D01*
X124099054Y-75980485D01*
X124048259Y-75932512D01*
X124031463Y-75864692D01*
X124053999Y-75798556D01*
X124099054Y-75759515D01*
X124107816Y-75755051D01*
X124129789Y-75739086D01*
X124279786Y-75630109D01*
X124279788Y-75630106D01*
X124279792Y-75630104D01*
X124430104Y-75479792D01*
X124430106Y-75479788D01*
X124430109Y-75479786D01*
X124555048Y-75307820D01*
X124555047Y-75307820D01*
X124555051Y-75307816D01*
X124651557Y-75118412D01*
X124717246Y-74916243D01*
X124750500Y-74706287D01*
X124750500Y-74493713D01*
X124717246Y-74283757D01*
X124651557Y-74081588D01*
X124555051Y-73892184D01*
X124555049Y-73892181D01*
X124555048Y-73892179D01*
X124430109Y-73720213D01*
X124279786Y-73569890D01*
X124107820Y-73444951D01*
X124107115Y-73444591D01*
X124099054Y-73440485D01*
X124048259Y-73392512D01*
X124031463Y-73324692D01*
X124053999Y-73258556D01*
X124099054Y-73219515D01*
X124107816Y-73215051D01*
X124129789Y-73199086D01*
X124279786Y-73090109D01*
X124279788Y-73090106D01*
X124279792Y-73090104D01*
X124430104Y-72939792D01*
X124430106Y-72939788D01*
X124430109Y-72939786D01*
X124555048Y-72767820D01*
X124555047Y-72767820D01*
X124555051Y-72767816D01*
X124651557Y-72578412D01*
X124717246Y-72376243D01*
X124750500Y-72166287D01*
X124750500Y-71953713D01*
X124717246Y-71743757D01*
X124651557Y-71541588D01*
X124555051Y-71352184D01*
X124555049Y-71352181D01*
X124555048Y-71352179D01*
X124430109Y-71180213D01*
X124279786Y-71029890D01*
X124107820Y-70904951D01*
X124107115Y-70904591D01*
X124099054Y-70900485D01*
X124048259Y-70852512D01*
X124031463Y-70784692D01*
X124053999Y-70718556D01*
X124099054Y-70679515D01*
X124107816Y-70675051D01*
X124177394Y-70624500D01*
X124279786Y-70550109D01*
X124279788Y-70550106D01*
X124279792Y-70550104D01*
X124430104Y-70399792D01*
X124430106Y-70399788D01*
X124430109Y-70399786D01*
X124555048Y-70227820D01*
X124555047Y-70227820D01*
X124555051Y-70227816D01*
X124651557Y-70038412D01*
X124717246Y-69836243D01*
X124750500Y-69626287D01*
X124750500Y-69413713D01*
X124717246Y-69203757D01*
X124651557Y-69001588D01*
X124555051Y-68812184D01*
X124555049Y-68812181D01*
X124555048Y-68812179D01*
X124430109Y-68640213D01*
X124279786Y-68489890D01*
X124107820Y-68364951D01*
X124107115Y-68364591D01*
X124099054Y-68360485D01*
X124048259Y-68312512D01*
X124031463Y-68244692D01*
X124053999Y-68178556D01*
X124099054Y-68139515D01*
X124107816Y-68135051D01*
X124129789Y-68119086D01*
X124279786Y-68010109D01*
X124279788Y-68010106D01*
X124279792Y-68010104D01*
X124430104Y-67859792D01*
X124430106Y-67859788D01*
X124430109Y-67859786D01*
X124555048Y-67687820D01*
X124555047Y-67687820D01*
X124555051Y-67687816D01*
X124651557Y-67498412D01*
X124717246Y-67296243D01*
X124750500Y-67086287D01*
X124750500Y-66873713D01*
X124717246Y-66663757D01*
X124651557Y-66461588D01*
X124555051Y-66272184D01*
X124555049Y-66272181D01*
X124555048Y-66272179D01*
X124430109Y-66100213D01*
X124279786Y-65949890D01*
X124107820Y-65824951D01*
X124107115Y-65824591D01*
X124099054Y-65820485D01*
X124048259Y-65772512D01*
X124031463Y-65704692D01*
X124053999Y-65638556D01*
X124099054Y-65599515D01*
X124107816Y-65595051D01*
X124129789Y-65579086D01*
X124279786Y-65470109D01*
X124279788Y-65470106D01*
X124279792Y-65470104D01*
X124430104Y-65319792D01*
X124430106Y-65319788D01*
X124430109Y-65319786D01*
X124555048Y-65147820D01*
X124555047Y-65147820D01*
X124555051Y-65147816D01*
X124651557Y-64958412D01*
X124717246Y-64756243D01*
X124750500Y-64546287D01*
X124750500Y-64333713D01*
X124717246Y-64123757D01*
X124651557Y-63921588D01*
X124555051Y-63732184D01*
X124555049Y-63732181D01*
X124555048Y-63732179D01*
X124430109Y-63560213D01*
X124279786Y-63409890D01*
X124107817Y-63284949D01*
X124098504Y-63280204D01*
X124047707Y-63232230D01*
X124030912Y-63164409D01*
X124053449Y-63098274D01*
X124098507Y-63059232D01*
X124107555Y-63054622D01*
X124161716Y-63015270D01*
X124161717Y-63015270D01*
X123529408Y-62382962D01*
X123592993Y-62365925D01*
X123707007Y-62300099D01*
X123800099Y-62207007D01*
X123865925Y-62092993D01*
X123882962Y-62029408D01*
X124515270Y-62661717D01*
X124515270Y-62661716D01*
X124554622Y-62607554D01*
X124651095Y-62418217D01*
X124716757Y-62216130D01*
X124716757Y-62216127D01*
X124750000Y-62006246D01*
X124750000Y-61793753D01*
X124716757Y-61583872D01*
X124716757Y-61583869D01*
X124651095Y-61381782D01*
X124554624Y-61192449D01*
X124515270Y-61138282D01*
X124515269Y-61138282D01*
X123882962Y-61770590D01*
X123865925Y-61707007D01*
X123800099Y-61592993D01*
X123707007Y-61499901D01*
X123592993Y-61434075D01*
X123529409Y-61417037D01*
X124161716Y-60784728D01*
X124107550Y-60745375D01*
X123918217Y-60648904D01*
X123716129Y-60583242D01*
X123506246Y-60550000D01*
X123293754Y-60550000D01*
X123083872Y-60583242D01*
X123083869Y-60583242D01*
X122881782Y-60648904D01*
X122692439Y-60745380D01*
X122638282Y-60784727D01*
X122638282Y-60784728D01*
X123270591Y-61417037D01*
X123207007Y-61434075D01*
X123092993Y-61499901D01*
X122999901Y-61592993D01*
X122934075Y-61707007D01*
X122917037Y-61770591D01*
X122284728Y-61138282D01*
X122284727Y-61138282D01*
X122245380Y-61192439D01*
X122148904Y-61381782D01*
X122083242Y-61583869D01*
X122083242Y-61583872D01*
X122050000Y-61793753D01*
X122050000Y-62006246D01*
X122083242Y-62216127D01*
X122083242Y-62216130D01*
X122148904Y-62418217D01*
X122245375Y-62607550D01*
X122284728Y-62661716D01*
X122917037Y-62029408D01*
X122934075Y-62092993D01*
X122999901Y-62207007D01*
X123092993Y-62300099D01*
X123207007Y-62365925D01*
X123270590Y-62382962D01*
X122638282Y-63015269D01*
X122638282Y-63015270D01*
X122692452Y-63054626D01*
X122692451Y-63054626D01*
X122701495Y-63059234D01*
X122752292Y-63107208D01*
X122769087Y-63175029D01*
X122746550Y-63241164D01*
X122701499Y-63280202D01*
X122692182Y-63284949D01*
X122520213Y-63409890D01*
X122369890Y-63560213D01*
X122244951Y-63732179D01*
X122148444Y-63921585D01*
X122082753Y-64123760D01*
X122049500Y-64333713D01*
X99350500Y-64333713D01*
X99317246Y-64123757D01*
X99251557Y-63921588D01*
X99155051Y-63732184D01*
X99155049Y-63732181D01*
X99155048Y-63732179D01*
X99030109Y-63560213D01*
X98916569Y-63446673D01*
X98883084Y-63385350D01*
X98888068Y-63315658D01*
X98929940Y-63259725D01*
X98960915Y-63242810D01*
X99092331Y-63193796D01*
X99207546Y-63107546D01*
X99293796Y-62992331D01*
X99344091Y-62857483D01*
X99350500Y-62797873D01*
X99350499Y-61002128D01*
X99344091Y-60942517D01*
X99307617Y-60844726D01*
X99293798Y-60807673D01*
X99293793Y-60807664D01*
X99207547Y-60692455D01*
X99207544Y-60692452D01*
X99092335Y-60606206D01*
X99092328Y-60606202D01*
X98957482Y-60555908D01*
X98957483Y-60555908D01*
X98897883Y-60549501D01*
X98897881Y-60549500D01*
X98897873Y-60549500D01*
X98897864Y-60549500D01*
X97102129Y-60549500D01*
X97102123Y-60549501D01*
X97042516Y-60555908D01*
X96907671Y-60606202D01*
X96907664Y-60606206D01*
X96792455Y-60692452D01*
X96792452Y-60692455D01*
X96706206Y-60807664D01*
X96706202Y-60807671D01*
X96655908Y-60942517D01*
X96649501Y-61002116D01*
X96649501Y-61002123D01*
X96649500Y-61002135D01*
X96649500Y-61025500D01*
X96629815Y-61092539D01*
X96577011Y-61138294D01*
X96525500Y-61149500D01*
X84276080Y-61149500D01*
X84131092Y-61178340D01*
X84131082Y-61178343D01*
X83994511Y-61234912D01*
X83994498Y-61234919D01*
X83871584Y-61317048D01*
X83871580Y-61317051D01*
X81667047Y-63521584D01*
X81667042Y-63521590D01*
X81641243Y-63560205D01*
X81641241Y-63560208D01*
X81612981Y-63602501D01*
X81584914Y-63644507D01*
X81528343Y-63781082D01*
X81528340Y-63781092D01*
X81499500Y-63926079D01*
X81499500Y-69445396D01*
X81498913Y-69448343D01*
X81498491Y-69461183D01*
X81496386Y-69477575D01*
X81480263Y-69516503D01*
X81449500Y-69671158D01*
X73799072Y-69671158D01*
X73800500Y-69657873D01*
X73800499Y-67862128D01*
X73794091Y-67802517D01*
X73751310Y-67687816D01*
X73743797Y-67667671D01*
X73743793Y-67667664D01*
X73657547Y-67552455D01*
X73657544Y-67552452D01*
X73542335Y-67466206D01*
X73542328Y-67466202D01*
X73407482Y-67415908D01*
X73407483Y-67415908D01*
X73347883Y-67409501D01*
X73347881Y-67409500D01*
X73347873Y-67409500D01*
X73347864Y-67409500D01*
X71552129Y-67409500D01*
X71552123Y-67409501D01*
X71492516Y-67415908D01*
X71357671Y-67466202D01*
X71357664Y-67466206D01*
X71242455Y-67552452D01*
X71242452Y-67552455D01*
X71156206Y-67667664D01*
X71156202Y-67667671D01*
X71105908Y-67802517D01*
X71099751Y-67859792D01*
X71099501Y-67862123D01*
X71099500Y-67862135D01*
X66834624Y-67862135D01*
X66834621Y-67862127D01*
X66793797Y-67752671D01*
X66793793Y-67752664D01*
X66707547Y-67637455D01*
X66707544Y-67637452D01*
X66592335Y-67551206D01*
X66592328Y-67551202D01*
X66457482Y-67500908D01*
X66457483Y-67500908D01*
X66397883Y-67494501D01*
X66397881Y-67494500D01*
X66397873Y-67494500D01*
X66397864Y-67494500D01*
X64602129Y-67494500D01*
X64602123Y-67494501D01*
X64542516Y-67500908D01*
X64407671Y-67551202D01*
X64407664Y-67551206D01*
X64292455Y-67637452D01*
X64292452Y-67637455D01*
X64206206Y-67752664D01*
X64206202Y-67752671D01*
X64155908Y-67887517D01*
X64149501Y-67947116D01*
X64149501Y-67947123D01*
X64149500Y-67947135D01*
X56000500Y-67947135D01*
X56000500Y-47827135D01*
X64649500Y-47827135D01*
X64649500Y-49622870D01*
X64649501Y-49622876D01*
X64655908Y-49682483D01*
X64706202Y-49817328D01*
X64706206Y-49817335D01*
X64792452Y-49932544D01*
X64792455Y-49932547D01*
X64907664Y-50018793D01*
X64907671Y-50018797D01*
X64952618Y-50035561D01*
X65042517Y-50069091D01*
X65102127Y-50075500D01*
X65112685Y-50075499D01*
X65179723Y-50095179D01*
X65200372Y-50111818D01*
X65870591Y-50782037D01*
X65807007Y-50799075D01*
X65692993Y-50864901D01*
X65599901Y-50957993D01*
X65534075Y-51072007D01*
X65517037Y-51135591D01*
X64884728Y-50503282D01*
X64884727Y-50503282D01*
X64845380Y-50557439D01*
X64748904Y-50746782D01*
X64683242Y-50948869D01*
X64683242Y-50948872D01*
X64650000Y-51158753D01*
X64650000Y-51371246D01*
X64683242Y-51581127D01*
X64683242Y-51581130D01*
X64748904Y-51783217D01*
X64845375Y-51972550D01*
X64884728Y-52026716D01*
X65517037Y-51394408D01*
X65534075Y-51457993D01*
X65599901Y-51572007D01*
X65692993Y-51665099D01*
X65807007Y-51730925D01*
X65870590Y-51747962D01*
X65238282Y-52380269D01*
X65238282Y-52380270D01*
X65292449Y-52419624D01*
X65481782Y-52516095D01*
X65683870Y-52581757D01*
X65893754Y-52615000D01*
X66106246Y-52615000D01*
X66316127Y-52581757D01*
X66316130Y-52581757D01*
X66518217Y-52516095D01*
X66707554Y-52419622D01*
X66761716Y-52380270D01*
X66761717Y-52380270D01*
X66129408Y-51747962D01*
X66192993Y-51730925D01*
X66307007Y-51665099D01*
X66400099Y-51572007D01*
X66465925Y-51457993D01*
X66482962Y-51394409D01*
X67115270Y-52026717D01*
X67115270Y-52026716D01*
X67154622Y-51972554D01*
X67251095Y-51783217D01*
X67316757Y-51581130D01*
X67316757Y-51581127D01*
X67350000Y-51371246D01*
X67350000Y-51158753D01*
X67316757Y-50948872D01*
X67316757Y-50948869D01*
X67251095Y-50746782D01*
X67154624Y-50557449D01*
X67115270Y-50503282D01*
X67115269Y-50503282D01*
X66482962Y-51135590D01*
X66465925Y-51072007D01*
X66400099Y-50957993D01*
X66307007Y-50864901D01*
X66192993Y-50799075D01*
X66129409Y-50782037D01*
X66799627Y-50111818D01*
X66860950Y-50078333D01*
X66887307Y-50075499D01*
X66897872Y-50075499D01*
X66957483Y-50069091D01*
X67092331Y-50018796D01*
X67207546Y-49932546D01*
X67293796Y-49817331D01*
X67344091Y-49682483D01*
X67350500Y-49622873D01*
X67350499Y-48099983D01*
X74459500Y-48099983D01*
X74459500Y-51900001D01*
X74459501Y-51900018D01*
X74470000Y-52002796D01*
X74470001Y-52002799D01*
X74525185Y-52169331D01*
X74525186Y-52169334D01*
X74617288Y-52318656D01*
X74741344Y-52442712D01*
X74890666Y-52534814D01*
X75057203Y-52589999D01*
X75159991Y-52600500D01*
X77920008Y-52600499D01*
X78022797Y-52589999D01*
X78189334Y-52534814D01*
X78338656Y-52442712D01*
X78462712Y-52318656D01*
X78554814Y-52169334D01*
X78609999Y-52002797D01*
X78620500Y-51900009D01*
X78620499Y-51852651D01*
X78640182Y-51785616D01*
X78692985Y-51739860D01*
X78762144Y-51729915D01*
X78825700Y-51758938D01*
X78842874Y-51777166D01*
X78932818Y-51894382D01*
X78932826Y-51894391D01*
X79125609Y-52087174D01*
X79125617Y-52087181D01*
X79341933Y-52253168D01*
X79578062Y-52389496D01*
X79578072Y-52389500D01*
X79829970Y-52493840D01*
X80093344Y-52564411D01*
X80250000Y-52585034D01*
X80250000Y-50867904D01*
X80411358Y-50900000D01*
X80588642Y-50900000D01*
X80750000Y-50867904D01*
X80750000Y-52585033D01*
X80906655Y-52564411D01*
X81170029Y-52493840D01*
X81421927Y-52389500D01*
X81421937Y-52389496D01*
X81658066Y-52253168D01*
X81874382Y-52087181D01*
X81874391Y-52087174D01*
X82067174Y-51894391D01*
X82067181Y-51894382D01*
X82233168Y-51678066D01*
X82371528Y-51438418D01*
X82372883Y-51439200D01*
X82415771Y-51392546D01*
X82483360Y-51374837D01*
X82549792Y-51396481D01*
X82586907Y-51439283D01*
X82588023Y-51438640D01*
X82726415Y-51678343D01*
X82892439Y-51894710D01*
X82892445Y-51894717D01*
X83085282Y-52087554D01*
X83085289Y-52087560D01*
X83301656Y-52253584D01*
X83537840Y-52389945D01*
X83537855Y-52389952D01*
X83609490Y-52419624D01*
X83789810Y-52494315D01*
X84053244Y-52564902D01*
X84323637Y-52600500D01*
X84323644Y-52600500D01*
X84596356Y-52600500D01*
X84596363Y-52600500D01*
X84866756Y-52564902D01*
X85130190Y-52494315D01*
X85382156Y-52389947D01*
X85618344Y-52253584D01*
X85834712Y-52087559D01*
X86027559Y-51894712D01*
X86193584Y-51678344D01*
X86329947Y-51442156D01*
X86329946Y-51442156D01*
X86331977Y-51438640D01*
X86333420Y-51439473D01*
X86376083Y-51393093D01*
X86443676Y-51375405D01*
X86510103Y-51397068D01*
X86546758Y-51439370D01*
X86548023Y-51438640D01*
X86686415Y-51678343D01*
X86852439Y-51894710D01*
X86852445Y-51894717D01*
X87045282Y-52087554D01*
X87045289Y-52087560D01*
X87261656Y-52253584D01*
X87497840Y-52389945D01*
X87497855Y-52389952D01*
X87569490Y-52419624D01*
X87749810Y-52494315D01*
X88013244Y-52564902D01*
X88283637Y-52600500D01*
X88283644Y-52600500D01*
X88556356Y-52600500D01*
X88556363Y-52600500D01*
X88826756Y-52564902D01*
X89090190Y-52494315D01*
X89342156Y-52389947D01*
X89578344Y-52253584D01*
X89794712Y-52087559D01*
X89987559Y-51894712D01*
X90153584Y-51678344D01*
X90289947Y-51442156D01*
X90394315Y-51190190D01*
X90464902Y-50926756D01*
X90500500Y-50656363D01*
X90500500Y-49343637D01*
X90464902Y-49073244D01*
X90405656Y-48852135D01*
X94684500Y-48852135D01*
X94684500Y-51147870D01*
X94684501Y-51147876D01*
X94690908Y-51207483D01*
X94741202Y-51342328D01*
X94741206Y-51342335D01*
X94827452Y-51457544D01*
X94827455Y-51457547D01*
X94942664Y-51543793D01*
X94942671Y-51543797D01*
X95077517Y-51594091D01*
X95077516Y-51594091D01*
X95084444Y-51594835D01*
X95137127Y-51600500D01*
X97432872Y-51600499D01*
X97492483Y-51594091D01*
X97627331Y-51543796D01*
X97742546Y-51457546D01*
X97828796Y-51342331D01*
X97879091Y-51207483D01*
X97885500Y-51147873D01*
X97885499Y-49874038D01*
X98494500Y-49874038D01*
X98494500Y-50125962D01*
X98516129Y-50262520D01*
X98533910Y-50374785D01*
X98611760Y-50614383D01*
X98688504Y-50765000D01*
X98725995Y-50838581D01*
X98726132Y-50838848D01*
X98874201Y-51042649D01*
X98874205Y-51042654D01*
X99052345Y-51220794D01*
X99052350Y-51220798D01*
X99113191Y-51265001D01*
X99256155Y-51368870D01*
X99394519Y-51439370D01*
X99480616Y-51483239D01*
X99480618Y-51483239D01*
X99480621Y-51483241D01*
X99720215Y-51561090D01*
X99969038Y-51600500D01*
X99969039Y-51600500D01*
X100220961Y-51600500D01*
X100220962Y-51600500D01*
X100469785Y-51561090D01*
X100709379Y-51483241D01*
X100933845Y-51368870D01*
X101137656Y-51220793D01*
X101315793Y-51042656D01*
X101463870Y-50838845D01*
X101578241Y-50614379D01*
X101656090Y-50374785D01*
X101695500Y-50125962D01*
X101695500Y-49874071D01*
X102305000Y-49874071D01*
X102305000Y-50125928D01*
X102344397Y-50374669D01*
X102422219Y-50614184D01*
X102536557Y-50838583D01*
X102610748Y-50940697D01*
X102610748Y-50940698D01*
X103381212Y-50170234D01*
X103392482Y-50212292D01*
X103464890Y-50337708D01*
X103567292Y-50440110D01*
X103692708Y-50512518D01*
X103734765Y-50523787D01*
X102964300Y-51294250D01*
X103066416Y-51368442D01*
X103290815Y-51482780D01*
X103530330Y-51560602D01*
X103779072Y-51600000D01*
X104030928Y-51600000D01*
X104279669Y-51560602D01*
X104519184Y-51482780D01*
X104743575Y-51368446D01*
X104743581Y-51368442D01*
X104845697Y-51294250D01*
X104845698Y-51294250D01*
X104075234Y-50523787D01*
X104117292Y-50512518D01*
X104242708Y-50440110D01*
X104345110Y-50337708D01*
X104417518Y-50212292D01*
X104428787Y-50170235D01*
X105199250Y-50940698D01*
X105199250Y-50940697D01*
X105273442Y-50838581D01*
X105273446Y-50838575D01*
X105387780Y-50614184D01*
X105465602Y-50374669D01*
X105505000Y-50125928D01*
X105505000Y-49874071D01*
X105504995Y-49874038D01*
X106114500Y-49874038D01*
X106114500Y-50125962D01*
X106136129Y-50262520D01*
X106153910Y-50374785D01*
X106231760Y-50614383D01*
X106308504Y-50765000D01*
X106345995Y-50838581D01*
X106346132Y-50838848D01*
X106494201Y-51042649D01*
X106494205Y-51042654D01*
X106672345Y-51220794D01*
X106672350Y-51220798D01*
X106733191Y-51265001D01*
X106876155Y-51368870D01*
X107014519Y-51439370D01*
X107100616Y-51483239D01*
X107100618Y-51483239D01*
X107100621Y-51483241D01*
X107340215Y-51561090D01*
X107589038Y-51600500D01*
X107589039Y-51600500D01*
X107840961Y-51600500D01*
X107840962Y-51600500D01*
X108089785Y-51561090D01*
X108329379Y-51483241D01*
X108553845Y-51368870D01*
X108757656Y-51220793D01*
X108935793Y-51042656D01*
X109083870Y-50838845D01*
X109198241Y-50614379D01*
X109276090Y-50374785D01*
X109315500Y-50125962D01*
X109315500Y-49874038D01*
X109276090Y-49625215D01*
X109198241Y-49385621D01*
X109198239Y-49385618D01*
X109198239Y-49385616D01*
X109155086Y-49300924D01*
X109083870Y-49161155D01*
X109064567Y-49134586D01*
X108935798Y-48957350D01*
X108935794Y-48957345D01*
X108757654Y-48779205D01*
X108757649Y-48779201D01*
X108553848Y-48631132D01*
X108553847Y-48631131D01*
X108553845Y-48631130D01*
X108483747Y-48595413D01*
X108329383Y-48516760D01*
X108089785Y-48438910D01*
X107840962Y-48399500D01*
X107589038Y-48399500D01*
X107464626Y-48419205D01*
X107340214Y-48438910D01*
X107100616Y-48516760D01*
X106876151Y-48631132D01*
X106672350Y-48779201D01*
X106672345Y-48779205D01*
X106494205Y-48957345D01*
X106494201Y-48957350D01*
X106346132Y-49161151D01*
X106231760Y-49385616D01*
X106153910Y-49625214D01*
X106136129Y-49737480D01*
X106114500Y-49874038D01*
X105504995Y-49874038D01*
X105465602Y-49625330D01*
X105387780Y-49385815D01*
X105273442Y-49161416D01*
X105199250Y-49059301D01*
X105199250Y-49059300D01*
X104428787Y-49829764D01*
X104417518Y-49787708D01*
X104345110Y-49662292D01*
X104242708Y-49559890D01*
X104117292Y-49487482D01*
X104075232Y-49476212D01*
X104845698Y-48705748D01*
X104743583Y-48631557D01*
X104519184Y-48517219D01*
X104279669Y-48439397D01*
X104030928Y-48400000D01*
X103779072Y-48400000D01*
X103530330Y-48439397D01*
X103290815Y-48517219D01*
X103066413Y-48631559D01*
X102964301Y-48705747D01*
X102964300Y-48705748D01*
X103734765Y-49476212D01*
X103692708Y-49487482D01*
X103567292Y-49559890D01*
X103464890Y-49662292D01*
X103392482Y-49787708D01*
X103381212Y-49829765D01*
X102610748Y-49059300D01*
X102610747Y-49059301D01*
X102536559Y-49161413D01*
X102422219Y-49385815D01*
X102344397Y-49625330D01*
X102305000Y-49874071D01*
X101695500Y-49874071D01*
X101695500Y-49874038D01*
X101656090Y-49625215D01*
X101578241Y-49385621D01*
X101578239Y-49385618D01*
X101578239Y-49385616D01*
X101535086Y-49300924D01*
X101463870Y-49161155D01*
X101444567Y-49134586D01*
X101315798Y-48957350D01*
X101315794Y-48957345D01*
X101137654Y-48779205D01*
X101137649Y-48779201D01*
X100933848Y-48631132D01*
X100933847Y-48631131D01*
X100933845Y-48631130D01*
X100863747Y-48595413D01*
X100709383Y-48516760D01*
X100469785Y-48438910D01*
X100220962Y-48399500D01*
X99969038Y-48399500D01*
X99844626Y-48419205D01*
X99720214Y-48438910D01*
X99480616Y-48516760D01*
X99256151Y-48631132D01*
X99052350Y-48779201D01*
X99052345Y-48779205D01*
X98874205Y-48957345D01*
X98874201Y-48957350D01*
X98726132Y-49161151D01*
X98611760Y-49385616D01*
X98533910Y-49625214D01*
X98516129Y-49737480D01*
X98494500Y-49874038D01*
X97885499Y-49874038D01*
X97885499Y-48852128D01*
X97879091Y-48792517D01*
X97874124Y-48779201D01*
X97828797Y-48657671D01*
X97828793Y-48657664D01*
X97742547Y-48542455D01*
X97742544Y-48542452D01*
X97627335Y-48456206D01*
X97627328Y-48456202D01*
X97492482Y-48405908D01*
X97492483Y-48405908D01*
X97432883Y-48399501D01*
X97432881Y-48399500D01*
X97432873Y-48399500D01*
X97432864Y-48399500D01*
X95137129Y-48399500D01*
X95137123Y-48399501D01*
X95077516Y-48405908D01*
X94942671Y-48456202D01*
X94942664Y-48456206D01*
X94827455Y-48542452D01*
X94827452Y-48542455D01*
X94741206Y-48657664D01*
X94741202Y-48657671D01*
X94690908Y-48792517D01*
X94684501Y-48852116D01*
X94684501Y-48852123D01*
X94684500Y-48852135D01*
X90405656Y-48852135D01*
X90394315Y-48809810D01*
X90320303Y-48631130D01*
X90289952Y-48557855D01*
X90289945Y-48557840D01*
X90153584Y-48321656D01*
X89987560Y-48105289D01*
X89987554Y-48105282D01*
X89794717Y-47912445D01*
X89794710Y-47912439D01*
X89578343Y-47746415D01*
X89342159Y-47610054D01*
X89342144Y-47610047D01*
X89090188Y-47505684D01*
X88826754Y-47435097D01*
X88556372Y-47399501D01*
X88556369Y-47399500D01*
X88556363Y-47399500D01*
X88283637Y-47399500D01*
X88283631Y-47399500D01*
X88283627Y-47399501D01*
X88013245Y-47435097D01*
X87749811Y-47505684D01*
X87497855Y-47610047D01*
X87497840Y-47610054D01*
X87261656Y-47746415D01*
X87045289Y-47912439D01*
X87045282Y-47912445D01*
X86852445Y-48105282D01*
X86852439Y-48105289D01*
X86686415Y-48321656D01*
X86548023Y-48561360D01*
X86546585Y-48560530D01*
X86503885Y-48606926D01*
X86436286Y-48624593D01*
X86369866Y-48602909D01*
X86333234Y-48560634D01*
X86331977Y-48561360D01*
X86193584Y-48321656D01*
X86027560Y-48105289D01*
X86027554Y-48105282D01*
X85834717Y-47912445D01*
X85834710Y-47912439D01*
X85618343Y-47746415D01*
X85382159Y-47610054D01*
X85382144Y-47610047D01*
X85130188Y-47505684D01*
X84866754Y-47435097D01*
X84596372Y-47399501D01*
X84596369Y-47399500D01*
X84596363Y-47399500D01*
X84323637Y-47399500D01*
X84323631Y-47399500D01*
X84323627Y-47399501D01*
X84053245Y-47435097D01*
X83789811Y-47505684D01*
X83537855Y-47610047D01*
X83537840Y-47610054D01*
X83301656Y-47746415D01*
X83085289Y-47912439D01*
X83085282Y-47912445D01*
X82892445Y-48105282D01*
X82892439Y-48105289D01*
X82726415Y-48321656D01*
X82588023Y-48561360D01*
X82586750Y-48560625D01*
X82543571Y-48607512D01*
X82475966Y-48625158D01*
X82409553Y-48603453D01*
X82372707Y-48560901D01*
X82371528Y-48561582D01*
X82233168Y-48321933D01*
X82067181Y-48105617D01*
X82067174Y-48105609D01*
X81874391Y-47912826D01*
X81874382Y-47912818D01*
X81658066Y-47746831D01*
X81421937Y-47610503D01*
X81421927Y-47610499D01*
X81170029Y-47506159D01*
X80906655Y-47435588D01*
X80750000Y-47414963D01*
X80750000Y-49132095D01*
X80588642Y-49100000D01*
X80411358Y-49100000D01*
X80250000Y-49132095D01*
X80250000Y-47414963D01*
X80249999Y-47414963D01*
X80093344Y-47435588D01*
X79829970Y-47506159D01*
X79578072Y-47610499D01*
X79578062Y-47610503D01*
X79341933Y-47746831D01*
X79125617Y-47912818D01*
X78932818Y-48105617D01*
X78842874Y-48222834D01*
X78786446Y-48264036D01*
X78716700Y-48268191D01*
X78655780Y-48233978D01*
X78623028Y-48172261D01*
X78620499Y-48147347D01*
X78620499Y-48099998D01*
X78620498Y-48099981D01*
X78609999Y-47997203D01*
X78609998Y-47997200D01*
X78582039Y-47912826D01*
X78554814Y-47830666D01*
X78462712Y-47681344D01*
X78338656Y-47557288D01*
X78189334Y-47465186D01*
X78022797Y-47410001D01*
X78022795Y-47410000D01*
X77920010Y-47399500D01*
X75159998Y-47399500D01*
X75159981Y-47399501D01*
X75057203Y-47410000D01*
X75057200Y-47410001D01*
X74890668Y-47465185D01*
X74890663Y-47465187D01*
X74741342Y-47557289D01*
X74617289Y-47681342D01*
X74525187Y-47830663D01*
X74525186Y-47830666D01*
X74470001Y-47997203D01*
X74470001Y-47997204D01*
X74470000Y-47997204D01*
X74459500Y-48099983D01*
X67350499Y-48099983D01*
X67350499Y-47827128D01*
X67344091Y-47767517D01*
X67336220Y-47746415D01*
X67293797Y-47632671D01*
X67293793Y-47632664D01*
X67207547Y-47517455D01*
X67207544Y-47517452D01*
X67092335Y-47431206D01*
X67092328Y-47431202D01*
X66957482Y-47380908D01*
X66957483Y-47380908D01*
X66897883Y-47374501D01*
X66897881Y-47374500D01*
X66897873Y-47374500D01*
X66897864Y-47374500D01*
X65102129Y-47374500D01*
X65102123Y-47374501D01*
X65042516Y-47380908D01*
X64907671Y-47431202D01*
X64907664Y-47431206D01*
X64792455Y-47517452D01*
X64792452Y-47517455D01*
X64706206Y-47632664D01*
X64706202Y-47632671D01*
X64655908Y-47767517D01*
X64649501Y-47827116D01*
X64649501Y-47827123D01*
X64649500Y-47827135D01*
X56000500Y-47827135D01*
X56000500Y-44893713D01*
X57649500Y-44893713D01*
X57649500Y-45106286D01*
X57682753Y-45316239D01*
X57748444Y-45518414D01*
X57844951Y-45707820D01*
X57969890Y-45879786D01*
X58120213Y-46030109D01*
X58292179Y-46155048D01*
X58292181Y-46155049D01*
X58292184Y-46155051D01*
X58481588Y-46251557D01*
X58683757Y-46317246D01*
X58893713Y-46350500D01*
X58893714Y-46350500D01*
X59106286Y-46350500D01*
X59106287Y-46350500D01*
X59316243Y-46317246D01*
X59518412Y-46251557D01*
X59707816Y-46155051D01*
X59729789Y-46139086D01*
X59879786Y-46030109D01*
X59879788Y-46030106D01*
X59879792Y-46030104D01*
X60030104Y-45879792D01*
X60030106Y-45879788D01*
X60030109Y-45879786D01*
X60155048Y-45707820D01*
X60155047Y-45707820D01*
X60155051Y-45707816D01*
X60251557Y-45518412D01*
X60317246Y-45316243D01*
X60350500Y-45106287D01*
X60350500Y-44893713D01*
X123349500Y-44893713D01*
X123349500Y-45106286D01*
X123382753Y-45316239D01*
X123448444Y-45518414D01*
X123544951Y-45707820D01*
X123669890Y-45879786D01*
X123820213Y-46030109D01*
X123992179Y-46155048D01*
X123992181Y-46155049D01*
X123992184Y-46155051D01*
X124181588Y-46251557D01*
X124383757Y-46317246D01*
X124593713Y-46350500D01*
X124593714Y-46350500D01*
X124806286Y-46350500D01*
X124806287Y-46350500D01*
X125016243Y-46317246D01*
X125218412Y-46251557D01*
X125407816Y-46155051D01*
X125429789Y-46139086D01*
X125579786Y-46030109D01*
X125579788Y-46030106D01*
X125579792Y-46030104D01*
X125730104Y-45879792D01*
X125730106Y-45879788D01*
X125730109Y-45879786D01*
X125855048Y-45707820D01*
X125855047Y-45707820D01*
X125855051Y-45707816D01*
X125951557Y-45518412D01*
X126017246Y-45316243D01*
X126050500Y-45106287D01*
X126050500Y-44893713D01*
X126017246Y-44683757D01*
X125951557Y-44481588D01*
X125855051Y-44292184D01*
X125855049Y-44292181D01*
X125855048Y-44292179D01*
X125730109Y-44120213D01*
X125579786Y-43969890D01*
X125407820Y-43844951D01*
X125218414Y-43748444D01*
X125218413Y-43748443D01*
X125218412Y-43748443D01*
X125016243Y-43682754D01*
X125016241Y-43682753D01*
X125016240Y-43682753D01*
X124854957Y-43657208D01*
X124806287Y-43649500D01*
X124593713Y-43649500D01*
X124545042Y-43657208D01*
X124383760Y-43682753D01*
X124181585Y-43748444D01*
X123992179Y-43844951D01*
X123820213Y-43969890D01*
X123669890Y-44120213D01*
X123544951Y-44292179D01*
X123448444Y-44481585D01*
X123382753Y-44683760D01*
X123349500Y-44893713D01*
X60350500Y-44893713D01*
X60317246Y-44683757D01*
X60251557Y-44481588D01*
X60155051Y-44292184D01*
X60155049Y-44292181D01*
X60155048Y-44292179D01*
X60030109Y-44120213D01*
X59879786Y-43969890D01*
X59707820Y-43844951D01*
X59518414Y-43748444D01*
X59518413Y-43748443D01*
X59518412Y-43748443D01*
X59316243Y-43682754D01*
X59316241Y-43682753D01*
X59316240Y-43682753D01*
X59154957Y-43657208D01*
X59106287Y-43649500D01*
X58893713Y-43649500D01*
X58845042Y-43657208D01*
X58683760Y-43682753D01*
X58481585Y-43748444D01*
X58292179Y-43844951D01*
X58120213Y-43969890D01*
X57969890Y-44120213D01*
X57844951Y-44292179D01*
X57748444Y-44481585D01*
X57682753Y-44683760D01*
X57649500Y-44893713D01*
X56000500Y-44893713D01*
X56000500Y-40624500D01*
X56020185Y-40557461D01*
X56072989Y-40511706D01*
X56124500Y-40500500D01*
X128375500Y-40500500D01*
X128442539Y-40520185D01*
G37*
%TD.AperFunction*%
%TD*%
M02*
