%TF.GenerationSoftware,KiCad,Pcbnew,10.0.0*%
%TF.CreationDate,2026-05-08T23:19:57-05:00*%
%TF.ProjectId,ti99-kb-adapter,74693939-2d6b-4622-9d61-646170746572,rev?*%
%TF.SameCoordinates,Original*%
%TF.FileFunction,Legend,Top*%
%TF.FilePolarity,Positive*%
%FSLAX46Y46*%
G04 Gerber Fmt 4.6, Leading zero omitted, Abs format (unit mm)*
G04 Created by KiCad (PCBNEW 10.0.0) date 2026-05-08 23:19:57*
%MOMM*%
%LPD*%
G01*
G04 APERTURE LIST*
%ADD10C,0.100000*%
%ADD11C,0.120000*%
G04 APERTURE END LIST*
D10*
X96161027Y-32652531D02*
X96732455Y-32652531D01*
X96446741Y-33652531D02*
X96446741Y-32652531D01*
X97065789Y-33652531D02*
X97065789Y-32652531D01*
X97541979Y-33271578D02*
X98303884Y-33271578D01*
X98827693Y-33652531D02*
X99018169Y-33652531D01*
X99018169Y-33652531D02*
X99113407Y-33604912D01*
X99113407Y-33604912D02*
X99161026Y-33557292D01*
X99161026Y-33557292D02*
X99256264Y-33414435D01*
X99256264Y-33414435D02*
X99303883Y-33223959D01*
X99303883Y-33223959D02*
X99303883Y-32843007D01*
X99303883Y-32843007D02*
X99256264Y-32747769D01*
X99256264Y-32747769D02*
X99208645Y-32700150D01*
X99208645Y-32700150D02*
X99113407Y-32652531D01*
X99113407Y-32652531D02*
X98922931Y-32652531D01*
X98922931Y-32652531D02*
X98827693Y-32700150D01*
X98827693Y-32700150D02*
X98780074Y-32747769D01*
X98780074Y-32747769D02*
X98732455Y-32843007D01*
X98732455Y-32843007D02*
X98732455Y-33081102D01*
X98732455Y-33081102D02*
X98780074Y-33176340D01*
X98780074Y-33176340D02*
X98827693Y-33223959D01*
X98827693Y-33223959D02*
X98922931Y-33271578D01*
X98922931Y-33271578D02*
X99113407Y-33271578D01*
X99113407Y-33271578D02*
X99208645Y-33223959D01*
X99208645Y-33223959D02*
X99256264Y-33176340D01*
X99256264Y-33176340D02*
X99303883Y-33081102D01*
X99780074Y-33652531D02*
X99970550Y-33652531D01*
X99970550Y-33652531D02*
X100065788Y-33604912D01*
X100065788Y-33604912D02*
X100113407Y-33557292D01*
X100113407Y-33557292D02*
X100208645Y-33414435D01*
X100208645Y-33414435D02*
X100256264Y-33223959D01*
X100256264Y-33223959D02*
X100256264Y-32843007D01*
X100256264Y-32843007D02*
X100208645Y-32747769D01*
X100208645Y-32747769D02*
X100161026Y-32700150D01*
X100161026Y-32700150D02*
X100065788Y-32652531D01*
X100065788Y-32652531D02*
X99875312Y-32652531D01*
X99875312Y-32652531D02*
X99780074Y-32700150D01*
X99780074Y-32700150D02*
X99732455Y-32747769D01*
X99732455Y-32747769D02*
X99684836Y-32843007D01*
X99684836Y-32843007D02*
X99684836Y-33081102D01*
X99684836Y-33081102D02*
X99732455Y-33176340D01*
X99732455Y-33176340D02*
X99780074Y-33223959D01*
X99780074Y-33223959D02*
X99875312Y-33271578D01*
X99875312Y-33271578D02*
X100065788Y-33271578D01*
X100065788Y-33271578D02*
X100161026Y-33223959D01*
X100161026Y-33223959D02*
X100208645Y-33176340D01*
X100208645Y-33176340D02*
X100256264Y-33081102D01*
X101399121Y-32604912D02*
X100541979Y-33890626D01*
X102161026Y-32985864D02*
X102161026Y-33652531D01*
X101922931Y-32604912D02*
X101684836Y-33319197D01*
X101684836Y-33319197D02*
X102303883Y-33319197D01*
X102637217Y-33366816D02*
X103113407Y-33366816D01*
X102541979Y-33652531D02*
X102875312Y-32652531D01*
X102875312Y-32652531D02*
X103208645Y-33652531D01*
X104303884Y-33652531D02*
X104303884Y-32652531D01*
X104875312Y-33652531D02*
X104446741Y-33081102D01*
X104875312Y-32652531D02*
X104303884Y-33223959D01*
X105684836Y-33604912D02*
X105589598Y-33652531D01*
X105589598Y-33652531D02*
X105399122Y-33652531D01*
X105399122Y-33652531D02*
X105303884Y-33604912D01*
X105303884Y-33604912D02*
X105256265Y-33509673D01*
X105256265Y-33509673D02*
X105256265Y-33128721D01*
X105256265Y-33128721D02*
X105303884Y-33033483D01*
X105303884Y-33033483D02*
X105399122Y-32985864D01*
X105399122Y-32985864D02*
X105589598Y-32985864D01*
X105589598Y-32985864D02*
X105684836Y-33033483D01*
X105684836Y-33033483D02*
X105732455Y-33128721D01*
X105732455Y-33128721D02*
X105732455Y-33223959D01*
X105732455Y-33223959D02*
X105256265Y-33319197D01*
X106065789Y-32985864D02*
X106303884Y-33652531D01*
X106541979Y-32985864D02*
X106303884Y-33652531D01*
X106303884Y-33652531D02*
X106208646Y-33890626D01*
X106208646Y-33890626D02*
X106161027Y-33938245D01*
X106161027Y-33938245D02*
X106065789Y-33985864D01*
X106922932Y-33652531D02*
X106922932Y-32652531D01*
X106922932Y-33033483D02*
X107018170Y-32985864D01*
X107018170Y-32985864D02*
X107208646Y-32985864D01*
X107208646Y-32985864D02*
X107303884Y-33033483D01*
X107303884Y-33033483D02*
X107351503Y-33081102D01*
X107351503Y-33081102D02*
X107399122Y-33176340D01*
X107399122Y-33176340D02*
X107399122Y-33462054D01*
X107399122Y-33462054D02*
X107351503Y-33557292D01*
X107351503Y-33557292D02*
X107303884Y-33604912D01*
X107303884Y-33604912D02*
X107208646Y-33652531D01*
X107208646Y-33652531D02*
X107018170Y-33652531D01*
X107018170Y-33652531D02*
X106922932Y-33604912D01*
X107970551Y-33652531D02*
X107875313Y-33604912D01*
X107875313Y-33604912D02*
X107827694Y-33557292D01*
X107827694Y-33557292D02*
X107780075Y-33462054D01*
X107780075Y-33462054D02*
X107780075Y-33176340D01*
X107780075Y-33176340D02*
X107827694Y-33081102D01*
X107827694Y-33081102D02*
X107875313Y-33033483D01*
X107875313Y-33033483D02*
X107970551Y-32985864D01*
X107970551Y-32985864D02*
X108113408Y-32985864D01*
X108113408Y-32985864D02*
X108208646Y-33033483D01*
X108208646Y-33033483D02*
X108256265Y-33081102D01*
X108256265Y-33081102D02*
X108303884Y-33176340D01*
X108303884Y-33176340D02*
X108303884Y-33462054D01*
X108303884Y-33462054D02*
X108256265Y-33557292D01*
X108256265Y-33557292D02*
X108208646Y-33604912D01*
X108208646Y-33604912D02*
X108113408Y-33652531D01*
X108113408Y-33652531D02*
X107970551Y-33652531D01*
X109161027Y-33652531D02*
X109161027Y-33128721D01*
X109161027Y-33128721D02*
X109113408Y-33033483D01*
X109113408Y-33033483D02*
X109018170Y-32985864D01*
X109018170Y-32985864D02*
X108827694Y-32985864D01*
X108827694Y-32985864D02*
X108732456Y-33033483D01*
X109161027Y-33604912D02*
X109065789Y-33652531D01*
X109065789Y-33652531D02*
X108827694Y-33652531D01*
X108827694Y-33652531D02*
X108732456Y-33604912D01*
X108732456Y-33604912D02*
X108684837Y-33509673D01*
X108684837Y-33509673D02*
X108684837Y-33414435D01*
X108684837Y-33414435D02*
X108732456Y-33319197D01*
X108732456Y-33319197D02*
X108827694Y-33271578D01*
X108827694Y-33271578D02*
X109065789Y-33271578D01*
X109065789Y-33271578D02*
X109161027Y-33223959D01*
X109637218Y-33652531D02*
X109637218Y-32985864D01*
X109637218Y-33176340D02*
X109684837Y-33081102D01*
X109684837Y-33081102D02*
X109732456Y-33033483D01*
X109732456Y-33033483D02*
X109827694Y-32985864D01*
X109827694Y-32985864D02*
X109922932Y-32985864D01*
X110684837Y-33652531D02*
X110684837Y-32652531D01*
X110684837Y-33604912D02*
X110589599Y-33652531D01*
X110589599Y-33652531D02*
X110399123Y-33652531D01*
X110399123Y-33652531D02*
X110303885Y-33604912D01*
X110303885Y-33604912D02*
X110256266Y-33557292D01*
X110256266Y-33557292D02*
X110208647Y-33462054D01*
X110208647Y-33462054D02*
X110208647Y-33176340D01*
X110208647Y-33176340D02*
X110256266Y-33081102D01*
X110256266Y-33081102D02*
X110303885Y-33033483D01*
X110303885Y-33033483D02*
X110399123Y-32985864D01*
X110399123Y-32985864D02*
X110589599Y-32985864D01*
X110589599Y-32985864D02*
X110684837Y-33033483D01*
X111875314Y-33366816D02*
X112351504Y-33366816D01*
X111780076Y-33652531D02*
X112113409Y-32652531D01*
X112113409Y-32652531D02*
X112446742Y-33652531D01*
X113208647Y-33652531D02*
X113208647Y-32652531D01*
X113208647Y-33604912D02*
X113113409Y-33652531D01*
X113113409Y-33652531D02*
X112922933Y-33652531D01*
X112922933Y-33652531D02*
X112827695Y-33604912D01*
X112827695Y-33604912D02*
X112780076Y-33557292D01*
X112780076Y-33557292D02*
X112732457Y-33462054D01*
X112732457Y-33462054D02*
X112732457Y-33176340D01*
X112732457Y-33176340D02*
X112780076Y-33081102D01*
X112780076Y-33081102D02*
X112827695Y-33033483D01*
X112827695Y-33033483D02*
X112922933Y-32985864D01*
X112922933Y-32985864D02*
X113113409Y-32985864D01*
X113113409Y-32985864D02*
X113208647Y-33033483D01*
X114113409Y-33652531D02*
X114113409Y-33128721D01*
X114113409Y-33128721D02*
X114065790Y-33033483D01*
X114065790Y-33033483D02*
X113970552Y-32985864D01*
X113970552Y-32985864D02*
X113780076Y-32985864D01*
X113780076Y-32985864D02*
X113684838Y-33033483D01*
X114113409Y-33604912D02*
X114018171Y-33652531D01*
X114018171Y-33652531D02*
X113780076Y-33652531D01*
X113780076Y-33652531D02*
X113684838Y-33604912D01*
X113684838Y-33604912D02*
X113637219Y-33509673D01*
X113637219Y-33509673D02*
X113637219Y-33414435D01*
X113637219Y-33414435D02*
X113684838Y-33319197D01*
X113684838Y-33319197D02*
X113780076Y-33271578D01*
X113780076Y-33271578D02*
X114018171Y-33271578D01*
X114018171Y-33271578D02*
X114113409Y-33223959D01*
X114589600Y-32985864D02*
X114589600Y-33985864D01*
X114589600Y-33033483D02*
X114684838Y-32985864D01*
X114684838Y-32985864D02*
X114875314Y-32985864D01*
X114875314Y-32985864D02*
X114970552Y-33033483D01*
X114970552Y-33033483D02*
X115018171Y-33081102D01*
X115018171Y-33081102D02*
X115065790Y-33176340D01*
X115065790Y-33176340D02*
X115065790Y-33462054D01*
X115065790Y-33462054D02*
X115018171Y-33557292D01*
X115018171Y-33557292D02*
X114970552Y-33604912D01*
X114970552Y-33604912D02*
X114875314Y-33652531D01*
X114875314Y-33652531D02*
X114684838Y-33652531D01*
X114684838Y-33652531D02*
X114589600Y-33604912D01*
X115351505Y-32985864D02*
X115732457Y-32985864D01*
X115494362Y-32652531D02*
X115494362Y-33509673D01*
X115494362Y-33509673D02*
X115541981Y-33604912D01*
X115541981Y-33604912D02*
X115637219Y-33652531D01*
X115637219Y-33652531D02*
X115732457Y-33652531D01*
X116208648Y-33652531D02*
X116113410Y-33604912D01*
X116113410Y-33604912D02*
X116065791Y-33557292D01*
X116065791Y-33557292D02*
X116018172Y-33462054D01*
X116018172Y-33462054D02*
X116018172Y-33176340D01*
X116018172Y-33176340D02*
X116065791Y-33081102D01*
X116065791Y-33081102D02*
X116113410Y-33033483D01*
X116113410Y-33033483D02*
X116208648Y-32985864D01*
X116208648Y-32985864D02*
X116351505Y-32985864D01*
X116351505Y-32985864D02*
X116446743Y-33033483D01*
X116446743Y-33033483D02*
X116494362Y-33081102D01*
X116494362Y-33081102D02*
X116541981Y-33176340D01*
X116541981Y-33176340D02*
X116541981Y-33462054D01*
X116541981Y-33462054D02*
X116494362Y-33557292D01*
X116494362Y-33557292D02*
X116446743Y-33604912D01*
X116446743Y-33604912D02*
X116351505Y-33652531D01*
X116351505Y-33652531D02*
X116208648Y-33652531D01*
X116970553Y-33652531D02*
X116970553Y-32985864D01*
X116970553Y-33176340D02*
X117018172Y-33081102D01*
X117018172Y-33081102D02*
X117065791Y-33033483D01*
X117065791Y-33033483D02*
X117161029Y-32985864D01*
X117161029Y-32985864D02*
X117256267Y-32985864D01*
X118922934Y-33652531D02*
X118589601Y-33176340D01*
X118351506Y-33652531D02*
X118351506Y-32652531D01*
X118351506Y-32652531D02*
X118732458Y-32652531D01*
X118732458Y-32652531D02*
X118827696Y-32700150D01*
X118827696Y-32700150D02*
X118875315Y-32747769D01*
X118875315Y-32747769D02*
X118922934Y-32843007D01*
X118922934Y-32843007D02*
X118922934Y-32985864D01*
X118922934Y-32985864D02*
X118875315Y-33081102D01*
X118875315Y-33081102D02*
X118827696Y-33128721D01*
X118827696Y-33128721D02*
X118732458Y-33176340D01*
X118732458Y-33176340D02*
X118351506Y-33176340D01*
X119256268Y-32652531D02*
X119875315Y-32652531D01*
X119875315Y-32652531D02*
X119541982Y-33033483D01*
X119541982Y-33033483D02*
X119684839Y-33033483D01*
X119684839Y-33033483D02*
X119780077Y-33081102D01*
X119780077Y-33081102D02*
X119827696Y-33128721D01*
X119827696Y-33128721D02*
X119875315Y-33223959D01*
X119875315Y-33223959D02*
X119875315Y-33462054D01*
X119875315Y-33462054D02*
X119827696Y-33557292D01*
X119827696Y-33557292D02*
X119780077Y-33604912D01*
X119780077Y-33604912D02*
X119684839Y-33652531D01*
X119684839Y-33652531D02*
X119399125Y-33652531D01*
X119399125Y-33652531D02*
X119303887Y-33604912D01*
X119303887Y-33604912D02*
X119256268Y-33557292D01*
X96875312Y-35167236D02*
X96827693Y-35214856D01*
X96827693Y-35214856D02*
X96684836Y-35262475D01*
X96684836Y-35262475D02*
X96589598Y-35262475D01*
X96589598Y-35262475D02*
X96446741Y-35214856D01*
X96446741Y-35214856D02*
X96351503Y-35119617D01*
X96351503Y-35119617D02*
X96303884Y-35024379D01*
X96303884Y-35024379D02*
X96256265Y-34833903D01*
X96256265Y-34833903D02*
X96256265Y-34691046D01*
X96256265Y-34691046D02*
X96303884Y-34500570D01*
X96303884Y-34500570D02*
X96351503Y-34405332D01*
X96351503Y-34405332D02*
X96446741Y-34310094D01*
X96446741Y-34310094D02*
X96589598Y-34262475D01*
X96589598Y-34262475D02*
X96684836Y-34262475D01*
X96684836Y-34262475D02*
X96827693Y-34310094D01*
X96827693Y-34310094D02*
X96875312Y-34357713D01*
X97446741Y-35262475D02*
X97351503Y-35214856D01*
X97351503Y-35214856D02*
X97303884Y-35167236D01*
X97303884Y-35167236D02*
X97256265Y-35071998D01*
X97256265Y-35071998D02*
X97256265Y-34786284D01*
X97256265Y-34786284D02*
X97303884Y-34691046D01*
X97303884Y-34691046D02*
X97351503Y-34643427D01*
X97351503Y-34643427D02*
X97446741Y-34595808D01*
X97446741Y-34595808D02*
X97589598Y-34595808D01*
X97589598Y-34595808D02*
X97684836Y-34643427D01*
X97684836Y-34643427D02*
X97732455Y-34691046D01*
X97732455Y-34691046D02*
X97780074Y-34786284D01*
X97780074Y-34786284D02*
X97780074Y-35071998D01*
X97780074Y-35071998D02*
X97732455Y-35167236D01*
X97732455Y-35167236D02*
X97684836Y-35214856D01*
X97684836Y-35214856D02*
X97589598Y-35262475D01*
X97589598Y-35262475D02*
X97446741Y-35262475D01*
X98208646Y-34595808D02*
X98208646Y-35595808D01*
X98208646Y-34643427D02*
X98303884Y-34595808D01*
X98303884Y-34595808D02*
X98494360Y-34595808D01*
X98494360Y-34595808D02*
X98589598Y-34643427D01*
X98589598Y-34643427D02*
X98637217Y-34691046D01*
X98637217Y-34691046D02*
X98684836Y-34786284D01*
X98684836Y-34786284D02*
X98684836Y-35071998D01*
X98684836Y-35071998D02*
X98637217Y-35167236D01*
X98637217Y-35167236D02*
X98589598Y-35214856D01*
X98589598Y-35214856D02*
X98494360Y-35262475D01*
X98494360Y-35262475D02*
X98303884Y-35262475D01*
X98303884Y-35262475D02*
X98208646Y-35214856D01*
X99018170Y-34595808D02*
X99256265Y-35262475D01*
X99494360Y-34595808D02*
X99256265Y-35262475D01*
X99256265Y-35262475D02*
X99161027Y-35500570D01*
X99161027Y-35500570D02*
X99113408Y-35548189D01*
X99113408Y-35548189D02*
X99018170Y-35595808D01*
X99875313Y-35262475D02*
X99875313Y-34595808D01*
X99875313Y-34786284D02*
X99922932Y-34691046D01*
X99922932Y-34691046D02*
X99970551Y-34643427D01*
X99970551Y-34643427D02*
X100065789Y-34595808D01*
X100065789Y-34595808D02*
X100161027Y-34595808D01*
X100494361Y-35262475D02*
X100494361Y-34595808D01*
X100494361Y-34262475D02*
X100446742Y-34310094D01*
X100446742Y-34310094D02*
X100494361Y-34357713D01*
X100494361Y-34357713D02*
X100541980Y-34310094D01*
X100541980Y-34310094D02*
X100494361Y-34262475D01*
X100494361Y-34262475D02*
X100494361Y-34357713D01*
X101399122Y-34595808D02*
X101399122Y-35405332D01*
X101399122Y-35405332D02*
X101351503Y-35500570D01*
X101351503Y-35500570D02*
X101303884Y-35548189D01*
X101303884Y-35548189D02*
X101208646Y-35595808D01*
X101208646Y-35595808D02*
X101065789Y-35595808D01*
X101065789Y-35595808D02*
X100970551Y-35548189D01*
X101399122Y-35214856D02*
X101303884Y-35262475D01*
X101303884Y-35262475D02*
X101113408Y-35262475D01*
X101113408Y-35262475D02*
X101018170Y-35214856D01*
X101018170Y-35214856D02*
X100970551Y-35167236D01*
X100970551Y-35167236D02*
X100922932Y-35071998D01*
X100922932Y-35071998D02*
X100922932Y-34786284D01*
X100922932Y-34786284D02*
X100970551Y-34691046D01*
X100970551Y-34691046D02*
X101018170Y-34643427D01*
X101018170Y-34643427D02*
X101113408Y-34595808D01*
X101113408Y-34595808D02*
X101303884Y-34595808D01*
X101303884Y-34595808D02*
X101399122Y-34643427D01*
X101875313Y-35262475D02*
X101875313Y-34262475D01*
X102303884Y-35262475D02*
X102303884Y-34738665D01*
X102303884Y-34738665D02*
X102256265Y-34643427D01*
X102256265Y-34643427D02*
X102161027Y-34595808D01*
X102161027Y-34595808D02*
X102018170Y-34595808D01*
X102018170Y-34595808D02*
X101922932Y-34643427D01*
X101922932Y-34643427D02*
X101875313Y-34691046D01*
X102637218Y-34595808D02*
X103018170Y-34595808D01*
X102780075Y-34262475D02*
X102780075Y-35119617D01*
X102780075Y-35119617D02*
X102827694Y-35214856D01*
X102827694Y-35214856D02*
X102922932Y-35262475D01*
X102922932Y-35262475D02*
X103018170Y-35262475D01*
X104065790Y-34357713D02*
X104113409Y-34310094D01*
X104113409Y-34310094D02*
X104208647Y-34262475D01*
X104208647Y-34262475D02*
X104446742Y-34262475D01*
X104446742Y-34262475D02*
X104541980Y-34310094D01*
X104541980Y-34310094D02*
X104589599Y-34357713D01*
X104589599Y-34357713D02*
X104637218Y-34452951D01*
X104637218Y-34452951D02*
X104637218Y-34548189D01*
X104637218Y-34548189D02*
X104589599Y-34691046D01*
X104589599Y-34691046D02*
X104018171Y-35262475D01*
X104018171Y-35262475D02*
X104637218Y-35262475D01*
X105256266Y-34262475D02*
X105351504Y-34262475D01*
X105351504Y-34262475D02*
X105446742Y-34310094D01*
X105446742Y-34310094D02*
X105494361Y-34357713D01*
X105494361Y-34357713D02*
X105541980Y-34452951D01*
X105541980Y-34452951D02*
X105589599Y-34643427D01*
X105589599Y-34643427D02*
X105589599Y-34881522D01*
X105589599Y-34881522D02*
X105541980Y-35071998D01*
X105541980Y-35071998D02*
X105494361Y-35167236D01*
X105494361Y-35167236D02*
X105446742Y-35214856D01*
X105446742Y-35214856D02*
X105351504Y-35262475D01*
X105351504Y-35262475D02*
X105256266Y-35262475D01*
X105256266Y-35262475D02*
X105161028Y-35214856D01*
X105161028Y-35214856D02*
X105113409Y-35167236D01*
X105113409Y-35167236D02*
X105065790Y-35071998D01*
X105065790Y-35071998D02*
X105018171Y-34881522D01*
X105018171Y-34881522D02*
X105018171Y-34643427D01*
X105018171Y-34643427D02*
X105065790Y-34452951D01*
X105065790Y-34452951D02*
X105113409Y-34357713D01*
X105113409Y-34357713D02*
X105161028Y-34310094D01*
X105161028Y-34310094D02*
X105256266Y-34262475D01*
X105970552Y-34357713D02*
X106018171Y-34310094D01*
X106018171Y-34310094D02*
X106113409Y-34262475D01*
X106113409Y-34262475D02*
X106351504Y-34262475D01*
X106351504Y-34262475D02*
X106446742Y-34310094D01*
X106446742Y-34310094D02*
X106494361Y-34357713D01*
X106494361Y-34357713D02*
X106541980Y-34452951D01*
X106541980Y-34452951D02*
X106541980Y-34548189D01*
X106541980Y-34548189D02*
X106494361Y-34691046D01*
X106494361Y-34691046D02*
X105922933Y-35262475D01*
X105922933Y-35262475D02*
X106541980Y-35262475D01*
X107399123Y-34262475D02*
X107208647Y-34262475D01*
X107208647Y-34262475D02*
X107113409Y-34310094D01*
X107113409Y-34310094D02*
X107065790Y-34357713D01*
X107065790Y-34357713D02*
X106970552Y-34500570D01*
X106970552Y-34500570D02*
X106922933Y-34691046D01*
X106922933Y-34691046D02*
X106922933Y-35071998D01*
X106922933Y-35071998D02*
X106970552Y-35167236D01*
X106970552Y-35167236D02*
X107018171Y-35214856D01*
X107018171Y-35214856D02*
X107113409Y-35262475D01*
X107113409Y-35262475D02*
X107303885Y-35262475D01*
X107303885Y-35262475D02*
X107399123Y-35214856D01*
X107399123Y-35214856D02*
X107446742Y-35167236D01*
X107446742Y-35167236D02*
X107494361Y-35071998D01*
X107494361Y-35071998D02*
X107494361Y-34833903D01*
X107494361Y-34833903D02*
X107446742Y-34738665D01*
X107446742Y-34738665D02*
X107399123Y-34691046D01*
X107399123Y-34691046D02*
X107303885Y-34643427D01*
X107303885Y-34643427D02*
X107113409Y-34643427D01*
X107113409Y-34643427D02*
X107018171Y-34691046D01*
X107018171Y-34691046D02*
X106970552Y-34738665D01*
X106970552Y-34738665D02*
X106922933Y-34833903D01*
X107970552Y-35214856D02*
X107970552Y-35262475D01*
X107970552Y-35262475D02*
X107922933Y-35357713D01*
X107922933Y-35357713D02*
X107875314Y-35405332D01*
X109446742Y-34262475D02*
X109446742Y-34976760D01*
X109446742Y-34976760D02*
X109399123Y-35119617D01*
X109399123Y-35119617D02*
X109303885Y-35214856D01*
X109303885Y-35214856D02*
X109161028Y-35262475D01*
X109161028Y-35262475D02*
X109065790Y-35262475D01*
X110065790Y-35262475D02*
X109970552Y-35214856D01*
X109970552Y-35214856D02*
X109922933Y-35167236D01*
X109922933Y-35167236D02*
X109875314Y-35071998D01*
X109875314Y-35071998D02*
X109875314Y-34786284D01*
X109875314Y-34786284D02*
X109922933Y-34691046D01*
X109922933Y-34691046D02*
X109970552Y-34643427D01*
X109970552Y-34643427D02*
X110065790Y-34595808D01*
X110065790Y-34595808D02*
X110208647Y-34595808D01*
X110208647Y-34595808D02*
X110303885Y-34643427D01*
X110303885Y-34643427D02*
X110351504Y-34691046D01*
X110351504Y-34691046D02*
X110399123Y-34786284D01*
X110399123Y-34786284D02*
X110399123Y-35071998D01*
X110399123Y-35071998D02*
X110351504Y-35167236D01*
X110351504Y-35167236D02*
X110303885Y-35214856D01*
X110303885Y-35214856D02*
X110208647Y-35262475D01*
X110208647Y-35262475D02*
X110065790Y-35262475D01*
X110827695Y-34595808D02*
X110827695Y-35262475D01*
X110827695Y-34691046D02*
X110875314Y-34643427D01*
X110875314Y-34643427D02*
X110970552Y-34595808D01*
X110970552Y-34595808D02*
X111113409Y-34595808D01*
X111113409Y-34595808D02*
X111208647Y-34643427D01*
X111208647Y-34643427D02*
X111256266Y-34738665D01*
X111256266Y-34738665D02*
X111256266Y-35262475D01*
X112351505Y-34262475D02*
X112684838Y-35262475D01*
X112684838Y-35262475D02*
X113018171Y-34262475D01*
X113494362Y-35262475D02*
X113399124Y-35214856D01*
X113399124Y-35214856D02*
X113351505Y-35167236D01*
X113351505Y-35167236D02*
X113303886Y-35071998D01*
X113303886Y-35071998D02*
X113303886Y-34786284D01*
X113303886Y-34786284D02*
X113351505Y-34691046D01*
X113351505Y-34691046D02*
X113399124Y-34643427D01*
X113399124Y-34643427D02*
X113494362Y-34595808D01*
X113494362Y-34595808D02*
X113637219Y-34595808D01*
X113637219Y-34595808D02*
X113732457Y-34643427D01*
X113732457Y-34643427D02*
X113780076Y-34691046D01*
X113780076Y-34691046D02*
X113827695Y-34786284D01*
X113827695Y-34786284D02*
X113827695Y-35071998D01*
X113827695Y-35071998D02*
X113780076Y-35167236D01*
X113780076Y-35167236D02*
X113732457Y-35214856D01*
X113732457Y-35214856D02*
X113637219Y-35262475D01*
X113637219Y-35262475D02*
X113494362Y-35262475D01*
X114684838Y-34595808D02*
X114684838Y-35405332D01*
X114684838Y-35405332D02*
X114637219Y-35500570D01*
X114637219Y-35500570D02*
X114589600Y-35548189D01*
X114589600Y-35548189D02*
X114494362Y-35595808D01*
X114494362Y-35595808D02*
X114351505Y-35595808D01*
X114351505Y-35595808D02*
X114256267Y-35548189D01*
X114684838Y-35214856D02*
X114589600Y-35262475D01*
X114589600Y-35262475D02*
X114399124Y-35262475D01*
X114399124Y-35262475D02*
X114303886Y-35214856D01*
X114303886Y-35214856D02*
X114256267Y-35167236D01*
X114256267Y-35167236D02*
X114208648Y-35071998D01*
X114208648Y-35071998D02*
X114208648Y-34786284D01*
X114208648Y-34786284D02*
X114256267Y-34691046D01*
X114256267Y-34691046D02*
X114303886Y-34643427D01*
X114303886Y-34643427D02*
X114399124Y-34595808D01*
X114399124Y-34595808D02*
X114589600Y-34595808D01*
X114589600Y-34595808D02*
X114684838Y-34643427D01*
X115541981Y-35214856D02*
X115446743Y-35262475D01*
X115446743Y-35262475D02*
X115256267Y-35262475D01*
X115256267Y-35262475D02*
X115161029Y-35214856D01*
X115161029Y-35214856D02*
X115113410Y-35119617D01*
X115113410Y-35119617D02*
X115113410Y-34738665D01*
X115113410Y-34738665D02*
X115161029Y-34643427D01*
X115161029Y-34643427D02*
X115256267Y-34595808D01*
X115256267Y-34595808D02*
X115446743Y-34595808D01*
X115446743Y-34595808D02*
X115541981Y-34643427D01*
X115541981Y-34643427D02*
X115589600Y-34738665D01*
X115589600Y-34738665D02*
X115589600Y-34833903D01*
X115589600Y-34833903D02*
X115113410Y-34929141D01*
X116161029Y-35262475D02*
X116065791Y-35214856D01*
X116065791Y-35214856D02*
X116018172Y-35119617D01*
X116018172Y-35119617D02*
X116018172Y-34262475D01*
X96303884Y-36205752D02*
X96303884Y-37062895D01*
X96303884Y-37062895D02*
X96256265Y-37158133D01*
X96256265Y-37158133D02*
X96161027Y-37205752D01*
X96161027Y-37205752D02*
X96113408Y-37205752D01*
X96303884Y-35872419D02*
X96256265Y-35920038D01*
X96256265Y-35920038D02*
X96303884Y-35967657D01*
X96303884Y-35967657D02*
X96351503Y-35920038D01*
X96351503Y-35920038D02*
X96303884Y-35872419D01*
X96303884Y-35872419D02*
X96303884Y-35967657D01*
X96922931Y-36872419D02*
X96827693Y-36824800D01*
X96827693Y-36824800D02*
X96780074Y-36777180D01*
X96780074Y-36777180D02*
X96732455Y-36681942D01*
X96732455Y-36681942D02*
X96732455Y-36396228D01*
X96732455Y-36396228D02*
X96780074Y-36300990D01*
X96780074Y-36300990D02*
X96827693Y-36253371D01*
X96827693Y-36253371D02*
X96922931Y-36205752D01*
X96922931Y-36205752D02*
X97065788Y-36205752D01*
X97065788Y-36205752D02*
X97161026Y-36253371D01*
X97161026Y-36253371D02*
X97208645Y-36300990D01*
X97208645Y-36300990D02*
X97256264Y-36396228D01*
X97256264Y-36396228D02*
X97256264Y-36681942D01*
X97256264Y-36681942D02*
X97208645Y-36777180D01*
X97208645Y-36777180D02*
X97161026Y-36824800D01*
X97161026Y-36824800D02*
X97065788Y-36872419D01*
X97065788Y-36872419D02*
X96922931Y-36872419D01*
X97684836Y-36205752D02*
X97684836Y-36872419D01*
X97684836Y-36300990D02*
X97732455Y-36253371D01*
X97732455Y-36253371D02*
X97827693Y-36205752D01*
X97827693Y-36205752D02*
X97970550Y-36205752D01*
X97970550Y-36205752D02*
X98065788Y-36253371D01*
X98065788Y-36253371D02*
X98113407Y-36348609D01*
X98113407Y-36348609D02*
X98113407Y-36872419D01*
X98589598Y-36205752D02*
X98589598Y-37205752D01*
X98589598Y-36253371D02*
X98684836Y-36205752D01*
X98684836Y-36205752D02*
X98875312Y-36205752D01*
X98875312Y-36205752D02*
X98970550Y-36253371D01*
X98970550Y-36253371D02*
X99018169Y-36300990D01*
X99018169Y-36300990D02*
X99065788Y-36396228D01*
X99065788Y-36396228D02*
X99065788Y-36681942D01*
X99065788Y-36681942D02*
X99018169Y-36777180D01*
X99018169Y-36777180D02*
X98970550Y-36824800D01*
X98970550Y-36824800D02*
X98875312Y-36872419D01*
X98875312Y-36872419D02*
X98684836Y-36872419D01*
X98684836Y-36872419D02*
X98589598Y-36824800D01*
X99399122Y-36205752D02*
X99637217Y-36872419D01*
X99637217Y-36872419D02*
X99875312Y-36205752D01*
X100399122Y-36872419D02*
X100303884Y-36824800D01*
X100303884Y-36824800D02*
X100256265Y-36777180D01*
X100256265Y-36777180D02*
X100208646Y-36681942D01*
X100208646Y-36681942D02*
X100208646Y-36396228D01*
X100208646Y-36396228D02*
X100256265Y-36300990D01*
X100256265Y-36300990D02*
X100303884Y-36253371D01*
X100303884Y-36253371D02*
X100399122Y-36205752D01*
X100399122Y-36205752D02*
X100541979Y-36205752D01*
X100541979Y-36205752D02*
X100637217Y-36253371D01*
X100637217Y-36253371D02*
X100684836Y-36300990D01*
X100684836Y-36300990D02*
X100732455Y-36396228D01*
X100732455Y-36396228D02*
X100732455Y-36681942D01*
X100732455Y-36681942D02*
X100684836Y-36777180D01*
X100684836Y-36777180D02*
X100637217Y-36824800D01*
X100637217Y-36824800D02*
X100541979Y-36872419D01*
X100541979Y-36872419D02*
X100399122Y-36872419D01*
X101589598Y-36205752D02*
X101589598Y-37015276D01*
X101589598Y-37015276D02*
X101541979Y-37110514D01*
X101541979Y-37110514D02*
X101494360Y-37158133D01*
X101494360Y-37158133D02*
X101399122Y-37205752D01*
X101399122Y-37205752D02*
X101256265Y-37205752D01*
X101256265Y-37205752D02*
X101161027Y-37158133D01*
X101589598Y-36824800D02*
X101494360Y-36872419D01*
X101494360Y-36872419D02*
X101303884Y-36872419D01*
X101303884Y-36872419D02*
X101208646Y-36824800D01*
X101208646Y-36824800D02*
X101161027Y-36777180D01*
X101161027Y-36777180D02*
X101113408Y-36681942D01*
X101113408Y-36681942D02*
X101113408Y-36396228D01*
X101113408Y-36396228D02*
X101161027Y-36300990D01*
X101161027Y-36300990D02*
X101208646Y-36253371D01*
X101208646Y-36253371D02*
X101303884Y-36205752D01*
X101303884Y-36205752D02*
X101494360Y-36205752D01*
X101494360Y-36205752D02*
X101589598Y-36253371D01*
X102446741Y-36824800D02*
X102351503Y-36872419D01*
X102351503Y-36872419D02*
X102161027Y-36872419D01*
X102161027Y-36872419D02*
X102065789Y-36824800D01*
X102065789Y-36824800D02*
X102018170Y-36729561D01*
X102018170Y-36729561D02*
X102018170Y-36348609D01*
X102018170Y-36348609D02*
X102065789Y-36253371D01*
X102065789Y-36253371D02*
X102161027Y-36205752D01*
X102161027Y-36205752D02*
X102351503Y-36205752D01*
X102351503Y-36205752D02*
X102446741Y-36253371D01*
X102446741Y-36253371D02*
X102494360Y-36348609D01*
X102494360Y-36348609D02*
X102494360Y-36443847D01*
X102494360Y-36443847D02*
X102018170Y-36539085D01*
X103065789Y-36872419D02*
X102970551Y-36824800D01*
X102970551Y-36824800D02*
X102922932Y-36729561D01*
X102922932Y-36729561D02*
X102922932Y-35872419D01*
X104065789Y-36396228D02*
X104018170Y-36348609D01*
X104018170Y-36348609D02*
X103922932Y-36300990D01*
X103922932Y-36300990D02*
X103827694Y-36300990D01*
X103827694Y-36300990D02*
X103732456Y-36348609D01*
X103732456Y-36348609D02*
X103684837Y-36396228D01*
X103684837Y-36396228D02*
X103637218Y-36491466D01*
X103637218Y-36491466D02*
X103637218Y-36586704D01*
X103637218Y-36586704D02*
X103684837Y-36681942D01*
X103684837Y-36681942D02*
X103732456Y-36729561D01*
X103732456Y-36729561D02*
X103827694Y-36777180D01*
X103827694Y-36777180D02*
X103922932Y-36777180D01*
X103922932Y-36777180D02*
X104018170Y-36729561D01*
X104018170Y-36729561D02*
X104065789Y-36681942D01*
X104065789Y-36300990D02*
X104065789Y-36681942D01*
X104065789Y-36681942D02*
X104113408Y-36729561D01*
X104113408Y-36729561D02*
X104161027Y-36729561D01*
X104161027Y-36729561D02*
X104256266Y-36681942D01*
X104256266Y-36681942D02*
X104303885Y-36586704D01*
X104303885Y-36586704D02*
X104303885Y-36348609D01*
X104303885Y-36348609D02*
X104208647Y-36205752D01*
X104208647Y-36205752D02*
X104065789Y-36110514D01*
X104065789Y-36110514D02*
X103875313Y-36062895D01*
X103875313Y-36062895D02*
X103684837Y-36110514D01*
X103684837Y-36110514D02*
X103541980Y-36205752D01*
X103541980Y-36205752D02*
X103446742Y-36348609D01*
X103446742Y-36348609D02*
X103399123Y-36539085D01*
X103399123Y-36539085D02*
X103446742Y-36729561D01*
X103446742Y-36729561D02*
X103541980Y-36872419D01*
X103541980Y-36872419D02*
X103684837Y-36967657D01*
X103684837Y-36967657D02*
X103875313Y-37015276D01*
X103875313Y-37015276D02*
X104065789Y-36967657D01*
X104065789Y-36967657D02*
X104208647Y-36872419D01*
X105161027Y-36205752D02*
X105161027Y-37015276D01*
X105161027Y-37015276D02*
X105113408Y-37110514D01*
X105113408Y-37110514D02*
X105065789Y-37158133D01*
X105065789Y-37158133D02*
X104970551Y-37205752D01*
X104970551Y-37205752D02*
X104827694Y-37205752D01*
X104827694Y-37205752D02*
X104732456Y-37158133D01*
X105161027Y-36824800D02*
X105065789Y-36872419D01*
X105065789Y-36872419D02*
X104875313Y-36872419D01*
X104875313Y-36872419D02*
X104780075Y-36824800D01*
X104780075Y-36824800D02*
X104732456Y-36777180D01*
X104732456Y-36777180D02*
X104684837Y-36681942D01*
X104684837Y-36681942D02*
X104684837Y-36396228D01*
X104684837Y-36396228D02*
X104732456Y-36300990D01*
X104732456Y-36300990D02*
X104780075Y-36253371D01*
X104780075Y-36253371D02*
X104875313Y-36205752D01*
X104875313Y-36205752D02*
X105065789Y-36205752D01*
X105065789Y-36205752D02*
X105161027Y-36253371D01*
X105637218Y-36872419D02*
X105637218Y-36205752D01*
X105637218Y-36300990D02*
X105684837Y-36253371D01*
X105684837Y-36253371D02*
X105780075Y-36205752D01*
X105780075Y-36205752D02*
X105922932Y-36205752D01*
X105922932Y-36205752D02*
X106018170Y-36253371D01*
X106018170Y-36253371D02*
X106065789Y-36348609D01*
X106065789Y-36348609D02*
X106065789Y-36872419D01*
X106065789Y-36348609D02*
X106113408Y-36253371D01*
X106113408Y-36253371D02*
X106208646Y-36205752D01*
X106208646Y-36205752D02*
X106351503Y-36205752D01*
X106351503Y-36205752D02*
X106446742Y-36253371D01*
X106446742Y-36253371D02*
X106494361Y-36348609D01*
X106494361Y-36348609D02*
X106494361Y-36872419D01*
X107399122Y-36872419D02*
X107399122Y-36348609D01*
X107399122Y-36348609D02*
X107351503Y-36253371D01*
X107351503Y-36253371D02*
X107256265Y-36205752D01*
X107256265Y-36205752D02*
X107065789Y-36205752D01*
X107065789Y-36205752D02*
X106970551Y-36253371D01*
X107399122Y-36824800D02*
X107303884Y-36872419D01*
X107303884Y-36872419D02*
X107065789Y-36872419D01*
X107065789Y-36872419D02*
X106970551Y-36824800D01*
X106970551Y-36824800D02*
X106922932Y-36729561D01*
X106922932Y-36729561D02*
X106922932Y-36634323D01*
X106922932Y-36634323D02*
X106970551Y-36539085D01*
X106970551Y-36539085D02*
X107065789Y-36491466D01*
X107065789Y-36491466D02*
X107303884Y-36491466D01*
X107303884Y-36491466D02*
X107399122Y-36443847D01*
X107875313Y-36872419D02*
X107875313Y-36205752D01*
X107875313Y-35872419D02*
X107827694Y-35920038D01*
X107827694Y-35920038D02*
X107875313Y-35967657D01*
X107875313Y-35967657D02*
X107922932Y-35920038D01*
X107922932Y-35920038D02*
X107875313Y-35872419D01*
X107875313Y-35872419D02*
X107875313Y-35967657D01*
X108494360Y-36872419D02*
X108399122Y-36824800D01*
X108399122Y-36824800D02*
X108351503Y-36729561D01*
X108351503Y-36729561D02*
X108351503Y-35872419D01*
X108875313Y-36777180D02*
X108922932Y-36824800D01*
X108922932Y-36824800D02*
X108875313Y-36872419D01*
X108875313Y-36872419D02*
X108827694Y-36824800D01*
X108827694Y-36824800D02*
X108875313Y-36777180D01*
X108875313Y-36777180D02*
X108875313Y-36872419D01*
X109780074Y-36824800D02*
X109684836Y-36872419D01*
X109684836Y-36872419D02*
X109494360Y-36872419D01*
X109494360Y-36872419D02*
X109399122Y-36824800D01*
X109399122Y-36824800D02*
X109351503Y-36777180D01*
X109351503Y-36777180D02*
X109303884Y-36681942D01*
X109303884Y-36681942D02*
X109303884Y-36396228D01*
X109303884Y-36396228D02*
X109351503Y-36300990D01*
X109351503Y-36300990D02*
X109399122Y-36253371D01*
X109399122Y-36253371D02*
X109494360Y-36205752D01*
X109494360Y-36205752D02*
X109684836Y-36205752D01*
X109684836Y-36205752D02*
X109780074Y-36253371D01*
X110351503Y-36872419D02*
X110256265Y-36824800D01*
X110256265Y-36824800D02*
X110208646Y-36777180D01*
X110208646Y-36777180D02*
X110161027Y-36681942D01*
X110161027Y-36681942D02*
X110161027Y-36396228D01*
X110161027Y-36396228D02*
X110208646Y-36300990D01*
X110208646Y-36300990D02*
X110256265Y-36253371D01*
X110256265Y-36253371D02*
X110351503Y-36205752D01*
X110351503Y-36205752D02*
X110494360Y-36205752D01*
X110494360Y-36205752D02*
X110589598Y-36253371D01*
X110589598Y-36253371D02*
X110637217Y-36300990D01*
X110637217Y-36300990D02*
X110684836Y-36396228D01*
X110684836Y-36396228D02*
X110684836Y-36681942D01*
X110684836Y-36681942D02*
X110637217Y-36777180D01*
X110637217Y-36777180D02*
X110589598Y-36824800D01*
X110589598Y-36824800D02*
X110494360Y-36872419D01*
X110494360Y-36872419D02*
X110351503Y-36872419D01*
X111113408Y-36872419D02*
X111113408Y-36205752D01*
X111113408Y-36300990D02*
X111161027Y-36253371D01*
X111161027Y-36253371D02*
X111256265Y-36205752D01*
X111256265Y-36205752D02*
X111399122Y-36205752D01*
X111399122Y-36205752D02*
X111494360Y-36253371D01*
X111494360Y-36253371D02*
X111541979Y-36348609D01*
X111541979Y-36348609D02*
X111541979Y-36872419D01*
X111541979Y-36348609D02*
X111589598Y-36253371D01*
X111589598Y-36253371D02*
X111684836Y-36205752D01*
X111684836Y-36205752D02*
X111827693Y-36205752D01*
X111827693Y-36205752D02*
X111922932Y-36253371D01*
X111922932Y-36253371D02*
X111970551Y-36348609D01*
X111970551Y-36348609D02*
X111970551Y-36872419D01*
X82482580Y-41726666D02*
X81768295Y-41726666D01*
X81768295Y-41726666D02*
X81625438Y-41679047D01*
X81625438Y-41679047D02*
X81530200Y-41583809D01*
X81530200Y-41583809D02*
X81482580Y-41440952D01*
X81482580Y-41440952D02*
X81482580Y-41345714D01*
X81482580Y-42726666D02*
X81482580Y-42155238D01*
X81482580Y-42440952D02*
X82482580Y-42440952D01*
X82482580Y-42440952D02*
X82339723Y-42345714D01*
X82339723Y-42345714D02*
X82244485Y-42250476D01*
X82244485Y-42250476D02*
X82196866Y-42155238D01*
X77192580Y-47369524D02*
X78192580Y-47369524D01*
X77716390Y-47369524D02*
X77716390Y-47940952D01*
X77192580Y-47940952D02*
X78192580Y-47940952D01*
X78192580Y-48274286D02*
X77192580Y-48607619D01*
X77192580Y-48607619D02*
X78192580Y-48940952D01*
X77192580Y-49798095D02*
X77192580Y-49226667D01*
X77192580Y-49512381D02*
X78192580Y-49512381D01*
X78192580Y-49512381D02*
X78049723Y-49417143D01*
X78049723Y-49417143D02*
X77954485Y-49321905D01*
X77954485Y-49321905D02*
X77906866Y-49226667D01*
X77192580Y-44619524D02*
X78192580Y-44619524D01*
X77716390Y-44619524D02*
X77716390Y-45190952D01*
X77192580Y-45190952D02*
X78192580Y-45190952D01*
X78192580Y-45524286D02*
X77192580Y-45857619D01*
X77192580Y-45857619D02*
X78192580Y-46190952D01*
X78097342Y-46476667D02*
X78144961Y-46524286D01*
X78144961Y-46524286D02*
X78192580Y-46619524D01*
X78192580Y-46619524D02*
X78192580Y-46857619D01*
X78192580Y-46857619D02*
X78144961Y-46952857D01*
X78144961Y-46952857D02*
X78097342Y-47000476D01*
X78097342Y-47000476D02*
X78002104Y-47048095D01*
X78002104Y-47048095D02*
X77906866Y-47048095D01*
X77906866Y-47048095D02*
X77764009Y-47000476D01*
X77764009Y-47000476D02*
X77192580Y-46429048D01*
X77192580Y-46429048D02*
X77192580Y-47048095D01*
X77192580Y-42555714D02*
X78192580Y-42555714D01*
X77716390Y-42555714D02*
X77716390Y-43127142D01*
X77192580Y-43127142D02*
X78192580Y-43127142D01*
X78192580Y-43460476D02*
X77192580Y-43793809D01*
X77192580Y-43793809D02*
X78192580Y-44127142D01*
X78144961Y-40298095D02*
X78192580Y-40202857D01*
X78192580Y-40202857D02*
X78192580Y-40060000D01*
X78192580Y-40060000D02*
X78144961Y-39917143D01*
X78144961Y-39917143D02*
X78049723Y-39821905D01*
X78049723Y-39821905D02*
X77954485Y-39774286D01*
X77954485Y-39774286D02*
X77764009Y-39726667D01*
X77764009Y-39726667D02*
X77621152Y-39726667D01*
X77621152Y-39726667D02*
X77430676Y-39774286D01*
X77430676Y-39774286D02*
X77335438Y-39821905D01*
X77335438Y-39821905D02*
X77240200Y-39917143D01*
X77240200Y-39917143D02*
X77192580Y-40060000D01*
X77192580Y-40060000D02*
X77192580Y-40155238D01*
X77192580Y-40155238D02*
X77240200Y-40298095D01*
X77240200Y-40298095D02*
X77287819Y-40345714D01*
X77287819Y-40345714D02*
X77621152Y-40345714D01*
X77621152Y-40345714D02*
X77621152Y-40155238D01*
X77192580Y-40774286D02*
X78192580Y-40774286D01*
X78192580Y-40774286D02*
X77192580Y-41345714D01*
X77192580Y-41345714D02*
X78192580Y-41345714D01*
X77192580Y-41821905D02*
X78192580Y-41821905D01*
X78192580Y-41821905D02*
X78192580Y-42060000D01*
X78192580Y-42060000D02*
X78144961Y-42202857D01*
X78144961Y-42202857D02*
X78049723Y-42298095D01*
X78049723Y-42298095D02*
X77954485Y-42345714D01*
X77954485Y-42345714D02*
X77764009Y-42393333D01*
X77764009Y-42393333D02*
X77621152Y-42393333D01*
X77621152Y-42393333D02*
X77430676Y-42345714D01*
X77430676Y-42345714D02*
X77335438Y-42298095D01*
X77335438Y-42298095D02*
X77240200Y-42202857D01*
X77240200Y-42202857D02*
X77192580Y-42060000D01*
X77192580Y-42060000D02*
X77192580Y-41821905D01*
X77192580Y-36999524D02*
X78192580Y-36999524D01*
X77716390Y-36999524D02*
X77716390Y-37570952D01*
X77192580Y-37570952D02*
X78192580Y-37570952D01*
X78192580Y-37904286D02*
X77192580Y-38237619D01*
X77192580Y-38237619D02*
X78192580Y-38570952D01*
X78192580Y-38809048D02*
X78192580Y-39428095D01*
X78192580Y-39428095D02*
X77811628Y-39094762D01*
X77811628Y-39094762D02*
X77811628Y-39237619D01*
X77811628Y-39237619D02*
X77764009Y-39332857D01*
X77764009Y-39332857D02*
X77716390Y-39380476D01*
X77716390Y-39380476D02*
X77621152Y-39428095D01*
X77621152Y-39428095D02*
X77383057Y-39428095D01*
X77383057Y-39428095D02*
X77287819Y-39380476D01*
X77287819Y-39380476D02*
X77240200Y-39332857D01*
X77240200Y-39332857D02*
X77192580Y-39237619D01*
X77192580Y-39237619D02*
X77192580Y-38951905D01*
X77192580Y-38951905D02*
X77240200Y-38856667D01*
X77240200Y-38856667D02*
X77287819Y-38809048D01*
X77232580Y-34119524D02*
X78232580Y-34119524D01*
X77756390Y-34119524D02*
X77756390Y-34690952D01*
X77232580Y-34690952D02*
X78232580Y-34690952D01*
X78232580Y-35024286D02*
X77232580Y-35357619D01*
X77232580Y-35357619D02*
X78232580Y-35690952D01*
X77899247Y-36452857D02*
X77232580Y-36452857D01*
X78280200Y-36214762D02*
X77565914Y-35976667D01*
X77565914Y-35976667D02*
X77565914Y-36595714D01*
X90392580Y-47754761D02*
X90392580Y-47278571D01*
X90392580Y-47278571D02*
X91392580Y-47278571D01*
X91392580Y-47945238D02*
X90392580Y-48278571D01*
X90392580Y-48278571D02*
X91392580Y-48611904D01*
X90392580Y-49469047D02*
X90392580Y-48897619D01*
X90392580Y-49183333D02*
X91392580Y-49183333D01*
X91392580Y-49183333D02*
X91249723Y-49088095D01*
X91249723Y-49088095D02*
X91154485Y-48992857D01*
X91154485Y-48992857D02*
X91106866Y-48897619D01*
X90392580Y-45214761D02*
X90392580Y-44738571D01*
X90392580Y-44738571D02*
X91392580Y-44738571D01*
X91392580Y-45405238D02*
X90392580Y-45738571D01*
X90392580Y-45738571D02*
X91392580Y-46071904D01*
X91297342Y-46357619D02*
X91344961Y-46405238D01*
X91344961Y-46405238D02*
X91392580Y-46500476D01*
X91392580Y-46500476D02*
X91392580Y-46738571D01*
X91392580Y-46738571D02*
X91344961Y-46833809D01*
X91344961Y-46833809D02*
X91297342Y-46881428D01*
X91297342Y-46881428D02*
X91202104Y-46929047D01*
X91202104Y-46929047D02*
X91106866Y-46929047D01*
X91106866Y-46929047D02*
X90964009Y-46881428D01*
X90964009Y-46881428D02*
X90392580Y-46310000D01*
X90392580Y-46310000D02*
X90392580Y-46929047D01*
X90392580Y-43150952D02*
X90392580Y-42674762D01*
X90392580Y-42674762D02*
X91392580Y-42674762D01*
X91392580Y-43341429D02*
X90392580Y-43674762D01*
X90392580Y-43674762D02*
X91392580Y-44008095D01*
X91344961Y-40298095D02*
X91392580Y-40202857D01*
X91392580Y-40202857D02*
X91392580Y-40060000D01*
X91392580Y-40060000D02*
X91344961Y-39917143D01*
X91344961Y-39917143D02*
X91249723Y-39821905D01*
X91249723Y-39821905D02*
X91154485Y-39774286D01*
X91154485Y-39774286D02*
X90964009Y-39726667D01*
X90964009Y-39726667D02*
X90821152Y-39726667D01*
X90821152Y-39726667D02*
X90630676Y-39774286D01*
X90630676Y-39774286D02*
X90535438Y-39821905D01*
X90535438Y-39821905D02*
X90440200Y-39917143D01*
X90440200Y-39917143D02*
X90392580Y-40060000D01*
X90392580Y-40060000D02*
X90392580Y-40155238D01*
X90392580Y-40155238D02*
X90440200Y-40298095D01*
X90440200Y-40298095D02*
X90487819Y-40345714D01*
X90487819Y-40345714D02*
X90821152Y-40345714D01*
X90821152Y-40345714D02*
X90821152Y-40155238D01*
X90392580Y-40774286D02*
X91392580Y-40774286D01*
X91392580Y-40774286D02*
X90392580Y-41345714D01*
X90392580Y-41345714D02*
X91392580Y-41345714D01*
X90392580Y-41821905D02*
X91392580Y-41821905D01*
X91392580Y-41821905D02*
X91392580Y-42060000D01*
X91392580Y-42060000D02*
X91344961Y-42202857D01*
X91344961Y-42202857D02*
X91249723Y-42298095D01*
X91249723Y-42298095D02*
X91154485Y-42345714D01*
X91154485Y-42345714D02*
X90964009Y-42393333D01*
X90964009Y-42393333D02*
X90821152Y-42393333D01*
X90821152Y-42393333D02*
X90630676Y-42345714D01*
X90630676Y-42345714D02*
X90535438Y-42298095D01*
X90535438Y-42298095D02*
X90440200Y-42202857D01*
X90440200Y-42202857D02*
X90392580Y-42060000D01*
X90392580Y-42060000D02*
X90392580Y-41821905D01*
X90392580Y-37594761D02*
X90392580Y-37118571D01*
X90392580Y-37118571D02*
X91392580Y-37118571D01*
X91392580Y-37785238D02*
X90392580Y-38118571D01*
X90392580Y-38118571D02*
X91392580Y-38451904D01*
X91392580Y-38690000D02*
X91392580Y-39309047D01*
X91392580Y-39309047D02*
X91011628Y-38975714D01*
X91011628Y-38975714D02*
X91011628Y-39118571D01*
X91011628Y-39118571D02*
X90964009Y-39213809D01*
X90964009Y-39213809D02*
X90916390Y-39261428D01*
X90916390Y-39261428D02*
X90821152Y-39309047D01*
X90821152Y-39309047D02*
X90583057Y-39309047D01*
X90583057Y-39309047D02*
X90487819Y-39261428D01*
X90487819Y-39261428D02*
X90440200Y-39213809D01*
X90440200Y-39213809D02*
X90392580Y-39118571D01*
X90392580Y-39118571D02*
X90392580Y-38832857D01*
X90392580Y-38832857D02*
X90440200Y-38737619D01*
X90440200Y-38737619D02*
X90487819Y-38690000D01*
X90392580Y-35054761D02*
X90392580Y-34578571D01*
X90392580Y-34578571D02*
X91392580Y-34578571D01*
X91392580Y-35245238D02*
X90392580Y-35578571D01*
X90392580Y-35578571D02*
X91392580Y-35911904D01*
X91059247Y-36673809D02*
X90392580Y-36673809D01*
X91440200Y-36435714D02*
X90725914Y-36197619D01*
X90725914Y-36197619D02*
X90725914Y-36816666D01*
X59940476Y-51337419D02*
X59940476Y-52051704D01*
X59940476Y-52051704D02*
X59892857Y-52194561D01*
X59892857Y-52194561D02*
X59797619Y-52289800D01*
X59797619Y-52289800D02*
X59654762Y-52337419D01*
X59654762Y-52337419D02*
X59559524Y-52337419D01*
X60369048Y-51432657D02*
X60416667Y-51385038D01*
X60416667Y-51385038D02*
X60511905Y-51337419D01*
X60511905Y-51337419D02*
X60750000Y-51337419D01*
X60750000Y-51337419D02*
X60845238Y-51385038D01*
X60845238Y-51385038D02*
X60892857Y-51432657D01*
X60892857Y-51432657D02*
X60940476Y-51527895D01*
X60940476Y-51527895D02*
X60940476Y-51623133D01*
X60940476Y-51623133D02*
X60892857Y-51765990D01*
X60892857Y-51765990D02*
X60321429Y-52337419D01*
X60321429Y-52337419D02*
X60940476Y-52337419D01*
X61559524Y-51337419D02*
X61654762Y-51337419D01*
X61654762Y-51337419D02*
X61750000Y-51385038D01*
X61750000Y-51385038D02*
X61797619Y-51432657D01*
X61797619Y-51432657D02*
X61845238Y-51527895D01*
X61845238Y-51527895D02*
X61892857Y-51718371D01*
X61892857Y-51718371D02*
X61892857Y-51956466D01*
X61892857Y-51956466D02*
X61845238Y-52146942D01*
X61845238Y-52146942D02*
X61797619Y-52242180D01*
X61797619Y-52242180D02*
X61750000Y-52289800D01*
X61750000Y-52289800D02*
X61654762Y-52337419D01*
X61654762Y-52337419D02*
X61559524Y-52337419D01*
X61559524Y-52337419D02*
X61464286Y-52289800D01*
X61464286Y-52289800D02*
X61416667Y-52242180D01*
X61416667Y-52242180D02*
X61369048Y-52146942D01*
X61369048Y-52146942D02*
X61321429Y-51956466D01*
X61321429Y-51956466D02*
X61321429Y-51718371D01*
X61321429Y-51718371D02*
X61369048Y-51527895D01*
X61369048Y-51527895D02*
X61416667Y-51432657D01*
X61416667Y-51432657D02*
X61464286Y-51385038D01*
X61464286Y-51385038D02*
X61559524Y-51337419D01*
X111238095Y-69707419D02*
X111238095Y-70516942D01*
X111238095Y-70516942D02*
X111285714Y-70612180D01*
X111285714Y-70612180D02*
X111333333Y-70659800D01*
X111333333Y-70659800D02*
X111428571Y-70707419D01*
X111428571Y-70707419D02*
X111619047Y-70707419D01*
X111619047Y-70707419D02*
X111714285Y-70659800D01*
X111714285Y-70659800D02*
X111761904Y-70612180D01*
X111761904Y-70612180D02*
X111809523Y-70516942D01*
X111809523Y-70516942D02*
X111809523Y-69707419D01*
X112809523Y-70707419D02*
X112238095Y-70707419D01*
X112523809Y-70707419D02*
X112523809Y-69707419D01*
X112523809Y-69707419D02*
X112428571Y-69850276D01*
X112428571Y-69850276D02*
X112333333Y-69945514D01*
X112333333Y-69945514D02*
X112238095Y-69993133D01*
X101561905Y-43037419D02*
X102180952Y-43037419D01*
X102180952Y-43037419D02*
X101847619Y-43418371D01*
X101847619Y-43418371D02*
X101990476Y-43418371D01*
X101990476Y-43418371D02*
X102085714Y-43465990D01*
X102085714Y-43465990D02*
X102133333Y-43513609D01*
X102133333Y-43513609D02*
X102180952Y-43608847D01*
X102180952Y-43608847D02*
X102180952Y-43846942D01*
X102180952Y-43846942D02*
X102133333Y-43942180D01*
X102133333Y-43942180D02*
X102085714Y-43989800D01*
X102085714Y-43989800D02*
X101990476Y-44037419D01*
X101990476Y-44037419D02*
X101704762Y-44037419D01*
X101704762Y-44037419D02*
X101609524Y-43989800D01*
X101609524Y-43989800D02*
X101561905Y-43942180D01*
X102466667Y-43037419D02*
X102800000Y-44037419D01*
X102800000Y-44037419D02*
X103133333Y-43037419D01*
X103371429Y-43037419D02*
X103990476Y-43037419D01*
X103990476Y-43037419D02*
X103657143Y-43418371D01*
X103657143Y-43418371D02*
X103800000Y-43418371D01*
X103800000Y-43418371D02*
X103895238Y-43465990D01*
X103895238Y-43465990D02*
X103942857Y-43513609D01*
X103942857Y-43513609D02*
X103990476Y-43608847D01*
X103990476Y-43608847D02*
X103990476Y-43846942D01*
X103990476Y-43846942D02*
X103942857Y-43942180D01*
X103942857Y-43942180D02*
X103895238Y-43989800D01*
X103895238Y-43989800D02*
X103800000Y-44037419D01*
X103800000Y-44037419D02*
X103514286Y-44037419D01*
X103514286Y-44037419D02*
X103419048Y-43989800D01*
X103419048Y-43989800D02*
X103371429Y-43942180D01*
X101561905Y-45577419D02*
X102180952Y-45577419D01*
X102180952Y-45577419D02*
X101847619Y-45958371D01*
X101847619Y-45958371D02*
X101990476Y-45958371D01*
X101990476Y-45958371D02*
X102085714Y-46005990D01*
X102085714Y-46005990D02*
X102133333Y-46053609D01*
X102133333Y-46053609D02*
X102180952Y-46148847D01*
X102180952Y-46148847D02*
X102180952Y-46386942D01*
X102180952Y-46386942D02*
X102133333Y-46482180D01*
X102133333Y-46482180D02*
X102085714Y-46529800D01*
X102085714Y-46529800D02*
X101990476Y-46577419D01*
X101990476Y-46577419D02*
X101704762Y-46577419D01*
X101704762Y-46577419D02*
X101609524Y-46529800D01*
X101609524Y-46529800D02*
X101561905Y-46482180D01*
X102466667Y-45577419D02*
X102800000Y-46577419D01*
X102800000Y-46577419D02*
X103133333Y-45577419D01*
X103371429Y-45577419D02*
X103990476Y-45577419D01*
X103990476Y-45577419D02*
X103657143Y-45958371D01*
X103657143Y-45958371D02*
X103800000Y-45958371D01*
X103800000Y-45958371D02*
X103895238Y-46005990D01*
X103895238Y-46005990D02*
X103942857Y-46053609D01*
X103942857Y-46053609D02*
X103990476Y-46148847D01*
X103990476Y-46148847D02*
X103990476Y-46386942D01*
X103990476Y-46386942D02*
X103942857Y-46482180D01*
X103942857Y-46482180D02*
X103895238Y-46529800D01*
X103895238Y-46529800D02*
X103800000Y-46577419D01*
X103800000Y-46577419D02*
X103514286Y-46577419D01*
X103514286Y-46577419D02*
X103419048Y-46529800D01*
X103419048Y-46529800D02*
X103371429Y-46482180D01*
X102061905Y-48593609D02*
X102395238Y-48593609D01*
X102538095Y-49117419D02*
X102061905Y-49117419D01*
X102061905Y-49117419D02*
X102061905Y-48117419D01*
X102061905Y-48117419D02*
X102538095Y-48117419D01*
X102966667Y-49117419D02*
X102966667Y-48117419D01*
X102966667Y-48117419D02*
X103538095Y-49117419D01*
X103538095Y-49117419D02*
X103538095Y-48117419D01*
X101800000Y-51657419D02*
X101800000Y-50657419D01*
X102466666Y-50657419D02*
X102657142Y-50657419D01*
X102657142Y-50657419D02*
X102752380Y-50705038D01*
X102752380Y-50705038D02*
X102847618Y-50800276D01*
X102847618Y-50800276D02*
X102895237Y-50990752D01*
X102895237Y-50990752D02*
X102895237Y-51324085D01*
X102895237Y-51324085D02*
X102847618Y-51514561D01*
X102847618Y-51514561D02*
X102752380Y-51609800D01*
X102752380Y-51609800D02*
X102657142Y-51657419D01*
X102657142Y-51657419D02*
X102466666Y-51657419D01*
X102466666Y-51657419D02*
X102371428Y-51609800D01*
X102371428Y-51609800D02*
X102276190Y-51514561D01*
X102276190Y-51514561D02*
X102228571Y-51324085D01*
X102228571Y-51324085D02*
X102228571Y-50990752D01*
X102228571Y-50990752D02*
X102276190Y-50800276D01*
X102276190Y-50800276D02*
X102371428Y-50705038D01*
X102371428Y-50705038D02*
X102466666Y-50657419D01*
X103752380Y-50990752D02*
X103752380Y-51657419D01*
X103514285Y-50609800D02*
X103276190Y-51324085D01*
X103276190Y-51324085D02*
X103895237Y-51324085D01*
X101800000Y-54197419D02*
X101800000Y-53197419D01*
X102466666Y-53197419D02*
X102657142Y-53197419D01*
X102657142Y-53197419D02*
X102752380Y-53245038D01*
X102752380Y-53245038D02*
X102847618Y-53340276D01*
X102847618Y-53340276D02*
X102895237Y-53530752D01*
X102895237Y-53530752D02*
X102895237Y-53864085D01*
X102895237Y-53864085D02*
X102847618Y-54054561D01*
X102847618Y-54054561D02*
X102752380Y-54149800D01*
X102752380Y-54149800D02*
X102657142Y-54197419D01*
X102657142Y-54197419D02*
X102466666Y-54197419D01*
X102466666Y-54197419D02*
X102371428Y-54149800D01*
X102371428Y-54149800D02*
X102276190Y-54054561D01*
X102276190Y-54054561D02*
X102228571Y-53864085D01*
X102228571Y-53864085D02*
X102228571Y-53530752D01*
X102228571Y-53530752D02*
X102276190Y-53340276D01*
X102276190Y-53340276D02*
X102371428Y-53245038D01*
X102371428Y-53245038D02*
X102466666Y-53197419D01*
X103799999Y-53197419D02*
X103323809Y-53197419D01*
X103323809Y-53197419D02*
X103276190Y-53673609D01*
X103276190Y-53673609D02*
X103323809Y-53625990D01*
X103323809Y-53625990D02*
X103419047Y-53578371D01*
X103419047Y-53578371D02*
X103657142Y-53578371D01*
X103657142Y-53578371D02*
X103752380Y-53625990D01*
X103752380Y-53625990D02*
X103799999Y-53673609D01*
X103799999Y-53673609D02*
X103847618Y-53768847D01*
X103847618Y-53768847D02*
X103847618Y-54006942D01*
X103847618Y-54006942D02*
X103799999Y-54102180D01*
X103799999Y-54102180D02*
X103752380Y-54149800D01*
X103752380Y-54149800D02*
X103657142Y-54197419D01*
X103657142Y-54197419D02*
X103419047Y-54197419D01*
X103419047Y-54197419D02*
X103323809Y-54149800D01*
X103323809Y-54149800D02*
X103276190Y-54102180D01*
X101800000Y-56737419D02*
X101800000Y-55737419D01*
X102466666Y-55737419D02*
X102657142Y-55737419D01*
X102657142Y-55737419D02*
X102752380Y-55785038D01*
X102752380Y-55785038D02*
X102847618Y-55880276D01*
X102847618Y-55880276D02*
X102895237Y-56070752D01*
X102895237Y-56070752D02*
X102895237Y-56404085D01*
X102895237Y-56404085D02*
X102847618Y-56594561D01*
X102847618Y-56594561D02*
X102752380Y-56689800D01*
X102752380Y-56689800D02*
X102657142Y-56737419D01*
X102657142Y-56737419D02*
X102466666Y-56737419D01*
X102466666Y-56737419D02*
X102371428Y-56689800D01*
X102371428Y-56689800D02*
X102276190Y-56594561D01*
X102276190Y-56594561D02*
X102228571Y-56404085D01*
X102228571Y-56404085D02*
X102228571Y-56070752D01*
X102228571Y-56070752D02*
X102276190Y-55880276D01*
X102276190Y-55880276D02*
X102371428Y-55785038D01*
X102371428Y-55785038D02*
X102466666Y-55737419D01*
X103752380Y-55737419D02*
X103561904Y-55737419D01*
X103561904Y-55737419D02*
X103466666Y-55785038D01*
X103466666Y-55785038D02*
X103419047Y-55832657D01*
X103419047Y-55832657D02*
X103323809Y-55975514D01*
X103323809Y-55975514D02*
X103276190Y-56165990D01*
X103276190Y-56165990D02*
X103276190Y-56546942D01*
X103276190Y-56546942D02*
X103323809Y-56642180D01*
X103323809Y-56642180D02*
X103371428Y-56689800D01*
X103371428Y-56689800D02*
X103466666Y-56737419D01*
X103466666Y-56737419D02*
X103657142Y-56737419D01*
X103657142Y-56737419D02*
X103752380Y-56689800D01*
X103752380Y-56689800D02*
X103799999Y-56642180D01*
X103799999Y-56642180D02*
X103847618Y-56546942D01*
X103847618Y-56546942D02*
X103847618Y-56308847D01*
X103847618Y-56308847D02*
X103799999Y-56213609D01*
X103799999Y-56213609D02*
X103752380Y-56165990D01*
X103752380Y-56165990D02*
X103657142Y-56118371D01*
X103657142Y-56118371D02*
X103466666Y-56118371D01*
X103466666Y-56118371D02*
X103371428Y-56165990D01*
X103371428Y-56165990D02*
X103323809Y-56213609D01*
X103323809Y-56213609D02*
X103276190Y-56308847D01*
X101800000Y-59277419D02*
X101800000Y-58277419D01*
X102466666Y-58277419D02*
X102657142Y-58277419D01*
X102657142Y-58277419D02*
X102752380Y-58325038D01*
X102752380Y-58325038D02*
X102847618Y-58420276D01*
X102847618Y-58420276D02*
X102895237Y-58610752D01*
X102895237Y-58610752D02*
X102895237Y-58944085D01*
X102895237Y-58944085D02*
X102847618Y-59134561D01*
X102847618Y-59134561D02*
X102752380Y-59229800D01*
X102752380Y-59229800D02*
X102657142Y-59277419D01*
X102657142Y-59277419D02*
X102466666Y-59277419D01*
X102466666Y-59277419D02*
X102371428Y-59229800D01*
X102371428Y-59229800D02*
X102276190Y-59134561D01*
X102276190Y-59134561D02*
X102228571Y-58944085D01*
X102228571Y-58944085D02*
X102228571Y-58610752D01*
X102228571Y-58610752D02*
X102276190Y-58420276D01*
X102276190Y-58420276D02*
X102371428Y-58325038D01*
X102371428Y-58325038D02*
X102466666Y-58277419D01*
X103228571Y-58277419D02*
X103895237Y-58277419D01*
X103895237Y-58277419D02*
X103466666Y-59277419D01*
X101323810Y-61817419D02*
X101323810Y-60817419D01*
X101990476Y-60817419D02*
X102180952Y-60817419D01*
X102180952Y-60817419D02*
X102276190Y-60865038D01*
X102276190Y-60865038D02*
X102371428Y-60960276D01*
X102371428Y-60960276D02*
X102419047Y-61150752D01*
X102419047Y-61150752D02*
X102419047Y-61484085D01*
X102419047Y-61484085D02*
X102371428Y-61674561D01*
X102371428Y-61674561D02*
X102276190Y-61769800D01*
X102276190Y-61769800D02*
X102180952Y-61817419D01*
X102180952Y-61817419D02*
X101990476Y-61817419D01*
X101990476Y-61817419D02*
X101895238Y-61769800D01*
X101895238Y-61769800D02*
X101800000Y-61674561D01*
X101800000Y-61674561D02*
X101752381Y-61484085D01*
X101752381Y-61484085D02*
X101752381Y-61150752D01*
X101752381Y-61150752D02*
X101800000Y-60960276D01*
X101800000Y-60960276D02*
X101895238Y-60865038D01*
X101895238Y-60865038D02*
X101990476Y-60817419D01*
X103371428Y-61817419D02*
X102800000Y-61817419D01*
X103085714Y-61817419D02*
X103085714Y-60817419D01*
X103085714Y-60817419D02*
X102990476Y-60960276D01*
X102990476Y-60960276D02*
X102895238Y-61055514D01*
X102895238Y-61055514D02*
X102800000Y-61103133D01*
X104276190Y-60817419D02*
X103800000Y-60817419D01*
X103800000Y-60817419D02*
X103752381Y-61293609D01*
X103752381Y-61293609D02*
X103800000Y-61245990D01*
X103800000Y-61245990D02*
X103895238Y-61198371D01*
X103895238Y-61198371D02*
X104133333Y-61198371D01*
X104133333Y-61198371D02*
X104228571Y-61245990D01*
X104228571Y-61245990D02*
X104276190Y-61293609D01*
X104276190Y-61293609D02*
X104323809Y-61388847D01*
X104323809Y-61388847D02*
X104323809Y-61626942D01*
X104323809Y-61626942D02*
X104276190Y-61722180D01*
X104276190Y-61722180D02*
X104228571Y-61769800D01*
X104228571Y-61769800D02*
X104133333Y-61817419D01*
X104133333Y-61817419D02*
X103895238Y-61817419D01*
X103895238Y-61817419D02*
X103800000Y-61769800D01*
X103800000Y-61769800D02*
X103752381Y-61722180D01*
X101323810Y-64357419D02*
X101323810Y-63357419D01*
X101990476Y-63357419D02*
X102180952Y-63357419D01*
X102180952Y-63357419D02*
X102276190Y-63405038D01*
X102276190Y-63405038D02*
X102371428Y-63500276D01*
X102371428Y-63500276D02*
X102419047Y-63690752D01*
X102419047Y-63690752D02*
X102419047Y-64024085D01*
X102419047Y-64024085D02*
X102371428Y-64214561D01*
X102371428Y-64214561D02*
X102276190Y-64309800D01*
X102276190Y-64309800D02*
X102180952Y-64357419D01*
X102180952Y-64357419D02*
X101990476Y-64357419D01*
X101990476Y-64357419D02*
X101895238Y-64309800D01*
X101895238Y-64309800D02*
X101800000Y-64214561D01*
X101800000Y-64214561D02*
X101752381Y-64024085D01*
X101752381Y-64024085D02*
X101752381Y-63690752D01*
X101752381Y-63690752D02*
X101800000Y-63500276D01*
X101800000Y-63500276D02*
X101895238Y-63405038D01*
X101895238Y-63405038D02*
X101990476Y-63357419D01*
X103371428Y-64357419D02*
X102800000Y-64357419D01*
X103085714Y-64357419D02*
X103085714Y-63357419D01*
X103085714Y-63357419D02*
X102990476Y-63500276D01*
X102990476Y-63500276D02*
X102895238Y-63595514D01*
X102895238Y-63595514D02*
X102800000Y-63643133D01*
X104228571Y-63357419D02*
X104038095Y-63357419D01*
X104038095Y-63357419D02*
X103942857Y-63405038D01*
X103942857Y-63405038D02*
X103895238Y-63452657D01*
X103895238Y-63452657D02*
X103800000Y-63595514D01*
X103800000Y-63595514D02*
X103752381Y-63785990D01*
X103752381Y-63785990D02*
X103752381Y-64166942D01*
X103752381Y-64166942D02*
X103800000Y-64262180D01*
X103800000Y-64262180D02*
X103847619Y-64309800D01*
X103847619Y-64309800D02*
X103942857Y-64357419D01*
X103942857Y-64357419D02*
X104133333Y-64357419D01*
X104133333Y-64357419D02*
X104228571Y-64309800D01*
X104228571Y-64309800D02*
X104276190Y-64262180D01*
X104276190Y-64262180D02*
X104323809Y-64166942D01*
X104323809Y-64166942D02*
X104323809Y-63928847D01*
X104323809Y-63928847D02*
X104276190Y-63833609D01*
X104276190Y-63833609D02*
X104228571Y-63785990D01*
X104228571Y-63785990D02*
X104133333Y-63738371D01*
X104133333Y-63738371D02*
X103942857Y-63738371D01*
X103942857Y-63738371D02*
X103847619Y-63785990D01*
X103847619Y-63785990D02*
X103800000Y-63833609D01*
X103800000Y-63833609D02*
X103752381Y-63928847D01*
X101323810Y-66897419D02*
X101323810Y-65897419D01*
X101990476Y-65897419D02*
X102180952Y-65897419D01*
X102180952Y-65897419D02*
X102276190Y-65945038D01*
X102276190Y-65945038D02*
X102371428Y-66040276D01*
X102371428Y-66040276D02*
X102419047Y-66230752D01*
X102419047Y-66230752D02*
X102419047Y-66564085D01*
X102419047Y-66564085D02*
X102371428Y-66754561D01*
X102371428Y-66754561D02*
X102276190Y-66849800D01*
X102276190Y-66849800D02*
X102180952Y-66897419D01*
X102180952Y-66897419D02*
X101990476Y-66897419D01*
X101990476Y-66897419D02*
X101895238Y-66849800D01*
X101895238Y-66849800D02*
X101800000Y-66754561D01*
X101800000Y-66754561D02*
X101752381Y-66564085D01*
X101752381Y-66564085D02*
X101752381Y-66230752D01*
X101752381Y-66230752D02*
X101800000Y-66040276D01*
X101800000Y-66040276D02*
X101895238Y-65945038D01*
X101895238Y-65945038D02*
X101990476Y-65897419D01*
X103371428Y-66897419D02*
X102800000Y-66897419D01*
X103085714Y-66897419D02*
X103085714Y-65897419D01*
X103085714Y-65897419D02*
X102990476Y-66040276D01*
X102990476Y-66040276D02*
X102895238Y-66135514D01*
X102895238Y-66135514D02*
X102800000Y-66183133D01*
X103704762Y-65897419D02*
X104371428Y-65897419D01*
X104371428Y-65897419D02*
X103942857Y-66897419D01*
X101323810Y-69437419D02*
X101323810Y-68437419D01*
X101990476Y-68437419D02*
X102180952Y-68437419D01*
X102180952Y-68437419D02*
X102276190Y-68485038D01*
X102276190Y-68485038D02*
X102371428Y-68580276D01*
X102371428Y-68580276D02*
X102419047Y-68770752D01*
X102419047Y-68770752D02*
X102419047Y-69104085D01*
X102419047Y-69104085D02*
X102371428Y-69294561D01*
X102371428Y-69294561D02*
X102276190Y-69389800D01*
X102276190Y-69389800D02*
X102180952Y-69437419D01*
X102180952Y-69437419D02*
X101990476Y-69437419D01*
X101990476Y-69437419D02*
X101895238Y-69389800D01*
X101895238Y-69389800D02*
X101800000Y-69294561D01*
X101800000Y-69294561D02*
X101752381Y-69104085D01*
X101752381Y-69104085D02*
X101752381Y-68770752D01*
X101752381Y-68770752D02*
X101800000Y-68580276D01*
X101800000Y-68580276D02*
X101895238Y-68485038D01*
X101895238Y-68485038D02*
X101990476Y-68437419D01*
X103371428Y-69437419D02*
X102800000Y-69437419D01*
X103085714Y-69437419D02*
X103085714Y-68437419D01*
X103085714Y-68437419D02*
X102990476Y-68580276D01*
X102990476Y-68580276D02*
X102895238Y-68675514D01*
X102895238Y-68675514D02*
X102800000Y-68723133D01*
X103942857Y-68865990D02*
X103847619Y-68818371D01*
X103847619Y-68818371D02*
X103800000Y-68770752D01*
X103800000Y-68770752D02*
X103752381Y-68675514D01*
X103752381Y-68675514D02*
X103752381Y-68627895D01*
X103752381Y-68627895D02*
X103800000Y-68532657D01*
X103800000Y-68532657D02*
X103847619Y-68485038D01*
X103847619Y-68485038D02*
X103942857Y-68437419D01*
X103942857Y-68437419D02*
X104133333Y-68437419D01*
X104133333Y-68437419D02*
X104228571Y-68485038D01*
X104228571Y-68485038D02*
X104276190Y-68532657D01*
X104276190Y-68532657D02*
X104323809Y-68627895D01*
X104323809Y-68627895D02*
X104323809Y-68675514D01*
X104323809Y-68675514D02*
X104276190Y-68770752D01*
X104276190Y-68770752D02*
X104228571Y-68818371D01*
X104228571Y-68818371D02*
X104133333Y-68865990D01*
X104133333Y-68865990D02*
X103942857Y-68865990D01*
X103942857Y-68865990D02*
X103847619Y-68913609D01*
X103847619Y-68913609D02*
X103800000Y-68961228D01*
X103800000Y-68961228D02*
X103752381Y-69056466D01*
X103752381Y-69056466D02*
X103752381Y-69246942D01*
X103752381Y-69246942D02*
X103800000Y-69342180D01*
X103800000Y-69342180D02*
X103847619Y-69389800D01*
X103847619Y-69389800D02*
X103942857Y-69437419D01*
X103942857Y-69437419D02*
X104133333Y-69437419D01*
X104133333Y-69437419D02*
X104228571Y-69389800D01*
X104228571Y-69389800D02*
X104276190Y-69342180D01*
X104276190Y-69342180D02*
X104323809Y-69246942D01*
X104323809Y-69246942D02*
X104323809Y-69056466D01*
X104323809Y-69056466D02*
X104276190Y-68961228D01*
X104276190Y-68961228D02*
X104228571Y-68913609D01*
X104228571Y-68913609D02*
X104133333Y-68865990D01*
X101800000Y-71977419D02*
X101800000Y-70977419D01*
X102466666Y-70977419D02*
X102657142Y-70977419D01*
X102657142Y-70977419D02*
X102752380Y-71025038D01*
X102752380Y-71025038D02*
X102847618Y-71120276D01*
X102847618Y-71120276D02*
X102895237Y-71310752D01*
X102895237Y-71310752D02*
X102895237Y-71644085D01*
X102895237Y-71644085D02*
X102847618Y-71834561D01*
X102847618Y-71834561D02*
X102752380Y-71929800D01*
X102752380Y-71929800D02*
X102657142Y-71977419D01*
X102657142Y-71977419D02*
X102466666Y-71977419D01*
X102466666Y-71977419D02*
X102371428Y-71929800D01*
X102371428Y-71929800D02*
X102276190Y-71834561D01*
X102276190Y-71834561D02*
X102228571Y-71644085D01*
X102228571Y-71644085D02*
X102228571Y-71310752D01*
X102228571Y-71310752D02*
X102276190Y-71120276D01*
X102276190Y-71120276D02*
X102371428Y-71025038D01*
X102371428Y-71025038D02*
X102466666Y-70977419D01*
X103466666Y-71405990D02*
X103371428Y-71358371D01*
X103371428Y-71358371D02*
X103323809Y-71310752D01*
X103323809Y-71310752D02*
X103276190Y-71215514D01*
X103276190Y-71215514D02*
X103276190Y-71167895D01*
X103276190Y-71167895D02*
X103323809Y-71072657D01*
X103323809Y-71072657D02*
X103371428Y-71025038D01*
X103371428Y-71025038D02*
X103466666Y-70977419D01*
X103466666Y-70977419D02*
X103657142Y-70977419D01*
X103657142Y-70977419D02*
X103752380Y-71025038D01*
X103752380Y-71025038D02*
X103799999Y-71072657D01*
X103799999Y-71072657D02*
X103847618Y-71167895D01*
X103847618Y-71167895D02*
X103847618Y-71215514D01*
X103847618Y-71215514D02*
X103799999Y-71310752D01*
X103799999Y-71310752D02*
X103752380Y-71358371D01*
X103752380Y-71358371D02*
X103657142Y-71405990D01*
X103657142Y-71405990D02*
X103466666Y-71405990D01*
X103466666Y-71405990D02*
X103371428Y-71453609D01*
X103371428Y-71453609D02*
X103323809Y-71501228D01*
X103323809Y-71501228D02*
X103276190Y-71596466D01*
X103276190Y-71596466D02*
X103276190Y-71786942D01*
X103276190Y-71786942D02*
X103323809Y-71882180D01*
X103323809Y-71882180D02*
X103371428Y-71929800D01*
X103371428Y-71929800D02*
X103466666Y-71977419D01*
X103466666Y-71977419D02*
X103657142Y-71977419D01*
X103657142Y-71977419D02*
X103752380Y-71929800D01*
X103752380Y-71929800D02*
X103799999Y-71882180D01*
X103799999Y-71882180D02*
X103847618Y-71786942D01*
X103847618Y-71786942D02*
X103847618Y-71596466D01*
X103847618Y-71596466D02*
X103799999Y-71501228D01*
X103799999Y-71501228D02*
X103752380Y-71453609D01*
X103752380Y-71453609D02*
X103657142Y-71405990D01*
X101800000Y-74517419D02*
X101800000Y-73517419D01*
X102466666Y-73517419D02*
X102657142Y-73517419D01*
X102657142Y-73517419D02*
X102752380Y-73565038D01*
X102752380Y-73565038D02*
X102847618Y-73660276D01*
X102847618Y-73660276D02*
X102895237Y-73850752D01*
X102895237Y-73850752D02*
X102895237Y-74184085D01*
X102895237Y-74184085D02*
X102847618Y-74374561D01*
X102847618Y-74374561D02*
X102752380Y-74469800D01*
X102752380Y-74469800D02*
X102657142Y-74517419D01*
X102657142Y-74517419D02*
X102466666Y-74517419D01*
X102466666Y-74517419D02*
X102371428Y-74469800D01*
X102371428Y-74469800D02*
X102276190Y-74374561D01*
X102276190Y-74374561D02*
X102228571Y-74184085D01*
X102228571Y-74184085D02*
X102228571Y-73850752D01*
X102228571Y-73850752D02*
X102276190Y-73660276D01*
X102276190Y-73660276D02*
X102371428Y-73565038D01*
X102371428Y-73565038D02*
X102466666Y-73517419D01*
X103228571Y-73517419D02*
X103847618Y-73517419D01*
X103847618Y-73517419D02*
X103514285Y-73898371D01*
X103514285Y-73898371D02*
X103657142Y-73898371D01*
X103657142Y-73898371D02*
X103752380Y-73945990D01*
X103752380Y-73945990D02*
X103799999Y-73993609D01*
X103799999Y-73993609D02*
X103847618Y-74088847D01*
X103847618Y-74088847D02*
X103847618Y-74326942D01*
X103847618Y-74326942D02*
X103799999Y-74422180D01*
X103799999Y-74422180D02*
X103752380Y-74469800D01*
X103752380Y-74469800D02*
X103657142Y-74517419D01*
X103657142Y-74517419D02*
X103371428Y-74517419D01*
X103371428Y-74517419D02*
X103276190Y-74469800D01*
X103276190Y-74469800D02*
X103228571Y-74422180D01*
X101323810Y-77057419D02*
X101323810Y-76057419D01*
X101990476Y-76057419D02*
X102180952Y-76057419D01*
X102180952Y-76057419D02*
X102276190Y-76105038D01*
X102276190Y-76105038D02*
X102371428Y-76200276D01*
X102371428Y-76200276D02*
X102419047Y-76390752D01*
X102419047Y-76390752D02*
X102419047Y-76724085D01*
X102419047Y-76724085D02*
X102371428Y-76914561D01*
X102371428Y-76914561D02*
X102276190Y-77009800D01*
X102276190Y-77009800D02*
X102180952Y-77057419D01*
X102180952Y-77057419D02*
X101990476Y-77057419D01*
X101990476Y-77057419D02*
X101895238Y-77009800D01*
X101895238Y-77009800D02*
X101800000Y-76914561D01*
X101800000Y-76914561D02*
X101752381Y-76724085D01*
X101752381Y-76724085D02*
X101752381Y-76390752D01*
X101752381Y-76390752D02*
X101800000Y-76200276D01*
X101800000Y-76200276D02*
X101895238Y-76105038D01*
X101895238Y-76105038D02*
X101990476Y-76057419D01*
X103276190Y-76390752D02*
X103276190Y-77057419D01*
X103038095Y-76009800D02*
X102800000Y-76724085D01*
X102800000Y-76724085D02*
X103419047Y-76724085D01*
X104228571Y-76057419D02*
X104038095Y-76057419D01*
X104038095Y-76057419D02*
X103942857Y-76105038D01*
X103942857Y-76105038D02*
X103895238Y-76152657D01*
X103895238Y-76152657D02*
X103800000Y-76295514D01*
X103800000Y-76295514D02*
X103752381Y-76485990D01*
X103752381Y-76485990D02*
X103752381Y-76866942D01*
X103752381Y-76866942D02*
X103800000Y-76962180D01*
X103800000Y-76962180D02*
X103847619Y-77009800D01*
X103847619Y-77009800D02*
X103942857Y-77057419D01*
X103942857Y-77057419D02*
X104133333Y-77057419D01*
X104133333Y-77057419D02*
X104228571Y-77009800D01*
X104228571Y-77009800D02*
X104276190Y-76962180D01*
X104276190Y-76962180D02*
X104323809Y-76866942D01*
X104323809Y-76866942D02*
X104323809Y-76628847D01*
X104323809Y-76628847D02*
X104276190Y-76533609D01*
X104276190Y-76533609D02*
X104228571Y-76485990D01*
X104228571Y-76485990D02*
X104133333Y-76438371D01*
X104133333Y-76438371D02*
X103942857Y-76438371D01*
X103942857Y-76438371D02*
X103847619Y-76485990D01*
X103847619Y-76485990D02*
X103800000Y-76533609D01*
X103800000Y-76533609D02*
X103752381Y-76628847D01*
X101800000Y-79597419D02*
X101800000Y-78597419D01*
X102466666Y-78597419D02*
X102657142Y-78597419D01*
X102657142Y-78597419D02*
X102752380Y-78645038D01*
X102752380Y-78645038D02*
X102847618Y-78740276D01*
X102847618Y-78740276D02*
X102895237Y-78930752D01*
X102895237Y-78930752D02*
X102895237Y-79264085D01*
X102895237Y-79264085D02*
X102847618Y-79454561D01*
X102847618Y-79454561D02*
X102752380Y-79549800D01*
X102752380Y-79549800D02*
X102657142Y-79597419D01*
X102657142Y-79597419D02*
X102466666Y-79597419D01*
X102466666Y-79597419D02*
X102371428Y-79549800D01*
X102371428Y-79549800D02*
X102276190Y-79454561D01*
X102276190Y-79454561D02*
X102228571Y-79264085D01*
X102228571Y-79264085D02*
X102228571Y-78930752D01*
X102228571Y-78930752D02*
X102276190Y-78740276D01*
X102276190Y-78740276D02*
X102371428Y-78645038D01*
X102371428Y-78645038D02*
X102466666Y-78597419D01*
X103371428Y-79597419D02*
X103561904Y-79597419D01*
X103561904Y-79597419D02*
X103657142Y-79549800D01*
X103657142Y-79549800D02*
X103704761Y-79502180D01*
X103704761Y-79502180D02*
X103799999Y-79359323D01*
X103799999Y-79359323D02*
X103847618Y-79168847D01*
X103847618Y-79168847D02*
X103847618Y-78787895D01*
X103847618Y-78787895D02*
X103799999Y-78692657D01*
X103799999Y-78692657D02*
X103752380Y-78645038D01*
X103752380Y-78645038D02*
X103657142Y-78597419D01*
X103657142Y-78597419D02*
X103466666Y-78597419D01*
X103466666Y-78597419D02*
X103371428Y-78645038D01*
X103371428Y-78645038D02*
X103323809Y-78692657D01*
X103323809Y-78692657D02*
X103276190Y-78787895D01*
X103276190Y-78787895D02*
X103276190Y-79025990D01*
X103276190Y-79025990D02*
X103323809Y-79121228D01*
X103323809Y-79121228D02*
X103371428Y-79168847D01*
X103371428Y-79168847D02*
X103466666Y-79216466D01*
X103466666Y-79216466D02*
X103657142Y-79216466D01*
X103657142Y-79216466D02*
X103752380Y-79168847D01*
X103752380Y-79168847D02*
X103799999Y-79121228D01*
X103799999Y-79121228D02*
X103847618Y-79025990D01*
X101323810Y-82137419D02*
X101323810Y-81137419D01*
X101990476Y-81137419D02*
X102180952Y-81137419D01*
X102180952Y-81137419D02*
X102276190Y-81185038D01*
X102276190Y-81185038D02*
X102371428Y-81280276D01*
X102371428Y-81280276D02*
X102419047Y-81470752D01*
X102419047Y-81470752D02*
X102419047Y-81804085D01*
X102419047Y-81804085D02*
X102371428Y-81994561D01*
X102371428Y-81994561D02*
X102276190Y-82089800D01*
X102276190Y-82089800D02*
X102180952Y-82137419D01*
X102180952Y-82137419D02*
X101990476Y-82137419D01*
X101990476Y-82137419D02*
X101895238Y-82089800D01*
X101895238Y-82089800D02*
X101800000Y-81994561D01*
X101800000Y-81994561D02*
X101752381Y-81804085D01*
X101752381Y-81804085D02*
X101752381Y-81470752D01*
X101752381Y-81470752D02*
X101800000Y-81280276D01*
X101800000Y-81280276D02*
X101895238Y-81185038D01*
X101895238Y-81185038D02*
X101990476Y-81137419D01*
X103371428Y-82137419D02*
X102800000Y-82137419D01*
X103085714Y-82137419D02*
X103085714Y-81137419D01*
X103085714Y-81137419D02*
X102990476Y-81280276D01*
X102990476Y-81280276D02*
X102895238Y-81375514D01*
X102895238Y-81375514D02*
X102800000Y-81423133D01*
X103990476Y-81137419D02*
X104085714Y-81137419D01*
X104085714Y-81137419D02*
X104180952Y-81185038D01*
X104180952Y-81185038D02*
X104228571Y-81232657D01*
X104228571Y-81232657D02*
X104276190Y-81327895D01*
X104276190Y-81327895D02*
X104323809Y-81518371D01*
X104323809Y-81518371D02*
X104323809Y-81756466D01*
X104323809Y-81756466D02*
X104276190Y-81946942D01*
X104276190Y-81946942D02*
X104228571Y-82042180D01*
X104228571Y-82042180D02*
X104180952Y-82089800D01*
X104180952Y-82089800D02*
X104085714Y-82137419D01*
X104085714Y-82137419D02*
X103990476Y-82137419D01*
X103990476Y-82137419D02*
X103895238Y-82089800D01*
X103895238Y-82089800D02*
X103847619Y-82042180D01*
X103847619Y-82042180D02*
X103800000Y-81946942D01*
X103800000Y-81946942D02*
X103752381Y-81756466D01*
X103752381Y-81756466D02*
X103752381Y-81518371D01*
X103752381Y-81518371D02*
X103800000Y-81327895D01*
X103800000Y-81327895D02*
X103847619Y-81232657D01*
X103847619Y-81232657D02*
X103895238Y-81185038D01*
X103895238Y-81185038D02*
X103990476Y-81137419D01*
X101323810Y-84677419D02*
X101323810Y-83677419D01*
X101990476Y-83677419D02*
X102180952Y-83677419D01*
X102180952Y-83677419D02*
X102276190Y-83725038D01*
X102276190Y-83725038D02*
X102371428Y-83820276D01*
X102371428Y-83820276D02*
X102419047Y-84010752D01*
X102419047Y-84010752D02*
X102419047Y-84344085D01*
X102419047Y-84344085D02*
X102371428Y-84534561D01*
X102371428Y-84534561D02*
X102276190Y-84629800D01*
X102276190Y-84629800D02*
X102180952Y-84677419D01*
X102180952Y-84677419D02*
X101990476Y-84677419D01*
X101990476Y-84677419D02*
X101895238Y-84629800D01*
X101895238Y-84629800D02*
X101800000Y-84534561D01*
X101800000Y-84534561D02*
X101752381Y-84344085D01*
X101752381Y-84344085D02*
X101752381Y-84010752D01*
X101752381Y-84010752D02*
X101800000Y-83820276D01*
X101800000Y-83820276D02*
X101895238Y-83725038D01*
X101895238Y-83725038D02*
X101990476Y-83677419D01*
X103371428Y-84677419D02*
X102800000Y-84677419D01*
X103085714Y-84677419D02*
X103085714Y-83677419D01*
X103085714Y-83677419D02*
X102990476Y-83820276D01*
X102990476Y-83820276D02*
X102895238Y-83915514D01*
X102895238Y-83915514D02*
X102800000Y-83963133D01*
X104323809Y-84677419D02*
X103752381Y-84677419D01*
X104038095Y-84677419D02*
X104038095Y-83677419D01*
X104038095Y-83677419D02*
X103942857Y-83820276D01*
X103942857Y-83820276D02*
X103847619Y-83915514D01*
X103847619Y-83915514D02*
X103752381Y-83963133D01*
X101323810Y-87217419D02*
X101323810Y-86217419D01*
X101990476Y-86217419D02*
X102180952Y-86217419D01*
X102180952Y-86217419D02*
X102276190Y-86265038D01*
X102276190Y-86265038D02*
X102371428Y-86360276D01*
X102371428Y-86360276D02*
X102419047Y-86550752D01*
X102419047Y-86550752D02*
X102419047Y-86884085D01*
X102419047Y-86884085D02*
X102371428Y-87074561D01*
X102371428Y-87074561D02*
X102276190Y-87169800D01*
X102276190Y-87169800D02*
X102180952Y-87217419D01*
X102180952Y-87217419D02*
X101990476Y-87217419D01*
X101990476Y-87217419D02*
X101895238Y-87169800D01*
X101895238Y-87169800D02*
X101800000Y-87074561D01*
X101800000Y-87074561D02*
X101752381Y-86884085D01*
X101752381Y-86884085D02*
X101752381Y-86550752D01*
X101752381Y-86550752D02*
X101800000Y-86360276D01*
X101800000Y-86360276D02*
X101895238Y-86265038D01*
X101895238Y-86265038D02*
X101990476Y-86217419D01*
X103371428Y-87217419D02*
X102800000Y-87217419D01*
X103085714Y-87217419D02*
X103085714Y-86217419D01*
X103085714Y-86217419D02*
X102990476Y-86360276D01*
X102990476Y-86360276D02*
X102895238Y-86455514D01*
X102895238Y-86455514D02*
X102800000Y-86503133D01*
X103752381Y-86312657D02*
X103800000Y-86265038D01*
X103800000Y-86265038D02*
X103895238Y-86217419D01*
X103895238Y-86217419D02*
X104133333Y-86217419D01*
X104133333Y-86217419D02*
X104228571Y-86265038D01*
X104228571Y-86265038D02*
X104276190Y-86312657D01*
X104276190Y-86312657D02*
X104323809Y-86407895D01*
X104323809Y-86407895D02*
X104323809Y-86503133D01*
X104323809Y-86503133D02*
X104276190Y-86645990D01*
X104276190Y-86645990D02*
X103704762Y-87217419D01*
X103704762Y-87217419D02*
X104323809Y-87217419D01*
X101323810Y-89757419D02*
X101323810Y-88757419D01*
X101990476Y-88757419D02*
X102180952Y-88757419D01*
X102180952Y-88757419D02*
X102276190Y-88805038D01*
X102276190Y-88805038D02*
X102371428Y-88900276D01*
X102371428Y-88900276D02*
X102419047Y-89090752D01*
X102419047Y-89090752D02*
X102419047Y-89424085D01*
X102419047Y-89424085D02*
X102371428Y-89614561D01*
X102371428Y-89614561D02*
X102276190Y-89709800D01*
X102276190Y-89709800D02*
X102180952Y-89757419D01*
X102180952Y-89757419D02*
X101990476Y-89757419D01*
X101990476Y-89757419D02*
X101895238Y-89709800D01*
X101895238Y-89709800D02*
X101800000Y-89614561D01*
X101800000Y-89614561D02*
X101752381Y-89424085D01*
X101752381Y-89424085D02*
X101752381Y-89090752D01*
X101752381Y-89090752D02*
X101800000Y-88900276D01*
X101800000Y-88900276D02*
X101895238Y-88805038D01*
X101895238Y-88805038D02*
X101990476Y-88757419D01*
X103371428Y-89757419D02*
X102800000Y-89757419D01*
X103085714Y-89757419D02*
X103085714Y-88757419D01*
X103085714Y-88757419D02*
X102990476Y-88900276D01*
X102990476Y-88900276D02*
X102895238Y-88995514D01*
X102895238Y-88995514D02*
X102800000Y-89043133D01*
X103704762Y-88757419D02*
X104323809Y-88757419D01*
X104323809Y-88757419D02*
X103990476Y-89138371D01*
X103990476Y-89138371D02*
X104133333Y-89138371D01*
X104133333Y-89138371D02*
X104228571Y-89185990D01*
X104228571Y-89185990D02*
X104276190Y-89233609D01*
X104276190Y-89233609D02*
X104323809Y-89328847D01*
X104323809Y-89328847D02*
X104323809Y-89566942D01*
X104323809Y-89566942D02*
X104276190Y-89662180D01*
X104276190Y-89662180D02*
X104228571Y-89709800D01*
X104228571Y-89709800D02*
X104133333Y-89757419D01*
X104133333Y-89757419D02*
X103847619Y-89757419D01*
X103847619Y-89757419D02*
X103752381Y-89709800D01*
X103752381Y-89709800D02*
X103704762Y-89662180D01*
X101323810Y-92297419D02*
X101323810Y-91297419D01*
X101990476Y-91297419D02*
X102180952Y-91297419D01*
X102180952Y-91297419D02*
X102276190Y-91345038D01*
X102276190Y-91345038D02*
X102371428Y-91440276D01*
X102371428Y-91440276D02*
X102419047Y-91630752D01*
X102419047Y-91630752D02*
X102419047Y-91964085D01*
X102419047Y-91964085D02*
X102371428Y-92154561D01*
X102371428Y-92154561D02*
X102276190Y-92249800D01*
X102276190Y-92249800D02*
X102180952Y-92297419D01*
X102180952Y-92297419D02*
X101990476Y-92297419D01*
X101990476Y-92297419D02*
X101895238Y-92249800D01*
X101895238Y-92249800D02*
X101800000Y-92154561D01*
X101800000Y-92154561D02*
X101752381Y-91964085D01*
X101752381Y-91964085D02*
X101752381Y-91630752D01*
X101752381Y-91630752D02*
X101800000Y-91440276D01*
X101800000Y-91440276D02*
X101895238Y-91345038D01*
X101895238Y-91345038D02*
X101990476Y-91297419D01*
X103371428Y-92297419D02*
X102800000Y-92297419D01*
X103085714Y-92297419D02*
X103085714Y-91297419D01*
X103085714Y-91297419D02*
X102990476Y-91440276D01*
X102990476Y-91440276D02*
X102895238Y-91535514D01*
X102895238Y-91535514D02*
X102800000Y-91583133D01*
X104228571Y-91630752D02*
X104228571Y-92297419D01*
X103990476Y-91249800D02*
X103752381Y-91964085D01*
X103752381Y-91964085D02*
X104371428Y-91964085D01*
X102609523Y-93837419D02*
X102133333Y-93837419D01*
X102133333Y-93837419D02*
X102085714Y-94313609D01*
X102085714Y-94313609D02*
X102133333Y-94265990D01*
X102133333Y-94265990D02*
X102228571Y-94218371D01*
X102228571Y-94218371D02*
X102466666Y-94218371D01*
X102466666Y-94218371D02*
X102561904Y-94265990D01*
X102561904Y-94265990D02*
X102609523Y-94313609D01*
X102609523Y-94313609D02*
X102657142Y-94408847D01*
X102657142Y-94408847D02*
X102657142Y-94646942D01*
X102657142Y-94646942D02*
X102609523Y-94742180D01*
X102609523Y-94742180D02*
X102561904Y-94789800D01*
X102561904Y-94789800D02*
X102466666Y-94837419D01*
X102466666Y-94837419D02*
X102228571Y-94837419D01*
X102228571Y-94837419D02*
X102133333Y-94789800D01*
X102133333Y-94789800D02*
X102085714Y-94742180D01*
X102942857Y-93837419D02*
X103276190Y-94837419D01*
X103276190Y-94837419D02*
X103609523Y-93837419D01*
X102038095Y-96425038D02*
X101942857Y-96377419D01*
X101942857Y-96377419D02*
X101800000Y-96377419D01*
X101800000Y-96377419D02*
X101657143Y-96425038D01*
X101657143Y-96425038D02*
X101561905Y-96520276D01*
X101561905Y-96520276D02*
X101514286Y-96615514D01*
X101514286Y-96615514D02*
X101466667Y-96805990D01*
X101466667Y-96805990D02*
X101466667Y-96948847D01*
X101466667Y-96948847D02*
X101514286Y-97139323D01*
X101514286Y-97139323D02*
X101561905Y-97234561D01*
X101561905Y-97234561D02*
X101657143Y-97329800D01*
X101657143Y-97329800D02*
X101800000Y-97377419D01*
X101800000Y-97377419D02*
X101895238Y-97377419D01*
X101895238Y-97377419D02*
X102038095Y-97329800D01*
X102038095Y-97329800D02*
X102085714Y-97282180D01*
X102085714Y-97282180D02*
X102085714Y-96948847D01*
X102085714Y-96948847D02*
X101895238Y-96948847D01*
X102514286Y-97377419D02*
X102514286Y-96377419D01*
X102514286Y-96377419D02*
X103085714Y-97377419D01*
X103085714Y-97377419D02*
X103085714Y-96377419D01*
X103561905Y-97377419D02*
X103561905Y-96377419D01*
X103561905Y-96377419D02*
X103800000Y-96377419D01*
X103800000Y-96377419D02*
X103942857Y-96425038D01*
X103942857Y-96425038D02*
X104038095Y-96520276D01*
X104038095Y-96520276D02*
X104085714Y-96615514D01*
X104085714Y-96615514D02*
X104133333Y-96805990D01*
X104133333Y-96805990D02*
X104133333Y-96948847D01*
X104133333Y-96948847D02*
X104085714Y-97139323D01*
X104085714Y-97139323D02*
X104038095Y-97234561D01*
X104038095Y-97234561D02*
X103942857Y-97329800D01*
X103942857Y-97329800D02*
X103800000Y-97377419D01*
X103800000Y-97377419D02*
X103561905Y-97377419D01*
X120438095Y-43085038D02*
X120342857Y-43037419D01*
X120342857Y-43037419D02*
X120200000Y-43037419D01*
X120200000Y-43037419D02*
X120057143Y-43085038D01*
X120057143Y-43085038D02*
X119961905Y-43180276D01*
X119961905Y-43180276D02*
X119914286Y-43275514D01*
X119914286Y-43275514D02*
X119866667Y-43465990D01*
X119866667Y-43465990D02*
X119866667Y-43608847D01*
X119866667Y-43608847D02*
X119914286Y-43799323D01*
X119914286Y-43799323D02*
X119961905Y-43894561D01*
X119961905Y-43894561D02*
X120057143Y-43989800D01*
X120057143Y-43989800D02*
X120200000Y-44037419D01*
X120200000Y-44037419D02*
X120295238Y-44037419D01*
X120295238Y-44037419D02*
X120438095Y-43989800D01*
X120438095Y-43989800D02*
X120485714Y-43942180D01*
X120485714Y-43942180D02*
X120485714Y-43608847D01*
X120485714Y-43608847D02*
X120295238Y-43608847D01*
X120914286Y-44037419D02*
X120914286Y-43037419D01*
X120914286Y-43037419D02*
X121485714Y-44037419D01*
X121485714Y-44037419D02*
X121485714Y-43037419D01*
X121961905Y-44037419D02*
X121961905Y-43037419D01*
X121961905Y-43037419D02*
X122200000Y-43037419D01*
X122200000Y-43037419D02*
X122342857Y-43085038D01*
X122342857Y-43085038D02*
X122438095Y-43180276D01*
X122438095Y-43180276D02*
X122485714Y-43275514D01*
X122485714Y-43275514D02*
X122533333Y-43465990D01*
X122533333Y-43465990D02*
X122533333Y-43608847D01*
X122533333Y-43608847D02*
X122485714Y-43799323D01*
X122485714Y-43799323D02*
X122438095Y-43894561D01*
X122438095Y-43894561D02*
X122342857Y-43989800D01*
X122342857Y-43989800D02*
X122200000Y-44037419D01*
X122200000Y-44037419D02*
X121961905Y-44037419D01*
X119461905Y-45577419D02*
X120033333Y-45577419D01*
X119747619Y-46577419D02*
X119747619Y-45577419D01*
X120271429Y-45577419D02*
X120938095Y-46577419D01*
X120938095Y-45577419D02*
X120271429Y-46577419D01*
X121319048Y-46577419D02*
X121319048Y-45577419D01*
X121319048Y-45577419D02*
X121557143Y-45577419D01*
X121557143Y-45577419D02*
X121700000Y-45625038D01*
X121700000Y-45625038D02*
X121795238Y-45720276D01*
X121795238Y-45720276D02*
X121842857Y-45815514D01*
X121842857Y-45815514D02*
X121890476Y-46005990D01*
X121890476Y-46005990D02*
X121890476Y-46148847D01*
X121890476Y-46148847D02*
X121842857Y-46339323D01*
X121842857Y-46339323D02*
X121795238Y-46434561D01*
X121795238Y-46434561D02*
X121700000Y-46529800D01*
X121700000Y-46529800D02*
X121557143Y-46577419D01*
X121557143Y-46577419D02*
X121319048Y-46577419D01*
X122509524Y-45577419D02*
X122604762Y-45577419D01*
X122604762Y-45577419D02*
X122700000Y-45625038D01*
X122700000Y-45625038D02*
X122747619Y-45672657D01*
X122747619Y-45672657D02*
X122795238Y-45767895D01*
X122795238Y-45767895D02*
X122842857Y-45958371D01*
X122842857Y-45958371D02*
X122842857Y-46196466D01*
X122842857Y-46196466D02*
X122795238Y-46386942D01*
X122795238Y-46386942D02*
X122747619Y-46482180D01*
X122747619Y-46482180D02*
X122700000Y-46529800D01*
X122700000Y-46529800D02*
X122604762Y-46577419D01*
X122604762Y-46577419D02*
X122509524Y-46577419D01*
X122509524Y-46577419D02*
X122414286Y-46529800D01*
X122414286Y-46529800D02*
X122366667Y-46482180D01*
X122366667Y-46482180D02*
X122319048Y-46386942D01*
X122319048Y-46386942D02*
X122271429Y-46196466D01*
X122271429Y-46196466D02*
X122271429Y-45958371D01*
X122271429Y-45958371D02*
X122319048Y-45767895D01*
X122319048Y-45767895D02*
X122366667Y-45672657D01*
X122366667Y-45672657D02*
X122414286Y-45625038D01*
X122414286Y-45625038D02*
X122509524Y-45577419D01*
X120057142Y-49117419D02*
X119723809Y-48641228D01*
X119485714Y-49117419D02*
X119485714Y-48117419D01*
X119485714Y-48117419D02*
X119866666Y-48117419D01*
X119866666Y-48117419D02*
X119961904Y-48165038D01*
X119961904Y-48165038D02*
X120009523Y-48212657D01*
X120009523Y-48212657D02*
X120057142Y-48307895D01*
X120057142Y-48307895D02*
X120057142Y-48450752D01*
X120057142Y-48450752D02*
X120009523Y-48545990D01*
X120009523Y-48545990D02*
X119961904Y-48593609D01*
X119961904Y-48593609D02*
X119866666Y-48641228D01*
X119866666Y-48641228D02*
X119485714Y-48641228D01*
X120390476Y-48117419D02*
X121057142Y-49117419D01*
X121057142Y-48117419D02*
X120390476Y-49117419D01*
X121438095Y-49117419D02*
X121438095Y-48117419D01*
X121438095Y-48117419D02*
X121676190Y-48117419D01*
X121676190Y-48117419D02*
X121819047Y-48165038D01*
X121819047Y-48165038D02*
X121914285Y-48260276D01*
X121914285Y-48260276D02*
X121961904Y-48355514D01*
X121961904Y-48355514D02*
X122009523Y-48545990D01*
X122009523Y-48545990D02*
X122009523Y-48688847D01*
X122009523Y-48688847D02*
X121961904Y-48879323D01*
X121961904Y-48879323D02*
X121914285Y-48974561D01*
X121914285Y-48974561D02*
X121819047Y-49069800D01*
X121819047Y-49069800D02*
X121676190Y-49117419D01*
X121676190Y-49117419D02*
X121438095Y-49117419D01*
X122628571Y-48117419D02*
X122723809Y-48117419D01*
X122723809Y-48117419D02*
X122819047Y-48165038D01*
X122819047Y-48165038D02*
X122866666Y-48212657D01*
X122866666Y-48212657D02*
X122914285Y-48307895D01*
X122914285Y-48307895D02*
X122961904Y-48498371D01*
X122961904Y-48498371D02*
X122961904Y-48736466D01*
X122961904Y-48736466D02*
X122914285Y-48926942D01*
X122914285Y-48926942D02*
X122866666Y-49022180D01*
X122866666Y-49022180D02*
X122819047Y-49069800D01*
X122819047Y-49069800D02*
X122723809Y-49117419D01*
X122723809Y-49117419D02*
X122628571Y-49117419D01*
X122628571Y-49117419D02*
X122533333Y-49069800D01*
X122533333Y-49069800D02*
X122485714Y-49022180D01*
X122485714Y-49022180D02*
X122438095Y-48926942D01*
X122438095Y-48926942D02*
X122390476Y-48736466D01*
X122390476Y-48736466D02*
X122390476Y-48498371D01*
X122390476Y-48498371D02*
X122438095Y-48307895D01*
X122438095Y-48307895D02*
X122485714Y-48212657D01*
X122485714Y-48212657D02*
X122533333Y-48165038D01*
X122533333Y-48165038D02*
X122628571Y-48117419D01*
X120200000Y-51657419D02*
X120200000Y-50657419D01*
X120866666Y-50657419D02*
X121057142Y-50657419D01*
X121057142Y-50657419D02*
X121152380Y-50705038D01*
X121152380Y-50705038D02*
X121247618Y-50800276D01*
X121247618Y-50800276D02*
X121295237Y-50990752D01*
X121295237Y-50990752D02*
X121295237Y-51324085D01*
X121295237Y-51324085D02*
X121247618Y-51514561D01*
X121247618Y-51514561D02*
X121152380Y-51609800D01*
X121152380Y-51609800D02*
X121057142Y-51657419D01*
X121057142Y-51657419D02*
X120866666Y-51657419D01*
X120866666Y-51657419D02*
X120771428Y-51609800D01*
X120771428Y-51609800D02*
X120676190Y-51514561D01*
X120676190Y-51514561D02*
X120628571Y-51324085D01*
X120628571Y-51324085D02*
X120628571Y-50990752D01*
X120628571Y-50990752D02*
X120676190Y-50800276D01*
X120676190Y-50800276D02*
X120771428Y-50705038D01*
X120771428Y-50705038D02*
X120866666Y-50657419D01*
X122247618Y-51657419D02*
X121676190Y-51657419D01*
X121961904Y-51657419D02*
X121961904Y-50657419D01*
X121961904Y-50657419D02*
X121866666Y-50800276D01*
X121866666Y-50800276D02*
X121771428Y-50895514D01*
X121771428Y-50895514D02*
X121676190Y-50943133D01*
X120200000Y-54197419D02*
X120200000Y-53197419D01*
X120866666Y-53197419D02*
X121057142Y-53197419D01*
X121057142Y-53197419D02*
X121152380Y-53245038D01*
X121152380Y-53245038D02*
X121247618Y-53340276D01*
X121247618Y-53340276D02*
X121295237Y-53530752D01*
X121295237Y-53530752D02*
X121295237Y-53864085D01*
X121295237Y-53864085D02*
X121247618Y-54054561D01*
X121247618Y-54054561D02*
X121152380Y-54149800D01*
X121152380Y-54149800D02*
X121057142Y-54197419D01*
X121057142Y-54197419D02*
X120866666Y-54197419D01*
X120866666Y-54197419D02*
X120771428Y-54149800D01*
X120771428Y-54149800D02*
X120676190Y-54054561D01*
X120676190Y-54054561D02*
X120628571Y-53864085D01*
X120628571Y-53864085D02*
X120628571Y-53530752D01*
X120628571Y-53530752D02*
X120676190Y-53340276D01*
X120676190Y-53340276D02*
X120771428Y-53245038D01*
X120771428Y-53245038D02*
X120866666Y-53197419D01*
X121676190Y-53292657D02*
X121723809Y-53245038D01*
X121723809Y-53245038D02*
X121819047Y-53197419D01*
X121819047Y-53197419D02*
X122057142Y-53197419D01*
X122057142Y-53197419D02*
X122152380Y-53245038D01*
X122152380Y-53245038D02*
X122199999Y-53292657D01*
X122199999Y-53292657D02*
X122247618Y-53387895D01*
X122247618Y-53387895D02*
X122247618Y-53483133D01*
X122247618Y-53483133D02*
X122199999Y-53625990D01*
X122199999Y-53625990D02*
X121628571Y-54197419D01*
X121628571Y-54197419D02*
X122247618Y-54197419D01*
X119723810Y-56737419D02*
X119723810Y-55737419D01*
X120390476Y-55737419D02*
X120580952Y-55737419D01*
X120580952Y-55737419D02*
X120676190Y-55785038D01*
X120676190Y-55785038D02*
X120771428Y-55880276D01*
X120771428Y-55880276D02*
X120819047Y-56070752D01*
X120819047Y-56070752D02*
X120819047Y-56404085D01*
X120819047Y-56404085D02*
X120771428Y-56594561D01*
X120771428Y-56594561D02*
X120676190Y-56689800D01*
X120676190Y-56689800D02*
X120580952Y-56737419D01*
X120580952Y-56737419D02*
X120390476Y-56737419D01*
X120390476Y-56737419D02*
X120295238Y-56689800D01*
X120295238Y-56689800D02*
X120200000Y-56594561D01*
X120200000Y-56594561D02*
X120152381Y-56404085D01*
X120152381Y-56404085D02*
X120152381Y-56070752D01*
X120152381Y-56070752D02*
X120200000Y-55880276D01*
X120200000Y-55880276D02*
X120295238Y-55785038D01*
X120295238Y-55785038D02*
X120390476Y-55737419D01*
X121676190Y-56070752D02*
X121676190Y-56737419D01*
X121438095Y-55689800D02*
X121200000Y-56404085D01*
X121200000Y-56404085D02*
X121819047Y-56404085D01*
X122152381Y-55832657D02*
X122200000Y-55785038D01*
X122200000Y-55785038D02*
X122295238Y-55737419D01*
X122295238Y-55737419D02*
X122533333Y-55737419D01*
X122533333Y-55737419D02*
X122628571Y-55785038D01*
X122628571Y-55785038D02*
X122676190Y-55832657D01*
X122676190Y-55832657D02*
X122723809Y-55927895D01*
X122723809Y-55927895D02*
X122723809Y-56023133D01*
X122723809Y-56023133D02*
X122676190Y-56165990D01*
X122676190Y-56165990D02*
X122104762Y-56737419D01*
X122104762Y-56737419D02*
X122723809Y-56737419D01*
X119723810Y-59277419D02*
X119723810Y-58277419D01*
X120390476Y-58277419D02*
X120580952Y-58277419D01*
X120580952Y-58277419D02*
X120676190Y-58325038D01*
X120676190Y-58325038D02*
X120771428Y-58420276D01*
X120771428Y-58420276D02*
X120819047Y-58610752D01*
X120819047Y-58610752D02*
X120819047Y-58944085D01*
X120819047Y-58944085D02*
X120771428Y-59134561D01*
X120771428Y-59134561D02*
X120676190Y-59229800D01*
X120676190Y-59229800D02*
X120580952Y-59277419D01*
X120580952Y-59277419D02*
X120390476Y-59277419D01*
X120390476Y-59277419D02*
X120295238Y-59229800D01*
X120295238Y-59229800D02*
X120200000Y-59134561D01*
X120200000Y-59134561D02*
X120152381Y-58944085D01*
X120152381Y-58944085D02*
X120152381Y-58610752D01*
X120152381Y-58610752D02*
X120200000Y-58420276D01*
X120200000Y-58420276D02*
X120295238Y-58325038D01*
X120295238Y-58325038D02*
X120390476Y-58277419D01*
X121676190Y-58610752D02*
X121676190Y-59277419D01*
X121438095Y-58229800D02*
X121200000Y-58944085D01*
X121200000Y-58944085D02*
X121819047Y-58944085D01*
X122723809Y-59277419D02*
X122152381Y-59277419D01*
X122438095Y-59277419D02*
X122438095Y-58277419D01*
X122438095Y-58277419D02*
X122342857Y-58420276D01*
X122342857Y-58420276D02*
X122247619Y-58515514D01*
X122247619Y-58515514D02*
X122152381Y-58563133D01*
X119723810Y-61817419D02*
X119723810Y-60817419D01*
X120390476Y-60817419D02*
X120580952Y-60817419D01*
X120580952Y-60817419D02*
X120676190Y-60865038D01*
X120676190Y-60865038D02*
X120771428Y-60960276D01*
X120771428Y-60960276D02*
X120819047Y-61150752D01*
X120819047Y-61150752D02*
X120819047Y-61484085D01*
X120819047Y-61484085D02*
X120771428Y-61674561D01*
X120771428Y-61674561D02*
X120676190Y-61769800D01*
X120676190Y-61769800D02*
X120580952Y-61817419D01*
X120580952Y-61817419D02*
X120390476Y-61817419D01*
X120390476Y-61817419D02*
X120295238Y-61769800D01*
X120295238Y-61769800D02*
X120200000Y-61674561D01*
X120200000Y-61674561D02*
X120152381Y-61484085D01*
X120152381Y-61484085D02*
X120152381Y-61150752D01*
X120152381Y-61150752D02*
X120200000Y-60960276D01*
X120200000Y-60960276D02*
X120295238Y-60865038D01*
X120295238Y-60865038D02*
X120390476Y-60817419D01*
X121676190Y-61150752D02*
X121676190Y-61817419D01*
X121438095Y-60769800D02*
X121200000Y-61484085D01*
X121200000Y-61484085D02*
X121819047Y-61484085D01*
X122390476Y-60817419D02*
X122485714Y-60817419D01*
X122485714Y-60817419D02*
X122580952Y-60865038D01*
X122580952Y-60865038D02*
X122628571Y-60912657D01*
X122628571Y-60912657D02*
X122676190Y-61007895D01*
X122676190Y-61007895D02*
X122723809Y-61198371D01*
X122723809Y-61198371D02*
X122723809Y-61436466D01*
X122723809Y-61436466D02*
X122676190Y-61626942D01*
X122676190Y-61626942D02*
X122628571Y-61722180D01*
X122628571Y-61722180D02*
X122580952Y-61769800D01*
X122580952Y-61769800D02*
X122485714Y-61817419D01*
X122485714Y-61817419D02*
X122390476Y-61817419D01*
X122390476Y-61817419D02*
X122295238Y-61769800D01*
X122295238Y-61769800D02*
X122247619Y-61722180D01*
X122247619Y-61722180D02*
X122200000Y-61626942D01*
X122200000Y-61626942D02*
X122152381Y-61436466D01*
X122152381Y-61436466D02*
X122152381Y-61198371D01*
X122152381Y-61198371D02*
X122200000Y-61007895D01*
X122200000Y-61007895D02*
X122247619Y-60912657D01*
X122247619Y-60912657D02*
X122295238Y-60865038D01*
X122295238Y-60865038D02*
X122390476Y-60817419D01*
X119723810Y-64357419D02*
X119723810Y-63357419D01*
X120390476Y-63357419D02*
X120580952Y-63357419D01*
X120580952Y-63357419D02*
X120676190Y-63405038D01*
X120676190Y-63405038D02*
X120771428Y-63500276D01*
X120771428Y-63500276D02*
X120819047Y-63690752D01*
X120819047Y-63690752D02*
X120819047Y-64024085D01*
X120819047Y-64024085D02*
X120771428Y-64214561D01*
X120771428Y-64214561D02*
X120676190Y-64309800D01*
X120676190Y-64309800D02*
X120580952Y-64357419D01*
X120580952Y-64357419D02*
X120390476Y-64357419D01*
X120390476Y-64357419D02*
X120295238Y-64309800D01*
X120295238Y-64309800D02*
X120200000Y-64214561D01*
X120200000Y-64214561D02*
X120152381Y-64024085D01*
X120152381Y-64024085D02*
X120152381Y-63690752D01*
X120152381Y-63690752D02*
X120200000Y-63500276D01*
X120200000Y-63500276D02*
X120295238Y-63405038D01*
X120295238Y-63405038D02*
X120390476Y-63357419D01*
X121152381Y-63357419D02*
X121771428Y-63357419D01*
X121771428Y-63357419D02*
X121438095Y-63738371D01*
X121438095Y-63738371D02*
X121580952Y-63738371D01*
X121580952Y-63738371D02*
X121676190Y-63785990D01*
X121676190Y-63785990D02*
X121723809Y-63833609D01*
X121723809Y-63833609D02*
X121771428Y-63928847D01*
X121771428Y-63928847D02*
X121771428Y-64166942D01*
X121771428Y-64166942D02*
X121723809Y-64262180D01*
X121723809Y-64262180D02*
X121676190Y-64309800D01*
X121676190Y-64309800D02*
X121580952Y-64357419D01*
X121580952Y-64357419D02*
X121295238Y-64357419D01*
X121295238Y-64357419D02*
X121200000Y-64309800D01*
X121200000Y-64309800D02*
X121152381Y-64262180D01*
X122247619Y-64357419D02*
X122438095Y-64357419D01*
X122438095Y-64357419D02*
X122533333Y-64309800D01*
X122533333Y-64309800D02*
X122580952Y-64262180D01*
X122580952Y-64262180D02*
X122676190Y-64119323D01*
X122676190Y-64119323D02*
X122723809Y-63928847D01*
X122723809Y-63928847D02*
X122723809Y-63547895D01*
X122723809Y-63547895D02*
X122676190Y-63452657D01*
X122676190Y-63452657D02*
X122628571Y-63405038D01*
X122628571Y-63405038D02*
X122533333Y-63357419D01*
X122533333Y-63357419D02*
X122342857Y-63357419D01*
X122342857Y-63357419D02*
X122247619Y-63405038D01*
X122247619Y-63405038D02*
X122200000Y-63452657D01*
X122200000Y-63452657D02*
X122152381Y-63547895D01*
X122152381Y-63547895D02*
X122152381Y-63785990D01*
X122152381Y-63785990D02*
X122200000Y-63881228D01*
X122200000Y-63881228D02*
X122247619Y-63928847D01*
X122247619Y-63928847D02*
X122342857Y-63976466D01*
X122342857Y-63976466D02*
X122533333Y-63976466D01*
X122533333Y-63976466D02*
X122628571Y-63928847D01*
X122628571Y-63928847D02*
X122676190Y-63881228D01*
X122676190Y-63881228D02*
X122723809Y-63785990D01*
X119723810Y-66897419D02*
X119723810Y-65897419D01*
X120390476Y-65897419D02*
X120580952Y-65897419D01*
X120580952Y-65897419D02*
X120676190Y-65945038D01*
X120676190Y-65945038D02*
X120771428Y-66040276D01*
X120771428Y-66040276D02*
X120819047Y-66230752D01*
X120819047Y-66230752D02*
X120819047Y-66564085D01*
X120819047Y-66564085D02*
X120771428Y-66754561D01*
X120771428Y-66754561D02*
X120676190Y-66849800D01*
X120676190Y-66849800D02*
X120580952Y-66897419D01*
X120580952Y-66897419D02*
X120390476Y-66897419D01*
X120390476Y-66897419D02*
X120295238Y-66849800D01*
X120295238Y-66849800D02*
X120200000Y-66754561D01*
X120200000Y-66754561D02*
X120152381Y-66564085D01*
X120152381Y-66564085D02*
X120152381Y-66230752D01*
X120152381Y-66230752D02*
X120200000Y-66040276D01*
X120200000Y-66040276D02*
X120295238Y-65945038D01*
X120295238Y-65945038D02*
X120390476Y-65897419D01*
X121152381Y-65897419D02*
X121771428Y-65897419D01*
X121771428Y-65897419D02*
X121438095Y-66278371D01*
X121438095Y-66278371D02*
X121580952Y-66278371D01*
X121580952Y-66278371D02*
X121676190Y-66325990D01*
X121676190Y-66325990D02*
X121723809Y-66373609D01*
X121723809Y-66373609D02*
X121771428Y-66468847D01*
X121771428Y-66468847D02*
X121771428Y-66706942D01*
X121771428Y-66706942D02*
X121723809Y-66802180D01*
X121723809Y-66802180D02*
X121676190Y-66849800D01*
X121676190Y-66849800D02*
X121580952Y-66897419D01*
X121580952Y-66897419D02*
X121295238Y-66897419D01*
X121295238Y-66897419D02*
X121200000Y-66849800D01*
X121200000Y-66849800D02*
X121152381Y-66802180D01*
X122342857Y-66325990D02*
X122247619Y-66278371D01*
X122247619Y-66278371D02*
X122200000Y-66230752D01*
X122200000Y-66230752D02*
X122152381Y-66135514D01*
X122152381Y-66135514D02*
X122152381Y-66087895D01*
X122152381Y-66087895D02*
X122200000Y-65992657D01*
X122200000Y-65992657D02*
X122247619Y-65945038D01*
X122247619Y-65945038D02*
X122342857Y-65897419D01*
X122342857Y-65897419D02*
X122533333Y-65897419D01*
X122533333Y-65897419D02*
X122628571Y-65945038D01*
X122628571Y-65945038D02*
X122676190Y-65992657D01*
X122676190Y-65992657D02*
X122723809Y-66087895D01*
X122723809Y-66087895D02*
X122723809Y-66135514D01*
X122723809Y-66135514D02*
X122676190Y-66230752D01*
X122676190Y-66230752D02*
X122628571Y-66278371D01*
X122628571Y-66278371D02*
X122533333Y-66325990D01*
X122533333Y-66325990D02*
X122342857Y-66325990D01*
X122342857Y-66325990D02*
X122247619Y-66373609D01*
X122247619Y-66373609D02*
X122200000Y-66421228D01*
X122200000Y-66421228D02*
X122152381Y-66516466D01*
X122152381Y-66516466D02*
X122152381Y-66706942D01*
X122152381Y-66706942D02*
X122200000Y-66802180D01*
X122200000Y-66802180D02*
X122247619Y-66849800D01*
X122247619Y-66849800D02*
X122342857Y-66897419D01*
X122342857Y-66897419D02*
X122533333Y-66897419D01*
X122533333Y-66897419D02*
X122628571Y-66849800D01*
X122628571Y-66849800D02*
X122676190Y-66802180D01*
X122676190Y-66802180D02*
X122723809Y-66706942D01*
X122723809Y-66706942D02*
X122723809Y-66516466D01*
X122723809Y-66516466D02*
X122676190Y-66421228D01*
X122676190Y-66421228D02*
X122628571Y-66373609D01*
X122628571Y-66373609D02*
X122533333Y-66325990D01*
X119723810Y-69437419D02*
X119723810Y-68437419D01*
X120390476Y-68437419D02*
X120580952Y-68437419D01*
X120580952Y-68437419D02*
X120676190Y-68485038D01*
X120676190Y-68485038D02*
X120771428Y-68580276D01*
X120771428Y-68580276D02*
X120819047Y-68770752D01*
X120819047Y-68770752D02*
X120819047Y-69104085D01*
X120819047Y-69104085D02*
X120771428Y-69294561D01*
X120771428Y-69294561D02*
X120676190Y-69389800D01*
X120676190Y-69389800D02*
X120580952Y-69437419D01*
X120580952Y-69437419D02*
X120390476Y-69437419D01*
X120390476Y-69437419D02*
X120295238Y-69389800D01*
X120295238Y-69389800D02*
X120200000Y-69294561D01*
X120200000Y-69294561D02*
X120152381Y-69104085D01*
X120152381Y-69104085D02*
X120152381Y-68770752D01*
X120152381Y-68770752D02*
X120200000Y-68580276D01*
X120200000Y-68580276D02*
X120295238Y-68485038D01*
X120295238Y-68485038D02*
X120390476Y-68437419D01*
X121152381Y-68437419D02*
X121771428Y-68437419D01*
X121771428Y-68437419D02*
X121438095Y-68818371D01*
X121438095Y-68818371D02*
X121580952Y-68818371D01*
X121580952Y-68818371D02*
X121676190Y-68865990D01*
X121676190Y-68865990D02*
X121723809Y-68913609D01*
X121723809Y-68913609D02*
X121771428Y-69008847D01*
X121771428Y-69008847D02*
X121771428Y-69246942D01*
X121771428Y-69246942D02*
X121723809Y-69342180D01*
X121723809Y-69342180D02*
X121676190Y-69389800D01*
X121676190Y-69389800D02*
X121580952Y-69437419D01*
X121580952Y-69437419D02*
X121295238Y-69437419D01*
X121295238Y-69437419D02*
X121200000Y-69389800D01*
X121200000Y-69389800D02*
X121152381Y-69342180D01*
X122104762Y-68437419D02*
X122771428Y-68437419D01*
X122771428Y-68437419D02*
X122342857Y-69437419D01*
X119723810Y-71977419D02*
X119723810Y-70977419D01*
X120390476Y-70977419D02*
X120580952Y-70977419D01*
X120580952Y-70977419D02*
X120676190Y-71025038D01*
X120676190Y-71025038D02*
X120771428Y-71120276D01*
X120771428Y-71120276D02*
X120819047Y-71310752D01*
X120819047Y-71310752D02*
X120819047Y-71644085D01*
X120819047Y-71644085D02*
X120771428Y-71834561D01*
X120771428Y-71834561D02*
X120676190Y-71929800D01*
X120676190Y-71929800D02*
X120580952Y-71977419D01*
X120580952Y-71977419D02*
X120390476Y-71977419D01*
X120390476Y-71977419D02*
X120295238Y-71929800D01*
X120295238Y-71929800D02*
X120200000Y-71834561D01*
X120200000Y-71834561D02*
X120152381Y-71644085D01*
X120152381Y-71644085D02*
X120152381Y-71310752D01*
X120152381Y-71310752D02*
X120200000Y-71120276D01*
X120200000Y-71120276D02*
X120295238Y-71025038D01*
X120295238Y-71025038D02*
X120390476Y-70977419D01*
X121152381Y-70977419D02*
X121771428Y-70977419D01*
X121771428Y-70977419D02*
X121438095Y-71358371D01*
X121438095Y-71358371D02*
X121580952Y-71358371D01*
X121580952Y-71358371D02*
X121676190Y-71405990D01*
X121676190Y-71405990D02*
X121723809Y-71453609D01*
X121723809Y-71453609D02*
X121771428Y-71548847D01*
X121771428Y-71548847D02*
X121771428Y-71786942D01*
X121771428Y-71786942D02*
X121723809Y-71882180D01*
X121723809Y-71882180D02*
X121676190Y-71929800D01*
X121676190Y-71929800D02*
X121580952Y-71977419D01*
X121580952Y-71977419D02*
X121295238Y-71977419D01*
X121295238Y-71977419D02*
X121200000Y-71929800D01*
X121200000Y-71929800D02*
X121152381Y-71882180D01*
X122628571Y-70977419D02*
X122438095Y-70977419D01*
X122438095Y-70977419D02*
X122342857Y-71025038D01*
X122342857Y-71025038D02*
X122295238Y-71072657D01*
X122295238Y-71072657D02*
X122200000Y-71215514D01*
X122200000Y-71215514D02*
X122152381Y-71405990D01*
X122152381Y-71405990D02*
X122152381Y-71786942D01*
X122152381Y-71786942D02*
X122200000Y-71882180D01*
X122200000Y-71882180D02*
X122247619Y-71929800D01*
X122247619Y-71929800D02*
X122342857Y-71977419D01*
X122342857Y-71977419D02*
X122533333Y-71977419D01*
X122533333Y-71977419D02*
X122628571Y-71929800D01*
X122628571Y-71929800D02*
X122676190Y-71882180D01*
X122676190Y-71882180D02*
X122723809Y-71786942D01*
X122723809Y-71786942D02*
X122723809Y-71548847D01*
X122723809Y-71548847D02*
X122676190Y-71453609D01*
X122676190Y-71453609D02*
X122628571Y-71405990D01*
X122628571Y-71405990D02*
X122533333Y-71358371D01*
X122533333Y-71358371D02*
X122342857Y-71358371D01*
X122342857Y-71358371D02*
X122247619Y-71405990D01*
X122247619Y-71405990D02*
X122200000Y-71453609D01*
X122200000Y-71453609D02*
X122152381Y-71548847D01*
X119723810Y-74517419D02*
X119723810Y-73517419D01*
X120390476Y-73517419D02*
X120580952Y-73517419D01*
X120580952Y-73517419D02*
X120676190Y-73565038D01*
X120676190Y-73565038D02*
X120771428Y-73660276D01*
X120771428Y-73660276D02*
X120819047Y-73850752D01*
X120819047Y-73850752D02*
X120819047Y-74184085D01*
X120819047Y-74184085D02*
X120771428Y-74374561D01*
X120771428Y-74374561D02*
X120676190Y-74469800D01*
X120676190Y-74469800D02*
X120580952Y-74517419D01*
X120580952Y-74517419D02*
X120390476Y-74517419D01*
X120390476Y-74517419D02*
X120295238Y-74469800D01*
X120295238Y-74469800D02*
X120200000Y-74374561D01*
X120200000Y-74374561D02*
X120152381Y-74184085D01*
X120152381Y-74184085D02*
X120152381Y-73850752D01*
X120152381Y-73850752D02*
X120200000Y-73660276D01*
X120200000Y-73660276D02*
X120295238Y-73565038D01*
X120295238Y-73565038D02*
X120390476Y-73517419D01*
X121152381Y-73517419D02*
X121771428Y-73517419D01*
X121771428Y-73517419D02*
X121438095Y-73898371D01*
X121438095Y-73898371D02*
X121580952Y-73898371D01*
X121580952Y-73898371D02*
X121676190Y-73945990D01*
X121676190Y-73945990D02*
X121723809Y-73993609D01*
X121723809Y-73993609D02*
X121771428Y-74088847D01*
X121771428Y-74088847D02*
X121771428Y-74326942D01*
X121771428Y-74326942D02*
X121723809Y-74422180D01*
X121723809Y-74422180D02*
X121676190Y-74469800D01*
X121676190Y-74469800D02*
X121580952Y-74517419D01*
X121580952Y-74517419D02*
X121295238Y-74517419D01*
X121295238Y-74517419D02*
X121200000Y-74469800D01*
X121200000Y-74469800D02*
X121152381Y-74422180D01*
X122676190Y-73517419D02*
X122200000Y-73517419D01*
X122200000Y-73517419D02*
X122152381Y-73993609D01*
X122152381Y-73993609D02*
X122200000Y-73945990D01*
X122200000Y-73945990D02*
X122295238Y-73898371D01*
X122295238Y-73898371D02*
X122533333Y-73898371D01*
X122533333Y-73898371D02*
X122628571Y-73945990D01*
X122628571Y-73945990D02*
X122676190Y-73993609D01*
X122676190Y-73993609D02*
X122723809Y-74088847D01*
X122723809Y-74088847D02*
X122723809Y-74326942D01*
X122723809Y-74326942D02*
X122676190Y-74422180D01*
X122676190Y-74422180D02*
X122628571Y-74469800D01*
X122628571Y-74469800D02*
X122533333Y-74517419D01*
X122533333Y-74517419D02*
X122295238Y-74517419D01*
X122295238Y-74517419D02*
X122200000Y-74469800D01*
X122200000Y-74469800D02*
X122152381Y-74422180D01*
X120200000Y-77057419D02*
X120200000Y-76057419D01*
X120866666Y-76057419D02*
X121057142Y-76057419D01*
X121057142Y-76057419D02*
X121152380Y-76105038D01*
X121152380Y-76105038D02*
X121247618Y-76200276D01*
X121247618Y-76200276D02*
X121295237Y-76390752D01*
X121295237Y-76390752D02*
X121295237Y-76724085D01*
X121295237Y-76724085D02*
X121247618Y-76914561D01*
X121247618Y-76914561D02*
X121152380Y-77009800D01*
X121152380Y-77009800D02*
X121057142Y-77057419D01*
X121057142Y-77057419D02*
X120866666Y-77057419D01*
X120866666Y-77057419D02*
X120771428Y-77009800D01*
X120771428Y-77009800D02*
X120676190Y-76914561D01*
X120676190Y-76914561D02*
X120628571Y-76724085D01*
X120628571Y-76724085D02*
X120628571Y-76390752D01*
X120628571Y-76390752D02*
X120676190Y-76200276D01*
X120676190Y-76200276D02*
X120771428Y-76105038D01*
X120771428Y-76105038D02*
X120866666Y-76057419D01*
X121914285Y-76057419D02*
X122009523Y-76057419D01*
X122009523Y-76057419D02*
X122104761Y-76105038D01*
X122104761Y-76105038D02*
X122152380Y-76152657D01*
X122152380Y-76152657D02*
X122199999Y-76247895D01*
X122199999Y-76247895D02*
X122247618Y-76438371D01*
X122247618Y-76438371D02*
X122247618Y-76676466D01*
X122247618Y-76676466D02*
X122199999Y-76866942D01*
X122199999Y-76866942D02*
X122152380Y-76962180D01*
X122152380Y-76962180D02*
X122104761Y-77009800D01*
X122104761Y-77009800D02*
X122009523Y-77057419D01*
X122009523Y-77057419D02*
X121914285Y-77057419D01*
X121914285Y-77057419D02*
X121819047Y-77009800D01*
X121819047Y-77009800D02*
X121771428Y-76962180D01*
X121771428Y-76962180D02*
X121723809Y-76866942D01*
X121723809Y-76866942D02*
X121676190Y-76676466D01*
X121676190Y-76676466D02*
X121676190Y-76438371D01*
X121676190Y-76438371D02*
X121723809Y-76247895D01*
X121723809Y-76247895D02*
X121771428Y-76152657D01*
X121771428Y-76152657D02*
X121819047Y-76105038D01*
X121819047Y-76105038D02*
X121914285Y-76057419D01*
X119723810Y-79597419D02*
X119723810Y-78597419D01*
X120390476Y-78597419D02*
X120580952Y-78597419D01*
X120580952Y-78597419D02*
X120676190Y-78645038D01*
X120676190Y-78645038D02*
X120771428Y-78740276D01*
X120771428Y-78740276D02*
X120819047Y-78930752D01*
X120819047Y-78930752D02*
X120819047Y-79264085D01*
X120819047Y-79264085D02*
X120771428Y-79454561D01*
X120771428Y-79454561D02*
X120676190Y-79549800D01*
X120676190Y-79549800D02*
X120580952Y-79597419D01*
X120580952Y-79597419D02*
X120390476Y-79597419D01*
X120390476Y-79597419D02*
X120295238Y-79549800D01*
X120295238Y-79549800D02*
X120200000Y-79454561D01*
X120200000Y-79454561D02*
X120152381Y-79264085D01*
X120152381Y-79264085D02*
X120152381Y-78930752D01*
X120152381Y-78930752D02*
X120200000Y-78740276D01*
X120200000Y-78740276D02*
X120295238Y-78645038D01*
X120295238Y-78645038D02*
X120390476Y-78597419D01*
X121676190Y-78930752D02*
X121676190Y-79597419D01*
X121438095Y-78549800D02*
X121200000Y-79264085D01*
X121200000Y-79264085D02*
X121819047Y-79264085D01*
X122676190Y-78597419D02*
X122200000Y-78597419D01*
X122200000Y-78597419D02*
X122152381Y-79073609D01*
X122152381Y-79073609D02*
X122200000Y-79025990D01*
X122200000Y-79025990D02*
X122295238Y-78978371D01*
X122295238Y-78978371D02*
X122533333Y-78978371D01*
X122533333Y-78978371D02*
X122628571Y-79025990D01*
X122628571Y-79025990D02*
X122676190Y-79073609D01*
X122676190Y-79073609D02*
X122723809Y-79168847D01*
X122723809Y-79168847D02*
X122723809Y-79406942D01*
X122723809Y-79406942D02*
X122676190Y-79502180D01*
X122676190Y-79502180D02*
X122628571Y-79549800D01*
X122628571Y-79549800D02*
X122533333Y-79597419D01*
X122533333Y-79597419D02*
X122295238Y-79597419D01*
X122295238Y-79597419D02*
X122200000Y-79549800D01*
X122200000Y-79549800D02*
X122152381Y-79502180D01*
X119723810Y-82137419D02*
X119723810Y-81137419D01*
X120390476Y-81137419D02*
X120580952Y-81137419D01*
X120580952Y-81137419D02*
X120676190Y-81185038D01*
X120676190Y-81185038D02*
X120771428Y-81280276D01*
X120771428Y-81280276D02*
X120819047Y-81470752D01*
X120819047Y-81470752D02*
X120819047Y-81804085D01*
X120819047Y-81804085D02*
X120771428Y-81994561D01*
X120771428Y-81994561D02*
X120676190Y-82089800D01*
X120676190Y-82089800D02*
X120580952Y-82137419D01*
X120580952Y-82137419D02*
X120390476Y-82137419D01*
X120390476Y-82137419D02*
X120295238Y-82089800D01*
X120295238Y-82089800D02*
X120200000Y-81994561D01*
X120200000Y-81994561D02*
X120152381Y-81804085D01*
X120152381Y-81804085D02*
X120152381Y-81470752D01*
X120152381Y-81470752D02*
X120200000Y-81280276D01*
X120200000Y-81280276D02*
X120295238Y-81185038D01*
X120295238Y-81185038D02*
X120390476Y-81137419D01*
X121676190Y-81470752D02*
X121676190Y-82137419D01*
X121438095Y-81089800D02*
X121200000Y-81804085D01*
X121200000Y-81804085D02*
X121819047Y-81804085D01*
X122342857Y-81565990D02*
X122247619Y-81518371D01*
X122247619Y-81518371D02*
X122200000Y-81470752D01*
X122200000Y-81470752D02*
X122152381Y-81375514D01*
X122152381Y-81375514D02*
X122152381Y-81327895D01*
X122152381Y-81327895D02*
X122200000Y-81232657D01*
X122200000Y-81232657D02*
X122247619Y-81185038D01*
X122247619Y-81185038D02*
X122342857Y-81137419D01*
X122342857Y-81137419D02*
X122533333Y-81137419D01*
X122533333Y-81137419D02*
X122628571Y-81185038D01*
X122628571Y-81185038D02*
X122676190Y-81232657D01*
X122676190Y-81232657D02*
X122723809Y-81327895D01*
X122723809Y-81327895D02*
X122723809Y-81375514D01*
X122723809Y-81375514D02*
X122676190Y-81470752D01*
X122676190Y-81470752D02*
X122628571Y-81518371D01*
X122628571Y-81518371D02*
X122533333Y-81565990D01*
X122533333Y-81565990D02*
X122342857Y-81565990D01*
X122342857Y-81565990D02*
X122247619Y-81613609D01*
X122247619Y-81613609D02*
X122200000Y-81661228D01*
X122200000Y-81661228D02*
X122152381Y-81756466D01*
X122152381Y-81756466D02*
X122152381Y-81946942D01*
X122152381Y-81946942D02*
X122200000Y-82042180D01*
X122200000Y-82042180D02*
X122247619Y-82089800D01*
X122247619Y-82089800D02*
X122342857Y-82137419D01*
X122342857Y-82137419D02*
X122533333Y-82137419D01*
X122533333Y-82137419D02*
X122628571Y-82089800D01*
X122628571Y-82089800D02*
X122676190Y-82042180D01*
X122676190Y-82042180D02*
X122723809Y-81946942D01*
X122723809Y-81946942D02*
X122723809Y-81756466D01*
X122723809Y-81756466D02*
X122676190Y-81661228D01*
X122676190Y-81661228D02*
X122628571Y-81613609D01*
X122628571Y-81613609D02*
X122533333Y-81565990D01*
X119723810Y-84677419D02*
X119723810Y-83677419D01*
X120390476Y-83677419D02*
X120580952Y-83677419D01*
X120580952Y-83677419D02*
X120676190Y-83725038D01*
X120676190Y-83725038D02*
X120771428Y-83820276D01*
X120771428Y-83820276D02*
X120819047Y-84010752D01*
X120819047Y-84010752D02*
X120819047Y-84344085D01*
X120819047Y-84344085D02*
X120771428Y-84534561D01*
X120771428Y-84534561D02*
X120676190Y-84629800D01*
X120676190Y-84629800D02*
X120580952Y-84677419D01*
X120580952Y-84677419D02*
X120390476Y-84677419D01*
X120390476Y-84677419D02*
X120295238Y-84629800D01*
X120295238Y-84629800D02*
X120200000Y-84534561D01*
X120200000Y-84534561D02*
X120152381Y-84344085D01*
X120152381Y-84344085D02*
X120152381Y-84010752D01*
X120152381Y-84010752D02*
X120200000Y-83820276D01*
X120200000Y-83820276D02*
X120295238Y-83725038D01*
X120295238Y-83725038D02*
X120390476Y-83677419D01*
X121676190Y-84010752D02*
X121676190Y-84677419D01*
X121438095Y-83629800D02*
X121200000Y-84344085D01*
X121200000Y-84344085D02*
X121819047Y-84344085D01*
X122104762Y-83677419D02*
X122771428Y-83677419D01*
X122771428Y-83677419D02*
X122342857Y-84677419D01*
X119723810Y-87217419D02*
X119723810Y-86217419D01*
X120390476Y-86217419D02*
X120580952Y-86217419D01*
X120580952Y-86217419D02*
X120676190Y-86265038D01*
X120676190Y-86265038D02*
X120771428Y-86360276D01*
X120771428Y-86360276D02*
X120819047Y-86550752D01*
X120819047Y-86550752D02*
X120819047Y-86884085D01*
X120819047Y-86884085D02*
X120771428Y-87074561D01*
X120771428Y-87074561D02*
X120676190Y-87169800D01*
X120676190Y-87169800D02*
X120580952Y-87217419D01*
X120580952Y-87217419D02*
X120390476Y-87217419D01*
X120390476Y-87217419D02*
X120295238Y-87169800D01*
X120295238Y-87169800D02*
X120200000Y-87074561D01*
X120200000Y-87074561D02*
X120152381Y-86884085D01*
X120152381Y-86884085D02*
X120152381Y-86550752D01*
X120152381Y-86550752D02*
X120200000Y-86360276D01*
X120200000Y-86360276D02*
X120295238Y-86265038D01*
X120295238Y-86265038D02*
X120390476Y-86217419D01*
X121200000Y-86312657D02*
X121247619Y-86265038D01*
X121247619Y-86265038D02*
X121342857Y-86217419D01*
X121342857Y-86217419D02*
X121580952Y-86217419D01*
X121580952Y-86217419D02*
X121676190Y-86265038D01*
X121676190Y-86265038D02*
X121723809Y-86312657D01*
X121723809Y-86312657D02*
X121771428Y-86407895D01*
X121771428Y-86407895D02*
X121771428Y-86503133D01*
X121771428Y-86503133D02*
X121723809Y-86645990D01*
X121723809Y-86645990D02*
X121152381Y-87217419D01*
X121152381Y-87217419D02*
X121771428Y-87217419D01*
X122723809Y-87217419D02*
X122152381Y-87217419D01*
X122438095Y-87217419D02*
X122438095Y-86217419D01*
X122438095Y-86217419D02*
X122342857Y-86360276D01*
X122342857Y-86360276D02*
X122247619Y-86455514D01*
X122247619Y-86455514D02*
X122152381Y-86503133D01*
X119723810Y-89757419D02*
X119723810Y-88757419D01*
X120390476Y-88757419D02*
X120580952Y-88757419D01*
X120580952Y-88757419D02*
X120676190Y-88805038D01*
X120676190Y-88805038D02*
X120771428Y-88900276D01*
X120771428Y-88900276D02*
X120819047Y-89090752D01*
X120819047Y-89090752D02*
X120819047Y-89424085D01*
X120819047Y-89424085D02*
X120771428Y-89614561D01*
X120771428Y-89614561D02*
X120676190Y-89709800D01*
X120676190Y-89709800D02*
X120580952Y-89757419D01*
X120580952Y-89757419D02*
X120390476Y-89757419D01*
X120390476Y-89757419D02*
X120295238Y-89709800D01*
X120295238Y-89709800D02*
X120200000Y-89614561D01*
X120200000Y-89614561D02*
X120152381Y-89424085D01*
X120152381Y-89424085D02*
X120152381Y-89090752D01*
X120152381Y-89090752D02*
X120200000Y-88900276D01*
X120200000Y-88900276D02*
X120295238Y-88805038D01*
X120295238Y-88805038D02*
X120390476Y-88757419D01*
X121200000Y-88852657D02*
X121247619Y-88805038D01*
X121247619Y-88805038D02*
X121342857Y-88757419D01*
X121342857Y-88757419D02*
X121580952Y-88757419D01*
X121580952Y-88757419D02*
X121676190Y-88805038D01*
X121676190Y-88805038D02*
X121723809Y-88852657D01*
X121723809Y-88852657D02*
X121771428Y-88947895D01*
X121771428Y-88947895D02*
X121771428Y-89043133D01*
X121771428Y-89043133D02*
X121723809Y-89185990D01*
X121723809Y-89185990D02*
X121152381Y-89757419D01*
X121152381Y-89757419D02*
X121771428Y-89757419D01*
X122390476Y-88757419D02*
X122485714Y-88757419D01*
X122485714Y-88757419D02*
X122580952Y-88805038D01*
X122580952Y-88805038D02*
X122628571Y-88852657D01*
X122628571Y-88852657D02*
X122676190Y-88947895D01*
X122676190Y-88947895D02*
X122723809Y-89138371D01*
X122723809Y-89138371D02*
X122723809Y-89376466D01*
X122723809Y-89376466D02*
X122676190Y-89566942D01*
X122676190Y-89566942D02*
X122628571Y-89662180D01*
X122628571Y-89662180D02*
X122580952Y-89709800D01*
X122580952Y-89709800D02*
X122485714Y-89757419D01*
X122485714Y-89757419D02*
X122390476Y-89757419D01*
X122390476Y-89757419D02*
X122295238Y-89709800D01*
X122295238Y-89709800D02*
X122247619Y-89662180D01*
X122247619Y-89662180D02*
X122200000Y-89566942D01*
X122200000Y-89566942D02*
X122152381Y-89376466D01*
X122152381Y-89376466D02*
X122152381Y-89138371D01*
X122152381Y-89138371D02*
X122200000Y-88947895D01*
X122200000Y-88947895D02*
X122247619Y-88852657D01*
X122247619Y-88852657D02*
X122295238Y-88805038D01*
X122295238Y-88805038D02*
X122390476Y-88757419D01*
X119723810Y-92297419D02*
X119723810Y-91297419D01*
X120390476Y-91297419D02*
X120580952Y-91297419D01*
X120580952Y-91297419D02*
X120676190Y-91345038D01*
X120676190Y-91345038D02*
X120771428Y-91440276D01*
X120771428Y-91440276D02*
X120819047Y-91630752D01*
X120819047Y-91630752D02*
X120819047Y-91964085D01*
X120819047Y-91964085D02*
X120771428Y-92154561D01*
X120771428Y-92154561D02*
X120676190Y-92249800D01*
X120676190Y-92249800D02*
X120580952Y-92297419D01*
X120580952Y-92297419D02*
X120390476Y-92297419D01*
X120390476Y-92297419D02*
X120295238Y-92249800D01*
X120295238Y-92249800D02*
X120200000Y-92154561D01*
X120200000Y-92154561D02*
X120152381Y-91964085D01*
X120152381Y-91964085D02*
X120152381Y-91630752D01*
X120152381Y-91630752D02*
X120200000Y-91440276D01*
X120200000Y-91440276D02*
X120295238Y-91345038D01*
X120295238Y-91345038D02*
X120390476Y-91297419D01*
X121771428Y-92297419D02*
X121200000Y-92297419D01*
X121485714Y-92297419D02*
X121485714Y-91297419D01*
X121485714Y-91297419D02*
X121390476Y-91440276D01*
X121390476Y-91440276D02*
X121295238Y-91535514D01*
X121295238Y-91535514D02*
X121200000Y-91583133D01*
X122247619Y-92297419D02*
X122438095Y-92297419D01*
X122438095Y-92297419D02*
X122533333Y-92249800D01*
X122533333Y-92249800D02*
X122580952Y-92202180D01*
X122580952Y-92202180D02*
X122676190Y-92059323D01*
X122676190Y-92059323D02*
X122723809Y-91868847D01*
X122723809Y-91868847D02*
X122723809Y-91487895D01*
X122723809Y-91487895D02*
X122676190Y-91392657D01*
X122676190Y-91392657D02*
X122628571Y-91345038D01*
X122628571Y-91345038D02*
X122533333Y-91297419D01*
X122533333Y-91297419D02*
X122342857Y-91297419D01*
X122342857Y-91297419D02*
X122247619Y-91345038D01*
X122247619Y-91345038D02*
X122200000Y-91392657D01*
X122200000Y-91392657D02*
X122152381Y-91487895D01*
X122152381Y-91487895D02*
X122152381Y-91725990D01*
X122152381Y-91725990D02*
X122200000Y-91821228D01*
X122200000Y-91821228D02*
X122247619Y-91868847D01*
X122247619Y-91868847D02*
X122342857Y-91916466D01*
X122342857Y-91916466D02*
X122533333Y-91916466D01*
X122533333Y-91916466D02*
X122628571Y-91868847D01*
X122628571Y-91868847D02*
X122676190Y-91821228D01*
X122676190Y-91821228D02*
X122723809Y-91725990D01*
X120438095Y-93885038D02*
X120342857Y-93837419D01*
X120342857Y-93837419D02*
X120200000Y-93837419D01*
X120200000Y-93837419D02*
X120057143Y-93885038D01*
X120057143Y-93885038D02*
X119961905Y-93980276D01*
X119961905Y-93980276D02*
X119914286Y-94075514D01*
X119914286Y-94075514D02*
X119866667Y-94265990D01*
X119866667Y-94265990D02*
X119866667Y-94408847D01*
X119866667Y-94408847D02*
X119914286Y-94599323D01*
X119914286Y-94599323D02*
X119961905Y-94694561D01*
X119961905Y-94694561D02*
X120057143Y-94789800D01*
X120057143Y-94789800D02*
X120200000Y-94837419D01*
X120200000Y-94837419D02*
X120295238Y-94837419D01*
X120295238Y-94837419D02*
X120438095Y-94789800D01*
X120438095Y-94789800D02*
X120485714Y-94742180D01*
X120485714Y-94742180D02*
X120485714Y-94408847D01*
X120485714Y-94408847D02*
X120295238Y-94408847D01*
X120914286Y-94837419D02*
X120914286Y-93837419D01*
X120914286Y-93837419D02*
X121485714Y-94837419D01*
X121485714Y-94837419D02*
X121485714Y-93837419D01*
X121961905Y-94837419D02*
X121961905Y-93837419D01*
X121961905Y-93837419D02*
X122200000Y-93837419D01*
X122200000Y-93837419D02*
X122342857Y-93885038D01*
X122342857Y-93885038D02*
X122438095Y-93980276D01*
X122438095Y-93980276D02*
X122485714Y-94075514D01*
X122485714Y-94075514D02*
X122533333Y-94265990D01*
X122533333Y-94265990D02*
X122533333Y-94408847D01*
X122533333Y-94408847D02*
X122485714Y-94599323D01*
X122485714Y-94599323D02*
X122438095Y-94694561D01*
X122438095Y-94694561D02*
X122342857Y-94789800D01*
X122342857Y-94789800D02*
X122200000Y-94837419D01*
X122200000Y-94837419D02*
X121961905Y-94837419D01*
X120438095Y-96425038D02*
X120342857Y-96377419D01*
X120342857Y-96377419D02*
X120200000Y-96377419D01*
X120200000Y-96377419D02*
X120057143Y-96425038D01*
X120057143Y-96425038D02*
X119961905Y-96520276D01*
X119961905Y-96520276D02*
X119914286Y-96615514D01*
X119914286Y-96615514D02*
X119866667Y-96805990D01*
X119866667Y-96805990D02*
X119866667Y-96948847D01*
X119866667Y-96948847D02*
X119914286Y-97139323D01*
X119914286Y-97139323D02*
X119961905Y-97234561D01*
X119961905Y-97234561D02*
X120057143Y-97329800D01*
X120057143Y-97329800D02*
X120200000Y-97377419D01*
X120200000Y-97377419D02*
X120295238Y-97377419D01*
X120295238Y-97377419D02*
X120438095Y-97329800D01*
X120438095Y-97329800D02*
X120485714Y-97282180D01*
X120485714Y-97282180D02*
X120485714Y-96948847D01*
X120485714Y-96948847D02*
X120295238Y-96948847D01*
X120914286Y-97377419D02*
X120914286Y-96377419D01*
X120914286Y-96377419D02*
X121485714Y-97377419D01*
X121485714Y-97377419D02*
X121485714Y-96377419D01*
X121961905Y-97377419D02*
X121961905Y-96377419D01*
X121961905Y-96377419D02*
X122200000Y-96377419D01*
X122200000Y-96377419D02*
X122342857Y-96425038D01*
X122342857Y-96425038D02*
X122438095Y-96520276D01*
X122438095Y-96520276D02*
X122485714Y-96615514D01*
X122485714Y-96615514D02*
X122533333Y-96805990D01*
X122533333Y-96805990D02*
X122533333Y-96948847D01*
X122533333Y-96948847D02*
X122485714Y-97139323D01*
X122485714Y-97139323D02*
X122438095Y-97234561D01*
X122438095Y-97234561D02*
X122342857Y-97329800D01*
X122342857Y-97329800D02*
X122200000Y-97377419D01*
X122200000Y-97377419D02*
X121961905Y-97377419D01*
X109619048Y-100707419D02*
X109619048Y-101516942D01*
X109619048Y-101516942D02*
X109666667Y-101612180D01*
X109666667Y-101612180D02*
X109714286Y-101659800D01*
X109714286Y-101659800D02*
X109809524Y-101707419D01*
X109809524Y-101707419D02*
X110000000Y-101707419D01*
X110000000Y-101707419D02*
X110095238Y-101659800D01*
X110095238Y-101659800D02*
X110142857Y-101612180D01*
X110142857Y-101612180D02*
X110190476Y-101516942D01*
X110190476Y-101516942D02*
X110190476Y-100707419D01*
X110619048Y-101659800D02*
X110761905Y-101707419D01*
X110761905Y-101707419D02*
X111000000Y-101707419D01*
X111000000Y-101707419D02*
X111095238Y-101659800D01*
X111095238Y-101659800D02*
X111142857Y-101612180D01*
X111142857Y-101612180D02*
X111190476Y-101516942D01*
X111190476Y-101516942D02*
X111190476Y-101421704D01*
X111190476Y-101421704D02*
X111142857Y-101326466D01*
X111142857Y-101326466D02*
X111095238Y-101278847D01*
X111095238Y-101278847D02*
X111000000Y-101231228D01*
X111000000Y-101231228D02*
X110809524Y-101183609D01*
X110809524Y-101183609D02*
X110714286Y-101135990D01*
X110714286Y-101135990D02*
X110666667Y-101088371D01*
X110666667Y-101088371D02*
X110619048Y-100993133D01*
X110619048Y-100993133D02*
X110619048Y-100897895D01*
X110619048Y-100897895D02*
X110666667Y-100802657D01*
X110666667Y-100802657D02*
X110714286Y-100755038D01*
X110714286Y-100755038D02*
X110809524Y-100707419D01*
X110809524Y-100707419D02*
X111047619Y-100707419D01*
X111047619Y-100707419D02*
X111190476Y-100755038D01*
X111952381Y-101183609D02*
X112095238Y-101231228D01*
X112095238Y-101231228D02*
X112142857Y-101278847D01*
X112142857Y-101278847D02*
X112190476Y-101374085D01*
X112190476Y-101374085D02*
X112190476Y-101516942D01*
X112190476Y-101516942D02*
X112142857Y-101612180D01*
X112142857Y-101612180D02*
X112095238Y-101659800D01*
X112095238Y-101659800D02*
X112000000Y-101707419D01*
X112000000Y-101707419D02*
X111619048Y-101707419D01*
X111619048Y-101707419D02*
X111619048Y-100707419D01*
X111619048Y-100707419D02*
X111952381Y-100707419D01*
X111952381Y-100707419D02*
X112047619Y-100755038D01*
X112047619Y-100755038D02*
X112095238Y-100802657D01*
X112095238Y-100802657D02*
X112142857Y-100897895D01*
X112142857Y-100897895D02*
X112142857Y-100993133D01*
X112142857Y-100993133D02*
X112095238Y-101088371D01*
X112095238Y-101088371D02*
X112047619Y-101135990D01*
X112047619Y-101135990D02*
X111952381Y-101183609D01*
X111952381Y-101183609D02*
X111619048Y-101183609D01*
X112619048Y-101326466D02*
X113380953Y-101326466D01*
X114428571Y-101612180D02*
X114380952Y-101659800D01*
X114380952Y-101659800D02*
X114238095Y-101707419D01*
X114238095Y-101707419D02*
X114142857Y-101707419D01*
X114142857Y-101707419D02*
X114000000Y-101659800D01*
X114000000Y-101659800D02*
X113904762Y-101564561D01*
X113904762Y-101564561D02*
X113857143Y-101469323D01*
X113857143Y-101469323D02*
X113809524Y-101278847D01*
X113809524Y-101278847D02*
X113809524Y-101135990D01*
X113809524Y-101135990D02*
X113857143Y-100945514D01*
X113857143Y-100945514D02*
X113904762Y-100850276D01*
X113904762Y-100850276D02*
X114000000Y-100755038D01*
X114000000Y-100755038D02*
X114142857Y-100707419D01*
X114142857Y-100707419D02*
X114238095Y-100707419D01*
X114238095Y-100707419D02*
X114380952Y-100755038D01*
X114380952Y-100755038D02*
X114428571Y-100802657D01*
X67190476Y-51337419D02*
X67190476Y-52051704D01*
X67190476Y-52051704D02*
X67142857Y-52194561D01*
X67142857Y-52194561D02*
X67047619Y-52289800D01*
X67047619Y-52289800D02*
X66904762Y-52337419D01*
X66904762Y-52337419D02*
X66809524Y-52337419D01*
X68190476Y-52337419D02*
X67619048Y-52337419D01*
X67904762Y-52337419D02*
X67904762Y-51337419D01*
X67904762Y-51337419D02*
X67809524Y-51480276D01*
X67809524Y-51480276D02*
X67714286Y-51575514D01*
X67714286Y-51575514D02*
X67619048Y-51623133D01*
X68809524Y-51337419D02*
X68904762Y-51337419D01*
X68904762Y-51337419D02*
X69000000Y-51385038D01*
X69000000Y-51385038D02*
X69047619Y-51432657D01*
X69047619Y-51432657D02*
X69095238Y-51527895D01*
X69095238Y-51527895D02*
X69142857Y-51718371D01*
X69142857Y-51718371D02*
X69142857Y-51956466D01*
X69142857Y-51956466D02*
X69095238Y-52146942D01*
X69095238Y-52146942D02*
X69047619Y-52242180D01*
X69047619Y-52242180D02*
X69000000Y-52289800D01*
X69000000Y-52289800D02*
X68904762Y-52337419D01*
X68904762Y-52337419D02*
X68809524Y-52337419D01*
X68809524Y-52337419D02*
X68714286Y-52289800D01*
X68714286Y-52289800D02*
X68666667Y-52242180D01*
X68666667Y-52242180D02*
X68619048Y-52146942D01*
X68619048Y-52146942D02*
X68571429Y-51956466D01*
X68571429Y-51956466D02*
X68571429Y-51718371D01*
X68571429Y-51718371D02*
X68619048Y-51527895D01*
X68619048Y-51527895D02*
X68666667Y-51432657D01*
X68666667Y-51432657D02*
X68714286Y-51385038D01*
X68714286Y-51385038D02*
X68809524Y-51337419D01*
X70000476Y-125507419D02*
X70000476Y-126221704D01*
X70000476Y-126221704D02*
X69952857Y-126364561D01*
X69952857Y-126364561D02*
X69857619Y-126459800D01*
X69857619Y-126459800D02*
X69714762Y-126507419D01*
X69714762Y-126507419D02*
X69619524Y-126507419D01*
X71000476Y-126507419D02*
X70429048Y-126507419D01*
X70714762Y-126507419D02*
X70714762Y-125507419D01*
X70714762Y-125507419D02*
X70619524Y-125650276D01*
X70619524Y-125650276D02*
X70524286Y-125745514D01*
X70524286Y-125745514D02*
X70429048Y-125793133D01*
X71857619Y-125840752D02*
X71857619Y-126507419D01*
X71619524Y-125459800D02*
X71381429Y-126174085D01*
X71381429Y-126174085D02*
X72000476Y-126174085D01*
X82542580Y-80666666D02*
X81828295Y-80666666D01*
X81828295Y-80666666D02*
X81685438Y-80619047D01*
X81685438Y-80619047D02*
X81590200Y-80523809D01*
X81590200Y-80523809D02*
X81542580Y-80380952D01*
X81542580Y-80380952D02*
X81542580Y-80285714D01*
X82542580Y-81047619D02*
X82542580Y-81666666D01*
X82542580Y-81666666D02*
X82161628Y-81333333D01*
X82161628Y-81333333D02*
X82161628Y-81476190D01*
X82161628Y-81476190D02*
X82114009Y-81571428D01*
X82114009Y-81571428D02*
X82066390Y-81619047D01*
X82066390Y-81619047D02*
X81971152Y-81666666D01*
X81971152Y-81666666D02*
X81733057Y-81666666D01*
X81733057Y-81666666D02*
X81637819Y-81619047D01*
X81637819Y-81619047D02*
X81590200Y-81571428D01*
X81590200Y-81571428D02*
X81542580Y-81476190D01*
X81542580Y-81476190D02*
X81542580Y-81190476D01*
X81542580Y-81190476D02*
X81590200Y-81095238D01*
X81590200Y-81095238D02*
X81637819Y-81047619D01*
X90452580Y-74554761D02*
X90452580Y-74078571D01*
X90452580Y-74078571D02*
X91452580Y-74078571D01*
X91452580Y-74745238D02*
X90452580Y-75078571D01*
X90452580Y-75078571D02*
X91452580Y-75411904D01*
X91119247Y-76173809D02*
X90452580Y-76173809D01*
X91500200Y-75935714D02*
X90785914Y-75697619D01*
X90785914Y-75697619D02*
X90785914Y-76316666D01*
X90452580Y-77094761D02*
X90452580Y-76618571D01*
X90452580Y-76618571D02*
X91452580Y-76618571D01*
X91452580Y-77285238D02*
X90452580Y-77618571D01*
X90452580Y-77618571D02*
X91452580Y-77951904D01*
X91452580Y-78190000D02*
X91452580Y-78809047D01*
X91452580Y-78809047D02*
X91071628Y-78475714D01*
X91071628Y-78475714D02*
X91071628Y-78618571D01*
X91071628Y-78618571D02*
X91024009Y-78713809D01*
X91024009Y-78713809D02*
X90976390Y-78761428D01*
X90976390Y-78761428D02*
X90881152Y-78809047D01*
X90881152Y-78809047D02*
X90643057Y-78809047D01*
X90643057Y-78809047D02*
X90547819Y-78761428D01*
X90547819Y-78761428D02*
X90500200Y-78713809D01*
X90500200Y-78713809D02*
X90452580Y-78618571D01*
X90452580Y-78618571D02*
X90452580Y-78332857D01*
X90452580Y-78332857D02*
X90500200Y-78237619D01*
X90500200Y-78237619D02*
X90547819Y-78190000D01*
X91404961Y-79738095D02*
X91452580Y-79642857D01*
X91452580Y-79642857D02*
X91452580Y-79500000D01*
X91452580Y-79500000D02*
X91404961Y-79357143D01*
X91404961Y-79357143D02*
X91309723Y-79261905D01*
X91309723Y-79261905D02*
X91214485Y-79214286D01*
X91214485Y-79214286D02*
X91024009Y-79166667D01*
X91024009Y-79166667D02*
X90881152Y-79166667D01*
X90881152Y-79166667D02*
X90690676Y-79214286D01*
X90690676Y-79214286D02*
X90595438Y-79261905D01*
X90595438Y-79261905D02*
X90500200Y-79357143D01*
X90500200Y-79357143D02*
X90452580Y-79500000D01*
X90452580Y-79500000D02*
X90452580Y-79595238D01*
X90452580Y-79595238D02*
X90500200Y-79738095D01*
X90500200Y-79738095D02*
X90547819Y-79785714D01*
X90547819Y-79785714D02*
X90881152Y-79785714D01*
X90881152Y-79785714D02*
X90881152Y-79595238D01*
X90452580Y-80214286D02*
X91452580Y-80214286D01*
X91452580Y-80214286D02*
X90452580Y-80785714D01*
X90452580Y-80785714D02*
X91452580Y-80785714D01*
X90452580Y-81261905D02*
X91452580Y-81261905D01*
X91452580Y-81261905D02*
X91452580Y-81500000D01*
X91452580Y-81500000D02*
X91404961Y-81642857D01*
X91404961Y-81642857D02*
X91309723Y-81738095D01*
X91309723Y-81738095D02*
X91214485Y-81785714D01*
X91214485Y-81785714D02*
X91024009Y-81833333D01*
X91024009Y-81833333D02*
X90881152Y-81833333D01*
X90881152Y-81833333D02*
X90690676Y-81785714D01*
X90690676Y-81785714D02*
X90595438Y-81738095D01*
X90595438Y-81738095D02*
X90500200Y-81642857D01*
X90500200Y-81642857D02*
X90452580Y-81500000D01*
X90452580Y-81500000D02*
X90452580Y-81261905D01*
X90452580Y-82650952D02*
X90452580Y-82174762D01*
X90452580Y-82174762D02*
X91452580Y-82174762D01*
X91452580Y-82841429D02*
X90452580Y-83174762D01*
X90452580Y-83174762D02*
X91452580Y-83508095D01*
X90452580Y-84714761D02*
X90452580Y-84238571D01*
X90452580Y-84238571D02*
X91452580Y-84238571D01*
X91452580Y-84905238D02*
X90452580Y-85238571D01*
X90452580Y-85238571D02*
X91452580Y-85571904D01*
X91357342Y-85857619D02*
X91404961Y-85905238D01*
X91404961Y-85905238D02*
X91452580Y-86000476D01*
X91452580Y-86000476D02*
X91452580Y-86238571D01*
X91452580Y-86238571D02*
X91404961Y-86333809D01*
X91404961Y-86333809D02*
X91357342Y-86381428D01*
X91357342Y-86381428D02*
X91262104Y-86429047D01*
X91262104Y-86429047D02*
X91166866Y-86429047D01*
X91166866Y-86429047D02*
X91024009Y-86381428D01*
X91024009Y-86381428D02*
X90452580Y-85810000D01*
X90452580Y-85810000D02*
X90452580Y-86429047D01*
X90452580Y-87254761D02*
X90452580Y-86778571D01*
X90452580Y-86778571D02*
X91452580Y-86778571D01*
X91452580Y-87445238D02*
X90452580Y-87778571D01*
X90452580Y-87778571D02*
X91452580Y-88111904D01*
X90452580Y-88969047D02*
X90452580Y-88397619D01*
X90452580Y-88683333D02*
X91452580Y-88683333D01*
X91452580Y-88683333D02*
X91309723Y-88588095D01*
X91309723Y-88588095D02*
X91214485Y-88492857D01*
X91214485Y-88492857D02*
X91166866Y-88397619D01*
X77252580Y-73559524D02*
X78252580Y-73559524D01*
X77776390Y-73559524D02*
X77776390Y-74130952D01*
X77252580Y-74130952D02*
X78252580Y-74130952D01*
X78252580Y-74464286D02*
X77252580Y-74797619D01*
X77252580Y-74797619D02*
X78252580Y-75130952D01*
X77919247Y-75892857D02*
X77252580Y-75892857D01*
X78300200Y-75654762D02*
X77585914Y-75416667D01*
X77585914Y-75416667D02*
X77585914Y-76035714D01*
X77252580Y-76499524D02*
X78252580Y-76499524D01*
X77776390Y-76499524D02*
X77776390Y-77070952D01*
X77252580Y-77070952D02*
X78252580Y-77070952D01*
X78252580Y-77404286D02*
X77252580Y-77737619D01*
X77252580Y-77737619D02*
X78252580Y-78070952D01*
X78252580Y-78309048D02*
X78252580Y-78928095D01*
X78252580Y-78928095D02*
X77871628Y-78594762D01*
X77871628Y-78594762D02*
X77871628Y-78737619D01*
X77871628Y-78737619D02*
X77824009Y-78832857D01*
X77824009Y-78832857D02*
X77776390Y-78880476D01*
X77776390Y-78880476D02*
X77681152Y-78928095D01*
X77681152Y-78928095D02*
X77443057Y-78928095D01*
X77443057Y-78928095D02*
X77347819Y-78880476D01*
X77347819Y-78880476D02*
X77300200Y-78832857D01*
X77300200Y-78832857D02*
X77252580Y-78737619D01*
X77252580Y-78737619D02*
X77252580Y-78451905D01*
X77252580Y-78451905D02*
X77300200Y-78356667D01*
X77300200Y-78356667D02*
X77347819Y-78309048D01*
X78244961Y-79738095D02*
X78292580Y-79642857D01*
X78292580Y-79642857D02*
X78292580Y-79500000D01*
X78292580Y-79500000D02*
X78244961Y-79357143D01*
X78244961Y-79357143D02*
X78149723Y-79261905D01*
X78149723Y-79261905D02*
X78054485Y-79214286D01*
X78054485Y-79214286D02*
X77864009Y-79166667D01*
X77864009Y-79166667D02*
X77721152Y-79166667D01*
X77721152Y-79166667D02*
X77530676Y-79214286D01*
X77530676Y-79214286D02*
X77435438Y-79261905D01*
X77435438Y-79261905D02*
X77340200Y-79357143D01*
X77340200Y-79357143D02*
X77292580Y-79500000D01*
X77292580Y-79500000D02*
X77292580Y-79595238D01*
X77292580Y-79595238D02*
X77340200Y-79738095D01*
X77340200Y-79738095D02*
X77387819Y-79785714D01*
X77387819Y-79785714D02*
X77721152Y-79785714D01*
X77721152Y-79785714D02*
X77721152Y-79595238D01*
X77292580Y-80214286D02*
X78292580Y-80214286D01*
X78292580Y-80214286D02*
X77292580Y-80785714D01*
X77292580Y-80785714D02*
X78292580Y-80785714D01*
X77292580Y-81261905D02*
X78292580Y-81261905D01*
X78292580Y-81261905D02*
X78292580Y-81500000D01*
X78292580Y-81500000D02*
X78244961Y-81642857D01*
X78244961Y-81642857D02*
X78149723Y-81738095D01*
X78149723Y-81738095D02*
X78054485Y-81785714D01*
X78054485Y-81785714D02*
X77864009Y-81833333D01*
X77864009Y-81833333D02*
X77721152Y-81833333D01*
X77721152Y-81833333D02*
X77530676Y-81785714D01*
X77530676Y-81785714D02*
X77435438Y-81738095D01*
X77435438Y-81738095D02*
X77340200Y-81642857D01*
X77340200Y-81642857D02*
X77292580Y-81500000D01*
X77292580Y-81500000D02*
X77292580Y-81261905D01*
X77252580Y-82055714D02*
X78252580Y-82055714D01*
X77776390Y-82055714D02*
X77776390Y-82627142D01*
X77252580Y-82627142D02*
X78252580Y-82627142D01*
X78252580Y-82960476D02*
X77252580Y-83293809D01*
X77252580Y-83293809D02*
X78252580Y-83627142D01*
X77252580Y-84119524D02*
X78252580Y-84119524D01*
X77776390Y-84119524D02*
X77776390Y-84690952D01*
X77252580Y-84690952D02*
X78252580Y-84690952D01*
X78252580Y-85024286D02*
X77252580Y-85357619D01*
X77252580Y-85357619D02*
X78252580Y-85690952D01*
X78157342Y-85976667D02*
X78204961Y-86024286D01*
X78204961Y-86024286D02*
X78252580Y-86119524D01*
X78252580Y-86119524D02*
X78252580Y-86357619D01*
X78252580Y-86357619D02*
X78204961Y-86452857D01*
X78204961Y-86452857D02*
X78157342Y-86500476D01*
X78157342Y-86500476D02*
X78062104Y-86548095D01*
X78062104Y-86548095D02*
X77966866Y-86548095D01*
X77966866Y-86548095D02*
X77824009Y-86500476D01*
X77824009Y-86500476D02*
X77252580Y-85929048D01*
X77252580Y-85929048D02*
X77252580Y-86548095D01*
X77252580Y-87059524D02*
X78252580Y-87059524D01*
X77776390Y-87059524D02*
X77776390Y-87630952D01*
X77252580Y-87630952D02*
X78252580Y-87630952D01*
X78252580Y-87964286D02*
X77252580Y-88297619D01*
X77252580Y-88297619D02*
X78252580Y-88630952D01*
X77252580Y-89488095D02*
X77252580Y-88916667D01*
X77252580Y-89202381D02*
X78252580Y-89202381D01*
X78252580Y-89202381D02*
X78109723Y-89107143D01*
X78109723Y-89107143D02*
X78014485Y-89011905D01*
X78014485Y-89011905D02*
X77966866Y-88916667D01*
X82542580Y-61566666D02*
X81828295Y-61566666D01*
X81828295Y-61566666D02*
X81685438Y-61519047D01*
X81685438Y-61519047D02*
X81590200Y-61423809D01*
X81590200Y-61423809D02*
X81542580Y-61280952D01*
X81542580Y-61280952D02*
X81542580Y-61185714D01*
X82447342Y-61995238D02*
X82494961Y-62042857D01*
X82494961Y-62042857D02*
X82542580Y-62138095D01*
X82542580Y-62138095D02*
X82542580Y-62376190D01*
X82542580Y-62376190D02*
X82494961Y-62471428D01*
X82494961Y-62471428D02*
X82447342Y-62519047D01*
X82447342Y-62519047D02*
X82352104Y-62566666D01*
X82352104Y-62566666D02*
X82256866Y-62566666D01*
X82256866Y-62566666D02*
X82114009Y-62519047D01*
X82114009Y-62519047D02*
X81542580Y-61947619D01*
X81542580Y-61947619D02*
X81542580Y-62566666D01*
X90452580Y-54954761D02*
X90452580Y-54478571D01*
X90452580Y-54478571D02*
X91452580Y-54478571D01*
X91452580Y-55145238D02*
X90452580Y-55478571D01*
X90452580Y-55478571D02*
X91452580Y-55811904D01*
X91119247Y-56573809D02*
X90452580Y-56573809D01*
X91500200Y-56335714D02*
X90785914Y-56097619D01*
X90785914Y-56097619D02*
X90785914Y-56716666D01*
X90452580Y-57494761D02*
X90452580Y-57018571D01*
X90452580Y-57018571D02*
X91452580Y-57018571D01*
X91452580Y-57685238D02*
X90452580Y-58018571D01*
X90452580Y-58018571D02*
X91452580Y-58351904D01*
X91452580Y-58590000D02*
X91452580Y-59209047D01*
X91452580Y-59209047D02*
X91071628Y-58875714D01*
X91071628Y-58875714D02*
X91071628Y-59018571D01*
X91071628Y-59018571D02*
X91024009Y-59113809D01*
X91024009Y-59113809D02*
X90976390Y-59161428D01*
X90976390Y-59161428D02*
X90881152Y-59209047D01*
X90881152Y-59209047D02*
X90643057Y-59209047D01*
X90643057Y-59209047D02*
X90547819Y-59161428D01*
X90547819Y-59161428D02*
X90500200Y-59113809D01*
X90500200Y-59113809D02*
X90452580Y-59018571D01*
X90452580Y-59018571D02*
X90452580Y-58732857D01*
X90452580Y-58732857D02*
X90500200Y-58637619D01*
X90500200Y-58637619D02*
X90547819Y-58590000D01*
X91404961Y-60238095D02*
X91452580Y-60142857D01*
X91452580Y-60142857D02*
X91452580Y-60000000D01*
X91452580Y-60000000D02*
X91404961Y-59857143D01*
X91404961Y-59857143D02*
X91309723Y-59761905D01*
X91309723Y-59761905D02*
X91214485Y-59714286D01*
X91214485Y-59714286D02*
X91024009Y-59666667D01*
X91024009Y-59666667D02*
X90881152Y-59666667D01*
X90881152Y-59666667D02*
X90690676Y-59714286D01*
X90690676Y-59714286D02*
X90595438Y-59761905D01*
X90595438Y-59761905D02*
X90500200Y-59857143D01*
X90500200Y-59857143D02*
X90452580Y-60000000D01*
X90452580Y-60000000D02*
X90452580Y-60095238D01*
X90452580Y-60095238D02*
X90500200Y-60238095D01*
X90500200Y-60238095D02*
X90547819Y-60285714D01*
X90547819Y-60285714D02*
X90881152Y-60285714D01*
X90881152Y-60285714D02*
X90881152Y-60095238D01*
X90452580Y-60714286D02*
X91452580Y-60714286D01*
X91452580Y-60714286D02*
X90452580Y-61285714D01*
X90452580Y-61285714D02*
X91452580Y-61285714D01*
X90452580Y-61761905D02*
X91452580Y-61761905D01*
X91452580Y-61761905D02*
X91452580Y-62000000D01*
X91452580Y-62000000D02*
X91404961Y-62142857D01*
X91404961Y-62142857D02*
X91309723Y-62238095D01*
X91309723Y-62238095D02*
X91214485Y-62285714D01*
X91214485Y-62285714D02*
X91024009Y-62333333D01*
X91024009Y-62333333D02*
X90881152Y-62333333D01*
X90881152Y-62333333D02*
X90690676Y-62285714D01*
X90690676Y-62285714D02*
X90595438Y-62238095D01*
X90595438Y-62238095D02*
X90500200Y-62142857D01*
X90500200Y-62142857D02*
X90452580Y-62000000D01*
X90452580Y-62000000D02*
X90452580Y-61761905D01*
X90452580Y-63050952D02*
X90452580Y-62574762D01*
X90452580Y-62574762D02*
X91452580Y-62574762D01*
X91452580Y-63241429D02*
X90452580Y-63574762D01*
X90452580Y-63574762D02*
X91452580Y-63908095D01*
X90452580Y-65114761D02*
X90452580Y-64638571D01*
X90452580Y-64638571D02*
X91452580Y-64638571D01*
X91452580Y-65305238D02*
X90452580Y-65638571D01*
X90452580Y-65638571D02*
X91452580Y-65971904D01*
X91357342Y-66257619D02*
X91404961Y-66305238D01*
X91404961Y-66305238D02*
X91452580Y-66400476D01*
X91452580Y-66400476D02*
X91452580Y-66638571D01*
X91452580Y-66638571D02*
X91404961Y-66733809D01*
X91404961Y-66733809D02*
X91357342Y-66781428D01*
X91357342Y-66781428D02*
X91262104Y-66829047D01*
X91262104Y-66829047D02*
X91166866Y-66829047D01*
X91166866Y-66829047D02*
X91024009Y-66781428D01*
X91024009Y-66781428D02*
X90452580Y-66210000D01*
X90452580Y-66210000D02*
X90452580Y-66829047D01*
X90452580Y-67654761D02*
X90452580Y-67178571D01*
X90452580Y-67178571D02*
X91452580Y-67178571D01*
X91452580Y-67845238D02*
X90452580Y-68178571D01*
X90452580Y-68178571D02*
X91452580Y-68511904D01*
X90452580Y-69369047D02*
X90452580Y-68797619D01*
X90452580Y-69083333D02*
X91452580Y-69083333D01*
X91452580Y-69083333D02*
X91309723Y-68988095D01*
X91309723Y-68988095D02*
X91214485Y-68892857D01*
X91214485Y-68892857D02*
X91166866Y-68797619D01*
X77252580Y-54059524D02*
X78252580Y-54059524D01*
X77776390Y-54059524D02*
X77776390Y-54630952D01*
X77252580Y-54630952D02*
X78252580Y-54630952D01*
X78252580Y-54964286D02*
X77252580Y-55297619D01*
X77252580Y-55297619D02*
X78252580Y-55630952D01*
X77919247Y-56392857D02*
X77252580Y-56392857D01*
X78300200Y-56154762D02*
X77585914Y-55916667D01*
X77585914Y-55916667D02*
X77585914Y-56535714D01*
X77252580Y-56899524D02*
X78252580Y-56899524D01*
X77776390Y-56899524D02*
X77776390Y-57470952D01*
X77252580Y-57470952D02*
X78252580Y-57470952D01*
X78252580Y-57804286D02*
X77252580Y-58137619D01*
X77252580Y-58137619D02*
X78252580Y-58470952D01*
X78252580Y-58709048D02*
X78252580Y-59328095D01*
X78252580Y-59328095D02*
X77871628Y-58994762D01*
X77871628Y-58994762D02*
X77871628Y-59137619D01*
X77871628Y-59137619D02*
X77824009Y-59232857D01*
X77824009Y-59232857D02*
X77776390Y-59280476D01*
X77776390Y-59280476D02*
X77681152Y-59328095D01*
X77681152Y-59328095D02*
X77443057Y-59328095D01*
X77443057Y-59328095D02*
X77347819Y-59280476D01*
X77347819Y-59280476D02*
X77300200Y-59232857D01*
X77300200Y-59232857D02*
X77252580Y-59137619D01*
X77252580Y-59137619D02*
X77252580Y-58851905D01*
X77252580Y-58851905D02*
X77300200Y-58756667D01*
X77300200Y-58756667D02*
X77347819Y-58709048D01*
X78204961Y-60238095D02*
X78252580Y-60142857D01*
X78252580Y-60142857D02*
X78252580Y-60000000D01*
X78252580Y-60000000D02*
X78204961Y-59857143D01*
X78204961Y-59857143D02*
X78109723Y-59761905D01*
X78109723Y-59761905D02*
X78014485Y-59714286D01*
X78014485Y-59714286D02*
X77824009Y-59666667D01*
X77824009Y-59666667D02*
X77681152Y-59666667D01*
X77681152Y-59666667D02*
X77490676Y-59714286D01*
X77490676Y-59714286D02*
X77395438Y-59761905D01*
X77395438Y-59761905D02*
X77300200Y-59857143D01*
X77300200Y-59857143D02*
X77252580Y-60000000D01*
X77252580Y-60000000D02*
X77252580Y-60095238D01*
X77252580Y-60095238D02*
X77300200Y-60238095D01*
X77300200Y-60238095D02*
X77347819Y-60285714D01*
X77347819Y-60285714D02*
X77681152Y-60285714D01*
X77681152Y-60285714D02*
X77681152Y-60095238D01*
X77252580Y-60714286D02*
X78252580Y-60714286D01*
X78252580Y-60714286D02*
X77252580Y-61285714D01*
X77252580Y-61285714D02*
X78252580Y-61285714D01*
X77252580Y-61761905D02*
X78252580Y-61761905D01*
X78252580Y-61761905D02*
X78252580Y-62000000D01*
X78252580Y-62000000D02*
X78204961Y-62142857D01*
X78204961Y-62142857D02*
X78109723Y-62238095D01*
X78109723Y-62238095D02*
X78014485Y-62285714D01*
X78014485Y-62285714D02*
X77824009Y-62333333D01*
X77824009Y-62333333D02*
X77681152Y-62333333D01*
X77681152Y-62333333D02*
X77490676Y-62285714D01*
X77490676Y-62285714D02*
X77395438Y-62238095D01*
X77395438Y-62238095D02*
X77300200Y-62142857D01*
X77300200Y-62142857D02*
X77252580Y-62000000D01*
X77252580Y-62000000D02*
X77252580Y-61761905D01*
X77252580Y-62455714D02*
X78252580Y-62455714D01*
X77776390Y-62455714D02*
X77776390Y-63027142D01*
X77252580Y-63027142D02*
X78252580Y-63027142D01*
X78252580Y-63360476D02*
X77252580Y-63693809D01*
X77252580Y-63693809D02*
X78252580Y-64027142D01*
X77252580Y-64519524D02*
X78252580Y-64519524D01*
X77776390Y-64519524D02*
X77776390Y-65090952D01*
X77252580Y-65090952D02*
X78252580Y-65090952D01*
X78252580Y-65424286D02*
X77252580Y-65757619D01*
X77252580Y-65757619D02*
X78252580Y-66090952D01*
X78157342Y-66376667D02*
X78204961Y-66424286D01*
X78204961Y-66424286D02*
X78252580Y-66519524D01*
X78252580Y-66519524D02*
X78252580Y-66757619D01*
X78252580Y-66757619D02*
X78204961Y-66852857D01*
X78204961Y-66852857D02*
X78157342Y-66900476D01*
X78157342Y-66900476D02*
X78062104Y-66948095D01*
X78062104Y-66948095D02*
X77966866Y-66948095D01*
X77966866Y-66948095D02*
X77824009Y-66900476D01*
X77824009Y-66900476D02*
X77252580Y-66329048D01*
X77252580Y-66329048D02*
X77252580Y-66948095D01*
X77252580Y-67309524D02*
X78252580Y-67309524D01*
X77776390Y-67309524D02*
X77776390Y-67880952D01*
X77252580Y-67880952D02*
X78252580Y-67880952D01*
X78252580Y-68214286D02*
X77252580Y-68547619D01*
X77252580Y-68547619D02*
X78252580Y-68880952D01*
X77252580Y-69738095D02*
X77252580Y-69166667D01*
X77252580Y-69452381D02*
X78252580Y-69452381D01*
X78252580Y-69452381D02*
X78109723Y-69357143D01*
X78109723Y-69357143D02*
X78014485Y-69261905D01*
X78014485Y-69261905D02*
X77966866Y-69166667D01*
X107666666Y-114957419D02*
X107666666Y-115671704D01*
X107666666Y-115671704D02*
X107619047Y-115814561D01*
X107619047Y-115814561D02*
X107523809Y-115909800D01*
X107523809Y-115909800D02*
X107380952Y-115957419D01*
X107380952Y-115957419D02*
X107285714Y-115957419D01*
X108190476Y-115957419D02*
X108380952Y-115957419D01*
X108380952Y-115957419D02*
X108476190Y-115909800D01*
X108476190Y-115909800D02*
X108523809Y-115862180D01*
X108523809Y-115862180D02*
X108619047Y-115719323D01*
X108619047Y-115719323D02*
X108666666Y-115528847D01*
X108666666Y-115528847D02*
X108666666Y-115147895D01*
X108666666Y-115147895D02*
X108619047Y-115052657D01*
X108619047Y-115052657D02*
X108571428Y-115005038D01*
X108571428Y-115005038D02*
X108476190Y-114957419D01*
X108476190Y-114957419D02*
X108285714Y-114957419D01*
X108285714Y-114957419D02*
X108190476Y-115005038D01*
X108190476Y-115005038D02*
X108142857Y-115052657D01*
X108142857Y-115052657D02*
X108095238Y-115147895D01*
X108095238Y-115147895D02*
X108095238Y-115385990D01*
X108095238Y-115385990D02*
X108142857Y-115481228D01*
X108142857Y-115481228D02*
X108190476Y-115528847D01*
X108190476Y-115528847D02*
X108285714Y-115576466D01*
X108285714Y-115576466D02*
X108476190Y-115576466D01*
X108476190Y-115576466D02*
X108571428Y-115528847D01*
X108571428Y-115528847D02*
X108619047Y-115481228D01*
X108619047Y-115481228D02*
X108666666Y-115385990D01*
X87440476Y-123707419D02*
X87440476Y-124421704D01*
X87440476Y-124421704D02*
X87392857Y-124564561D01*
X87392857Y-124564561D02*
X87297619Y-124659800D01*
X87297619Y-124659800D02*
X87154762Y-124707419D01*
X87154762Y-124707419D02*
X87059524Y-124707419D01*
X88440476Y-124707419D02*
X87869048Y-124707419D01*
X88154762Y-124707419D02*
X88154762Y-123707419D01*
X88154762Y-123707419D02*
X88059524Y-123850276D01*
X88059524Y-123850276D02*
X87964286Y-123945514D01*
X87964286Y-123945514D02*
X87869048Y-123993133D01*
X88773810Y-123707419D02*
X89392857Y-123707419D01*
X89392857Y-123707419D02*
X89059524Y-124088371D01*
X89059524Y-124088371D02*
X89202381Y-124088371D01*
X89202381Y-124088371D02*
X89297619Y-124135990D01*
X89297619Y-124135990D02*
X89345238Y-124183609D01*
X89345238Y-124183609D02*
X89392857Y-124278847D01*
X89392857Y-124278847D02*
X89392857Y-124516942D01*
X89392857Y-124516942D02*
X89345238Y-124612180D01*
X89345238Y-124612180D02*
X89297619Y-124659800D01*
X89297619Y-124659800D02*
X89202381Y-124707419D01*
X89202381Y-124707419D02*
X88916667Y-124707419D01*
X88916667Y-124707419D02*
X88821429Y-124659800D01*
X88821429Y-124659800D02*
X88773810Y-124612180D01*
X95120714Y-121957419D02*
X94549286Y-121957419D01*
X94835000Y-121957419D02*
X94835000Y-120957419D01*
X94835000Y-120957419D02*
X94739762Y-121100276D01*
X94739762Y-121100276D02*
X94644524Y-121195514D01*
X94644524Y-121195514D02*
X94549286Y-121243133D01*
X90739286Y-121052657D02*
X90786905Y-121005038D01*
X90786905Y-121005038D02*
X90882143Y-120957419D01*
X90882143Y-120957419D02*
X91120238Y-120957419D01*
X91120238Y-120957419D02*
X91215476Y-121005038D01*
X91215476Y-121005038D02*
X91263095Y-121052657D01*
X91263095Y-121052657D02*
X91310714Y-121147895D01*
X91310714Y-121147895D02*
X91310714Y-121243133D01*
X91310714Y-121243133D02*
X91263095Y-121385990D01*
X91263095Y-121385990D02*
X90691667Y-121957419D01*
X90691667Y-121957419D02*
X91310714Y-121957419D01*
X86881667Y-120957419D02*
X87500714Y-120957419D01*
X87500714Y-120957419D02*
X87167381Y-121338371D01*
X87167381Y-121338371D02*
X87310238Y-121338371D01*
X87310238Y-121338371D02*
X87405476Y-121385990D01*
X87405476Y-121385990D02*
X87453095Y-121433609D01*
X87453095Y-121433609D02*
X87500714Y-121528847D01*
X87500714Y-121528847D02*
X87500714Y-121766942D01*
X87500714Y-121766942D02*
X87453095Y-121862180D01*
X87453095Y-121862180D02*
X87405476Y-121909800D01*
X87405476Y-121909800D02*
X87310238Y-121957419D01*
X87310238Y-121957419D02*
X87024524Y-121957419D01*
X87024524Y-121957419D02*
X86929286Y-121909800D01*
X86929286Y-121909800D02*
X86881667Y-121862180D01*
X83595476Y-121290752D02*
X83595476Y-121957419D01*
X83357381Y-120909800D02*
X83119286Y-121624085D01*
X83119286Y-121624085D02*
X83738333Y-121624085D01*
X93549286Y-116576466D02*
X94311191Y-116576466D01*
X95263571Y-115957419D02*
X94787381Y-115957419D01*
X94787381Y-115957419D02*
X94739762Y-116433609D01*
X94739762Y-116433609D02*
X94787381Y-116385990D01*
X94787381Y-116385990D02*
X94882619Y-116338371D01*
X94882619Y-116338371D02*
X95120714Y-116338371D01*
X95120714Y-116338371D02*
X95215952Y-116385990D01*
X95215952Y-116385990D02*
X95263571Y-116433609D01*
X95263571Y-116433609D02*
X95311190Y-116528847D01*
X95311190Y-116528847D02*
X95311190Y-116766942D01*
X95311190Y-116766942D02*
X95263571Y-116862180D01*
X95263571Y-116862180D02*
X95215952Y-116909800D01*
X95215952Y-116909800D02*
X95120714Y-116957419D01*
X95120714Y-116957419D02*
X94882619Y-116957419D01*
X94882619Y-116957419D02*
X94787381Y-116909800D01*
X94787381Y-116909800D02*
X94739762Y-116862180D01*
X95596905Y-115957419D02*
X95930238Y-116957419D01*
X95930238Y-116957419D02*
X96263571Y-115957419D01*
X89263095Y-116576466D02*
X90025000Y-116576466D01*
X89644047Y-116957419D02*
X89644047Y-116195514D01*
X91024999Y-116957419D02*
X90453571Y-116957419D01*
X90739285Y-116957419D02*
X90739285Y-115957419D01*
X90739285Y-115957419D02*
X90644047Y-116100276D01*
X90644047Y-116100276D02*
X90548809Y-116195514D01*
X90548809Y-116195514D02*
X90453571Y-116243133D01*
X91405952Y-116052657D02*
X91453571Y-116005038D01*
X91453571Y-116005038D02*
X91548809Y-115957419D01*
X91548809Y-115957419D02*
X91786904Y-115957419D01*
X91786904Y-115957419D02*
X91882142Y-116005038D01*
X91882142Y-116005038D02*
X91929761Y-116052657D01*
X91929761Y-116052657D02*
X91977380Y-116147895D01*
X91977380Y-116147895D02*
X91977380Y-116243133D01*
X91977380Y-116243133D02*
X91929761Y-116385990D01*
X91929761Y-116385990D02*
X91358333Y-116957419D01*
X91358333Y-116957419D02*
X91977380Y-116957419D01*
X92263095Y-115957419D02*
X92596428Y-116957419D01*
X92596428Y-116957419D02*
X92929761Y-115957419D01*
X86453095Y-116005038D02*
X86357857Y-115957419D01*
X86357857Y-115957419D02*
X86215000Y-115957419D01*
X86215000Y-115957419D02*
X86072143Y-116005038D01*
X86072143Y-116005038D02*
X85976905Y-116100276D01*
X85976905Y-116100276D02*
X85929286Y-116195514D01*
X85929286Y-116195514D02*
X85881667Y-116385990D01*
X85881667Y-116385990D02*
X85881667Y-116528847D01*
X85881667Y-116528847D02*
X85929286Y-116719323D01*
X85929286Y-116719323D02*
X85976905Y-116814561D01*
X85976905Y-116814561D02*
X86072143Y-116909800D01*
X86072143Y-116909800D02*
X86215000Y-116957419D01*
X86215000Y-116957419D02*
X86310238Y-116957419D01*
X86310238Y-116957419D02*
X86453095Y-116909800D01*
X86453095Y-116909800D02*
X86500714Y-116862180D01*
X86500714Y-116862180D02*
X86500714Y-116528847D01*
X86500714Y-116528847D02*
X86310238Y-116528847D01*
X86929286Y-116957419D02*
X86929286Y-115957419D01*
X86929286Y-115957419D02*
X87500714Y-116957419D01*
X87500714Y-116957419D02*
X87500714Y-115957419D01*
X87976905Y-116957419D02*
X87976905Y-115957419D01*
X87976905Y-115957419D02*
X88215000Y-115957419D01*
X88215000Y-115957419D02*
X88357857Y-116005038D01*
X88357857Y-116005038D02*
X88453095Y-116100276D01*
X88453095Y-116100276D02*
X88500714Y-116195514D01*
X88500714Y-116195514D02*
X88548333Y-116385990D01*
X88548333Y-116385990D02*
X88548333Y-116528847D01*
X88548333Y-116528847D02*
X88500714Y-116719323D01*
X88500714Y-116719323D02*
X88453095Y-116814561D01*
X88453095Y-116814561D02*
X88357857Y-116909800D01*
X88357857Y-116909800D02*
X88215000Y-116957419D01*
X88215000Y-116957419D02*
X87976905Y-116957419D01*
X82119286Y-116576466D02*
X82881191Y-116576466D01*
X82500238Y-116957419D02*
X82500238Y-116195514D01*
X83833571Y-115957419D02*
X83357381Y-115957419D01*
X83357381Y-115957419D02*
X83309762Y-116433609D01*
X83309762Y-116433609D02*
X83357381Y-116385990D01*
X83357381Y-116385990D02*
X83452619Y-116338371D01*
X83452619Y-116338371D02*
X83690714Y-116338371D01*
X83690714Y-116338371D02*
X83785952Y-116385990D01*
X83785952Y-116385990D02*
X83833571Y-116433609D01*
X83833571Y-116433609D02*
X83881190Y-116528847D01*
X83881190Y-116528847D02*
X83881190Y-116766942D01*
X83881190Y-116766942D02*
X83833571Y-116862180D01*
X83833571Y-116862180D02*
X83785952Y-116909800D01*
X83785952Y-116909800D02*
X83690714Y-116957419D01*
X83690714Y-116957419D02*
X83452619Y-116957419D01*
X83452619Y-116957419D02*
X83357381Y-116909800D01*
X83357381Y-116909800D02*
X83309762Y-116862180D01*
X84166905Y-115957419D02*
X84500238Y-116957419D01*
X84500238Y-116957419D02*
X84833571Y-115957419D01*
X83292580Y-100166666D02*
X82578295Y-100166666D01*
X82578295Y-100166666D02*
X82435438Y-100119047D01*
X82435438Y-100119047D02*
X82340200Y-100023809D01*
X82340200Y-100023809D02*
X82292580Y-99880952D01*
X82292580Y-99880952D02*
X82292580Y-99785714D01*
X82959247Y-101071428D02*
X82292580Y-101071428D01*
X83340200Y-100833333D02*
X82625914Y-100595238D01*
X82625914Y-100595238D02*
X82625914Y-101214285D01*
X90452580Y-93704761D02*
X90452580Y-93228571D01*
X90452580Y-93228571D02*
X91452580Y-93228571D01*
X91452580Y-93895238D02*
X90452580Y-94228571D01*
X90452580Y-94228571D02*
X91452580Y-94561904D01*
X91119247Y-95323809D02*
X90452580Y-95323809D01*
X91500200Y-95085714D02*
X90785914Y-94847619D01*
X90785914Y-94847619D02*
X90785914Y-95466666D01*
X90452580Y-96244761D02*
X90452580Y-95768571D01*
X90452580Y-95768571D02*
X91452580Y-95768571D01*
X91452580Y-96435238D02*
X90452580Y-96768571D01*
X90452580Y-96768571D02*
X91452580Y-97101904D01*
X91452580Y-97340000D02*
X91452580Y-97959047D01*
X91452580Y-97959047D02*
X91071628Y-97625714D01*
X91071628Y-97625714D02*
X91071628Y-97768571D01*
X91071628Y-97768571D02*
X91024009Y-97863809D01*
X91024009Y-97863809D02*
X90976390Y-97911428D01*
X90976390Y-97911428D02*
X90881152Y-97959047D01*
X90881152Y-97959047D02*
X90643057Y-97959047D01*
X90643057Y-97959047D02*
X90547819Y-97911428D01*
X90547819Y-97911428D02*
X90500200Y-97863809D01*
X90500200Y-97863809D02*
X90452580Y-97768571D01*
X90452580Y-97768571D02*
X90452580Y-97482857D01*
X90452580Y-97482857D02*
X90500200Y-97387619D01*
X90500200Y-97387619D02*
X90547819Y-97340000D01*
X91404961Y-98988095D02*
X91452580Y-98892857D01*
X91452580Y-98892857D02*
X91452580Y-98750000D01*
X91452580Y-98750000D02*
X91404961Y-98607143D01*
X91404961Y-98607143D02*
X91309723Y-98511905D01*
X91309723Y-98511905D02*
X91214485Y-98464286D01*
X91214485Y-98464286D02*
X91024009Y-98416667D01*
X91024009Y-98416667D02*
X90881152Y-98416667D01*
X90881152Y-98416667D02*
X90690676Y-98464286D01*
X90690676Y-98464286D02*
X90595438Y-98511905D01*
X90595438Y-98511905D02*
X90500200Y-98607143D01*
X90500200Y-98607143D02*
X90452580Y-98750000D01*
X90452580Y-98750000D02*
X90452580Y-98845238D01*
X90452580Y-98845238D02*
X90500200Y-98988095D01*
X90500200Y-98988095D02*
X90547819Y-99035714D01*
X90547819Y-99035714D02*
X90881152Y-99035714D01*
X90881152Y-99035714D02*
X90881152Y-98845238D01*
X90452580Y-99464286D02*
X91452580Y-99464286D01*
X91452580Y-99464286D02*
X90452580Y-100035714D01*
X90452580Y-100035714D02*
X91452580Y-100035714D01*
X90452580Y-100511905D02*
X91452580Y-100511905D01*
X91452580Y-100511905D02*
X91452580Y-100750000D01*
X91452580Y-100750000D02*
X91404961Y-100892857D01*
X91404961Y-100892857D02*
X91309723Y-100988095D01*
X91309723Y-100988095D02*
X91214485Y-101035714D01*
X91214485Y-101035714D02*
X91024009Y-101083333D01*
X91024009Y-101083333D02*
X90881152Y-101083333D01*
X90881152Y-101083333D02*
X90690676Y-101035714D01*
X90690676Y-101035714D02*
X90595438Y-100988095D01*
X90595438Y-100988095D02*
X90500200Y-100892857D01*
X90500200Y-100892857D02*
X90452580Y-100750000D01*
X90452580Y-100750000D02*
X90452580Y-100511905D01*
X90452580Y-101800952D02*
X90452580Y-101324762D01*
X90452580Y-101324762D02*
X91452580Y-101324762D01*
X91452580Y-101991429D02*
X90452580Y-102324762D01*
X90452580Y-102324762D02*
X91452580Y-102658095D01*
X90452580Y-103864761D02*
X90452580Y-103388571D01*
X90452580Y-103388571D02*
X91452580Y-103388571D01*
X91452580Y-104055238D02*
X90452580Y-104388571D01*
X90452580Y-104388571D02*
X91452580Y-104721904D01*
X91357342Y-105007619D02*
X91404961Y-105055238D01*
X91404961Y-105055238D02*
X91452580Y-105150476D01*
X91452580Y-105150476D02*
X91452580Y-105388571D01*
X91452580Y-105388571D02*
X91404961Y-105483809D01*
X91404961Y-105483809D02*
X91357342Y-105531428D01*
X91357342Y-105531428D02*
X91262104Y-105579047D01*
X91262104Y-105579047D02*
X91166866Y-105579047D01*
X91166866Y-105579047D02*
X91024009Y-105531428D01*
X91024009Y-105531428D02*
X90452580Y-104960000D01*
X90452580Y-104960000D02*
X90452580Y-105579047D01*
X90452580Y-106404761D02*
X90452580Y-105928571D01*
X90452580Y-105928571D02*
X91452580Y-105928571D01*
X91452580Y-106595238D02*
X90452580Y-106928571D01*
X90452580Y-106928571D02*
X91452580Y-107261904D01*
X90452580Y-108119047D02*
X90452580Y-107547619D01*
X90452580Y-107833333D02*
X91452580Y-107833333D01*
X91452580Y-107833333D02*
X91309723Y-107738095D01*
X91309723Y-107738095D02*
X91214485Y-107642857D01*
X91214485Y-107642857D02*
X91166866Y-107547619D01*
X77252580Y-92559524D02*
X78252580Y-92559524D01*
X77776390Y-92559524D02*
X77776390Y-93130952D01*
X77252580Y-93130952D02*
X78252580Y-93130952D01*
X78252580Y-93464286D02*
X77252580Y-93797619D01*
X77252580Y-93797619D02*
X78252580Y-94130952D01*
X77919247Y-94892857D02*
X77252580Y-94892857D01*
X78300200Y-94654762D02*
X77585914Y-94416667D01*
X77585914Y-94416667D02*
X77585914Y-95035714D01*
X77252580Y-95649524D02*
X78252580Y-95649524D01*
X77776390Y-95649524D02*
X77776390Y-96220952D01*
X77252580Y-96220952D02*
X78252580Y-96220952D01*
X78252580Y-96554286D02*
X77252580Y-96887619D01*
X77252580Y-96887619D02*
X78252580Y-97220952D01*
X78252580Y-97459048D02*
X78252580Y-98078095D01*
X78252580Y-98078095D02*
X77871628Y-97744762D01*
X77871628Y-97744762D02*
X77871628Y-97887619D01*
X77871628Y-97887619D02*
X77824009Y-97982857D01*
X77824009Y-97982857D02*
X77776390Y-98030476D01*
X77776390Y-98030476D02*
X77681152Y-98078095D01*
X77681152Y-98078095D02*
X77443057Y-98078095D01*
X77443057Y-98078095D02*
X77347819Y-98030476D01*
X77347819Y-98030476D02*
X77300200Y-97982857D01*
X77300200Y-97982857D02*
X77252580Y-97887619D01*
X77252580Y-97887619D02*
X77252580Y-97601905D01*
X77252580Y-97601905D02*
X77300200Y-97506667D01*
X77300200Y-97506667D02*
X77347819Y-97459048D01*
X78204961Y-98988095D02*
X78252580Y-98892857D01*
X78252580Y-98892857D02*
X78252580Y-98750000D01*
X78252580Y-98750000D02*
X78204961Y-98607143D01*
X78204961Y-98607143D02*
X78109723Y-98511905D01*
X78109723Y-98511905D02*
X78014485Y-98464286D01*
X78014485Y-98464286D02*
X77824009Y-98416667D01*
X77824009Y-98416667D02*
X77681152Y-98416667D01*
X77681152Y-98416667D02*
X77490676Y-98464286D01*
X77490676Y-98464286D02*
X77395438Y-98511905D01*
X77395438Y-98511905D02*
X77300200Y-98607143D01*
X77300200Y-98607143D02*
X77252580Y-98750000D01*
X77252580Y-98750000D02*
X77252580Y-98845238D01*
X77252580Y-98845238D02*
X77300200Y-98988095D01*
X77300200Y-98988095D02*
X77347819Y-99035714D01*
X77347819Y-99035714D02*
X77681152Y-99035714D01*
X77681152Y-99035714D02*
X77681152Y-98845238D01*
X77252580Y-99464286D02*
X78252580Y-99464286D01*
X78252580Y-99464286D02*
X77252580Y-100035714D01*
X77252580Y-100035714D02*
X78252580Y-100035714D01*
X77252580Y-100511905D02*
X78252580Y-100511905D01*
X78252580Y-100511905D02*
X78252580Y-100750000D01*
X78252580Y-100750000D02*
X78204961Y-100892857D01*
X78204961Y-100892857D02*
X78109723Y-100988095D01*
X78109723Y-100988095D02*
X78014485Y-101035714D01*
X78014485Y-101035714D02*
X77824009Y-101083333D01*
X77824009Y-101083333D02*
X77681152Y-101083333D01*
X77681152Y-101083333D02*
X77490676Y-101035714D01*
X77490676Y-101035714D02*
X77395438Y-100988095D01*
X77395438Y-100988095D02*
X77300200Y-100892857D01*
X77300200Y-100892857D02*
X77252580Y-100750000D01*
X77252580Y-100750000D02*
X77252580Y-100511905D01*
X77252580Y-101205714D02*
X78252580Y-101205714D01*
X77776390Y-101205714D02*
X77776390Y-101777142D01*
X77252580Y-101777142D02*
X78252580Y-101777142D01*
X78252580Y-102110476D02*
X77252580Y-102443809D01*
X77252580Y-102443809D02*
X78252580Y-102777142D01*
X77252580Y-103269524D02*
X78252580Y-103269524D01*
X77776390Y-103269524D02*
X77776390Y-103840952D01*
X77252580Y-103840952D02*
X78252580Y-103840952D01*
X78252580Y-104174286D02*
X77252580Y-104507619D01*
X77252580Y-104507619D02*
X78252580Y-104840952D01*
X78157342Y-105126667D02*
X78204961Y-105174286D01*
X78204961Y-105174286D02*
X78252580Y-105269524D01*
X78252580Y-105269524D02*
X78252580Y-105507619D01*
X78252580Y-105507619D02*
X78204961Y-105602857D01*
X78204961Y-105602857D02*
X78157342Y-105650476D01*
X78157342Y-105650476D02*
X78062104Y-105698095D01*
X78062104Y-105698095D02*
X77966866Y-105698095D01*
X77966866Y-105698095D02*
X77824009Y-105650476D01*
X77824009Y-105650476D02*
X77252580Y-105079048D01*
X77252580Y-105079048D02*
X77252580Y-105698095D01*
X77292580Y-106059524D02*
X78292580Y-106059524D01*
X77816390Y-106059524D02*
X77816390Y-106630952D01*
X77292580Y-106630952D02*
X78292580Y-106630952D01*
X78292580Y-106964286D02*
X77292580Y-107297619D01*
X77292580Y-107297619D02*
X78292580Y-107630952D01*
X77292580Y-108488095D02*
X77292580Y-107916667D01*
X77292580Y-108202381D02*
X78292580Y-108202381D01*
X78292580Y-108202381D02*
X78149723Y-108107143D01*
X78149723Y-108107143D02*
X78054485Y-108011905D01*
X78054485Y-108011905D02*
X78006866Y-107916667D01*
%TO.C,J1*%
D11*
X76250000Y-33500000D02*
X92250000Y-33500000D01*
X76250000Y-50500000D02*
X76250000Y-33500000D01*
X92250000Y-50500000D02*
X76250000Y-50500000D01*
X92250000Y-33500000D02*
X92250000Y-50500000D01*
%TO.C,J20*%
X62130000Y-55530000D02*
X62130000Y-91200000D01*
X59370000Y-91200000D02*
X62130000Y-91200000D01*
X59370000Y-55530000D02*
X62130000Y-55530000D01*
X59370000Y-55530000D02*
X59370000Y-91200000D01*
X59370000Y-54260000D02*
X59370000Y-52880000D01*
X59370000Y-52880000D02*
X60750000Y-52880000D01*
%TO.C,U1*%
X126000000Y-40250000D02*
X126000000Y-100250000D01*
X126000000Y-100250000D02*
X99000000Y-100250000D01*
X98000000Y-40250000D02*
X126000000Y-40250000D01*
X98000000Y-100250000D02*
X98000000Y-42580000D01*
X107500000Y-100450000D02*
X107500000Y-101950000D01*
X107500000Y-101950000D02*
X116500000Y-101950000D01*
X116500000Y-101950000D02*
X116500000Y-100450000D01*
%TO.C,J10*%
X66620000Y-52880000D02*
X68000000Y-52880000D01*
X66620000Y-54260000D02*
X66620000Y-52880000D01*
X66620000Y-55530000D02*
X66620000Y-91200000D01*
X66620000Y-55530000D02*
X69380000Y-55530000D01*
X66620000Y-91200000D02*
X69380000Y-91200000D01*
X69380000Y-55530000D02*
X69380000Y-91200000D01*
%TO.C,J14*%
X78750000Y-121250000D02*
X78750000Y-117250000D01*
X78460000Y-124960000D02*
X76180000Y-124960000D01*
X78460000Y-114990000D02*
X78460000Y-124960000D01*
X78460000Y-114990000D02*
X63160000Y-114990000D01*
X78460000Y-113990000D02*
X78460000Y-114990000D01*
X76180000Y-124960000D02*
X76180000Y-124560000D01*
X76180000Y-124560000D02*
X73480000Y-124560000D01*
X73480000Y-124960000D02*
X63160000Y-124960000D01*
X73480000Y-124560000D02*
X73480000Y-124960000D01*
X63160000Y-124960000D02*
X63160000Y-113990000D01*
X63160000Y-113990000D02*
X78460000Y-113990000D01*
%TO.C,J3*%
X92310000Y-73000000D02*
X92310000Y-90000000D01*
X92310000Y-90000000D02*
X76310000Y-90000000D01*
X76310000Y-90000000D02*
X76310000Y-73000000D01*
X76310000Y-73000000D02*
X92310000Y-73000000D01*
%TO.C,J2*%
X92310000Y-53400000D02*
X92310000Y-70400000D01*
X92310000Y-70400000D02*
X76310000Y-70400000D01*
X76310000Y-70400000D02*
X76310000Y-53400000D01*
X76310000Y-53400000D02*
X92310000Y-53400000D01*
%TO.C,J9*%
X105370000Y-120380000D02*
X105370000Y-119000000D01*
X106750000Y-120380000D02*
X105370000Y-120380000D01*
X108020000Y-120380000D02*
X110670000Y-120380000D01*
X108020000Y-120380000D02*
X108020000Y-117620000D01*
X110670000Y-120380000D02*
X110670000Y-117620000D01*
X108020000Y-117620000D02*
X110670000Y-117620000D01*
%TO.C,J13*%
X96835000Y-122500000D02*
X81405000Y-122500000D01*
X81405000Y-122500000D02*
X81405000Y-115500000D01*
X81405000Y-115500000D02*
X96835000Y-115500000D01*
X96835000Y-115500000D02*
X96835000Y-122500000D01*
%TO.C,J4*%
X92310000Y-92150000D02*
X92310000Y-109150000D01*
X92310000Y-109150000D02*
X76310000Y-109150000D01*
X76310000Y-109150000D02*
X76310000Y-92150000D01*
X76310000Y-92150000D02*
X92310000Y-92150000D01*
%TD*%
M02*
