%TF.GenerationSoftware,KiCad,Pcbnew,10.0.0*%
%TF.CreationDate,2026-05-08T23:19:57-05:00*%
%TF.ProjectId,ti99-kb-adapter,74693939-2d6b-4622-9d61-646170746572,rev?*%
%TF.SameCoordinates,Original*%
%TF.FileFunction,Soldermask,Bot*%
%TF.FilePolarity,Negative*%
%FSLAX46Y46*%
G04 Gerber Fmt 4.6, Leading zero omitted, Abs format (unit mm)*
G04 Created by KiCad (PCBNEW 10.0.0) date 2026-05-08 23:19:57*
%MOMM*%
%LPD*%
G01*
G04 APERTURE LIST*
G04 Aperture macros list*
%AMRoundRect*
0 Rectangle with rounded corners*
0 $1 Rounding radius*
0 $2 $3 $4 $5 $6 $7 $8 $9 X,Y pos of 4 corners*
0 Add a 4 corners polygon primitive as box body*
4,1,4,$2,$3,$4,$5,$6,$7,$8,$9,$2,$3,0*
0 Add four circle primitives for the rounded corners*
1,1,$1+$1,$2,$3*
1,1,$1+$1,$4,$5*
1,1,$1+$1,$6,$7*
1,1,$1+$1,$8,$9*
0 Add four rect primitives between the rounded corners*
20,1,$1+$1,$2,$3,$4,$5,0*
20,1,$1+$1,$4,$5,$6,$7,0*
20,1,$1+$1,$6,$7,$8,$9,0*
20,1,$1+$1,$8,$9,$2,$3,0*%
G04 Aperture macros list end*
%ADD10C,3.000000*%
%ADD11C,1.700000*%
%ADD12R,1.700000X1.700000*%
%ADD13RoundRect,0.250000X1.330000X1.850000X-1.330000X1.850000X-1.330000X-1.850000X1.330000X-1.850000X0*%
%ADD14O,3.160000X4.200000*%
%ADD15R,3.000000X3.000000*%
G04 APERTURE END LIST*
D10*
%TO.C,REF\u002A\u002A*%
X59250000Y-126500000D03*
%TD*%
%TO.C,REF\u002A\u002A*%
X125250000Y-126500000D03*
%TD*%
%TO.C,REF\u002A\u002A*%
X125250000Y-34250000D03*
%TD*%
%TO.C,REF\u002A\u002A*%
X59500000Y-34500000D03*
%TD*%
D11*
%TO.C,J1*%
X79250000Y-48350000D03*
X79250000Y-45810000D03*
X79250000Y-43270000D03*
X79250000Y-40730000D03*
X79250000Y-38190000D03*
X79250000Y-35650000D03*
X89250000Y-48350000D03*
X89250000Y-45810000D03*
X89250000Y-43270000D03*
X89250000Y-40730000D03*
X89250000Y-38190000D03*
D12*
X89250000Y-35650000D03*
%TD*%
D11*
%TO.C,J20*%
X60750000Y-89820000D03*
X60750000Y-87280000D03*
X60750000Y-84740000D03*
X60750000Y-82200000D03*
X60750000Y-79660000D03*
X60750000Y-77120000D03*
X60750000Y-74580000D03*
X60750000Y-72040000D03*
X60750000Y-69500000D03*
X60750000Y-66960000D03*
X60750000Y-64420000D03*
X60750000Y-61880000D03*
X60750000Y-59340000D03*
X60750000Y-56800000D03*
D12*
X60750000Y-54260000D03*
%TD*%
%TO.C,U1*%
X99300000Y-43580000D03*
D11*
X99300000Y-46120000D03*
X99300000Y-48660000D03*
X99300000Y-51200000D03*
X99300000Y-53740000D03*
X99300000Y-56280000D03*
X99300000Y-58820000D03*
X99300000Y-61360000D03*
X99300000Y-63900000D03*
X99300000Y-66440000D03*
X99300000Y-68980000D03*
X99300000Y-71520000D03*
X99300000Y-74060000D03*
X99300000Y-76600000D03*
X99300000Y-79140000D03*
X99300000Y-81680000D03*
X99300000Y-84220000D03*
X99300000Y-86760000D03*
X99300000Y-89300000D03*
X99300000Y-91840000D03*
X99300000Y-94380000D03*
X99300000Y-96920000D03*
X124700000Y-43580000D03*
X124700000Y-46120000D03*
X124700000Y-48660000D03*
X124700000Y-51200000D03*
X124700000Y-53740000D03*
X124700000Y-56280000D03*
X124700000Y-58820000D03*
X124700000Y-61360000D03*
X124700000Y-63900000D03*
X124700000Y-66440000D03*
X124700000Y-68980000D03*
X124700000Y-71520000D03*
X124700000Y-74060000D03*
X124700000Y-76600000D03*
X124700000Y-79140000D03*
X124700000Y-81680000D03*
X124700000Y-84220000D03*
X124700000Y-86760000D03*
X124700000Y-89300000D03*
X124700000Y-91840000D03*
X124700000Y-94380000D03*
X124700000Y-96920000D03*
%TD*%
D12*
%TO.C,J10*%
X68000000Y-54260000D03*
D11*
X68000000Y-56800000D03*
X68000000Y-59340000D03*
X68000000Y-61880000D03*
X68000000Y-64420000D03*
X68000000Y-66960000D03*
X68000000Y-69500000D03*
X68000000Y-72040000D03*
X68000000Y-74580000D03*
X68000000Y-77120000D03*
X68000000Y-79660000D03*
X68000000Y-82200000D03*
X68000000Y-84740000D03*
X68000000Y-87280000D03*
X68000000Y-89820000D03*
%TD*%
D13*
%TO.C,J14*%
X76750000Y-119250000D03*
D14*
X72790000Y-119250000D03*
X68830000Y-119250000D03*
X64870000Y-119250000D03*
%TD*%
D12*
%TO.C,J3*%
X89310000Y-75150000D03*
D11*
X89310000Y-77690000D03*
X89310000Y-80230000D03*
X89310000Y-82770000D03*
X89310000Y-85310000D03*
X89310000Y-87850000D03*
X79310000Y-75150000D03*
X79310000Y-77690000D03*
X79310000Y-80230000D03*
X79310000Y-82770000D03*
X79310000Y-85310000D03*
X79310000Y-87850000D03*
%TD*%
D12*
%TO.C,J2*%
X89310000Y-55550000D03*
D11*
X89310000Y-58090000D03*
X89310000Y-60630000D03*
X89310000Y-63170000D03*
X89310000Y-65710000D03*
X89310000Y-68250000D03*
X79310000Y-55550000D03*
X79310000Y-58090000D03*
X79310000Y-60630000D03*
X79310000Y-63170000D03*
X79310000Y-65710000D03*
X79310000Y-68250000D03*
%TD*%
D12*
%TO.C,J9*%
X106750000Y-119000000D03*
D11*
X109290000Y-119000000D03*
%TD*%
D15*
%TO.C,J13*%
X94835000Y-119000000D03*
D10*
X91025000Y-119000000D03*
X87215000Y-119000000D03*
X83405000Y-119000000D03*
%TD*%
D12*
%TO.C,J4*%
X89310000Y-94300000D03*
D11*
X89310000Y-96840000D03*
X89310000Y-99380000D03*
X89310000Y-101920000D03*
X89310000Y-104460000D03*
X89310000Y-107000000D03*
X79310000Y-94300000D03*
X79310000Y-96840000D03*
X79310000Y-99380000D03*
X79310000Y-101920000D03*
X79310000Y-104460000D03*
X79310000Y-107000000D03*
%TD*%
M02*
