%TF.GenerationSoftware,KiCad,Pcbnew,10.0.0*%
%TF.CreationDate,2026-08-07T22:23:52-05:00*%
%TF.ProjectId,ti99-kb-adapter,74693939-2d6b-4622-9d61-646170746572,rev?*%
%TF.SameCoordinates,Original*%
%TF.FileFunction,Soldermask,Bot*%
%TF.FilePolarity,Negative*%
%FSLAX46Y46*%
G04 Gerber Fmt 4.6, Leading zero omitted, Abs format (unit mm)*
G04 Created by KiCad (PCBNEW 10.0.0) date 2026-08-07 22:23:52*
%MOMM*%
%LPD*%
G01*
G04 APERTURE LIST*
G04 Aperture macros list*
%AMRoundRect*
0 Rectangle with rounded corners*
0 $1 Rounding radius*
0 $2 $3 $4 $5 $6 $7 $8 $9 X,Y pos of 4 corners*
0 Add a 4 corners polygon primitive as box body*
4,1,4,$2,$3,$4,$5,$6,$7,$8,$9,$2,$3,0*
0 Add four circle primitives for the rounded corners*
1,1,$1+$1,$2,$3*
1,1,$1+$1,$4,$5*
1,1,$1+$1,$6,$7*
1,1,$1+$1,$8,$9*
0 Add four rect primitives between the rounded corners*
20,1,$1+$1,$2,$3,$4,$5,0*
20,1,$1+$1,$4,$5,$6,$7,0*
20,1,$1+$1,$6,$7,$8,$9,0*
20,1,$1+$1,$8,$9,$2,$3,0*%
G04 Aperture macros list end*
%ADD10R,1.700000X1.700000*%
%ADD11C,1.700000*%
%ADD12RoundRect,0.250000X-1.330000X-1.850000X1.330000X-1.850000X1.330000X1.850000X-1.330000X1.850000X0*%
%ADD13O,3.160000X4.200000*%
%ADD14C,2.200000*%
%ADD15R,2.200000X2.200000*%
G04 APERTURE END LIST*
D10*
%TO.C,J10*%
X72450000Y-68760000D03*
D11*
X72450000Y-71300000D03*
X72450000Y-73840000D03*
X72450000Y-76380000D03*
X72450000Y-78920000D03*
X72450000Y-81460000D03*
X72450000Y-84000000D03*
X72450000Y-86540000D03*
X72450000Y-89080000D03*
X72450000Y-91620000D03*
X72450000Y-94160000D03*
X72450000Y-96700000D03*
X72450000Y-99240000D03*
X72450000Y-101780000D03*
X72450000Y-104320000D03*
%TD*%
D12*
%TO.C,J14*%
X76540000Y-50000000D03*
D13*
X80500000Y-50000000D03*
X84460000Y-50000000D03*
X88420000Y-50000000D03*
%TD*%
D14*
%TO.C,H1*%
X59000000Y-45000000D03*
%TD*%
D10*
%TO.C,J15*%
X65500000Y-110000000D03*
%TD*%
%TO.C,U1*%
X98000000Y-61900000D03*
D11*
X98000000Y-64440000D03*
X98000000Y-66980000D03*
X98000000Y-69520000D03*
X98000000Y-72060000D03*
X98000000Y-74600000D03*
X98000000Y-77140000D03*
X98000000Y-79680000D03*
X98000000Y-82220000D03*
X98000000Y-84760000D03*
X98000000Y-87300000D03*
X98000000Y-89840000D03*
X98000000Y-92380000D03*
X98000000Y-94920000D03*
X98000000Y-97460000D03*
X98000000Y-100000000D03*
X98000000Y-102540000D03*
X98000000Y-105080000D03*
X98000000Y-107620000D03*
X98000000Y-110160000D03*
X98000000Y-112700000D03*
X98000000Y-115240000D03*
X123400000Y-61900000D03*
X123400000Y-64440000D03*
X123400000Y-66980000D03*
X123400000Y-69520000D03*
X123400000Y-72060000D03*
X123400000Y-74600000D03*
X123400000Y-77140000D03*
X123400000Y-79680000D03*
X123400000Y-82220000D03*
X123400000Y-84760000D03*
X123400000Y-87300000D03*
X123400000Y-89840000D03*
X123400000Y-92380000D03*
X123400000Y-94920000D03*
X123400000Y-97460000D03*
X123400000Y-100000000D03*
X123400000Y-102540000D03*
X123400000Y-105080000D03*
X123400000Y-107620000D03*
X123400000Y-110160000D03*
X123400000Y-112700000D03*
X123400000Y-115240000D03*
%TD*%
D14*
%TO.C,H4*%
X125250000Y-126500000D03*
%TD*%
D10*
%TO.C,J9*%
X66000000Y-48725000D03*
D11*
X66000000Y-51265000D03*
%TD*%
D14*
%TO.C,H2*%
X124700000Y-45000000D03*
%TD*%
%TO.C,H3*%
X59500000Y-126500000D03*
%TD*%
D15*
%TO.C,J13*%
X96285000Y-50000000D03*
D14*
X100095000Y-50000000D03*
X103905000Y-50000000D03*
X107715000Y-50000000D03*
%TD*%
D10*
%TO.C,J20*%
X65500000Y-68845000D03*
D11*
X65500000Y-71385000D03*
X65500000Y-73925000D03*
X65500000Y-76465000D03*
X65500000Y-79005000D03*
X65500000Y-81545000D03*
X65500000Y-84085000D03*
X65500000Y-86625000D03*
X65500000Y-89165000D03*
X65500000Y-91705000D03*
X65500000Y-94245000D03*
X65500000Y-96785000D03*
X65500000Y-99325000D03*
X65500000Y-101865000D03*
X65500000Y-104405000D03*
%TD*%
M02*
