%TF.GenerationSoftware,KiCad,Pcbnew,10.0.0*%
%TF.CreationDate,2026-07-20T19:18:28-05:00*%
%TF.ProjectId,ti99-kb-adapter,74693939-2d6b-4622-9d61-646170746572,rev?*%
%TF.SameCoordinates,Original*%
%TF.FileFunction,Copper,L2,Bot*%
%TF.FilePolarity,Positive*%
%FSLAX46Y46*%
G04 Gerber Fmt 4.6, Leading zero omitted, Abs format (unit mm)*
G04 Created by KiCad (PCBNEW 10.0.0) date 2026-07-20 19:18:28*
%MOMM*%
%LPD*%
G01*
G04 APERTURE LIST*
G04 Aperture macros list*
%AMRoundRect*
0 Rectangle with rounded corners*
0 $1 Rounding radius*
0 $2 $3 $4 $5 $6 $7 $8 $9 X,Y pos of 4 corners*
0 Add a 4 corners polygon primitive as box body*
4,1,4,$2,$3,$4,$5,$6,$7,$8,$9,$2,$3,0*
0 Add four circle primitives for the rounded corners*
1,1,$1+$1,$2,$3*
1,1,$1+$1,$4,$5*
1,1,$1+$1,$6,$7*
1,1,$1+$1,$8,$9*
0 Add four rect primitives between the rounded corners*
20,1,$1+$1,$2,$3,$4,$5,0*
20,1,$1+$1,$4,$5,$6,$7,0*
20,1,$1+$1,$6,$7,$8,$9,0*
20,1,$1+$1,$8,$9,$2,$3,0*%
G04 Aperture macros list end*
%TA.AperFunction,ComponentPad*%
%ADD10R,1.700000X1.700000*%
%TD*%
%TA.AperFunction,ComponentPad*%
%ADD11C,1.700000*%
%TD*%
%TA.AperFunction,ComponentPad*%
%ADD12RoundRect,0.250000X1.330000X1.850000X-1.330000X1.850000X-1.330000X-1.850000X1.330000X-1.850000X0*%
%TD*%
%TA.AperFunction,ComponentPad*%
%ADD13O,3.160000X4.200000*%
%TD*%
%TA.AperFunction,ComponentPad*%
%ADD14R,2.200000X2.200000*%
%TD*%
%TA.AperFunction,ComponentPad*%
%ADD15C,2.200000*%
%TD*%
%TA.AperFunction,ViaPad*%
%ADD16C,0.600000*%
%TD*%
G04 APERTURE END LIST*
D10*
%TO.P,J10,1,Pin_1_1*%
%TO.N,/INT5*%
X68000000Y-54260000D03*
D11*
%TO.P,J10,2,Pin_2_2*%
%TO.N,/INT6*%
X68000000Y-56800000D03*
%TO.P,J10,3,Pin_3_3*%
%TO.N,/INT8*%
X68000000Y-59340000D03*
%TO.P,J10,4,Pin_4_4*%
%TO.N,/INT4*%
X68000000Y-61880000D03*
%TO.P,J10,5,Pin_5_5*%
%TO.N,/INT3*%
X68000000Y-64420000D03*
%TO.P,J10,6,Pin_6_6*%
%TO.N,/INT9*%
X68000000Y-66960000D03*
%TO.P,J10,7,Pin_7_7*%
%TO.N,/INT7*%
X68000000Y-69500000D03*
%TO.P,J10,8,Pin_8_8*%
%TO.N,/1Y1*%
X68000000Y-72040000D03*
%TO.P,J10,9,Pin_9_9*%
%TO.N,/1Y0*%
X68000000Y-74580000D03*
%TO.P,J10,10,Pin_10_10*%
%TO.N,/ALPHA_LOCK*%
X68000000Y-77120000D03*
%TO.P,J10,11,Pin_11_11*%
%TO.N,/INT10*%
X68000000Y-79660000D03*
%TO.P,J10,12,Pin_12_12*%
%TO.N,/2Y0*%
X68000000Y-82200000D03*
%TO.P,J10,13,Pin_13_13*%
%TO.N,/2Y1*%
X68000000Y-84740000D03*
%TO.P,J10,14,Pin_14_14*%
%TO.N,/2Y2*%
X68000000Y-87280000D03*
%TO.P,J10,15,Pin_15_15*%
%TO.N,/2Y3*%
X68000000Y-89820000D03*
%TD*%
D12*
%TO.P,J14,1,Pin_1_1*%
%TO.N,+5V*%
X76750000Y-119250000D03*
D13*
%TO.P,J14,2,Pin_2_2*%
%TO.N,GND*%
X72790000Y-119250000D03*
%TO.P,J14,3,Pin_3_3*%
%TO.N,/PSU_+12V*%
X68830000Y-119250000D03*
%TO.P,J14,4,Pin_4_4*%
%TO.N,/PSU_-5V*%
X64870000Y-119250000D03*
%TD*%
D10*
%TO.P,J15,1,Pin_1_1*%
%TO.N,/SPARE*%
X60750000Y-96500000D03*
%TD*%
%TO.P,U1,1,3V3_1*%
%TO.N,+3V3*%
X99300000Y-43580000D03*
D11*
%TO.P,U1,2,3V3_2*%
X99300000Y-46120000D03*
%TO.P,U1,3,EN_3*%
%TO.N,unconnected-(U1A-EN-Pad3)*%
X99300000Y-48660000D03*
%TO.P,U1,4,IO4_4*%
%TO.N,/INT5_LV*%
X99300000Y-51200000D03*
%TO.P,U1,5,IO5_5*%
%TO.N,/INT6_LV*%
X99300000Y-53740000D03*
%TO.P,U1,6,IO6_6*%
%TO.N,/INT8_LV*%
X99300000Y-56280000D03*
%TO.P,U1,7,IO7_7*%
%TO.N,/INT4_LV*%
X99300000Y-58820000D03*
%TO.P,U1,8,IO15_8*%
%TO.N,/INT3_LV*%
X99300000Y-61360000D03*
%TO.P,U1,9,IO16_9*%
%TO.N,/INT9_LV*%
X99300000Y-63900000D03*
%TO.P,U1,10,IO17_10*%
%TO.N,/INT7_LV*%
X99300000Y-66440000D03*
%TO.P,U1,11,IO18_11*%
%TO.N,/1Y1_LV*%
X99300000Y-68980000D03*
%TO.P,U1,12,IO8_12*%
%TO.N,/1Y0_LV*%
X99300000Y-71520000D03*
%TO.P,U1,13,IO3_13*%
%TO.N,/ALPHA_LOCK_LV*%
X99300000Y-74060000D03*
%TO.P,U1,14,IO46_14*%
%TO.N,unconnected-(U1A-IO46-Pad14)*%
X99300000Y-76600000D03*
%TO.P,U1,15,IO9_15*%
%TO.N,/INT10_LV*%
X99300000Y-79140000D03*
%TO.P,U1,16,IO10_16*%
%TO.N,/2Y0_LV*%
X99300000Y-81680000D03*
%TO.P,U1,17,IO11_17*%
%TO.N,/2Y1_LV*%
X99300000Y-84220000D03*
%TO.P,U1,18,IO12_18*%
%TO.N,/2Y2_LV*%
X99300000Y-86760000D03*
%TO.P,U1,19,IO13_19*%
%TO.N,/2Y3_LV*%
X99300000Y-89300000D03*
%TO.P,U1,20,IO14_20*%
%TO.N,/SPARE_LV*%
X99300000Y-91840000D03*
%TO.P,U1,21,5V_21*%
%TO.N,+5V*%
X99300000Y-94380000D03*
%TO.P,U1,22,GND_22*%
%TO.N,GND*%
X99300000Y-96920000D03*
%TO.P,U1,23,GND_23*%
X124700000Y-43580000D03*
%TO.P,U1,24,TXD0_24*%
%TO.N,unconnected-(U1B-TXD0-Pad24)*%
X124700000Y-46120000D03*
%TO.P,U1,25,RXD0_25*%
%TO.N,unconnected-(U1B-RXD0-Pad25)*%
X124700000Y-48660000D03*
%TO.P,U1,26,IO1_26*%
%TO.N,unconnected-(U1B-IO1-Pad26)*%
X124700000Y-51200000D03*
%TO.P,U1,27,IO2_27*%
%TO.N,unconnected-(U1B-IO2-Pad27)*%
X124700000Y-53740000D03*
%TO.P,U1,28,IO42_28*%
%TO.N,unconnected-(U1B-IO42-Pad28)*%
X124700000Y-56280000D03*
%TO.P,U1,29,IO41_29*%
%TO.N,unconnected-(U1B-IO41-Pad29)*%
X124700000Y-58820000D03*
%TO.P,U1,30,IO40_30*%
%TO.N,unconnected-(U1B-IO40-Pad30)*%
X124700000Y-61360000D03*
%TO.P,U1,31,IO39_31*%
%TO.N,unconnected-(U1B-IO39-Pad31)*%
X124700000Y-63900000D03*
%TO.P,U1,32,IO38_32*%
%TO.N,unconnected-(U1B-IO38-Pad32)*%
X124700000Y-66440000D03*
%TO.P,U1,33,IO37_33*%
%TO.N,unconnected-(U1B-IO37-Pad33)*%
X124700000Y-68980000D03*
%TO.P,U1,34,IO36_34*%
%TO.N,unconnected-(U1B-IO36-Pad34)*%
X124700000Y-71520000D03*
%TO.P,U1,35,IO35_35*%
%TO.N,unconnected-(U1B-IO35-Pad35)*%
X124700000Y-74060000D03*
%TO.P,U1,36,IO0_36*%
%TO.N,unconnected-(U1B-IO0-Pad36)*%
X124700000Y-76600000D03*
%TO.P,U1,37,IO45_37*%
%TO.N,unconnected-(U1B-IO45-Pad37)*%
X124700000Y-79140000D03*
%TO.P,U1,38,IO48_38*%
%TO.N,unconnected-(U1B-IO48-Pad38)*%
X124700000Y-81680000D03*
%TO.P,U1,39,IO47_39*%
%TO.N,unconnected-(U1B-IO47-Pad39)*%
X124700000Y-84220000D03*
%TO.P,U1,40,IO21_40*%
%TO.N,unconnected-(U1B-IO21-Pad40)*%
X124700000Y-86760000D03*
%TO.P,U1,41,IO20_41*%
%TO.N,unconnected-(U1B-IO20-Pad41)*%
X124700000Y-89300000D03*
%TO.P,U1,42,IO19_42*%
%TO.N,unconnected-(U1B-IO19-Pad42)*%
X124700000Y-91840000D03*
%TO.P,U1,43,GND_43*%
%TO.N,GND*%
X124700000Y-94380000D03*
%TO.P,U1,44,GND_44*%
X124700000Y-96920000D03*
%TD*%
D10*
%TO.P,J3,1,LV4_1*%
%TO.N,/1Y0_LV*%
X89310000Y-75150000D03*
D11*
%TO.P,J3,2,LV3_2*%
%TO.N,/ALPHA_LOCK_LV*%
X89310000Y-77690000D03*
%TO.P,J3,3,GND_3*%
%TO.N,GND*%
X89310000Y-80230000D03*
%TO.P,J3,4,LV_4*%
%TO.N,+3V3*%
X89310000Y-82770000D03*
%TO.P,J3,5,LV2_5*%
%TO.N,/INT10_LV*%
X89310000Y-85310000D03*
%TO.P,J3,6,LV1_6*%
%TO.N,/2Y0_LV*%
X89310000Y-87850000D03*
%TO.P,J3,7,HV4_7*%
%TO.N,/1Y0*%
X79310000Y-75150000D03*
%TO.P,J3,8,HV3_8*%
%TO.N,/ALPHA_LOCK*%
X79310000Y-77690000D03*
%TO.P,J3,9,GND_9*%
%TO.N,GND*%
X79310000Y-80230000D03*
%TO.P,J3,10,HV_10*%
%TO.N,+5V*%
X79310000Y-82770000D03*
%TO.P,J3,11,HV2_11*%
%TO.N,/INT10*%
X79310000Y-85310000D03*
%TO.P,J3,12,HV1_12*%
%TO.N,/2Y0*%
X79310000Y-87850000D03*
%TD*%
D10*
%TO.P,J1,1,LV4_1*%
%TO.N,/INT5_LV*%
X89250000Y-35650000D03*
D11*
%TO.P,J1,2,LV3_2*%
%TO.N,/INT6_LV*%
X89250000Y-38190000D03*
%TO.P,J1,3,GND_3*%
%TO.N,GND*%
X89250000Y-40730000D03*
%TO.P,J1,4,LV_4*%
%TO.N,+3V3*%
X89250000Y-43270000D03*
%TO.P,J1,5,LV2_5*%
%TO.N,/INT8_LV*%
X89250000Y-45810000D03*
%TO.P,J1,6,LV1_6*%
%TO.N,/INT4_LV*%
X89250000Y-48350000D03*
%TO.P,J1,7,HV4_7*%
%TO.N,/INT5*%
X79250000Y-35650000D03*
%TO.P,J1,8,HV3_8*%
%TO.N,/INT6*%
X79250000Y-38190000D03*
%TO.P,J1,9,GND_9*%
%TO.N,GND*%
X79250000Y-40730000D03*
%TO.P,J1,10,HV_10*%
%TO.N,+5V*%
X79250000Y-43270000D03*
%TO.P,J1,11,HV2_11*%
%TO.N,/INT8*%
X79250000Y-45810000D03*
%TO.P,J1,12,HV1_12*%
%TO.N,/INT4*%
X79250000Y-48350000D03*
%TD*%
D10*
%TO.P,J2,1,LV4_1*%
%TO.N,/INT3_LV*%
X89310000Y-55550000D03*
D11*
%TO.P,J2,2,LV3_2*%
%TO.N,/INT9_LV*%
X89310000Y-58090000D03*
%TO.P,J2,3,GND_3*%
%TO.N,GND*%
X89310000Y-60630000D03*
%TO.P,J2,4,LV_4*%
%TO.N,+3V3*%
X89310000Y-63170000D03*
%TO.P,J2,5,LV2_5*%
%TO.N,/INT7_LV*%
X89310000Y-65710000D03*
%TO.P,J2,6,LV1_6*%
%TO.N,/1Y1_LV*%
X89310000Y-68250000D03*
%TO.P,J2,7,HV4_7*%
%TO.N,/INT3*%
X79310000Y-55550000D03*
%TO.P,J2,8,HV3_8*%
%TO.N,/INT9*%
X79310000Y-58090000D03*
%TO.P,J2,9,GND_9*%
%TO.N,GND*%
X79310000Y-60630000D03*
%TO.P,J2,10,HV_10*%
%TO.N,+5V*%
X79310000Y-63170000D03*
%TO.P,J2,11,HV2_11*%
%TO.N,/INT7*%
X79310000Y-65710000D03*
%TO.P,J2,12,HV1_12*%
%TO.N,/1Y1*%
X79310000Y-68250000D03*
%TD*%
D10*
%TO.P,J9,1,Pin_1_1*%
%TO.N,+5V*%
X60500000Y-105250000D03*
D11*
%TO.P,J9,2,Pin_2_2*%
%TO.N,GND*%
X60500000Y-107790000D03*
%TD*%
D14*
%TO.P,J13,1,Pin_1_1*%
%TO.N,/PSU_-5V*%
X94835000Y-119000000D03*
D15*
%TO.P,J13,2,Pin_2_2*%
%TO.N,/PSU_+12V*%
X91025000Y-119000000D03*
%TO.P,J13,3,Pin_3_3*%
%TO.N,GND*%
X87215000Y-119000000D03*
%TO.P,J13,4,Pin_4_4*%
%TO.N,+5V*%
X83405000Y-119000000D03*
%TD*%
D10*
%TO.P,J4,1,LV4_1*%
%TO.N,/2Y1_LV*%
X89310000Y-94300000D03*
D11*
%TO.P,J4,2,LV3_2*%
%TO.N,/2Y2_LV*%
X89310000Y-96840000D03*
%TO.P,J4,3,GND_3*%
%TO.N,GND*%
X89310000Y-99380000D03*
%TO.P,J4,4,LV_4*%
%TO.N,+3V3*%
X89310000Y-101920000D03*
%TO.P,J4,5,LV2_5*%
%TO.N,/2Y3_LV*%
X89310000Y-104460000D03*
%TO.P,J4,6,LV1_6*%
%TO.N,/SPARE_LV*%
X89310000Y-107000000D03*
%TO.P,J4,7,HV4_7*%
%TO.N,/2Y1*%
X79310000Y-94300000D03*
%TO.P,J4,8,HV3_8*%
%TO.N,/2Y2*%
X79310000Y-96840000D03*
%TO.P,J4,9,GND_9*%
%TO.N,GND*%
X79310000Y-99380000D03*
%TO.P,J4,10,HV_10*%
%TO.N,+5V*%
X79310000Y-101920000D03*
%TO.P,J4,11,HV2_11*%
%TO.N,/2Y3*%
X79310000Y-104460000D03*
%TO.P,J4,12,HV1_12*%
%TO.N,/SPARE*%
X79310000Y-107000000D03*
%TD*%
D10*
%TO.P,J20,1,Pin_1_1*%
%TO.N,/INT5*%
X60750000Y-54260000D03*
D11*
%TO.P,J20,2,Pin_2_2*%
%TO.N,/INT6*%
X60750000Y-56800000D03*
%TO.P,J20,3,Pin_3_3*%
%TO.N,/INT8*%
X60750000Y-59340000D03*
%TO.P,J20,4,Pin_4_4*%
%TO.N,/INT4*%
X60750000Y-61880000D03*
%TO.P,J20,5,Pin_5_5*%
%TO.N,/INT3*%
X60750000Y-64420000D03*
%TO.P,J20,6,Pin_6_6*%
%TO.N,/INT9*%
X60750000Y-66960000D03*
%TO.P,J20,7,Pin_7_7*%
%TO.N,/INT7*%
X60750000Y-69500000D03*
%TO.P,J20,8,Pin_8_8*%
%TO.N,/1Y1*%
X60750000Y-72040000D03*
%TO.P,J20,9,Pin_9_9*%
%TO.N,/1Y0*%
X60750000Y-74580000D03*
%TO.P,J20,10,Pin_10_10*%
%TO.N,/ALPHA_LOCK*%
X60750000Y-77120000D03*
%TO.P,J20,11,Pin_11_11*%
%TO.N,/INT10*%
X60750000Y-79660000D03*
%TO.P,J20,12,Pin_12_12*%
%TO.N,/2Y0*%
X60750000Y-82200000D03*
%TO.P,J20,13,Pin_13_13*%
%TO.N,/2Y1*%
X60750000Y-84740000D03*
%TO.P,J20,14,Pin_14_14*%
%TO.N,/2Y2*%
X60750000Y-87280000D03*
%TO.P,J20,15,Pin_15_15*%
%TO.N,/2Y3*%
X60750000Y-89820000D03*
%TD*%
D16*
%TO.N,GND*%
X74750000Y-65250000D03*
X84250000Y-63250000D03*
X79250000Y-52250000D03*
X92500000Y-43250000D03*
X79250000Y-71500000D03*
X79250000Y-90750000D03*
X76250000Y-46750000D03*
X84250000Y-43250000D03*
X84500000Y-82750000D03*
X93750000Y-79750000D03*
X89250000Y-91250000D03*
X89250000Y-52000000D03*
X76000000Y-42750000D03*
X93000000Y-62500000D03*
X78000000Y-95500000D03*
X89250000Y-71750000D03*
X73250000Y-80500000D03*
X74000000Y-96000000D03*
X85750000Y-104000000D03*
X68750000Y-123500000D03*
%TD*%
%TA.AperFunction,Conductor*%
%TO.N,GND*%
G36*
X128442539Y-31020185D02*
G01*
X128488294Y-31072989D01*
X128499500Y-31124500D01*
X128499500Y-129625500D01*
X128479815Y-129692539D01*
X128427011Y-129738294D01*
X128375500Y-129749500D01*
X56124500Y-129749500D01*
X56057461Y-129729815D01*
X56011706Y-129677011D01*
X56000500Y-129625500D01*
X56000500Y-126393713D01*
X57874500Y-126393713D01*
X57874500Y-126606286D01*
X57907753Y-126816239D01*
X57973444Y-127018414D01*
X58069951Y-127207820D01*
X58194890Y-127379786D01*
X58345213Y-127530109D01*
X58517179Y-127655048D01*
X58517181Y-127655049D01*
X58517184Y-127655051D01*
X58706588Y-127751557D01*
X58908757Y-127817246D01*
X59118713Y-127850500D01*
X59118714Y-127850500D01*
X59331286Y-127850500D01*
X59331287Y-127850500D01*
X59541243Y-127817246D01*
X59743412Y-127751557D01*
X59932816Y-127655051D01*
X59954789Y-127639086D01*
X60104786Y-127530109D01*
X60104788Y-127530106D01*
X60104792Y-127530104D01*
X60255104Y-127379792D01*
X60255106Y-127379788D01*
X60255109Y-127379786D01*
X60380048Y-127207820D01*
X60380047Y-127207820D01*
X60380051Y-127207816D01*
X60476557Y-127018412D01*
X60542246Y-126816243D01*
X60575500Y-126606287D01*
X60575500Y-126393713D01*
X123899500Y-126393713D01*
X123899500Y-126606286D01*
X123932753Y-126816239D01*
X123998444Y-127018414D01*
X124094951Y-127207820D01*
X124219890Y-127379786D01*
X124370213Y-127530109D01*
X124542179Y-127655048D01*
X124542181Y-127655049D01*
X124542184Y-127655051D01*
X124731588Y-127751557D01*
X124933757Y-127817246D01*
X125143713Y-127850500D01*
X125143714Y-127850500D01*
X125356286Y-127850500D01*
X125356287Y-127850500D01*
X125566243Y-127817246D01*
X125768412Y-127751557D01*
X125957816Y-127655051D01*
X125979789Y-127639086D01*
X126129786Y-127530109D01*
X126129788Y-127530106D01*
X126129792Y-127530104D01*
X126280104Y-127379792D01*
X126280106Y-127379788D01*
X126280109Y-127379786D01*
X126405048Y-127207820D01*
X126405047Y-127207820D01*
X126405051Y-127207816D01*
X126501557Y-127018412D01*
X126567246Y-126816243D01*
X126600500Y-126606287D01*
X126600500Y-126393713D01*
X126567246Y-126183757D01*
X126501557Y-125981588D01*
X126405051Y-125792184D01*
X126405049Y-125792181D01*
X126405048Y-125792179D01*
X126280109Y-125620213D01*
X126129786Y-125469890D01*
X125957820Y-125344951D01*
X125768414Y-125248444D01*
X125768413Y-125248443D01*
X125768412Y-125248443D01*
X125566243Y-125182754D01*
X125566241Y-125182753D01*
X125566240Y-125182753D01*
X125404957Y-125157208D01*
X125356287Y-125149500D01*
X125143713Y-125149500D01*
X125095042Y-125157208D01*
X124933760Y-125182753D01*
X124731585Y-125248444D01*
X124542179Y-125344951D01*
X124370213Y-125469890D01*
X124219890Y-125620213D01*
X124094951Y-125792179D01*
X123998444Y-125981585D01*
X123932753Y-126183760D01*
X123899500Y-126393713D01*
X60575500Y-126393713D01*
X60542246Y-126183757D01*
X60476557Y-125981588D01*
X60380051Y-125792184D01*
X60380049Y-125792181D01*
X60380048Y-125792179D01*
X60255109Y-125620213D01*
X60104786Y-125469890D01*
X59932820Y-125344951D01*
X59743414Y-125248444D01*
X59743413Y-125248443D01*
X59743412Y-125248443D01*
X59541243Y-125182754D01*
X59541241Y-125182753D01*
X59541240Y-125182753D01*
X59379957Y-125157208D01*
X59331287Y-125149500D01*
X59118713Y-125149500D01*
X59070042Y-125157208D01*
X58908760Y-125182753D01*
X58706585Y-125248444D01*
X58517179Y-125344951D01*
X58345213Y-125469890D01*
X58194890Y-125620213D01*
X58069951Y-125792179D01*
X57973444Y-125981585D01*
X57907753Y-126183760D01*
X57874500Y-126393713D01*
X56000500Y-126393713D01*
X56000500Y-118593643D01*
X62789500Y-118593643D01*
X62789500Y-119906356D01*
X62789501Y-119906372D01*
X62825097Y-120176754D01*
X62895684Y-120440188D01*
X63000047Y-120692144D01*
X63000054Y-120692159D01*
X63136415Y-120928343D01*
X63302439Y-121144710D01*
X63302445Y-121144717D01*
X63495282Y-121337554D01*
X63495289Y-121337560D01*
X63711656Y-121503584D01*
X63947840Y-121639945D01*
X63947855Y-121639952D01*
X64075225Y-121692710D01*
X64199810Y-121744315D01*
X64463244Y-121814902D01*
X64733637Y-121850500D01*
X64733644Y-121850500D01*
X65006356Y-121850500D01*
X65006363Y-121850500D01*
X65276756Y-121814902D01*
X65540190Y-121744315D01*
X65792156Y-121639947D01*
X66028344Y-121503584D01*
X66244712Y-121337559D01*
X66437559Y-121144712D01*
X66603584Y-120928344D01*
X66739947Y-120692156D01*
X66739946Y-120692156D01*
X66741977Y-120688640D01*
X66743420Y-120689473D01*
X66786083Y-120643093D01*
X66853676Y-120625405D01*
X66920103Y-120647068D01*
X66956758Y-120689370D01*
X66958023Y-120688640D01*
X67096415Y-120928343D01*
X67262439Y-121144710D01*
X67262445Y-121144717D01*
X67455282Y-121337554D01*
X67455289Y-121337560D01*
X67671656Y-121503584D01*
X67907840Y-121639945D01*
X67907855Y-121639952D01*
X68035225Y-121692710D01*
X68159810Y-121744315D01*
X68423244Y-121814902D01*
X68693637Y-121850500D01*
X68693644Y-121850500D01*
X68966356Y-121850500D01*
X68966363Y-121850500D01*
X69236756Y-121814902D01*
X69500190Y-121744315D01*
X69752156Y-121639947D01*
X69988344Y-121503584D01*
X70204712Y-121337559D01*
X70397559Y-121144712D01*
X70563584Y-120928344D01*
X70699947Y-120692156D01*
X70699946Y-120692156D01*
X70701977Y-120688640D01*
X70703264Y-120689383D01*
X70746359Y-120642528D01*
X70813953Y-120624838D01*
X70880379Y-120646500D01*
X70917297Y-120689096D01*
X70918472Y-120688418D01*
X71056831Y-120928066D01*
X71222818Y-121144382D01*
X71222826Y-121144391D01*
X71415609Y-121337174D01*
X71415617Y-121337181D01*
X71631933Y-121503168D01*
X71868062Y-121639496D01*
X71868072Y-121639500D01*
X72119970Y-121743840D01*
X72383344Y-121814411D01*
X72540000Y-121835034D01*
X72540000Y-120117904D01*
X72701358Y-120150000D01*
X72878642Y-120150000D01*
X73040000Y-120117904D01*
X73040000Y-121835033D01*
X73196655Y-121814411D01*
X73460029Y-121743840D01*
X73711927Y-121639500D01*
X73711937Y-121639496D01*
X73948066Y-121503168D01*
X74164382Y-121337181D01*
X74164391Y-121337174D01*
X74357174Y-121144391D01*
X74357179Y-121144385D01*
X74447124Y-121027166D01*
X74503552Y-120985963D01*
X74573298Y-120981808D01*
X74634218Y-121016020D01*
X74666971Y-121077737D01*
X74669500Y-121102650D01*
X74669500Y-121149999D01*
X74669501Y-121150019D01*
X74680000Y-121252796D01*
X74680001Y-121252799D01*
X74735185Y-121419331D01*
X74735186Y-121419334D01*
X74827288Y-121568656D01*
X74951344Y-121692712D01*
X75100666Y-121784814D01*
X75267203Y-121839999D01*
X75369991Y-121850500D01*
X78130008Y-121850499D01*
X78232797Y-121839999D01*
X78399334Y-121784814D01*
X78548656Y-121692712D01*
X78672712Y-121568656D01*
X78764814Y-121419334D01*
X78819999Y-121252797D01*
X78830500Y-121150009D01*
X78830499Y-118874038D01*
X81804500Y-118874038D01*
X81804500Y-119125962D01*
X81838038Y-119337708D01*
X81843910Y-119374785D01*
X81921760Y-119614383D01*
X81953314Y-119676310D01*
X82035995Y-119838581D01*
X82036132Y-119838848D01*
X82184201Y-120042649D01*
X82184205Y-120042654D01*
X82362345Y-120220794D01*
X82362350Y-120220798D01*
X82463449Y-120294250D01*
X82566155Y-120368870D01*
X82664488Y-120418973D01*
X82790616Y-120483239D01*
X82790618Y-120483239D01*
X82790621Y-120483241D01*
X83030215Y-120561090D01*
X83279038Y-120600500D01*
X83279039Y-120600500D01*
X83530961Y-120600500D01*
X83530962Y-120600500D01*
X83779785Y-120561090D01*
X84019379Y-120483241D01*
X84243845Y-120368870D01*
X84447656Y-120220793D01*
X84625793Y-120042656D01*
X84773870Y-119838845D01*
X84888241Y-119614379D01*
X84966090Y-119374785D01*
X85005500Y-119125962D01*
X85005500Y-118874071D01*
X85615000Y-118874071D01*
X85615000Y-119125928D01*
X85654397Y-119374669D01*
X85732219Y-119614184D01*
X85846557Y-119838583D01*
X85920748Y-119940697D01*
X85920748Y-119940698D01*
X86691212Y-119170234D01*
X86702482Y-119212292D01*
X86774890Y-119337708D01*
X86877292Y-119440110D01*
X87002708Y-119512518D01*
X87044765Y-119523787D01*
X86274300Y-120294250D01*
X86376416Y-120368442D01*
X86600815Y-120482780D01*
X86840330Y-120560602D01*
X87089072Y-120600000D01*
X87340928Y-120600000D01*
X87589669Y-120560602D01*
X87829184Y-120482780D01*
X88053575Y-120368446D01*
X88053581Y-120368442D01*
X88155697Y-120294250D01*
X88155698Y-120294250D01*
X87385234Y-119523787D01*
X87427292Y-119512518D01*
X87552708Y-119440110D01*
X87655110Y-119337708D01*
X87727518Y-119212292D01*
X87738787Y-119170235D01*
X88509250Y-119940698D01*
X88509250Y-119940697D01*
X88583442Y-119838581D01*
X88583446Y-119838575D01*
X88697780Y-119614184D01*
X88775602Y-119374669D01*
X88815000Y-119125928D01*
X88815000Y-118874071D01*
X88814995Y-118874038D01*
X89424500Y-118874038D01*
X89424500Y-119125962D01*
X89458038Y-119337708D01*
X89463910Y-119374785D01*
X89541760Y-119614383D01*
X89573314Y-119676310D01*
X89655995Y-119838581D01*
X89656132Y-119838848D01*
X89804201Y-120042649D01*
X89804205Y-120042654D01*
X89982345Y-120220794D01*
X89982350Y-120220798D01*
X90083449Y-120294250D01*
X90186155Y-120368870D01*
X90284488Y-120418973D01*
X90410616Y-120483239D01*
X90410618Y-120483239D01*
X90410621Y-120483241D01*
X90650215Y-120561090D01*
X90899038Y-120600500D01*
X90899039Y-120600500D01*
X91150961Y-120600500D01*
X91150962Y-120600500D01*
X91399785Y-120561090D01*
X91639379Y-120483241D01*
X91863845Y-120368870D01*
X92067656Y-120220793D01*
X92245793Y-120042656D01*
X92393870Y-119838845D01*
X92508241Y-119614379D01*
X92586090Y-119374785D01*
X92625500Y-119125962D01*
X92625500Y-118874038D01*
X92586090Y-118625215D01*
X92508241Y-118385621D01*
X92508239Y-118385618D01*
X92508239Y-118385616D01*
X92466747Y-118304184D01*
X92393870Y-118161155D01*
X92335653Y-118081026D01*
X92245798Y-117957350D01*
X92245794Y-117957345D01*
X92140584Y-117852135D01*
X93234500Y-117852135D01*
X93234500Y-120147870D01*
X93234501Y-120147876D01*
X93240908Y-120207483D01*
X93291202Y-120342328D01*
X93291206Y-120342335D01*
X93377452Y-120457544D01*
X93377455Y-120457547D01*
X93492664Y-120543793D01*
X93492671Y-120543797D01*
X93627517Y-120594091D01*
X93627516Y-120594091D01*
X93634444Y-120594835D01*
X93687127Y-120600500D01*
X95982872Y-120600499D01*
X96042483Y-120594091D01*
X96177331Y-120543796D01*
X96292546Y-120457546D01*
X96378796Y-120342331D01*
X96429091Y-120207483D01*
X96435500Y-120147873D01*
X96435499Y-117852128D01*
X96429091Y-117792517D01*
X96424124Y-117779201D01*
X96378797Y-117657671D01*
X96378793Y-117657664D01*
X96292547Y-117542455D01*
X96292544Y-117542452D01*
X96177335Y-117456206D01*
X96177328Y-117456202D01*
X96042482Y-117405908D01*
X96042483Y-117405908D01*
X95982883Y-117399501D01*
X95982881Y-117399500D01*
X95982873Y-117399500D01*
X95982864Y-117399500D01*
X93687129Y-117399500D01*
X93687123Y-117399501D01*
X93627516Y-117405908D01*
X93492671Y-117456202D01*
X93492664Y-117456206D01*
X93377455Y-117542452D01*
X93377452Y-117542455D01*
X93291206Y-117657664D01*
X93291202Y-117657671D01*
X93240908Y-117792517D01*
X93234501Y-117852116D01*
X93234501Y-117852123D01*
X93234500Y-117852135D01*
X92140584Y-117852135D01*
X92067654Y-117779205D01*
X92067649Y-117779201D01*
X91863848Y-117631132D01*
X91863847Y-117631131D01*
X91863845Y-117631130D01*
X91793747Y-117595413D01*
X91639383Y-117516760D01*
X91399785Y-117438910D01*
X91150962Y-117399500D01*
X90899038Y-117399500D01*
X90774626Y-117419205D01*
X90650214Y-117438910D01*
X90410616Y-117516760D01*
X90186151Y-117631132D01*
X89982350Y-117779201D01*
X89982345Y-117779205D01*
X89804205Y-117957345D01*
X89804201Y-117957350D01*
X89656132Y-118161151D01*
X89541760Y-118385616D01*
X89463910Y-118625214D01*
X89438173Y-118787708D01*
X89424500Y-118874038D01*
X88814995Y-118874038D01*
X88775602Y-118625330D01*
X88697780Y-118385815D01*
X88583442Y-118161416D01*
X88509250Y-118059301D01*
X88509250Y-118059300D01*
X87738787Y-118829764D01*
X87727518Y-118787708D01*
X87655110Y-118662292D01*
X87552708Y-118559890D01*
X87427292Y-118487482D01*
X87385232Y-118476212D01*
X88155698Y-117705748D01*
X88053583Y-117631557D01*
X87829184Y-117517219D01*
X87589669Y-117439397D01*
X87340928Y-117400000D01*
X87089072Y-117400000D01*
X86840330Y-117439397D01*
X86600815Y-117517219D01*
X86376413Y-117631559D01*
X86274301Y-117705747D01*
X86274300Y-117705748D01*
X87044765Y-118476212D01*
X87002708Y-118487482D01*
X86877292Y-118559890D01*
X86774890Y-118662292D01*
X86702482Y-118787708D01*
X86691212Y-118829765D01*
X85920748Y-118059300D01*
X85920747Y-118059301D01*
X85846559Y-118161413D01*
X85732219Y-118385815D01*
X85654397Y-118625330D01*
X85615000Y-118874071D01*
X85005500Y-118874071D01*
X85005500Y-118874038D01*
X84966090Y-118625215D01*
X84888241Y-118385621D01*
X84888239Y-118385618D01*
X84888239Y-118385616D01*
X84846747Y-118304184D01*
X84773870Y-118161155D01*
X84715653Y-118081026D01*
X84625798Y-117957350D01*
X84625794Y-117957345D01*
X84447654Y-117779205D01*
X84447649Y-117779201D01*
X84243848Y-117631132D01*
X84243847Y-117631131D01*
X84243845Y-117631130D01*
X84173747Y-117595413D01*
X84019383Y-117516760D01*
X83779785Y-117438910D01*
X83530962Y-117399500D01*
X83279038Y-117399500D01*
X83154626Y-117419205D01*
X83030214Y-117438910D01*
X82790616Y-117516760D01*
X82566151Y-117631132D01*
X82362350Y-117779201D01*
X82362345Y-117779205D01*
X82184205Y-117957345D01*
X82184201Y-117957350D01*
X82036132Y-118161151D01*
X81921760Y-118385616D01*
X81843910Y-118625214D01*
X81818173Y-118787708D01*
X81804500Y-118874038D01*
X78830499Y-118874038D01*
X78830499Y-117349992D01*
X78819999Y-117247203D01*
X78764814Y-117080666D01*
X78672712Y-116931344D01*
X78548656Y-116807288D01*
X78399334Y-116715186D01*
X78232797Y-116660001D01*
X78232795Y-116660000D01*
X78130010Y-116649500D01*
X75369998Y-116649500D01*
X75369981Y-116649501D01*
X75267203Y-116660000D01*
X75267200Y-116660001D01*
X75100668Y-116715185D01*
X75100663Y-116715187D01*
X74951342Y-116807289D01*
X74827289Y-116931342D01*
X74735187Y-117080663D01*
X74735186Y-117080666D01*
X74680001Y-117247203D01*
X74680001Y-117247204D01*
X74680000Y-117247204D01*
X74669500Y-117349983D01*
X74669500Y-117397346D01*
X74649815Y-117464385D01*
X74597011Y-117510140D01*
X74527853Y-117520084D01*
X74464297Y-117491059D01*
X74447125Y-117472833D01*
X74357181Y-117355617D01*
X74357174Y-117355609D01*
X74164391Y-117162826D01*
X74164382Y-117162818D01*
X73948066Y-116996831D01*
X73711937Y-116860503D01*
X73711927Y-116860499D01*
X73460029Y-116756159D01*
X73196655Y-116685588D01*
X73040000Y-116664963D01*
X73040000Y-118382095D01*
X72878642Y-118350000D01*
X72701358Y-118350000D01*
X72540000Y-118382095D01*
X72540000Y-116664963D01*
X72539999Y-116664963D01*
X72383344Y-116685588D01*
X72119970Y-116756159D01*
X71868072Y-116860499D01*
X71868062Y-116860503D01*
X71631933Y-116996831D01*
X71415617Y-117162818D01*
X71222818Y-117355617D01*
X71056831Y-117571933D01*
X70918472Y-117811582D01*
X70917133Y-117810809D01*
X70874150Y-117857500D01*
X70806548Y-117875159D01*
X70740131Y-117853466D01*
X70703095Y-117810714D01*
X70701977Y-117811360D01*
X70563584Y-117571656D01*
X70397560Y-117355289D01*
X70397554Y-117355282D01*
X70204717Y-117162445D01*
X70204710Y-117162439D01*
X69988343Y-116996415D01*
X69752159Y-116860054D01*
X69752144Y-116860047D01*
X69500188Y-116755684D01*
X69236754Y-116685097D01*
X68966372Y-116649501D01*
X68966369Y-116649500D01*
X68966363Y-116649500D01*
X68693637Y-116649500D01*
X68693631Y-116649500D01*
X68693627Y-116649501D01*
X68423245Y-116685097D01*
X68159811Y-116755684D01*
X67907855Y-116860047D01*
X67907840Y-116860054D01*
X67671656Y-116996415D01*
X67455289Y-117162439D01*
X67455282Y-117162445D01*
X67262445Y-117355282D01*
X67262439Y-117355289D01*
X67096415Y-117571656D01*
X66958023Y-117811360D01*
X66956585Y-117810530D01*
X66913885Y-117856926D01*
X66846286Y-117874593D01*
X66779866Y-117852909D01*
X66743234Y-117810634D01*
X66741977Y-117811360D01*
X66603584Y-117571656D01*
X66437560Y-117355289D01*
X66437554Y-117355282D01*
X66244717Y-117162445D01*
X66244710Y-117162439D01*
X66028343Y-116996415D01*
X65792159Y-116860054D01*
X65792144Y-116860047D01*
X65540188Y-116755684D01*
X65276754Y-116685097D01*
X65006372Y-116649501D01*
X65006369Y-116649500D01*
X65006363Y-116649500D01*
X64733637Y-116649500D01*
X64733631Y-116649500D01*
X64733627Y-116649501D01*
X64463245Y-116685097D01*
X64199811Y-116755684D01*
X63947855Y-116860047D01*
X63947840Y-116860054D01*
X63711656Y-116996415D01*
X63495289Y-117162439D01*
X63495282Y-117162445D01*
X63302445Y-117355282D01*
X63302439Y-117355289D01*
X63136415Y-117571656D01*
X63000054Y-117807840D01*
X63000047Y-117807855D01*
X62895684Y-118059811D01*
X62825097Y-118323245D01*
X62789501Y-118593627D01*
X62789500Y-118593643D01*
X56000500Y-118593643D01*
X56000500Y-104352135D01*
X59149500Y-104352135D01*
X59149500Y-106147870D01*
X59149501Y-106147876D01*
X59155908Y-106207483D01*
X59206202Y-106342328D01*
X59206206Y-106342335D01*
X59292452Y-106457544D01*
X59292455Y-106457547D01*
X59407664Y-106543793D01*
X59407671Y-106543797D01*
X59452618Y-106560561D01*
X59542517Y-106594091D01*
X59602127Y-106600500D01*
X59612685Y-106600499D01*
X59679723Y-106620179D01*
X59700372Y-106636818D01*
X60370591Y-107307037D01*
X60307007Y-107324075D01*
X60192993Y-107389901D01*
X60099901Y-107482993D01*
X60034075Y-107597007D01*
X60017037Y-107660591D01*
X59384728Y-107028282D01*
X59384727Y-107028282D01*
X59345380Y-107082439D01*
X59248904Y-107271782D01*
X59183242Y-107473869D01*
X59183242Y-107473872D01*
X59150000Y-107683753D01*
X59150000Y-107896246D01*
X59183242Y-108106127D01*
X59183242Y-108106130D01*
X59248904Y-108308217D01*
X59345375Y-108497550D01*
X59384728Y-108551716D01*
X60017037Y-107919408D01*
X60034075Y-107982993D01*
X60099901Y-108097007D01*
X60192993Y-108190099D01*
X60307007Y-108255925D01*
X60370590Y-108272962D01*
X59738282Y-108905269D01*
X59738282Y-108905270D01*
X59792449Y-108944624D01*
X59981782Y-109041095D01*
X60183870Y-109106757D01*
X60393754Y-109140000D01*
X60606246Y-109140000D01*
X60816127Y-109106757D01*
X60816130Y-109106757D01*
X61018217Y-109041095D01*
X61207554Y-108944622D01*
X61261716Y-108905270D01*
X61261717Y-108905270D01*
X60629408Y-108272962D01*
X60692993Y-108255925D01*
X60807007Y-108190099D01*
X60900099Y-108097007D01*
X60965925Y-107982993D01*
X60982962Y-107919408D01*
X61615270Y-108551717D01*
X61615270Y-108551716D01*
X61654622Y-108497554D01*
X61751095Y-108308217D01*
X61816757Y-108106130D01*
X61816757Y-108106127D01*
X61850000Y-107896246D01*
X61850000Y-107683753D01*
X61816757Y-107473872D01*
X61816757Y-107473869D01*
X61751095Y-107271782D01*
X61654624Y-107082449D01*
X61615270Y-107028282D01*
X61615269Y-107028282D01*
X60982962Y-107660590D01*
X60965925Y-107597007D01*
X60900099Y-107482993D01*
X60807007Y-107389901D01*
X60692993Y-107324075D01*
X60629409Y-107307037D01*
X61299627Y-106636818D01*
X61360950Y-106603333D01*
X61387307Y-106600499D01*
X61397872Y-106600499D01*
X61457483Y-106594091D01*
X61592331Y-106543796D01*
X61707546Y-106457546D01*
X61793796Y-106342331D01*
X61844091Y-106207483D01*
X61850500Y-106147873D01*
X61850499Y-104352128D01*
X61844091Y-104292517D01*
X61793796Y-104157669D01*
X61793795Y-104157668D01*
X61793793Y-104157664D01*
X61707547Y-104042455D01*
X61707544Y-104042452D01*
X61592335Y-103956206D01*
X61592328Y-103956202D01*
X61457482Y-103905908D01*
X61457483Y-103905908D01*
X61397883Y-103899501D01*
X61397881Y-103899500D01*
X61397873Y-103899500D01*
X61397864Y-103899500D01*
X59602129Y-103899500D01*
X59602123Y-103899501D01*
X59542516Y-103905908D01*
X59407671Y-103956202D01*
X59407664Y-103956206D01*
X59292455Y-104042452D01*
X59292452Y-104042455D01*
X59206206Y-104157664D01*
X59206202Y-104157671D01*
X59155908Y-104292517D01*
X59149501Y-104352116D01*
X59149501Y-104352123D01*
X59149500Y-104352135D01*
X56000500Y-104352135D01*
X56000500Y-95602135D01*
X59399500Y-95602135D01*
X59399500Y-97397870D01*
X59399501Y-97397876D01*
X59405908Y-97457483D01*
X59456202Y-97592328D01*
X59456206Y-97592335D01*
X59542452Y-97707544D01*
X59542455Y-97707547D01*
X59657664Y-97793793D01*
X59657671Y-97793797D01*
X59792517Y-97844091D01*
X59792516Y-97844091D01*
X59799444Y-97844835D01*
X59852127Y-97850500D01*
X61647872Y-97850499D01*
X61707483Y-97844091D01*
X61842331Y-97793796D01*
X61957546Y-97707546D01*
X62043796Y-97592331D01*
X62094091Y-97457483D01*
X62100500Y-97397873D01*
X62100499Y-95602128D01*
X62094091Y-95542517D01*
X62091306Y-95535051D01*
X62043797Y-95407671D01*
X62043793Y-95407664D01*
X61957547Y-95292455D01*
X61957544Y-95292452D01*
X61842335Y-95206206D01*
X61842328Y-95206202D01*
X61707482Y-95155908D01*
X61707483Y-95155908D01*
X61647883Y-95149501D01*
X61647881Y-95149500D01*
X61647873Y-95149500D01*
X61647864Y-95149500D01*
X59852129Y-95149500D01*
X59852123Y-95149501D01*
X59792516Y-95155908D01*
X59657671Y-95206202D01*
X59657664Y-95206206D01*
X59542455Y-95292452D01*
X59542452Y-95292455D01*
X59456206Y-95407664D01*
X59456202Y-95407671D01*
X59405908Y-95542517D01*
X59399501Y-95602116D01*
X59399501Y-95602123D01*
X59399500Y-95602135D01*
X56000500Y-95602135D01*
X56000500Y-94193713D01*
X77959500Y-94193713D01*
X77959500Y-94406287D01*
X77992754Y-94616243D01*
X78045994Y-94780099D01*
X78058444Y-94818414D01*
X78154951Y-95007820D01*
X78279890Y-95179786D01*
X78430213Y-95330109D01*
X78602182Y-95455050D01*
X78610946Y-95459516D01*
X78661742Y-95507491D01*
X78678536Y-95575312D01*
X78655998Y-95641447D01*
X78610946Y-95680484D01*
X78602182Y-95684949D01*
X78430213Y-95809890D01*
X78279890Y-95960213D01*
X78154951Y-96132179D01*
X78058444Y-96321585D01*
X77992753Y-96523760D01*
X77980065Y-96603869D01*
X77959500Y-96733713D01*
X77959500Y-96946287D01*
X77992754Y-97156243D01*
X78045994Y-97320099D01*
X78058444Y-97358414D01*
X78154951Y-97547820D01*
X78279890Y-97719786D01*
X78430213Y-97870109D01*
X78602179Y-97995048D01*
X78602181Y-97995049D01*
X78602184Y-97995051D01*
X78611493Y-97999794D01*
X78662290Y-98047766D01*
X78679087Y-98115587D01*
X78656552Y-98181722D01*
X78611505Y-98220760D01*
X78602446Y-98225376D01*
X78602440Y-98225380D01*
X78548282Y-98264727D01*
X78548282Y-98264728D01*
X79180591Y-98897037D01*
X79117007Y-98914075D01*
X79002993Y-98979901D01*
X78909901Y-99072993D01*
X78844075Y-99187007D01*
X78827037Y-99250591D01*
X78194728Y-98618282D01*
X78194727Y-98618282D01*
X78155380Y-98672439D01*
X78058904Y-98861782D01*
X77993242Y-99063869D01*
X77993242Y-99063872D01*
X77960000Y-99273753D01*
X77960000Y-99486246D01*
X77993242Y-99696127D01*
X77993242Y-99696130D01*
X78058904Y-99898217D01*
X78155375Y-100087550D01*
X78194728Y-100141716D01*
X78827037Y-99509408D01*
X78844075Y-99572993D01*
X78909901Y-99687007D01*
X79002993Y-99780099D01*
X79117007Y-99845925D01*
X79180590Y-99862962D01*
X78548282Y-100495269D01*
X78548282Y-100495270D01*
X78602452Y-100534626D01*
X78602451Y-100534626D01*
X78611495Y-100539234D01*
X78662292Y-100587208D01*
X78679087Y-100655029D01*
X78656550Y-100721164D01*
X78611499Y-100760202D01*
X78602182Y-100764949D01*
X78430213Y-100889890D01*
X78279890Y-101040213D01*
X78154951Y-101212179D01*
X78058444Y-101401585D01*
X77992753Y-101603760D01*
X77959500Y-101813713D01*
X77959500Y-102026286D01*
X77992753Y-102236239D01*
X78058444Y-102438414D01*
X78154951Y-102627820D01*
X78279890Y-102799786D01*
X78430213Y-102950109D01*
X78602182Y-103075050D01*
X78610946Y-103079516D01*
X78661742Y-103127491D01*
X78678536Y-103195312D01*
X78655998Y-103261447D01*
X78610946Y-103300484D01*
X78602182Y-103304949D01*
X78430213Y-103429890D01*
X78279890Y-103580213D01*
X78154951Y-103752179D01*
X78058444Y-103941585D01*
X77992753Y-104143760D01*
X77959500Y-104353713D01*
X77959500Y-104566286D01*
X77992753Y-104776239D01*
X78058444Y-104978414D01*
X78154951Y-105167820D01*
X78279890Y-105339786D01*
X78430213Y-105490109D01*
X78602182Y-105615050D01*
X78610946Y-105619516D01*
X78661742Y-105667491D01*
X78678536Y-105735312D01*
X78655998Y-105801447D01*
X78610946Y-105840484D01*
X78602182Y-105844949D01*
X78430213Y-105969890D01*
X78279890Y-106120213D01*
X78154951Y-106292179D01*
X78058444Y-106481585D01*
X77992753Y-106683760D01*
X77959500Y-106893713D01*
X77959500Y-107106286D01*
X77992753Y-107316239D01*
X78058444Y-107518414D01*
X78154951Y-107707820D01*
X78279890Y-107879786D01*
X78430213Y-108030109D01*
X78602179Y-108155048D01*
X78602181Y-108155049D01*
X78602184Y-108155051D01*
X78791588Y-108251557D01*
X78993757Y-108317246D01*
X79203713Y-108350500D01*
X79203714Y-108350500D01*
X79416286Y-108350500D01*
X79416287Y-108350500D01*
X79626243Y-108317246D01*
X79828412Y-108251557D01*
X80017816Y-108155051D01*
X80039789Y-108139086D01*
X80189786Y-108030109D01*
X80189788Y-108030106D01*
X80189792Y-108030104D01*
X80340104Y-107879792D01*
X80340106Y-107879788D01*
X80340109Y-107879786D01*
X80465048Y-107707820D01*
X80465047Y-107707820D01*
X80465051Y-107707816D01*
X80561557Y-107518412D01*
X80627246Y-107316243D01*
X80660500Y-107106287D01*
X80660500Y-106893713D01*
X80627246Y-106683757D01*
X80561557Y-106481588D01*
X80465051Y-106292184D01*
X80465049Y-106292181D01*
X80465048Y-106292179D01*
X80340109Y-106120213D01*
X80189786Y-105969890D01*
X80017820Y-105844951D01*
X80017115Y-105844591D01*
X80009054Y-105840485D01*
X79958259Y-105792512D01*
X79941463Y-105724692D01*
X79963999Y-105658556D01*
X80009054Y-105619515D01*
X80017816Y-105615051D01*
X80039789Y-105599086D01*
X80189786Y-105490109D01*
X80189788Y-105490106D01*
X80189792Y-105490104D01*
X80340104Y-105339792D01*
X80340106Y-105339788D01*
X80340109Y-105339786D01*
X80465048Y-105167820D01*
X80465047Y-105167820D01*
X80465051Y-105167816D01*
X80561557Y-104978412D01*
X80627246Y-104776243D01*
X80660500Y-104566287D01*
X80660500Y-104353713D01*
X80627246Y-104143757D01*
X80561557Y-103941588D01*
X80465051Y-103752184D01*
X80465049Y-103752181D01*
X80465048Y-103752179D01*
X80340109Y-103580213D01*
X80189786Y-103429890D01*
X80017820Y-103304951D01*
X80017115Y-103304591D01*
X80009054Y-103300485D01*
X79958259Y-103252512D01*
X79941463Y-103184692D01*
X79963999Y-103118556D01*
X80009054Y-103079515D01*
X80017816Y-103075051D01*
X80039789Y-103059086D01*
X80189786Y-102950109D01*
X80189788Y-102950106D01*
X80189792Y-102950104D01*
X80340104Y-102799792D01*
X80340106Y-102799788D01*
X80340109Y-102799786D01*
X80465048Y-102627820D01*
X80465047Y-102627820D01*
X80465051Y-102627816D01*
X80561557Y-102438412D01*
X80627246Y-102236243D01*
X80660500Y-102026287D01*
X80660500Y-101813713D01*
X80627246Y-101603757D01*
X80561557Y-101401588D01*
X80465051Y-101212184D01*
X80465049Y-101212181D01*
X80465048Y-101212179D01*
X80340109Y-101040213D01*
X80189786Y-100889890D01*
X80017817Y-100764949D01*
X80008504Y-100760204D01*
X79957707Y-100712230D01*
X79940912Y-100644409D01*
X79963449Y-100578274D01*
X80008507Y-100539232D01*
X80017555Y-100534622D01*
X80071716Y-100495270D01*
X80071717Y-100495270D01*
X79439408Y-99862962D01*
X79502993Y-99845925D01*
X79617007Y-99780099D01*
X79710099Y-99687007D01*
X79775925Y-99572993D01*
X79792962Y-99509408D01*
X80425270Y-100141717D01*
X80425270Y-100141716D01*
X80464622Y-100087554D01*
X80561095Y-99898217D01*
X80626757Y-99696130D01*
X80626757Y-99696127D01*
X80660000Y-99486246D01*
X80660000Y-99273753D01*
X80626757Y-99063872D01*
X80626757Y-99063869D01*
X80561095Y-98861782D01*
X80464624Y-98672449D01*
X80425270Y-98618282D01*
X80425269Y-98618282D01*
X79792962Y-99250590D01*
X79775925Y-99187007D01*
X79710099Y-99072993D01*
X79617007Y-98979901D01*
X79502993Y-98914075D01*
X79439409Y-98897037D01*
X80071716Y-98264728D01*
X80017547Y-98225373D01*
X80017547Y-98225372D01*
X80008500Y-98220763D01*
X79957706Y-98172788D01*
X79940912Y-98104966D01*
X79963451Y-98038832D01*
X80008508Y-97999793D01*
X80017816Y-97995051D01*
X80097007Y-97937515D01*
X80189786Y-97870109D01*
X80189788Y-97870106D01*
X80189792Y-97870104D01*
X80340104Y-97719792D01*
X80340106Y-97719788D01*
X80340109Y-97719786D01*
X80465048Y-97547820D01*
X80465047Y-97547820D01*
X80465051Y-97547816D01*
X80561557Y-97358412D01*
X80627246Y-97156243D01*
X80660500Y-96946287D01*
X80660500Y-96733713D01*
X80627246Y-96523757D01*
X80561557Y-96321588D01*
X80465051Y-96132184D01*
X80465049Y-96132181D01*
X80465048Y-96132179D01*
X80340109Y-95960213D01*
X80189786Y-95809890D01*
X80017820Y-95684951D01*
X80017115Y-95684591D01*
X80009054Y-95680485D01*
X79958259Y-95632512D01*
X79941463Y-95564692D01*
X79963999Y-95498556D01*
X80009054Y-95459515D01*
X80017816Y-95455051D01*
X80079674Y-95410109D01*
X80189786Y-95330109D01*
X80189788Y-95330106D01*
X80189792Y-95330104D01*
X80340104Y-95179792D01*
X80340106Y-95179788D01*
X80340109Y-95179786D01*
X80465048Y-95007820D01*
X80465047Y-95007820D01*
X80465051Y-95007816D01*
X80561557Y-94818412D01*
X80627246Y-94616243D01*
X80660500Y-94406287D01*
X80660500Y-94193713D01*
X80627246Y-93983757D01*
X80561557Y-93781588D01*
X80465051Y-93592184D01*
X80340104Y-93420208D01*
X80322031Y-93402135D01*
X87959500Y-93402135D01*
X87959500Y-95197870D01*
X87959501Y-95197876D01*
X87965908Y-95257483D01*
X88016202Y-95392328D01*
X88016206Y-95392335D01*
X88102452Y-95507544D01*
X88102455Y-95507547D01*
X88217664Y-95593793D01*
X88217671Y-95593797D01*
X88349082Y-95642810D01*
X88405016Y-95684681D01*
X88429433Y-95750145D01*
X88414582Y-95818418D01*
X88393431Y-95846673D01*
X88279889Y-95960215D01*
X88154951Y-96132179D01*
X88058444Y-96321585D01*
X87992753Y-96523760D01*
X87980065Y-96603869D01*
X87959500Y-96733713D01*
X87959500Y-96946287D01*
X87992754Y-97156243D01*
X88045994Y-97320099D01*
X88058444Y-97358414D01*
X88154951Y-97547820D01*
X88279890Y-97719786D01*
X88430213Y-97870109D01*
X88602179Y-97995048D01*
X88602181Y-97995049D01*
X88602184Y-97995051D01*
X88611493Y-97999794D01*
X88662290Y-98047766D01*
X88679087Y-98115587D01*
X88656552Y-98181722D01*
X88611505Y-98220760D01*
X88602446Y-98225376D01*
X88602440Y-98225380D01*
X88548282Y-98264727D01*
X88548282Y-98264728D01*
X89180591Y-98897037D01*
X89117007Y-98914075D01*
X89002993Y-98979901D01*
X88909901Y-99072993D01*
X88844075Y-99187007D01*
X88827037Y-99250591D01*
X88194728Y-98618282D01*
X88194727Y-98618282D01*
X88155380Y-98672439D01*
X88058904Y-98861782D01*
X87993242Y-99063869D01*
X87993242Y-99063872D01*
X87960000Y-99273753D01*
X87960000Y-99486246D01*
X87993242Y-99696127D01*
X87993242Y-99696130D01*
X88058904Y-99898217D01*
X88155375Y-100087550D01*
X88194728Y-100141716D01*
X88827037Y-99509408D01*
X88844075Y-99572993D01*
X88909901Y-99687007D01*
X89002993Y-99780099D01*
X89117007Y-99845925D01*
X89180590Y-99862962D01*
X88548282Y-100495269D01*
X88548282Y-100495270D01*
X88602452Y-100534626D01*
X88602451Y-100534626D01*
X88611495Y-100539234D01*
X88662292Y-100587208D01*
X88679087Y-100655029D01*
X88656550Y-100721164D01*
X88611499Y-100760202D01*
X88602182Y-100764949D01*
X88430213Y-100889890D01*
X88279890Y-101040213D01*
X88154951Y-101212179D01*
X88058444Y-101401585D01*
X87992753Y-101603760D01*
X87959500Y-101813713D01*
X87959500Y-102026286D01*
X87992753Y-102236239D01*
X88058444Y-102438414D01*
X88154951Y-102627820D01*
X88279890Y-102799786D01*
X88430213Y-102950109D01*
X88602182Y-103075050D01*
X88610946Y-103079516D01*
X88661742Y-103127491D01*
X88678536Y-103195312D01*
X88655998Y-103261447D01*
X88610946Y-103300484D01*
X88602182Y-103304949D01*
X88430213Y-103429890D01*
X88279890Y-103580213D01*
X88154951Y-103752179D01*
X88058444Y-103941585D01*
X87992753Y-104143760D01*
X87959500Y-104353713D01*
X87959500Y-104566286D01*
X87992753Y-104776239D01*
X88058444Y-104978414D01*
X88154951Y-105167820D01*
X88279890Y-105339786D01*
X88430213Y-105490109D01*
X88602182Y-105615050D01*
X88610946Y-105619516D01*
X88661742Y-105667491D01*
X88678536Y-105735312D01*
X88655998Y-105801447D01*
X88610946Y-105840484D01*
X88602182Y-105844949D01*
X88430213Y-105969890D01*
X88279890Y-106120213D01*
X88154951Y-106292179D01*
X88058444Y-106481585D01*
X87992753Y-106683760D01*
X87959500Y-106893713D01*
X87959500Y-107106286D01*
X87992753Y-107316239D01*
X88058444Y-107518414D01*
X88154951Y-107707820D01*
X88279890Y-107879786D01*
X88430213Y-108030109D01*
X88602179Y-108155048D01*
X88602181Y-108155049D01*
X88602184Y-108155051D01*
X88791588Y-108251557D01*
X88993757Y-108317246D01*
X89203713Y-108350500D01*
X89203714Y-108350500D01*
X89416286Y-108350500D01*
X89416287Y-108350500D01*
X89626243Y-108317246D01*
X89828412Y-108251557D01*
X90017816Y-108155051D01*
X90039789Y-108139086D01*
X90189786Y-108030109D01*
X90189788Y-108030106D01*
X90189792Y-108030104D01*
X90340104Y-107879792D01*
X90340106Y-107879788D01*
X90340109Y-107879786D01*
X90465048Y-107707820D01*
X90465047Y-107707820D01*
X90465051Y-107707816D01*
X90561557Y-107518412D01*
X90627246Y-107316243D01*
X90660500Y-107106287D01*
X90660500Y-106893713D01*
X90627246Y-106683757D01*
X90561557Y-106481588D01*
X90465051Y-106292184D01*
X90465049Y-106292181D01*
X90465048Y-106292179D01*
X90340109Y-106120213D01*
X90189786Y-105969890D01*
X90017820Y-105844951D01*
X90017115Y-105844591D01*
X90009054Y-105840485D01*
X89958259Y-105792512D01*
X89941463Y-105724692D01*
X89963999Y-105658556D01*
X90009054Y-105619515D01*
X90017816Y-105615051D01*
X90039789Y-105599086D01*
X90189786Y-105490109D01*
X90189788Y-105490106D01*
X90189792Y-105490104D01*
X90340104Y-105339792D01*
X90340106Y-105339788D01*
X90340109Y-105339786D01*
X90465048Y-105167820D01*
X90465047Y-105167820D01*
X90465051Y-105167816D01*
X90561557Y-104978412D01*
X90627246Y-104776243D01*
X90660500Y-104566287D01*
X90660500Y-104353713D01*
X90627246Y-104143757D01*
X90561557Y-103941588D01*
X90465051Y-103752184D01*
X90465049Y-103752181D01*
X90465048Y-103752179D01*
X90340109Y-103580213D01*
X90189786Y-103429890D01*
X90017820Y-103304951D01*
X90017115Y-103304591D01*
X90009054Y-103300485D01*
X89958259Y-103252512D01*
X89941463Y-103184692D01*
X89963999Y-103118556D01*
X90009054Y-103079515D01*
X90017816Y-103075051D01*
X90039789Y-103059086D01*
X90189786Y-102950109D01*
X90189788Y-102950106D01*
X90189792Y-102950104D01*
X90340104Y-102799792D01*
X90340106Y-102799788D01*
X90340109Y-102799786D01*
X90465048Y-102627820D01*
X90465047Y-102627820D01*
X90465051Y-102627816D01*
X90561557Y-102438412D01*
X90627246Y-102236243D01*
X90660500Y-102026287D01*
X90660500Y-101813713D01*
X90627246Y-101603757D01*
X90561557Y-101401588D01*
X90465051Y-101212184D01*
X90465049Y-101212181D01*
X90465048Y-101212179D01*
X90340109Y-101040213D01*
X90189786Y-100889890D01*
X90017817Y-100764949D01*
X90008504Y-100760204D01*
X89957707Y-100712230D01*
X89940912Y-100644409D01*
X89963449Y-100578274D01*
X90008507Y-100539232D01*
X90017555Y-100534622D01*
X90071716Y-100495270D01*
X90071717Y-100495270D01*
X89439408Y-99862962D01*
X89502993Y-99845925D01*
X89617007Y-99780099D01*
X89710099Y-99687007D01*
X89775925Y-99572993D01*
X89792962Y-99509408D01*
X90425270Y-100141717D01*
X90425270Y-100141716D01*
X90464622Y-100087554D01*
X90561095Y-99898217D01*
X90626757Y-99696130D01*
X90626757Y-99696127D01*
X90660000Y-99486246D01*
X90660000Y-99273753D01*
X90626757Y-99063872D01*
X90626757Y-99063869D01*
X90561095Y-98861782D01*
X90464624Y-98672449D01*
X90425270Y-98618282D01*
X90425269Y-98618282D01*
X89792962Y-99250590D01*
X89775925Y-99187007D01*
X89710099Y-99072993D01*
X89617007Y-98979901D01*
X89502993Y-98914075D01*
X89439409Y-98897037D01*
X90071716Y-98264728D01*
X90017547Y-98225373D01*
X90017547Y-98225372D01*
X90008500Y-98220763D01*
X89957706Y-98172788D01*
X89940912Y-98104966D01*
X89963451Y-98038832D01*
X89993415Y-98008887D01*
X90000628Y-98003808D01*
X90017816Y-97995051D01*
X90189792Y-97870104D01*
X90340104Y-97719792D01*
X90340106Y-97719788D01*
X90340109Y-97719786D01*
X90465048Y-97547820D01*
X90465047Y-97547820D01*
X90465051Y-97547816D01*
X90561557Y-97358412D01*
X90627246Y-97156243D01*
X90660500Y-96946287D01*
X90660500Y-96733713D01*
X90627246Y-96523757D01*
X90561557Y-96321588D01*
X90465051Y-96132184D01*
X90465049Y-96132181D01*
X90465048Y-96132179D01*
X90340109Y-95960213D01*
X90226569Y-95846673D01*
X90193084Y-95785350D01*
X90198068Y-95715658D01*
X90239940Y-95659725D01*
X90270915Y-95642810D01*
X90402331Y-95593796D01*
X90517546Y-95507546D01*
X90603796Y-95392331D01*
X90654091Y-95257483D01*
X90660500Y-95197873D01*
X90660499Y-93402128D01*
X90654091Y-93342517D01*
X90625077Y-93264727D01*
X90603797Y-93207671D01*
X90603793Y-93207664D01*
X90517547Y-93092455D01*
X90517544Y-93092452D01*
X90402335Y-93006206D01*
X90402328Y-93006202D01*
X90267482Y-92955908D01*
X90267483Y-92955908D01*
X90207883Y-92949501D01*
X90207881Y-92949500D01*
X90207873Y-92949500D01*
X90207864Y-92949500D01*
X88412129Y-92949500D01*
X88412123Y-92949501D01*
X88352516Y-92955908D01*
X88217671Y-93006202D01*
X88217664Y-93006206D01*
X88102455Y-93092452D01*
X88102452Y-93092455D01*
X88016206Y-93207664D01*
X88016202Y-93207671D01*
X87965908Y-93342517D01*
X87959501Y-93402116D01*
X87959501Y-93402123D01*
X87959500Y-93402135D01*
X80322031Y-93402135D01*
X80189792Y-93269896D01*
X80189786Y-93269890D01*
X80017820Y-93144951D01*
X79828414Y-93048444D01*
X79828413Y-93048443D01*
X79828412Y-93048443D01*
X79626243Y-92982754D01*
X79626241Y-92982753D01*
X79626240Y-92982753D01*
X79464957Y-92957208D01*
X79416287Y-92949500D01*
X79203713Y-92949500D01*
X79155042Y-92957208D01*
X78993760Y-92982753D01*
X78892672Y-93015598D01*
X78821168Y-93038832D01*
X78791585Y-93048444D01*
X78602179Y-93144951D01*
X78430213Y-93269890D01*
X78279890Y-93420213D01*
X78154951Y-93592179D01*
X78058444Y-93781585D01*
X77992753Y-93983760D01*
X77980065Y-94063869D01*
X77959500Y-94193713D01*
X56000500Y-94193713D01*
X56000500Y-53362135D01*
X59399500Y-53362135D01*
X59399500Y-55157870D01*
X59399501Y-55157876D01*
X59405908Y-55217483D01*
X59456202Y-55352328D01*
X59456206Y-55352335D01*
X59542452Y-55467544D01*
X59542455Y-55467547D01*
X59657664Y-55553793D01*
X59657671Y-55553797D01*
X59789082Y-55602810D01*
X59845016Y-55644681D01*
X59869433Y-55710145D01*
X59854582Y-55778418D01*
X59833431Y-55806673D01*
X59719889Y-55920215D01*
X59594951Y-56092179D01*
X59498444Y-56281585D01*
X59432753Y-56483760D01*
X59399500Y-56693713D01*
X59399500Y-56906287D01*
X59432754Y-57116243D01*
X59495745Y-57310109D01*
X59498444Y-57318414D01*
X59594951Y-57507820D01*
X59719890Y-57679786D01*
X59870213Y-57830109D01*
X60042182Y-57955050D01*
X60050946Y-57959516D01*
X60101742Y-58007491D01*
X60118536Y-58075312D01*
X60095998Y-58141447D01*
X60050946Y-58180484D01*
X60042182Y-58184949D01*
X59870213Y-58309890D01*
X59719890Y-58460213D01*
X59594951Y-58632179D01*
X59498444Y-58821585D01*
X59432753Y-59023760D01*
X59417494Y-59120104D01*
X59399500Y-59233713D01*
X59399500Y-59446287D01*
X59432754Y-59656243D01*
X59495745Y-59850109D01*
X59498444Y-59858414D01*
X59594951Y-60047820D01*
X59719890Y-60219786D01*
X59870213Y-60370109D01*
X60042182Y-60495050D01*
X60050946Y-60499516D01*
X60101742Y-60547491D01*
X60118536Y-60615312D01*
X60095998Y-60681447D01*
X60050946Y-60720484D01*
X60042182Y-60724949D01*
X59870213Y-60849890D01*
X59719890Y-61000213D01*
X59594951Y-61172179D01*
X59498444Y-61361585D01*
X59432753Y-61563760D01*
X59414938Y-61676239D01*
X59399500Y-61773713D01*
X59399500Y-61986287D01*
X59432754Y-62196243D01*
X59495745Y-62390109D01*
X59498444Y-62398414D01*
X59594951Y-62587820D01*
X59719890Y-62759786D01*
X59870213Y-62910109D01*
X60042182Y-63035050D01*
X60050946Y-63039516D01*
X60101742Y-63087491D01*
X60118536Y-63155312D01*
X60095998Y-63221447D01*
X60050946Y-63260484D01*
X60042182Y-63264949D01*
X59870213Y-63389890D01*
X59719890Y-63540213D01*
X59594951Y-63712179D01*
X59498444Y-63901585D01*
X59432753Y-64103760D01*
X59417494Y-64200104D01*
X59399500Y-64313713D01*
X59399500Y-64526287D01*
X59432754Y-64736243D01*
X59495745Y-64930109D01*
X59498444Y-64938414D01*
X59594951Y-65127820D01*
X59719890Y-65299786D01*
X59870213Y-65450109D01*
X60042182Y-65575050D01*
X60050946Y-65579516D01*
X60101742Y-65627491D01*
X60118536Y-65695312D01*
X60095998Y-65761447D01*
X60050946Y-65800484D01*
X60042182Y-65804949D01*
X59870213Y-65929890D01*
X59719890Y-66080213D01*
X59594951Y-66252179D01*
X59498444Y-66441585D01*
X59432753Y-66643760D01*
X59417494Y-66740104D01*
X59399500Y-66853713D01*
X59399500Y-67066287D01*
X59432754Y-67276243D01*
X59495745Y-67470109D01*
X59498444Y-67478414D01*
X59594951Y-67667820D01*
X59719890Y-67839786D01*
X59870213Y-67990109D01*
X60042182Y-68115050D01*
X60050946Y-68119516D01*
X60101742Y-68167491D01*
X60118536Y-68235312D01*
X60095998Y-68301447D01*
X60050946Y-68340484D01*
X60042182Y-68344949D01*
X59870213Y-68469890D01*
X59719890Y-68620213D01*
X59594951Y-68792179D01*
X59498444Y-68981585D01*
X59432753Y-69183760D01*
X59417494Y-69280104D01*
X59399500Y-69393713D01*
X59399500Y-69606287D01*
X59432754Y-69816243D01*
X59495745Y-70010109D01*
X59498444Y-70018414D01*
X59594951Y-70207820D01*
X59719890Y-70379786D01*
X59870213Y-70530109D01*
X60042182Y-70655050D01*
X60050946Y-70659516D01*
X60101742Y-70707491D01*
X60118536Y-70775312D01*
X60095998Y-70841447D01*
X60050946Y-70880484D01*
X60042182Y-70884949D01*
X59870213Y-71009890D01*
X59719890Y-71160213D01*
X59594951Y-71332179D01*
X59498444Y-71521585D01*
X59432753Y-71723760D01*
X59414938Y-71836239D01*
X59399500Y-71933713D01*
X59399500Y-72146287D01*
X59432754Y-72356243D01*
X59495745Y-72550109D01*
X59498444Y-72558414D01*
X59594951Y-72747820D01*
X59719890Y-72919786D01*
X59870213Y-73070109D01*
X60042182Y-73195050D01*
X60050946Y-73199516D01*
X60101742Y-73247491D01*
X60118536Y-73315312D01*
X60095998Y-73381447D01*
X60050946Y-73420484D01*
X60042182Y-73424949D01*
X59870213Y-73549890D01*
X59719890Y-73700213D01*
X59594951Y-73872179D01*
X59498444Y-74061585D01*
X59498443Y-74061587D01*
X59498443Y-74061588D01*
X59465598Y-74162672D01*
X59432753Y-74263760D01*
X59399500Y-74473713D01*
X59399500Y-74686286D01*
X59432753Y-74896239D01*
X59432753Y-74896241D01*
X59432754Y-74896243D01*
X59495745Y-75090109D01*
X59498444Y-75098414D01*
X59594951Y-75287820D01*
X59719890Y-75459786D01*
X59870213Y-75610109D01*
X60042182Y-75735050D01*
X60050946Y-75739516D01*
X60101742Y-75787491D01*
X60118536Y-75855312D01*
X60095998Y-75921447D01*
X60050946Y-75960484D01*
X60042182Y-75964949D01*
X59870213Y-76089890D01*
X59719890Y-76240213D01*
X59594951Y-76412179D01*
X59498444Y-76601585D01*
X59498443Y-76601587D01*
X59498443Y-76601588D01*
X59476729Y-76668418D01*
X59432753Y-76803760D01*
X59399500Y-77013713D01*
X59399500Y-77226286D01*
X59422857Y-77373760D01*
X59432754Y-77436243D01*
X59495745Y-77630109D01*
X59498444Y-77638414D01*
X59594951Y-77827820D01*
X59719890Y-77999786D01*
X59870213Y-78150109D01*
X60042182Y-78275050D01*
X60050946Y-78279516D01*
X60101742Y-78327491D01*
X60118536Y-78395312D01*
X60095998Y-78461447D01*
X60050946Y-78500484D01*
X60042182Y-78504949D01*
X59870213Y-78629890D01*
X59719890Y-78780213D01*
X59594951Y-78952179D01*
X59498444Y-79141585D01*
X59432753Y-79343760D01*
X59399500Y-79553713D01*
X59399500Y-79766286D01*
X59432753Y-79976239D01*
X59432753Y-79976241D01*
X59432754Y-79976243D01*
X59495745Y-80170109D01*
X59498444Y-80178414D01*
X59594951Y-80367820D01*
X59719890Y-80539786D01*
X59870213Y-80690109D01*
X60042182Y-80815050D01*
X60050946Y-80819516D01*
X60101742Y-80867491D01*
X60118536Y-80935312D01*
X60095998Y-81001447D01*
X60050946Y-81040484D01*
X60042182Y-81044949D01*
X59870213Y-81169890D01*
X59719890Y-81320213D01*
X59594951Y-81492179D01*
X59498444Y-81681585D01*
X59498443Y-81681587D01*
X59498443Y-81681588D01*
X59465598Y-81782672D01*
X59432753Y-81883760D01*
X59399500Y-82093713D01*
X59399500Y-82306286D01*
X59432753Y-82516239D01*
X59432753Y-82516241D01*
X59432754Y-82516243D01*
X59495745Y-82710109D01*
X59498444Y-82718414D01*
X59594951Y-82907820D01*
X59719890Y-83079786D01*
X59870213Y-83230109D01*
X60042182Y-83355050D01*
X60050946Y-83359516D01*
X60101742Y-83407491D01*
X60118536Y-83475312D01*
X60095998Y-83541447D01*
X60050946Y-83580484D01*
X60042182Y-83584949D01*
X59870213Y-83709890D01*
X59719890Y-83860213D01*
X59594951Y-84032179D01*
X59498444Y-84221585D01*
X59498443Y-84221587D01*
X59498443Y-84221588D01*
X59465598Y-84322672D01*
X59432753Y-84423760D01*
X59399500Y-84633713D01*
X59399500Y-84846286D01*
X59422857Y-84993760D01*
X59432754Y-85056243D01*
X59495745Y-85250109D01*
X59498444Y-85258414D01*
X59594951Y-85447820D01*
X59719890Y-85619786D01*
X59870213Y-85770109D01*
X60042182Y-85895050D01*
X60050946Y-85899516D01*
X60101742Y-85947491D01*
X60118536Y-86015312D01*
X60095998Y-86081447D01*
X60050946Y-86120484D01*
X60042182Y-86124949D01*
X59870213Y-86249890D01*
X59719890Y-86400213D01*
X59594951Y-86572179D01*
X59498444Y-86761585D01*
X59498443Y-86761587D01*
X59498443Y-86761588D01*
X59465598Y-86862672D01*
X59432753Y-86963760D01*
X59399500Y-87173713D01*
X59399500Y-87386286D01*
X59422857Y-87533760D01*
X59432754Y-87596243D01*
X59495745Y-87790109D01*
X59498444Y-87798414D01*
X59594951Y-87987820D01*
X59719890Y-88159786D01*
X59870213Y-88310109D01*
X60042182Y-88435050D01*
X60050946Y-88439516D01*
X60101742Y-88487491D01*
X60118536Y-88555312D01*
X60095998Y-88621447D01*
X60050946Y-88660484D01*
X60042182Y-88664949D01*
X59870213Y-88789890D01*
X59719890Y-88940213D01*
X59594951Y-89112179D01*
X59498444Y-89301585D01*
X59432753Y-89503760D01*
X59414938Y-89616239D01*
X59399500Y-89713713D01*
X59399500Y-89926287D01*
X59432754Y-90136243D01*
X59495745Y-90330109D01*
X59498444Y-90338414D01*
X59594951Y-90527820D01*
X59719890Y-90699786D01*
X59870213Y-90850109D01*
X60042179Y-90975048D01*
X60042181Y-90975049D01*
X60042184Y-90975051D01*
X60231588Y-91071557D01*
X60433757Y-91137246D01*
X60643713Y-91170500D01*
X60643714Y-91170500D01*
X60856286Y-91170500D01*
X60856287Y-91170500D01*
X61066243Y-91137246D01*
X61268412Y-91071557D01*
X61457816Y-90975051D01*
X61479789Y-90959086D01*
X61629786Y-90850109D01*
X61629788Y-90850106D01*
X61629792Y-90850104D01*
X61780104Y-90699792D01*
X61780106Y-90699788D01*
X61780109Y-90699786D01*
X61905048Y-90527820D01*
X61905047Y-90527820D01*
X61905051Y-90527816D01*
X62001557Y-90338412D01*
X62067246Y-90136243D01*
X62100500Y-89926287D01*
X62100500Y-89713713D01*
X62067246Y-89503757D01*
X62001557Y-89301588D01*
X61905051Y-89112184D01*
X61905049Y-89112181D01*
X61905048Y-89112179D01*
X61780109Y-88940213D01*
X61629786Y-88789890D01*
X61457820Y-88664951D01*
X61457115Y-88664591D01*
X61449054Y-88660485D01*
X61398259Y-88612512D01*
X61381463Y-88544692D01*
X61403999Y-88478556D01*
X61449054Y-88439515D01*
X61457816Y-88435051D01*
X61549535Y-88368414D01*
X61629786Y-88310109D01*
X61629788Y-88310106D01*
X61629792Y-88310104D01*
X61780104Y-88159792D01*
X61780106Y-88159788D01*
X61780109Y-88159786D01*
X61905048Y-87987820D01*
X61905047Y-87987820D01*
X61905051Y-87987816D01*
X62001557Y-87798412D01*
X62067246Y-87596243D01*
X62100500Y-87386287D01*
X62100500Y-87173713D01*
X62067246Y-86963757D01*
X62001557Y-86761588D01*
X61905051Y-86572184D01*
X61905049Y-86572181D01*
X61905048Y-86572179D01*
X61780109Y-86400213D01*
X61629786Y-86249890D01*
X61457820Y-86124951D01*
X61457115Y-86124591D01*
X61449054Y-86120485D01*
X61398259Y-86072512D01*
X61381463Y-86004692D01*
X61403999Y-85938556D01*
X61449054Y-85899515D01*
X61457816Y-85895051D01*
X61549535Y-85828414D01*
X61629786Y-85770109D01*
X61629788Y-85770106D01*
X61629792Y-85770104D01*
X61780104Y-85619792D01*
X61780106Y-85619788D01*
X61780109Y-85619786D01*
X61905048Y-85447820D01*
X61905047Y-85447820D01*
X61905051Y-85447816D01*
X62001557Y-85258412D01*
X62067246Y-85056243D01*
X62100500Y-84846287D01*
X62100500Y-84633713D01*
X62067246Y-84423757D01*
X62001557Y-84221588D01*
X61905051Y-84032184D01*
X61905049Y-84032181D01*
X61905048Y-84032179D01*
X61780109Y-83860213D01*
X61629786Y-83709890D01*
X61457820Y-83584951D01*
X61457115Y-83584591D01*
X61449054Y-83580485D01*
X61398259Y-83532512D01*
X61381463Y-83464692D01*
X61403999Y-83398556D01*
X61449054Y-83359515D01*
X61457816Y-83355051D01*
X61549535Y-83288414D01*
X61629786Y-83230109D01*
X61629788Y-83230106D01*
X61629792Y-83230104D01*
X61780104Y-83079792D01*
X61780106Y-83079788D01*
X61780109Y-83079786D01*
X61905048Y-82907820D01*
X61905047Y-82907820D01*
X61905051Y-82907816D01*
X62001557Y-82718412D01*
X62067246Y-82516243D01*
X62100500Y-82306287D01*
X62100500Y-82093713D01*
X62067246Y-81883757D01*
X62001557Y-81681588D01*
X61905051Y-81492184D01*
X61905049Y-81492181D01*
X61905048Y-81492179D01*
X61780109Y-81320213D01*
X61629786Y-81169890D01*
X61457820Y-81044951D01*
X61457115Y-81044591D01*
X61449054Y-81040485D01*
X61398259Y-80992512D01*
X61381463Y-80924692D01*
X61403999Y-80858556D01*
X61449054Y-80819515D01*
X61457816Y-80815051D01*
X61549806Y-80748217D01*
X61629786Y-80690109D01*
X61629788Y-80690106D01*
X61629792Y-80690104D01*
X61780104Y-80539792D01*
X61780106Y-80539788D01*
X61780109Y-80539786D01*
X61905048Y-80367820D01*
X61905047Y-80367820D01*
X61905051Y-80367816D01*
X62001557Y-80178412D01*
X62067246Y-79976243D01*
X62100500Y-79766287D01*
X62100500Y-79553713D01*
X62067246Y-79343757D01*
X62001557Y-79141588D01*
X61905051Y-78952184D01*
X61905049Y-78952181D01*
X61905048Y-78952179D01*
X61780109Y-78780213D01*
X61629786Y-78629890D01*
X61457820Y-78504951D01*
X61457115Y-78504591D01*
X61449054Y-78500485D01*
X61398259Y-78452512D01*
X61381463Y-78384692D01*
X61403999Y-78318556D01*
X61449054Y-78279515D01*
X61457816Y-78275051D01*
X61549535Y-78208414D01*
X61629786Y-78150109D01*
X61629788Y-78150106D01*
X61629792Y-78150104D01*
X61780104Y-77999792D01*
X61780106Y-77999788D01*
X61780109Y-77999786D01*
X61905048Y-77827820D01*
X61905047Y-77827820D01*
X61905051Y-77827816D01*
X62001557Y-77638412D01*
X62067246Y-77436243D01*
X62100500Y-77226287D01*
X62100500Y-77013713D01*
X62067246Y-76803757D01*
X62001557Y-76601588D01*
X61905051Y-76412184D01*
X61905049Y-76412181D01*
X61905048Y-76412179D01*
X61780109Y-76240213D01*
X61629786Y-76089890D01*
X61457820Y-75964951D01*
X61457115Y-75964591D01*
X61449054Y-75960485D01*
X61398259Y-75912512D01*
X61381463Y-75844692D01*
X61403999Y-75778556D01*
X61449054Y-75739515D01*
X61457816Y-75735051D01*
X61549535Y-75668414D01*
X61629786Y-75610109D01*
X61629788Y-75610106D01*
X61629792Y-75610104D01*
X61780104Y-75459792D01*
X61780106Y-75459788D01*
X61780109Y-75459786D01*
X61905048Y-75287820D01*
X61905047Y-75287820D01*
X61905051Y-75287816D01*
X62001557Y-75098412D01*
X62067246Y-74896243D01*
X62100500Y-74686287D01*
X62100500Y-74473713D01*
X62067246Y-74263757D01*
X62001557Y-74061588D01*
X61905051Y-73872184D01*
X61905049Y-73872181D01*
X61905048Y-73872179D01*
X61780109Y-73700213D01*
X61629786Y-73549890D01*
X61457820Y-73424951D01*
X61457115Y-73424591D01*
X61449054Y-73420485D01*
X61398259Y-73372512D01*
X61381463Y-73304692D01*
X61403999Y-73238556D01*
X61449054Y-73199515D01*
X61457816Y-73195051D01*
X61479789Y-73179086D01*
X61629786Y-73070109D01*
X61629788Y-73070106D01*
X61629792Y-73070104D01*
X61780104Y-72919792D01*
X61780106Y-72919788D01*
X61780109Y-72919786D01*
X61905048Y-72747820D01*
X61905047Y-72747820D01*
X61905051Y-72747816D01*
X62001557Y-72558412D01*
X62067246Y-72356243D01*
X62100500Y-72146287D01*
X62100500Y-71933713D01*
X62067246Y-71723757D01*
X62001557Y-71521588D01*
X61905051Y-71332184D01*
X61905049Y-71332181D01*
X61905048Y-71332179D01*
X61780109Y-71160213D01*
X61629786Y-71009890D01*
X61457820Y-70884951D01*
X61457115Y-70884591D01*
X61449054Y-70880485D01*
X61398259Y-70832512D01*
X61381463Y-70764692D01*
X61403999Y-70698556D01*
X61449054Y-70659515D01*
X61457816Y-70655051D01*
X61479789Y-70639086D01*
X61629786Y-70530109D01*
X61629788Y-70530106D01*
X61629792Y-70530104D01*
X61780104Y-70379792D01*
X61780106Y-70379788D01*
X61780109Y-70379786D01*
X61905048Y-70207820D01*
X61905047Y-70207820D01*
X61905051Y-70207816D01*
X62001557Y-70018412D01*
X62067246Y-69816243D01*
X62100500Y-69606287D01*
X62100500Y-69393713D01*
X62067246Y-69183757D01*
X62001557Y-68981588D01*
X61905051Y-68792184D01*
X61905049Y-68792181D01*
X61905048Y-68792179D01*
X61780109Y-68620213D01*
X61629786Y-68469890D01*
X61457820Y-68344951D01*
X61457115Y-68344591D01*
X61449054Y-68340485D01*
X61398259Y-68292512D01*
X61381463Y-68224692D01*
X61403999Y-68158556D01*
X61449054Y-68119515D01*
X61457816Y-68115051D01*
X61479789Y-68099086D01*
X61629786Y-67990109D01*
X61629788Y-67990106D01*
X61629792Y-67990104D01*
X61780104Y-67839792D01*
X61780106Y-67839788D01*
X61780109Y-67839786D01*
X61905048Y-67667820D01*
X61905047Y-67667820D01*
X61905051Y-67667816D01*
X62001557Y-67478412D01*
X62067246Y-67276243D01*
X62100500Y-67066287D01*
X62100500Y-66853713D01*
X62067246Y-66643757D01*
X62001557Y-66441588D01*
X61905051Y-66252184D01*
X61905049Y-66252181D01*
X61905048Y-66252179D01*
X61780109Y-66080213D01*
X61629786Y-65929890D01*
X61457820Y-65804951D01*
X61457115Y-65804591D01*
X61449054Y-65800485D01*
X61398259Y-65752512D01*
X61381463Y-65684692D01*
X61403999Y-65618556D01*
X61449054Y-65579515D01*
X61457816Y-65575051D01*
X61479789Y-65559086D01*
X61629786Y-65450109D01*
X61629788Y-65450106D01*
X61629792Y-65450104D01*
X61780104Y-65299792D01*
X61780106Y-65299788D01*
X61780109Y-65299786D01*
X61905048Y-65127820D01*
X61905047Y-65127820D01*
X61905051Y-65127816D01*
X62001557Y-64938412D01*
X62067246Y-64736243D01*
X62100500Y-64526287D01*
X62100500Y-64313713D01*
X62067246Y-64103757D01*
X62001557Y-63901588D01*
X61905051Y-63712184D01*
X61905049Y-63712181D01*
X61905048Y-63712179D01*
X61780109Y-63540213D01*
X61629786Y-63389890D01*
X61457820Y-63264951D01*
X61457115Y-63264591D01*
X61449054Y-63260485D01*
X61398259Y-63212512D01*
X61381463Y-63144692D01*
X61403999Y-63078556D01*
X61449054Y-63039515D01*
X61457816Y-63035051D01*
X61564115Y-62957821D01*
X61629786Y-62910109D01*
X61629788Y-62910106D01*
X61629792Y-62910104D01*
X61780104Y-62759792D01*
X61780106Y-62759788D01*
X61780109Y-62759786D01*
X61905048Y-62587820D01*
X61905047Y-62587820D01*
X61905051Y-62587816D01*
X62001557Y-62398412D01*
X62067246Y-62196243D01*
X62100500Y-61986287D01*
X62100500Y-61773713D01*
X62067246Y-61563757D01*
X62001557Y-61361588D01*
X61905051Y-61172184D01*
X61905049Y-61172181D01*
X61905048Y-61172179D01*
X61780109Y-61000213D01*
X61629786Y-60849890D01*
X61457820Y-60724951D01*
X61457115Y-60724591D01*
X61449054Y-60720485D01*
X61398259Y-60672512D01*
X61381463Y-60604692D01*
X61403999Y-60538556D01*
X61449054Y-60499515D01*
X61457816Y-60495051D01*
X61479789Y-60479086D01*
X61629786Y-60370109D01*
X61629788Y-60370106D01*
X61629792Y-60370104D01*
X61780104Y-60219792D01*
X61780106Y-60219788D01*
X61780109Y-60219786D01*
X61905048Y-60047820D01*
X61905047Y-60047820D01*
X61905051Y-60047816D01*
X62001557Y-59858412D01*
X62067246Y-59656243D01*
X62100500Y-59446287D01*
X62100500Y-59233713D01*
X62067246Y-59023757D01*
X62001557Y-58821588D01*
X61905051Y-58632184D01*
X61905049Y-58632181D01*
X61905048Y-58632179D01*
X61780109Y-58460213D01*
X61629786Y-58309890D01*
X61457820Y-58184951D01*
X61457115Y-58184591D01*
X61449054Y-58180485D01*
X61398259Y-58132512D01*
X61381463Y-58064692D01*
X61403999Y-57998556D01*
X61449054Y-57959515D01*
X61457816Y-57955051D01*
X61479789Y-57939086D01*
X61629786Y-57830109D01*
X61629788Y-57830106D01*
X61629792Y-57830104D01*
X61780104Y-57679792D01*
X61780106Y-57679788D01*
X61780109Y-57679786D01*
X61905048Y-57507820D01*
X61905047Y-57507820D01*
X61905051Y-57507816D01*
X62001557Y-57318412D01*
X62067246Y-57116243D01*
X62100500Y-56906287D01*
X62100500Y-56693713D01*
X62067246Y-56483757D01*
X62001557Y-56281588D01*
X61905051Y-56092184D01*
X61905049Y-56092181D01*
X61905048Y-56092179D01*
X61780109Y-55920213D01*
X61666569Y-55806673D01*
X61633084Y-55745350D01*
X61638068Y-55675658D01*
X61679940Y-55619725D01*
X61710915Y-55602810D01*
X61842331Y-55553796D01*
X61957546Y-55467546D01*
X62043796Y-55352331D01*
X62094091Y-55217483D01*
X62100500Y-55157873D01*
X62100499Y-53362135D01*
X66649500Y-53362135D01*
X66649500Y-55157870D01*
X66649501Y-55157876D01*
X66655908Y-55217483D01*
X66706202Y-55352328D01*
X66706206Y-55352335D01*
X66792452Y-55467544D01*
X66792455Y-55467547D01*
X66907664Y-55553793D01*
X66907671Y-55553797D01*
X67039082Y-55602810D01*
X67095016Y-55644681D01*
X67119433Y-55710145D01*
X67104582Y-55778418D01*
X67083431Y-55806673D01*
X66969889Y-55920215D01*
X66844951Y-56092179D01*
X66748444Y-56281585D01*
X66682753Y-56483760D01*
X66649500Y-56693713D01*
X66649500Y-56906287D01*
X66682754Y-57116243D01*
X66745745Y-57310109D01*
X66748444Y-57318414D01*
X66844951Y-57507820D01*
X66969890Y-57679786D01*
X67120213Y-57830109D01*
X67292182Y-57955050D01*
X67300946Y-57959516D01*
X67351742Y-58007491D01*
X67368536Y-58075312D01*
X67345998Y-58141447D01*
X67300946Y-58180484D01*
X67292182Y-58184949D01*
X67120213Y-58309890D01*
X66969890Y-58460213D01*
X66844951Y-58632179D01*
X66748444Y-58821585D01*
X66682753Y-59023760D01*
X66667494Y-59120104D01*
X66649500Y-59233713D01*
X66649500Y-59446287D01*
X66682754Y-59656243D01*
X66745745Y-59850109D01*
X66748444Y-59858414D01*
X66844951Y-60047820D01*
X66969890Y-60219786D01*
X67120213Y-60370109D01*
X67292182Y-60495050D01*
X67300946Y-60499516D01*
X67351742Y-60547491D01*
X67368536Y-60615312D01*
X67345998Y-60681447D01*
X67300946Y-60720484D01*
X67292182Y-60724949D01*
X67120213Y-60849890D01*
X66969890Y-61000213D01*
X66844951Y-61172179D01*
X66748444Y-61361585D01*
X66682753Y-61563760D01*
X66664938Y-61676239D01*
X66649500Y-61773713D01*
X66649500Y-61986287D01*
X66682754Y-62196243D01*
X66745745Y-62390109D01*
X66748444Y-62398414D01*
X66844951Y-62587820D01*
X66969890Y-62759786D01*
X67120213Y-62910109D01*
X67292182Y-63035050D01*
X67300946Y-63039516D01*
X67351742Y-63087491D01*
X67368536Y-63155312D01*
X67345998Y-63221447D01*
X67300946Y-63260484D01*
X67292182Y-63264949D01*
X67120213Y-63389890D01*
X66969890Y-63540213D01*
X66844951Y-63712179D01*
X66748444Y-63901585D01*
X66682753Y-64103760D01*
X66667494Y-64200104D01*
X66649500Y-64313713D01*
X66649500Y-64526287D01*
X66682754Y-64736243D01*
X66745745Y-64930109D01*
X66748444Y-64938414D01*
X66844951Y-65127820D01*
X66969890Y-65299786D01*
X67120213Y-65450109D01*
X67292182Y-65575050D01*
X67300946Y-65579516D01*
X67351742Y-65627491D01*
X67368536Y-65695312D01*
X67345998Y-65761447D01*
X67300946Y-65800484D01*
X67292182Y-65804949D01*
X67120213Y-65929890D01*
X66969890Y-66080213D01*
X66844951Y-66252179D01*
X66748444Y-66441585D01*
X66682753Y-66643760D01*
X66667494Y-66740104D01*
X66649500Y-66853713D01*
X66649500Y-67066287D01*
X66682754Y-67276243D01*
X66745745Y-67470109D01*
X66748444Y-67478414D01*
X66844951Y-67667820D01*
X66969890Y-67839786D01*
X67120213Y-67990109D01*
X67292182Y-68115050D01*
X67300946Y-68119516D01*
X67351742Y-68167491D01*
X67368536Y-68235312D01*
X67345998Y-68301447D01*
X67300946Y-68340484D01*
X67292182Y-68344949D01*
X67120213Y-68469890D01*
X66969890Y-68620213D01*
X66844951Y-68792179D01*
X66748444Y-68981585D01*
X66682753Y-69183760D01*
X66667494Y-69280104D01*
X66649500Y-69393713D01*
X66649500Y-69606287D01*
X66682754Y-69816243D01*
X66745745Y-70010109D01*
X66748444Y-70018414D01*
X66844951Y-70207820D01*
X66969890Y-70379786D01*
X67120213Y-70530109D01*
X67292182Y-70655050D01*
X67300946Y-70659516D01*
X67351742Y-70707491D01*
X67368536Y-70775312D01*
X67345998Y-70841447D01*
X67300946Y-70880484D01*
X67292182Y-70884949D01*
X67120213Y-71009890D01*
X66969890Y-71160213D01*
X66844951Y-71332179D01*
X66748444Y-71521585D01*
X66682753Y-71723760D01*
X66664938Y-71836239D01*
X66649500Y-71933713D01*
X66649500Y-72146287D01*
X66682754Y-72356243D01*
X66745745Y-72550109D01*
X66748444Y-72558414D01*
X66844951Y-72747820D01*
X66969890Y-72919786D01*
X67120213Y-73070109D01*
X67292182Y-73195050D01*
X67300946Y-73199516D01*
X67351742Y-73247491D01*
X67368536Y-73315312D01*
X67345998Y-73381447D01*
X67300946Y-73420484D01*
X67292182Y-73424949D01*
X67120213Y-73549890D01*
X66969890Y-73700213D01*
X66844951Y-73872179D01*
X66748444Y-74061585D01*
X66748443Y-74061587D01*
X66748443Y-74061588D01*
X66715598Y-74162672D01*
X66682753Y-74263760D01*
X66649500Y-74473713D01*
X66649500Y-74686286D01*
X66682753Y-74896239D01*
X66682753Y-74896241D01*
X66682754Y-74896243D01*
X66745745Y-75090109D01*
X66748444Y-75098414D01*
X66844951Y-75287820D01*
X66969890Y-75459786D01*
X67120213Y-75610109D01*
X67292182Y-75735050D01*
X67300946Y-75739516D01*
X67351742Y-75787491D01*
X67368536Y-75855312D01*
X67345998Y-75921447D01*
X67300946Y-75960484D01*
X67292182Y-75964949D01*
X67120213Y-76089890D01*
X66969890Y-76240213D01*
X66844951Y-76412179D01*
X66748444Y-76601585D01*
X66748443Y-76601587D01*
X66748443Y-76601588D01*
X66726729Y-76668418D01*
X66682753Y-76803760D01*
X66649500Y-77013713D01*
X66649500Y-77226286D01*
X66672857Y-77373760D01*
X66682754Y-77436243D01*
X66745745Y-77630109D01*
X66748444Y-77638414D01*
X66844951Y-77827820D01*
X66969890Y-77999786D01*
X67120213Y-78150109D01*
X67292182Y-78275050D01*
X67300946Y-78279516D01*
X67351742Y-78327491D01*
X67368536Y-78395312D01*
X67345998Y-78461447D01*
X67300946Y-78500484D01*
X67292182Y-78504949D01*
X67120213Y-78629890D01*
X66969890Y-78780213D01*
X66844951Y-78952179D01*
X66748444Y-79141585D01*
X66682753Y-79343760D01*
X66649500Y-79553713D01*
X66649500Y-79766286D01*
X66682753Y-79976239D01*
X66682753Y-79976241D01*
X66682754Y-79976243D01*
X66745745Y-80170109D01*
X66748444Y-80178414D01*
X66844951Y-80367820D01*
X66969890Y-80539786D01*
X67120213Y-80690109D01*
X67292182Y-80815050D01*
X67300946Y-80819516D01*
X67351742Y-80867491D01*
X67368536Y-80935312D01*
X67345998Y-81001447D01*
X67300946Y-81040484D01*
X67292182Y-81044949D01*
X67120213Y-81169890D01*
X66969890Y-81320213D01*
X66844951Y-81492179D01*
X66748444Y-81681585D01*
X66748443Y-81681587D01*
X66748443Y-81681588D01*
X66715598Y-81782672D01*
X66682753Y-81883760D01*
X66649500Y-82093713D01*
X66649500Y-82306286D01*
X66682753Y-82516239D01*
X66682753Y-82516241D01*
X66682754Y-82516243D01*
X66745745Y-82710109D01*
X66748444Y-82718414D01*
X66844951Y-82907820D01*
X66969890Y-83079786D01*
X67120213Y-83230109D01*
X67292182Y-83355050D01*
X67300946Y-83359516D01*
X67351742Y-83407491D01*
X67368536Y-83475312D01*
X67345998Y-83541447D01*
X67300946Y-83580484D01*
X67292182Y-83584949D01*
X67120213Y-83709890D01*
X66969890Y-83860213D01*
X66844951Y-84032179D01*
X66748444Y-84221585D01*
X66748443Y-84221587D01*
X66748443Y-84221588D01*
X66715598Y-84322672D01*
X66682753Y-84423760D01*
X66649500Y-84633713D01*
X66649500Y-84846286D01*
X66672857Y-84993760D01*
X66682754Y-85056243D01*
X66745745Y-85250109D01*
X66748444Y-85258414D01*
X66844951Y-85447820D01*
X66969890Y-85619786D01*
X67120213Y-85770109D01*
X67292182Y-85895050D01*
X67300946Y-85899516D01*
X67351742Y-85947491D01*
X67368536Y-86015312D01*
X67345998Y-86081447D01*
X67300946Y-86120484D01*
X67292182Y-86124949D01*
X67120213Y-86249890D01*
X66969890Y-86400213D01*
X66844951Y-86572179D01*
X66748444Y-86761585D01*
X66748443Y-86761587D01*
X66748443Y-86761588D01*
X66715598Y-86862672D01*
X66682753Y-86963760D01*
X66649500Y-87173713D01*
X66649500Y-87386286D01*
X66672857Y-87533760D01*
X66682754Y-87596243D01*
X66745745Y-87790109D01*
X66748444Y-87798414D01*
X66844951Y-87987820D01*
X66969890Y-88159786D01*
X67120213Y-88310109D01*
X67292182Y-88435050D01*
X67300946Y-88439516D01*
X67351742Y-88487491D01*
X67368536Y-88555312D01*
X67345998Y-88621447D01*
X67300946Y-88660484D01*
X67292182Y-88664949D01*
X67120213Y-88789890D01*
X66969890Y-88940213D01*
X66844951Y-89112179D01*
X66748444Y-89301585D01*
X66682753Y-89503760D01*
X66664938Y-89616239D01*
X66649500Y-89713713D01*
X66649500Y-89926287D01*
X66682754Y-90136243D01*
X66745745Y-90330109D01*
X66748444Y-90338414D01*
X66844951Y-90527820D01*
X66969890Y-90699786D01*
X67120213Y-90850109D01*
X67292179Y-90975048D01*
X67292181Y-90975049D01*
X67292184Y-90975051D01*
X67481588Y-91071557D01*
X67683757Y-91137246D01*
X67893713Y-91170500D01*
X67893714Y-91170500D01*
X68106286Y-91170500D01*
X68106287Y-91170500D01*
X68316243Y-91137246D01*
X68518412Y-91071557D01*
X68707816Y-90975051D01*
X68729789Y-90959086D01*
X68879786Y-90850109D01*
X68879788Y-90850106D01*
X68879792Y-90850104D01*
X69030104Y-90699792D01*
X69030106Y-90699788D01*
X69030109Y-90699786D01*
X69155048Y-90527820D01*
X69155047Y-90527820D01*
X69155051Y-90527816D01*
X69251557Y-90338412D01*
X69317246Y-90136243D01*
X69350500Y-89926287D01*
X69350500Y-89713713D01*
X69317246Y-89503757D01*
X69251557Y-89301588D01*
X69155051Y-89112184D01*
X69155049Y-89112181D01*
X69155048Y-89112179D01*
X69030109Y-88940213D01*
X68879786Y-88789890D01*
X68707820Y-88664951D01*
X68707115Y-88664591D01*
X68699054Y-88660485D01*
X68648259Y-88612512D01*
X68631463Y-88544692D01*
X68653999Y-88478556D01*
X68699054Y-88439515D01*
X68707816Y-88435051D01*
X68799535Y-88368414D01*
X68879786Y-88310109D01*
X68879788Y-88310106D01*
X68879792Y-88310104D01*
X69030104Y-88159792D01*
X69030106Y-88159788D01*
X69030109Y-88159786D01*
X69155048Y-87987820D01*
X69155047Y-87987820D01*
X69155051Y-87987816D01*
X69251557Y-87798412D01*
X69317246Y-87596243D01*
X69350500Y-87386287D01*
X69350500Y-87173713D01*
X69317246Y-86963757D01*
X69251557Y-86761588D01*
X69155051Y-86572184D01*
X69155049Y-86572181D01*
X69155048Y-86572179D01*
X69030109Y-86400213D01*
X68879786Y-86249890D01*
X68707820Y-86124951D01*
X68707115Y-86124591D01*
X68699054Y-86120485D01*
X68648259Y-86072512D01*
X68631463Y-86004692D01*
X68653999Y-85938556D01*
X68699054Y-85899515D01*
X68707816Y-85895051D01*
X68799535Y-85828414D01*
X68879786Y-85770109D01*
X68879788Y-85770106D01*
X68879792Y-85770104D01*
X69030104Y-85619792D01*
X69030106Y-85619788D01*
X69030109Y-85619786D01*
X69155048Y-85447820D01*
X69155047Y-85447820D01*
X69155051Y-85447816D01*
X69251557Y-85258412D01*
X69317246Y-85056243D01*
X69350500Y-84846287D01*
X69350500Y-84633713D01*
X69317246Y-84423757D01*
X69251557Y-84221588D01*
X69155051Y-84032184D01*
X69155049Y-84032181D01*
X69155048Y-84032179D01*
X69030109Y-83860213D01*
X68879786Y-83709890D01*
X68707820Y-83584951D01*
X68707115Y-83584591D01*
X68699054Y-83580485D01*
X68648259Y-83532512D01*
X68631463Y-83464692D01*
X68653999Y-83398556D01*
X68699054Y-83359515D01*
X68707816Y-83355051D01*
X68799535Y-83288414D01*
X68879786Y-83230109D01*
X68879788Y-83230106D01*
X68879792Y-83230104D01*
X69030104Y-83079792D01*
X69030106Y-83079788D01*
X69030109Y-83079786D01*
X69155048Y-82907820D01*
X69155047Y-82907820D01*
X69155051Y-82907816D01*
X69251557Y-82718412D01*
X69317246Y-82516243D01*
X69350500Y-82306287D01*
X69350500Y-82093713D01*
X69317246Y-81883757D01*
X69251557Y-81681588D01*
X69155051Y-81492184D01*
X69155049Y-81492181D01*
X69155048Y-81492179D01*
X69030109Y-81320213D01*
X68879786Y-81169890D01*
X68707820Y-81044951D01*
X68707115Y-81044591D01*
X68699054Y-81040485D01*
X68648259Y-80992512D01*
X68631463Y-80924692D01*
X68653999Y-80858556D01*
X68699054Y-80819515D01*
X68707816Y-80815051D01*
X68799806Y-80748217D01*
X68879786Y-80690109D01*
X68879788Y-80690106D01*
X68879792Y-80690104D01*
X69030104Y-80539792D01*
X69030106Y-80539788D01*
X69030109Y-80539786D01*
X69155048Y-80367820D01*
X69155047Y-80367820D01*
X69155051Y-80367816D01*
X69251557Y-80178412D01*
X69317246Y-79976243D01*
X69350500Y-79766287D01*
X69350500Y-79553713D01*
X69317246Y-79343757D01*
X69251557Y-79141588D01*
X69155051Y-78952184D01*
X69155049Y-78952181D01*
X69155048Y-78952179D01*
X69030109Y-78780213D01*
X68879786Y-78629890D01*
X68707820Y-78504951D01*
X68707115Y-78504591D01*
X68699054Y-78500485D01*
X68648259Y-78452512D01*
X68631463Y-78384692D01*
X68653999Y-78318556D01*
X68699054Y-78279515D01*
X68707816Y-78275051D01*
X68799535Y-78208414D01*
X68879786Y-78150109D01*
X68879788Y-78150106D01*
X68879792Y-78150104D01*
X69030104Y-77999792D01*
X69030106Y-77999788D01*
X69030109Y-77999786D01*
X69155048Y-77827820D01*
X69155047Y-77827820D01*
X69155051Y-77827816D01*
X69251557Y-77638412D01*
X69317246Y-77436243D01*
X69350500Y-77226287D01*
X69350500Y-77013713D01*
X69317246Y-76803757D01*
X69251557Y-76601588D01*
X69155051Y-76412184D01*
X69155049Y-76412181D01*
X69155048Y-76412179D01*
X69030109Y-76240213D01*
X68879786Y-76089890D01*
X68707820Y-75964951D01*
X68707115Y-75964591D01*
X68699054Y-75960485D01*
X68648259Y-75912512D01*
X68631463Y-75844692D01*
X68653999Y-75778556D01*
X68699054Y-75739515D01*
X68707816Y-75735051D01*
X68799535Y-75668414D01*
X68879786Y-75610109D01*
X68879788Y-75610106D01*
X68879792Y-75610104D01*
X69030104Y-75459792D01*
X69030106Y-75459788D01*
X69030109Y-75459786D01*
X69155048Y-75287820D01*
X69155047Y-75287820D01*
X69155051Y-75287816D01*
X69251557Y-75098412D01*
X69269330Y-75043713D01*
X77959500Y-75043713D01*
X77959500Y-75256287D01*
X77961275Y-75267491D01*
X77989381Y-75444951D01*
X77992754Y-75466243D01*
X78039497Y-75610104D01*
X78058444Y-75668414D01*
X78154951Y-75857820D01*
X78279890Y-76029786D01*
X78430213Y-76180109D01*
X78602182Y-76305050D01*
X78610946Y-76309516D01*
X78661742Y-76357491D01*
X78678536Y-76425312D01*
X78655998Y-76491447D01*
X78610946Y-76530484D01*
X78602182Y-76534949D01*
X78430213Y-76659890D01*
X78279890Y-76810213D01*
X78154951Y-76982179D01*
X78058444Y-77171585D01*
X77992753Y-77373760D01*
X77959500Y-77583713D01*
X77959500Y-77796287D01*
X77961275Y-77807491D01*
X77989381Y-77984951D01*
X77992754Y-78006243D01*
X78039497Y-78150104D01*
X78058444Y-78208414D01*
X78154951Y-78397820D01*
X78279890Y-78569786D01*
X78430213Y-78720109D01*
X78602179Y-78845048D01*
X78602181Y-78845049D01*
X78602184Y-78845051D01*
X78611493Y-78849794D01*
X78662290Y-78897766D01*
X78679087Y-78965587D01*
X78656552Y-79031722D01*
X78611505Y-79070760D01*
X78602446Y-79075376D01*
X78602440Y-79075380D01*
X78548282Y-79114727D01*
X78548282Y-79114728D01*
X79180591Y-79747037D01*
X79117007Y-79764075D01*
X79002993Y-79829901D01*
X78909901Y-79922993D01*
X78844075Y-80037007D01*
X78827037Y-80100591D01*
X78194728Y-79468282D01*
X78194727Y-79468282D01*
X78155380Y-79522439D01*
X78058904Y-79711782D01*
X77993242Y-79913869D01*
X77993242Y-79913872D01*
X77960000Y-80123753D01*
X77960000Y-80336246D01*
X77993242Y-80546127D01*
X77993242Y-80546130D01*
X78058904Y-80748217D01*
X78155375Y-80937550D01*
X78194728Y-80991716D01*
X78827037Y-80359408D01*
X78844075Y-80422993D01*
X78909901Y-80537007D01*
X79002993Y-80630099D01*
X79117007Y-80695925D01*
X79180590Y-80712962D01*
X78548282Y-81345269D01*
X78548282Y-81345270D01*
X78602452Y-81384626D01*
X78602451Y-81384626D01*
X78611495Y-81389234D01*
X78662292Y-81437208D01*
X78679087Y-81505029D01*
X78656550Y-81571164D01*
X78611499Y-81610202D01*
X78602182Y-81614949D01*
X78430213Y-81739890D01*
X78279890Y-81890213D01*
X78154951Y-82062179D01*
X78058444Y-82251585D01*
X77992753Y-82453760D01*
X77966341Y-82620523D01*
X77959500Y-82663713D01*
X77959500Y-82876287D01*
X77961275Y-82887491D01*
X77989381Y-83064951D01*
X77992754Y-83086243D01*
X78039497Y-83230104D01*
X78058444Y-83288414D01*
X78154951Y-83477820D01*
X78279890Y-83649786D01*
X78430213Y-83800109D01*
X78602182Y-83925050D01*
X78610946Y-83929516D01*
X78661742Y-83977491D01*
X78678536Y-84045312D01*
X78655998Y-84111447D01*
X78610946Y-84150484D01*
X78602182Y-84154949D01*
X78430213Y-84279890D01*
X78279890Y-84430213D01*
X78154951Y-84602179D01*
X78058444Y-84791585D01*
X77992753Y-84993760D01*
X77959500Y-85203713D01*
X77959500Y-85416287D01*
X77961275Y-85427491D01*
X77989381Y-85604951D01*
X77992754Y-85626243D01*
X78039497Y-85770104D01*
X78058444Y-85828414D01*
X78154951Y-86017820D01*
X78279890Y-86189786D01*
X78430213Y-86340109D01*
X78602182Y-86465050D01*
X78610946Y-86469516D01*
X78661742Y-86517491D01*
X78678536Y-86585312D01*
X78655998Y-86651447D01*
X78610946Y-86690484D01*
X78602182Y-86694949D01*
X78430213Y-86819890D01*
X78279890Y-86970213D01*
X78154951Y-87142179D01*
X78058444Y-87331585D01*
X77992753Y-87533760D01*
X77959500Y-87743713D01*
X77959500Y-87956287D01*
X77961275Y-87967491D01*
X77989381Y-88144951D01*
X77992754Y-88166243D01*
X78039497Y-88310104D01*
X78058444Y-88368414D01*
X78154951Y-88557820D01*
X78279890Y-88729786D01*
X78430213Y-88880109D01*
X78602179Y-89005048D01*
X78602181Y-89005049D01*
X78602184Y-89005051D01*
X78791588Y-89101557D01*
X78993757Y-89167246D01*
X79203713Y-89200500D01*
X79203714Y-89200500D01*
X79416286Y-89200500D01*
X79416287Y-89200500D01*
X79626243Y-89167246D01*
X79828412Y-89101557D01*
X80017816Y-89005051D01*
X80047125Y-88983757D01*
X80189786Y-88880109D01*
X80189788Y-88880106D01*
X80189792Y-88880104D01*
X80340104Y-88729792D01*
X80340106Y-88729788D01*
X80340109Y-88729786D01*
X80465048Y-88557820D01*
X80465047Y-88557820D01*
X80465051Y-88557816D01*
X80561557Y-88368412D01*
X80627246Y-88166243D01*
X80660500Y-87956287D01*
X80660500Y-87743713D01*
X80627246Y-87533757D01*
X80561557Y-87331588D01*
X80465051Y-87142184D01*
X80465049Y-87142181D01*
X80465048Y-87142179D01*
X80340109Y-86970213D01*
X80189786Y-86819890D01*
X80017820Y-86694951D01*
X80017115Y-86694591D01*
X80009054Y-86690485D01*
X79958259Y-86642512D01*
X79941463Y-86574692D01*
X79963999Y-86508556D01*
X80009054Y-86469515D01*
X80017816Y-86465051D01*
X80047125Y-86443757D01*
X80189786Y-86340109D01*
X80189788Y-86340106D01*
X80189792Y-86340104D01*
X80340104Y-86189792D01*
X80340106Y-86189788D01*
X80340109Y-86189786D01*
X80465048Y-86017820D01*
X80465047Y-86017820D01*
X80465051Y-86017816D01*
X80561557Y-85828412D01*
X80627246Y-85626243D01*
X80660500Y-85416287D01*
X80660500Y-85203713D01*
X80627246Y-84993757D01*
X80561557Y-84791588D01*
X80465051Y-84602184D01*
X80465049Y-84602181D01*
X80465048Y-84602179D01*
X80340109Y-84430213D01*
X80189786Y-84279890D01*
X80017820Y-84154951D01*
X80017115Y-84154591D01*
X80009054Y-84150485D01*
X79958259Y-84102512D01*
X79941463Y-84034692D01*
X79963999Y-83968556D01*
X80009054Y-83929515D01*
X80017816Y-83925051D01*
X80047125Y-83903757D01*
X80189786Y-83800109D01*
X80189788Y-83800106D01*
X80189792Y-83800104D01*
X80340104Y-83649792D01*
X80340106Y-83649788D01*
X80340109Y-83649786D01*
X80465048Y-83477820D01*
X80465047Y-83477820D01*
X80465051Y-83477816D01*
X80561557Y-83288412D01*
X80627246Y-83086243D01*
X80660500Y-82876287D01*
X80660500Y-82663713D01*
X80627246Y-82453757D01*
X80561557Y-82251588D01*
X80465051Y-82062184D01*
X80465049Y-82062181D01*
X80465048Y-82062179D01*
X80340109Y-81890213D01*
X80189786Y-81739890D01*
X80017817Y-81614949D01*
X80008504Y-81610204D01*
X79957707Y-81562230D01*
X79940912Y-81494409D01*
X79963449Y-81428274D01*
X80008507Y-81389232D01*
X80017555Y-81384622D01*
X80071716Y-81345270D01*
X80071717Y-81345270D01*
X79439408Y-80712962D01*
X79502993Y-80695925D01*
X79617007Y-80630099D01*
X79710099Y-80537007D01*
X79775925Y-80422993D01*
X79792962Y-80359408D01*
X80425270Y-80991717D01*
X80425270Y-80991716D01*
X80464622Y-80937554D01*
X80561095Y-80748217D01*
X80626757Y-80546130D01*
X80626757Y-80546127D01*
X80660000Y-80336246D01*
X80660000Y-80123753D01*
X80626757Y-79913872D01*
X80626757Y-79913869D01*
X80561095Y-79711782D01*
X80464624Y-79522449D01*
X80425270Y-79468282D01*
X80425269Y-79468282D01*
X79792962Y-80100590D01*
X79775925Y-80037007D01*
X79710099Y-79922993D01*
X79617007Y-79829901D01*
X79502993Y-79764075D01*
X79439409Y-79747037D01*
X80071716Y-79114728D01*
X80017547Y-79075373D01*
X80017547Y-79075372D01*
X80008500Y-79070763D01*
X79957706Y-79022788D01*
X79940912Y-78954966D01*
X79963451Y-78888832D01*
X80008508Y-78849793D01*
X80017816Y-78845051D01*
X80097007Y-78787515D01*
X80189786Y-78720109D01*
X80189788Y-78720106D01*
X80189792Y-78720104D01*
X80340104Y-78569792D01*
X80340106Y-78569788D01*
X80340109Y-78569786D01*
X80465048Y-78397820D01*
X80465047Y-78397820D01*
X80465051Y-78397816D01*
X80561557Y-78208412D01*
X80627246Y-78006243D01*
X80660500Y-77796287D01*
X80660500Y-77583713D01*
X80627246Y-77373757D01*
X80561557Y-77171588D01*
X80465051Y-76982184D01*
X80465049Y-76982181D01*
X80465048Y-76982179D01*
X80340109Y-76810213D01*
X80189786Y-76659890D01*
X80017820Y-76534951D01*
X80017115Y-76534591D01*
X80009054Y-76530485D01*
X79958259Y-76482512D01*
X79941463Y-76414692D01*
X79963999Y-76348556D01*
X80009054Y-76309515D01*
X80017816Y-76305051D01*
X80104138Y-76242335D01*
X80189786Y-76180109D01*
X80189788Y-76180106D01*
X80189792Y-76180104D01*
X80340104Y-76029792D01*
X80340106Y-76029788D01*
X80340109Y-76029786D01*
X80465048Y-75857820D01*
X80465047Y-75857820D01*
X80465051Y-75857816D01*
X80561557Y-75668412D01*
X80627246Y-75466243D01*
X80660500Y-75256287D01*
X80660500Y-75043713D01*
X80627246Y-74833757D01*
X80561557Y-74631588D01*
X80465051Y-74442184D01*
X80451077Y-74422950D01*
X80377511Y-74321694D01*
X80377508Y-74321691D01*
X80340107Y-74270213D01*
X80340104Y-74270208D01*
X80322031Y-74252135D01*
X87959500Y-74252135D01*
X87959500Y-76047870D01*
X87959501Y-76047876D01*
X87965908Y-76107483D01*
X88016202Y-76242328D01*
X88016206Y-76242335D01*
X88102452Y-76357544D01*
X88102455Y-76357547D01*
X88217664Y-76443793D01*
X88217671Y-76443797D01*
X88349082Y-76492810D01*
X88405016Y-76534681D01*
X88429433Y-76600145D01*
X88414582Y-76668418D01*
X88393431Y-76696673D01*
X88279889Y-76810215D01*
X88154951Y-76982179D01*
X88058444Y-77171585D01*
X87992753Y-77373760D01*
X87959500Y-77583713D01*
X87959500Y-77796287D01*
X87961275Y-77807491D01*
X87989381Y-77984951D01*
X87992754Y-78006243D01*
X88039497Y-78150104D01*
X88058444Y-78208414D01*
X88154951Y-78397820D01*
X88279890Y-78569786D01*
X88430213Y-78720109D01*
X88602179Y-78845048D01*
X88602181Y-78845049D01*
X88602184Y-78845051D01*
X88611493Y-78849794D01*
X88662290Y-78897766D01*
X88679087Y-78965587D01*
X88656552Y-79031722D01*
X88611505Y-79070760D01*
X88602446Y-79075376D01*
X88602440Y-79075380D01*
X88548282Y-79114727D01*
X88548282Y-79114728D01*
X89180591Y-79747037D01*
X89117007Y-79764075D01*
X89002993Y-79829901D01*
X88909901Y-79922993D01*
X88844075Y-80037007D01*
X88827037Y-80100591D01*
X88194728Y-79468282D01*
X88194727Y-79468282D01*
X88155380Y-79522439D01*
X88058904Y-79711782D01*
X87993242Y-79913869D01*
X87993242Y-79913872D01*
X87960000Y-80123753D01*
X87960000Y-80336246D01*
X87993242Y-80546127D01*
X87993242Y-80546130D01*
X88058904Y-80748217D01*
X88155375Y-80937550D01*
X88194728Y-80991716D01*
X88827037Y-80359408D01*
X88844075Y-80422993D01*
X88909901Y-80537007D01*
X89002993Y-80630099D01*
X89117007Y-80695925D01*
X89180590Y-80712962D01*
X88548282Y-81345269D01*
X88548282Y-81345270D01*
X88602452Y-81384626D01*
X88602451Y-81384626D01*
X88611495Y-81389234D01*
X88662292Y-81437208D01*
X88679087Y-81505029D01*
X88656550Y-81571164D01*
X88611499Y-81610202D01*
X88602182Y-81614949D01*
X88430213Y-81739890D01*
X88279890Y-81890213D01*
X88154951Y-82062179D01*
X88058444Y-82251585D01*
X87992753Y-82453760D01*
X87966341Y-82620523D01*
X87959500Y-82663713D01*
X87959500Y-82876287D01*
X87961275Y-82887491D01*
X87989381Y-83064951D01*
X87992754Y-83086243D01*
X88039497Y-83230104D01*
X88058444Y-83288414D01*
X88154951Y-83477820D01*
X88279890Y-83649786D01*
X88430213Y-83800109D01*
X88602182Y-83925050D01*
X88610946Y-83929516D01*
X88661742Y-83977491D01*
X88678536Y-84045312D01*
X88655998Y-84111447D01*
X88610946Y-84150484D01*
X88602182Y-84154949D01*
X88430213Y-84279890D01*
X88279890Y-84430213D01*
X88154951Y-84602179D01*
X88058444Y-84791585D01*
X87992753Y-84993760D01*
X87959500Y-85203713D01*
X87959500Y-85416287D01*
X87961275Y-85427491D01*
X87989381Y-85604951D01*
X87992754Y-85626243D01*
X88039497Y-85770104D01*
X88058444Y-85828414D01*
X88154951Y-86017820D01*
X88279890Y-86189786D01*
X88430213Y-86340109D01*
X88602182Y-86465050D01*
X88610946Y-86469516D01*
X88661742Y-86517491D01*
X88678536Y-86585312D01*
X88655998Y-86651447D01*
X88610946Y-86690484D01*
X88602182Y-86694949D01*
X88430213Y-86819890D01*
X88279890Y-86970213D01*
X88154951Y-87142179D01*
X88058444Y-87331585D01*
X87992753Y-87533760D01*
X87959500Y-87743713D01*
X87959500Y-87956287D01*
X87961275Y-87967491D01*
X87989381Y-88144951D01*
X87992754Y-88166243D01*
X88039497Y-88310104D01*
X88058444Y-88368414D01*
X88154951Y-88557820D01*
X88279890Y-88729786D01*
X88430213Y-88880109D01*
X88602179Y-89005048D01*
X88602181Y-89005049D01*
X88602184Y-89005051D01*
X88791588Y-89101557D01*
X88993757Y-89167246D01*
X89203713Y-89200500D01*
X89203714Y-89200500D01*
X89416286Y-89200500D01*
X89416287Y-89200500D01*
X89626243Y-89167246D01*
X89828412Y-89101557D01*
X90017816Y-89005051D01*
X90047125Y-88983757D01*
X90189786Y-88880109D01*
X90189788Y-88880106D01*
X90189792Y-88880104D01*
X90340104Y-88729792D01*
X90340106Y-88729788D01*
X90340109Y-88729786D01*
X90465048Y-88557820D01*
X90465047Y-88557820D01*
X90465051Y-88557816D01*
X90561557Y-88368412D01*
X90627246Y-88166243D01*
X90660500Y-87956287D01*
X90660500Y-87743713D01*
X90627246Y-87533757D01*
X90561557Y-87331588D01*
X90465051Y-87142184D01*
X90465049Y-87142181D01*
X90465048Y-87142179D01*
X90340109Y-86970213D01*
X90189786Y-86819890D01*
X90017820Y-86694951D01*
X90017115Y-86694591D01*
X90009054Y-86690485D01*
X89958259Y-86642512D01*
X89941463Y-86574692D01*
X89963999Y-86508556D01*
X90009054Y-86469515D01*
X90017816Y-86465051D01*
X90047125Y-86443757D01*
X90189786Y-86340109D01*
X90189788Y-86340106D01*
X90189792Y-86340104D01*
X90340104Y-86189792D01*
X90340106Y-86189788D01*
X90340109Y-86189786D01*
X90465048Y-86017820D01*
X90465047Y-86017820D01*
X90465051Y-86017816D01*
X90561557Y-85828412D01*
X90627246Y-85626243D01*
X90660500Y-85416287D01*
X90660500Y-85203713D01*
X90627246Y-84993757D01*
X90561557Y-84791588D01*
X90465051Y-84602184D01*
X90465049Y-84602181D01*
X90465048Y-84602179D01*
X90340109Y-84430213D01*
X90189786Y-84279890D01*
X90017820Y-84154951D01*
X90017115Y-84154591D01*
X90009054Y-84150485D01*
X89958259Y-84102512D01*
X89941463Y-84034692D01*
X89963999Y-83968556D01*
X90009054Y-83929515D01*
X90017816Y-83925051D01*
X90047125Y-83903757D01*
X90189786Y-83800109D01*
X90189788Y-83800106D01*
X90189792Y-83800104D01*
X90340104Y-83649792D01*
X90340106Y-83649788D01*
X90340109Y-83649786D01*
X90465048Y-83477820D01*
X90465047Y-83477820D01*
X90465051Y-83477816D01*
X90561557Y-83288412D01*
X90627246Y-83086243D01*
X90660500Y-82876287D01*
X90660500Y-82663713D01*
X90627246Y-82453757D01*
X90561557Y-82251588D01*
X90465051Y-82062184D01*
X90465049Y-82062181D01*
X90465048Y-82062179D01*
X90340109Y-81890213D01*
X90189786Y-81739890D01*
X90017817Y-81614949D01*
X90008504Y-81610204D01*
X89957707Y-81562230D01*
X89940912Y-81494409D01*
X89963449Y-81428274D01*
X90008507Y-81389232D01*
X90017555Y-81384622D01*
X90071716Y-81345270D01*
X90071717Y-81345270D01*
X89439408Y-80712962D01*
X89502993Y-80695925D01*
X89617007Y-80630099D01*
X89710099Y-80537007D01*
X89775925Y-80422993D01*
X89792962Y-80359408D01*
X90425270Y-80991717D01*
X90425270Y-80991716D01*
X90464622Y-80937554D01*
X90561095Y-80748217D01*
X90626757Y-80546130D01*
X90626757Y-80546127D01*
X90660000Y-80336246D01*
X90660000Y-80123753D01*
X90626757Y-79913872D01*
X90626757Y-79913869D01*
X90561095Y-79711782D01*
X90464624Y-79522449D01*
X90425270Y-79468282D01*
X90425269Y-79468282D01*
X89792962Y-80100590D01*
X89775925Y-80037007D01*
X89710099Y-79922993D01*
X89617007Y-79829901D01*
X89502993Y-79764075D01*
X89439409Y-79747037D01*
X90071716Y-79114728D01*
X90017547Y-79075373D01*
X90017547Y-79075372D01*
X90008500Y-79070763D01*
X89957706Y-79022788D01*
X89940912Y-78954966D01*
X89963451Y-78888832D01*
X90008508Y-78849793D01*
X90017816Y-78845051D01*
X90097007Y-78787515D01*
X90189786Y-78720109D01*
X90189788Y-78720106D01*
X90189792Y-78720104D01*
X90340104Y-78569792D01*
X90340106Y-78569788D01*
X90340109Y-78569786D01*
X90465048Y-78397820D01*
X90465047Y-78397820D01*
X90465051Y-78397816D01*
X90561557Y-78208412D01*
X90627246Y-78006243D01*
X90660500Y-77796287D01*
X90660500Y-77583713D01*
X90627246Y-77373757D01*
X90561557Y-77171588D01*
X90465051Y-76982184D01*
X90465049Y-76982181D01*
X90465048Y-76982179D01*
X90340109Y-76810213D01*
X90226569Y-76696673D01*
X90193084Y-76635350D01*
X90198068Y-76565658D01*
X90239940Y-76509725D01*
X90270915Y-76492810D01*
X90402331Y-76443796D01*
X90517546Y-76357546D01*
X90603796Y-76242331D01*
X90654091Y-76107483D01*
X90660500Y-76047873D01*
X90660499Y-74252128D01*
X90654091Y-74192517D01*
X90644307Y-74166286D01*
X90603797Y-74057671D01*
X90603793Y-74057664D01*
X90517547Y-73942455D01*
X90517544Y-73942452D01*
X90402335Y-73856206D01*
X90402328Y-73856202D01*
X90267482Y-73805908D01*
X90267483Y-73805908D01*
X90207883Y-73799501D01*
X90207881Y-73799500D01*
X90207873Y-73799500D01*
X90207864Y-73799500D01*
X88412129Y-73799500D01*
X88412123Y-73799501D01*
X88352516Y-73805908D01*
X88217671Y-73856202D01*
X88217664Y-73856206D01*
X88102455Y-73942452D01*
X88102452Y-73942455D01*
X88016206Y-74057664D01*
X88016202Y-74057671D01*
X87965908Y-74192517D01*
X87959501Y-74252116D01*
X87959501Y-74252123D01*
X87959500Y-74252135D01*
X80322031Y-74252135D01*
X80189792Y-74119896D01*
X80189786Y-74119890D01*
X80017820Y-73994951D01*
X79828414Y-73898444D01*
X79828413Y-73898443D01*
X79828412Y-73898443D01*
X79626243Y-73832754D01*
X79626241Y-73832753D01*
X79626240Y-73832753D01*
X79464957Y-73807208D01*
X79416287Y-73799500D01*
X79203713Y-73799500D01*
X79155042Y-73807208D01*
X78993760Y-73832753D01*
X78791585Y-73898444D01*
X78602179Y-73994951D01*
X78430213Y-74119890D01*
X78279890Y-74270213D01*
X78154951Y-74442179D01*
X78058444Y-74631585D01*
X77992753Y-74833760D01*
X77966341Y-75000523D01*
X77959500Y-75043713D01*
X69269330Y-75043713D01*
X69317246Y-74896243D01*
X69350500Y-74686287D01*
X69350500Y-74473713D01*
X69317246Y-74263757D01*
X69251557Y-74061588D01*
X69155051Y-73872184D01*
X69155049Y-73872181D01*
X69155048Y-73872179D01*
X69030109Y-73700213D01*
X68879786Y-73549890D01*
X68707820Y-73424951D01*
X68707115Y-73424591D01*
X68699054Y-73420485D01*
X68648259Y-73372512D01*
X68631463Y-73304692D01*
X68653999Y-73238556D01*
X68699054Y-73199515D01*
X68707816Y-73195051D01*
X68729789Y-73179086D01*
X68879786Y-73070109D01*
X68879788Y-73070106D01*
X68879792Y-73070104D01*
X69030104Y-72919792D01*
X69030106Y-72919788D01*
X69030109Y-72919786D01*
X69155048Y-72747820D01*
X69155047Y-72747820D01*
X69155051Y-72747816D01*
X69251557Y-72558412D01*
X69317246Y-72356243D01*
X69350500Y-72146287D01*
X69350500Y-71933713D01*
X69317246Y-71723757D01*
X69251557Y-71521588D01*
X69155051Y-71332184D01*
X69155049Y-71332181D01*
X69155048Y-71332179D01*
X69030109Y-71160213D01*
X68879786Y-71009890D01*
X68707820Y-70884951D01*
X68707115Y-70884591D01*
X68699054Y-70880485D01*
X68648259Y-70832512D01*
X68631463Y-70764692D01*
X68653999Y-70698556D01*
X68699054Y-70659515D01*
X68707816Y-70655051D01*
X68729789Y-70639086D01*
X68879786Y-70530109D01*
X68879788Y-70530106D01*
X68879792Y-70530104D01*
X69030104Y-70379792D01*
X69030106Y-70379788D01*
X69030109Y-70379786D01*
X69155048Y-70207820D01*
X69155047Y-70207820D01*
X69155051Y-70207816D01*
X69251557Y-70018412D01*
X69317246Y-69816243D01*
X69350500Y-69606287D01*
X69350500Y-69393713D01*
X69317246Y-69183757D01*
X69251557Y-68981588D01*
X69155051Y-68792184D01*
X69155049Y-68792181D01*
X69155048Y-68792179D01*
X69030109Y-68620213D01*
X68879786Y-68469890D01*
X68707820Y-68344951D01*
X68707115Y-68344591D01*
X68699054Y-68340485D01*
X68648259Y-68292512D01*
X68631463Y-68224692D01*
X68653999Y-68158556D01*
X68699054Y-68119515D01*
X68707816Y-68115051D01*
X68729789Y-68099086D01*
X68879786Y-67990109D01*
X68879788Y-67990106D01*
X68879792Y-67990104D01*
X69030104Y-67839792D01*
X69030106Y-67839788D01*
X69030109Y-67839786D01*
X69155048Y-67667820D01*
X69155047Y-67667820D01*
X69155051Y-67667816D01*
X69251557Y-67478412D01*
X69317246Y-67276243D01*
X69350500Y-67066287D01*
X69350500Y-66853713D01*
X69317246Y-66643757D01*
X69251557Y-66441588D01*
X69155051Y-66252184D01*
X69155049Y-66252181D01*
X69155048Y-66252179D01*
X69030109Y-66080213D01*
X68879786Y-65929890D01*
X68707820Y-65804951D01*
X68707115Y-65804591D01*
X68699054Y-65800485D01*
X68648259Y-65752512D01*
X68631463Y-65684692D01*
X68653999Y-65618556D01*
X68699054Y-65579515D01*
X68707816Y-65575051D01*
X68729789Y-65559086D01*
X68879786Y-65450109D01*
X68879788Y-65450106D01*
X68879792Y-65450104D01*
X69030104Y-65299792D01*
X69030106Y-65299788D01*
X69030109Y-65299786D01*
X69155048Y-65127820D01*
X69155047Y-65127820D01*
X69155051Y-65127816D01*
X69251557Y-64938412D01*
X69317246Y-64736243D01*
X69350500Y-64526287D01*
X69350500Y-64313713D01*
X69317246Y-64103757D01*
X69251557Y-63901588D01*
X69155051Y-63712184D01*
X69155049Y-63712181D01*
X69155048Y-63712179D01*
X69030109Y-63540213D01*
X68879786Y-63389890D01*
X68707820Y-63264951D01*
X68707115Y-63264591D01*
X68699054Y-63260485D01*
X68648259Y-63212512D01*
X68631463Y-63144692D01*
X68653999Y-63078556D01*
X68684408Y-63048298D01*
X68691428Y-63043400D01*
X68707816Y-63035051D01*
X68879792Y-62910104D01*
X69030104Y-62759792D01*
X69030106Y-62759788D01*
X69030109Y-62759786D01*
X69155048Y-62587820D01*
X69155047Y-62587820D01*
X69155051Y-62587816D01*
X69251557Y-62398412D01*
X69317246Y-62196243D01*
X69350500Y-61986287D01*
X69350500Y-61773713D01*
X69317246Y-61563757D01*
X69251557Y-61361588D01*
X69155051Y-61172184D01*
X69155049Y-61172181D01*
X69155048Y-61172179D01*
X69030109Y-61000213D01*
X68879786Y-60849890D01*
X68707820Y-60724951D01*
X68707115Y-60724591D01*
X68699054Y-60720485D01*
X68648259Y-60672512D01*
X68631463Y-60604692D01*
X68653999Y-60538556D01*
X68684408Y-60508297D01*
X68691423Y-60503403D01*
X68707816Y-60495051D01*
X68879792Y-60370104D01*
X69030104Y-60219792D01*
X69030106Y-60219788D01*
X69030109Y-60219786D01*
X69155048Y-60047820D01*
X69155047Y-60047820D01*
X69155051Y-60047816D01*
X69251557Y-59858412D01*
X69317246Y-59656243D01*
X69350500Y-59446287D01*
X69350500Y-59233713D01*
X69317246Y-59023757D01*
X69251557Y-58821588D01*
X69155051Y-58632184D01*
X69155049Y-58632181D01*
X69155048Y-58632179D01*
X69030109Y-58460213D01*
X68879786Y-58309890D01*
X68707820Y-58184951D01*
X68707115Y-58184591D01*
X68699054Y-58180485D01*
X68648259Y-58132512D01*
X68631463Y-58064692D01*
X68653999Y-57998556D01*
X68699054Y-57959515D01*
X68707816Y-57955051D01*
X68729789Y-57939086D01*
X68879786Y-57830109D01*
X68879788Y-57830106D01*
X68879792Y-57830104D01*
X69030104Y-57679792D01*
X69030106Y-57679788D01*
X69030109Y-57679786D01*
X69155048Y-57507820D01*
X69155047Y-57507820D01*
X69155051Y-57507816D01*
X69251557Y-57318412D01*
X69317246Y-57116243D01*
X69350500Y-56906287D01*
X69350500Y-56693713D01*
X69317246Y-56483757D01*
X69251557Y-56281588D01*
X69155051Y-56092184D01*
X69155049Y-56092181D01*
X69155048Y-56092179D01*
X69030109Y-55920213D01*
X68916569Y-55806673D01*
X68883084Y-55745350D01*
X68888068Y-55675658D01*
X68929940Y-55619725D01*
X68960915Y-55602810D01*
X69092331Y-55553796D01*
X69207546Y-55467546D01*
X69225387Y-55443713D01*
X77959500Y-55443713D01*
X77959500Y-55656287D01*
X77992754Y-55866243D01*
X78024439Y-55963760D01*
X78058444Y-56068414D01*
X78154951Y-56257820D01*
X78279890Y-56429786D01*
X78430213Y-56580109D01*
X78602182Y-56705050D01*
X78610946Y-56709516D01*
X78661742Y-56757491D01*
X78678536Y-56825312D01*
X78655998Y-56891447D01*
X78610946Y-56930484D01*
X78602182Y-56934949D01*
X78430213Y-57059890D01*
X78279890Y-57210213D01*
X78154951Y-57382179D01*
X78058444Y-57571585D01*
X77992753Y-57773760D01*
X77966390Y-57940213D01*
X77959500Y-57983713D01*
X77959500Y-58196287D01*
X77992754Y-58406243D01*
X78024439Y-58503760D01*
X78058444Y-58608414D01*
X78154951Y-58797820D01*
X78279890Y-58969786D01*
X78430213Y-59120109D01*
X78602179Y-59245048D01*
X78602181Y-59245049D01*
X78602184Y-59245051D01*
X78611493Y-59249794D01*
X78662290Y-59297766D01*
X78679087Y-59365587D01*
X78656552Y-59431722D01*
X78611505Y-59470760D01*
X78602446Y-59475376D01*
X78602440Y-59475380D01*
X78548282Y-59514727D01*
X78548282Y-59514728D01*
X79180591Y-60147037D01*
X79117007Y-60164075D01*
X79002993Y-60229901D01*
X78909901Y-60322993D01*
X78844075Y-60437007D01*
X78827037Y-60500591D01*
X78194728Y-59868282D01*
X78194727Y-59868282D01*
X78155380Y-59922439D01*
X78058904Y-60111782D01*
X77993242Y-60313869D01*
X77993242Y-60313872D01*
X77960000Y-60523753D01*
X77960000Y-60736246D01*
X77993242Y-60946127D01*
X77993242Y-60946130D01*
X78058904Y-61148217D01*
X78155375Y-61337550D01*
X78194728Y-61391716D01*
X78827037Y-60759408D01*
X78844075Y-60822993D01*
X78909901Y-60937007D01*
X79002993Y-61030099D01*
X79117007Y-61095925D01*
X79180590Y-61112962D01*
X78548282Y-61745269D01*
X78548282Y-61745270D01*
X78602452Y-61784626D01*
X78602451Y-61784626D01*
X78611495Y-61789234D01*
X78662292Y-61837208D01*
X78679087Y-61905029D01*
X78656550Y-61971164D01*
X78611499Y-62010202D01*
X78602182Y-62014949D01*
X78430213Y-62139890D01*
X78279890Y-62290213D01*
X78154951Y-62462179D01*
X78058444Y-62651585D01*
X77992753Y-62853760D01*
X77959500Y-63063713D01*
X77959500Y-63276287D01*
X77992754Y-63486243D01*
X78024439Y-63583760D01*
X78058444Y-63688414D01*
X78154951Y-63877820D01*
X78279890Y-64049786D01*
X78430213Y-64200109D01*
X78602182Y-64325050D01*
X78610946Y-64329516D01*
X78661742Y-64377491D01*
X78678536Y-64445312D01*
X78655998Y-64511447D01*
X78610946Y-64550484D01*
X78602182Y-64554949D01*
X78430213Y-64679890D01*
X78279890Y-64830213D01*
X78154951Y-65002179D01*
X78058444Y-65191585D01*
X77992753Y-65393760D01*
X77966390Y-65560213D01*
X77959500Y-65603713D01*
X77959500Y-65816287D01*
X77992754Y-66026243D01*
X78024439Y-66123760D01*
X78058444Y-66228414D01*
X78154951Y-66417820D01*
X78279890Y-66589786D01*
X78430213Y-66740109D01*
X78602182Y-66865050D01*
X78610946Y-66869516D01*
X78661742Y-66917491D01*
X78678536Y-66985312D01*
X78655998Y-67051447D01*
X78610946Y-67090484D01*
X78602182Y-67094949D01*
X78430213Y-67219890D01*
X78279890Y-67370213D01*
X78154951Y-67542179D01*
X78058444Y-67731585D01*
X77992753Y-67933760D01*
X77966390Y-68100213D01*
X77959500Y-68143713D01*
X77959500Y-68356287D01*
X77992754Y-68566243D01*
X78024439Y-68663760D01*
X78058444Y-68768414D01*
X78154951Y-68957820D01*
X78279890Y-69129786D01*
X78430213Y-69280109D01*
X78602179Y-69405048D01*
X78602181Y-69405049D01*
X78602184Y-69405051D01*
X78791588Y-69501557D01*
X78993757Y-69567246D01*
X79203713Y-69600500D01*
X79203714Y-69600500D01*
X79416286Y-69600500D01*
X79416287Y-69600500D01*
X79626243Y-69567246D01*
X79828412Y-69501557D01*
X80017816Y-69405051D01*
X80039789Y-69389086D01*
X80189786Y-69280109D01*
X80189788Y-69280106D01*
X80189792Y-69280104D01*
X80340104Y-69129792D01*
X80340106Y-69129788D01*
X80340109Y-69129786D01*
X80465048Y-68957820D01*
X80465047Y-68957820D01*
X80465051Y-68957816D01*
X80561557Y-68768412D01*
X80627246Y-68566243D01*
X80660500Y-68356287D01*
X80660500Y-68143713D01*
X80627246Y-67933757D01*
X80561557Y-67731588D01*
X80465051Y-67542184D01*
X80465049Y-67542181D01*
X80465048Y-67542179D01*
X80340109Y-67370213D01*
X80189786Y-67219890D01*
X80017820Y-67094951D01*
X80017115Y-67094591D01*
X80009054Y-67090485D01*
X79958259Y-67042512D01*
X79941463Y-66974692D01*
X79963999Y-66908556D01*
X80009054Y-66869515D01*
X80017816Y-66865051D01*
X80039789Y-66849086D01*
X80189786Y-66740109D01*
X80189788Y-66740106D01*
X80189792Y-66740104D01*
X80340104Y-66589792D01*
X80340106Y-66589788D01*
X80340109Y-66589786D01*
X80465048Y-66417820D01*
X80465047Y-66417820D01*
X80465051Y-66417816D01*
X80561557Y-66228412D01*
X80627246Y-66026243D01*
X80660500Y-65816287D01*
X80660500Y-65603713D01*
X80627246Y-65393757D01*
X80561557Y-65191588D01*
X80465051Y-65002184D01*
X80465049Y-65002181D01*
X80465048Y-65002179D01*
X80340109Y-64830213D01*
X80189786Y-64679890D01*
X80017820Y-64554951D01*
X80017115Y-64554591D01*
X80009054Y-64550485D01*
X79958259Y-64502512D01*
X79941463Y-64434692D01*
X79963999Y-64368556D01*
X80009054Y-64329515D01*
X80017816Y-64325051D01*
X80039789Y-64309086D01*
X80189786Y-64200109D01*
X80189788Y-64200106D01*
X80189792Y-64200104D01*
X80340104Y-64049792D01*
X80340106Y-64049788D01*
X80340109Y-64049786D01*
X80465048Y-63877820D01*
X80465047Y-63877820D01*
X80465051Y-63877816D01*
X80561557Y-63688412D01*
X80627246Y-63486243D01*
X80660500Y-63276287D01*
X80660500Y-63063713D01*
X80627246Y-62853757D01*
X80561557Y-62651588D01*
X80465051Y-62462184D01*
X80465049Y-62462181D01*
X80465048Y-62462179D01*
X80340109Y-62290213D01*
X80189786Y-62139890D01*
X80017817Y-62014949D01*
X80008504Y-62010204D01*
X79957707Y-61962230D01*
X79940912Y-61894409D01*
X79963449Y-61828274D01*
X80008507Y-61789232D01*
X80017555Y-61784622D01*
X80071716Y-61745270D01*
X80071717Y-61745270D01*
X79439408Y-61112962D01*
X79502993Y-61095925D01*
X79617007Y-61030099D01*
X79710099Y-60937007D01*
X79775925Y-60822993D01*
X79792962Y-60759408D01*
X80425270Y-61391717D01*
X80425270Y-61391716D01*
X80464622Y-61337554D01*
X80561095Y-61148217D01*
X80626757Y-60946130D01*
X80626757Y-60946127D01*
X80660000Y-60736246D01*
X80660000Y-60523753D01*
X80626757Y-60313872D01*
X80626757Y-60313869D01*
X80561095Y-60111782D01*
X80464624Y-59922449D01*
X80425270Y-59868282D01*
X80425269Y-59868282D01*
X79792962Y-60500590D01*
X79775925Y-60437007D01*
X79710099Y-60322993D01*
X79617007Y-60229901D01*
X79502993Y-60164075D01*
X79439409Y-60147037D01*
X80071716Y-59514728D01*
X80017547Y-59475373D01*
X80017547Y-59475372D01*
X80008500Y-59470763D01*
X79957706Y-59422788D01*
X79940912Y-59354966D01*
X79963451Y-59288832D01*
X80008508Y-59249793D01*
X80017816Y-59245051D01*
X80097007Y-59187515D01*
X80189786Y-59120109D01*
X80189788Y-59120106D01*
X80189792Y-59120104D01*
X80340104Y-58969792D01*
X80340106Y-58969788D01*
X80340109Y-58969786D01*
X80465048Y-58797820D01*
X80465047Y-58797820D01*
X80465051Y-58797816D01*
X80561557Y-58608412D01*
X80627246Y-58406243D01*
X80660500Y-58196287D01*
X80660500Y-57983713D01*
X80627246Y-57773757D01*
X80561557Y-57571588D01*
X80465051Y-57382184D01*
X80465049Y-57382181D01*
X80465048Y-57382179D01*
X80340109Y-57210213D01*
X80189786Y-57059890D01*
X80017820Y-56934951D01*
X80017115Y-56934591D01*
X80009054Y-56930485D01*
X79958259Y-56882512D01*
X79941463Y-56814692D01*
X79963999Y-56748556D01*
X80009054Y-56709515D01*
X80017816Y-56705051D01*
X80104138Y-56642335D01*
X80189786Y-56580109D01*
X80189788Y-56580106D01*
X80189792Y-56580104D01*
X80340104Y-56429792D01*
X80340106Y-56429788D01*
X80340109Y-56429786D01*
X80465048Y-56257820D01*
X80465047Y-56257820D01*
X80465051Y-56257816D01*
X80561557Y-56068412D01*
X80627246Y-55866243D01*
X80660500Y-55656287D01*
X80660500Y-55443713D01*
X80627246Y-55233757D01*
X80561557Y-55031588D01*
X80465051Y-54842184D01*
X80340104Y-54670208D01*
X80322031Y-54652135D01*
X87959500Y-54652135D01*
X87959500Y-56447870D01*
X87959501Y-56447876D01*
X87965908Y-56507483D01*
X88016202Y-56642328D01*
X88016206Y-56642335D01*
X88102452Y-56757544D01*
X88102455Y-56757547D01*
X88217664Y-56843793D01*
X88217671Y-56843797D01*
X88349082Y-56892810D01*
X88405016Y-56934681D01*
X88429433Y-57000145D01*
X88414582Y-57068418D01*
X88393431Y-57096673D01*
X88279889Y-57210215D01*
X88154951Y-57382179D01*
X88058444Y-57571585D01*
X87992753Y-57773760D01*
X87966390Y-57940213D01*
X87959500Y-57983713D01*
X87959500Y-58196287D01*
X87992754Y-58406243D01*
X88024439Y-58503760D01*
X88058444Y-58608414D01*
X88154951Y-58797820D01*
X88279890Y-58969786D01*
X88430213Y-59120109D01*
X88602179Y-59245048D01*
X88602181Y-59245049D01*
X88602184Y-59245051D01*
X88611493Y-59249794D01*
X88662290Y-59297766D01*
X88679087Y-59365587D01*
X88656552Y-59431722D01*
X88611505Y-59470760D01*
X88602446Y-59475376D01*
X88602440Y-59475380D01*
X88548282Y-59514727D01*
X88548282Y-59514728D01*
X89180591Y-60147037D01*
X89117007Y-60164075D01*
X89002993Y-60229901D01*
X88909901Y-60322993D01*
X88844075Y-60437007D01*
X88827037Y-60500591D01*
X88194728Y-59868282D01*
X88194727Y-59868282D01*
X88155380Y-59922439D01*
X88058904Y-60111782D01*
X87993242Y-60313869D01*
X87993242Y-60313872D01*
X87960000Y-60523753D01*
X87960000Y-60736246D01*
X87993242Y-60946127D01*
X87993242Y-60946130D01*
X88058904Y-61148217D01*
X88155375Y-61337550D01*
X88194728Y-61391716D01*
X88827037Y-60759408D01*
X88844075Y-60822993D01*
X88909901Y-60937007D01*
X89002993Y-61030099D01*
X89117007Y-61095925D01*
X89180590Y-61112962D01*
X88548282Y-61745269D01*
X88548282Y-61745270D01*
X88602452Y-61784626D01*
X88602451Y-61784626D01*
X88611495Y-61789234D01*
X88662292Y-61837208D01*
X88679087Y-61905029D01*
X88656550Y-61971164D01*
X88611499Y-62010202D01*
X88602182Y-62014949D01*
X88430213Y-62139890D01*
X88279890Y-62290213D01*
X88154951Y-62462179D01*
X88058444Y-62651585D01*
X87992753Y-62853760D01*
X87959500Y-63063713D01*
X87959500Y-63276287D01*
X87992754Y-63486243D01*
X88024439Y-63583760D01*
X88058444Y-63688414D01*
X88154951Y-63877820D01*
X88279890Y-64049786D01*
X88430213Y-64200109D01*
X88602182Y-64325050D01*
X88610946Y-64329516D01*
X88661742Y-64377491D01*
X88678536Y-64445312D01*
X88655998Y-64511447D01*
X88610946Y-64550484D01*
X88602182Y-64554949D01*
X88430213Y-64679890D01*
X88279890Y-64830213D01*
X88154951Y-65002179D01*
X88058444Y-65191585D01*
X87992753Y-65393760D01*
X87966390Y-65560213D01*
X87959500Y-65603713D01*
X87959500Y-65816287D01*
X87992754Y-66026243D01*
X88024439Y-66123760D01*
X88058444Y-66228414D01*
X88154951Y-66417820D01*
X88279890Y-66589786D01*
X88430213Y-66740109D01*
X88602182Y-66865050D01*
X88610946Y-66869516D01*
X88661742Y-66917491D01*
X88678536Y-66985312D01*
X88655998Y-67051447D01*
X88610946Y-67090484D01*
X88602182Y-67094949D01*
X88430213Y-67219890D01*
X88279890Y-67370213D01*
X88154951Y-67542179D01*
X88058444Y-67731585D01*
X87992753Y-67933760D01*
X87966390Y-68100213D01*
X87959500Y-68143713D01*
X87959500Y-68356287D01*
X87992754Y-68566243D01*
X88024439Y-68663760D01*
X88058444Y-68768414D01*
X88154951Y-68957820D01*
X88279890Y-69129786D01*
X88430213Y-69280109D01*
X88602179Y-69405048D01*
X88602181Y-69405049D01*
X88602184Y-69405051D01*
X88791588Y-69501557D01*
X88993757Y-69567246D01*
X89203713Y-69600500D01*
X89203714Y-69600500D01*
X89416286Y-69600500D01*
X89416287Y-69600500D01*
X89626243Y-69567246D01*
X89828412Y-69501557D01*
X90017816Y-69405051D01*
X90039789Y-69389086D01*
X90189786Y-69280109D01*
X90189788Y-69280106D01*
X90189792Y-69280104D01*
X90340104Y-69129792D01*
X90340106Y-69129788D01*
X90340109Y-69129786D01*
X90465048Y-68957820D01*
X90465047Y-68957820D01*
X90465051Y-68957816D01*
X90561557Y-68768412D01*
X90627246Y-68566243D01*
X90660500Y-68356287D01*
X90660500Y-68143713D01*
X90627246Y-67933757D01*
X90561557Y-67731588D01*
X90465051Y-67542184D01*
X90465049Y-67542181D01*
X90465048Y-67542179D01*
X90340109Y-67370213D01*
X90189786Y-67219890D01*
X90017820Y-67094951D01*
X90017115Y-67094591D01*
X90009054Y-67090485D01*
X89958259Y-67042512D01*
X89941463Y-66974692D01*
X89963999Y-66908556D01*
X90009054Y-66869515D01*
X90017816Y-66865051D01*
X90039789Y-66849086D01*
X90189786Y-66740109D01*
X90189788Y-66740106D01*
X90189792Y-66740104D01*
X90340104Y-66589792D01*
X90340106Y-66589788D01*
X90340109Y-66589786D01*
X90465048Y-66417820D01*
X90465047Y-66417820D01*
X90465051Y-66417816D01*
X90561557Y-66228412D01*
X90627246Y-66026243D01*
X90660500Y-65816287D01*
X90660500Y-65603713D01*
X90627246Y-65393757D01*
X90561557Y-65191588D01*
X90465051Y-65002184D01*
X90465049Y-65002181D01*
X90465048Y-65002179D01*
X90340109Y-64830213D01*
X90189786Y-64679890D01*
X90017820Y-64554951D01*
X90017115Y-64554591D01*
X90009054Y-64550485D01*
X89958259Y-64502512D01*
X89941463Y-64434692D01*
X89963999Y-64368556D01*
X90009054Y-64329515D01*
X90017816Y-64325051D01*
X90039789Y-64309086D01*
X90189786Y-64200109D01*
X90189788Y-64200106D01*
X90189792Y-64200104D01*
X90340104Y-64049792D01*
X90340106Y-64049788D01*
X90340109Y-64049786D01*
X90465048Y-63877820D01*
X90465047Y-63877820D01*
X90465051Y-63877816D01*
X90561557Y-63688412D01*
X90627246Y-63486243D01*
X90660500Y-63276287D01*
X90660500Y-63063713D01*
X90627246Y-62853757D01*
X90561557Y-62651588D01*
X90465051Y-62462184D01*
X90465049Y-62462181D01*
X90465048Y-62462179D01*
X90340109Y-62290213D01*
X90189786Y-62139890D01*
X90017817Y-62014949D01*
X90008504Y-62010204D01*
X89957707Y-61962230D01*
X89940912Y-61894409D01*
X89963449Y-61828274D01*
X90008507Y-61789232D01*
X90017555Y-61784622D01*
X90071716Y-61745270D01*
X90071717Y-61745270D01*
X89439408Y-61112962D01*
X89502993Y-61095925D01*
X89617007Y-61030099D01*
X89710099Y-60937007D01*
X89775925Y-60822993D01*
X89792962Y-60759408D01*
X90425270Y-61391717D01*
X90425270Y-61391716D01*
X90464622Y-61337554D01*
X90561095Y-61148217D01*
X90626757Y-60946130D01*
X90626757Y-60946127D01*
X90660000Y-60736246D01*
X90660000Y-60523753D01*
X90626757Y-60313872D01*
X90626757Y-60313869D01*
X90561095Y-60111782D01*
X90464624Y-59922449D01*
X90425270Y-59868282D01*
X90425269Y-59868282D01*
X89792962Y-60500590D01*
X89775925Y-60437007D01*
X89710099Y-60322993D01*
X89617007Y-60229901D01*
X89502993Y-60164075D01*
X89439409Y-60147037D01*
X90071716Y-59514728D01*
X90017547Y-59475373D01*
X90017547Y-59475372D01*
X90008500Y-59470763D01*
X89957706Y-59422788D01*
X89940912Y-59354966D01*
X89963451Y-59288832D01*
X90008508Y-59249793D01*
X90017816Y-59245051D01*
X90097007Y-59187515D01*
X90189786Y-59120109D01*
X90189788Y-59120106D01*
X90189792Y-59120104D01*
X90340104Y-58969792D01*
X90340106Y-58969788D01*
X90340109Y-58969786D01*
X90465048Y-58797820D01*
X90465047Y-58797820D01*
X90465051Y-58797816D01*
X90561557Y-58608412D01*
X90627246Y-58406243D01*
X90660500Y-58196287D01*
X90660500Y-57983713D01*
X90627246Y-57773757D01*
X90561557Y-57571588D01*
X90465051Y-57382184D01*
X90465049Y-57382181D01*
X90465048Y-57382179D01*
X90340109Y-57210213D01*
X90226569Y-57096673D01*
X90193084Y-57035350D01*
X90198068Y-56965658D01*
X90239940Y-56909725D01*
X90270915Y-56892810D01*
X90402331Y-56843796D01*
X90517546Y-56757546D01*
X90603796Y-56642331D01*
X90654091Y-56507483D01*
X90660500Y-56447873D01*
X90660499Y-54652128D01*
X90654091Y-54592517D01*
X90603796Y-54457669D01*
X90603795Y-54457668D01*
X90603793Y-54457664D01*
X90517547Y-54342455D01*
X90517544Y-54342452D01*
X90402335Y-54256206D01*
X90402328Y-54256202D01*
X90267482Y-54205908D01*
X90267483Y-54205908D01*
X90207883Y-54199501D01*
X90207881Y-54199500D01*
X90207873Y-54199500D01*
X90207864Y-54199500D01*
X88412129Y-54199500D01*
X88412123Y-54199501D01*
X88352516Y-54205908D01*
X88217671Y-54256202D01*
X88217664Y-54256206D01*
X88102455Y-54342452D01*
X88102452Y-54342455D01*
X88016206Y-54457664D01*
X88016202Y-54457671D01*
X87965908Y-54592517D01*
X87959501Y-54652116D01*
X87959501Y-54652123D01*
X87959500Y-54652135D01*
X80322031Y-54652135D01*
X80189792Y-54519896D01*
X80189786Y-54519890D01*
X80017820Y-54394951D01*
X79828414Y-54298444D01*
X79828413Y-54298443D01*
X79828412Y-54298443D01*
X79626243Y-54232754D01*
X79626241Y-54232753D01*
X79626240Y-54232753D01*
X79464957Y-54207208D01*
X79416287Y-54199500D01*
X79203713Y-54199500D01*
X79155042Y-54207208D01*
X78993760Y-54232753D01*
X78791585Y-54298444D01*
X78602179Y-54394951D01*
X78430213Y-54519890D01*
X78279890Y-54670213D01*
X78154951Y-54842179D01*
X78058444Y-55031585D01*
X77992753Y-55233760D01*
X77966390Y-55400213D01*
X77959500Y-55443713D01*
X69225387Y-55443713D01*
X69284665Y-55364529D01*
X69284666Y-55364528D01*
X69293793Y-55352335D01*
X69293792Y-55352335D01*
X69293796Y-55352331D01*
X69344091Y-55217483D01*
X69350500Y-55157873D01*
X69350499Y-53362128D01*
X69344091Y-53302517D01*
X69313906Y-53221588D01*
X69293797Y-53167671D01*
X69293793Y-53167664D01*
X69207547Y-53052455D01*
X69207544Y-53052452D01*
X69092335Y-52966206D01*
X69092328Y-52966202D01*
X68957482Y-52915908D01*
X68957483Y-52915908D01*
X68897883Y-52909501D01*
X68897881Y-52909500D01*
X68897873Y-52909500D01*
X68897864Y-52909500D01*
X67102129Y-52909500D01*
X67102123Y-52909501D01*
X67042516Y-52915908D01*
X66907671Y-52966202D01*
X66907664Y-52966206D01*
X66792455Y-53052452D01*
X66792452Y-53052455D01*
X66706206Y-53167664D01*
X66706202Y-53167671D01*
X66655908Y-53302517D01*
X66649501Y-53362116D01*
X66649501Y-53362123D01*
X66649500Y-53362135D01*
X62100499Y-53362135D01*
X62100499Y-53362128D01*
X62094091Y-53302517D01*
X62063906Y-53221588D01*
X62043797Y-53167671D01*
X62043793Y-53167664D01*
X61957547Y-53052455D01*
X61957544Y-53052452D01*
X61842335Y-52966206D01*
X61842328Y-52966202D01*
X61707482Y-52915908D01*
X61707483Y-52915908D01*
X61647883Y-52909501D01*
X61647881Y-52909500D01*
X61647873Y-52909500D01*
X61647864Y-52909500D01*
X59852129Y-52909500D01*
X59852123Y-52909501D01*
X59792516Y-52915908D01*
X59657671Y-52966202D01*
X59657664Y-52966206D01*
X59542455Y-53052452D01*
X59542452Y-53052455D01*
X59456206Y-53167664D01*
X59456202Y-53167671D01*
X59405908Y-53302517D01*
X59399501Y-53362116D01*
X59399501Y-53362123D01*
X59399500Y-53362135D01*
X56000500Y-53362135D01*
X56000500Y-34393713D01*
X58149500Y-34393713D01*
X58149500Y-34606287D01*
X58159534Y-34669644D01*
X58175463Y-34770213D01*
X58182754Y-34816243D01*
X58228755Y-34957820D01*
X58248444Y-35018414D01*
X58344951Y-35207820D01*
X58469890Y-35379786D01*
X58620213Y-35530109D01*
X58792179Y-35655048D01*
X58792181Y-35655049D01*
X58792184Y-35655051D01*
X58981588Y-35751557D01*
X59183757Y-35817246D01*
X59393713Y-35850500D01*
X59393714Y-35850500D01*
X59606286Y-35850500D01*
X59606287Y-35850500D01*
X59816243Y-35817246D01*
X60018412Y-35751557D01*
X60207816Y-35655051D01*
X60282900Y-35600500D01*
X60361061Y-35543713D01*
X77899500Y-35543713D01*
X77899500Y-35756286D01*
X77932753Y-35966239D01*
X77998444Y-36168414D01*
X78094951Y-36357820D01*
X78219890Y-36529786D01*
X78370213Y-36680109D01*
X78542182Y-36805050D01*
X78550946Y-36809516D01*
X78601742Y-36857491D01*
X78618536Y-36925312D01*
X78595998Y-36991447D01*
X78550946Y-37030484D01*
X78542182Y-37034949D01*
X78370213Y-37159890D01*
X78219890Y-37310213D01*
X78094951Y-37482179D01*
X77998444Y-37671585D01*
X77932753Y-37873760D01*
X77899500Y-38083713D01*
X77899500Y-38296286D01*
X77932753Y-38506239D01*
X77998444Y-38708414D01*
X78094951Y-38897820D01*
X78219890Y-39069786D01*
X78370213Y-39220109D01*
X78542179Y-39345048D01*
X78542181Y-39345049D01*
X78542184Y-39345051D01*
X78551493Y-39349794D01*
X78602290Y-39397766D01*
X78619087Y-39465587D01*
X78596552Y-39531722D01*
X78551505Y-39570760D01*
X78542446Y-39575376D01*
X78542440Y-39575380D01*
X78488282Y-39614727D01*
X78488282Y-39614728D01*
X79120591Y-40247037D01*
X79057007Y-40264075D01*
X78942993Y-40329901D01*
X78849901Y-40422993D01*
X78784075Y-40537007D01*
X78767037Y-40600591D01*
X78134728Y-39968282D01*
X78134727Y-39968282D01*
X78095380Y-40022439D01*
X77998904Y-40211782D01*
X77933242Y-40413869D01*
X77933242Y-40413872D01*
X77900000Y-40623753D01*
X77900000Y-40836246D01*
X77933242Y-41046127D01*
X77933242Y-41046130D01*
X77998904Y-41248217D01*
X78095375Y-41437550D01*
X78134728Y-41491716D01*
X78767037Y-40859408D01*
X78784075Y-40922993D01*
X78849901Y-41037007D01*
X78942993Y-41130099D01*
X79057007Y-41195925D01*
X79120590Y-41212962D01*
X78488282Y-41845269D01*
X78488282Y-41845270D01*
X78542452Y-41884626D01*
X78542451Y-41884626D01*
X78551495Y-41889234D01*
X78602292Y-41937208D01*
X78619087Y-42005029D01*
X78596550Y-42071164D01*
X78551499Y-42110202D01*
X78542182Y-42114949D01*
X78370213Y-42239890D01*
X78219890Y-42390213D01*
X78094951Y-42562179D01*
X77998444Y-42751585D01*
X77932753Y-42953760D01*
X77899500Y-43163713D01*
X77899500Y-43376286D01*
X77932753Y-43586239D01*
X77998444Y-43788414D01*
X78094951Y-43977820D01*
X78219890Y-44149786D01*
X78370213Y-44300109D01*
X78542182Y-44425050D01*
X78550946Y-44429516D01*
X78601742Y-44477491D01*
X78618536Y-44545312D01*
X78595998Y-44611447D01*
X78550946Y-44650484D01*
X78542182Y-44654949D01*
X78370213Y-44779890D01*
X78219890Y-44930213D01*
X78094951Y-45102179D01*
X77998444Y-45291585D01*
X77932753Y-45493760D01*
X77915675Y-45601588D01*
X77899500Y-45703713D01*
X77899500Y-45916287D01*
X77932754Y-46126243D01*
X77965260Y-46226287D01*
X77998444Y-46328414D01*
X78094951Y-46517820D01*
X78219890Y-46689786D01*
X78370213Y-46840109D01*
X78542182Y-46965050D01*
X78550946Y-46969516D01*
X78601742Y-47017491D01*
X78618536Y-47085312D01*
X78595998Y-47151447D01*
X78550946Y-47190484D01*
X78542182Y-47194949D01*
X78370213Y-47319890D01*
X78219890Y-47470213D01*
X78094951Y-47642179D01*
X77998444Y-47831585D01*
X77932753Y-48033760D01*
X77915675Y-48141588D01*
X77899500Y-48243713D01*
X77899500Y-48456287D01*
X77932754Y-48666243D01*
X77965260Y-48766287D01*
X77998444Y-48868414D01*
X78094951Y-49057820D01*
X78219890Y-49229786D01*
X78370213Y-49380109D01*
X78542179Y-49505048D01*
X78542181Y-49505049D01*
X78542184Y-49505051D01*
X78731588Y-49601557D01*
X78933757Y-49667246D01*
X79143713Y-49700500D01*
X79143714Y-49700500D01*
X79356286Y-49700500D01*
X79356287Y-49700500D01*
X79566243Y-49667246D01*
X79768412Y-49601557D01*
X79957816Y-49505051D01*
X79979789Y-49489086D01*
X80129786Y-49380109D01*
X80129788Y-49380106D01*
X80129792Y-49380104D01*
X80280104Y-49229792D01*
X80280106Y-49229788D01*
X80280109Y-49229786D01*
X80405048Y-49057820D01*
X80405047Y-49057820D01*
X80405051Y-49057816D01*
X80501557Y-48868412D01*
X80567246Y-48666243D01*
X80600500Y-48456287D01*
X80600500Y-48243713D01*
X80567246Y-48033757D01*
X80501557Y-47831588D01*
X80405051Y-47642184D01*
X80405049Y-47642181D01*
X80405048Y-47642179D01*
X80280109Y-47470213D01*
X80129786Y-47319890D01*
X79957820Y-47194951D01*
X79957115Y-47194591D01*
X79949054Y-47190485D01*
X79898259Y-47142512D01*
X79881463Y-47074692D01*
X79903999Y-47008556D01*
X79949054Y-46969515D01*
X79957816Y-46965051D01*
X79979789Y-46949086D01*
X80129786Y-46840109D01*
X80129788Y-46840106D01*
X80129792Y-46840104D01*
X80280104Y-46689792D01*
X80280106Y-46689788D01*
X80280109Y-46689786D01*
X80405048Y-46517820D01*
X80405047Y-46517820D01*
X80405051Y-46517816D01*
X80501557Y-46328412D01*
X80567246Y-46126243D01*
X80600500Y-45916287D01*
X80600500Y-45703713D01*
X80567246Y-45493757D01*
X80501557Y-45291588D01*
X80405051Y-45102184D01*
X80405049Y-45102181D01*
X80405048Y-45102179D01*
X80280109Y-44930213D01*
X80129786Y-44779890D01*
X79957820Y-44654951D01*
X79957115Y-44654591D01*
X79949054Y-44650485D01*
X79898259Y-44602512D01*
X79881463Y-44534692D01*
X79903999Y-44468556D01*
X79949054Y-44429515D01*
X79957816Y-44425051D01*
X79979789Y-44409086D01*
X80129786Y-44300109D01*
X80129788Y-44300106D01*
X80129792Y-44300104D01*
X80280104Y-44149792D01*
X80280106Y-44149788D01*
X80280109Y-44149786D01*
X80405048Y-43977820D01*
X80405047Y-43977820D01*
X80405051Y-43977816D01*
X80501557Y-43788412D01*
X80567246Y-43586243D01*
X80600500Y-43376287D01*
X80600500Y-43163713D01*
X80567246Y-42953757D01*
X80501557Y-42751588D01*
X80405051Y-42562184D01*
X80405049Y-42562181D01*
X80405048Y-42562179D01*
X80280109Y-42390213D01*
X80129786Y-42239890D01*
X79957817Y-42114949D01*
X79948504Y-42110204D01*
X79897707Y-42062230D01*
X79880912Y-41994409D01*
X79903449Y-41928274D01*
X79948507Y-41889232D01*
X79957555Y-41884622D01*
X80011716Y-41845270D01*
X80011717Y-41845270D01*
X79379408Y-41212962D01*
X79442993Y-41195925D01*
X79557007Y-41130099D01*
X79650099Y-41037007D01*
X79715925Y-40922993D01*
X79732962Y-40859408D01*
X80365270Y-41491717D01*
X80365270Y-41491716D01*
X80404622Y-41437554D01*
X80501095Y-41248217D01*
X80566757Y-41046130D01*
X80566757Y-41046127D01*
X80600000Y-40836246D01*
X80600000Y-40623753D01*
X80566757Y-40413872D01*
X80566757Y-40413869D01*
X80501095Y-40211782D01*
X80404624Y-40022449D01*
X80365270Y-39968282D01*
X80365269Y-39968282D01*
X79732962Y-40600590D01*
X79715925Y-40537007D01*
X79650099Y-40422993D01*
X79557007Y-40329901D01*
X79442993Y-40264075D01*
X79379409Y-40247037D01*
X80011716Y-39614728D01*
X79957547Y-39575373D01*
X79957547Y-39575372D01*
X79948500Y-39570763D01*
X79897706Y-39522788D01*
X79880912Y-39454966D01*
X79903451Y-39388832D01*
X79948508Y-39349793D01*
X79957816Y-39345051D01*
X80037007Y-39287515D01*
X80129786Y-39220109D01*
X80129788Y-39220106D01*
X80129792Y-39220104D01*
X80280104Y-39069792D01*
X80280106Y-39069788D01*
X80280109Y-39069786D01*
X80405048Y-38897820D01*
X80405047Y-38897820D01*
X80405051Y-38897816D01*
X80501557Y-38708412D01*
X80567246Y-38506243D01*
X80600500Y-38296287D01*
X80600500Y-38083713D01*
X80567246Y-37873757D01*
X80501557Y-37671588D01*
X80405051Y-37482184D01*
X80405049Y-37482181D01*
X80405048Y-37482179D01*
X80280109Y-37310213D01*
X80129786Y-37159890D01*
X79957820Y-37034951D01*
X79957115Y-37034591D01*
X79949054Y-37030485D01*
X79898259Y-36982512D01*
X79881463Y-36914692D01*
X79903999Y-36848556D01*
X79949054Y-36809515D01*
X79957816Y-36805051D01*
X80044138Y-36742335D01*
X80129786Y-36680109D01*
X80129788Y-36680106D01*
X80129792Y-36680104D01*
X80280104Y-36529792D01*
X80280106Y-36529788D01*
X80280109Y-36529786D01*
X80405048Y-36357820D01*
X80405047Y-36357820D01*
X80405051Y-36357816D01*
X80501557Y-36168412D01*
X80567246Y-35966243D01*
X80600500Y-35756287D01*
X80600500Y-35543713D01*
X80567246Y-35333757D01*
X80501557Y-35131588D01*
X80405051Y-34942184D01*
X80280104Y-34770208D01*
X80262031Y-34752135D01*
X87899500Y-34752135D01*
X87899500Y-36547870D01*
X87899501Y-36547876D01*
X87905908Y-36607483D01*
X87956202Y-36742328D01*
X87956206Y-36742335D01*
X88042452Y-36857544D01*
X88042455Y-36857547D01*
X88157664Y-36943793D01*
X88157671Y-36943797D01*
X88289082Y-36992810D01*
X88345016Y-37034681D01*
X88369433Y-37100145D01*
X88354582Y-37168418D01*
X88333431Y-37196673D01*
X88219889Y-37310215D01*
X88094951Y-37482179D01*
X87998444Y-37671585D01*
X87932753Y-37873760D01*
X87899500Y-38083713D01*
X87899500Y-38296286D01*
X87932753Y-38506239D01*
X87998444Y-38708414D01*
X88094951Y-38897820D01*
X88219890Y-39069786D01*
X88370213Y-39220109D01*
X88542179Y-39345048D01*
X88542181Y-39345049D01*
X88542184Y-39345051D01*
X88551493Y-39349794D01*
X88602290Y-39397766D01*
X88619087Y-39465587D01*
X88596552Y-39531722D01*
X88551505Y-39570760D01*
X88542446Y-39575376D01*
X88542440Y-39575380D01*
X88488282Y-39614727D01*
X88488282Y-39614728D01*
X89120591Y-40247037D01*
X89057007Y-40264075D01*
X88942993Y-40329901D01*
X88849901Y-40422993D01*
X88784075Y-40537007D01*
X88767037Y-40600591D01*
X88134728Y-39968282D01*
X88134727Y-39968282D01*
X88095380Y-40022439D01*
X87998904Y-40211782D01*
X87933242Y-40413869D01*
X87933242Y-40413872D01*
X87900000Y-40623753D01*
X87900000Y-40836246D01*
X87933242Y-41046127D01*
X87933242Y-41046130D01*
X87998904Y-41248217D01*
X88095375Y-41437550D01*
X88134728Y-41491716D01*
X88767037Y-40859408D01*
X88784075Y-40922993D01*
X88849901Y-41037007D01*
X88942993Y-41130099D01*
X89057007Y-41195925D01*
X89120590Y-41212962D01*
X88488282Y-41845269D01*
X88488282Y-41845270D01*
X88542452Y-41884626D01*
X88542451Y-41884626D01*
X88551495Y-41889234D01*
X88602292Y-41937208D01*
X88619087Y-42005029D01*
X88596550Y-42071164D01*
X88551499Y-42110202D01*
X88542182Y-42114949D01*
X88370213Y-42239890D01*
X88219890Y-42390213D01*
X88094951Y-42562179D01*
X87998444Y-42751585D01*
X87932753Y-42953760D01*
X87899500Y-43163713D01*
X87899500Y-43376286D01*
X87932753Y-43586239D01*
X87998444Y-43788414D01*
X88094951Y-43977820D01*
X88219890Y-44149786D01*
X88370213Y-44300109D01*
X88542182Y-44425050D01*
X88550946Y-44429516D01*
X88601742Y-44477491D01*
X88618536Y-44545312D01*
X88595998Y-44611447D01*
X88550946Y-44650484D01*
X88542182Y-44654949D01*
X88370213Y-44779890D01*
X88219890Y-44930213D01*
X88094951Y-45102179D01*
X87998444Y-45291585D01*
X87932753Y-45493760D01*
X87915675Y-45601588D01*
X87899500Y-45703713D01*
X87899500Y-45916287D01*
X87932754Y-46126243D01*
X87965260Y-46226287D01*
X87998444Y-46328414D01*
X88094951Y-46517820D01*
X88219890Y-46689786D01*
X88370213Y-46840109D01*
X88542182Y-46965050D01*
X88550946Y-46969516D01*
X88601742Y-47017491D01*
X88618536Y-47085312D01*
X88595998Y-47151447D01*
X88550946Y-47190484D01*
X88542182Y-47194949D01*
X88370213Y-47319890D01*
X88219890Y-47470213D01*
X88094951Y-47642179D01*
X87998444Y-47831585D01*
X87932753Y-48033760D01*
X87915675Y-48141588D01*
X87899500Y-48243713D01*
X87899500Y-48456287D01*
X87932754Y-48666243D01*
X87965260Y-48766287D01*
X87998444Y-48868414D01*
X88094951Y-49057820D01*
X88219890Y-49229786D01*
X88370213Y-49380109D01*
X88542179Y-49505048D01*
X88542181Y-49505049D01*
X88542184Y-49505051D01*
X88731588Y-49601557D01*
X88933757Y-49667246D01*
X89143713Y-49700500D01*
X89143714Y-49700500D01*
X89356286Y-49700500D01*
X89356287Y-49700500D01*
X89566243Y-49667246D01*
X89768412Y-49601557D01*
X89957816Y-49505051D01*
X89979789Y-49489086D01*
X90129786Y-49380109D01*
X90129788Y-49380106D01*
X90129792Y-49380104D01*
X90280104Y-49229792D01*
X90280106Y-49229788D01*
X90280109Y-49229786D01*
X90405048Y-49057820D01*
X90405047Y-49057820D01*
X90405051Y-49057816D01*
X90501557Y-48868412D01*
X90567246Y-48666243D01*
X90600500Y-48456287D01*
X90600500Y-48243713D01*
X90567246Y-48033757D01*
X90501557Y-47831588D01*
X90405051Y-47642184D01*
X90405049Y-47642181D01*
X90405048Y-47642179D01*
X90280109Y-47470213D01*
X90129786Y-47319890D01*
X89957820Y-47194951D01*
X89957115Y-47194591D01*
X89949054Y-47190485D01*
X89898259Y-47142512D01*
X89881463Y-47074692D01*
X89903999Y-47008556D01*
X89949054Y-46969515D01*
X89957816Y-46965051D01*
X89979789Y-46949086D01*
X90129786Y-46840109D01*
X90129788Y-46840106D01*
X90129792Y-46840104D01*
X90280104Y-46689792D01*
X90280106Y-46689788D01*
X90280109Y-46689786D01*
X90405048Y-46517820D01*
X90405047Y-46517820D01*
X90405051Y-46517816D01*
X90501557Y-46328412D01*
X90567246Y-46126243D01*
X90600500Y-45916287D01*
X90600500Y-45703713D01*
X90567246Y-45493757D01*
X90501557Y-45291588D01*
X90405051Y-45102184D01*
X90405049Y-45102181D01*
X90405048Y-45102179D01*
X90280109Y-44930213D01*
X90129786Y-44779890D01*
X89957820Y-44654951D01*
X89957115Y-44654591D01*
X89949054Y-44650485D01*
X89898259Y-44602512D01*
X89881463Y-44534692D01*
X89903999Y-44468556D01*
X89949054Y-44429515D01*
X89957816Y-44425051D01*
X89979789Y-44409086D01*
X90129786Y-44300109D01*
X90129788Y-44300106D01*
X90129792Y-44300104D01*
X90280104Y-44149792D01*
X90280106Y-44149788D01*
X90280109Y-44149786D01*
X90405048Y-43977820D01*
X90405047Y-43977820D01*
X90405051Y-43977816D01*
X90501557Y-43788412D01*
X90567246Y-43586243D01*
X90600500Y-43376287D01*
X90600500Y-43163713D01*
X90567246Y-42953757D01*
X90501557Y-42751588D01*
X90501555Y-42751584D01*
X90493156Y-42735099D01*
X90466169Y-42682135D01*
X97949500Y-42682135D01*
X97949500Y-44477870D01*
X97949501Y-44477876D01*
X97955908Y-44537483D01*
X98006202Y-44672328D01*
X98006206Y-44672335D01*
X98092452Y-44787544D01*
X98092455Y-44787547D01*
X98207664Y-44873793D01*
X98207671Y-44873797D01*
X98339082Y-44922810D01*
X98395016Y-44964681D01*
X98419433Y-45030145D01*
X98404582Y-45098418D01*
X98383431Y-45126673D01*
X98269889Y-45240215D01*
X98144951Y-45412179D01*
X98048444Y-45601585D01*
X97982753Y-45803760D01*
X97949500Y-46013713D01*
X97949500Y-46226286D01*
X97982753Y-46436239D01*
X98048444Y-46638414D01*
X98144951Y-46827820D01*
X98269890Y-46999786D01*
X98420213Y-47150109D01*
X98592182Y-47275050D01*
X98600946Y-47279516D01*
X98651742Y-47327491D01*
X98668536Y-47395312D01*
X98645998Y-47461447D01*
X98600946Y-47500484D01*
X98592182Y-47504949D01*
X98420213Y-47629890D01*
X98269890Y-47780213D01*
X98144951Y-47952179D01*
X98048444Y-48141585D01*
X97982753Y-48343760D01*
X97949500Y-48553713D01*
X97949500Y-48766286D01*
X97982753Y-48976239D01*
X98048444Y-49178414D01*
X98144951Y-49367820D01*
X98269890Y-49539786D01*
X98420213Y-49690109D01*
X98592182Y-49815050D01*
X98600946Y-49819516D01*
X98651742Y-49867491D01*
X98668536Y-49935312D01*
X98645998Y-50001447D01*
X98600946Y-50040484D01*
X98592182Y-50044949D01*
X98420213Y-50169890D01*
X98269890Y-50320213D01*
X98144951Y-50492179D01*
X98048444Y-50681585D01*
X97982753Y-50883760D01*
X97949500Y-51093713D01*
X97949500Y-51306286D01*
X97982753Y-51516239D01*
X98048444Y-51718414D01*
X98144951Y-51907820D01*
X98269890Y-52079786D01*
X98420213Y-52230109D01*
X98592182Y-52355050D01*
X98600946Y-52359516D01*
X98651742Y-52407491D01*
X98668536Y-52475312D01*
X98645998Y-52541447D01*
X98600946Y-52580484D01*
X98592182Y-52584949D01*
X98420213Y-52709890D01*
X98269890Y-52860213D01*
X98144951Y-53032179D01*
X98048444Y-53221585D01*
X97982753Y-53423760D01*
X97949500Y-53633713D01*
X97949500Y-53846287D01*
X97982754Y-54056243D01*
X98047726Y-54256206D01*
X98048444Y-54258414D01*
X98144951Y-54447820D01*
X98269890Y-54619786D01*
X98420213Y-54770109D01*
X98592182Y-54895050D01*
X98600946Y-54899516D01*
X98651742Y-54947491D01*
X98668536Y-55015312D01*
X98645998Y-55081447D01*
X98600946Y-55120484D01*
X98592182Y-55124949D01*
X98420213Y-55249890D01*
X98269890Y-55400213D01*
X98144951Y-55572179D01*
X98048444Y-55761585D01*
X97982753Y-55963760D01*
X97949500Y-56173713D01*
X97949500Y-56386286D01*
X97980198Y-56580109D01*
X97982754Y-56596243D01*
X97997730Y-56642335D01*
X98048444Y-56798414D01*
X98144951Y-56987820D01*
X98269890Y-57159786D01*
X98420213Y-57310109D01*
X98592182Y-57435050D01*
X98600946Y-57439516D01*
X98651742Y-57487491D01*
X98668536Y-57555312D01*
X98645998Y-57621447D01*
X98600946Y-57660484D01*
X98592182Y-57664949D01*
X98420213Y-57789890D01*
X98269890Y-57940213D01*
X98144951Y-58112179D01*
X98048444Y-58301585D01*
X97982753Y-58503760D01*
X97949500Y-58713713D01*
X97949500Y-58926286D01*
X97980198Y-59120109D01*
X97982754Y-59136243D01*
X98035236Y-59297766D01*
X98048444Y-59338414D01*
X98144951Y-59527820D01*
X98269890Y-59699786D01*
X98420213Y-59850109D01*
X98592182Y-59975050D01*
X98600946Y-59979516D01*
X98651742Y-60027491D01*
X98668536Y-60095312D01*
X98645998Y-60161447D01*
X98600946Y-60200484D01*
X98592182Y-60204949D01*
X98420213Y-60329890D01*
X98269890Y-60480213D01*
X98144951Y-60652179D01*
X98048444Y-60841585D01*
X97982753Y-61043760D01*
X97974491Y-61095925D01*
X97949500Y-61253713D01*
X97949500Y-61466287D01*
X97982754Y-61676243D01*
X98040106Y-61852754D01*
X98048444Y-61878414D01*
X98144951Y-62067820D01*
X98269890Y-62239786D01*
X98420213Y-62390109D01*
X98592182Y-62515050D01*
X98600946Y-62519516D01*
X98651742Y-62567491D01*
X98668536Y-62635312D01*
X98645998Y-62701447D01*
X98600946Y-62740484D01*
X98592182Y-62744949D01*
X98420213Y-62869890D01*
X98269890Y-63020213D01*
X98144951Y-63192179D01*
X98048444Y-63381585D01*
X97982753Y-63583760D01*
X97949500Y-63793713D01*
X97949500Y-64006286D01*
X97982753Y-64216239D01*
X98048444Y-64418414D01*
X98144951Y-64607820D01*
X98269890Y-64779786D01*
X98420213Y-64930109D01*
X98592182Y-65055050D01*
X98600946Y-65059516D01*
X98651742Y-65107491D01*
X98668536Y-65175312D01*
X98645998Y-65241447D01*
X98600946Y-65280484D01*
X98592182Y-65284949D01*
X98420213Y-65409890D01*
X98269890Y-65560213D01*
X98144951Y-65732179D01*
X98048444Y-65921585D01*
X97982753Y-66123760D01*
X97949500Y-66333713D01*
X97949500Y-66546286D01*
X97982753Y-66756239D01*
X98048444Y-66958414D01*
X98144951Y-67147820D01*
X98269890Y-67319786D01*
X98420213Y-67470109D01*
X98592182Y-67595050D01*
X98600946Y-67599516D01*
X98651742Y-67647491D01*
X98668536Y-67715312D01*
X98645998Y-67781447D01*
X98600946Y-67820484D01*
X98592182Y-67824949D01*
X98420213Y-67949890D01*
X98269890Y-68100213D01*
X98144951Y-68272179D01*
X98048444Y-68461585D01*
X97982753Y-68663760D01*
X97949500Y-68873713D01*
X97949500Y-69086286D01*
X97982753Y-69296239D01*
X98048444Y-69498414D01*
X98144951Y-69687820D01*
X98269890Y-69859786D01*
X98420213Y-70010109D01*
X98592182Y-70135050D01*
X98600946Y-70139516D01*
X98651742Y-70187491D01*
X98668536Y-70255312D01*
X98645998Y-70321447D01*
X98600946Y-70360484D01*
X98592182Y-70364949D01*
X98420213Y-70489890D01*
X98269890Y-70640213D01*
X98144951Y-70812179D01*
X98048444Y-71001585D01*
X97982753Y-71203760D01*
X97949500Y-71413713D01*
X97949500Y-71626286D01*
X97982753Y-71836239D01*
X98048444Y-72038414D01*
X98144951Y-72227820D01*
X98269890Y-72399786D01*
X98420213Y-72550109D01*
X98592182Y-72675050D01*
X98600946Y-72679516D01*
X98651742Y-72727491D01*
X98668536Y-72795312D01*
X98645998Y-72861447D01*
X98600946Y-72900484D01*
X98592182Y-72904949D01*
X98420213Y-73029890D01*
X98269890Y-73180213D01*
X98144951Y-73352179D01*
X98048444Y-73541585D01*
X97982753Y-73743760D01*
X97962414Y-73872179D01*
X97949500Y-73953713D01*
X97949500Y-74166287D01*
X97959534Y-74229644D01*
X97965959Y-74270208D01*
X97982754Y-74376243D01*
X98004178Y-74442180D01*
X98048444Y-74578414D01*
X98144951Y-74767820D01*
X98269890Y-74939786D01*
X98420213Y-75090109D01*
X98592182Y-75215050D01*
X98600946Y-75219516D01*
X98651742Y-75267491D01*
X98668536Y-75335312D01*
X98645998Y-75401447D01*
X98600946Y-75440484D01*
X98592182Y-75444949D01*
X98420213Y-75569890D01*
X98269890Y-75720213D01*
X98144951Y-75892179D01*
X98048444Y-76081585D01*
X98048443Y-76081587D01*
X98048443Y-76081588D01*
X98040029Y-76107483D01*
X97982753Y-76283760D01*
X97949500Y-76493713D01*
X97949500Y-76706286D01*
X97982753Y-76916239D01*
X98048444Y-77118414D01*
X98144951Y-77307820D01*
X98269890Y-77479786D01*
X98420213Y-77630109D01*
X98592182Y-77755050D01*
X98600946Y-77759516D01*
X98651742Y-77807491D01*
X98668536Y-77875312D01*
X98645998Y-77941447D01*
X98600946Y-77980484D01*
X98592182Y-77984949D01*
X98420213Y-78109890D01*
X98269890Y-78260213D01*
X98144951Y-78432179D01*
X98048444Y-78621585D01*
X97982753Y-78823760D01*
X97979381Y-78845051D01*
X97949500Y-79033713D01*
X97949500Y-79246287D01*
X97982754Y-79456243D01*
X98004262Y-79522439D01*
X98048444Y-79658414D01*
X98144951Y-79847820D01*
X98269890Y-80019786D01*
X98420213Y-80170109D01*
X98592182Y-80295050D01*
X98600946Y-80299516D01*
X98651742Y-80347491D01*
X98668536Y-80415312D01*
X98645998Y-80481447D01*
X98600946Y-80520484D01*
X98592182Y-80524949D01*
X98420213Y-80649890D01*
X98269890Y-80800213D01*
X98144951Y-80972179D01*
X98048444Y-81161585D01*
X97982753Y-81363760D01*
X97949500Y-81573713D01*
X97949500Y-81786286D01*
X97982753Y-81996239D01*
X98048444Y-82198414D01*
X98144951Y-82387820D01*
X98269890Y-82559786D01*
X98420213Y-82710109D01*
X98592182Y-82835050D01*
X98600946Y-82839516D01*
X98651742Y-82887491D01*
X98668536Y-82955312D01*
X98645998Y-83021447D01*
X98600946Y-83060484D01*
X98592182Y-83064949D01*
X98420213Y-83189890D01*
X98269890Y-83340213D01*
X98144951Y-83512179D01*
X98048444Y-83701585D01*
X97982753Y-83903760D01*
X97949500Y-84113713D01*
X97949500Y-84326286D01*
X97982753Y-84536239D01*
X98048444Y-84738414D01*
X98144951Y-84927820D01*
X98269890Y-85099786D01*
X98420213Y-85250109D01*
X98592182Y-85375050D01*
X98600946Y-85379516D01*
X98651742Y-85427491D01*
X98668536Y-85495312D01*
X98645998Y-85561447D01*
X98600946Y-85600484D01*
X98592182Y-85604949D01*
X98420213Y-85729890D01*
X98269890Y-85880213D01*
X98144951Y-86052179D01*
X98048444Y-86241585D01*
X97982753Y-86443760D01*
X97949500Y-86653713D01*
X97949500Y-86866286D01*
X97982753Y-87076239D01*
X98048444Y-87278414D01*
X98144951Y-87467820D01*
X98269890Y-87639786D01*
X98420213Y-87790109D01*
X98592182Y-87915050D01*
X98600946Y-87919516D01*
X98651742Y-87967491D01*
X98668536Y-88035312D01*
X98645998Y-88101447D01*
X98600946Y-88140484D01*
X98592182Y-88144949D01*
X98420213Y-88269890D01*
X98269890Y-88420213D01*
X98144951Y-88592179D01*
X98048444Y-88781585D01*
X97982753Y-88983760D01*
X97949500Y-89193713D01*
X97949500Y-89406286D01*
X97982753Y-89616239D01*
X98048444Y-89818414D01*
X98144951Y-90007820D01*
X98269890Y-90179786D01*
X98420213Y-90330109D01*
X98592182Y-90455050D01*
X98600946Y-90459516D01*
X98651742Y-90507491D01*
X98668536Y-90575312D01*
X98645998Y-90641447D01*
X98600946Y-90680484D01*
X98592182Y-90684949D01*
X98420213Y-90809890D01*
X98269890Y-90960213D01*
X98144951Y-91132179D01*
X98048444Y-91321585D01*
X97982753Y-91523760D01*
X97949500Y-91733713D01*
X97949500Y-91946286D01*
X97982753Y-92156239D01*
X98048444Y-92358414D01*
X98144951Y-92547820D01*
X98269890Y-92719786D01*
X98420213Y-92870109D01*
X98592182Y-92995050D01*
X98600946Y-92999516D01*
X98651742Y-93047491D01*
X98668536Y-93115312D01*
X98645998Y-93181447D01*
X98600946Y-93220484D01*
X98592182Y-93224949D01*
X98420213Y-93349890D01*
X98269890Y-93500213D01*
X98144951Y-93672179D01*
X98048444Y-93861585D01*
X97982753Y-94063760D01*
X97949500Y-94273713D01*
X97949500Y-94486286D01*
X97982735Y-94696127D01*
X97982754Y-94696243D01*
X98022449Y-94818412D01*
X98048444Y-94898414D01*
X98144951Y-95087820D01*
X98269890Y-95259786D01*
X98420213Y-95410109D01*
X98592179Y-95535048D01*
X98592181Y-95535049D01*
X98592184Y-95535051D01*
X98601493Y-95539794D01*
X98652290Y-95587766D01*
X98669087Y-95655587D01*
X98646552Y-95721722D01*
X98601505Y-95760760D01*
X98592446Y-95765376D01*
X98592440Y-95765380D01*
X98538282Y-95804727D01*
X98538282Y-95804728D01*
X99170591Y-96437037D01*
X99107007Y-96454075D01*
X98992993Y-96519901D01*
X98899901Y-96612993D01*
X98834075Y-96727007D01*
X98817037Y-96790591D01*
X98184728Y-96158282D01*
X98184727Y-96158282D01*
X98145380Y-96212439D01*
X98048904Y-96401782D01*
X97983242Y-96603869D01*
X97983242Y-96603872D01*
X97950000Y-96813753D01*
X97950000Y-97026246D01*
X97983242Y-97236127D01*
X97983242Y-97236130D01*
X98048904Y-97438217D01*
X98145375Y-97627550D01*
X98184728Y-97681716D01*
X98817037Y-97049408D01*
X98834075Y-97112993D01*
X98899901Y-97227007D01*
X98992993Y-97320099D01*
X99107007Y-97385925D01*
X99170590Y-97402962D01*
X98538282Y-98035269D01*
X98538282Y-98035270D01*
X98592449Y-98074624D01*
X98781782Y-98171095D01*
X98983870Y-98236757D01*
X99193754Y-98270000D01*
X99406246Y-98270000D01*
X99616127Y-98236757D01*
X99616130Y-98236757D01*
X99818217Y-98171095D01*
X100007554Y-98074622D01*
X100061716Y-98035270D01*
X100061717Y-98035270D01*
X99429408Y-97402962D01*
X99492993Y-97385925D01*
X99607007Y-97320099D01*
X99700099Y-97227007D01*
X99765925Y-97112993D01*
X99782962Y-97049408D01*
X100415270Y-97681717D01*
X100415270Y-97681716D01*
X100454622Y-97627554D01*
X100551095Y-97438217D01*
X100616757Y-97236130D01*
X100616757Y-97236127D01*
X100650000Y-97026246D01*
X100650000Y-96813753D01*
X100616757Y-96603872D01*
X100616757Y-96603869D01*
X100551095Y-96401782D01*
X100454624Y-96212449D01*
X100415270Y-96158282D01*
X100415269Y-96158282D01*
X99782962Y-96790590D01*
X99765925Y-96727007D01*
X99700099Y-96612993D01*
X99607007Y-96519901D01*
X99492993Y-96454075D01*
X99429409Y-96437037D01*
X100061716Y-95804728D01*
X100007547Y-95765373D01*
X100007547Y-95765372D01*
X99998500Y-95760763D01*
X99947706Y-95712788D01*
X99930912Y-95644966D01*
X99953451Y-95578832D01*
X99998508Y-95539793D01*
X100007816Y-95535051D01*
X100111782Y-95459516D01*
X100179786Y-95410109D01*
X100179788Y-95410106D01*
X100179792Y-95410104D01*
X100330104Y-95259792D01*
X100330106Y-95259788D01*
X100330109Y-95259786D01*
X100455048Y-95087820D01*
X100455047Y-95087820D01*
X100455051Y-95087816D01*
X100551557Y-94898412D01*
X100617246Y-94696243D01*
X100650500Y-94486287D01*
X100650500Y-94273713D01*
X100617246Y-94063757D01*
X100551557Y-93861588D01*
X100455051Y-93672184D01*
X100455049Y-93672181D01*
X100455048Y-93672179D01*
X100330109Y-93500213D01*
X100179786Y-93349890D01*
X100007820Y-93224951D01*
X99999600Y-93220763D01*
X99999054Y-93220485D01*
X99948259Y-93172512D01*
X99931463Y-93104692D01*
X99953999Y-93038556D01*
X99999054Y-92999515D01*
X100007816Y-92995051D01*
X100070512Y-92949500D01*
X100179786Y-92870109D01*
X100179788Y-92870106D01*
X100179792Y-92870104D01*
X100330104Y-92719792D01*
X100330106Y-92719788D01*
X100330109Y-92719786D01*
X100455048Y-92547820D01*
X100455047Y-92547820D01*
X100455051Y-92547816D01*
X100551557Y-92358412D01*
X100617246Y-92156243D01*
X100650500Y-91946287D01*
X100650500Y-91733713D01*
X100617246Y-91523757D01*
X100551557Y-91321588D01*
X100455051Y-91132184D01*
X100455049Y-91132181D01*
X100455048Y-91132179D01*
X100330109Y-90960213D01*
X100179786Y-90809890D01*
X100007820Y-90684951D01*
X100007115Y-90684591D01*
X99999054Y-90680485D01*
X99948259Y-90632512D01*
X99931463Y-90564692D01*
X99953999Y-90498556D01*
X99999054Y-90459515D01*
X100007816Y-90455051D01*
X100029789Y-90439086D01*
X100179786Y-90330109D01*
X100179788Y-90330106D01*
X100179792Y-90330104D01*
X100330104Y-90179792D01*
X100330106Y-90179788D01*
X100330109Y-90179786D01*
X100455048Y-90007820D01*
X100455047Y-90007820D01*
X100455051Y-90007816D01*
X100551557Y-89818412D01*
X100617246Y-89616243D01*
X100650500Y-89406287D01*
X100650500Y-89193713D01*
X100617246Y-88983757D01*
X100551557Y-88781588D01*
X100455051Y-88592184D01*
X100455049Y-88592181D01*
X100455048Y-88592179D01*
X100330109Y-88420213D01*
X100179786Y-88269890D01*
X100007820Y-88144951D01*
X100007115Y-88144591D01*
X99999054Y-88140485D01*
X99948259Y-88092512D01*
X99931463Y-88024692D01*
X99953999Y-87958556D01*
X99999054Y-87919515D01*
X100007816Y-87915051D01*
X100029789Y-87899086D01*
X100179786Y-87790109D01*
X100179788Y-87790106D01*
X100179792Y-87790104D01*
X100330104Y-87639792D01*
X100330106Y-87639788D01*
X100330109Y-87639786D01*
X100455048Y-87467820D01*
X100455047Y-87467820D01*
X100455051Y-87467816D01*
X100551557Y-87278412D01*
X100617246Y-87076243D01*
X100650500Y-86866287D01*
X100650500Y-86653713D01*
X100617246Y-86443757D01*
X100551557Y-86241588D01*
X100455051Y-86052184D01*
X100455049Y-86052181D01*
X100455048Y-86052179D01*
X100330109Y-85880213D01*
X100179786Y-85729890D01*
X100007820Y-85604951D01*
X100007115Y-85604591D01*
X99999054Y-85600485D01*
X99948259Y-85552512D01*
X99931463Y-85484692D01*
X99953999Y-85418556D01*
X99999054Y-85379515D01*
X100007816Y-85375051D01*
X100029789Y-85359086D01*
X100179786Y-85250109D01*
X100179788Y-85250106D01*
X100179792Y-85250104D01*
X100330104Y-85099792D01*
X100330106Y-85099788D01*
X100330109Y-85099786D01*
X100455048Y-84927820D01*
X100455047Y-84927820D01*
X100455051Y-84927816D01*
X100551557Y-84738412D01*
X100617246Y-84536243D01*
X100650500Y-84326287D01*
X100650500Y-84113713D01*
X100617246Y-83903757D01*
X100551557Y-83701588D01*
X100455051Y-83512184D01*
X100455049Y-83512181D01*
X100455048Y-83512179D01*
X100330109Y-83340213D01*
X100179786Y-83189890D01*
X100007820Y-83064951D01*
X100007115Y-83064591D01*
X99999054Y-83060485D01*
X99948259Y-83012512D01*
X99931463Y-82944692D01*
X99953999Y-82878556D01*
X99999054Y-82839515D01*
X100007816Y-82835051D01*
X100029789Y-82819086D01*
X100179786Y-82710109D01*
X100179788Y-82710106D01*
X100179792Y-82710104D01*
X100330104Y-82559792D01*
X100330106Y-82559788D01*
X100330109Y-82559786D01*
X100455048Y-82387820D01*
X100455047Y-82387820D01*
X100455051Y-82387816D01*
X100551557Y-82198412D01*
X100617246Y-81996243D01*
X100650500Y-81786287D01*
X100650500Y-81573713D01*
X100617246Y-81363757D01*
X100551557Y-81161588D01*
X100455051Y-80972184D01*
X100455049Y-80972181D01*
X100455048Y-80972179D01*
X100330109Y-80800213D01*
X100179786Y-80649890D01*
X100007820Y-80524951D01*
X100007115Y-80524591D01*
X99999054Y-80520485D01*
X99948259Y-80472512D01*
X99931463Y-80404692D01*
X99953999Y-80338556D01*
X99999054Y-80299515D01*
X100007816Y-80295051D01*
X100097353Y-80229999D01*
X100179786Y-80170109D01*
X100179788Y-80170106D01*
X100179792Y-80170104D01*
X100330104Y-80019792D01*
X100330106Y-80019788D01*
X100330109Y-80019786D01*
X100455048Y-79847820D01*
X100455047Y-79847820D01*
X100455051Y-79847816D01*
X100551557Y-79658412D01*
X100617246Y-79456243D01*
X100650500Y-79246287D01*
X100650500Y-79033713D01*
X100617246Y-78823757D01*
X100551557Y-78621588D01*
X100455051Y-78432184D01*
X100455049Y-78432181D01*
X100455048Y-78432179D01*
X100330109Y-78260213D01*
X100179786Y-78109890D01*
X100007820Y-77984951D01*
X100007115Y-77984591D01*
X99999054Y-77980485D01*
X99948259Y-77932512D01*
X99931463Y-77864692D01*
X99953999Y-77798556D01*
X99999054Y-77759515D01*
X100007816Y-77755051D01*
X100029789Y-77739086D01*
X100179786Y-77630109D01*
X100179788Y-77630106D01*
X100179792Y-77630104D01*
X100330104Y-77479792D01*
X100330106Y-77479788D01*
X100330109Y-77479786D01*
X100455048Y-77307820D01*
X100455047Y-77307820D01*
X100455051Y-77307816D01*
X100551557Y-77118412D01*
X100617246Y-76916243D01*
X100650500Y-76706287D01*
X100650500Y-76493713D01*
X100617246Y-76283757D01*
X100551557Y-76081588D01*
X100455051Y-75892184D01*
X100455049Y-75892181D01*
X100455048Y-75892179D01*
X100330109Y-75720213D01*
X100179786Y-75569890D01*
X100007820Y-75444951D01*
X100007115Y-75444591D01*
X99999054Y-75440485D01*
X99948259Y-75392512D01*
X99931463Y-75324692D01*
X99953999Y-75258556D01*
X99999054Y-75219515D01*
X100007816Y-75215051D01*
X100029789Y-75199086D01*
X100179786Y-75090109D01*
X100179788Y-75090106D01*
X100179792Y-75090104D01*
X100330104Y-74939792D01*
X100330106Y-74939788D01*
X100330109Y-74939786D01*
X100455048Y-74767820D01*
X100455047Y-74767820D01*
X100455051Y-74767816D01*
X100551557Y-74578412D01*
X100617246Y-74376243D01*
X100650500Y-74166287D01*
X100650500Y-73953713D01*
X100617246Y-73743757D01*
X100551557Y-73541588D01*
X100455051Y-73352184D01*
X100455049Y-73352181D01*
X100455048Y-73352179D01*
X100330109Y-73180213D01*
X100179786Y-73029890D01*
X100007820Y-72904951D01*
X100007115Y-72904591D01*
X99999054Y-72900485D01*
X99948259Y-72852512D01*
X99931463Y-72784692D01*
X99953999Y-72718556D01*
X99999054Y-72679515D01*
X100007816Y-72675051D01*
X100029789Y-72659086D01*
X100179786Y-72550109D01*
X100179788Y-72550106D01*
X100179792Y-72550104D01*
X100330104Y-72399792D01*
X100330106Y-72399788D01*
X100330109Y-72399786D01*
X100455048Y-72227820D01*
X100455047Y-72227820D01*
X100455051Y-72227816D01*
X100551557Y-72038412D01*
X100617246Y-71836243D01*
X100650500Y-71626287D01*
X100650500Y-71413713D01*
X100617246Y-71203757D01*
X100551557Y-71001588D01*
X100455051Y-70812184D01*
X100455049Y-70812181D01*
X100455048Y-70812179D01*
X100330109Y-70640213D01*
X100179786Y-70489890D01*
X100007820Y-70364951D01*
X100007115Y-70364591D01*
X99999054Y-70360485D01*
X99948259Y-70312512D01*
X99931463Y-70244692D01*
X99953999Y-70178556D01*
X99999054Y-70139515D01*
X100007816Y-70135051D01*
X100029789Y-70119086D01*
X100179786Y-70010109D01*
X100179788Y-70010106D01*
X100179792Y-70010104D01*
X100330104Y-69859792D01*
X100330106Y-69859788D01*
X100330109Y-69859786D01*
X100455048Y-69687820D01*
X100455047Y-69687820D01*
X100455051Y-69687816D01*
X100551557Y-69498412D01*
X100617246Y-69296243D01*
X100650500Y-69086287D01*
X100650500Y-68873713D01*
X100617246Y-68663757D01*
X100551557Y-68461588D01*
X100455051Y-68272184D01*
X100455049Y-68272181D01*
X100455048Y-68272179D01*
X100330109Y-68100213D01*
X100179786Y-67949890D01*
X100007820Y-67824951D01*
X100007115Y-67824591D01*
X99999054Y-67820485D01*
X99948259Y-67772512D01*
X99931463Y-67704692D01*
X99953999Y-67638556D01*
X99999054Y-67599515D01*
X100007816Y-67595051D01*
X100080589Y-67542179D01*
X100179786Y-67470109D01*
X100179788Y-67470106D01*
X100179792Y-67470104D01*
X100330104Y-67319792D01*
X100330106Y-67319788D01*
X100330109Y-67319786D01*
X100455048Y-67147820D01*
X100455047Y-67147820D01*
X100455051Y-67147816D01*
X100551557Y-66958412D01*
X100617246Y-66756243D01*
X100650500Y-66546287D01*
X100650500Y-66333713D01*
X100617246Y-66123757D01*
X100551557Y-65921588D01*
X100455051Y-65732184D01*
X100455049Y-65732181D01*
X100455048Y-65732179D01*
X100330109Y-65560213D01*
X100179786Y-65409890D01*
X100007820Y-65284951D01*
X100007115Y-65284591D01*
X99999054Y-65280485D01*
X99948259Y-65232512D01*
X99931463Y-65164692D01*
X99953999Y-65098556D01*
X99999054Y-65059515D01*
X100007816Y-65055051D01*
X100080589Y-65002179D01*
X100179786Y-64930109D01*
X100179788Y-64930106D01*
X100179792Y-64930104D01*
X100330104Y-64779792D01*
X100330106Y-64779788D01*
X100330109Y-64779786D01*
X100455048Y-64607820D01*
X100455047Y-64607820D01*
X100455051Y-64607816D01*
X100551557Y-64418412D01*
X100617246Y-64216243D01*
X100650500Y-64006287D01*
X100650500Y-63793713D01*
X100617246Y-63583757D01*
X100551557Y-63381588D01*
X100455051Y-63192184D01*
X100455049Y-63192181D01*
X100455048Y-63192179D01*
X100330109Y-63020213D01*
X100179786Y-62869890D01*
X100007820Y-62744951D01*
X100007115Y-62744591D01*
X99999054Y-62740485D01*
X99948259Y-62692512D01*
X99931463Y-62624692D01*
X99953999Y-62558556D01*
X99999054Y-62519515D01*
X100007816Y-62515051D01*
X100080589Y-62462179D01*
X100179786Y-62390109D01*
X100179788Y-62390106D01*
X100179792Y-62390104D01*
X100330104Y-62239792D01*
X100330106Y-62239788D01*
X100330109Y-62239786D01*
X100455048Y-62067820D01*
X100455047Y-62067820D01*
X100455051Y-62067816D01*
X100551557Y-61878412D01*
X100617246Y-61676243D01*
X100650500Y-61466287D01*
X100650500Y-61253713D01*
X100617246Y-61043757D01*
X100551557Y-60841588D01*
X100455051Y-60652184D01*
X100455049Y-60652181D01*
X100455048Y-60652179D01*
X100330109Y-60480213D01*
X100179786Y-60329890D01*
X100007820Y-60204951D01*
X100007115Y-60204591D01*
X99999054Y-60200485D01*
X99948259Y-60152512D01*
X99931463Y-60084692D01*
X99953999Y-60018556D01*
X99999054Y-59979515D01*
X100007816Y-59975051D01*
X100080231Y-59922439D01*
X100179786Y-59850109D01*
X100179788Y-59850106D01*
X100179792Y-59850104D01*
X100330104Y-59699792D01*
X100330106Y-59699788D01*
X100330109Y-59699786D01*
X100455048Y-59527820D01*
X100455047Y-59527820D01*
X100455051Y-59527816D01*
X100551557Y-59338412D01*
X100617246Y-59136243D01*
X100650500Y-58926287D01*
X100650500Y-58713713D01*
X100617246Y-58503757D01*
X100551557Y-58301588D01*
X100455051Y-58112184D01*
X100455049Y-58112181D01*
X100455048Y-58112179D01*
X100330109Y-57940213D01*
X100179786Y-57789890D01*
X100007820Y-57664951D01*
X100007115Y-57664591D01*
X99999054Y-57660485D01*
X99948259Y-57612512D01*
X99931463Y-57544692D01*
X99953999Y-57478556D01*
X99999054Y-57439515D01*
X100007816Y-57435051D01*
X100080589Y-57382179D01*
X100179786Y-57310109D01*
X100179788Y-57310106D01*
X100179792Y-57310104D01*
X100330104Y-57159792D01*
X100330106Y-57159788D01*
X100330109Y-57159786D01*
X100439086Y-57009789D01*
X100455051Y-56987816D01*
X100551557Y-56798412D01*
X100617246Y-56596243D01*
X100650500Y-56386287D01*
X100650500Y-56173713D01*
X100617246Y-55963757D01*
X100551557Y-55761588D01*
X100455051Y-55572184D01*
X100455049Y-55572181D01*
X100455048Y-55572179D01*
X100330109Y-55400213D01*
X100179786Y-55249890D01*
X100007820Y-55124951D01*
X100007115Y-55124591D01*
X99999054Y-55120485D01*
X99948259Y-55072512D01*
X99931463Y-55004692D01*
X99953999Y-54938556D01*
X99999054Y-54899515D01*
X100007816Y-54895051D01*
X100080589Y-54842179D01*
X100179786Y-54770109D01*
X100179788Y-54770106D01*
X100179792Y-54770104D01*
X100330104Y-54619792D01*
X100330106Y-54619788D01*
X100330109Y-54619786D01*
X100455048Y-54447820D01*
X100455047Y-54447820D01*
X100455051Y-54447816D01*
X100551557Y-54258412D01*
X100617246Y-54056243D01*
X100650500Y-53846287D01*
X100650500Y-53633713D01*
X100617246Y-53423757D01*
X100551557Y-53221588D01*
X100455051Y-53032184D01*
X100455049Y-53032181D01*
X100455048Y-53032179D01*
X100330109Y-52860213D01*
X100179786Y-52709890D01*
X100007820Y-52584951D01*
X100007115Y-52584591D01*
X99999054Y-52580485D01*
X99948259Y-52532512D01*
X99931463Y-52464692D01*
X99953999Y-52398556D01*
X99999054Y-52359515D01*
X100007816Y-52355051D01*
X100029789Y-52339086D01*
X100179786Y-52230109D01*
X100179788Y-52230106D01*
X100179792Y-52230104D01*
X100330104Y-52079792D01*
X100330106Y-52079788D01*
X100330109Y-52079786D01*
X100455048Y-51907820D01*
X100455047Y-51907820D01*
X100455051Y-51907816D01*
X100551557Y-51718412D01*
X100617246Y-51516243D01*
X100650500Y-51306287D01*
X100650500Y-51093713D01*
X100617246Y-50883757D01*
X100551557Y-50681588D01*
X100455051Y-50492184D01*
X100455049Y-50492181D01*
X100455048Y-50492179D01*
X100330109Y-50320213D01*
X100179786Y-50169890D01*
X100007820Y-50044951D01*
X100007115Y-50044591D01*
X99999054Y-50040485D01*
X99948259Y-49992512D01*
X99931463Y-49924692D01*
X99953999Y-49858556D01*
X99999054Y-49819515D01*
X100007816Y-49815051D01*
X100029789Y-49799086D01*
X100179786Y-49690109D01*
X100179788Y-49690106D01*
X100179792Y-49690104D01*
X100330104Y-49539792D01*
X100330106Y-49539788D01*
X100330109Y-49539786D01*
X100455048Y-49367820D01*
X100455047Y-49367820D01*
X100455051Y-49367816D01*
X100551557Y-49178412D01*
X100617246Y-48976243D01*
X100650500Y-48766287D01*
X100650500Y-48553713D01*
X100617246Y-48343757D01*
X100551557Y-48141588D01*
X100455051Y-47952184D01*
X100455049Y-47952181D01*
X100455048Y-47952179D01*
X100330109Y-47780213D01*
X100179786Y-47629890D01*
X100007820Y-47504951D01*
X100007115Y-47504591D01*
X99999054Y-47500485D01*
X99948259Y-47452512D01*
X99931463Y-47384692D01*
X99953999Y-47318556D01*
X99999054Y-47279515D01*
X100007816Y-47275051D01*
X100124211Y-47190486D01*
X100179786Y-47150109D01*
X100179788Y-47150106D01*
X100179792Y-47150104D01*
X100330104Y-46999792D01*
X100330106Y-46999788D01*
X100330109Y-46999786D01*
X100455048Y-46827820D01*
X100455047Y-46827820D01*
X100455051Y-46827816D01*
X100551557Y-46638412D01*
X100617246Y-46436243D01*
X100650500Y-46226287D01*
X100650500Y-46013713D01*
X123349500Y-46013713D01*
X123349500Y-46226286D01*
X123382753Y-46436239D01*
X123448444Y-46638414D01*
X123544951Y-46827820D01*
X123669890Y-46999786D01*
X123820213Y-47150109D01*
X123992182Y-47275050D01*
X124000946Y-47279516D01*
X124051742Y-47327491D01*
X124068536Y-47395312D01*
X124045998Y-47461447D01*
X124000946Y-47500484D01*
X123992182Y-47504949D01*
X123820213Y-47629890D01*
X123669890Y-47780213D01*
X123544951Y-47952179D01*
X123448444Y-48141585D01*
X123382753Y-48343760D01*
X123349500Y-48553713D01*
X123349500Y-48766286D01*
X123382753Y-48976239D01*
X123448444Y-49178414D01*
X123544951Y-49367820D01*
X123669890Y-49539786D01*
X123820213Y-49690109D01*
X123992182Y-49815050D01*
X124000946Y-49819516D01*
X124051742Y-49867491D01*
X124068536Y-49935312D01*
X124045998Y-50001447D01*
X124000946Y-50040484D01*
X123992182Y-50044949D01*
X123820213Y-50169890D01*
X123669890Y-50320213D01*
X123544951Y-50492179D01*
X123448444Y-50681585D01*
X123382753Y-50883760D01*
X123349500Y-51093713D01*
X123349500Y-51306286D01*
X123382753Y-51516239D01*
X123448444Y-51718414D01*
X123544951Y-51907820D01*
X123669890Y-52079786D01*
X123820213Y-52230109D01*
X123992182Y-52355050D01*
X124000946Y-52359516D01*
X124051742Y-52407491D01*
X124068536Y-52475312D01*
X124045998Y-52541447D01*
X124000946Y-52580484D01*
X123992182Y-52584949D01*
X123820213Y-52709890D01*
X123669890Y-52860213D01*
X123544951Y-53032179D01*
X123448444Y-53221585D01*
X123382753Y-53423760D01*
X123349500Y-53633713D01*
X123349500Y-53846287D01*
X123382754Y-54056243D01*
X123447726Y-54256206D01*
X123448444Y-54258414D01*
X123544951Y-54447820D01*
X123669890Y-54619786D01*
X123820213Y-54770109D01*
X123992182Y-54895050D01*
X124000946Y-54899516D01*
X124051742Y-54947491D01*
X124068536Y-55015312D01*
X124045998Y-55081447D01*
X124000946Y-55120484D01*
X123992182Y-55124949D01*
X123820213Y-55249890D01*
X123669890Y-55400213D01*
X123544951Y-55572179D01*
X123448444Y-55761585D01*
X123382753Y-55963760D01*
X123349500Y-56173713D01*
X123349500Y-56386286D01*
X123380198Y-56580109D01*
X123382754Y-56596243D01*
X123397730Y-56642335D01*
X123448444Y-56798414D01*
X123544951Y-56987820D01*
X123669890Y-57159786D01*
X123820213Y-57310109D01*
X123992182Y-57435050D01*
X124000946Y-57439516D01*
X124051742Y-57487491D01*
X124068536Y-57555312D01*
X124045998Y-57621447D01*
X124000946Y-57660484D01*
X123992182Y-57664949D01*
X123820213Y-57789890D01*
X123669890Y-57940213D01*
X123544951Y-58112179D01*
X123448444Y-58301585D01*
X123382753Y-58503760D01*
X123349500Y-58713713D01*
X123349500Y-58926286D01*
X123380198Y-59120109D01*
X123382754Y-59136243D01*
X123435236Y-59297766D01*
X123448444Y-59338414D01*
X123544951Y-59527820D01*
X123669890Y-59699786D01*
X123820213Y-59850109D01*
X123992182Y-59975050D01*
X124000946Y-59979516D01*
X124051742Y-60027491D01*
X124068536Y-60095312D01*
X124045998Y-60161447D01*
X124000946Y-60200484D01*
X123992182Y-60204949D01*
X123820213Y-60329890D01*
X123669890Y-60480213D01*
X123544951Y-60652179D01*
X123448444Y-60841585D01*
X123382753Y-61043760D01*
X123374491Y-61095925D01*
X123349500Y-61253713D01*
X123349500Y-61466287D01*
X123382754Y-61676243D01*
X123440106Y-61852754D01*
X123448444Y-61878414D01*
X123544951Y-62067820D01*
X123669890Y-62239786D01*
X123820213Y-62390109D01*
X123992182Y-62515050D01*
X124000946Y-62519516D01*
X124051742Y-62567491D01*
X124068536Y-62635312D01*
X124045998Y-62701447D01*
X124000946Y-62740484D01*
X123992182Y-62744949D01*
X123820213Y-62869890D01*
X123669890Y-63020213D01*
X123544951Y-63192179D01*
X123448444Y-63381585D01*
X123382753Y-63583760D01*
X123349500Y-63793713D01*
X123349500Y-64006286D01*
X123382753Y-64216239D01*
X123448444Y-64418414D01*
X123544951Y-64607820D01*
X123669890Y-64779786D01*
X123820213Y-64930109D01*
X123992182Y-65055050D01*
X124000946Y-65059516D01*
X124051742Y-65107491D01*
X124068536Y-65175312D01*
X124045998Y-65241447D01*
X124000946Y-65280484D01*
X123992182Y-65284949D01*
X123820213Y-65409890D01*
X123669890Y-65560213D01*
X123544951Y-65732179D01*
X123448444Y-65921585D01*
X123382753Y-66123760D01*
X123349500Y-66333713D01*
X123349500Y-66546286D01*
X123382753Y-66756239D01*
X123448444Y-66958414D01*
X123544951Y-67147820D01*
X123669890Y-67319786D01*
X123820213Y-67470109D01*
X123992182Y-67595050D01*
X124000946Y-67599516D01*
X124051742Y-67647491D01*
X124068536Y-67715312D01*
X124045998Y-67781447D01*
X124000946Y-67820484D01*
X123992182Y-67824949D01*
X123820213Y-67949890D01*
X123669890Y-68100213D01*
X123544951Y-68272179D01*
X123448444Y-68461585D01*
X123382753Y-68663760D01*
X123349500Y-68873713D01*
X123349500Y-69086286D01*
X123382753Y-69296239D01*
X123448444Y-69498414D01*
X123544951Y-69687820D01*
X123669890Y-69859786D01*
X123820213Y-70010109D01*
X123992182Y-70135050D01*
X124000946Y-70139516D01*
X124051742Y-70187491D01*
X124068536Y-70255312D01*
X124045998Y-70321447D01*
X124000946Y-70360484D01*
X123992182Y-70364949D01*
X123820213Y-70489890D01*
X123669890Y-70640213D01*
X123544951Y-70812179D01*
X123448444Y-71001585D01*
X123382753Y-71203760D01*
X123349500Y-71413713D01*
X123349500Y-71626286D01*
X123382753Y-71836239D01*
X123448444Y-72038414D01*
X123544951Y-72227820D01*
X123669890Y-72399786D01*
X123820213Y-72550109D01*
X123992182Y-72675050D01*
X124000946Y-72679516D01*
X124051742Y-72727491D01*
X124068536Y-72795312D01*
X124045998Y-72861447D01*
X124000946Y-72900484D01*
X123992182Y-72904949D01*
X123820213Y-73029890D01*
X123669890Y-73180213D01*
X123544951Y-73352179D01*
X123448444Y-73541585D01*
X123382753Y-73743760D01*
X123362414Y-73872179D01*
X123349500Y-73953713D01*
X123349500Y-74166287D01*
X123359534Y-74229644D01*
X123365959Y-74270208D01*
X123382754Y-74376243D01*
X123404178Y-74442180D01*
X123448444Y-74578414D01*
X123544951Y-74767820D01*
X123669890Y-74939786D01*
X123820213Y-75090109D01*
X123992182Y-75215050D01*
X124000946Y-75219516D01*
X124051742Y-75267491D01*
X124068536Y-75335312D01*
X124045998Y-75401447D01*
X124000946Y-75440484D01*
X123992182Y-75444949D01*
X123820213Y-75569890D01*
X123669890Y-75720213D01*
X123544951Y-75892179D01*
X123448444Y-76081585D01*
X123448443Y-76081587D01*
X123448443Y-76081588D01*
X123440029Y-76107483D01*
X123382753Y-76283760D01*
X123349500Y-76493713D01*
X123349500Y-76706286D01*
X123382753Y-76916239D01*
X123448444Y-77118414D01*
X123544951Y-77307820D01*
X123669890Y-77479786D01*
X123820213Y-77630109D01*
X123992182Y-77755050D01*
X124000946Y-77759516D01*
X124051742Y-77807491D01*
X124068536Y-77875312D01*
X124045998Y-77941447D01*
X124000946Y-77980484D01*
X123992182Y-77984949D01*
X123820213Y-78109890D01*
X123669890Y-78260213D01*
X123544951Y-78432179D01*
X123448444Y-78621585D01*
X123382753Y-78823760D01*
X123379381Y-78845051D01*
X123349500Y-79033713D01*
X123349500Y-79246287D01*
X123382754Y-79456243D01*
X123404262Y-79522439D01*
X123448444Y-79658414D01*
X123544951Y-79847820D01*
X123669890Y-80019786D01*
X123820213Y-80170109D01*
X123992182Y-80295050D01*
X124000946Y-80299516D01*
X124051742Y-80347491D01*
X124068536Y-80415312D01*
X124045998Y-80481447D01*
X124000946Y-80520484D01*
X123992182Y-80524949D01*
X123820213Y-80649890D01*
X123669890Y-80800213D01*
X123544951Y-80972179D01*
X123448444Y-81161585D01*
X123382753Y-81363760D01*
X123349500Y-81573713D01*
X123349500Y-81786286D01*
X123382753Y-81996239D01*
X123448444Y-82198414D01*
X123544951Y-82387820D01*
X123669890Y-82559786D01*
X123820213Y-82710109D01*
X123992182Y-82835050D01*
X124000946Y-82839516D01*
X124051742Y-82887491D01*
X124068536Y-82955312D01*
X124045998Y-83021447D01*
X124000946Y-83060484D01*
X123992182Y-83064949D01*
X123820213Y-83189890D01*
X123669890Y-83340213D01*
X123544951Y-83512179D01*
X123448444Y-83701585D01*
X123382753Y-83903760D01*
X123349500Y-84113713D01*
X123349500Y-84326286D01*
X123382753Y-84536239D01*
X123448444Y-84738414D01*
X123544951Y-84927820D01*
X123669890Y-85099786D01*
X123820213Y-85250109D01*
X123992182Y-85375050D01*
X124000946Y-85379516D01*
X124051742Y-85427491D01*
X124068536Y-85495312D01*
X124045998Y-85561447D01*
X124000946Y-85600484D01*
X123992182Y-85604949D01*
X123820213Y-85729890D01*
X123669890Y-85880213D01*
X123544951Y-86052179D01*
X123448444Y-86241585D01*
X123382753Y-86443760D01*
X123349500Y-86653713D01*
X123349500Y-86866286D01*
X123382753Y-87076239D01*
X123448444Y-87278414D01*
X123544951Y-87467820D01*
X123669890Y-87639786D01*
X123820213Y-87790109D01*
X123992182Y-87915050D01*
X124000946Y-87919516D01*
X124051742Y-87967491D01*
X124068536Y-88035312D01*
X124045998Y-88101447D01*
X124000946Y-88140484D01*
X123992182Y-88144949D01*
X123820213Y-88269890D01*
X123669890Y-88420213D01*
X123544951Y-88592179D01*
X123448444Y-88781585D01*
X123382753Y-88983760D01*
X123349500Y-89193713D01*
X123349500Y-89406286D01*
X123382753Y-89616239D01*
X123448444Y-89818414D01*
X123544951Y-90007820D01*
X123669890Y-90179786D01*
X123820213Y-90330109D01*
X123992182Y-90455050D01*
X124000946Y-90459516D01*
X124051742Y-90507491D01*
X124068536Y-90575312D01*
X124045998Y-90641447D01*
X124000946Y-90680484D01*
X123992182Y-90684949D01*
X123820213Y-90809890D01*
X123669890Y-90960213D01*
X123544951Y-91132179D01*
X123448444Y-91321585D01*
X123382753Y-91523760D01*
X123349500Y-91733713D01*
X123349500Y-91946286D01*
X123382753Y-92156239D01*
X123448444Y-92358414D01*
X123544951Y-92547820D01*
X123669890Y-92719786D01*
X123820213Y-92870109D01*
X123992179Y-92995048D01*
X123992181Y-92995049D01*
X123992184Y-92995051D01*
X124001493Y-92999794D01*
X124052290Y-93047766D01*
X124069087Y-93115587D01*
X124046552Y-93181722D01*
X124001505Y-93220760D01*
X123992446Y-93225376D01*
X123992440Y-93225380D01*
X123938282Y-93264727D01*
X123938282Y-93264728D01*
X124570591Y-93897037D01*
X124507007Y-93914075D01*
X124392993Y-93979901D01*
X124299901Y-94072993D01*
X124234075Y-94187007D01*
X124217037Y-94250591D01*
X123584728Y-93618282D01*
X123584727Y-93618282D01*
X123545380Y-93672439D01*
X123448904Y-93861782D01*
X123383242Y-94063869D01*
X123383242Y-94063872D01*
X123350000Y-94273753D01*
X123350000Y-94486246D01*
X123383242Y-94696127D01*
X123383242Y-94696130D01*
X123448904Y-94898217D01*
X123545375Y-95087550D01*
X123584728Y-95141716D01*
X124217037Y-94509408D01*
X124234075Y-94572993D01*
X124299901Y-94687007D01*
X124392993Y-94780099D01*
X124507007Y-94845925D01*
X124570591Y-94862962D01*
X123969971Y-95463581D01*
X124048711Y-95580895D01*
X124049920Y-95584729D01*
X124052844Y-95587491D01*
X124060343Y-95617778D01*
X124069727Y-95647529D01*
X124068671Y-95651408D01*
X124069638Y-95655312D01*
X124059573Y-95684844D01*
X124051383Y-95714947D01*
X124048397Y-95717640D01*
X124047100Y-95721447D01*
X124002051Y-95760483D01*
X123992440Y-95765380D01*
X123938282Y-95804727D01*
X123938282Y-95804728D01*
X124570591Y-96437037D01*
X124507007Y-96454075D01*
X124392993Y-96519901D01*
X124299901Y-96612993D01*
X124234075Y-96727007D01*
X124217037Y-96790591D01*
X123584728Y-96158282D01*
X123584727Y-96158282D01*
X123545380Y-96212439D01*
X123448904Y-96401782D01*
X123383242Y-96603869D01*
X123383242Y-96603872D01*
X123350000Y-96813753D01*
X123350000Y-97026246D01*
X123383242Y-97236127D01*
X123383242Y-97236130D01*
X123448904Y-97438217D01*
X123545375Y-97627550D01*
X123584728Y-97681716D01*
X124217037Y-97049408D01*
X124234075Y-97112993D01*
X124299901Y-97227007D01*
X124392993Y-97320099D01*
X124507007Y-97385925D01*
X124570590Y-97402962D01*
X123938282Y-98035269D01*
X123938282Y-98035270D01*
X123992449Y-98074624D01*
X124181782Y-98171095D01*
X124383870Y-98236757D01*
X124593754Y-98270000D01*
X124806246Y-98270000D01*
X125016127Y-98236757D01*
X125016130Y-98236757D01*
X125218217Y-98171095D01*
X125407554Y-98074622D01*
X125461716Y-98035270D01*
X125461717Y-98035270D01*
X124829408Y-97402962D01*
X124892993Y-97385925D01*
X125007007Y-97320099D01*
X125100099Y-97227007D01*
X125165925Y-97112993D01*
X125182962Y-97049409D01*
X125815270Y-97681717D01*
X125815270Y-97681716D01*
X125854622Y-97627554D01*
X125951095Y-97438217D01*
X126016757Y-97236130D01*
X126016757Y-97236127D01*
X126050000Y-97026246D01*
X126050000Y-96813753D01*
X126016757Y-96603872D01*
X126016757Y-96603869D01*
X125951095Y-96401782D01*
X125854624Y-96212449D01*
X125815270Y-96158282D01*
X125815269Y-96158282D01*
X125182962Y-96790590D01*
X125165925Y-96727007D01*
X125100099Y-96612993D01*
X125007007Y-96519901D01*
X124892993Y-96454075D01*
X124829409Y-96437037D01*
X125461716Y-95804728D01*
X125407550Y-95765375D01*
X125397954Y-95760486D01*
X125347157Y-95712512D01*
X125330361Y-95644692D01*
X125352897Y-95578556D01*
X125397954Y-95539514D01*
X125407554Y-95534622D01*
X125461716Y-95495270D01*
X125461717Y-95495270D01*
X124829408Y-94862962D01*
X124892993Y-94845925D01*
X125007007Y-94780099D01*
X125100099Y-94687007D01*
X125165925Y-94572993D01*
X125182962Y-94509409D01*
X125815270Y-95141717D01*
X125815270Y-95141716D01*
X125854622Y-95087554D01*
X125951095Y-94898217D01*
X126016757Y-94696130D01*
X126016757Y-94696127D01*
X126050000Y-94486246D01*
X126050000Y-94273753D01*
X126016757Y-94063872D01*
X126016757Y-94063869D01*
X125951095Y-93861782D01*
X125854624Y-93672449D01*
X125815270Y-93618282D01*
X125815269Y-93618282D01*
X125182962Y-94250590D01*
X125165925Y-94187007D01*
X125100099Y-94072993D01*
X125007007Y-93979901D01*
X124892993Y-93914075D01*
X124829409Y-93897037D01*
X125461716Y-93264728D01*
X125407547Y-93225373D01*
X125407547Y-93225372D01*
X125398500Y-93220763D01*
X125347706Y-93172788D01*
X125330912Y-93104966D01*
X125353451Y-93038832D01*
X125398508Y-92999793D01*
X125407816Y-92995051D01*
X125487007Y-92937515D01*
X125579786Y-92870109D01*
X125579788Y-92870106D01*
X125579792Y-92870104D01*
X125730104Y-92719792D01*
X125730106Y-92719788D01*
X125730109Y-92719786D01*
X125855048Y-92547820D01*
X125855047Y-92547820D01*
X125855051Y-92547816D01*
X125951557Y-92358412D01*
X126017246Y-92156243D01*
X126050500Y-91946287D01*
X126050500Y-91733713D01*
X126017246Y-91523757D01*
X125951557Y-91321588D01*
X125855051Y-91132184D01*
X125855049Y-91132181D01*
X125855048Y-91132179D01*
X125730109Y-90960213D01*
X125579786Y-90809890D01*
X125407820Y-90684951D01*
X125407115Y-90684591D01*
X125399054Y-90680485D01*
X125348259Y-90632512D01*
X125331463Y-90564692D01*
X125353999Y-90498556D01*
X125399054Y-90459515D01*
X125407816Y-90455051D01*
X125429789Y-90439086D01*
X125579786Y-90330109D01*
X125579788Y-90330106D01*
X125579792Y-90330104D01*
X125730104Y-90179792D01*
X125730106Y-90179788D01*
X125730109Y-90179786D01*
X125855048Y-90007820D01*
X125855047Y-90007820D01*
X125855051Y-90007816D01*
X125951557Y-89818412D01*
X126017246Y-89616243D01*
X126050500Y-89406287D01*
X126050500Y-89193713D01*
X126017246Y-88983757D01*
X125951557Y-88781588D01*
X125855051Y-88592184D01*
X125855049Y-88592181D01*
X125855048Y-88592179D01*
X125730109Y-88420213D01*
X125579786Y-88269890D01*
X125407820Y-88144951D01*
X125407115Y-88144591D01*
X125399054Y-88140485D01*
X125348259Y-88092512D01*
X125331463Y-88024692D01*
X125353999Y-87958556D01*
X125399054Y-87919515D01*
X125407816Y-87915051D01*
X125429789Y-87899086D01*
X125579786Y-87790109D01*
X125579788Y-87790106D01*
X125579792Y-87790104D01*
X125730104Y-87639792D01*
X125730106Y-87639788D01*
X125730109Y-87639786D01*
X125855048Y-87467820D01*
X125855047Y-87467820D01*
X125855051Y-87467816D01*
X125951557Y-87278412D01*
X126017246Y-87076243D01*
X126050500Y-86866287D01*
X126050500Y-86653713D01*
X126017246Y-86443757D01*
X125951557Y-86241588D01*
X125855051Y-86052184D01*
X125855049Y-86052181D01*
X125855048Y-86052179D01*
X125730109Y-85880213D01*
X125579786Y-85729890D01*
X125407820Y-85604951D01*
X125407115Y-85604591D01*
X125399054Y-85600485D01*
X125348259Y-85552512D01*
X125331463Y-85484692D01*
X125353999Y-85418556D01*
X125399054Y-85379515D01*
X125407816Y-85375051D01*
X125429789Y-85359086D01*
X125579786Y-85250109D01*
X125579788Y-85250106D01*
X125579792Y-85250104D01*
X125730104Y-85099792D01*
X125730106Y-85099788D01*
X125730109Y-85099786D01*
X125855048Y-84927820D01*
X125855047Y-84927820D01*
X125855051Y-84927816D01*
X125951557Y-84738412D01*
X126017246Y-84536243D01*
X126050500Y-84326287D01*
X126050500Y-84113713D01*
X126017246Y-83903757D01*
X125951557Y-83701588D01*
X125855051Y-83512184D01*
X125855049Y-83512181D01*
X125855048Y-83512179D01*
X125730109Y-83340213D01*
X125579786Y-83189890D01*
X125407820Y-83064951D01*
X125407115Y-83064591D01*
X125399054Y-83060485D01*
X125348259Y-83012512D01*
X125331463Y-82944692D01*
X125353999Y-82878556D01*
X125399054Y-82839515D01*
X125407816Y-82835051D01*
X125429789Y-82819086D01*
X125579786Y-82710109D01*
X125579788Y-82710106D01*
X125579792Y-82710104D01*
X125730104Y-82559792D01*
X125730106Y-82559788D01*
X125730109Y-82559786D01*
X125855048Y-82387820D01*
X125855047Y-82387820D01*
X125855051Y-82387816D01*
X125951557Y-82198412D01*
X126017246Y-81996243D01*
X126050500Y-81786287D01*
X126050500Y-81573713D01*
X126017246Y-81363757D01*
X125951557Y-81161588D01*
X125855051Y-80972184D01*
X125855049Y-80972181D01*
X125855048Y-80972179D01*
X125730109Y-80800213D01*
X125579786Y-80649890D01*
X125407820Y-80524951D01*
X125407115Y-80524591D01*
X125399054Y-80520485D01*
X125348259Y-80472512D01*
X125331463Y-80404692D01*
X125353999Y-80338556D01*
X125399054Y-80299515D01*
X125407816Y-80295051D01*
X125497353Y-80229999D01*
X125579786Y-80170109D01*
X125579788Y-80170106D01*
X125579792Y-80170104D01*
X125730104Y-80019792D01*
X125730106Y-80019788D01*
X125730109Y-80019786D01*
X125855048Y-79847820D01*
X125855047Y-79847820D01*
X125855051Y-79847816D01*
X125951557Y-79658412D01*
X126017246Y-79456243D01*
X126050500Y-79246287D01*
X126050500Y-79033713D01*
X126017246Y-78823757D01*
X125951557Y-78621588D01*
X125855051Y-78432184D01*
X125855049Y-78432181D01*
X125855048Y-78432179D01*
X125730109Y-78260213D01*
X125579786Y-78109890D01*
X125407820Y-77984951D01*
X125407115Y-77984591D01*
X125399054Y-77980485D01*
X125348259Y-77932512D01*
X125331463Y-77864692D01*
X125353999Y-77798556D01*
X125399054Y-77759515D01*
X125407816Y-77755051D01*
X125429789Y-77739086D01*
X125579786Y-77630109D01*
X125579788Y-77630106D01*
X125579792Y-77630104D01*
X125730104Y-77479792D01*
X125730106Y-77479788D01*
X125730109Y-77479786D01*
X125855048Y-77307820D01*
X125855047Y-77307820D01*
X125855051Y-77307816D01*
X125951557Y-77118412D01*
X126017246Y-76916243D01*
X126050500Y-76706287D01*
X126050500Y-76493713D01*
X126017246Y-76283757D01*
X125951557Y-76081588D01*
X125855051Y-75892184D01*
X125855049Y-75892181D01*
X125855048Y-75892179D01*
X125730109Y-75720213D01*
X125579786Y-75569890D01*
X125407820Y-75444951D01*
X125407115Y-75444591D01*
X125399054Y-75440485D01*
X125348259Y-75392512D01*
X125331463Y-75324692D01*
X125353999Y-75258556D01*
X125399054Y-75219515D01*
X125407816Y-75215051D01*
X125429789Y-75199086D01*
X125579786Y-75090109D01*
X125579788Y-75090106D01*
X125579792Y-75090104D01*
X125730104Y-74939792D01*
X125730106Y-74939788D01*
X125730109Y-74939786D01*
X125855048Y-74767820D01*
X125855047Y-74767820D01*
X125855051Y-74767816D01*
X125951557Y-74578412D01*
X126017246Y-74376243D01*
X126050500Y-74166287D01*
X126050500Y-73953713D01*
X126017246Y-73743757D01*
X125951557Y-73541588D01*
X125855051Y-73352184D01*
X125855049Y-73352181D01*
X125855048Y-73352179D01*
X125730109Y-73180213D01*
X125579786Y-73029890D01*
X125407820Y-72904951D01*
X125407115Y-72904591D01*
X125399054Y-72900485D01*
X125348259Y-72852512D01*
X125331463Y-72784692D01*
X125353999Y-72718556D01*
X125399054Y-72679515D01*
X125407816Y-72675051D01*
X125429789Y-72659086D01*
X125579786Y-72550109D01*
X125579788Y-72550106D01*
X125579792Y-72550104D01*
X125730104Y-72399792D01*
X125730106Y-72399788D01*
X125730109Y-72399786D01*
X125855048Y-72227820D01*
X125855047Y-72227820D01*
X125855051Y-72227816D01*
X125951557Y-72038412D01*
X126017246Y-71836243D01*
X126050500Y-71626287D01*
X126050500Y-71413713D01*
X126017246Y-71203757D01*
X125951557Y-71001588D01*
X125855051Y-70812184D01*
X125855049Y-70812181D01*
X125855048Y-70812179D01*
X125730109Y-70640213D01*
X125579786Y-70489890D01*
X125407820Y-70364951D01*
X125407115Y-70364591D01*
X125399054Y-70360485D01*
X125348259Y-70312512D01*
X125331463Y-70244692D01*
X125353999Y-70178556D01*
X125399054Y-70139515D01*
X125407816Y-70135051D01*
X125429789Y-70119086D01*
X125579786Y-70010109D01*
X125579788Y-70010106D01*
X125579792Y-70010104D01*
X125730104Y-69859792D01*
X125730106Y-69859788D01*
X125730109Y-69859786D01*
X125855048Y-69687820D01*
X125855047Y-69687820D01*
X125855051Y-69687816D01*
X125951557Y-69498412D01*
X126017246Y-69296243D01*
X126050500Y-69086287D01*
X126050500Y-68873713D01*
X126017246Y-68663757D01*
X125951557Y-68461588D01*
X125855051Y-68272184D01*
X125855049Y-68272181D01*
X125855048Y-68272179D01*
X125730109Y-68100213D01*
X125579786Y-67949890D01*
X125407820Y-67824951D01*
X125407115Y-67824591D01*
X125399054Y-67820485D01*
X125348259Y-67772512D01*
X125331463Y-67704692D01*
X125353999Y-67638556D01*
X125399054Y-67599515D01*
X125407816Y-67595051D01*
X125480589Y-67542179D01*
X125579786Y-67470109D01*
X125579788Y-67470106D01*
X125579792Y-67470104D01*
X125730104Y-67319792D01*
X125730106Y-67319788D01*
X125730109Y-67319786D01*
X125855048Y-67147820D01*
X125855047Y-67147820D01*
X125855051Y-67147816D01*
X125951557Y-66958412D01*
X126017246Y-66756243D01*
X126050500Y-66546287D01*
X126050500Y-66333713D01*
X126017246Y-66123757D01*
X125951557Y-65921588D01*
X125855051Y-65732184D01*
X125855049Y-65732181D01*
X125855048Y-65732179D01*
X125730109Y-65560213D01*
X125579786Y-65409890D01*
X125407820Y-65284951D01*
X125407115Y-65284591D01*
X125399054Y-65280485D01*
X125348259Y-65232512D01*
X125331463Y-65164692D01*
X125353999Y-65098556D01*
X125399054Y-65059515D01*
X125407816Y-65055051D01*
X125480589Y-65002179D01*
X125579786Y-64930109D01*
X125579788Y-64930106D01*
X125579792Y-64930104D01*
X125730104Y-64779792D01*
X125730106Y-64779788D01*
X125730109Y-64779786D01*
X125855048Y-64607820D01*
X125855047Y-64607820D01*
X125855051Y-64607816D01*
X125951557Y-64418412D01*
X126017246Y-64216243D01*
X126050500Y-64006287D01*
X126050500Y-63793713D01*
X126017246Y-63583757D01*
X125951557Y-63381588D01*
X125855051Y-63192184D01*
X125855049Y-63192181D01*
X125855048Y-63192179D01*
X125730109Y-63020213D01*
X125579786Y-62869890D01*
X125407820Y-62744951D01*
X125407115Y-62744591D01*
X125399054Y-62740485D01*
X125348259Y-62692512D01*
X125331463Y-62624692D01*
X125353999Y-62558556D01*
X125399054Y-62519515D01*
X125407816Y-62515051D01*
X125480589Y-62462179D01*
X125579786Y-62390109D01*
X125579788Y-62390106D01*
X125579792Y-62390104D01*
X125730104Y-62239792D01*
X125730106Y-62239788D01*
X125730109Y-62239786D01*
X125855048Y-62067820D01*
X125855047Y-62067820D01*
X125855051Y-62067816D01*
X125951557Y-61878412D01*
X126017246Y-61676243D01*
X126050500Y-61466287D01*
X126050500Y-61253713D01*
X126017246Y-61043757D01*
X125951557Y-60841588D01*
X125855051Y-60652184D01*
X125855049Y-60652181D01*
X125855048Y-60652179D01*
X125730109Y-60480213D01*
X125579786Y-60329890D01*
X125407820Y-60204951D01*
X125407115Y-60204591D01*
X125399054Y-60200485D01*
X125348259Y-60152512D01*
X125331463Y-60084692D01*
X125353999Y-60018556D01*
X125399054Y-59979515D01*
X125407816Y-59975051D01*
X125480231Y-59922439D01*
X125579786Y-59850109D01*
X125579788Y-59850106D01*
X125579792Y-59850104D01*
X125730104Y-59699792D01*
X125730106Y-59699788D01*
X125730109Y-59699786D01*
X125855048Y-59527820D01*
X125855047Y-59527820D01*
X125855051Y-59527816D01*
X125951557Y-59338412D01*
X126017246Y-59136243D01*
X126050500Y-58926287D01*
X126050500Y-58713713D01*
X126017246Y-58503757D01*
X125951557Y-58301588D01*
X125855051Y-58112184D01*
X125855049Y-58112181D01*
X125855048Y-58112179D01*
X125730109Y-57940213D01*
X125579786Y-57789890D01*
X125407820Y-57664951D01*
X125407115Y-57664591D01*
X125399054Y-57660485D01*
X125348259Y-57612512D01*
X125331463Y-57544692D01*
X125353999Y-57478556D01*
X125399054Y-57439515D01*
X125407816Y-57435051D01*
X125480589Y-57382179D01*
X125579786Y-57310109D01*
X125579788Y-57310106D01*
X125579792Y-57310104D01*
X125730104Y-57159792D01*
X125730106Y-57159788D01*
X125730109Y-57159786D01*
X125839086Y-57009789D01*
X125855051Y-56987816D01*
X125951557Y-56798412D01*
X126017246Y-56596243D01*
X126050500Y-56386287D01*
X126050500Y-56173713D01*
X126017246Y-55963757D01*
X125951557Y-55761588D01*
X125855051Y-55572184D01*
X125855049Y-55572181D01*
X125855048Y-55572179D01*
X125730109Y-55400213D01*
X125579786Y-55249890D01*
X125407820Y-55124951D01*
X125407115Y-55124591D01*
X125399054Y-55120485D01*
X125348259Y-55072512D01*
X125331463Y-55004692D01*
X125353999Y-54938556D01*
X125399054Y-54899515D01*
X125407816Y-54895051D01*
X125480589Y-54842179D01*
X125579786Y-54770109D01*
X125579788Y-54770106D01*
X125579792Y-54770104D01*
X125730104Y-54619792D01*
X125730106Y-54619788D01*
X125730109Y-54619786D01*
X125855048Y-54447820D01*
X125855047Y-54447820D01*
X125855051Y-54447816D01*
X125951557Y-54258412D01*
X126017246Y-54056243D01*
X126050500Y-53846287D01*
X126050500Y-53633713D01*
X126017246Y-53423757D01*
X125951557Y-53221588D01*
X125855051Y-53032184D01*
X125855049Y-53032181D01*
X125855048Y-53032179D01*
X125730109Y-52860213D01*
X125579786Y-52709890D01*
X125407820Y-52584951D01*
X125407115Y-52584591D01*
X125399054Y-52580485D01*
X125348259Y-52532512D01*
X125331463Y-52464692D01*
X125353999Y-52398556D01*
X125399054Y-52359515D01*
X125407816Y-52355051D01*
X125429789Y-52339086D01*
X125579786Y-52230109D01*
X125579788Y-52230106D01*
X125579792Y-52230104D01*
X125730104Y-52079792D01*
X125730106Y-52079788D01*
X125730109Y-52079786D01*
X125855048Y-51907820D01*
X125855047Y-51907820D01*
X125855051Y-51907816D01*
X125951557Y-51718412D01*
X126017246Y-51516243D01*
X126050500Y-51306287D01*
X126050500Y-51093713D01*
X126017246Y-50883757D01*
X125951557Y-50681588D01*
X125855051Y-50492184D01*
X125855049Y-50492181D01*
X125855048Y-50492179D01*
X125730109Y-50320213D01*
X125579786Y-50169890D01*
X125407820Y-50044951D01*
X125407115Y-50044591D01*
X125399054Y-50040485D01*
X125348259Y-49992512D01*
X125331463Y-49924692D01*
X125353999Y-49858556D01*
X125399054Y-49819515D01*
X125407816Y-49815051D01*
X125429789Y-49799086D01*
X125579786Y-49690109D01*
X125579788Y-49690106D01*
X125579792Y-49690104D01*
X125730104Y-49539792D01*
X125730106Y-49539788D01*
X125730109Y-49539786D01*
X125855048Y-49367820D01*
X125855047Y-49367820D01*
X125855051Y-49367816D01*
X125951557Y-49178412D01*
X126017246Y-48976243D01*
X126050500Y-48766287D01*
X126050500Y-48553713D01*
X126017246Y-48343757D01*
X125951557Y-48141588D01*
X125855051Y-47952184D01*
X125855049Y-47952181D01*
X125855048Y-47952179D01*
X125730109Y-47780213D01*
X125579786Y-47629890D01*
X125407820Y-47504951D01*
X125407115Y-47504591D01*
X125399054Y-47500485D01*
X125348259Y-47452512D01*
X125331463Y-47384692D01*
X125353999Y-47318556D01*
X125399054Y-47279515D01*
X125407816Y-47275051D01*
X125524211Y-47190486D01*
X125579786Y-47150109D01*
X125579788Y-47150106D01*
X125579792Y-47150104D01*
X125730104Y-46999792D01*
X125730106Y-46999788D01*
X125730109Y-46999786D01*
X125855048Y-46827820D01*
X125855047Y-46827820D01*
X125855051Y-46827816D01*
X125951557Y-46638412D01*
X126017246Y-46436243D01*
X126050500Y-46226287D01*
X126050500Y-46013713D01*
X126017246Y-45803757D01*
X125951557Y-45601588D01*
X125855051Y-45412184D01*
X125855049Y-45412181D01*
X125855048Y-45412179D01*
X125730109Y-45240213D01*
X125579786Y-45089890D01*
X125407817Y-44964949D01*
X125398504Y-44960204D01*
X125347707Y-44912230D01*
X125330912Y-44844409D01*
X125353449Y-44778274D01*
X125398507Y-44739232D01*
X125407555Y-44734622D01*
X125461716Y-44695270D01*
X125461717Y-44695270D01*
X124829408Y-44062962D01*
X124892993Y-44045925D01*
X125007007Y-43980099D01*
X125100099Y-43887007D01*
X125165925Y-43772993D01*
X125182962Y-43709408D01*
X125815270Y-44341717D01*
X125815270Y-44341716D01*
X125854622Y-44287554D01*
X125951095Y-44098217D01*
X126016757Y-43896130D01*
X126016757Y-43896127D01*
X126050000Y-43686246D01*
X126050000Y-43473753D01*
X126016757Y-43263872D01*
X126016757Y-43263869D01*
X125951095Y-43061782D01*
X125854624Y-42872449D01*
X125815270Y-42818282D01*
X125815269Y-42818282D01*
X125182962Y-43450590D01*
X125165925Y-43387007D01*
X125100099Y-43272993D01*
X125007007Y-43179901D01*
X124892993Y-43114075D01*
X124829409Y-43097037D01*
X125461716Y-42464728D01*
X125407550Y-42425375D01*
X125218217Y-42328904D01*
X125016129Y-42263242D01*
X124806246Y-42230000D01*
X124593754Y-42230000D01*
X124383872Y-42263242D01*
X124383869Y-42263242D01*
X124181782Y-42328904D01*
X123992439Y-42425380D01*
X123938282Y-42464727D01*
X123938282Y-42464728D01*
X124570591Y-43097037D01*
X124507007Y-43114075D01*
X124392993Y-43179901D01*
X124299901Y-43272993D01*
X124234075Y-43387007D01*
X124217037Y-43450591D01*
X123584728Y-42818282D01*
X123584727Y-42818282D01*
X123545380Y-42872439D01*
X123448904Y-43061782D01*
X123383242Y-43263869D01*
X123383242Y-43263872D01*
X123350000Y-43473753D01*
X123350000Y-43686246D01*
X123383242Y-43896127D01*
X123383242Y-43896130D01*
X123448904Y-44098217D01*
X123545375Y-44287550D01*
X123584728Y-44341716D01*
X124217037Y-43709408D01*
X124234075Y-43772993D01*
X124299901Y-43887007D01*
X124392993Y-43980099D01*
X124507007Y-44045925D01*
X124570590Y-44062962D01*
X123938282Y-44695269D01*
X123938282Y-44695270D01*
X123992452Y-44734626D01*
X123992451Y-44734626D01*
X124001495Y-44739234D01*
X124052292Y-44787208D01*
X124069087Y-44855029D01*
X124046550Y-44921164D01*
X124001499Y-44960202D01*
X123992182Y-44964949D01*
X123820213Y-45089890D01*
X123669890Y-45240213D01*
X123544951Y-45412179D01*
X123448444Y-45601585D01*
X123382753Y-45803760D01*
X123349500Y-46013713D01*
X100650500Y-46013713D01*
X100617246Y-45803757D01*
X100551557Y-45601588D01*
X100455051Y-45412184D01*
X100455049Y-45412181D01*
X100455048Y-45412179D01*
X100330109Y-45240213D01*
X100216569Y-45126673D01*
X100183084Y-45065350D01*
X100188068Y-44995658D01*
X100229940Y-44939725D01*
X100260915Y-44922810D01*
X100392331Y-44873796D01*
X100507546Y-44787546D01*
X100593796Y-44672331D01*
X100644091Y-44537483D01*
X100650500Y-44477873D01*
X100650499Y-42682128D01*
X100644091Y-42622517D01*
X100607617Y-42524726D01*
X100593798Y-42487673D01*
X100593793Y-42487664D01*
X100507547Y-42372455D01*
X100507544Y-42372452D01*
X100392335Y-42286206D01*
X100392328Y-42286202D01*
X100257482Y-42235908D01*
X100257483Y-42235908D01*
X100197883Y-42229501D01*
X100197881Y-42229500D01*
X100197873Y-42229500D01*
X100197864Y-42229500D01*
X98402129Y-42229500D01*
X98402123Y-42229501D01*
X98342516Y-42235908D01*
X98207671Y-42286202D01*
X98207664Y-42286206D01*
X98092455Y-42372452D01*
X98092452Y-42372455D01*
X98006206Y-42487664D01*
X98006202Y-42487671D01*
X97955908Y-42622517D01*
X97949501Y-42682116D01*
X97949501Y-42682123D01*
X97949500Y-42682135D01*
X90466169Y-42682135D01*
X90461053Y-42672095D01*
X90405051Y-42562184D01*
X90397023Y-42551134D01*
X90280109Y-42390213D01*
X90129786Y-42239890D01*
X89957817Y-42114949D01*
X89948504Y-42110204D01*
X89897707Y-42062230D01*
X89880912Y-41994409D01*
X89903449Y-41928274D01*
X89948507Y-41889232D01*
X89957555Y-41884622D01*
X90011716Y-41845270D01*
X90011717Y-41845270D01*
X89379408Y-41212962D01*
X89442993Y-41195925D01*
X89557007Y-41130099D01*
X89650099Y-41037007D01*
X89715925Y-40922993D01*
X89732962Y-40859409D01*
X90365270Y-41491717D01*
X90365270Y-41491716D01*
X90404622Y-41437554D01*
X90501095Y-41248217D01*
X90566757Y-41046130D01*
X90566757Y-41046127D01*
X90600000Y-40836246D01*
X90600000Y-40623753D01*
X90566757Y-40413872D01*
X90566757Y-40413869D01*
X90501095Y-40211782D01*
X90404624Y-40022449D01*
X90365270Y-39968282D01*
X90365269Y-39968282D01*
X89732962Y-40600590D01*
X89715925Y-40537007D01*
X89650099Y-40422993D01*
X89557007Y-40329901D01*
X89442993Y-40264075D01*
X89379409Y-40247037D01*
X90011716Y-39614728D01*
X89957547Y-39575373D01*
X89957547Y-39575372D01*
X89948500Y-39570763D01*
X89897706Y-39522788D01*
X89880912Y-39454966D01*
X89903451Y-39388832D01*
X89948508Y-39349793D01*
X89957816Y-39345051D01*
X90037007Y-39287515D01*
X90129786Y-39220109D01*
X90129788Y-39220106D01*
X90129792Y-39220104D01*
X90280104Y-39069792D01*
X90280106Y-39069788D01*
X90280109Y-39069786D01*
X90405048Y-38897820D01*
X90405047Y-38897820D01*
X90405051Y-38897816D01*
X90501557Y-38708412D01*
X90567246Y-38506243D01*
X90600500Y-38296287D01*
X90600500Y-38083713D01*
X90567246Y-37873757D01*
X90501557Y-37671588D01*
X90405051Y-37482184D01*
X90405049Y-37482181D01*
X90405048Y-37482179D01*
X90280109Y-37310213D01*
X90166569Y-37196673D01*
X90133084Y-37135350D01*
X90138068Y-37065658D01*
X90179940Y-37009725D01*
X90210915Y-36992810D01*
X90342331Y-36943796D01*
X90457546Y-36857546D01*
X90543796Y-36742331D01*
X90594091Y-36607483D01*
X90600500Y-36547873D01*
X90600499Y-34752128D01*
X90594091Y-34692517D01*
X90561929Y-34606287D01*
X90543797Y-34557671D01*
X90543793Y-34557664D01*
X90457547Y-34442455D01*
X90457544Y-34442452D01*
X90342335Y-34356206D01*
X90342328Y-34356202D01*
X90207482Y-34305908D01*
X90207483Y-34305908D01*
X90147883Y-34299501D01*
X90147881Y-34299500D01*
X90147873Y-34299500D01*
X90147864Y-34299500D01*
X88352129Y-34299500D01*
X88352123Y-34299501D01*
X88292516Y-34305908D01*
X88157671Y-34356202D01*
X88157664Y-34356206D01*
X88042455Y-34442452D01*
X88042452Y-34442455D01*
X87956206Y-34557664D01*
X87956202Y-34557671D01*
X87905908Y-34692517D01*
X87899501Y-34752116D01*
X87899501Y-34752123D01*
X87899500Y-34752135D01*
X80262031Y-34752135D01*
X80129792Y-34619896D01*
X80129786Y-34619890D01*
X79957820Y-34494951D01*
X79768414Y-34398444D01*
X79768413Y-34398443D01*
X79768412Y-34398443D01*
X79566243Y-34332754D01*
X79566241Y-34332753D01*
X79566240Y-34332753D01*
X79404957Y-34307208D01*
X79356287Y-34299500D01*
X79143713Y-34299500D01*
X79095042Y-34307208D01*
X78933760Y-34332753D01*
X78731585Y-34398444D01*
X78542179Y-34494951D01*
X78370213Y-34619890D01*
X78219890Y-34770213D01*
X78094951Y-34942179D01*
X77998444Y-35131585D01*
X77932753Y-35333760D01*
X77899500Y-35543713D01*
X60361061Y-35543713D01*
X60379786Y-35530109D01*
X60379788Y-35530106D01*
X60379792Y-35530104D01*
X60530104Y-35379792D01*
X60530106Y-35379788D01*
X60530109Y-35379786D01*
X60655048Y-35207820D01*
X60655047Y-35207820D01*
X60655051Y-35207816D01*
X60751557Y-35018412D01*
X60817246Y-34816243D01*
X60850500Y-34606287D01*
X60850500Y-34393713D01*
X60817246Y-34183757D01*
X60804235Y-34143713D01*
X124149500Y-34143713D01*
X124149500Y-34356287D01*
X124182754Y-34566243D01*
X124243154Y-34752135D01*
X124248444Y-34768414D01*
X124344951Y-34957820D01*
X124469890Y-35129786D01*
X124620213Y-35280109D01*
X124792179Y-35405048D01*
X124792181Y-35405049D01*
X124792184Y-35405051D01*
X124981588Y-35501557D01*
X125183757Y-35567246D01*
X125393713Y-35600500D01*
X125393714Y-35600500D01*
X125606286Y-35600500D01*
X125606287Y-35600500D01*
X125816243Y-35567246D01*
X126018412Y-35501557D01*
X126207816Y-35405051D01*
X126242591Y-35379786D01*
X126379786Y-35280109D01*
X126379788Y-35280106D01*
X126379792Y-35280104D01*
X126530104Y-35129792D01*
X126530106Y-35129788D01*
X126530109Y-35129786D01*
X126655048Y-34957820D01*
X126655047Y-34957820D01*
X126655051Y-34957816D01*
X126751557Y-34768412D01*
X126817246Y-34566243D01*
X126850500Y-34356287D01*
X126850500Y-34143713D01*
X126817246Y-33933757D01*
X126751557Y-33731588D01*
X126655051Y-33542184D01*
X126655049Y-33542181D01*
X126655048Y-33542179D01*
X126530109Y-33370213D01*
X126379786Y-33219890D01*
X126207820Y-33094951D01*
X126018414Y-32998444D01*
X126018413Y-32998443D01*
X126018412Y-32998443D01*
X125816243Y-32932754D01*
X125816241Y-32932753D01*
X125816240Y-32932753D01*
X125654957Y-32907208D01*
X125606287Y-32899500D01*
X125393713Y-32899500D01*
X125345042Y-32907208D01*
X125183760Y-32932753D01*
X124981585Y-32998444D01*
X124792179Y-33094951D01*
X124620213Y-33219890D01*
X124469890Y-33370213D01*
X124344951Y-33542179D01*
X124248444Y-33731585D01*
X124182753Y-33933760D01*
X124175178Y-33981588D01*
X124149500Y-34143713D01*
X60804235Y-34143713D01*
X60751557Y-33981588D01*
X60655051Y-33792184D01*
X60655049Y-33792181D01*
X60655048Y-33792179D01*
X60530109Y-33620213D01*
X60379786Y-33469890D01*
X60207820Y-33344951D01*
X60018414Y-33248444D01*
X60018413Y-33248443D01*
X60018412Y-33248443D01*
X59816243Y-33182754D01*
X59816241Y-33182753D01*
X59816240Y-33182753D01*
X59654957Y-33157208D01*
X59606287Y-33149500D01*
X59393713Y-33149500D01*
X59345042Y-33157208D01*
X59183760Y-33182753D01*
X58981585Y-33248444D01*
X58792179Y-33344951D01*
X58620213Y-33469890D01*
X58469890Y-33620213D01*
X58344951Y-33792179D01*
X58248444Y-33981585D01*
X58182753Y-34183760D01*
X58155428Y-34356286D01*
X58149500Y-34393713D01*
X56000500Y-34393713D01*
X56000500Y-31124500D01*
X56020185Y-31057461D01*
X56072989Y-31011706D01*
X56124500Y-31000500D01*
X128375500Y-31000500D01*
X128442539Y-31020185D01*
G37*
%TD.AperFunction*%
%TD*%
M02*
