M48
; DRILL file KiCad 10.0.0 date 2026-07-19T14:50:55
; FORMAT={-:-/ absolute / metric / decimal}
; #@! TF.CreationDate,2026-07-19T14:50:55-05:00
; #@! TF.GenerationSoftware,Kicad,Pcbnew,10.0.0
; #@! TF.FileFunction,MixedPlating,1,2
FMAT,2
METRIC
; #@! TA.AperFunction,Plated,PTH,ViaDrill
T1C0.300
; #@! TA.AperFunction,Plated,PTH,ComponentDrill
T2C1.000
; #@! TA.AperFunction,Plated,PTH,ComponentDrill
T3C1.100
; #@! TA.AperFunction,Plated,PTH,ComponentDrill
T4C1.800
; #@! TA.AperFunction,NonPlated,NPTH,ComponentDrill
T5C2.200
%
G90
G05
T1
X73.25Y-80.5
X74.0Y-96.0
X74.75Y-65.25
X76.0Y-42.75
X76.25Y-46.75
X76.25Y-122.5
X78.0Y-95.5
X79.25Y-52.25
X79.25Y-71.5
X79.25Y-90.75
X80.25Y-119.0
X84.25Y-43.25
X84.25Y-63.25
X84.5Y-82.75
X85.75Y-104.0
X89.25Y-52.0
X89.25Y-71.75
X89.25Y-91.25
X92.5Y-43.25
X93.0Y-62.5
X93.75Y-79.75
T2
X60.25Y-116.71
X60.25Y-119.25
X60.75Y-54.26
X60.75Y-56.8
X60.75Y-59.34
X60.75Y-61.88
X60.75Y-64.42
X60.75Y-66.96
X60.75Y-69.5
X60.75Y-72.04
X60.75Y-74.58
X60.75Y-77.12
X60.75Y-79.66
X60.75Y-82.2
X60.75Y-84.74
X60.75Y-87.28
X60.75Y-89.82
X60.75Y-96.5
X68.0Y-54.26
X68.0Y-56.8
X68.0Y-59.34
X68.0Y-61.88
X68.0Y-64.42
X68.0Y-66.96
X68.0Y-69.5
X68.0Y-72.04
X68.0Y-74.58
X68.0Y-77.12
X68.0Y-79.66
X68.0Y-82.2
X68.0Y-84.74
X68.0Y-87.28
X68.0Y-89.82
X79.25Y-35.65
X79.25Y-38.19
X79.25Y-40.73
X79.25Y-43.27
X79.25Y-45.81
X79.25Y-48.35
X79.31Y-55.55
X79.31Y-58.09
X79.31Y-60.63
X79.31Y-63.17
X79.31Y-65.71
X79.31Y-68.25
X79.31Y-75.15
X79.31Y-77.69
X79.31Y-80.23
X79.31Y-82.77
X79.31Y-85.31
X79.31Y-87.85
X79.31Y-94.3
X79.31Y-96.84
X79.31Y-99.38
X79.31Y-101.92
X79.31Y-104.46
X79.31Y-107.0
X89.25Y-35.65
X89.25Y-38.19
X89.25Y-40.73
X89.25Y-43.27
X89.25Y-45.81
X89.25Y-48.35
X89.31Y-55.55
X89.31Y-58.09
X89.31Y-60.63
X89.31Y-63.17
X89.31Y-65.71
X89.31Y-68.25
X89.31Y-75.15
X89.31Y-77.69
X89.31Y-80.23
X89.31Y-82.77
X89.31Y-85.31
X89.31Y-87.85
X89.31Y-94.3
X89.31Y-96.84
X89.31Y-99.38
X89.31Y-101.92
X89.31Y-104.46
X89.31Y-107.0
X99.3Y-43.58
X99.3Y-46.12
X99.3Y-48.66
X99.3Y-51.2
X99.3Y-53.74
X99.3Y-56.28
X99.3Y-58.82
X99.3Y-61.36
X99.3Y-63.9
X99.3Y-66.44
X99.3Y-68.98
X99.3Y-71.52
X99.3Y-74.06
X99.3Y-76.6
X99.3Y-79.14
X99.3Y-81.68
X99.3Y-84.22
X99.3Y-86.76
X99.3Y-89.3
X99.3Y-91.84
X99.3Y-94.38
X99.3Y-96.92
X124.7Y-43.58
X124.7Y-46.12
X124.7Y-48.66
X124.7Y-51.2
X124.7Y-53.74
X124.7Y-56.28
X124.7Y-58.82
X124.7Y-61.36
X124.7Y-63.9
X124.7Y-66.44
X124.7Y-68.98
X124.7Y-71.52
X124.7Y-74.06
X124.7Y-76.6
X124.7Y-79.14
X124.7Y-81.68
X124.7Y-84.22
X124.7Y-86.76
X124.7Y-89.3
X124.7Y-91.84
X124.7Y-94.38
X124.7Y-96.92
T3
X83.405Y-119.0
X87.215Y-119.0
X91.025Y-119.0
X94.835Y-119.0
T4
X64.87Y-119.25
X68.83Y-119.25
X72.79Y-119.25
X76.75Y-119.25
T5
X59.25Y-126.5
X59.5Y-34.5
X125.25Y-126.5
X125.5Y-34.25
M30
