%TF.GenerationSoftware,KiCad,Pcbnew,10.0.0*%
%TF.CreationDate,2026-08-07T11:18:25-05:00*%
%TF.ProjectId,ti99-kb-adapter,74693939-2d6b-4622-9d61-646170746572,rev?*%
%TF.SameCoordinates,Original*%
%TF.FileFunction,Copper,L2,Bot*%
%TF.FilePolarity,Positive*%
%FSLAX46Y46*%
G04 Gerber Fmt 4.6, Leading zero omitted, Abs format (unit mm)*
G04 Created by KiCad (PCBNEW 10.0.0) date 2026-08-07 11:18:25*
%MOMM*%
%LPD*%
G01*
G04 APERTURE LIST*
G04 Aperture macros list*
%AMRoundRect*
0 Rectangle with rounded corners*
0 $1 Rounding radius*
0 $2 $3 $4 $5 $6 $7 $8 $9 X,Y pos of 4 corners*
0 Add a 4 corners polygon primitive as box body*
4,1,4,$2,$3,$4,$5,$6,$7,$8,$9,$2,$3,0*
0 Add four circle primitives for the rounded corners*
1,1,$1+$1,$2,$3*
1,1,$1+$1,$4,$5*
1,1,$1+$1,$6,$7*
1,1,$1+$1,$8,$9*
0 Add four rect primitives between the rounded corners*
20,1,$1+$1,$2,$3,$4,$5,0*
20,1,$1+$1,$4,$5,$6,$7,0*
20,1,$1+$1,$6,$7,$8,$9,0*
20,1,$1+$1,$8,$9,$2,$3,0*%
G04 Aperture macros list end*
%TA.AperFunction,ComponentPad*%
%ADD10R,1.700000X1.700000*%
%TD*%
%TA.AperFunction,ComponentPad*%
%ADD11C,1.700000*%
%TD*%
%TA.AperFunction,ComponentPad*%
%ADD12RoundRect,0.250000X-1.330000X-1.850000X1.330000X-1.850000X1.330000X1.850000X-1.330000X1.850000X0*%
%TD*%
%TA.AperFunction,ComponentPad*%
%ADD13O,3.160000X4.200000*%
%TD*%
%TA.AperFunction,ComponentPad*%
%ADD14R,2.200000X2.200000*%
%TD*%
%TA.AperFunction,ComponentPad*%
%ADD15C,2.200000*%
%TD*%
%TA.AperFunction,ViaPad*%
%ADD16C,0.600000*%
%TD*%
G04 APERTURE END LIST*
D10*
%TO.P,J10,1,Pin_1_1*%
%TO.N,/INT5*%
X67950000Y-67640000D03*
D11*
%TO.P,J10,2,Pin_2_2*%
%TO.N,/INT6*%
X67950000Y-70180000D03*
%TO.P,J10,3,Pin_3_3*%
%TO.N,/INT8*%
X67950000Y-72720000D03*
%TO.P,J10,4,Pin_4_4*%
%TO.N,/INT4*%
X67950000Y-75260000D03*
%TO.P,J10,5,Pin_5_5*%
%TO.N,/INT3*%
X67950000Y-77800000D03*
%TO.P,J10,6,Pin_6_6*%
%TO.N,/INT9*%
X67950000Y-80340000D03*
%TO.P,J10,7,Pin_7_7*%
%TO.N,/INT7*%
X67950000Y-82880000D03*
%TO.P,J10,8,Pin_8_8*%
%TO.N,/1Y1*%
X67950000Y-85420000D03*
%TO.P,J10,9,Pin_9_9*%
%TO.N,/1Y0*%
X67950000Y-87960000D03*
%TO.P,J10,10,Pin_10_10*%
%TO.N,/ALPHA_LOCK*%
X67950000Y-90500000D03*
%TO.P,J10,11,Pin_11_11*%
%TO.N,/INT10*%
X67950000Y-93040000D03*
%TO.P,J10,12,Pin_12_12*%
%TO.N,/2Y0*%
X67950000Y-95580000D03*
%TO.P,J10,13,Pin_13_13*%
%TO.N,/2Y1*%
X67950000Y-98120000D03*
%TO.P,J10,14,Pin_14_14*%
%TO.N,/2Y2*%
X67950000Y-100660000D03*
%TO.P,J10,15,Pin_15_15*%
%TO.N,/2Y3*%
X67950000Y-103200000D03*
%TD*%
D12*
%TO.P,J14,1,Pin_1_1*%
%TO.N,+5V*%
X77040000Y-39500000D03*
D13*
%TO.P,J14,2,Pin_2_2*%
%TO.N,GND*%
X81000000Y-39500000D03*
%TO.P,J14,3,Pin_3_3*%
%TO.N,/PSU_+12V*%
X84960000Y-39500000D03*
%TO.P,J14,4,Pin_4_4*%
%TO.N,/PSU_-5V*%
X88920000Y-39500000D03*
%TD*%
D10*
%TO.P,J15,1,Pin_1_1*%
%TO.N,/SPARE*%
X61000000Y-109800000D03*
%TD*%
%TO.P,U1,1,3V3_1*%
%TO.N,+3V3*%
X98000000Y-61900000D03*
D11*
%TO.P,U1,2,3V3_2*%
X98000000Y-64440000D03*
%TO.P,U1,3,EN_3*%
%TO.N,unconnected-(U1A-EN-Pad3)*%
X98000000Y-66980000D03*
%TO.P,U1,4,IO4_4*%
%TO.N,/INT5_LV*%
X98000000Y-69520000D03*
%TO.P,U1,5,IO5_5*%
%TO.N,/INT6_LV*%
X98000000Y-72060000D03*
%TO.P,U1,6,IO6_6*%
%TO.N,/INT8_LV*%
X98000000Y-74600000D03*
%TO.P,U1,7,IO7_7*%
%TO.N,/INT4_LV*%
X98000000Y-77140000D03*
%TO.P,U1,8,IO15_8*%
%TO.N,/INT3_LV*%
X98000000Y-79680000D03*
%TO.P,U1,9,IO16_9*%
%TO.N,/INT9_LV*%
X98000000Y-82220000D03*
%TO.P,U1,10,IO17_10*%
%TO.N,/INT7_LV*%
X98000000Y-84760000D03*
%TO.P,U1,11,IO18_11*%
%TO.N,/1Y1_LV*%
X98000000Y-87300000D03*
%TO.P,U1,12,IO8_12*%
%TO.N,/1Y0_LV*%
X98000000Y-89840000D03*
%TO.P,U1,13,IO3_13*%
%TO.N,/ALPHA_LOCK_LV*%
X98000000Y-92380000D03*
%TO.P,U1,14,IO46_14*%
%TO.N,unconnected-(U1A-IO46-Pad14)*%
X98000000Y-94920000D03*
%TO.P,U1,15,IO9_15*%
%TO.N,/INT10_LV*%
X98000000Y-97460000D03*
%TO.P,U1,16,IO10_16*%
%TO.N,/2Y0_LV*%
X98000000Y-100000000D03*
%TO.P,U1,17,IO11_17*%
%TO.N,/2Y1_LV*%
X98000000Y-102540000D03*
%TO.P,U1,18,IO12_18*%
%TO.N,/2Y2_LV*%
X98000000Y-105080000D03*
%TO.P,U1,19,IO13_19*%
%TO.N,/2Y3_LV*%
X98000000Y-107620000D03*
%TO.P,U1,20,IO14_20*%
%TO.N,/SPARE_LV*%
X98000000Y-110160000D03*
%TO.P,U1,21,5V_21*%
%TO.N,+5V*%
X98000000Y-112700000D03*
%TO.P,U1,22,GND_22*%
%TO.N,GND*%
X98000000Y-115240000D03*
%TO.P,U1,23,GND_23*%
X123400000Y-61900000D03*
%TO.P,U1,24,TXD0_24*%
%TO.N,unconnected-(U1B-TXD0-Pad24)*%
X123400000Y-64440000D03*
%TO.P,U1,25,RXD0_25*%
%TO.N,unconnected-(U1B-RXD0-Pad25)*%
X123400000Y-66980000D03*
%TO.P,U1,26,IO1_26*%
%TO.N,unconnected-(U1B-IO1-Pad26)*%
X123400000Y-69520000D03*
%TO.P,U1,27,IO2_27*%
%TO.N,unconnected-(U1B-IO2-Pad27)*%
X123400000Y-72060000D03*
%TO.P,U1,28,IO42_28*%
%TO.N,unconnected-(U1B-IO42-Pad28)*%
X123400000Y-74600000D03*
%TO.P,U1,29,IO41_29*%
%TO.N,unconnected-(U1B-IO41-Pad29)*%
X123400000Y-77140000D03*
%TO.P,U1,30,IO40_30*%
%TO.N,unconnected-(U1B-IO40-Pad30)*%
X123400000Y-79680000D03*
%TO.P,U1,31,IO39_31*%
%TO.N,unconnected-(U1B-IO39-Pad31)*%
X123400000Y-82220000D03*
%TO.P,U1,32,IO38_32*%
%TO.N,unconnected-(U1B-IO38-Pad32)*%
X123400000Y-84760000D03*
%TO.P,U1,33,IO37_33*%
%TO.N,unconnected-(U1B-IO37-Pad33)*%
X123400000Y-87300000D03*
%TO.P,U1,34,IO36_34*%
%TO.N,unconnected-(U1B-IO36-Pad34)*%
X123400000Y-89840000D03*
%TO.P,U1,35,IO35_35*%
%TO.N,unconnected-(U1B-IO35-Pad35)*%
X123400000Y-92380000D03*
%TO.P,U1,36,IO0_36*%
%TO.N,unconnected-(U1B-IO0-Pad36)*%
X123400000Y-94920000D03*
%TO.P,U1,37,IO45_37*%
%TO.N,unconnected-(U1B-IO45-Pad37)*%
X123400000Y-97460000D03*
%TO.P,U1,38,IO48_38*%
%TO.N,unconnected-(U1B-IO48-Pad38)*%
X123400000Y-100000000D03*
%TO.P,U1,39,IO47_39*%
%TO.N,unconnected-(U1B-IO47-Pad39)*%
X123400000Y-102540000D03*
%TO.P,U1,40,IO21_40*%
%TO.N,unconnected-(U1B-IO21-Pad40)*%
X123400000Y-105080000D03*
%TO.P,U1,41,IO20_41*%
%TO.N,unconnected-(U1B-IO20-Pad41)*%
X123400000Y-107620000D03*
%TO.P,U1,42,IO19_42*%
%TO.N,unconnected-(U1B-IO19-Pad42)*%
X123400000Y-110160000D03*
%TO.P,U1,43,GND_43*%
%TO.N,GND*%
X123400000Y-112700000D03*
%TO.P,U1,44,GND_44*%
X123400000Y-115240000D03*
%TD*%
D10*
%TO.P,J3,1,LV4_1*%
%TO.N,/1Y0_LV*%
X88000000Y-91600000D03*
D11*
%TO.P,J3,2,LV3_2*%
%TO.N,/ALPHA_LOCK_LV*%
X88000000Y-94140000D03*
%TO.P,J3,3,GND_3*%
%TO.N,GND*%
X88000000Y-96680000D03*
%TO.P,J3,4,LV_4*%
%TO.N,+3V3*%
X88000000Y-99220000D03*
%TO.P,J3,5,LV2_5*%
%TO.N,/INT10_LV*%
X88000000Y-101760000D03*
%TO.P,J3,6,LV1_6*%
%TO.N,/2Y0_LV*%
X88000000Y-104300000D03*
%TO.P,J3,7,HV4_7*%
%TO.N,/1Y0*%
X78000000Y-91600000D03*
%TO.P,J3,8,HV3_8*%
%TO.N,/ALPHA_LOCK*%
X78000000Y-94140000D03*
%TO.P,J3,9,GND_9*%
%TO.N,GND*%
X78000000Y-96680000D03*
%TO.P,J3,10,HV_10*%
%TO.N,+5V*%
X78000000Y-99220000D03*
%TO.P,J3,11,HV2_11*%
%TO.N,/INT10*%
X78000000Y-101760000D03*
%TO.P,J3,12,HV1_12*%
%TO.N,/2Y0*%
X78000000Y-104300000D03*
%TD*%
D10*
%TO.P,J1,1,LV4_1*%
%TO.N,/INT5_LV*%
X87940000Y-52100000D03*
D11*
%TO.P,J1,2,LV3_2*%
%TO.N,/INT6_LV*%
X87940000Y-54640000D03*
%TO.P,J1,3,GND_3*%
%TO.N,GND*%
X87940000Y-57180000D03*
%TO.P,J1,4,LV_4*%
%TO.N,+3V3*%
X87940000Y-59720000D03*
%TO.P,J1,5,LV2_5*%
%TO.N,/INT8_LV*%
X87940000Y-62260000D03*
%TO.P,J1,6,LV1_6*%
%TO.N,/INT4_LV*%
X87940000Y-64800000D03*
%TO.P,J1,7,HV4_7*%
%TO.N,/INT5*%
X77940000Y-52100000D03*
%TO.P,J1,8,HV3_8*%
%TO.N,/INT6*%
X77940000Y-54640000D03*
%TO.P,J1,9,GND_9*%
%TO.N,GND*%
X77940000Y-57180000D03*
%TO.P,J1,10,HV_10*%
%TO.N,+5V*%
X77940000Y-59720000D03*
%TO.P,J1,11,HV2_11*%
%TO.N,/INT8*%
X77940000Y-62260000D03*
%TO.P,J1,12,HV1_12*%
%TO.N,/INT4*%
X77940000Y-64800000D03*
%TD*%
D10*
%TO.P,J2,1,LV4_1*%
%TO.N,/INT3_LV*%
X88000000Y-72000000D03*
D11*
%TO.P,J2,2,LV3_2*%
%TO.N,/INT9_LV*%
X88000000Y-74540000D03*
%TO.P,J2,3,GND_3*%
%TO.N,GND*%
X88000000Y-77080000D03*
%TO.P,J2,4,LV_4*%
%TO.N,+3V3*%
X88000000Y-79620000D03*
%TO.P,J2,5,LV2_5*%
%TO.N,/INT7_LV*%
X88000000Y-82160000D03*
%TO.P,J2,6,LV1_6*%
%TO.N,/1Y1_LV*%
X88000000Y-84700000D03*
%TO.P,J2,7,HV4_7*%
%TO.N,/INT3*%
X78000000Y-72000000D03*
%TO.P,J2,8,HV3_8*%
%TO.N,/INT9*%
X78000000Y-74540000D03*
%TO.P,J2,9,GND_9*%
%TO.N,GND*%
X78000000Y-77080000D03*
%TO.P,J2,10,HV_10*%
%TO.N,+5V*%
X78000000Y-79620000D03*
%TO.P,J2,11,HV2_11*%
%TO.N,/INT7*%
X78000000Y-82160000D03*
%TO.P,J2,12,HV1_12*%
%TO.N,/1Y1*%
X78000000Y-84700000D03*
%TD*%
D10*
%TO.P,J9,1,Pin_1_1*%
%TO.N,+5V*%
X66500000Y-38225000D03*
D11*
%TO.P,J9,2,Pin_2_2*%
%TO.N,GND*%
X66500000Y-40765000D03*
%TD*%
D14*
%TO.P,J13,1,Pin_1_1*%
%TO.N,/PSU_-5V*%
X96785000Y-39500000D03*
D15*
%TO.P,J13,2,Pin_2_2*%
%TO.N,/PSU_+12V*%
X100595000Y-39500000D03*
%TO.P,J13,3,Pin_3_3*%
%TO.N,GND*%
X104405000Y-39500000D03*
%TO.P,J13,4,Pin_4_4*%
%TO.N,+5V*%
X108215000Y-39500000D03*
%TD*%
D10*
%TO.P,J4,1,LV4_1*%
%TO.N,/2Y1_LV*%
X88000000Y-110750000D03*
D11*
%TO.P,J4,2,LV3_2*%
%TO.N,/2Y2_LV*%
X88000000Y-113290000D03*
%TO.P,J4,3,GND_3*%
%TO.N,GND*%
X88000000Y-115830000D03*
%TO.P,J4,4,LV_4*%
%TO.N,+3V3*%
X88000000Y-118370000D03*
%TO.P,J4,5,LV2_5*%
%TO.N,/2Y3_LV*%
X88000000Y-120910000D03*
%TO.P,J4,6,LV1_6*%
%TO.N,/SPARE_LV*%
X88000000Y-123450000D03*
%TO.P,J4,7,HV4_7*%
%TO.N,/2Y1*%
X78000000Y-110750000D03*
%TO.P,J4,8,HV3_8*%
%TO.N,/2Y2*%
X78000000Y-113290000D03*
%TO.P,J4,9,GND_9*%
%TO.N,GND*%
X78000000Y-115830000D03*
%TO.P,J4,10,HV_10*%
%TO.N,+5V*%
X78000000Y-118370000D03*
%TO.P,J4,11,HV2_11*%
%TO.N,/2Y3*%
X78000000Y-120910000D03*
%TO.P,J4,12,HV1_12*%
%TO.N,/SPARE*%
X78000000Y-123450000D03*
%TD*%
D10*
%TO.P,J20,1,Pin_1_1*%
%TO.N,/INT5*%
X61000000Y-67640000D03*
D11*
%TO.P,J20,2,Pin_2_2*%
%TO.N,/INT6*%
X61000000Y-70180000D03*
%TO.P,J20,3,Pin_3_3*%
%TO.N,/INT8*%
X61000000Y-72720000D03*
%TO.P,J20,4,Pin_4_4*%
%TO.N,/INT4*%
X61000000Y-75260000D03*
%TO.P,J20,5,Pin_5_5*%
%TO.N,/INT3*%
X61000000Y-77800000D03*
%TO.P,J20,6,Pin_6_6*%
%TO.N,/INT9*%
X61000000Y-80340000D03*
%TO.P,J20,7,Pin_7_7*%
%TO.N,/INT7*%
X61000000Y-82880000D03*
%TO.P,J20,8,Pin_8_8*%
%TO.N,/1Y1*%
X61000000Y-85420000D03*
%TO.P,J20,9,Pin_9_9*%
%TO.N,/1Y0*%
X61000000Y-87960000D03*
%TO.P,J20,10,Pin_10_10*%
%TO.N,/ALPHA_LOCK*%
X61000000Y-90500000D03*
%TO.P,J20,11,Pin_11_11*%
%TO.N,/INT10*%
X61000000Y-93040000D03*
%TO.P,J20,12,Pin_12_12*%
%TO.N,/2Y0*%
X61000000Y-95580000D03*
%TO.P,J20,13,Pin_13_13*%
%TO.N,/2Y1*%
X61000000Y-98120000D03*
%TO.P,J20,14,Pin_14_14*%
%TO.N,/2Y2*%
X61000000Y-100660000D03*
%TO.P,J20,15,Pin_15_15*%
%TO.N,/2Y3*%
X61000000Y-103200000D03*
%TD*%
D16*
%TO.N,GND*%
X75500000Y-80500000D03*
X92500000Y-88500000D03*
X64500000Y-71500000D03*
X64550000Y-101920000D03*
X72500000Y-97500000D03*
X82940000Y-79700000D03*
X92720000Y-76060000D03*
X64520000Y-99330000D03*
X73490000Y-83600000D03*
X95200000Y-67970000D03*
X70500000Y-79000000D03*
X74000000Y-94000000D03*
X95000000Y-54500000D03*
X77940000Y-68700000D03*
X64500000Y-79000000D03*
X64500000Y-76500000D03*
X77940000Y-87950000D03*
X73500000Y-63200000D03*
X72000000Y-111500000D03*
X82940000Y-59700000D03*
X64500000Y-86700000D03*
X69500000Y-63500000D03*
X71960000Y-89250000D03*
X64500000Y-74000000D03*
X64540000Y-84120000D03*
X83190000Y-100000000D03*
X92710000Y-115910000D03*
X73500000Y-68000000D03*
X90000000Y-67000000D03*
X91000000Y-96000000D03*
X77500000Y-107500000D03*
X93000000Y-60000000D03*
X93090000Y-107470000D03*
X88000000Y-107500000D03*
X64550000Y-94290000D03*
X87000000Y-69500000D03*
X92500000Y-100000000D03*
X92820000Y-92820000D03*
X75500000Y-61000000D03*
X90030000Y-115620000D03*
X91000000Y-79000000D03*
X64470000Y-89220000D03*
X64500000Y-69000000D03*
X83000000Y-36000000D03*
X92400000Y-121240000D03*
X64500000Y-81500000D03*
X71820000Y-104960000D03*
X76690000Y-111950000D03*
X73000000Y-73000000D03*
X73500000Y-86500000D03*
X75500000Y-105000000D03*
X87940000Y-88200000D03*
X64540000Y-96870000D03*
X93000000Y-37500000D03*
X92500000Y-84000000D03*
X92500000Y-52000000D03*
X83000000Y-119000000D03*
X64520000Y-91800000D03*
X94630000Y-69960000D03*
%TD*%
%TA.AperFunction,Conductor*%
%TO.N,GND*%
G36*
X128442539Y-31020185D02*
G01*
X128488294Y-31072989D01*
X128499500Y-31124500D01*
X128499500Y-129625500D01*
X128479815Y-129692539D01*
X128427011Y-129738294D01*
X128375500Y-129749500D01*
X56124500Y-129749500D01*
X56057461Y-129729815D01*
X56011706Y-129677011D01*
X56000500Y-129625500D01*
X56000500Y-126393713D01*
X58149500Y-126393713D01*
X58149500Y-126606286D01*
X58182753Y-126816239D01*
X58248444Y-127018414D01*
X58344951Y-127207820D01*
X58469890Y-127379786D01*
X58620213Y-127530109D01*
X58792179Y-127655048D01*
X58792181Y-127655049D01*
X58792184Y-127655051D01*
X58981588Y-127751557D01*
X59183757Y-127817246D01*
X59393713Y-127850500D01*
X59393714Y-127850500D01*
X59606286Y-127850500D01*
X59606287Y-127850500D01*
X59816243Y-127817246D01*
X60018412Y-127751557D01*
X60207816Y-127655051D01*
X60229789Y-127639086D01*
X60379786Y-127530109D01*
X60379788Y-127530106D01*
X60379792Y-127530104D01*
X60530104Y-127379792D01*
X60530106Y-127379788D01*
X60530109Y-127379786D01*
X60655048Y-127207820D01*
X60655047Y-127207820D01*
X60655051Y-127207816D01*
X60751557Y-127018412D01*
X60817246Y-126816243D01*
X60850500Y-126606287D01*
X60850500Y-126393713D01*
X123899500Y-126393713D01*
X123899500Y-126606286D01*
X123932753Y-126816239D01*
X123998444Y-127018414D01*
X124094951Y-127207820D01*
X124219890Y-127379786D01*
X124370213Y-127530109D01*
X124542179Y-127655048D01*
X124542181Y-127655049D01*
X124542184Y-127655051D01*
X124731588Y-127751557D01*
X124933757Y-127817246D01*
X125143713Y-127850500D01*
X125143714Y-127850500D01*
X125356286Y-127850500D01*
X125356287Y-127850500D01*
X125566243Y-127817246D01*
X125768412Y-127751557D01*
X125957816Y-127655051D01*
X125979789Y-127639086D01*
X126129786Y-127530109D01*
X126129788Y-127530106D01*
X126129792Y-127530104D01*
X126280104Y-127379792D01*
X126280106Y-127379788D01*
X126280109Y-127379786D01*
X126405048Y-127207820D01*
X126405047Y-127207820D01*
X126405051Y-127207816D01*
X126501557Y-127018412D01*
X126567246Y-126816243D01*
X126600500Y-126606287D01*
X126600500Y-126393713D01*
X126567246Y-126183757D01*
X126501557Y-125981588D01*
X126405051Y-125792184D01*
X126405049Y-125792181D01*
X126405048Y-125792179D01*
X126280109Y-125620213D01*
X126129786Y-125469890D01*
X125957820Y-125344951D01*
X125768414Y-125248444D01*
X125768413Y-125248443D01*
X125768412Y-125248443D01*
X125566243Y-125182754D01*
X125566241Y-125182753D01*
X125566240Y-125182753D01*
X125404957Y-125157208D01*
X125356287Y-125149500D01*
X125143713Y-125149500D01*
X125095042Y-125157208D01*
X124933760Y-125182753D01*
X124731585Y-125248444D01*
X124542179Y-125344951D01*
X124370213Y-125469890D01*
X124219890Y-125620213D01*
X124094951Y-125792179D01*
X123998444Y-125981585D01*
X123932753Y-126183760D01*
X123899500Y-126393713D01*
X60850500Y-126393713D01*
X60817246Y-126183757D01*
X60751557Y-125981588D01*
X60655051Y-125792184D01*
X60655049Y-125792181D01*
X60655048Y-125792179D01*
X60530109Y-125620213D01*
X60379786Y-125469890D01*
X60207820Y-125344951D01*
X60018414Y-125248444D01*
X60018413Y-125248443D01*
X60018412Y-125248443D01*
X59816243Y-125182754D01*
X59816241Y-125182753D01*
X59816240Y-125182753D01*
X59654957Y-125157208D01*
X59606287Y-125149500D01*
X59393713Y-125149500D01*
X59345042Y-125157208D01*
X59183760Y-125182753D01*
X58981585Y-125248444D01*
X58792179Y-125344951D01*
X58620213Y-125469890D01*
X58469890Y-125620213D01*
X58344951Y-125792179D01*
X58248444Y-125981585D01*
X58182753Y-126183760D01*
X58149500Y-126393713D01*
X56000500Y-126393713D01*
X56000500Y-108902135D01*
X59649500Y-108902135D01*
X59649500Y-110697870D01*
X59649501Y-110697876D01*
X59655908Y-110757483D01*
X59706202Y-110892328D01*
X59706206Y-110892335D01*
X59792452Y-111007544D01*
X59792455Y-111007547D01*
X59907664Y-111093793D01*
X59907671Y-111093797D01*
X60042517Y-111144091D01*
X60042516Y-111144091D01*
X60049444Y-111144835D01*
X60102127Y-111150500D01*
X61897872Y-111150499D01*
X61957483Y-111144091D01*
X62092331Y-111093796D01*
X62207546Y-111007546D01*
X62293796Y-110892331D01*
X62344091Y-110757483D01*
X62350500Y-110697873D01*
X62350500Y-110643713D01*
X76649500Y-110643713D01*
X76649500Y-110856287D01*
X76659534Y-110919644D01*
X76678564Y-111039792D01*
X76682754Y-111066243D01*
X76710130Y-111150498D01*
X76748444Y-111268414D01*
X76844951Y-111457820D01*
X76969890Y-111629786D01*
X77120213Y-111780109D01*
X77292182Y-111905050D01*
X77300946Y-111909516D01*
X77351742Y-111957491D01*
X77368536Y-112025312D01*
X77345998Y-112091447D01*
X77300946Y-112130484D01*
X77292182Y-112134949D01*
X77120213Y-112259890D01*
X76969890Y-112410213D01*
X76844951Y-112582179D01*
X76748444Y-112771585D01*
X76682753Y-112973760D01*
X76649500Y-113183713D01*
X76649500Y-113396286D01*
X76678564Y-113579792D01*
X76682754Y-113606243D01*
X76722999Y-113730105D01*
X76748444Y-113808414D01*
X76844951Y-113997820D01*
X76969890Y-114169786D01*
X77120213Y-114320109D01*
X77292179Y-114445048D01*
X77292181Y-114445049D01*
X77292184Y-114445051D01*
X77301493Y-114449794D01*
X77352290Y-114497766D01*
X77369087Y-114565587D01*
X77346552Y-114631722D01*
X77301505Y-114670760D01*
X77292446Y-114675376D01*
X77292440Y-114675380D01*
X77238282Y-114714727D01*
X77238282Y-114714728D01*
X77870591Y-115347037D01*
X77807007Y-115364075D01*
X77692993Y-115429901D01*
X77599901Y-115522993D01*
X77534075Y-115637007D01*
X77517037Y-115700591D01*
X76884728Y-115068282D01*
X76884727Y-115068282D01*
X76845380Y-115122439D01*
X76748904Y-115311782D01*
X76683242Y-115513869D01*
X76683242Y-115513872D01*
X76650000Y-115723753D01*
X76650000Y-115936246D01*
X76683242Y-116146127D01*
X76683242Y-116146130D01*
X76748904Y-116348217D01*
X76845375Y-116537550D01*
X76884728Y-116591716D01*
X77517037Y-115959408D01*
X77534075Y-116022993D01*
X77599901Y-116137007D01*
X77692993Y-116230099D01*
X77807007Y-116295925D01*
X77870590Y-116312962D01*
X77238282Y-116945269D01*
X77238282Y-116945270D01*
X77292452Y-116984626D01*
X77292451Y-116984626D01*
X77301495Y-116989234D01*
X77352292Y-117037208D01*
X77369087Y-117105029D01*
X77346550Y-117171164D01*
X77301499Y-117210202D01*
X77292182Y-117214949D01*
X77120213Y-117339890D01*
X76969890Y-117490213D01*
X76844951Y-117662179D01*
X76748444Y-117851585D01*
X76682753Y-118053760D01*
X76649500Y-118263713D01*
X76649500Y-118476286D01*
X76682753Y-118686239D01*
X76748444Y-118888414D01*
X76844951Y-119077820D01*
X76969890Y-119249786D01*
X77120213Y-119400109D01*
X77292182Y-119525050D01*
X77300946Y-119529516D01*
X77351742Y-119577491D01*
X77368536Y-119645312D01*
X77345998Y-119711447D01*
X77300946Y-119750484D01*
X77292182Y-119754949D01*
X77120213Y-119879890D01*
X76969890Y-120030213D01*
X76844951Y-120202179D01*
X76748444Y-120391585D01*
X76682753Y-120593760D01*
X76649500Y-120803713D01*
X76649500Y-121016286D01*
X76682753Y-121226239D01*
X76748444Y-121428414D01*
X76844951Y-121617820D01*
X76969890Y-121789786D01*
X77120213Y-121940109D01*
X77292182Y-122065050D01*
X77300946Y-122069516D01*
X77351742Y-122117491D01*
X77368536Y-122185312D01*
X77345998Y-122251447D01*
X77300946Y-122290484D01*
X77292182Y-122294949D01*
X77120213Y-122419890D01*
X76969890Y-122570213D01*
X76844951Y-122742179D01*
X76748444Y-122931585D01*
X76682753Y-123133760D01*
X76649500Y-123343713D01*
X76649500Y-123556286D01*
X76682753Y-123766239D01*
X76748444Y-123968414D01*
X76844951Y-124157820D01*
X76969890Y-124329786D01*
X77120213Y-124480109D01*
X77292179Y-124605048D01*
X77292181Y-124605049D01*
X77292184Y-124605051D01*
X77481588Y-124701557D01*
X77683757Y-124767246D01*
X77893713Y-124800500D01*
X77893714Y-124800500D01*
X78106286Y-124800500D01*
X78106287Y-124800500D01*
X78316243Y-124767246D01*
X78518412Y-124701557D01*
X78707816Y-124605051D01*
X78729789Y-124589086D01*
X78879786Y-124480109D01*
X78879788Y-124480106D01*
X78879792Y-124480104D01*
X79030104Y-124329792D01*
X79030106Y-124329788D01*
X79030109Y-124329786D01*
X79155048Y-124157820D01*
X79155047Y-124157820D01*
X79155051Y-124157816D01*
X79251557Y-123968412D01*
X79317246Y-123766243D01*
X79350500Y-123556287D01*
X79350500Y-123343713D01*
X79317246Y-123133757D01*
X79251557Y-122931588D01*
X79155051Y-122742184D01*
X79155049Y-122742181D01*
X79155048Y-122742179D01*
X79030109Y-122570213D01*
X78879786Y-122419890D01*
X78707820Y-122294951D01*
X78707115Y-122294591D01*
X78699054Y-122290485D01*
X78648259Y-122242512D01*
X78631463Y-122174692D01*
X78653999Y-122108556D01*
X78699054Y-122069515D01*
X78707816Y-122065051D01*
X78729789Y-122049086D01*
X78879786Y-121940109D01*
X78879788Y-121940106D01*
X78879792Y-121940104D01*
X79030104Y-121789792D01*
X79030106Y-121789788D01*
X79030109Y-121789786D01*
X79155048Y-121617820D01*
X79155047Y-121617820D01*
X79155051Y-121617816D01*
X79251557Y-121428412D01*
X79317246Y-121226243D01*
X79350500Y-121016287D01*
X79350500Y-120803713D01*
X79317246Y-120593757D01*
X79251557Y-120391588D01*
X79155051Y-120202184D01*
X79155049Y-120202181D01*
X79155048Y-120202179D01*
X79030109Y-120030213D01*
X78879786Y-119879890D01*
X78707820Y-119754951D01*
X78707115Y-119754591D01*
X78699054Y-119750485D01*
X78648259Y-119702512D01*
X78631463Y-119634692D01*
X78653999Y-119568556D01*
X78699054Y-119529515D01*
X78707816Y-119525051D01*
X78729789Y-119509086D01*
X78879786Y-119400109D01*
X78879788Y-119400106D01*
X78879792Y-119400104D01*
X79030104Y-119249792D01*
X79030106Y-119249788D01*
X79030109Y-119249786D01*
X79155048Y-119077820D01*
X79155047Y-119077820D01*
X79155051Y-119077816D01*
X79251557Y-118888412D01*
X79317246Y-118686243D01*
X79350500Y-118476287D01*
X79350500Y-118263713D01*
X79317246Y-118053757D01*
X79251557Y-117851588D01*
X79155051Y-117662184D01*
X79155049Y-117662181D01*
X79155048Y-117662179D01*
X79030109Y-117490213D01*
X78879786Y-117339890D01*
X78707817Y-117214949D01*
X78698504Y-117210204D01*
X78647707Y-117162230D01*
X78630912Y-117094409D01*
X78653449Y-117028274D01*
X78698507Y-116989232D01*
X78707555Y-116984622D01*
X78761716Y-116945270D01*
X78761717Y-116945270D01*
X78129408Y-116312962D01*
X78192993Y-116295925D01*
X78307007Y-116230099D01*
X78400099Y-116137007D01*
X78465925Y-116022993D01*
X78482962Y-115959408D01*
X79115270Y-116591717D01*
X79115270Y-116591716D01*
X79154622Y-116537554D01*
X79251095Y-116348217D01*
X79316757Y-116146130D01*
X79316757Y-116146127D01*
X79350000Y-115936246D01*
X79350000Y-115723753D01*
X79316757Y-115513872D01*
X79316757Y-115513869D01*
X79251095Y-115311782D01*
X79154624Y-115122449D01*
X79115270Y-115068282D01*
X79115269Y-115068282D01*
X78482962Y-115700590D01*
X78465925Y-115637007D01*
X78400099Y-115522993D01*
X78307007Y-115429901D01*
X78192993Y-115364075D01*
X78129409Y-115347037D01*
X78761716Y-114714728D01*
X78707547Y-114675373D01*
X78707547Y-114675372D01*
X78698500Y-114670763D01*
X78647706Y-114622788D01*
X78630912Y-114554966D01*
X78653451Y-114488832D01*
X78698508Y-114449793D01*
X78707816Y-114445051D01*
X78787007Y-114387515D01*
X78879786Y-114320109D01*
X78879788Y-114320106D01*
X78879792Y-114320104D01*
X79030104Y-114169792D01*
X79030106Y-114169788D01*
X79030109Y-114169786D01*
X79155048Y-113997820D01*
X79155047Y-113997820D01*
X79155051Y-113997816D01*
X79251557Y-113808412D01*
X79317246Y-113606243D01*
X79350500Y-113396287D01*
X79350500Y-113183713D01*
X79317246Y-112973757D01*
X79251557Y-112771588D01*
X79155051Y-112582184D01*
X79155049Y-112582181D01*
X79155048Y-112582179D01*
X79030109Y-112410213D01*
X78879786Y-112259890D01*
X78707820Y-112134951D01*
X78707115Y-112134591D01*
X78699054Y-112130485D01*
X78648259Y-112082512D01*
X78631463Y-112014692D01*
X78653999Y-111948556D01*
X78699054Y-111909515D01*
X78707816Y-111905051D01*
X78794138Y-111842335D01*
X78879786Y-111780109D01*
X78879788Y-111780106D01*
X78879792Y-111780104D01*
X79030104Y-111629792D01*
X79030106Y-111629788D01*
X79030109Y-111629786D01*
X79155048Y-111457820D01*
X79155047Y-111457820D01*
X79155051Y-111457816D01*
X79251557Y-111268412D01*
X79317246Y-111066243D01*
X79350500Y-110856287D01*
X79350500Y-110643713D01*
X79317246Y-110433757D01*
X79251557Y-110231588D01*
X79155051Y-110042184D01*
X79030104Y-109870208D01*
X79012031Y-109852135D01*
X86649500Y-109852135D01*
X86649500Y-111647870D01*
X86649501Y-111647876D01*
X86655908Y-111707483D01*
X86706202Y-111842328D01*
X86706206Y-111842335D01*
X86792452Y-111957544D01*
X86792455Y-111957547D01*
X86907664Y-112043793D01*
X86907671Y-112043797D01*
X87039082Y-112092810D01*
X87095016Y-112134681D01*
X87119433Y-112200145D01*
X87104582Y-112268418D01*
X87083431Y-112296673D01*
X86969889Y-112410215D01*
X86844951Y-112582179D01*
X86748444Y-112771585D01*
X86682753Y-112973760D01*
X86649500Y-113183713D01*
X86649500Y-113396286D01*
X86678564Y-113579792D01*
X86682754Y-113606243D01*
X86722999Y-113730105D01*
X86748444Y-113808414D01*
X86844951Y-113997820D01*
X86969890Y-114169786D01*
X87120213Y-114320109D01*
X87292179Y-114445048D01*
X87292181Y-114445049D01*
X87292184Y-114445051D01*
X87301493Y-114449794D01*
X87352290Y-114497766D01*
X87369087Y-114565587D01*
X87346552Y-114631722D01*
X87301505Y-114670760D01*
X87292446Y-114675376D01*
X87292440Y-114675380D01*
X87238282Y-114714727D01*
X87238282Y-114714728D01*
X87870591Y-115347037D01*
X87807007Y-115364075D01*
X87692993Y-115429901D01*
X87599901Y-115522993D01*
X87534075Y-115637007D01*
X87517037Y-115700591D01*
X86884728Y-115068282D01*
X86884727Y-115068282D01*
X86845380Y-115122439D01*
X86748904Y-115311782D01*
X86683242Y-115513869D01*
X86683242Y-115513872D01*
X86650000Y-115723753D01*
X86650000Y-115936246D01*
X86683242Y-116146127D01*
X86683242Y-116146130D01*
X86748904Y-116348217D01*
X86845375Y-116537550D01*
X86884728Y-116591716D01*
X87517037Y-115959408D01*
X87534075Y-116022993D01*
X87599901Y-116137007D01*
X87692993Y-116230099D01*
X87807007Y-116295925D01*
X87870590Y-116312962D01*
X87238282Y-116945269D01*
X87238282Y-116945270D01*
X87292452Y-116984626D01*
X87292451Y-116984626D01*
X87301495Y-116989234D01*
X87352292Y-117037208D01*
X87369087Y-117105029D01*
X87346550Y-117171164D01*
X87301499Y-117210202D01*
X87292182Y-117214949D01*
X87120213Y-117339890D01*
X86969890Y-117490213D01*
X86844951Y-117662179D01*
X86748444Y-117851585D01*
X86682753Y-118053760D01*
X86649500Y-118263713D01*
X86649500Y-118476286D01*
X86682753Y-118686239D01*
X86748444Y-118888414D01*
X86844951Y-119077820D01*
X86969890Y-119249786D01*
X87120213Y-119400109D01*
X87292182Y-119525050D01*
X87300946Y-119529516D01*
X87351742Y-119577491D01*
X87368536Y-119645312D01*
X87345998Y-119711447D01*
X87300946Y-119750484D01*
X87292182Y-119754949D01*
X87120213Y-119879890D01*
X86969890Y-120030213D01*
X86844951Y-120202179D01*
X86748444Y-120391585D01*
X86682753Y-120593760D01*
X86649500Y-120803713D01*
X86649500Y-121016286D01*
X86682753Y-121226239D01*
X86748444Y-121428414D01*
X86844951Y-121617820D01*
X86969890Y-121789786D01*
X87120213Y-121940109D01*
X87292182Y-122065050D01*
X87300946Y-122069516D01*
X87351742Y-122117491D01*
X87368536Y-122185312D01*
X87345998Y-122251447D01*
X87300946Y-122290484D01*
X87292182Y-122294949D01*
X87120213Y-122419890D01*
X86969890Y-122570213D01*
X86844951Y-122742179D01*
X86748444Y-122931585D01*
X86682753Y-123133760D01*
X86649500Y-123343713D01*
X86649500Y-123556286D01*
X86682753Y-123766239D01*
X86748444Y-123968414D01*
X86844951Y-124157820D01*
X86969890Y-124329786D01*
X87120213Y-124480109D01*
X87292179Y-124605048D01*
X87292181Y-124605049D01*
X87292184Y-124605051D01*
X87481588Y-124701557D01*
X87683757Y-124767246D01*
X87893713Y-124800500D01*
X87893714Y-124800500D01*
X88106286Y-124800500D01*
X88106287Y-124800500D01*
X88316243Y-124767246D01*
X88518412Y-124701557D01*
X88707816Y-124605051D01*
X88729789Y-124589086D01*
X88879786Y-124480109D01*
X88879788Y-124480106D01*
X88879792Y-124480104D01*
X89030104Y-124329792D01*
X89030106Y-124329788D01*
X89030109Y-124329786D01*
X89155048Y-124157820D01*
X89155047Y-124157820D01*
X89155051Y-124157816D01*
X89251557Y-123968412D01*
X89317246Y-123766243D01*
X89350500Y-123556287D01*
X89350500Y-123343713D01*
X89317246Y-123133757D01*
X89251557Y-122931588D01*
X89155051Y-122742184D01*
X89155049Y-122742181D01*
X89155048Y-122742179D01*
X89030109Y-122570213D01*
X88879786Y-122419890D01*
X88707820Y-122294951D01*
X88707115Y-122294591D01*
X88699054Y-122290485D01*
X88648259Y-122242512D01*
X88631463Y-122174692D01*
X88653999Y-122108556D01*
X88699054Y-122069515D01*
X88707816Y-122065051D01*
X88729789Y-122049086D01*
X88879786Y-121940109D01*
X88879788Y-121940106D01*
X88879792Y-121940104D01*
X89030104Y-121789792D01*
X89030106Y-121789788D01*
X89030109Y-121789786D01*
X89155048Y-121617820D01*
X89155047Y-121617820D01*
X89155051Y-121617816D01*
X89251557Y-121428412D01*
X89317246Y-121226243D01*
X89350500Y-121016287D01*
X89350500Y-120803713D01*
X89317246Y-120593757D01*
X89251557Y-120391588D01*
X89155051Y-120202184D01*
X89155049Y-120202181D01*
X89155048Y-120202179D01*
X89030109Y-120030213D01*
X88879786Y-119879890D01*
X88707820Y-119754951D01*
X88707115Y-119754591D01*
X88699054Y-119750485D01*
X88648259Y-119702512D01*
X88631463Y-119634692D01*
X88653999Y-119568556D01*
X88699054Y-119529515D01*
X88707816Y-119525051D01*
X88729789Y-119509086D01*
X88879786Y-119400109D01*
X88879788Y-119400106D01*
X88879792Y-119400104D01*
X89030104Y-119249792D01*
X89030106Y-119249788D01*
X89030109Y-119249786D01*
X89155048Y-119077820D01*
X89155047Y-119077820D01*
X89155051Y-119077816D01*
X89251557Y-118888412D01*
X89317246Y-118686243D01*
X89350500Y-118476287D01*
X89350500Y-118263713D01*
X89317246Y-118053757D01*
X89251557Y-117851588D01*
X89155051Y-117662184D01*
X89155049Y-117662181D01*
X89155048Y-117662179D01*
X89030109Y-117490213D01*
X88879786Y-117339890D01*
X88707817Y-117214949D01*
X88698504Y-117210204D01*
X88647707Y-117162230D01*
X88630912Y-117094409D01*
X88653449Y-117028274D01*
X88698507Y-116989232D01*
X88707555Y-116984622D01*
X88761716Y-116945270D01*
X88761717Y-116945270D01*
X88129408Y-116312962D01*
X88192993Y-116295925D01*
X88307007Y-116230099D01*
X88400099Y-116137007D01*
X88465925Y-116022993D01*
X88482962Y-115959408D01*
X89115270Y-116591717D01*
X89115270Y-116591716D01*
X89154622Y-116537554D01*
X89251094Y-116348218D01*
X89276610Y-116269692D01*
X89276610Y-116269691D01*
X89316757Y-116146130D01*
X89316757Y-116146127D01*
X89350000Y-115936246D01*
X89350000Y-115723753D01*
X89316757Y-115513872D01*
X89316757Y-115513869D01*
X89251095Y-115311782D01*
X89186586Y-115185176D01*
X89186585Y-115185174D01*
X89154626Y-115122452D01*
X89115270Y-115068282D01*
X89115269Y-115068282D01*
X88482962Y-115700590D01*
X88465925Y-115637007D01*
X88400099Y-115522993D01*
X88307007Y-115429901D01*
X88192993Y-115364075D01*
X88129409Y-115347037D01*
X88761716Y-114714728D01*
X88707547Y-114675373D01*
X88707547Y-114675372D01*
X88698500Y-114670763D01*
X88647706Y-114622788D01*
X88630912Y-114554966D01*
X88653451Y-114488832D01*
X88698508Y-114449793D01*
X88707816Y-114445051D01*
X88787007Y-114387515D01*
X88879786Y-114320109D01*
X88879788Y-114320106D01*
X88879792Y-114320104D01*
X89030104Y-114169792D01*
X89030106Y-114169788D01*
X89030109Y-114169786D01*
X89155048Y-113997820D01*
X89155047Y-113997820D01*
X89155051Y-113997816D01*
X89251557Y-113808412D01*
X89317246Y-113606243D01*
X89350500Y-113396287D01*
X89350500Y-113183713D01*
X89317246Y-112973757D01*
X89251557Y-112771588D01*
X89155051Y-112582184D01*
X89155049Y-112582181D01*
X89155048Y-112582179D01*
X89030109Y-112410213D01*
X88916569Y-112296673D01*
X88883084Y-112235350D01*
X88888068Y-112165658D01*
X88929940Y-112109725D01*
X88960915Y-112092810D01*
X89092331Y-112043796D01*
X89207546Y-111957546D01*
X89293796Y-111842331D01*
X89344091Y-111707483D01*
X89350500Y-111647873D01*
X89350499Y-109852128D01*
X89344091Y-109792517D01*
X89293796Y-109657669D01*
X89293795Y-109657668D01*
X89293793Y-109657664D01*
X89207547Y-109542455D01*
X89207544Y-109542452D01*
X89092335Y-109456206D01*
X89092328Y-109456202D01*
X88957482Y-109405908D01*
X88957483Y-109405908D01*
X88897883Y-109399501D01*
X88897881Y-109399500D01*
X88897873Y-109399500D01*
X88897864Y-109399500D01*
X87102129Y-109399500D01*
X87102123Y-109399501D01*
X87042516Y-109405908D01*
X86907671Y-109456202D01*
X86907664Y-109456206D01*
X86792455Y-109542452D01*
X86792452Y-109542455D01*
X86706206Y-109657664D01*
X86706202Y-109657671D01*
X86655908Y-109792517D01*
X86649501Y-109852116D01*
X86649501Y-109852123D01*
X86649500Y-109852135D01*
X79012031Y-109852135D01*
X78879792Y-109719896D01*
X78879786Y-109719890D01*
X78707820Y-109594951D01*
X78518414Y-109498444D01*
X78518413Y-109498443D01*
X78518412Y-109498443D01*
X78316243Y-109432754D01*
X78316241Y-109432753D01*
X78316240Y-109432753D01*
X78154957Y-109407208D01*
X78106287Y-109399500D01*
X77893713Y-109399500D01*
X77845042Y-109407208D01*
X77683760Y-109432753D01*
X77481585Y-109498444D01*
X77292179Y-109594951D01*
X77120213Y-109719890D01*
X76969890Y-109870213D01*
X76844951Y-110042179D01*
X76748444Y-110231585D01*
X76682753Y-110433760D01*
X76650272Y-110638841D01*
X76649500Y-110643713D01*
X62350500Y-110643713D01*
X62350499Y-109792517D01*
X62350499Y-108902129D01*
X62350498Y-108902123D01*
X62350497Y-108902116D01*
X62344091Y-108842517D01*
X62320592Y-108779514D01*
X62293797Y-108707671D01*
X62293793Y-108707664D01*
X62207547Y-108592455D01*
X62207544Y-108592452D01*
X62092335Y-108506206D01*
X62092328Y-108506202D01*
X61957482Y-108455908D01*
X61957483Y-108455908D01*
X61897883Y-108449501D01*
X61897881Y-108449500D01*
X61897873Y-108449500D01*
X61897864Y-108449500D01*
X60102129Y-108449500D01*
X60102123Y-108449501D01*
X60042516Y-108455908D01*
X59907671Y-108506202D01*
X59907664Y-108506206D01*
X59792455Y-108592452D01*
X59792452Y-108592455D01*
X59706206Y-108707664D01*
X59706202Y-108707671D01*
X59655908Y-108842517D01*
X59649501Y-108902116D01*
X59649501Y-108902123D01*
X59649500Y-108902135D01*
X56000500Y-108902135D01*
X56000500Y-66742135D01*
X59649500Y-66742135D01*
X59649500Y-68537870D01*
X59649501Y-68537876D01*
X59655908Y-68597483D01*
X59706202Y-68732328D01*
X59706206Y-68732335D01*
X59792452Y-68847544D01*
X59792455Y-68847547D01*
X59907664Y-68933793D01*
X59907671Y-68933797D01*
X60039082Y-68982810D01*
X60095016Y-69024681D01*
X60119433Y-69090145D01*
X60104582Y-69158418D01*
X60083431Y-69186673D01*
X59969889Y-69300215D01*
X59844951Y-69472179D01*
X59748444Y-69661585D01*
X59682753Y-69863760D01*
X59649500Y-70073713D01*
X59649500Y-70286286D01*
X59667477Y-70399792D01*
X59682754Y-70496243D01*
X59743355Y-70682754D01*
X59748444Y-70698414D01*
X59844951Y-70887820D01*
X59969890Y-71059786D01*
X60120213Y-71210109D01*
X60292182Y-71335050D01*
X60300946Y-71339516D01*
X60351742Y-71387491D01*
X60368536Y-71455312D01*
X60345998Y-71521447D01*
X60300946Y-71560484D01*
X60292182Y-71564949D01*
X60120213Y-71689890D01*
X59969890Y-71840213D01*
X59844951Y-72012179D01*
X59748444Y-72201585D01*
X59682753Y-72403760D01*
X59649500Y-72613713D01*
X59649500Y-72826286D01*
X59681781Y-73030104D01*
X59682754Y-73036243D01*
X59742303Y-73219516D01*
X59748444Y-73238414D01*
X59844951Y-73427820D01*
X59969890Y-73599786D01*
X60120213Y-73750109D01*
X60292182Y-73875050D01*
X60300946Y-73879516D01*
X60351742Y-73927491D01*
X60368536Y-73995312D01*
X60345998Y-74061447D01*
X60300946Y-74100484D01*
X60292182Y-74104949D01*
X60120213Y-74229890D01*
X59969890Y-74380213D01*
X59844951Y-74552179D01*
X59748444Y-74741585D01*
X59682753Y-74943760D01*
X59649500Y-75153713D01*
X59649500Y-75366286D01*
X59681781Y-75570104D01*
X59682754Y-75576243D01*
X59742303Y-75759516D01*
X59748444Y-75778414D01*
X59844951Y-75967820D01*
X59969890Y-76139786D01*
X60120213Y-76290109D01*
X60292182Y-76415050D01*
X60300946Y-76419516D01*
X60351742Y-76467491D01*
X60368536Y-76535312D01*
X60345998Y-76601447D01*
X60300946Y-76640484D01*
X60292182Y-76644949D01*
X60120213Y-76769890D01*
X59969890Y-76920213D01*
X59844951Y-77092179D01*
X59748444Y-77281585D01*
X59682753Y-77483760D01*
X59649500Y-77693713D01*
X59649500Y-77906286D01*
X59667477Y-78019792D01*
X59682754Y-78116243D01*
X59743355Y-78302754D01*
X59748444Y-78318414D01*
X59844951Y-78507820D01*
X59969890Y-78679786D01*
X60120213Y-78830109D01*
X60292182Y-78955050D01*
X60300946Y-78959516D01*
X60351742Y-79007491D01*
X60368536Y-79075312D01*
X60345998Y-79141447D01*
X60300946Y-79180484D01*
X60292182Y-79184949D01*
X60120213Y-79309890D01*
X59969890Y-79460213D01*
X59844951Y-79632179D01*
X59748444Y-79821585D01*
X59682753Y-80023760D01*
X59649500Y-80233713D01*
X59649500Y-80446286D01*
X59681781Y-80650104D01*
X59682754Y-80656243D01*
X59742303Y-80839516D01*
X59748444Y-80858414D01*
X59844951Y-81047820D01*
X59969890Y-81219786D01*
X60120213Y-81370109D01*
X60292182Y-81495050D01*
X60300946Y-81499516D01*
X60351742Y-81547491D01*
X60368536Y-81615312D01*
X60345998Y-81681447D01*
X60300946Y-81720484D01*
X60292182Y-81724949D01*
X60120213Y-81849890D01*
X59969890Y-82000213D01*
X59844951Y-82172179D01*
X59748444Y-82361585D01*
X59682753Y-82563760D01*
X59649500Y-82773713D01*
X59649500Y-82986286D01*
X59681781Y-83190104D01*
X59682754Y-83196243D01*
X59742303Y-83379516D01*
X59748444Y-83398414D01*
X59844951Y-83587820D01*
X59969890Y-83759786D01*
X60120213Y-83910109D01*
X60292182Y-84035050D01*
X60300946Y-84039516D01*
X60351742Y-84087491D01*
X60368536Y-84155312D01*
X60345998Y-84221447D01*
X60300946Y-84260484D01*
X60292182Y-84264949D01*
X60120213Y-84389890D01*
X59969890Y-84540213D01*
X59844951Y-84712179D01*
X59748444Y-84901585D01*
X59682753Y-85103760D01*
X59649500Y-85313713D01*
X59649500Y-85526286D01*
X59681781Y-85730104D01*
X59682754Y-85736243D01*
X59742303Y-85919516D01*
X59748444Y-85938414D01*
X59844951Y-86127820D01*
X59969890Y-86299786D01*
X60120213Y-86450109D01*
X60292182Y-86575050D01*
X60300946Y-86579516D01*
X60351742Y-86627491D01*
X60368536Y-86695312D01*
X60345998Y-86761447D01*
X60300946Y-86800484D01*
X60292182Y-86804949D01*
X60120213Y-86929890D01*
X59969890Y-87080213D01*
X59844951Y-87252179D01*
X59748444Y-87441585D01*
X59682753Y-87643760D01*
X59649500Y-87853713D01*
X59649500Y-88066286D01*
X59667477Y-88179792D01*
X59682754Y-88276243D01*
X59742303Y-88459516D01*
X59748444Y-88478414D01*
X59844951Y-88667820D01*
X59969890Y-88839786D01*
X60120213Y-88990109D01*
X60292182Y-89115050D01*
X60300946Y-89119516D01*
X60351742Y-89167491D01*
X60368536Y-89235312D01*
X60345998Y-89301447D01*
X60300946Y-89340484D01*
X60292182Y-89344949D01*
X60120213Y-89469890D01*
X59969890Y-89620213D01*
X59844951Y-89792179D01*
X59748444Y-89981585D01*
X59682753Y-90183760D01*
X59649500Y-90393713D01*
X59649500Y-90606286D01*
X59675697Y-90771691D01*
X59682754Y-90816243D01*
X59742303Y-90999516D01*
X59748444Y-91018414D01*
X59844951Y-91207820D01*
X59969890Y-91379786D01*
X60120213Y-91530109D01*
X60292182Y-91655050D01*
X60300946Y-91659516D01*
X60351742Y-91707491D01*
X60368536Y-91775312D01*
X60345998Y-91841447D01*
X60300946Y-91880484D01*
X60292182Y-91884949D01*
X60120213Y-92009890D01*
X59969890Y-92160213D01*
X59844951Y-92332179D01*
X59748444Y-92521585D01*
X59682753Y-92723760D01*
X59649500Y-92933713D01*
X59649500Y-93146286D01*
X59667544Y-93260215D01*
X59682754Y-93356243D01*
X59742303Y-93539516D01*
X59748444Y-93558414D01*
X59844951Y-93747820D01*
X59969890Y-93919786D01*
X60120213Y-94070109D01*
X60292182Y-94195050D01*
X60300946Y-94199516D01*
X60351742Y-94247491D01*
X60368536Y-94315312D01*
X60345998Y-94381447D01*
X60300946Y-94420484D01*
X60292182Y-94424949D01*
X60120213Y-94549890D01*
X59969890Y-94700213D01*
X59844951Y-94872179D01*
X59748444Y-95061585D01*
X59682753Y-95263760D01*
X59649500Y-95473713D01*
X59649500Y-95686286D01*
X59667477Y-95799792D01*
X59682754Y-95896243D01*
X59742303Y-96079516D01*
X59748444Y-96098414D01*
X59844951Y-96287820D01*
X59969890Y-96459786D01*
X60120213Y-96610109D01*
X60292182Y-96735050D01*
X60300946Y-96739516D01*
X60351742Y-96787491D01*
X60368536Y-96855312D01*
X60345998Y-96921447D01*
X60300946Y-96960484D01*
X60292182Y-96964949D01*
X60120213Y-97089890D01*
X59969890Y-97240213D01*
X59844951Y-97412179D01*
X59748444Y-97601585D01*
X59682753Y-97803760D01*
X59649500Y-98013713D01*
X59649500Y-98226286D01*
X59667477Y-98339792D01*
X59682754Y-98436243D01*
X59742303Y-98619516D01*
X59748444Y-98638414D01*
X59844951Y-98827820D01*
X59969890Y-98999786D01*
X60120213Y-99150109D01*
X60292182Y-99275050D01*
X60300946Y-99279516D01*
X60351742Y-99327491D01*
X60368536Y-99395312D01*
X60345998Y-99461447D01*
X60300946Y-99500484D01*
X60292182Y-99504949D01*
X60120213Y-99629890D01*
X59969890Y-99780213D01*
X59844951Y-99952179D01*
X59748444Y-100141585D01*
X59682753Y-100343760D01*
X59649500Y-100553713D01*
X59649500Y-100766286D01*
X59667477Y-100879792D01*
X59682754Y-100976243D01*
X59742303Y-101159516D01*
X59748444Y-101178414D01*
X59844951Y-101367820D01*
X59969890Y-101539786D01*
X60120213Y-101690109D01*
X60292182Y-101815050D01*
X60300946Y-101819516D01*
X60351742Y-101867491D01*
X60368536Y-101935312D01*
X60345998Y-102001447D01*
X60300946Y-102040484D01*
X60292182Y-102044949D01*
X60120213Y-102169890D01*
X59969890Y-102320213D01*
X59844951Y-102492179D01*
X59748444Y-102681585D01*
X59682753Y-102883760D01*
X59649500Y-103093713D01*
X59649500Y-103306286D01*
X59667477Y-103419792D01*
X59682754Y-103516243D01*
X59742303Y-103699516D01*
X59748444Y-103718414D01*
X59844951Y-103907820D01*
X59969890Y-104079786D01*
X60120213Y-104230109D01*
X60292179Y-104355048D01*
X60292181Y-104355049D01*
X60292184Y-104355051D01*
X60481588Y-104451557D01*
X60683757Y-104517246D01*
X60893713Y-104550500D01*
X60893714Y-104550500D01*
X61106286Y-104550500D01*
X61106287Y-104550500D01*
X61316243Y-104517246D01*
X61518412Y-104451557D01*
X61707816Y-104355051D01*
X61729789Y-104339086D01*
X61879786Y-104230109D01*
X61879788Y-104230106D01*
X61879792Y-104230104D01*
X62030104Y-104079792D01*
X62030106Y-104079788D01*
X62030109Y-104079786D01*
X62155048Y-103907820D01*
X62155047Y-103907820D01*
X62155051Y-103907816D01*
X62251557Y-103718412D01*
X62317246Y-103516243D01*
X62350500Y-103306287D01*
X62350500Y-103093713D01*
X62317246Y-102883757D01*
X62251557Y-102681588D01*
X62155051Y-102492184D01*
X62155049Y-102492181D01*
X62155048Y-102492179D01*
X62030109Y-102320213D01*
X61879786Y-102169890D01*
X61707820Y-102044951D01*
X61707115Y-102044591D01*
X61699054Y-102040485D01*
X61648259Y-101992512D01*
X61631463Y-101924692D01*
X61653999Y-101858556D01*
X61699054Y-101819515D01*
X61707816Y-101815051D01*
X61729789Y-101799086D01*
X61879786Y-101690109D01*
X61879788Y-101690106D01*
X61879792Y-101690104D01*
X62030104Y-101539792D01*
X62030106Y-101539788D01*
X62030109Y-101539786D01*
X62155048Y-101367820D01*
X62155047Y-101367820D01*
X62155051Y-101367816D01*
X62251557Y-101178412D01*
X62317246Y-100976243D01*
X62350500Y-100766287D01*
X62350500Y-100553713D01*
X62317246Y-100343757D01*
X62251557Y-100141588D01*
X62155051Y-99952184D01*
X62155049Y-99952181D01*
X62155048Y-99952179D01*
X62030109Y-99780213D01*
X61879786Y-99629890D01*
X61707820Y-99504951D01*
X61707115Y-99504591D01*
X61699054Y-99500485D01*
X61648259Y-99452512D01*
X61631463Y-99384692D01*
X61653999Y-99318556D01*
X61699054Y-99279515D01*
X61707816Y-99275051D01*
X61729789Y-99259086D01*
X61879786Y-99150109D01*
X61879788Y-99150106D01*
X61879792Y-99150104D01*
X62030104Y-98999792D01*
X62030106Y-98999788D01*
X62030109Y-98999786D01*
X62155048Y-98827820D01*
X62155047Y-98827820D01*
X62155051Y-98827816D01*
X62251557Y-98638412D01*
X62317246Y-98436243D01*
X62350500Y-98226287D01*
X62350500Y-98013713D01*
X62317246Y-97803757D01*
X62251557Y-97601588D01*
X62155051Y-97412184D01*
X62155049Y-97412181D01*
X62155048Y-97412179D01*
X62030109Y-97240213D01*
X61879786Y-97089890D01*
X61707820Y-96964951D01*
X61707115Y-96964591D01*
X61699054Y-96960485D01*
X61648259Y-96912512D01*
X61631463Y-96844692D01*
X61653999Y-96778556D01*
X61699054Y-96739515D01*
X61707816Y-96735051D01*
X61783589Y-96679999D01*
X61879786Y-96610109D01*
X61879788Y-96610106D01*
X61879792Y-96610104D01*
X62030104Y-96459792D01*
X62030106Y-96459788D01*
X62030109Y-96459786D01*
X62155048Y-96287820D01*
X62155047Y-96287820D01*
X62155051Y-96287816D01*
X62251557Y-96098412D01*
X62317246Y-95896243D01*
X62350500Y-95686287D01*
X62350500Y-95473713D01*
X62317246Y-95263757D01*
X62251557Y-95061588D01*
X62155051Y-94872184D01*
X62155049Y-94872181D01*
X62155048Y-94872179D01*
X62030109Y-94700213D01*
X61879786Y-94549890D01*
X61707820Y-94424951D01*
X61707115Y-94424591D01*
X61699054Y-94420485D01*
X61648259Y-94372512D01*
X61631463Y-94304692D01*
X61653999Y-94238556D01*
X61699054Y-94199515D01*
X61707816Y-94195051D01*
X61729789Y-94179086D01*
X61879786Y-94070109D01*
X61879788Y-94070106D01*
X61879792Y-94070104D01*
X62030104Y-93919792D01*
X62030106Y-93919788D01*
X62030109Y-93919786D01*
X62155048Y-93747820D01*
X62155047Y-93747820D01*
X62155051Y-93747816D01*
X62251557Y-93558412D01*
X62317246Y-93356243D01*
X62350500Y-93146287D01*
X62350500Y-92933713D01*
X62317246Y-92723757D01*
X62251557Y-92521588D01*
X62155051Y-92332184D01*
X62155049Y-92332181D01*
X62155048Y-92332179D01*
X62030109Y-92160213D01*
X61879786Y-92009890D01*
X61707820Y-91884951D01*
X61707115Y-91884591D01*
X61699054Y-91880485D01*
X61648259Y-91832512D01*
X61631463Y-91764692D01*
X61653999Y-91698556D01*
X61699054Y-91659515D01*
X61707816Y-91655051D01*
X61729789Y-91639086D01*
X61879786Y-91530109D01*
X61879788Y-91530106D01*
X61879792Y-91530104D01*
X62030104Y-91379792D01*
X62030106Y-91379788D01*
X62030109Y-91379786D01*
X62155048Y-91207820D01*
X62155047Y-91207820D01*
X62155051Y-91207816D01*
X62251557Y-91018412D01*
X62317246Y-90816243D01*
X62350500Y-90606287D01*
X62350500Y-90393713D01*
X62317246Y-90183757D01*
X62251557Y-89981588D01*
X62155051Y-89792184D01*
X62155049Y-89792181D01*
X62155048Y-89792179D01*
X62030109Y-89620213D01*
X61879786Y-89469890D01*
X61707820Y-89344951D01*
X61707115Y-89344591D01*
X61699054Y-89340485D01*
X61648259Y-89292512D01*
X61631463Y-89224692D01*
X61653999Y-89158556D01*
X61699054Y-89119515D01*
X61707816Y-89115051D01*
X61729789Y-89099086D01*
X61879786Y-88990109D01*
X61879788Y-88990106D01*
X61879792Y-88990104D01*
X62030104Y-88839792D01*
X62030106Y-88839788D01*
X62030109Y-88839786D01*
X62155048Y-88667820D01*
X62155047Y-88667820D01*
X62155051Y-88667816D01*
X62251557Y-88478412D01*
X62317246Y-88276243D01*
X62350500Y-88066287D01*
X62350500Y-87853713D01*
X62317246Y-87643757D01*
X62251557Y-87441588D01*
X62155051Y-87252184D01*
X62155049Y-87252181D01*
X62155048Y-87252179D01*
X62030109Y-87080213D01*
X61879786Y-86929890D01*
X61707820Y-86804951D01*
X61707115Y-86804591D01*
X61699054Y-86800485D01*
X61648259Y-86752512D01*
X61631463Y-86684692D01*
X61653999Y-86618556D01*
X61699054Y-86579515D01*
X61707816Y-86575051D01*
X61729789Y-86559086D01*
X61879786Y-86450109D01*
X61879788Y-86450106D01*
X61879792Y-86450104D01*
X62030104Y-86299792D01*
X62030106Y-86299788D01*
X62030109Y-86299786D01*
X62155048Y-86127820D01*
X62155047Y-86127820D01*
X62155051Y-86127816D01*
X62251557Y-85938412D01*
X62317246Y-85736243D01*
X62350500Y-85526287D01*
X62350500Y-85313713D01*
X62317246Y-85103757D01*
X62251557Y-84901588D01*
X62155051Y-84712184D01*
X62155049Y-84712181D01*
X62155048Y-84712179D01*
X62030109Y-84540213D01*
X61879786Y-84389890D01*
X61707820Y-84264951D01*
X61707115Y-84264591D01*
X61699054Y-84260485D01*
X61648259Y-84212512D01*
X61631463Y-84144692D01*
X61653999Y-84078556D01*
X61699054Y-84039515D01*
X61707816Y-84035051D01*
X61766825Y-83992179D01*
X61879786Y-83910109D01*
X61879788Y-83910106D01*
X61879792Y-83910104D01*
X62030104Y-83759792D01*
X62030106Y-83759788D01*
X62030109Y-83759786D01*
X62155048Y-83587820D01*
X62155047Y-83587820D01*
X62155051Y-83587816D01*
X62251557Y-83398412D01*
X62317246Y-83196243D01*
X62350500Y-82986287D01*
X62350500Y-82773713D01*
X62317246Y-82563757D01*
X62251557Y-82361588D01*
X62155051Y-82172184D01*
X62155049Y-82172181D01*
X62155048Y-82172179D01*
X62030109Y-82000213D01*
X61879786Y-81849890D01*
X61707820Y-81724951D01*
X61707115Y-81724591D01*
X61699054Y-81720485D01*
X61648259Y-81672512D01*
X61631463Y-81604692D01*
X61653999Y-81538556D01*
X61699054Y-81499515D01*
X61707816Y-81495051D01*
X61766825Y-81452179D01*
X61879786Y-81370109D01*
X61879788Y-81370106D01*
X61879792Y-81370104D01*
X62030104Y-81219792D01*
X62030106Y-81219788D01*
X62030109Y-81219786D01*
X62155048Y-81047820D01*
X62155047Y-81047820D01*
X62155051Y-81047816D01*
X62251557Y-80858412D01*
X62317246Y-80656243D01*
X62350500Y-80446287D01*
X62350500Y-80233713D01*
X62317246Y-80023757D01*
X62251557Y-79821588D01*
X62155051Y-79632184D01*
X62155049Y-79632181D01*
X62155048Y-79632179D01*
X62030109Y-79460213D01*
X61879786Y-79309890D01*
X61707820Y-79184951D01*
X61707115Y-79184591D01*
X61699054Y-79180485D01*
X61648259Y-79132512D01*
X61631463Y-79064692D01*
X61653999Y-78998556D01*
X61699054Y-78959515D01*
X61707816Y-78955051D01*
X61766825Y-78912179D01*
X61879786Y-78830109D01*
X61879788Y-78830106D01*
X61879792Y-78830104D01*
X62030104Y-78679792D01*
X62030106Y-78679788D01*
X62030109Y-78679786D01*
X62155048Y-78507820D01*
X62155047Y-78507820D01*
X62155051Y-78507816D01*
X62251557Y-78318412D01*
X62317246Y-78116243D01*
X62350500Y-77906287D01*
X62350500Y-77693713D01*
X62317246Y-77483757D01*
X62251557Y-77281588D01*
X62155051Y-77092184D01*
X62155049Y-77092181D01*
X62155048Y-77092179D01*
X62030109Y-76920213D01*
X61879786Y-76769890D01*
X61707820Y-76644951D01*
X61707115Y-76644591D01*
X61699054Y-76640485D01*
X61648259Y-76592512D01*
X61631463Y-76524692D01*
X61653999Y-76458556D01*
X61699054Y-76419515D01*
X61707816Y-76415051D01*
X61766467Y-76372439D01*
X61879786Y-76290109D01*
X61879788Y-76290106D01*
X61879792Y-76290104D01*
X62030104Y-76139792D01*
X62030106Y-76139788D01*
X62030109Y-76139786D01*
X62155048Y-75967820D01*
X62155047Y-75967820D01*
X62155051Y-75967816D01*
X62251557Y-75778412D01*
X62317246Y-75576243D01*
X62350500Y-75366287D01*
X62350500Y-75153713D01*
X62317246Y-74943757D01*
X62251557Y-74741588D01*
X62155051Y-74552184D01*
X62155049Y-74552181D01*
X62155048Y-74552179D01*
X62030109Y-74380213D01*
X61879786Y-74229890D01*
X61707820Y-74104951D01*
X61707115Y-74104591D01*
X61699054Y-74100485D01*
X61648259Y-74052512D01*
X61631463Y-73984692D01*
X61653999Y-73918556D01*
X61699054Y-73879515D01*
X61707816Y-73875051D01*
X61766825Y-73832179D01*
X61879786Y-73750109D01*
X61879788Y-73750106D01*
X61879792Y-73750104D01*
X62030104Y-73599792D01*
X62030106Y-73599788D01*
X62030109Y-73599786D01*
X62155048Y-73427820D01*
X62155047Y-73427820D01*
X62155051Y-73427816D01*
X62251557Y-73238412D01*
X62317246Y-73036243D01*
X62350500Y-72826287D01*
X62350500Y-72613713D01*
X62317246Y-72403757D01*
X62251557Y-72201588D01*
X62155051Y-72012184D01*
X62155049Y-72012181D01*
X62155048Y-72012179D01*
X62030109Y-71840213D01*
X61879786Y-71689890D01*
X61707820Y-71564951D01*
X61707115Y-71564591D01*
X61699054Y-71560485D01*
X61648259Y-71512512D01*
X61631463Y-71444692D01*
X61653999Y-71378556D01*
X61699054Y-71339515D01*
X61707816Y-71335051D01*
X61766818Y-71292184D01*
X61879786Y-71210109D01*
X61879788Y-71210106D01*
X61879792Y-71210104D01*
X62030104Y-71059792D01*
X62030106Y-71059788D01*
X62030109Y-71059786D01*
X62155048Y-70887820D01*
X62155047Y-70887820D01*
X62155051Y-70887816D01*
X62251557Y-70698412D01*
X62317246Y-70496243D01*
X62350500Y-70286287D01*
X62350500Y-70073713D01*
X62317246Y-69863757D01*
X62251557Y-69661588D01*
X62155051Y-69472184D01*
X62155049Y-69472181D01*
X62155048Y-69472179D01*
X62030109Y-69300213D01*
X61916569Y-69186673D01*
X61883084Y-69125350D01*
X61888068Y-69055658D01*
X61929940Y-68999725D01*
X61960915Y-68982810D01*
X62092331Y-68933796D01*
X62207546Y-68847546D01*
X62293796Y-68732331D01*
X62344091Y-68597483D01*
X62350500Y-68537873D01*
X62350499Y-66742135D01*
X66599500Y-66742135D01*
X66599500Y-68537870D01*
X66599501Y-68537876D01*
X66605908Y-68597483D01*
X66656202Y-68732328D01*
X66656206Y-68732335D01*
X66742452Y-68847544D01*
X66742455Y-68847547D01*
X66857664Y-68933793D01*
X66857671Y-68933797D01*
X66989082Y-68982810D01*
X67045016Y-69024681D01*
X67069433Y-69090145D01*
X67054582Y-69158418D01*
X67033431Y-69186673D01*
X66919889Y-69300215D01*
X66794951Y-69472179D01*
X66698444Y-69661585D01*
X66632753Y-69863760D01*
X66599500Y-70073713D01*
X66599500Y-70286286D01*
X66617477Y-70399792D01*
X66632754Y-70496243D01*
X66693355Y-70682754D01*
X66698444Y-70698414D01*
X66794951Y-70887820D01*
X66919890Y-71059786D01*
X67070213Y-71210109D01*
X67242182Y-71335050D01*
X67250946Y-71339516D01*
X67301742Y-71387491D01*
X67318536Y-71455312D01*
X67295998Y-71521447D01*
X67250946Y-71560484D01*
X67242182Y-71564949D01*
X67070213Y-71689890D01*
X66919890Y-71840213D01*
X66794951Y-72012179D01*
X66698444Y-72201585D01*
X66632753Y-72403760D01*
X66599500Y-72613713D01*
X66599500Y-72826286D01*
X66631781Y-73030104D01*
X66632754Y-73036243D01*
X66692303Y-73219516D01*
X66698444Y-73238414D01*
X66794951Y-73427820D01*
X66919890Y-73599786D01*
X67070213Y-73750109D01*
X67242182Y-73875050D01*
X67250946Y-73879516D01*
X67301742Y-73927491D01*
X67318536Y-73995312D01*
X67295998Y-74061447D01*
X67250946Y-74100484D01*
X67242182Y-74104949D01*
X67070213Y-74229890D01*
X66919890Y-74380213D01*
X66794951Y-74552179D01*
X66698444Y-74741585D01*
X66632753Y-74943760D01*
X66599500Y-75153713D01*
X66599500Y-75366286D01*
X66631781Y-75570104D01*
X66632754Y-75576243D01*
X66692303Y-75759516D01*
X66698444Y-75778414D01*
X66794951Y-75967820D01*
X66919890Y-76139786D01*
X67070213Y-76290109D01*
X67242182Y-76415050D01*
X67250946Y-76419516D01*
X67301742Y-76467491D01*
X67318536Y-76535312D01*
X67295998Y-76601447D01*
X67250946Y-76640484D01*
X67242182Y-76644949D01*
X67070213Y-76769890D01*
X66919890Y-76920213D01*
X66794951Y-77092179D01*
X66698444Y-77281585D01*
X66632753Y-77483760D01*
X66599500Y-77693713D01*
X66599500Y-77906286D01*
X66617477Y-78019792D01*
X66632754Y-78116243D01*
X66693355Y-78302754D01*
X66698444Y-78318414D01*
X66794951Y-78507820D01*
X66919890Y-78679786D01*
X67070213Y-78830109D01*
X67242182Y-78955050D01*
X67250946Y-78959516D01*
X67301742Y-79007491D01*
X67318536Y-79075312D01*
X67295998Y-79141447D01*
X67250946Y-79180484D01*
X67242182Y-79184949D01*
X67070213Y-79309890D01*
X66919890Y-79460213D01*
X66794951Y-79632179D01*
X66698444Y-79821585D01*
X66632753Y-80023760D01*
X66599500Y-80233713D01*
X66599500Y-80446286D01*
X66631781Y-80650104D01*
X66632754Y-80656243D01*
X66692303Y-80839516D01*
X66698444Y-80858414D01*
X66794951Y-81047820D01*
X66919890Y-81219786D01*
X67070213Y-81370109D01*
X67242182Y-81495050D01*
X67250946Y-81499516D01*
X67301742Y-81547491D01*
X67318536Y-81615312D01*
X67295998Y-81681447D01*
X67250946Y-81720484D01*
X67242182Y-81724949D01*
X67070213Y-81849890D01*
X66919890Y-82000213D01*
X66794951Y-82172179D01*
X66698444Y-82361585D01*
X66632753Y-82563760D01*
X66599500Y-82773713D01*
X66599500Y-82986286D01*
X66631781Y-83190104D01*
X66632754Y-83196243D01*
X66692303Y-83379516D01*
X66698444Y-83398414D01*
X66794951Y-83587820D01*
X66919890Y-83759786D01*
X67070213Y-83910109D01*
X67242182Y-84035050D01*
X67250946Y-84039516D01*
X67301742Y-84087491D01*
X67318536Y-84155312D01*
X67295998Y-84221447D01*
X67250946Y-84260484D01*
X67242182Y-84264949D01*
X67070213Y-84389890D01*
X66919890Y-84540213D01*
X66794951Y-84712179D01*
X66698444Y-84901585D01*
X66632753Y-85103760D01*
X66599500Y-85313713D01*
X66599500Y-85526286D01*
X66631781Y-85730104D01*
X66632754Y-85736243D01*
X66692303Y-85919516D01*
X66698444Y-85938414D01*
X66794951Y-86127820D01*
X66919890Y-86299786D01*
X67070213Y-86450109D01*
X67242182Y-86575050D01*
X67250946Y-86579516D01*
X67301742Y-86627491D01*
X67318536Y-86695312D01*
X67295998Y-86761447D01*
X67250946Y-86800484D01*
X67242182Y-86804949D01*
X67070213Y-86929890D01*
X66919890Y-87080213D01*
X66794951Y-87252179D01*
X66698444Y-87441585D01*
X66632753Y-87643760D01*
X66599500Y-87853713D01*
X66599500Y-88066286D01*
X66617477Y-88179792D01*
X66632754Y-88276243D01*
X66692303Y-88459516D01*
X66698444Y-88478414D01*
X66794951Y-88667820D01*
X66919890Y-88839786D01*
X67070213Y-88990109D01*
X67242182Y-89115050D01*
X67250946Y-89119516D01*
X67301742Y-89167491D01*
X67318536Y-89235312D01*
X67295998Y-89301447D01*
X67250946Y-89340484D01*
X67242182Y-89344949D01*
X67070213Y-89469890D01*
X66919890Y-89620213D01*
X66794951Y-89792179D01*
X66698444Y-89981585D01*
X66632753Y-90183760D01*
X66599500Y-90393713D01*
X66599500Y-90606286D01*
X66625697Y-90771691D01*
X66632754Y-90816243D01*
X66692303Y-90999516D01*
X66698444Y-91018414D01*
X66794951Y-91207820D01*
X66919890Y-91379786D01*
X67070213Y-91530109D01*
X67242182Y-91655050D01*
X67250946Y-91659516D01*
X67301742Y-91707491D01*
X67318536Y-91775312D01*
X67295998Y-91841447D01*
X67250946Y-91880484D01*
X67242182Y-91884949D01*
X67070213Y-92009890D01*
X66919890Y-92160213D01*
X66794951Y-92332179D01*
X66698444Y-92521585D01*
X66632753Y-92723760D01*
X66599500Y-92933713D01*
X66599500Y-93146286D01*
X66617544Y-93260215D01*
X66632754Y-93356243D01*
X66692303Y-93539516D01*
X66698444Y-93558414D01*
X66794951Y-93747820D01*
X66919890Y-93919786D01*
X67070213Y-94070109D01*
X67242182Y-94195050D01*
X67250946Y-94199516D01*
X67301742Y-94247491D01*
X67318536Y-94315312D01*
X67295998Y-94381447D01*
X67250946Y-94420484D01*
X67242182Y-94424949D01*
X67070213Y-94549890D01*
X66919890Y-94700213D01*
X66794951Y-94872179D01*
X66698444Y-95061585D01*
X66632753Y-95263760D01*
X66599500Y-95473713D01*
X66599500Y-95686286D01*
X66617477Y-95799792D01*
X66632754Y-95896243D01*
X66692303Y-96079516D01*
X66698444Y-96098414D01*
X66794951Y-96287820D01*
X66919890Y-96459786D01*
X67070213Y-96610109D01*
X67242182Y-96735050D01*
X67250946Y-96739516D01*
X67301742Y-96787491D01*
X67318536Y-96855312D01*
X67295998Y-96921447D01*
X67250946Y-96960484D01*
X67242182Y-96964949D01*
X67070213Y-97089890D01*
X66919890Y-97240213D01*
X66794951Y-97412179D01*
X66698444Y-97601585D01*
X66632753Y-97803760D01*
X66599500Y-98013713D01*
X66599500Y-98226286D01*
X66617477Y-98339792D01*
X66632754Y-98436243D01*
X66692303Y-98619516D01*
X66698444Y-98638414D01*
X66794951Y-98827820D01*
X66919890Y-98999786D01*
X67070213Y-99150109D01*
X67242182Y-99275050D01*
X67250946Y-99279516D01*
X67301742Y-99327491D01*
X67318536Y-99395312D01*
X67295998Y-99461447D01*
X67250946Y-99500484D01*
X67242182Y-99504949D01*
X67070213Y-99629890D01*
X66919890Y-99780213D01*
X66794951Y-99952179D01*
X66698444Y-100141585D01*
X66632753Y-100343760D01*
X66599500Y-100553713D01*
X66599500Y-100766286D01*
X66617477Y-100879792D01*
X66632754Y-100976243D01*
X66692303Y-101159516D01*
X66698444Y-101178414D01*
X66794951Y-101367820D01*
X66919890Y-101539786D01*
X67070213Y-101690109D01*
X67242182Y-101815050D01*
X67250946Y-101819516D01*
X67301742Y-101867491D01*
X67318536Y-101935312D01*
X67295998Y-102001447D01*
X67250946Y-102040484D01*
X67242182Y-102044949D01*
X67070213Y-102169890D01*
X66919890Y-102320213D01*
X66794951Y-102492179D01*
X66698444Y-102681585D01*
X66632753Y-102883760D01*
X66599500Y-103093713D01*
X66599500Y-103306286D01*
X66617477Y-103419792D01*
X66632754Y-103516243D01*
X66692303Y-103699516D01*
X66698444Y-103718414D01*
X66794951Y-103907820D01*
X66919890Y-104079786D01*
X67070213Y-104230109D01*
X67242179Y-104355048D01*
X67242181Y-104355049D01*
X67242184Y-104355051D01*
X67431588Y-104451557D01*
X67633757Y-104517246D01*
X67843713Y-104550500D01*
X67843714Y-104550500D01*
X68056286Y-104550500D01*
X68056287Y-104550500D01*
X68266243Y-104517246D01*
X68468412Y-104451557D01*
X68657816Y-104355051D01*
X68679789Y-104339086D01*
X68829786Y-104230109D01*
X68829788Y-104230106D01*
X68829792Y-104230104D01*
X68980104Y-104079792D01*
X68980106Y-104079788D01*
X68980109Y-104079786D01*
X69105048Y-103907820D01*
X69105047Y-103907820D01*
X69105051Y-103907816D01*
X69201557Y-103718412D01*
X69267246Y-103516243D01*
X69300500Y-103306287D01*
X69300500Y-103093713D01*
X69267246Y-102883757D01*
X69201557Y-102681588D01*
X69105051Y-102492184D01*
X69105049Y-102492181D01*
X69105048Y-102492179D01*
X68980109Y-102320213D01*
X68829786Y-102169890D01*
X68657820Y-102044951D01*
X68657115Y-102044591D01*
X68649054Y-102040485D01*
X68598259Y-101992512D01*
X68581463Y-101924692D01*
X68603999Y-101858556D01*
X68649054Y-101819515D01*
X68657816Y-101815051D01*
X68679789Y-101799086D01*
X68829786Y-101690109D01*
X68829788Y-101690106D01*
X68829792Y-101690104D01*
X68980104Y-101539792D01*
X68980106Y-101539788D01*
X68980109Y-101539786D01*
X69105048Y-101367820D01*
X69105047Y-101367820D01*
X69105051Y-101367816D01*
X69201557Y-101178412D01*
X69267246Y-100976243D01*
X69300500Y-100766287D01*
X69300500Y-100553713D01*
X69267246Y-100343757D01*
X69201557Y-100141588D01*
X69105051Y-99952184D01*
X69105049Y-99952181D01*
X69105048Y-99952179D01*
X68980109Y-99780213D01*
X68829786Y-99629890D01*
X68657820Y-99504951D01*
X68657115Y-99504591D01*
X68649054Y-99500485D01*
X68598259Y-99452512D01*
X68581463Y-99384692D01*
X68603999Y-99318556D01*
X68649054Y-99279515D01*
X68657816Y-99275051D01*
X68679789Y-99259086D01*
X68829786Y-99150109D01*
X68829788Y-99150106D01*
X68829792Y-99150104D01*
X68980104Y-98999792D01*
X68980106Y-98999788D01*
X68980109Y-98999786D01*
X69105048Y-98827820D01*
X69105047Y-98827820D01*
X69105051Y-98827816D01*
X69201557Y-98638412D01*
X69267246Y-98436243D01*
X69300500Y-98226287D01*
X69300500Y-98013713D01*
X69267246Y-97803757D01*
X69201557Y-97601588D01*
X69105051Y-97412184D01*
X69105049Y-97412181D01*
X69105048Y-97412179D01*
X68980109Y-97240213D01*
X68829786Y-97089890D01*
X68657820Y-96964951D01*
X68657115Y-96964591D01*
X68649054Y-96960485D01*
X68598259Y-96912512D01*
X68581463Y-96844692D01*
X68603999Y-96778556D01*
X68649054Y-96739515D01*
X68657816Y-96735051D01*
X68733589Y-96679999D01*
X68829786Y-96610109D01*
X68829788Y-96610106D01*
X68829792Y-96610104D01*
X68980104Y-96459792D01*
X68980106Y-96459788D01*
X68980109Y-96459786D01*
X69105048Y-96287820D01*
X69105047Y-96287820D01*
X69105051Y-96287816D01*
X69201557Y-96098412D01*
X69267246Y-95896243D01*
X69300500Y-95686287D01*
X69300500Y-95473713D01*
X69267246Y-95263757D01*
X69201557Y-95061588D01*
X69105051Y-94872184D01*
X69105049Y-94872181D01*
X69105048Y-94872179D01*
X68980109Y-94700213D01*
X68829786Y-94549890D01*
X68657820Y-94424951D01*
X68657115Y-94424591D01*
X68649054Y-94420485D01*
X68598259Y-94372512D01*
X68581463Y-94304692D01*
X68603999Y-94238556D01*
X68649054Y-94199515D01*
X68657816Y-94195051D01*
X68679789Y-94179086D01*
X68829786Y-94070109D01*
X68829788Y-94070106D01*
X68829792Y-94070104D01*
X68980104Y-93919792D01*
X68980106Y-93919788D01*
X68980109Y-93919786D01*
X69105048Y-93747820D01*
X69105047Y-93747820D01*
X69105051Y-93747816D01*
X69201557Y-93558412D01*
X69267246Y-93356243D01*
X69300500Y-93146287D01*
X69300500Y-92933713D01*
X69267246Y-92723757D01*
X69201557Y-92521588D01*
X69105051Y-92332184D01*
X69105049Y-92332181D01*
X69105048Y-92332179D01*
X68980109Y-92160213D01*
X68829786Y-92009890D01*
X68657820Y-91884951D01*
X68657115Y-91884591D01*
X68649054Y-91880485D01*
X68598259Y-91832512D01*
X68581463Y-91764692D01*
X68603999Y-91698556D01*
X68649054Y-91659515D01*
X68657816Y-91655051D01*
X68679789Y-91639086D01*
X68829786Y-91530109D01*
X68829788Y-91530106D01*
X68829792Y-91530104D01*
X68866183Y-91493713D01*
X76649500Y-91493713D01*
X76649500Y-91706286D01*
X76677090Y-91880486D01*
X76682754Y-91916243D01*
X76730685Y-92063760D01*
X76748444Y-92118414D01*
X76844951Y-92307820D01*
X76969890Y-92479786D01*
X77120213Y-92630109D01*
X77292182Y-92755050D01*
X77300946Y-92759516D01*
X77351742Y-92807491D01*
X77368536Y-92875312D01*
X77345998Y-92941447D01*
X77300946Y-92980484D01*
X77292182Y-92984949D01*
X77120213Y-93109890D01*
X76969890Y-93260213D01*
X76844951Y-93432179D01*
X76748444Y-93621585D01*
X76682753Y-93823760D01*
X76649500Y-94033713D01*
X76649500Y-94246286D01*
X76677090Y-94420486D01*
X76682754Y-94456243D01*
X76730685Y-94603760D01*
X76748444Y-94658414D01*
X76844951Y-94847820D01*
X76969890Y-95019786D01*
X77120213Y-95170109D01*
X77292179Y-95295048D01*
X77292181Y-95295049D01*
X77292184Y-95295051D01*
X77301493Y-95299794D01*
X77352290Y-95347766D01*
X77369087Y-95415587D01*
X77346552Y-95481722D01*
X77301505Y-95520760D01*
X77292446Y-95525376D01*
X77292440Y-95525380D01*
X77238282Y-95564727D01*
X77238282Y-95564728D01*
X77870591Y-96197037D01*
X77807007Y-96214075D01*
X77692993Y-96279901D01*
X77599901Y-96372993D01*
X77534075Y-96487007D01*
X77517037Y-96550591D01*
X76884728Y-95918282D01*
X76884727Y-95918282D01*
X76845380Y-95972439D01*
X76748904Y-96161782D01*
X76683242Y-96363869D01*
X76683242Y-96363872D01*
X76650000Y-96573753D01*
X76650000Y-96786246D01*
X76683242Y-96996127D01*
X76683242Y-96996130D01*
X76748904Y-97198217D01*
X76845375Y-97387550D01*
X76884728Y-97441716D01*
X77517037Y-96809408D01*
X77534075Y-96872993D01*
X77599901Y-96987007D01*
X77692993Y-97080099D01*
X77807007Y-97145925D01*
X77870590Y-97162962D01*
X77238282Y-97795269D01*
X77238282Y-97795270D01*
X77292452Y-97834626D01*
X77292451Y-97834626D01*
X77301495Y-97839234D01*
X77352292Y-97887208D01*
X77369087Y-97955029D01*
X77346550Y-98021164D01*
X77301499Y-98060202D01*
X77292182Y-98064949D01*
X77120213Y-98189890D01*
X76969890Y-98340213D01*
X76844951Y-98512179D01*
X76748444Y-98701585D01*
X76682753Y-98903760D01*
X76649500Y-99113713D01*
X76649500Y-99326286D01*
X76677090Y-99500486D01*
X76682754Y-99536243D01*
X76730685Y-99683760D01*
X76748444Y-99738414D01*
X76844951Y-99927820D01*
X76969890Y-100099786D01*
X77120213Y-100250109D01*
X77292182Y-100375050D01*
X77300946Y-100379516D01*
X77351742Y-100427491D01*
X77368536Y-100495312D01*
X77345998Y-100561447D01*
X77300946Y-100600484D01*
X77292182Y-100604949D01*
X77120213Y-100729890D01*
X76969890Y-100880213D01*
X76844951Y-101052179D01*
X76748444Y-101241585D01*
X76682753Y-101443760D01*
X76649500Y-101653713D01*
X76649500Y-101866286D01*
X76677090Y-102040486D01*
X76682754Y-102076243D01*
X76730685Y-102223760D01*
X76748444Y-102278414D01*
X76844951Y-102467820D01*
X76969890Y-102639786D01*
X77120213Y-102790109D01*
X77292182Y-102915050D01*
X77300946Y-102919516D01*
X77351742Y-102967491D01*
X77368536Y-103035312D01*
X77345998Y-103101447D01*
X77300946Y-103140484D01*
X77292182Y-103144949D01*
X77120213Y-103269890D01*
X76969890Y-103420213D01*
X76844951Y-103592179D01*
X76748444Y-103781585D01*
X76682753Y-103983760D01*
X76667544Y-104079786D01*
X76649500Y-104193713D01*
X76649500Y-104406287D01*
X76682754Y-104616243D01*
X76730685Y-104763760D01*
X76748444Y-104818414D01*
X76844951Y-105007820D01*
X76969890Y-105179786D01*
X77120213Y-105330109D01*
X77292179Y-105455048D01*
X77292181Y-105455049D01*
X77292184Y-105455051D01*
X77481588Y-105551557D01*
X77683757Y-105617246D01*
X77893713Y-105650500D01*
X77893714Y-105650500D01*
X78106286Y-105650500D01*
X78106287Y-105650500D01*
X78316243Y-105617246D01*
X78518412Y-105551557D01*
X78707816Y-105455051D01*
X78788759Y-105396243D01*
X78879786Y-105330109D01*
X78879788Y-105330106D01*
X78879792Y-105330104D01*
X79030104Y-105179792D01*
X79030106Y-105179788D01*
X79030109Y-105179786D01*
X79155048Y-105007820D01*
X79155047Y-105007820D01*
X79155051Y-105007816D01*
X79251557Y-104818412D01*
X79317246Y-104616243D01*
X79350500Y-104406287D01*
X79350500Y-104193713D01*
X79317246Y-103983757D01*
X79251557Y-103781588D01*
X79155051Y-103592184D01*
X79155049Y-103592181D01*
X79155048Y-103592179D01*
X79030109Y-103420213D01*
X78879786Y-103269890D01*
X78707820Y-103144951D01*
X78707115Y-103144591D01*
X78699054Y-103140485D01*
X78648259Y-103092512D01*
X78631463Y-103024692D01*
X78653999Y-102958556D01*
X78699054Y-102919515D01*
X78707816Y-102915051D01*
X78788759Y-102856243D01*
X78879786Y-102790109D01*
X78879788Y-102790106D01*
X78879792Y-102790104D01*
X79030104Y-102639792D01*
X79030106Y-102639788D01*
X79030109Y-102639786D01*
X79155048Y-102467820D01*
X79155047Y-102467820D01*
X79155051Y-102467816D01*
X79251557Y-102278412D01*
X79317246Y-102076243D01*
X79350500Y-101866287D01*
X79350500Y-101653713D01*
X79317246Y-101443757D01*
X79251557Y-101241588D01*
X79155051Y-101052184D01*
X79155049Y-101052181D01*
X79155048Y-101052179D01*
X79030109Y-100880213D01*
X78879786Y-100729890D01*
X78707820Y-100604951D01*
X78707115Y-100604591D01*
X78699054Y-100600485D01*
X78648259Y-100552512D01*
X78631463Y-100484692D01*
X78653999Y-100418556D01*
X78699054Y-100379515D01*
X78707816Y-100375051D01*
X78788759Y-100316243D01*
X78879786Y-100250109D01*
X78879788Y-100250106D01*
X78879792Y-100250104D01*
X79030104Y-100099792D01*
X79030106Y-100099788D01*
X79030109Y-100099786D01*
X79155048Y-99927820D01*
X79155047Y-99927820D01*
X79155051Y-99927816D01*
X79251557Y-99738412D01*
X79317246Y-99536243D01*
X79350500Y-99326287D01*
X79350500Y-99113713D01*
X79317246Y-98903757D01*
X79251557Y-98701588D01*
X79155051Y-98512184D01*
X79155049Y-98512181D01*
X79155048Y-98512179D01*
X79030109Y-98340213D01*
X78879786Y-98189890D01*
X78707817Y-98064949D01*
X78698504Y-98060204D01*
X78647707Y-98012230D01*
X78630912Y-97944409D01*
X78653449Y-97878274D01*
X78698507Y-97839232D01*
X78707555Y-97834622D01*
X78761716Y-97795270D01*
X78761717Y-97795270D01*
X78129408Y-97162962D01*
X78192993Y-97145925D01*
X78307007Y-97080099D01*
X78400099Y-96987007D01*
X78465925Y-96872993D01*
X78482962Y-96809408D01*
X79115270Y-97441717D01*
X79115270Y-97441716D01*
X79154622Y-97387554D01*
X79251095Y-97198217D01*
X79316757Y-96996130D01*
X79316757Y-96996127D01*
X79350000Y-96786246D01*
X79350000Y-96573753D01*
X79316757Y-96363872D01*
X79316757Y-96363869D01*
X79251095Y-96161782D01*
X79154624Y-95972449D01*
X79115270Y-95918282D01*
X79115269Y-95918282D01*
X78482962Y-96550590D01*
X78465925Y-96487007D01*
X78400099Y-96372993D01*
X78307007Y-96279901D01*
X78192993Y-96214075D01*
X78129409Y-96197037D01*
X78761716Y-95564728D01*
X78707547Y-95525373D01*
X78707547Y-95525372D01*
X78698500Y-95520763D01*
X78647706Y-95472788D01*
X78630912Y-95404966D01*
X78653451Y-95338832D01*
X78698508Y-95299793D01*
X78707816Y-95295051D01*
X78788764Y-95236239D01*
X78879786Y-95170109D01*
X78879788Y-95170106D01*
X78879792Y-95170104D01*
X79030104Y-95019792D01*
X79030106Y-95019788D01*
X79030109Y-95019786D01*
X79155048Y-94847820D01*
X79155047Y-94847820D01*
X79155051Y-94847816D01*
X79251557Y-94658412D01*
X79317246Y-94456243D01*
X79350500Y-94246287D01*
X79350500Y-94033713D01*
X79317246Y-93823757D01*
X79251557Y-93621588D01*
X79155051Y-93432184D01*
X79155049Y-93432181D01*
X79155048Y-93432179D01*
X79030109Y-93260213D01*
X78879786Y-93109890D01*
X78707820Y-92984951D01*
X78707115Y-92984591D01*
X78699054Y-92980485D01*
X78648259Y-92932512D01*
X78631463Y-92864692D01*
X78653999Y-92798556D01*
X78699054Y-92759515D01*
X78707816Y-92755051D01*
X78788759Y-92696243D01*
X78879786Y-92630109D01*
X78879788Y-92630106D01*
X78879792Y-92630104D01*
X79030104Y-92479792D01*
X79030106Y-92479788D01*
X79030109Y-92479786D01*
X79155048Y-92307820D01*
X79155047Y-92307820D01*
X79155051Y-92307816D01*
X79251557Y-92118412D01*
X79317246Y-91916243D01*
X79350500Y-91706287D01*
X79350500Y-91493713D01*
X79317246Y-91283757D01*
X79251557Y-91081588D01*
X79155051Y-90892184D01*
X79030104Y-90720208D01*
X79012031Y-90702135D01*
X86649500Y-90702135D01*
X86649500Y-92497870D01*
X86649501Y-92497876D01*
X86655908Y-92557483D01*
X86706202Y-92692328D01*
X86706206Y-92692335D01*
X86792452Y-92807544D01*
X86792455Y-92807547D01*
X86907664Y-92893793D01*
X86907671Y-92893797D01*
X87039082Y-92942810D01*
X87095016Y-92984681D01*
X87119433Y-93050145D01*
X87104582Y-93118418D01*
X87083431Y-93146673D01*
X86969889Y-93260215D01*
X86844951Y-93432179D01*
X86748444Y-93621585D01*
X86682753Y-93823760D01*
X86649500Y-94033713D01*
X86649500Y-94246286D01*
X86677090Y-94420486D01*
X86682754Y-94456243D01*
X86730685Y-94603760D01*
X86748444Y-94658414D01*
X86844951Y-94847820D01*
X86969890Y-95019786D01*
X87120213Y-95170109D01*
X87292179Y-95295048D01*
X87292181Y-95295049D01*
X87292184Y-95295051D01*
X87301493Y-95299794D01*
X87352290Y-95347766D01*
X87369087Y-95415587D01*
X87346552Y-95481722D01*
X87301505Y-95520760D01*
X87292446Y-95525376D01*
X87292440Y-95525380D01*
X87238282Y-95564727D01*
X87238282Y-95564728D01*
X87870591Y-96197037D01*
X87807007Y-96214075D01*
X87692993Y-96279901D01*
X87599901Y-96372993D01*
X87534075Y-96487007D01*
X87517037Y-96550591D01*
X86884728Y-95918282D01*
X86884727Y-95918282D01*
X86845380Y-95972439D01*
X86748904Y-96161782D01*
X86683242Y-96363869D01*
X86683242Y-96363872D01*
X86650000Y-96573753D01*
X86650000Y-96786246D01*
X86683242Y-96996127D01*
X86683242Y-96996130D01*
X86748904Y-97198217D01*
X86845375Y-97387550D01*
X86884728Y-97441716D01*
X87517037Y-96809408D01*
X87534075Y-96872993D01*
X87599901Y-96987007D01*
X87692993Y-97080099D01*
X87807007Y-97145925D01*
X87870590Y-97162962D01*
X87238282Y-97795269D01*
X87238282Y-97795270D01*
X87292452Y-97834626D01*
X87292451Y-97834626D01*
X87301495Y-97839234D01*
X87352292Y-97887208D01*
X87369087Y-97955029D01*
X87346550Y-98021164D01*
X87301499Y-98060202D01*
X87292182Y-98064949D01*
X87120213Y-98189890D01*
X86969890Y-98340213D01*
X86844951Y-98512179D01*
X86748444Y-98701585D01*
X86682753Y-98903760D01*
X86649500Y-99113713D01*
X86649500Y-99326286D01*
X86677090Y-99500486D01*
X86682754Y-99536243D01*
X86730685Y-99683760D01*
X86748444Y-99738414D01*
X86844951Y-99927820D01*
X86969890Y-100099786D01*
X87120213Y-100250109D01*
X87292182Y-100375050D01*
X87300946Y-100379516D01*
X87351742Y-100427491D01*
X87368536Y-100495312D01*
X87345998Y-100561447D01*
X87300946Y-100600484D01*
X87292182Y-100604949D01*
X87120213Y-100729890D01*
X86969890Y-100880213D01*
X86844951Y-101052179D01*
X86748444Y-101241585D01*
X86682753Y-101443760D01*
X86649500Y-101653713D01*
X86649500Y-101866286D01*
X86677090Y-102040486D01*
X86682754Y-102076243D01*
X86730685Y-102223760D01*
X86748444Y-102278414D01*
X86844951Y-102467820D01*
X86969890Y-102639786D01*
X87120213Y-102790109D01*
X87292182Y-102915050D01*
X87300946Y-102919516D01*
X87351742Y-102967491D01*
X87368536Y-103035312D01*
X87345998Y-103101447D01*
X87300946Y-103140484D01*
X87292182Y-103144949D01*
X87120213Y-103269890D01*
X86969890Y-103420213D01*
X86844951Y-103592179D01*
X86748444Y-103781585D01*
X86682753Y-103983760D01*
X86667544Y-104079786D01*
X86649500Y-104193713D01*
X86649500Y-104406287D01*
X86682754Y-104616243D01*
X86730685Y-104763760D01*
X86748444Y-104818414D01*
X86844951Y-105007820D01*
X86969890Y-105179786D01*
X87120213Y-105330109D01*
X87292179Y-105455048D01*
X87292181Y-105455049D01*
X87292184Y-105455051D01*
X87481588Y-105551557D01*
X87683757Y-105617246D01*
X87893713Y-105650500D01*
X87893714Y-105650500D01*
X88106286Y-105650500D01*
X88106287Y-105650500D01*
X88316243Y-105617246D01*
X88518412Y-105551557D01*
X88707816Y-105455051D01*
X88788759Y-105396243D01*
X88879786Y-105330109D01*
X88879788Y-105330106D01*
X88879792Y-105330104D01*
X89030104Y-105179792D01*
X89030106Y-105179788D01*
X89030109Y-105179786D01*
X89155048Y-105007820D01*
X89155047Y-105007820D01*
X89155051Y-105007816D01*
X89251557Y-104818412D01*
X89317246Y-104616243D01*
X89350500Y-104406287D01*
X89350500Y-104193713D01*
X89317246Y-103983757D01*
X89251557Y-103781588D01*
X89155051Y-103592184D01*
X89155049Y-103592181D01*
X89155048Y-103592179D01*
X89030109Y-103420213D01*
X88879786Y-103269890D01*
X88707820Y-103144951D01*
X88707115Y-103144591D01*
X88699054Y-103140485D01*
X88648259Y-103092512D01*
X88631463Y-103024692D01*
X88653999Y-102958556D01*
X88699054Y-102919515D01*
X88707816Y-102915051D01*
X88788759Y-102856243D01*
X88879786Y-102790109D01*
X88879788Y-102790106D01*
X88879792Y-102790104D01*
X89030104Y-102639792D01*
X89030106Y-102639788D01*
X89030109Y-102639786D01*
X89155048Y-102467820D01*
X89155047Y-102467820D01*
X89155051Y-102467816D01*
X89251557Y-102278412D01*
X89317246Y-102076243D01*
X89350500Y-101866287D01*
X89350500Y-101653713D01*
X89317246Y-101443757D01*
X89251557Y-101241588D01*
X89155051Y-101052184D01*
X89155049Y-101052181D01*
X89155048Y-101052179D01*
X89030109Y-100880213D01*
X88879786Y-100729890D01*
X88707820Y-100604951D01*
X88707115Y-100604591D01*
X88699054Y-100600485D01*
X88648259Y-100552512D01*
X88631463Y-100484692D01*
X88653999Y-100418556D01*
X88699054Y-100379515D01*
X88707816Y-100375051D01*
X88788759Y-100316243D01*
X88879786Y-100250109D01*
X88879788Y-100250106D01*
X88879792Y-100250104D01*
X89030104Y-100099792D01*
X89030106Y-100099788D01*
X89030109Y-100099786D01*
X89155048Y-99927820D01*
X89155047Y-99927820D01*
X89155051Y-99927816D01*
X89251557Y-99738412D01*
X89317246Y-99536243D01*
X89350500Y-99326287D01*
X89350500Y-99113713D01*
X89317246Y-98903757D01*
X89251557Y-98701588D01*
X89155051Y-98512184D01*
X89155049Y-98512181D01*
X89155048Y-98512179D01*
X89030109Y-98340213D01*
X88879786Y-98189890D01*
X88707817Y-98064949D01*
X88698504Y-98060204D01*
X88647707Y-98012230D01*
X88630912Y-97944409D01*
X88653449Y-97878274D01*
X88698507Y-97839232D01*
X88707555Y-97834622D01*
X88761716Y-97795270D01*
X88761717Y-97795270D01*
X88129408Y-97162962D01*
X88192993Y-97145925D01*
X88307007Y-97080099D01*
X88400099Y-96987007D01*
X88465925Y-96872993D01*
X88482962Y-96809408D01*
X89115270Y-97441717D01*
X89115270Y-97441716D01*
X89154622Y-97387554D01*
X89251095Y-97198217D01*
X89316757Y-96996130D01*
X89316757Y-96996127D01*
X89350000Y-96786246D01*
X89350000Y-96573753D01*
X89316757Y-96363872D01*
X89316757Y-96363869D01*
X89251095Y-96161782D01*
X89154624Y-95972449D01*
X89115270Y-95918282D01*
X89115269Y-95918282D01*
X88482962Y-96550590D01*
X88465925Y-96487007D01*
X88400099Y-96372993D01*
X88307007Y-96279901D01*
X88192993Y-96214075D01*
X88129409Y-96197037D01*
X88761716Y-95564728D01*
X88707547Y-95525373D01*
X88707547Y-95525372D01*
X88698500Y-95520763D01*
X88647706Y-95472788D01*
X88630912Y-95404966D01*
X88653451Y-95338832D01*
X88698508Y-95299793D01*
X88707816Y-95295051D01*
X88788764Y-95236239D01*
X88879786Y-95170109D01*
X88879788Y-95170106D01*
X88879792Y-95170104D01*
X89030104Y-95019792D01*
X89030106Y-95019788D01*
X89030109Y-95019786D01*
X89155048Y-94847820D01*
X89155047Y-94847820D01*
X89155051Y-94847816D01*
X89251557Y-94658412D01*
X89317246Y-94456243D01*
X89350500Y-94246287D01*
X89350500Y-94033713D01*
X89317246Y-93823757D01*
X89251557Y-93621588D01*
X89155051Y-93432184D01*
X89155049Y-93432181D01*
X89155048Y-93432179D01*
X89030109Y-93260213D01*
X88916569Y-93146673D01*
X88883084Y-93085350D01*
X88888068Y-93015658D01*
X88929940Y-92959725D01*
X88960915Y-92942810D01*
X89092331Y-92893796D01*
X89207546Y-92807546D01*
X89293796Y-92692331D01*
X89344091Y-92557483D01*
X89350500Y-92497873D01*
X89350499Y-90702128D01*
X89344091Y-90642517D01*
X89308771Y-90547820D01*
X89293797Y-90507671D01*
X89293793Y-90507664D01*
X89207547Y-90392455D01*
X89207544Y-90392452D01*
X89092335Y-90306206D01*
X89092328Y-90306202D01*
X88957482Y-90255908D01*
X88957483Y-90255908D01*
X88897883Y-90249501D01*
X88897881Y-90249500D01*
X88897873Y-90249500D01*
X88897864Y-90249500D01*
X87102129Y-90249500D01*
X87102123Y-90249501D01*
X87042516Y-90255908D01*
X86907671Y-90306202D01*
X86907664Y-90306206D01*
X86792455Y-90392452D01*
X86792452Y-90392455D01*
X86706206Y-90507664D01*
X86706202Y-90507671D01*
X86655908Y-90642517D01*
X86649501Y-90702116D01*
X86649501Y-90702123D01*
X86649500Y-90702135D01*
X79012031Y-90702135D01*
X78879792Y-90569896D01*
X78879786Y-90569890D01*
X78707820Y-90444951D01*
X78518414Y-90348444D01*
X78518413Y-90348443D01*
X78518412Y-90348443D01*
X78316243Y-90282754D01*
X78316241Y-90282753D01*
X78316240Y-90282753D01*
X78154957Y-90257208D01*
X78106287Y-90249500D01*
X77893713Y-90249500D01*
X77845042Y-90257208D01*
X77683760Y-90282753D01*
X77481585Y-90348444D01*
X77292179Y-90444951D01*
X77120213Y-90569890D01*
X76969890Y-90720213D01*
X76844951Y-90892179D01*
X76748444Y-91081585D01*
X76682753Y-91283760D01*
X76649500Y-91493713D01*
X68866183Y-91493713D01*
X68980104Y-91379792D01*
X68980106Y-91379788D01*
X68980109Y-91379786D01*
X69105048Y-91207820D01*
X69105047Y-91207820D01*
X69105051Y-91207816D01*
X69201557Y-91018412D01*
X69267246Y-90816243D01*
X69300500Y-90606287D01*
X69300500Y-90393713D01*
X69267246Y-90183757D01*
X69201557Y-89981588D01*
X69105051Y-89792184D01*
X69105049Y-89792181D01*
X69105048Y-89792179D01*
X68980109Y-89620213D01*
X68829786Y-89469890D01*
X68657820Y-89344951D01*
X68657115Y-89344591D01*
X68649054Y-89340485D01*
X68598259Y-89292512D01*
X68581463Y-89224692D01*
X68603999Y-89158556D01*
X68649054Y-89119515D01*
X68657816Y-89115051D01*
X68679789Y-89099086D01*
X68829786Y-88990109D01*
X68829788Y-88990106D01*
X68829792Y-88990104D01*
X68980104Y-88839792D01*
X68980106Y-88839788D01*
X68980109Y-88839786D01*
X69105048Y-88667820D01*
X69105047Y-88667820D01*
X69105051Y-88667816D01*
X69201557Y-88478412D01*
X69267246Y-88276243D01*
X69300500Y-88066287D01*
X69300500Y-87853713D01*
X69267246Y-87643757D01*
X69201557Y-87441588D01*
X69105051Y-87252184D01*
X69105049Y-87252181D01*
X69105048Y-87252179D01*
X68980109Y-87080213D01*
X68829786Y-86929890D01*
X68657820Y-86804951D01*
X68657115Y-86804591D01*
X68649054Y-86800485D01*
X68598259Y-86752512D01*
X68581463Y-86684692D01*
X68603999Y-86618556D01*
X68649054Y-86579515D01*
X68657816Y-86575051D01*
X68679789Y-86559086D01*
X68829786Y-86450109D01*
X68829788Y-86450106D01*
X68829792Y-86450104D01*
X68980104Y-86299792D01*
X68980106Y-86299788D01*
X68980109Y-86299786D01*
X69105048Y-86127820D01*
X69105047Y-86127820D01*
X69105051Y-86127816D01*
X69201557Y-85938412D01*
X69267246Y-85736243D01*
X69300500Y-85526287D01*
X69300500Y-85313713D01*
X69267246Y-85103757D01*
X69201557Y-84901588D01*
X69105051Y-84712184D01*
X69105049Y-84712181D01*
X69105048Y-84712179D01*
X68980109Y-84540213D01*
X68829786Y-84389890D01*
X68657820Y-84264951D01*
X68657115Y-84264591D01*
X68649054Y-84260485D01*
X68598259Y-84212512D01*
X68581463Y-84144692D01*
X68603999Y-84078556D01*
X68649054Y-84039515D01*
X68657816Y-84035051D01*
X68716825Y-83992179D01*
X68829786Y-83910109D01*
X68829788Y-83910106D01*
X68829792Y-83910104D01*
X68980104Y-83759792D01*
X68980106Y-83759788D01*
X68980109Y-83759786D01*
X69105048Y-83587820D01*
X69105047Y-83587820D01*
X69105051Y-83587816D01*
X69201557Y-83398412D01*
X69267246Y-83196243D01*
X69300500Y-82986287D01*
X69300500Y-82773713D01*
X69267246Y-82563757D01*
X69201557Y-82361588D01*
X69105051Y-82172184D01*
X69105049Y-82172181D01*
X69105048Y-82172179D01*
X68980109Y-82000213D01*
X68829786Y-81849890D01*
X68657820Y-81724951D01*
X68657115Y-81724591D01*
X68649054Y-81720485D01*
X68598259Y-81672512D01*
X68581463Y-81604692D01*
X68603999Y-81538556D01*
X68649054Y-81499515D01*
X68657816Y-81495051D01*
X68716825Y-81452179D01*
X68829786Y-81370109D01*
X68829788Y-81370106D01*
X68829792Y-81370104D01*
X68980104Y-81219792D01*
X68980106Y-81219788D01*
X68980109Y-81219786D01*
X69105048Y-81047820D01*
X69105047Y-81047820D01*
X69105051Y-81047816D01*
X69201557Y-80858412D01*
X69267246Y-80656243D01*
X69300500Y-80446287D01*
X69300500Y-80233713D01*
X69267246Y-80023757D01*
X69201557Y-79821588D01*
X69105051Y-79632184D01*
X69100264Y-79625595D01*
X69068392Y-79581726D01*
X68980109Y-79460213D01*
X68829786Y-79309890D01*
X68657820Y-79184951D01*
X68657115Y-79184591D01*
X68649054Y-79180485D01*
X68598259Y-79132512D01*
X68581463Y-79064692D01*
X68603999Y-78998556D01*
X68649054Y-78959515D01*
X68657816Y-78955051D01*
X68716825Y-78912179D01*
X68829786Y-78830109D01*
X68829788Y-78830106D01*
X68829792Y-78830104D01*
X68980104Y-78679792D01*
X68980106Y-78679788D01*
X68980109Y-78679786D01*
X69105048Y-78507820D01*
X69105047Y-78507820D01*
X69105051Y-78507816D01*
X69201557Y-78318412D01*
X69267246Y-78116243D01*
X69300500Y-77906287D01*
X69300500Y-77693713D01*
X69267246Y-77483757D01*
X69201557Y-77281588D01*
X69105051Y-77092184D01*
X68980104Y-76920208D01*
X68829792Y-76769896D01*
X68829786Y-76769890D01*
X68657820Y-76644951D01*
X68657115Y-76644591D01*
X68649054Y-76640485D01*
X68598259Y-76592512D01*
X68581463Y-76524692D01*
X68603999Y-76458556D01*
X68649054Y-76419515D01*
X68657816Y-76415051D01*
X68716467Y-76372439D01*
X68829786Y-76290109D01*
X68829788Y-76290106D01*
X68829792Y-76290104D01*
X68980104Y-76139792D01*
X68980106Y-76139788D01*
X68980109Y-76139786D01*
X69105048Y-75967820D01*
X69105047Y-75967820D01*
X69105051Y-75967816D01*
X69201557Y-75778412D01*
X69267246Y-75576243D01*
X69300500Y-75366287D01*
X69300500Y-75153713D01*
X69267246Y-74943757D01*
X69201557Y-74741588D01*
X69105051Y-74552184D01*
X69105049Y-74552181D01*
X69105048Y-74552179D01*
X68980109Y-74380213D01*
X68829786Y-74229890D01*
X68657820Y-74104951D01*
X68657115Y-74104591D01*
X68649054Y-74100485D01*
X68598259Y-74052512D01*
X68581463Y-73984692D01*
X68603999Y-73918556D01*
X68649054Y-73879515D01*
X68657816Y-73875051D01*
X68716825Y-73832179D01*
X68829786Y-73750109D01*
X68829788Y-73750106D01*
X68829792Y-73750104D01*
X68980104Y-73599792D01*
X68980106Y-73599788D01*
X68980109Y-73599786D01*
X69105048Y-73427820D01*
X69105047Y-73427820D01*
X69105051Y-73427816D01*
X69201557Y-73238412D01*
X69267246Y-73036243D01*
X69300500Y-72826287D01*
X69300500Y-72613713D01*
X69267246Y-72403757D01*
X69201557Y-72201588D01*
X69105051Y-72012184D01*
X69100264Y-72005595D01*
X69068392Y-71961726D01*
X69018978Y-71893713D01*
X76649500Y-71893713D01*
X76649500Y-72106287D01*
X76682754Y-72316243D01*
X76702249Y-72376243D01*
X76748444Y-72518414D01*
X76844951Y-72707820D01*
X76969890Y-72879786D01*
X77120213Y-73030109D01*
X77292182Y-73155050D01*
X77300946Y-73159516D01*
X77351742Y-73207491D01*
X77368536Y-73275312D01*
X77345998Y-73341447D01*
X77300946Y-73380484D01*
X77292182Y-73384949D01*
X77120213Y-73509890D01*
X76969890Y-73660213D01*
X76844951Y-73832179D01*
X76748444Y-74021585D01*
X76682753Y-74223760D01*
X76649500Y-74433713D01*
X76649500Y-74646287D01*
X76682754Y-74856243D01*
X76702249Y-74916243D01*
X76748444Y-75058414D01*
X76844951Y-75247820D01*
X76969890Y-75419786D01*
X77120213Y-75570109D01*
X77292179Y-75695048D01*
X77292181Y-75695049D01*
X77292184Y-75695051D01*
X77301493Y-75699794D01*
X77352290Y-75747766D01*
X77369087Y-75815587D01*
X77346552Y-75881722D01*
X77301505Y-75920760D01*
X77292446Y-75925376D01*
X77292440Y-75925380D01*
X77238282Y-75964727D01*
X77238282Y-75964728D01*
X77870591Y-76597037D01*
X77807007Y-76614075D01*
X77692993Y-76679901D01*
X77599901Y-76772993D01*
X77534075Y-76887007D01*
X77517037Y-76950591D01*
X76884728Y-76318282D01*
X76884727Y-76318282D01*
X76845380Y-76372439D01*
X76748904Y-76561782D01*
X76683242Y-76763869D01*
X76683242Y-76763872D01*
X76650000Y-76973753D01*
X76650000Y-77186246D01*
X76683242Y-77396127D01*
X76683242Y-77396130D01*
X76748904Y-77598217D01*
X76845375Y-77787550D01*
X76884728Y-77841716D01*
X77517037Y-77209408D01*
X77534075Y-77272993D01*
X77599901Y-77387007D01*
X77692993Y-77480099D01*
X77807007Y-77545925D01*
X77870590Y-77562962D01*
X77238282Y-78195269D01*
X77238282Y-78195270D01*
X77292452Y-78234626D01*
X77292451Y-78234626D01*
X77301495Y-78239234D01*
X77352292Y-78287208D01*
X77369087Y-78355029D01*
X77346550Y-78421164D01*
X77301499Y-78460202D01*
X77292182Y-78464949D01*
X77120213Y-78589890D01*
X76969890Y-78740213D01*
X76844951Y-78912179D01*
X76748444Y-79101585D01*
X76682753Y-79303760D01*
X76649500Y-79513713D01*
X76649500Y-79726287D01*
X76682754Y-79936243D01*
X76702249Y-79996243D01*
X76748444Y-80138414D01*
X76844951Y-80327820D01*
X76969890Y-80499786D01*
X77120213Y-80650109D01*
X77292182Y-80775050D01*
X77300946Y-80779516D01*
X77351742Y-80827491D01*
X77368536Y-80895312D01*
X77345998Y-80961447D01*
X77300946Y-81000484D01*
X77292182Y-81004949D01*
X77120213Y-81129890D01*
X76969890Y-81280213D01*
X76844951Y-81452179D01*
X76748444Y-81641585D01*
X76682753Y-81843760D01*
X76649500Y-82053713D01*
X76649500Y-82266287D01*
X76682754Y-82476243D01*
X76702249Y-82536243D01*
X76748444Y-82678414D01*
X76844951Y-82867820D01*
X76969890Y-83039786D01*
X77120213Y-83190109D01*
X77292182Y-83315050D01*
X77300946Y-83319516D01*
X77351742Y-83367491D01*
X77368536Y-83435312D01*
X77345998Y-83501447D01*
X77300946Y-83540484D01*
X77292182Y-83544949D01*
X77120213Y-83669890D01*
X76969890Y-83820213D01*
X76844951Y-83992179D01*
X76748444Y-84181585D01*
X76682753Y-84383760D01*
X76649500Y-84593713D01*
X76649500Y-84806287D01*
X76682754Y-85016243D01*
X76702249Y-85076243D01*
X76748444Y-85218414D01*
X76844951Y-85407820D01*
X76969890Y-85579786D01*
X77120213Y-85730109D01*
X77292179Y-85855048D01*
X77292181Y-85855049D01*
X77292184Y-85855051D01*
X77481588Y-85951557D01*
X77683757Y-86017246D01*
X77893713Y-86050500D01*
X77893714Y-86050500D01*
X78106286Y-86050500D01*
X78106287Y-86050500D01*
X78316243Y-86017246D01*
X78518412Y-85951557D01*
X78707816Y-85855051D01*
X78797209Y-85790104D01*
X78879786Y-85730109D01*
X78879788Y-85730106D01*
X78879792Y-85730104D01*
X79030104Y-85579792D01*
X79030106Y-85579788D01*
X79030109Y-85579786D01*
X79155048Y-85407820D01*
X79155047Y-85407820D01*
X79155051Y-85407816D01*
X79251557Y-85218412D01*
X79317246Y-85016243D01*
X79350500Y-84806287D01*
X79350500Y-84593713D01*
X79317246Y-84383757D01*
X79251557Y-84181588D01*
X79155051Y-83992184D01*
X79155049Y-83992181D01*
X79155048Y-83992179D01*
X79030109Y-83820213D01*
X78879786Y-83669890D01*
X78707820Y-83544951D01*
X78707115Y-83544591D01*
X78699054Y-83540485D01*
X78648259Y-83492512D01*
X78631463Y-83424692D01*
X78653999Y-83358556D01*
X78699054Y-83319515D01*
X78707816Y-83315051D01*
X78797209Y-83250104D01*
X78879786Y-83190109D01*
X78879788Y-83190106D01*
X78879792Y-83190104D01*
X79030104Y-83039792D01*
X79030106Y-83039788D01*
X79030109Y-83039786D01*
X79155048Y-82867820D01*
X79155047Y-82867820D01*
X79155051Y-82867816D01*
X79251557Y-82678412D01*
X79317246Y-82476243D01*
X79350500Y-82266287D01*
X79350500Y-82053713D01*
X79317246Y-81843757D01*
X79251557Y-81641588D01*
X79155051Y-81452184D01*
X79155049Y-81452181D01*
X79155048Y-81452179D01*
X79030109Y-81280213D01*
X78879786Y-81129890D01*
X78707820Y-81004951D01*
X78707115Y-81004591D01*
X78699054Y-81000485D01*
X78648259Y-80952512D01*
X78631463Y-80884692D01*
X78653999Y-80818556D01*
X78699054Y-80779515D01*
X78707816Y-80775051D01*
X78797209Y-80710104D01*
X78879786Y-80650109D01*
X78879788Y-80650106D01*
X78879792Y-80650104D01*
X79030104Y-80499792D01*
X79030106Y-80499788D01*
X79030109Y-80499786D01*
X79155048Y-80327820D01*
X79155047Y-80327820D01*
X79155051Y-80327816D01*
X79251557Y-80138412D01*
X79317246Y-79936243D01*
X79350500Y-79726287D01*
X79350500Y-79513713D01*
X79317246Y-79303757D01*
X79251557Y-79101588D01*
X79155051Y-78912184D01*
X79155049Y-78912181D01*
X79155048Y-78912179D01*
X79030109Y-78740213D01*
X78879786Y-78589890D01*
X78707817Y-78464949D01*
X78698504Y-78460204D01*
X78647707Y-78412230D01*
X78630912Y-78344409D01*
X78653449Y-78278274D01*
X78698507Y-78239232D01*
X78707555Y-78234622D01*
X78761716Y-78195270D01*
X78761717Y-78195270D01*
X78129408Y-77562962D01*
X78192993Y-77545925D01*
X78307007Y-77480099D01*
X78400099Y-77387007D01*
X78465925Y-77272993D01*
X78482962Y-77209408D01*
X79115270Y-77841717D01*
X79115270Y-77841716D01*
X79154622Y-77787554D01*
X79251095Y-77598217D01*
X79316757Y-77396130D01*
X79316757Y-77396127D01*
X79350000Y-77186246D01*
X79350000Y-76973753D01*
X79316757Y-76763872D01*
X79316757Y-76763869D01*
X79251095Y-76561782D01*
X79154624Y-76372449D01*
X79115270Y-76318282D01*
X79115269Y-76318282D01*
X78482962Y-76950590D01*
X78465925Y-76887007D01*
X78400099Y-76772993D01*
X78307007Y-76679901D01*
X78192993Y-76614075D01*
X78129409Y-76597037D01*
X78761716Y-75964728D01*
X78707547Y-75925373D01*
X78707547Y-75925372D01*
X78698500Y-75920763D01*
X78647706Y-75872788D01*
X78630912Y-75804966D01*
X78653451Y-75738832D01*
X78698508Y-75699793D01*
X78707816Y-75695051D01*
X78797209Y-75630104D01*
X78879786Y-75570109D01*
X78879788Y-75570106D01*
X78879792Y-75570104D01*
X79030104Y-75419792D01*
X79030106Y-75419788D01*
X79030109Y-75419786D01*
X79155048Y-75247820D01*
X79155047Y-75247820D01*
X79155051Y-75247816D01*
X79251557Y-75058412D01*
X79317246Y-74856243D01*
X79350500Y-74646287D01*
X79350500Y-74433713D01*
X79317246Y-74223757D01*
X79251557Y-74021588D01*
X79155051Y-73832184D01*
X79155049Y-73832181D01*
X79155048Y-73832179D01*
X79030109Y-73660213D01*
X78879786Y-73509890D01*
X78707820Y-73384951D01*
X78707115Y-73384591D01*
X78699054Y-73380485D01*
X78648259Y-73332512D01*
X78631463Y-73264692D01*
X78653999Y-73198556D01*
X78699054Y-73159515D01*
X78707816Y-73155051D01*
X78794138Y-73092335D01*
X78879786Y-73030109D01*
X78879788Y-73030106D01*
X78879792Y-73030104D01*
X79030104Y-72879792D01*
X79030106Y-72879788D01*
X79030109Y-72879786D01*
X79155048Y-72707820D01*
X79155047Y-72707820D01*
X79155051Y-72707816D01*
X79251557Y-72518412D01*
X79317246Y-72316243D01*
X79350500Y-72106287D01*
X79350500Y-71893713D01*
X79317246Y-71683757D01*
X79251557Y-71481588D01*
X79155051Y-71292184D01*
X79141077Y-71272950D01*
X79067511Y-71171694D01*
X79067508Y-71171691D01*
X79030107Y-71120213D01*
X79030104Y-71120208D01*
X79012031Y-71102135D01*
X86649500Y-71102135D01*
X86649500Y-72897870D01*
X86649501Y-72897876D01*
X86655908Y-72957483D01*
X86706202Y-73092328D01*
X86706206Y-73092335D01*
X86792452Y-73207544D01*
X86792455Y-73207547D01*
X86907664Y-73293793D01*
X86907671Y-73293797D01*
X87039082Y-73342810D01*
X87095016Y-73384681D01*
X87119433Y-73450145D01*
X87104582Y-73518418D01*
X87083431Y-73546673D01*
X86969889Y-73660215D01*
X86844951Y-73832179D01*
X86748444Y-74021585D01*
X86682753Y-74223760D01*
X86649500Y-74433713D01*
X86649500Y-74646287D01*
X86682754Y-74856243D01*
X86702249Y-74916243D01*
X86748444Y-75058414D01*
X86844951Y-75247820D01*
X86969890Y-75419786D01*
X87120213Y-75570109D01*
X87292179Y-75695048D01*
X87292181Y-75695049D01*
X87292184Y-75695051D01*
X87301493Y-75699794D01*
X87352290Y-75747766D01*
X87369087Y-75815587D01*
X87346552Y-75881722D01*
X87301505Y-75920760D01*
X87292446Y-75925376D01*
X87292440Y-75925380D01*
X87238282Y-75964727D01*
X87238282Y-75964728D01*
X87870591Y-76597037D01*
X87807007Y-76614075D01*
X87692993Y-76679901D01*
X87599901Y-76772993D01*
X87534075Y-76887007D01*
X87517037Y-76950591D01*
X86884728Y-76318282D01*
X86884727Y-76318282D01*
X86845380Y-76372439D01*
X86748904Y-76561782D01*
X86683242Y-76763869D01*
X86683242Y-76763872D01*
X86650000Y-76973753D01*
X86650000Y-77186246D01*
X86683242Y-77396127D01*
X86683242Y-77396130D01*
X86748904Y-77598217D01*
X86845375Y-77787550D01*
X86884728Y-77841716D01*
X87517037Y-77209408D01*
X87534075Y-77272993D01*
X87599901Y-77387007D01*
X87692993Y-77480099D01*
X87807007Y-77545925D01*
X87870590Y-77562962D01*
X87238282Y-78195269D01*
X87238282Y-78195270D01*
X87292452Y-78234626D01*
X87292451Y-78234626D01*
X87301495Y-78239234D01*
X87352292Y-78287208D01*
X87369087Y-78355029D01*
X87346550Y-78421164D01*
X87301499Y-78460202D01*
X87292182Y-78464949D01*
X87120213Y-78589890D01*
X86969890Y-78740213D01*
X86844951Y-78912179D01*
X86748444Y-79101585D01*
X86682753Y-79303760D01*
X86649500Y-79513713D01*
X86649500Y-79726287D01*
X86682754Y-79936243D01*
X86702249Y-79996243D01*
X86748444Y-80138414D01*
X86844951Y-80327820D01*
X86969890Y-80499786D01*
X87120213Y-80650109D01*
X87292182Y-80775050D01*
X87300946Y-80779516D01*
X87351742Y-80827491D01*
X87368536Y-80895312D01*
X87345998Y-80961447D01*
X87300946Y-81000484D01*
X87292182Y-81004949D01*
X87120213Y-81129890D01*
X86969890Y-81280213D01*
X86844951Y-81452179D01*
X86748444Y-81641585D01*
X86682753Y-81843760D01*
X86649500Y-82053713D01*
X86649500Y-82266287D01*
X86682754Y-82476243D01*
X86702249Y-82536243D01*
X86748444Y-82678414D01*
X86844951Y-82867820D01*
X86969890Y-83039786D01*
X87120213Y-83190109D01*
X87292182Y-83315050D01*
X87300946Y-83319516D01*
X87351742Y-83367491D01*
X87368536Y-83435312D01*
X87345998Y-83501447D01*
X87300946Y-83540484D01*
X87292182Y-83544949D01*
X87120213Y-83669890D01*
X86969890Y-83820213D01*
X86844951Y-83992179D01*
X86748444Y-84181585D01*
X86682753Y-84383760D01*
X86649500Y-84593713D01*
X86649500Y-84806287D01*
X86682754Y-85016243D01*
X86702249Y-85076243D01*
X86748444Y-85218414D01*
X86844951Y-85407820D01*
X86969890Y-85579786D01*
X87120213Y-85730109D01*
X87292179Y-85855048D01*
X87292181Y-85855049D01*
X87292184Y-85855051D01*
X87481588Y-85951557D01*
X87683757Y-86017246D01*
X87893713Y-86050500D01*
X87893714Y-86050500D01*
X88106286Y-86050500D01*
X88106287Y-86050500D01*
X88316243Y-86017246D01*
X88518412Y-85951557D01*
X88707816Y-85855051D01*
X88797209Y-85790104D01*
X88879786Y-85730109D01*
X88879788Y-85730106D01*
X88879792Y-85730104D01*
X89030104Y-85579792D01*
X89030106Y-85579788D01*
X89030109Y-85579786D01*
X89155048Y-85407820D01*
X89155047Y-85407820D01*
X89155051Y-85407816D01*
X89251557Y-85218412D01*
X89317246Y-85016243D01*
X89350500Y-84806287D01*
X89350500Y-84593713D01*
X89317246Y-84383757D01*
X89251557Y-84181588D01*
X89155051Y-83992184D01*
X89155049Y-83992181D01*
X89155048Y-83992179D01*
X89030109Y-83820213D01*
X88879786Y-83669890D01*
X88707820Y-83544951D01*
X88707115Y-83544591D01*
X88699054Y-83540485D01*
X88648259Y-83492512D01*
X88631463Y-83424692D01*
X88653999Y-83358556D01*
X88699054Y-83319515D01*
X88707816Y-83315051D01*
X88797209Y-83250104D01*
X88879786Y-83190109D01*
X88879788Y-83190106D01*
X88879792Y-83190104D01*
X89030104Y-83039792D01*
X89030106Y-83039788D01*
X89030109Y-83039786D01*
X89155048Y-82867820D01*
X89155047Y-82867820D01*
X89155051Y-82867816D01*
X89251557Y-82678412D01*
X89317246Y-82476243D01*
X89350500Y-82266287D01*
X89350500Y-82053713D01*
X89317246Y-81843757D01*
X89251557Y-81641588D01*
X89155051Y-81452184D01*
X89155049Y-81452181D01*
X89155048Y-81452179D01*
X89030109Y-81280213D01*
X88879786Y-81129890D01*
X88707820Y-81004951D01*
X88707115Y-81004591D01*
X88699054Y-81000485D01*
X88648259Y-80952512D01*
X88631463Y-80884692D01*
X88653999Y-80818556D01*
X88699054Y-80779515D01*
X88707816Y-80775051D01*
X88797209Y-80710104D01*
X88879786Y-80650109D01*
X88879788Y-80650106D01*
X88879792Y-80650104D01*
X89030104Y-80499792D01*
X89030106Y-80499788D01*
X89030109Y-80499786D01*
X89155048Y-80327820D01*
X89155047Y-80327820D01*
X89155051Y-80327816D01*
X89251557Y-80138412D01*
X89317246Y-79936243D01*
X89350500Y-79726287D01*
X89350500Y-79513713D01*
X89317246Y-79303757D01*
X89251557Y-79101588D01*
X89155051Y-78912184D01*
X89155049Y-78912181D01*
X89155048Y-78912179D01*
X89030109Y-78740213D01*
X88879786Y-78589890D01*
X88707817Y-78464949D01*
X88698504Y-78460204D01*
X88647707Y-78412230D01*
X88630912Y-78344409D01*
X88653449Y-78278274D01*
X88698507Y-78239232D01*
X88707555Y-78234622D01*
X88761716Y-78195270D01*
X88761717Y-78195270D01*
X88129408Y-77562962D01*
X88192993Y-77545925D01*
X88307007Y-77480099D01*
X88400099Y-77387007D01*
X88465925Y-77272993D01*
X88482962Y-77209408D01*
X89115270Y-77841717D01*
X89115270Y-77841716D01*
X89154622Y-77787554D01*
X89251095Y-77598217D01*
X89316757Y-77396130D01*
X89316757Y-77396127D01*
X89350000Y-77186246D01*
X89350000Y-76973753D01*
X89316757Y-76763872D01*
X89316757Y-76763869D01*
X89251095Y-76561782D01*
X89154624Y-76372449D01*
X89115270Y-76318282D01*
X89115269Y-76318282D01*
X88482962Y-76950590D01*
X88465925Y-76887007D01*
X88400099Y-76772993D01*
X88307007Y-76679901D01*
X88192993Y-76614075D01*
X88129409Y-76597037D01*
X88761716Y-75964728D01*
X88707547Y-75925373D01*
X88707547Y-75925372D01*
X88698500Y-75920763D01*
X88647706Y-75872788D01*
X88630912Y-75804966D01*
X88653451Y-75738832D01*
X88698508Y-75699793D01*
X88707816Y-75695051D01*
X88797209Y-75630104D01*
X88879786Y-75570109D01*
X88879788Y-75570106D01*
X88879792Y-75570104D01*
X89030104Y-75419792D01*
X89030106Y-75419788D01*
X89030109Y-75419786D01*
X89155048Y-75247820D01*
X89155047Y-75247820D01*
X89155051Y-75247816D01*
X89251557Y-75058412D01*
X89317246Y-74856243D01*
X89350500Y-74646287D01*
X89350500Y-74433713D01*
X89317246Y-74223757D01*
X89251557Y-74021588D01*
X89155051Y-73832184D01*
X89155049Y-73832181D01*
X89155048Y-73832179D01*
X89030109Y-73660213D01*
X88916569Y-73546673D01*
X88883084Y-73485350D01*
X88888068Y-73415658D01*
X88929940Y-73359725D01*
X88960915Y-73342810D01*
X89092331Y-73293796D01*
X89207546Y-73207546D01*
X89293796Y-73092331D01*
X89344091Y-72957483D01*
X89350500Y-72897873D01*
X89350499Y-71102128D01*
X89344091Y-71042517D01*
X89339381Y-71029890D01*
X89293797Y-70907671D01*
X89293793Y-70907664D01*
X89207547Y-70792455D01*
X89207544Y-70792452D01*
X89092335Y-70706206D01*
X89092328Y-70706202D01*
X88957482Y-70655908D01*
X88957483Y-70655908D01*
X88897883Y-70649501D01*
X88897881Y-70649500D01*
X88897873Y-70649500D01*
X88897864Y-70649500D01*
X87102129Y-70649500D01*
X87102123Y-70649501D01*
X87042516Y-70655908D01*
X86907671Y-70706202D01*
X86907664Y-70706206D01*
X86792455Y-70792452D01*
X86792452Y-70792455D01*
X86706206Y-70907664D01*
X86706202Y-70907671D01*
X86655908Y-71042517D01*
X86649501Y-71102116D01*
X86649501Y-71102123D01*
X86649500Y-71102135D01*
X79012031Y-71102135D01*
X78879792Y-70969896D01*
X78879786Y-70969890D01*
X78707820Y-70844951D01*
X78518414Y-70748444D01*
X78518413Y-70748443D01*
X78518412Y-70748443D01*
X78316243Y-70682754D01*
X78316241Y-70682753D01*
X78316240Y-70682753D01*
X78154957Y-70657208D01*
X78106287Y-70649500D01*
X77893713Y-70649500D01*
X77845042Y-70657208D01*
X77683760Y-70682753D01*
X77481585Y-70748444D01*
X77292179Y-70844951D01*
X77120213Y-70969890D01*
X76969890Y-71120213D01*
X76844951Y-71292179D01*
X76748444Y-71481585D01*
X76682753Y-71683760D01*
X76649500Y-71893713D01*
X69018978Y-71893713D01*
X68980109Y-71840213D01*
X68829786Y-71689890D01*
X68657820Y-71564951D01*
X68657115Y-71564591D01*
X68649054Y-71560485D01*
X68598259Y-71512512D01*
X68581463Y-71444692D01*
X68603999Y-71378556D01*
X68649054Y-71339515D01*
X68657816Y-71335051D01*
X68716818Y-71292184D01*
X68829786Y-71210109D01*
X68829788Y-71210106D01*
X68829792Y-71210104D01*
X68980104Y-71059792D01*
X68980106Y-71059788D01*
X68980109Y-71059786D01*
X69105048Y-70887820D01*
X69105047Y-70887820D01*
X69105051Y-70887816D01*
X69201557Y-70698412D01*
X69267246Y-70496243D01*
X69300500Y-70286287D01*
X69300500Y-70073713D01*
X69267246Y-69863757D01*
X69201557Y-69661588D01*
X69105051Y-69472184D01*
X69105049Y-69472181D01*
X69105048Y-69472179D01*
X68980109Y-69300213D01*
X68866569Y-69186673D01*
X68833084Y-69125350D01*
X68838068Y-69055658D01*
X68879940Y-68999725D01*
X68910915Y-68982810D01*
X69042331Y-68933796D01*
X69157546Y-68847546D01*
X69243796Y-68732331D01*
X69294091Y-68597483D01*
X69300500Y-68537873D01*
X69300499Y-66742128D01*
X69294091Y-66682517D01*
X69243796Y-66547669D01*
X69243795Y-66547668D01*
X69243793Y-66547664D01*
X69157547Y-66432455D01*
X69157544Y-66432452D01*
X69042335Y-66346206D01*
X69042328Y-66346202D01*
X68907482Y-66295908D01*
X68907483Y-66295908D01*
X68847883Y-66289501D01*
X68847881Y-66289500D01*
X68847873Y-66289500D01*
X68847864Y-66289500D01*
X67052129Y-66289500D01*
X67052123Y-66289501D01*
X66992516Y-66295908D01*
X66857671Y-66346202D01*
X66857664Y-66346206D01*
X66742455Y-66432452D01*
X66742452Y-66432455D01*
X66656206Y-66547664D01*
X66656202Y-66547671D01*
X66605908Y-66682517D01*
X66599501Y-66742116D01*
X66599501Y-66742123D01*
X66599500Y-66742135D01*
X62350499Y-66742135D01*
X62350499Y-66742128D01*
X62344091Y-66682517D01*
X62293796Y-66547669D01*
X62293795Y-66547668D01*
X62293793Y-66547664D01*
X62207547Y-66432455D01*
X62207544Y-66432452D01*
X62092335Y-66346206D01*
X62092328Y-66346202D01*
X61957482Y-66295908D01*
X61957483Y-66295908D01*
X61897883Y-66289501D01*
X61897881Y-66289500D01*
X61897873Y-66289500D01*
X61897864Y-66289500D01*
X60102129Y-66289500D01*
X60102123Y-66289501D01*
X60042516Y-66295908D01*
X59907671Y-66346202D01*
X59907664Y-66346206D01*
X59792455Y-66432452D01*
X59792452Y-66432455D01*
X59706206Y-66547664D01*
X59706202Y-66547671D01*
X59655908Y-66682517D01*
X59649501Y-66742116D01*
X59649501Y-66742123D01*
X59649500Y-66742135D01*
X56000500Y-66742135D01*
X56000500Y-51993713D01*
X76589500Y-51993713D01*
X76589500Y-52206286D01*
X76622753Y-52416239D01*
X76688444Y-52618414D01*
X76784951Y-52807820D01*
X76909890Y-52979786D01*
X77060213Y-53130109D01*
X77232182Y-53255050D01*
X77240946Y-53259516D01*
X77291742Y-53307491D01*
X77308536Y-53375312D01*
X77285998Y-53441447D01*
X77240946Y-53480484D01*
X77232182Y-53484949D01*
X77060213Y-53609890D01*
X76909890Y-53760213D01*
X76784951Y-53932179D01*
X76688444Y-54121585D01*
X76622753Y-54323760D01*
X76589500Y-54533713D01*
X76589500Y-54746286D01*
X76622753Y-54956239D01*
X76688444Y-55158414D01*
X76784951Y-55347820D01*
X76909890Y-55519786D01*
X77060213Y-55670109D01*
X77232179Y-55795048D01*
X77232181Y-55795049D01*
X77232184Y-55795051D01*
X77241493Y-55799794D01*
X77292290Y-55847766D01*
X77309087Y-55915587D01*
X77286552Y-55981722D01*
X77241505Y-56020760D01*
X77232446Y-56025376D01*
X77232440Y-56025380D01*
X77178282Y-56064727D01*
X77178282Y-56064728D01*
X77810591Y-56697037D01*
X77747007Y-56714075D01*
X77632993Y-56779901D01*
X77539901Y-56872993D01*
X77474075Y-56987007D01*
X77457037Y-57050591D01*
X76824728Y-56418282D01*
X76824727Y-56418282D01*
X76785380Y-56472439D01*
X76688904Y-56661782D01*
X76623242Y-56863869D01*
X76623242Y-56863872D01*
X76590000Y-57073753D01*
X76590000Y-57286246D01*
X76623242Y-57496127D01*
X76623242Y-57496130D01*
X76688904Y-57698217D01*
X76785375Y-57887550D01*
X76824728Y-57941716D01*
X77457037Y-57309408D01*
X77474075Y-57372993D01*
X77539901Y-57487007D01*
X77632993Y-57580099D01*
X77747007Y-57645925D01*
X77810590Y-57662962D01*
X77178282Y-58295269D01*
X77178282Y-58295270D01*
X77232452Y-58334626D01*
X77232451Y-58334626D01*
X77241495Y-58339234D01*
X77292292Y-58387208D01*
X77309087Y-58455029D01*
X77286550Y-58521164D01*
X77241499Y-58560202D01*
X77232182Y-58564949D01*
X77060213Y-58689890D01*
X76909890Y-58840213D01*
X76784951Y-59012179D01*
X76688444Y-59201585D01*
X76622753Y-59403760D01*
X76589500Y-59613713D01*
X76589500Y-59826286D01*
X76622753Y-60036239D01*
X76688444Y-60238414D01*
X76784951Y-60427820D01*
X76909890Y-60599786D01*
X77060213Y-60750109D01*
X77232182Y-60875050D01*
X77240946Y-60879516D01*
X77291742Y-60927491D01*
X77308536Y-60995312D01*
X77285998Y-61061447D01*
X77240946Y-61100484D01*
X77232182Y-61104949D01*
X77060213Y-61229890D01*
X76909890Y-61380213D01*
X76784951Y-61552179D01*
X76688444Y-61741585D01*
X76622753Y-61943760D01*
X76599117Y-62092993D01*
X76589500Y-62153713D01*
X76589500Y-62366287D01*
X76622754Y-62576243D01*
X76650526Y-62661717D01*
X76688444Y-62778414D01*
X76784951Y-62967820D01*
X76909890Y-63139786D01*
X77060213Y-63290109D01*
X77232182Y-63415050D01*
X77240946Y-63419516D01*
X77291742Y-63467491D01*
X77308536Y-63535312D01*
X77285998Y-63601447D01*
X77240946Y-63640484D01*
X77232182Y-63644949D01*
X77060213Y-63769890D01*
X76909890Y-63920213D01*
X76784951Y-64092179D01*
X76688444Y-64281585D01*
X76622753Y-64483760D01*
X76589500Y-64693713D01*
X76589500Y-64906286D01*
X76622753Y-65116239D01*
X76688444Y-65318414D01*
X76784951Y-65507820D01*
X76909890Y-65679786D01*
X77060213Y-65830109D01*
X77232179Y-65955048D01*
X77232181Y-65955049D01*
X77232184Y-65955051D01*
X77421588Y-66051557D01*
X77623757Y-66117246D01*
X77833713Y-66150500D01*
X77833714Y-66150500D01*
X78046286Y-66150500D01*
X78046287Y-66150500D01*
X78256243Y-66117246D01*
X78458412Y-66051557D01*
X78647816Y-65955051D01*
X78669789Y-65939086D01*
X78819786Y-65830109D01*
X78819788Y-65830106D01*
X78819792Y-65830104D01*
X78970104Y-65679792D01*
X78970106Y-65679788D01*
X78970109Y-65679786D01*
X79095048Y-65507820D01*
X79095047Y-65507820D01*
X79095051Y-65507816D01*
X79191557Y-65318412D01*
X79257246Y-65116243D01*
X79290500Y-64906287D01*
X79290500Y-64693713D01*
X79257246Y-64483757D01*
X79191557Y-64281588D01*
X79095051Y-64092184D01*
X79095049Y-64092181D01*
X79095048Y-64092179D01*
X78970109Y-63920213D01*
X78819786Y-63769890D01*
X78647820Y-63644951D01*
X78647115Y-63644591D01*
X78639054Y-63640485D01*
X78588259Y-63592512D01*
X78571463Y-63524692D01*
X78593999Y-63458556D01*
X78639054Y-63419515D01*
X78647816Y-63415051D01*
X78784620Y-63315658D01*
X78819786Y-63290109D01*
X78819788Y-63290106D01*
X78819792Y-63290104D01*
X78970104Y-63139792D01*
X78970106Y-63139788D01*
X78970109Y-63139786D01*
X79095048Y-62967820D01*
X79095047Y-62967820D01*
X79095051Y-62967816D01*
X79191557Y-62778412D01*
X79257246Y-62576243D01*
X79290500Y-62366287D01*
X79290500Y-62153713D01*
X79257246Y-61943757D01*
X79191557Y-61741588D01*
X79095051Y-61552184D01*
X79095049Y-61552181D01*
X79095048Y-61552179D01*
X78970109Y-61380213D01*
X78819786Y-61229890D01*
X78647820Y-61104951D01*
X78647115Y-61104591D01*
X78639054Y-61100485D01*
X78588259Y-61052512D01*
X78571463Y-60984692D01*
X78593999Y-60918556D01*
X78639054Y-60879515D01*
X78647816Y-60875051D01*
X78740555Y-60807673D01*
X78819786Y-60750109D01*
X78819788Y-60750106D01*
X78819792Y-60750104D01*
X78970104Y-60599792D01*
X78970106Y-60599788D01*
X78970109Y-60599786D01*
X79095048Y-60427820D01*
X79095047Y-60427820D01*
X79095051Y-60427816D01*
X79191557Y-60238412D01*
X79257246Y-60036243D01*
X79290500Y-59826287D01*
X79290500Y-59613713D01*
X79257246Y-59403757D01*
X79191557Y-59201588D01*
X79095051Y-59012184D01*
X79095049Y-59012181D01*
X79095048Y-59012179D01*
X78970109Y-58840213D01*
X78819786Y-58689890D01*
X78647817Y-58564949D01*
X78638504Y-58560204D01*
X78587707Y-58512230D01*
X78570912Y-58444409D01*
X78593449Y-58378274D01*
X78638507Y-58339232D01*
X78647555Y-58334622D01*
X78701716Y-58295270D01*
X78701717Y-58295270D01*
X78069408Y-57662962D01*
X78132993Y-57645925D01*
X78247007Y-57580099D01*
X78340099Y-57487007D01*
X78405925Y-57372993D01*
X78422962Y-57309408D01*
X79055270Y-57941717D01*
X79055270Y-57941716D01*
X79094622Y-57887554D01*
X79191095Y-57698217D01*
X79256757Y-57496130D01*
X79256757Y-57496127D01*
X79290000Y-57286246D01*
X79290000Y-57073753D01*
X79256757Y-56863872D01*
X79256757Y-56863869D01*
X79191095Y-56661782D01*
X79094624Y-56472449D01*
X79055270Y-56418282D01*
X79055269Y-56418282D01*
X78422962Y-57050590D01*
X78405925Y-56987007D01*
X78340099Y-56872993D01*
X78247007Y-56779901D01*
X78132993Y-56714075D01*
X78069409Y-56697037D01*
X78701716Y-56064728D01*
X78647547Y-56025373D01*
X78647547Y-56025372D01*
X78638500Y-56020763D01*
X78587706Y-55972788D01*
X78570912Y-55904966D01*
X78593451Y-55838832D01*
X78638508Y-55799793D01*
X78647816Y-55795051D01*
X78727007Y-55737515D01*
X78819786Y-55670109D01*
X78819788Y-55670106D01*
X78819792Y-55670104D01*
X78970104Y-55519792D01*
X78970106Y-55519788D01*
X78970109Y-55519786D01*
X79095048Y-55347820D01*
X79095047Y-55347820D01*
X79095051Y-55347816D01*
X79191557Y-55158412D01*
X79257246Y-54956243D01*
X79290500Y-54746287D01*
X79290500Y-54533713D01*
X79257246Y-54323757D01*
X79191557Y-54121588D01*
X79095051Y-53932184D01*
X79095049Y-53932181D01*
X79095048Y-53932179D01*
X78970109Y-53760213D01*
X78819786Y-53609890D01*
X78647820Y-53484951D01*
X78647115Y-53484591D01*
X78639054Y-53480485D01*
X78588259Y-53432512D01*
X78571463Y-53364692D01*
X78593999Y-53298556D01*
X78639054Y-53259515D01*
X78647816Y-53255051D01*
X78734138Y-53192335D01*
X78819786Y-53130109D01*
X78819788Y-53130106D01*
X78819792Y-53130104D01*
X78970104Y-52979792D01*
X78970106Y-52979788D01*
X78970109Y-52979786D01*
X79095048Y-52807820D01*
X79095047Y-52807820D01*
X79095051Y-52807816D01*
X79191557Y-52618412D01*
X79257246Y-52416243D01*
X79290500Y-52206287D01*
X79290500Y-51993713D01*
X79257246Y-51783757D01*
X79191557Y-51581588D01*
X79095051Y-51392184D01*
X78970104Y-51220208D01*
X78952031Y-51202135D01*
X86589500Y-51202135D01*
X86589500Y-52997870D01*
X86589501Y-52997876D01*
X86595908Y-53057483D01*
X86646202Y-53192328D01*
X86646206Y-53192335D01*
X86732452Y-53307544D01*
X86732455Y-53307547D01*
X86847664Y-53393793D01*
X86847671Y-53393797D01*
X86979082Y-53442810D01*
X87035016Y-53484681D01*
X87059433Y-53550145D01*
X87044582Y-53618418D01*
X87023431Y-53646673D01*
X86909889Y-53760215D01*
X86784951Y-53932179D01*
X86688444Y-54121585D01*
X86622753Y-54323760D01*
X86589500Y-54533713D01*
X86589500Y-54746286D01*
X86622753Y-54956239D01*
X86688444Y-55158414D01*
X86784951Y-55347820D01*
X86909890Y-55519786D01*
X87060213Y-55670109D01*
X87232179Y-55795048D01*
X87232181Y-55795049D01*
X87232184Y-55795051D01*
X87241493Y-55799794D01*
X87292290Y-55847766D01*
X87309087Y-55915587D01*
X87286552Y-55981722D01*
X87241505Y-56020760D01*
X87232446Y-56025376D01*
X87232440Y-56025380D01*
X87178282Y-56064727D01*
X87178282Y-56064728D01*
X87810591Y-56697037D01*
X87747007Y-56714075D01*
X87632993Y-56779901D01*
X87539901Y-56872993D01*
X87474075Y-56987007D01*
X87457037Y-57050591D01*
X86824728Y-56418282D01*
X86824727Y-56418282D01*
X86785380Y-56472439D01*
X86688904Y-56661782D01*
X86623242Y-56863869D01*
X86623242Y-56863872D01*
X86590000Y-57073753D01*
X86590000Y-57286246D01*
X86623242Y-57496127D01*
X86623242Y-57496130D01*
X86688904Y-57698217D01*
X86785375Y-57887550D01*
X86824728Y-57941716D01*
X87457037Y-57309408D01*
X87474075Y-57372993D01*
X87539901Y-57487007D01*
X87632993Y-57580099D01*
X87747007Y-57645925D01*
X87810590Y-57662962D01*
X87178282Y-58295269D01*
X87178282Y-58295270D01*
X87232452Y-58334626D01*
X87232451Y-58334626D01*
X87241495Y-58339234D01*
X87292292Y-58387208D01*
X87309087Y-58455029D01*
X87286550Y-58521164D01*
X87241499Y-58560202D01*
X87232182Y-58564949D01*
X87060213Y-58689890D01*
X86909890Y-58840213D01*
X86784951Y-59012179D01*
X86688444Y-59201585D01*
X86622753Y-59403760D01*
X86589500Y-59613713D01*
X86589500Y-59826286D01*
X86622753Y-60036239D01*
X86688444Y-60238414D01*
X86784951Y-60427820D01*
X86909890Y-60599786D01*
X87060213Y-60750109D01*
X87232182Y-60875050D01*
X87240946Y-60879516D01*
X87291742Y-60927491D01*
X87308536Y-60995312D01*
X87285998Y-61061447D01*
X87240946Y-61100484D01*
X87232182Y-61104949D01*
X87060213Y-61229890D01*
X86909890Y-61380213D01*
X86784951Y-61552179D01*
X86688444Y-61741585D01*
X86622753Y-61943760D01*
X86599117Y-62092993D01*
X86589500Y-62153713D01*
X86589500Y-62366287D01*
X86622754Y-62576243D01*
X86650526Y-62661717D01*
X86688444Y-62778414D01*
X86784951Y-62967820D01*
X86909890Y-63139786D01*
X87060213Y-63290109D01*
X87232182Y-63415050D01*
X87240946Y-63419516D01*
X87291742Y-63467491D01*
X87308536Y-63535312D01*
X87285998Y-63601447D01*
X87240946Y-63640484D01*
X87232182Y-63644949D01*
X87060213Y-63769890D01*
X86909890Y-63920213D01*
X86784951Y-64092179D01*
X86688444Y-64281585D01*
X86622753Y-64483760D01*
X86589500Y-64693713D01*
X86589500Y-64906286D01*
X86622753Y-65116239D01*
X86688444Y-65318414D01*
X86784951Y-65507820D01*
X86909890Y-65679786D01*
X87060213Y-65830109D01*
X87232179Y-65955048D01*
X87232181Y-65955049D01*
X87232184Y-65955051D01*
X87421588Y-66051557D01*
X87623757Y-66117246D01*
X87833713Y-66150500D01*
X87833714Y-66150500D01*
X88046286Y-66150500D01*
X88046287Y-66150500D01*
X88256243Y-66117246D01*
X88458412Y-66051557D01*
X88647816Y-65955051D01*
X88669789Y-65939086D01*
X88819786Y-65830109D01*
X88819788Y-65830106D01*
X88819792Y-65830104D01*
X88970104Y-65679792D01*
X88970106Y-65679788D01*
X88970109Y-65679786D01*
X89095048Y-65507820D01*
X89095047Y-65507820D01*
X89095051Y-65507816D01*
X89191557Y-65318412D01*
X89257246Y-65116243D01*
X89290500Y-64906287D01*
X89290500Y-64693713D01*
X89257246Y-64483757D01*
X89191557Y-64281588D01*
X89095051Y-64092184D01*
X89095049Y-64092181D01*
X89095048Y-64092179D01*
X88970109Y-63920213D01*
X88819786Y-63769890D01*
X88647820Y-63644951D01*
X88647115Y-63644591D01*
X88639054Y-63640485D01*
X88588259Y-63592512D01*
X88571463Y-63524692D01*
X88593999Y-63458556D01*
X88639054Y-63419515D01*
X88647816Y-63415051D01*
X88784620Y-63315658D01*
X88819786Y-63290109D01*
X88819788Y-63290106D01*
X88819792Y-63290104D01*
X88970104Y-63139792D01*
X88970106Y-63139788D01*
X88970109Y-63139786D01*
X89095048Y-62967820D01*
X89095047Y-62967820D01*
X89095051Y-62967816D01*
X89191557Y-62778412D01*
X89257246Y-62576243D01*
X89290500Y-62366287D01*
X89290500Y-62153713D01*
X89257246Y-61943757D01*
X89191557Y-61741588D01*
X89095051Y-61552184D01*
X89095049Y-61552181D01*
X89095048Y-61552179D01*
X88970109Y-61380213D01*
X88819786Y-61229890D01*
X88648896Y-61105732D01*
X88648887Y-61105727D01*
X88647816Y-61104949D01*
X88638096Y-61099996D01*
X88637182Y-61099511D01*
X88612920Y-61075802D01*
X88588259Y-61052512D01*
X88587995Y-61051446D01*
X88587210Y-61050679D01*
X88579617Y-61017616D01*
X88575783Y-61002135D01*
X96649500Y-61002135D01*
X96649500Y-62797870D01*
X96649501Y-62797876D01*
X96655908Y-62857483D01*
X96706202Y-62992328D01*
X96706206Y-62992335D01*
X96792452Y-63107544D01*
X96792455Y-63107547D01*
X96907664Y-63193793D01*
X96907671Y-63193797D01*
X97039082Y-63242810D01*
X97095016Y-63284681D01*
X97119433Y-63350145D01*
X97104582Y-63418418D01*
X97083431Y-63446673D01*
X96969889Y-63560215D01*
X96844951Y-63732179D01*
X96748444Y-63921585D01*
X96682753Y-64123760D01*
X96657756Y-64281585D01*
X96649500Y-64333713D01*
X96649500Y-64546287D01*
X96682754Y-64756243D01*
X96731506Y-64906287D01*
X96748444Y-64958414D01*
X96844951Y-65147820D01*
X96969890Y-65319786D01*
X97120213Y-65470109D01*
X97292182Y-65595050D01*
X97300946Y-65599516D01*
X97351742Y-65647491D01*
X97368536Y-65715312D01*
X97345998Y-65781447D01*
X97300946Y-65820484D01*
X97292182Y-65824949D01*
X97120213Y-65949890D01*
X96969890Y-66100213D01*
X96844951Y-66272179D01*
X96748444Y-66461585D01*
X96682753Y-66663760D01*
X96649500Y-66873713D01*
X96649500Y-67086286D01*
X96682753Y-67296239D01*
X96748444Y-67498414D01*
X96844951Y-67687820D01*
X96969890Y-67859786D01*
X97120213Y-68010109D01*
X97292182Y-68135050D01*
X97300946Y-68139516D01*
X97351742Y-68187491D01*
X97368536Y-68255312D01*
X97345998Y-68321447D01*
X97300946Y-68360484D01*
X97292182Y-68364949D01*
X97120213Y-68489890D01*
X96969890Y-68640213D01*
X96844951Y-68812179D01*
X96748444Y-69001585D01*
X96682753Y-69203760D01*
X96649500Y-69413713D01*
X96649500Y-69626286D01*
X96682753Y-69836239D01*
X96748444Y-70038414D01*
X96844951Y-70227820D01*
X96969890Y-70399786D01*
X97120213Y-70550109D01*
X97292182Y-70675050D01*
X97300946Y-70679516D01*
X97351742Y-70727491D01*
X97368536Y-70795312D01*
X97345998Y-70861447D01*
X97300946Y-70900484D01*
X97292182Y-70904949D01*
X97120213Y-71029890D01*
X96969890Y-71180213D01*
X96844951Y-71352179D01*
X96748444Y-71541585D01*
X96682753Y-71743760D01*
X96659003Y-71893713D01*
X96649500Y-71953713D01*
X96649500Y-72166287D01*
X96682754Y-72376243D01*
X96728948Y-72518414D01*
X96748444Y-72578414D01*
X96844951Y-72767820D01*
X96969890Y-72939786D01*
X97120213Y-73090109D01*
X97292182Y-73215050D01*
X97300946Y-73219516D01*
X97351742Y-73267491D01*
X97368536Y-73335312D01*
X97345998Y-73401447D01*
X97300946Y-73440484D01*
X97292182Y-73444949D01*
X97120213Y-73569890D01*
X96969890Y-73720213D01*
X96844951Y-73892179D01*
X96748444Y-74081585D01*
X96682753Y-74283760D01*
X96659003Y-74433713D01*
X96649500Y-74493713D01*
X96649500Y-74706287D01*
X96682754Y-74916243D01*
X96728948Y-75058414D01*
X96748444Y-75118414D01*
X96844951Y-75307820D01*
X96969890Y-75479786D01*
X97120213Y-75630109D01*
X97292182Y-75755050D01*
X97300946Y-75759516D01*
X97351742Y-75807491D01*
X97368536Y-75875312D01*
X97345998Y-75941447D01*
X97300946Y-75980484D01*
X97292182Y-75984949D01*
X97120213Y-76109890D01*
X96969890Y-76260213D01*
X96844951Y-76432179D01*
X96748444Y-76621585D01*
X96682753Y-76823760D01*
X96658997Y-76973753D01*
X96649500Y-77033713D01*
X96649500Y-77246287D01*
X96682754Y-77456243D01*
X96728884Y-77598217D01*
X96748444Y-77658414D01*
X96844951Y-77847820D01*
X96969890Y-78019786D01*
X97120213Y-78170109D01*
X97292182Y-78295050D01*
X97300946Y-78299516D01*
X97351742Y-78347491D01*
X97368536Y-78415312D01*
X97345998Y-78481447D01*
X97300946Y-78520484D01*
X97292182Y-78524949D01*
X97120213Y-78649890D01*
X96969890Y-78800213D01*
X96844951Y-78972179D01*
X96748444Y-79161585D01*
X96682753Y-79363760D01*
X96659003Y-79513713D01*
X96649500Y-79573713D01*
X96649500Y-79786287D01*
X96682754Y-79996243D01*
X96728948Y-80138414D01*
X96748444Y-80198414D01*
X96844951Y-80387820D01*
X96969890Y-80559786D01*
X97120213Y-80710109D01*
X97292182Y-80835050D01*
X97300946Y-80839516D01*
X97351742Y-80887491D01*
X97368536Y-80955312D01*
X97345998Y-81021447D01*
X97300946Y-81060484D01*
X97292182Y-81064949D01*
X97120213Y-81189890D01*
X96969890Y-81340213D01*
X96844951Y-81512179D01*
X96748444Y-81701585D01*
X96682753Y-81903760D01*
X96659003Y-82053713D01*
X96649500Y-82113713D01*
X96649500Y-82326287D01*
X96682754Y-82536243D01*
X96728948Y-82678414D01*
X96748444Y-82738414D01*
X96844951Y-82927820D01*
X96969890Y-83099786D01*
X97120213Y-83250109D01*
X97292182Y-83375050D01*
X97300946Y-83379516D01*
X97351742Y-83427491D01*
X97368536Y-83495312D01*
X97345998Y-83561447D01*
X97300946Y-83600484D01*
X97292182Y-83604949D01*
X97120213Y-83729890D01*
X96969890Y-83880213D01*
X96844951Y-84052179D01*
X96748444Y-84241585D01*
X96682753Y-84443760D01*
X96659003Y-84593713D01*
X96649500Y-84653713D01*
X96649500Y-84866287D01*
X96682754Y-85076243D01*
X96728948Y-85218414D01*
X96748444Y-85278414D01*
X96844951Y-85467820D01*
X96969890Y-85639786D01*
X97120213Y-85790109D01*
X97292182Y-85915050D01*
X97300946Y-85919516D01*
X97351742Y-85967491D01*
X97368536Y-86035312D01*
X97345998Y-86101447D01*
X97300946Y-86140484D01*
X97292182Y-86144949D01*
X97120213Y-86269890D01*
X96969890Y-86420213D01*
X96844951Y-86592179D01*
X96748444Y-86781585D01*
X96682753Y-86983760D01*
X96649500Y-87193713D01*
X96649500Y-87406286D01*
X96682753Y-87616239D01*
X96748444Y-87818414D01*
X96844951Y-88007820D01*
X96969890Y-88179786D01*
X97120213Y-88330109D01*
X97292182Y-88455050D01*
X97300946Y-88459516D01*
X97351742Y-88507491D01*
X97368536Y-88575312D01*
X97345998Y-88641447D01*
X97300946Y-88680484D01*
X97292182Y-88684949D01*
X97120213Y-88809890D01*
X96969890Y-88960213D01*
X96844951Y-89132179D01*
X96748444Y-89321585D01*
X96682753Y-89523760D01*
X96649500Y-89733713D01*
X96649500Y-89946287D01*
X96682754Y-90156243D01*
X96745204Y-90348444D01*
X96748444Y-90358414D01*
X96844951Y-90547820D01*
X96969890Y-90719786D01*
X97120213Y-90870109D01*
X97292182Y-90995050D01*
X97300946Y-90999516D01*
X97351742Y-91047491D01*
X97368536Y-91115312D01*
X97345998Y-91181447D01*
X97300946Y-91220484D01*
X97292182Y-91224949D01*
X97120213Y-91349890D01*
X96969890Y-91500213D01*
X96844951Y-91672179D01*
X96748444Y-91861585D01*
X96682753Y-92063760D01*
X96649500Y-92273713D01*
X96649500Y-92486286D01*
X96672278Y-92630104D01*
X96682754Y-92696243D01*
X96746943Y-92893797D01*
X96748444Y-92898414D01*
X96844951Y-93087820D01*
X96969890Y-93259786D01*
X97120213Y-93410109D01*
X97292182Y-93535050D01*
X97300946Y-93539516D01*
X97351742Y-93587491D01*
X97368536Y-93655312D01*
X97345998Y-93721447D01*
X97300946Y-93760484D01*
X97292182Y-93764949D01*
X97120213Y-93889890D01*
X96969890Y-94040213D01*
X96844951Y-94212179D01*
X96748444Y-94401585D01*
X96682753Y-94603760D01*
X96649500Y-94813713D01*
X96649500Y-95026286D01*
X96672278Y-95170104D01*
X96682754Y-95236243D01*
X96718990Y-95347766D01*
X96748444Y-95438414D01*
X96844951Y-95627820D01*
X96969890Y-95799786D01*
X97120213Y-95950109D01*
X97292182Y-96075050D01*
X97300946Y-96079516D01*
X97351742Y-96127491D01*
X97368536Y-96195312D01*
X97345998Y-96261447D01*
X97300946Y-96300484D01*
X97292182Y-96304949D01*
X97120213Y-96429890D01*
X96969890Y-96580213D01*
X96844951Y-96752179D01*
X96748444Y-96941585D01*
X96682753Y-97143760D01*
X96649500Y-97353713D01*
X96649500Y-97566287D01*
X96682754Y-97776243D01*
X96740845Y-97955029D01*
X96748444Y-97978414D01*
X96844951Y-98167820D01*
X96969890Y-98339786D01*
X97120213Y-98490109D01*
X97292182Y-98615050D01*
X97300946Y-98619516D01*
X97351742Y-98667491D01*
X97368536Y-98735312D01*
X97345998Y-98801447D01*
X97300946Y-98840484D01*
X97292182Y-98844949D01*
X97120213Y-98969890D01*
X96969890Y-99120213D01*
X96844951Y-99292179D01*
X96748444Y-99481585D01*
X96682753Y-99683760D01*
X96649500Y-99893713D01*
X96649500Y-100106286D01*
X96672278Y-100250104D01*
X96682754Y-100316243D01*
X96740937Y-100495312D01*
X96748444Y-100518414D01*
X96844951Y-100707820D01*
X96969890Y-100879786D01*
X97120213Y-101030109D01*
X97292182Y-101155050D01*
X97300946Y-101159516D01*
X97351742Y-101207491D01*
X97368536Y-101275312D01*
X97345998Y-101341447D01*
X97300946Y-101380484D01*
X97292182Y-101384949D01*
X97120213Y-101509890D01*
X96969890Y-101660213D01*
X96844951Y-101832179D01*
X96748444Y-102021585D01*
X96682753Y-102223760D01*
X96649500Y-102433713D01*
X96649500Y-102646286D01*
X96672278Y-102790104D01*
X96682754Y-102856243D01*
X96740937Y-103035312D01*
X96748444Y-103058414D01*
X96844951Y-103247820D01*
X96969890Y-103419786D01*
X97120213Y-103570109D01*
X97292182Y-103695050D01*
X97300946Y-103699516D01*
X97351742Y-103747491D01*
X97368536Y-103815312D01*
X97345998Y-103881447D01*
X97300946Y-103920484D01*
X97292182Y-103924949D01*
X97120213Y-104049890D01*
X96969890Y-104200213D01*
X96844951Y-104372179D01*
X96748444Y-104561585D01*
X96682753Y-104763760D01*
X96649500Y-104973713D01*
X96649500Y-105186286D01*
X96672278Y-105330104D01*
X96682754Y-105396243D01*
X96733218Y-105551555D01*
X96748444Y-105598414D01*
X96844951Y-105787820D01*
X96969890Y-105959786D01*
X97120213Y-106110109D01*
X97292182Y-106235050D01*
X97300946Y-106239516D01*
X97351742Y-106287491D01*
X97368536Y-106355312D01*
X97345998Y-106421447D01*
X97300946Y-106460484D01*
X97292182Y-106464949D01*
X97120213Y-106589890D01*
X96969890Y-106740213D01*
X96844951Y-106912179D01*
X96748444Y-107101585D01*
X96682753Y-107303760D01*
X96649500Y-107513713D01*
X96649500Y-107726286D01*
X96682753Y-107936239D01*
X96748444Y-108138414D01*
X96844951Y-108327820D01*
X96969890Y-108499786D01*
X97120213Y-108650109D01*
X97292182Y-108775050D01*
X97300946Y-108779516D01*
X97351742Y-108827491D01*
X97368536Y-108895312D01*
X97345998Y-108961447D01*
X97300946Y-109000484D01*
X97292182Y-109004949D01*
X97120213Y-109129890D01*
X96969890Y-109280213D01*
X96844951Y-109452179D01*
X96748444Y-109641585D01*
X96682753Y-109843760D01*
X96649500Y-110053713D01*
X96649500Y-110266286D01*
X96682753Y-110476239D01*
X96748444Y-110678414D01*
X96844951Y-110867820D01*
X96969890Y-111039786D01*
X97120213Y-111190109D01*
X97292182Y-111315050D01*
X97300946Y-111319516D01*
X97351742Y-111367491D01*
X97368536Y-111435312D01*
X97345998Y-111501447D01*
X97300946Y-111540484D01*
X97292182Y-111544949D01*
X97120213Y-111669890D01*
X96969890Y-111820213D01*
X96844951Y-111992179D01*
X96748444Y-112181585D01*
X96682753Y-112383760D01*
X96649500Y-112593713D01*
X96649500Y-112806286D01*
X96682753Y-113016239D01*
X96748444Y-113218414D01*
X96844951Y-113407820D01*
X96969890Y-113579786D01*
X97120213Y-113730109D01*
X97292179Y-113855048D01*
X97292181Y-113855049D01*
X97292184Y-113855051D01*
X97301493Y-113859794D01*
X97352290Y-113907766D01*
X97369087Y-113975587D01*
X97346552Y-114041722D01*
X97301505Y-114080760D01*
X97292446Y-114085376D01*
X97292440Y-114085380D01*
X97238282Y-114124727D01*
X97238282Y-114124728D01*
X97870591Y-114757037D01*
X97807007Y-114774075D01*
X97692993Y-114839901D01*
X97599901Y-114932993D01*
X97534075Y-115047007D01*
X97517037Y-115110591D01*
X96884728Y-114478282D01*
X96884727Y-114478282D01*
X96845380Y-114532439D01*
X96748904Y-114721782D01*
X96683242Y-114923869D01*
X96683242Y-114923872D01*
X96650000Y-115133753D01*
X96650000Y-115346246D01*
X96683242Y-115556127D01*
X96683242Y-115556130D01*
X96748904Y-115758217D01*
X96845375Y-115947550D01*
X96884728Y-116001716D01*
X97517037Y-115369408D01*
X97534075Y-115432993D01*
X97599901Y-115547007D01*
X97692993Y-115640099D01*
X97807007Y-115705925D01*
X97870590Y-115722962D01*
X97238282Y-116355269D01*
X97238282Y-116355270D01*
X97292449Y-116394624D01*
X97481782Y-116491095D01*
X97683870Y-116556757D01*
X97893754Y-116590000D01*
X98106246Y-116590000D01*
X98316127Y-116556757D01*
X98316130Y-116556757D01*
X98518217Y-116491095D01*
X98707554Y-116394622D01*
X98761716Y-116355270D01*
X98761717Y-116355270D01*
X98129408Y-115722962D01*
X98192993Y-115705925D01*
X98307007Y-115640099D01*
X98400099Y-115547007D01*
X98465925Y-115432993D01*
X98482962Y-115369409D01*
X99115270Y-116001717D01*
X99115270Y-116001716D01*
X99154622Y-115947554D01*
X99251095Y-115758217D01*
X99316757Y-115556130D01*
X99316757Y-115556127D01*
X99350000Y-115346246D01*
X99350000Y-115133753D01*
X99316757Y-114923872D01*
X99316757Y-114923869D01*
X99251095Y-114721782D01*
X99154624Y-114532449D01*
X99115270Y-114478282D01*
X99115269Y-114478282D01*
X98482962Y-115110590D01*
X98465925Y-115047007D01*
X98400099Y-114932993D01*
X98307007Y-114839901D01*
X98192993Y-114774075D01*
X98129409Y-114757037D01*
X98761716Y-114124728D01*
X98707547Y-114085373D01*
X98707547Y-114085372D01*
X98698500Y-114080763D01*
X98647706Y-114032788D01*
X98630912Y-113964966D01*
X98653451Y-113898832D01*
X98698508Y-113859793D01*
X98707816Y-113855051D01*
X98806187Y-113783581D01*
X98879786Y-113730109D01*
X98879788Y-113730106D01*
X98879792Y-113730104D01*
X99030104Y-113579792D01*
X99030106Y-113579788D01*
X99030109Y-113579786D01*
X99155048Y-113407820D01*
X99155047Y-113407820D01*
X99155051Y-113407816D01*
X99251557Y-113218412D01*
X99317246Y-113016243D01*
X99350500Y-112806287D01*
X99350500Y-112593713D01*
X99317246Y-112383757D01*
X99251557Y-112181588D01*
X99155051Y-111992184D01*
X99155049Y-111992181D01*
X99155048Y-111992179D01*
X99030109Y-111820213D01*
X98879786Y-111669890D01*
X98707820Y-111544951D01*
X98699600Y-111540763D01*
X98699054Y-111540485D01*
X98648259Y-111492512D01*
X98631463Y-111424692D01*
X98653999Y-111358556D01*
X98699054Y-111319515D01*
X98707816Y-111315051D01*
X98772010Y-111268412D01*
X98879786Y-111190109D01*
X98879788Y-111190106D01*
X98879792Y-111190104D01*
X99030104Y-111039792D01*
X99030106Y-111039788D01*
X99030109Y-111039786D01*
X99155048Y-110867820D01*
X99155047Y-110867820D01*
X99155051Y-110867816D01*
X99251557Y-110678412D01*
X99317246Y-110476243D01*
X99350500Y-110266287D01*
X99350500Y-110053713D01*
X99317246Y-109843757D01*
X99251557Y-109641588D01*
X99155051Y-109452184D01*
X99155049Y-109452181D01*
X99155048Y-109452179D01*
X99030109Y-109280213D01*
X98879786Y-109129890D01*
X98707820Y-109004951D01*
X98707115Y-109004591D01*
X98699054Y-109000485D01*
X98648259Y-108952512D01*
X98631463Y-108884692D01*
X98653999Y-108818556D01*
X98699054Y-108779515D01*
X98707816Y-108775051D01*
X98729789Y-108759086D01*
X98879786Y-108650109D01*
X98879788Y-108650106D01*
X98879792Y-108650104D01*
X99030104Y-108499792D01*
X99030106Y-108499788D01*
X99030109Y-108499786D01*
X99155048Y-108327820D01*
X99155047Y-108327820D01*
X99155051Y-108327816D01*
X99251557Y-108138412D01*
X99317246Y-107936243D01*
X99350500Y-107726287D01*
X99350500Y-107513713D01*
X99317246Y-107303757D01*
X99251557Y-107101588D01*
X99155051Y-106912184D01*
X99155049Y-106912181D01*
X99155048Y-106912179D01*
X99030109Y-106740213D01*
X98879786Y-106589890D01*
X98707820Y-106464951D01*
X98707115Y-106464591D01*
X98699054Y-106460485D01*
X98648259Y-106412512D01*
X98631463Y-106344692D01*
X98653999Y-106278556D01*
X98699054Y-106239515D01*
X98707816Y-106235051D01*
X98729789Y-106219086D01*
X98879786Y-106110109D01*
X98879788Y-106110106D01*
X98879792Y-106110104D01*
X99030104Y-105959792D01*
X99030106Y-105959788D01*
X99030109Y-105959786D01*
X99155048Y-105787820D01*
X99155047Y-105787820D01*
X99155051Y-105787816D01*
X99251557Y-105598412D01*
X99317246Y-105396243D01*
X99350500Y-105186287D01*
X99350500Y-104973713D01*
X99317246Y-104763757D01*
X99251557Y-104561588D01*
X99155051Y-104372184D01*
X99155049Y-104372181D01*
X99155048Y-104372179D01*
X99030109Y-104200213D01*
X98879786Y-104049890D01*
X98707820Y-103924951D01*
X98707115Y-103924591D01*
X98699054Y-103920485D01*
X98648259Y-103872512D01*
X98631463Y-103804692D01*
X98653999Y-103738556D01*
X98699054Y-103699515D01*
X98707816Y-103695051D01*
X98729789Y-103679086D01*
X98879786Y-103570109D01*
X98879788Y-103570106D01*
X98879792Y-103570104D01*
X99030104Y-103419792D01*
X99030106Y-103419788D01*
X99030109Y-103419786D01*
X99155048Y-103247820D01*
X99155047Y-103247820D01*
X99155051Y-103247816D01*
X99251557Y-103058412D01*
X99317246Y-102856243D01*
X99350500Y-102646287D01*
X99350500Y-102433713D01*
X99317246Y-102223757D01*
X99251557Y-102021588D01*
X99155051Y-101832184D01*
X99155049Y-101832181D01*
X99155048Y-101832179D01*
X99030109Y-101660213D01*
X98879786Y-101509890D01*
X98707820Y-101384951D01*
X98707115Y-101384591D01*
X98699054Y-101380485D01*
X98648259Y-101332512D01*
X98631463Y-101264692D01*
X98653999Y-101198556D01*
X98699054Y-101159515D01*
X98707816Y-101155051D01*
X98729789Y-101139086D01*
X98879786Y-101030109D01*
X98879788Y-101030106D01*
X98879792Y-101030104D01*
X99030104Y-100879792D01*
X99030106Y-100879788D01*
X99030109Y-100879786D01*
X99155048Y-100707820D01*
X99155047Y-100707820D01*
X99155051Y-100707816D01*
X99251557Y-100518412D01*
X99317246Y-100316243D01*
X99350500Y-100106287D01*
X99350500Y-99893713D01*
X99317246Y-99683757D01*
X99251557Y-99481588D01*
X99155051Y-99292184D01*
X99155049Y-99292181D01*
X99155048Y-99292179D01*
X99030109Y-99120213D01*
X98879786Y-98969890D01*
X98707820Y-98844951D01*
X98707115Y-98844591D01*
X98699054Y-98840485D01*
X98648259Y-98792512D01*
X98631463Y-98724692D01*
X98653999Y-98658556D01*
X98699054Y-98619515D01*
X98707816Y-98615051D01*
X98729789Y-98599086D01*
X98879786Y-98490109D01*
X98879788Y-98490106D01*
X98879792Y-98490104D01*
X99030104Y-98339792D01*
X99030106Y-98339788D01*
X99030109Y-98339786D01*
X99155048Y-98167820D01*
X99155047Y-98167820D01*
X99155051Y-98167816D01*
X99251557Y-97978412D01*
X99317246Y-97776243D01*
X99350500Y-97566287D01*
X99350500Y-97353713D01*
X99317246Y-97143757D01*
X99251557Y-96941588D01*
X99155051Y-96752184D01*
X99155049Y-96752181D01*
X99155048Y-96752179D01*
X99030109Y-96580213D01*
X98879786Y-96429890D01*
X98707820Y-96304951D01*
X98707115Y-96304591D01*
X98699054Y-96300485D01*
X98648259Y-96252512D01*
X98631463Y-96184692D01*
X98653999Y-96118556D01*
X98699054Y-96079515D01*
X98707816Y-96075051D01*
X98849037Y-95972449D01*
X98879786Y-95950109D01*
X98879788Y-95950106D01*
X98879792Y-95950104D01*
X99030104Y-95799792D01*
X99030106Y-95799788D01*
X99030109Y-95799786D01*
X99155048Y-95627820D01*
X99155047Y-95627820D01*
X99155051Y-95627816D01*
X99251557Y-95438412D01*
X99317246Y-95236243D01*
X99350500Y-95026287D01*
X99350500Y-94813713D01*
X99317246Y-94603757D01*
X99251557Y-94401588D01*
X99155051Y-94212184D01*
X99155049Y-94212181D01*
X99155048Y-94212179D01*
X99030109Y-94040213D01*
X98879786Y-93889890D01*
X98707820Y-93764951D01*
X98707115Y-93764591D01*
X98699054Y-93760485D01*
X98648259Y-93712512D01*
X98631463Y-93644692D01*
X98653999Y-93578556D01*
X98699054Y-93539515D01*
X98707816Y-93535051D01*
X98729789Y-93519086D01*
X98879786Y-93410109D01*
X98879788Y-93410106D01*
X98879792Y-93410104D01*
X99030104Y-93259792D01*
X99030106Y-93259788D01*
X99030109Y-93259786D01*
X99155048Y-93087820D01*
X99155047Y-93087820D01*
X99155051Y-93087816D01*
X99251557Y-92898412D01*
X99317246Y-92696243D01*
X99350500Y-92486287D01*
X99350500Y-92273713D01*
X99317246Y-92063757D01*
X99251557Y-91861588D01*
X99155051Y-91672184D01*
X99155049Y-91672181D01*
X99155048Y-91672179D01*
X99030109Y-91500213D01*
X98879786Y-91349890D01*
X98707820Y-91224951D01*
X98707115Y-91224591D01*
X98699054Y-91220485D01*
X98648259Y-91172512D01*
X98631463Y-91104692D01*
X98653999Y-91038556D01*
X98699054Y-90999515D01*
X98707816Y-90995051D01*
X98729789Y-90979086D01*
X98879786Y-90870109D01*
X98879788Y-90870106D01*
X98879792Y-90870104D01*
X99030104Y-90719792D01*
X99030106Y-90719788D01*
X99030109Y-90719786D01*
X99155048Y-90547820D01*
X99155047Y-90547820D01*
X99155051Y-90547816D01*
X99251557Y-90358412D01*
X99317246Y-90156243D01*
X99350500Y-89946287D01*
X99350500Y-89733713D01*
X99317246Y-89523757D01*
X99251557Y-89321588D01*
X99155051Y-89132184D01*
X99155049Y-89132181D01*
X99155048Y-89132179D01*
X99030109Y-88960213D01*
X98879786Y-88809890D01*
X98707820Y-88684951D01*
X98707115Y-88684591D01*
X98699054Y-88680485D01*
X98648259Y-88632512D01*
X98631463Y-88564692D01*
X98653999Y-88498556D01*
X98699054Y-88459515D01*
X98707816Y-88455051D01*
X98729789Y-88439086D01*
X98879786Y-88330109D01*
X98879788Y-88330106D01*
X98879792Y-88330104D01*
X99030104Y-88179792D01*
X99030106Y-88179788D01*
X99030109Y-88179786D01*
X99155048Y-88007820D01*
X99155047Y-88007820D01*
X99155051Y-88007816D01*
X99251557Y-87818412D01*
X99317246Y-87616243D01*
X99350500Y-87406287D01*
X99350500Y-87193713D01*
X99317246Y-86983757D01*
X99251557Y-86781588D01*
X99155051Y-86592184D01*
X99155049Y-86592181D01*
X99155048Y-86592179D01*
X99030109Y-86420213D01*
X98879786Y-86269890D01*
X98707820Y-86144951D01*
X98707115Y-86144591D01*
X98699054Y-86140485D01*
X98648259Y-86092512D01*
X98631463Y-86024692D01*
X98653999Y-85958556D01*
X98699054Y-85919515D01*
X98707816Y-85915051D01*
X98729789Y-85899086D01*
X98879786Y-85790109D01*
X98879788Y-85790106D01*
X98879792Y-85790104D01*
X99030104Y-85639792D01*
X99030106Y-85639788D01*
X99030109Y-85639786D01*
X99155048Y-85467820D01*
X99155047Y-85467820D01*
X99155051Y-85467816D01*
X99251557Y-85278412D01*
X99317246Y-85076243D01*
X99350500Y-84866287D01*
X99350500Y-84653713D01*
X99317246Y-84443757D01*
X99251557Y-84241588D01*
X99155051Y-84052184D01*
X99155049Y-84052181D01*
X99155048Y-84052179D01*
X99030109Y-83880213D01*
X98879786Y-83729890D01*
X98707820Y-83604951D01*
X98707115Y-83604591D01*
X98699054Y-83600485D01*
X98648259Y-83552512D01*
X98631463Y-83484692D01*
X98653999Y-83418556D01*
X98699054Y-83379515D01*
X98707816Y-83375051D01*
X98784257Y-83319514D01*
X98879786Y-83250109D01*
X98879788Y-83250106D01*
X98879792Y-83250104D01*
X99030104Y-83099792D01*
X99030106Y-83099788D01*
X99030109Y-83099786D01*
X99155048Y-82927820D01*
X99155047Y-82927820D01*
X99155051Y-82927816D01*
X99251557Y-82738412D01*
X99317246Y-82536243D01*
X99350500Y-82326287D01*
X99350500Y-82113713D01*
X99317246Y-81903757D01*
X99251557Y-81701588D01*
X99155051Y-81512184D01*
X99155049Y-81512181D01*
X99155048Y-81512179D01*
X99030109Y-81340213D01*
X98879786Y-81189890D01*
X98707820Y-81064951D01*
X98707115Y-81064591D01*
X98699054Y-81060485D01*
X98648259Y-81012512D01*
X98631463Y-80944692D01*
X98653999Y-80878556D01*
X98699054Y-80839515D01*
X98707816Y-80835051D01*
X98784257Y-80779514D01*
X98879786Y-80710109D01*
X98879788Y-80710106D01*
X98879792Y-80710104D01*
X99030104Y-80559792D01*
X99030106Y-80559788D01*
X99030109Y-80559786D01*
X99155048Y-80387820D01*
X99155047Y-80387820D01*
X99155051Y-80387816D01*
X99251557Y-80198412D01*
X99317246Y-79996243D01*
X99350500Y-79786287D01*
X99350500Y-79573713D01*
X99317246Y-79363757D01*
X99251557Y-79161588D01*
X99155051Y-78972184D01*
X99155049Y-78972181D01*
X99155048Y-78972179D01*
X99030109Y-78800213D01*
X98879786Y-78649890D01*
X98707820Y-78524951D01*
X98707115Y-78524591D01*
X98699054Y-78520485D01*
X98648259Y-78472512D01*
X98631463Y-78404692D01*
X98653999Y-78338556D01*
X98699054Y-78299515D01*
X98707816Y-78295051D01*
X98784645Y-78239232D01*
X98879786Y-78170109D01*
X98879788Y-78170106D01*
X98879792Y-78170104D01*
X99030104Y-78019792D01*
X99030106Y-78019788D01*
X99030109Y-78019786D01*
X99155048Y-77847820D01*
X99155047Y-77847820D01*
X99155051Y-77847816D01*
X99251557Y-77658412D01*
X99317246Y-77456243D01*
X99350500Y-77246287D01*
X99350500Y-77033713D01*
X99317246Y-76823757D01*
X99251557Y-76621588D01*
X99155051Y-76432184D01*
X99155049Y-76432181D01*
X99155048Y-76432179D01*
X99030109Y-76260213D01*
X98879786Y-76109890D01*
X98707820Y-75984951D01*
X98707115Y-75984591D01*
X98699054Y-75980485D01*
X98648259Y-75932512D01*
X98631463Y-75864692D01*
X98653999Y-75798556D01*
X98699054Y-75759515D01*
X98707816Y-75755051D01*
X98783874Y-75699792D01*
X98879786Y-75630109D01*
X98879788Y-75630106D01*
X98879792Y-75630104D01*
X99030104Y-75479792D01*
X99030106Y-75479788D01*
X99030109Y-75479786D01*
X99155048Y-75307820D01*
X99155047Y-75307820D01*
X99155051Y-75307816D01*
X99251557Y-75118412D01*
X99317246Y-74916243D01*
X99350500Y-74706287D01*
X99350500Y-74493713D01*
X99317246Y-74283757D01*
X99251557Y-74081588D01*
X99155051Y-73892184D01*
X99155049Y-73892181D01*
X99155048Y-73892179D01*
X99030109Y-73720213D01*
X98879786Y-73569890D01*
X98707820Y-73444951D01*
X98707115Y-73444591D01*
X98699054Y-73440485D01*
X98648259Y-73392512D01*
X98631463Y-73324692D01*
X98653999Y-73258556D01*
X98699054Y-73219515D01*
X98707816Y-73215051D01*
X98784257Y-73159514D01*
X98879786Y-73090109D01*
X98879788Y-73090106D01*
X98879792Y-73090104D01*
X99030104Y-72939792D01*
X99030106Y-72939788D01*
X99030109Y-72939786D01*
X99155048Y-72767820D01*
X99155047Y-72767820D01*
X99155051Y-72767816D01*
X99251557Y-72578412D01*
X99317246Y-72376243D01*
X99350500Y-72166287D01*
X99350500Y-71953713D01*
X99317246Y-71743757D01*
X99251557Y-71541588D01*
X99155051Y-71352184D01*
X99155049Y-71352181D01*
X99155048Y-71352179D01*
X99030109Y-71180213D01*
X98879786Y-71029890D01*
X98707820Y-70904951D01*
X98707115Y-70904591D01*
X98699054Y-70900485D01*
X98648259Y-70852512D01*
X98631463Y-70784692D01*
X98653999Y-70718556D01*
X98699054Y-70679515D01*
X98707816Y-70675051D01*
X98742984Y-70649500D01*
X98879786Y-70550109D01*
X98879788Y-70550106D01*
X98879792Y-70550104D01*
X99030104Y-70399792D01*
X99030106Y-70399788D01*
X99030109Y-70399786D01*
X99155048Y-70227820D01*
X99155047Y-70227820D01*
X99155051Y-70227816D01*
X99251557Y-70038412D01*
X99317246Y-69836243D01*
X99350500Y-69626287D01*
X99350500Y-69413713D01*
X99317246Y-69203757D01*
X99251557Y-69001588D01*
X99155051Y-68812184D01*
X99155049Y-68812181D01*
X99155048Y-68812179D01*
X99030109Y-68640213D01*
X98879786Y-68489890D01*
X98707820Y-68364951D01*
X98707115Y-68364591D01*
X98699054Y-68360485D01*
X98648259Y-68312512D01*
X98631463Y-68244692D01*
X98653999Y-68178556D01*
X98699054Y-68139515D01*
X98707816Y-68135051D01*
X98729789Y-68119086D01*
X98879786Y-68010109D01*
X98879788Y-68010106D01*
X98879792Y-68010104D01*
X99030104Y-67859792D01*
X99030106Y-67859788D01*
X99030109Y-67859786D01*
X99155048Y-67687820D01*
X99155047Y-67687820D01*
X99155051Y-67687816D01*
X99251557Y-67498412D01*
X99317246Y-67296243D01*
X99350500Y-67086287D01*
X99350500Y-66873713D01*
X99317246Y-66663757D01*
X99251557Y-66461588D01*
X99155051Y-66272184D01*
X99155049Y-66272181D01*
X99155048Y-66272179D01*
X99030109Y-66100213D01*
X98879786Y-65949890D01*
X98707820Y-65824951D01*
X98707115Y-65824591D01*
X98699054Y-65820485D01*
X98648259Y-65772512D01*
X98631463Y-65704692D01*
X98653999Y-65638556D01*
X98699054Y-65599515D01*
X98707816Y-65595051D01*
X98729789Y-65579086D01*
X98879786Y-65470109D01*
X98879788Y-65470106D01*
X98879792Y-65470104D01*
X99030104Y-65319792D01*
X99030106Y-65319788D01*
X99030109Y-65319786D01*
X99155048Y-65147820D01*
X99155047Y-65147820D01*
X99155051Y-65147816D01*
X99251557Y-64958412D01*
X99317246Y-64756243D01*
X99350500Y-64546287D01*
X99350500Y-64333713D01*
X122049500Y-64333713D01*
X122049500Y-64546287D01*
X122082754Y-64756243D01*
X122131506Y-64906287D01*
X122148444Y-64958414D01*
X122244951Y-65147820D01*
X122369890Y-65319786D01*
X122520213Y-65470109D01*
X122692182Y-65595050D01*
X122700946Y-65599516D01*
X122751742Y-65647491D01*
X122768536Y-65715312D01*
X122745998Y-65781447D01*
X122700946Y-65820484D01*
X122692182Y-65824949D01*
X122520213Y-65949890D01*
X122369890Y-66100213D01*
X122244951Y-66272179D01*
X122148444Y-66461585D01*
X122082753Y-66663760D01*
X122049500Y-66873713D01*
X122049500Y-67086286D01*
X122082753Y-67296239D01*
X122148444Y-67498414D01*
X122244951Y-67687820D01*
X122369890Y-67859786D01*
X122520213Y-68010109D01*
X122692182Y-68135050D01*
X122700946Y-68139516D01*
X122751742Y-68187491D01*
X122768536Y-68255312D01*
X122745998Y-68321447D01*
X122700946Y-68360484D01*
X122692182Y-68364949D01*
X122520213Y-68489890D01*
X122369890Y-68640213D01*
X122244951Y-68812179D01*
X122148444Y-69001585D01*
X122082753Y-69203760D01*
X122049500Y-69413713D01*
X122049500Y-69626286D01*
X122082753Y-69836239D01*
X122148444Y-70038414D01*
X122244951Y-70227820D01*
X122369890Y-70399786D01*
X122520213Y-70550109D01*
X122692182Y-70675050D01*
X122700946Y-70679516D01*
X122751742Y-70727491D01*
X122768536Y-70795312D01*
X122745998Y-70861447D01*
X122700946Y-70900484D01*
X122692182Y-70904949D01*
X122520213Y-71029890D01*
X122369890Y-71180213D01*
X122244951Y-71352179D01*
X122148444Y-71541585D01*
X122082753Y-71743760D01*
X122059003Y-71893713D01*
X122049500Y-71953713D01*
X122049500Y-72166287D01*
X122082754Y-72376243D01*
X122128948Y-72518414D01*
X122148444Y-72578414D01*
X122244951Y-72767820D01*
X122369890Y-72939786D01*
X122520213Y-73090109D01*
X122692182Y-73215050D01*
X122700946Y-73219516D01*
X122751742Y-73267491D01*
X122768536Y-73335312D01*
X122745998Y-73401447D01*
X122700946Y-73440484D01*
X122692182Y-73444949D01*
X122520213Y-73569890D01*
X122369890Y-73720213D01*
X122244951Y-73892179D01*
X122148444Y-74081585D01*
X122082753Y-74283760D01*
X122059003Y-74433713D01*
X122049500Y-74493713D01*
X122049500Y-74706287D01*
X122082754Y-74916243D01*
X122128948Y-75058414D01*
X122148444Y-75118414D01*
X122244951Y-75307820D01*
X122369890Y-75479786D01*
X122520213Y-75630109D01*
X122692182Y-75755050D01*
X122700946Y-75759516D01*
X122751742Y-75807491D01*
X122768536Y-75875312D01*
X122745998Y-75941447D01*
X122700946Y-75980484D01*
X122692182Y-75984949D01*
X122520213Y-76109890D01*
X122369890Y-76260213D01*
X122244951Y-76432179D01*
X122148444Y-76621585D01*
X122082753Y-76823760D01*
X122058997Y-76973753D01*
X122049500Y-77033713D01*
X122049500Y-77246287D01*
X122082754Y-77456243D01*
X122128884Y-77598217D01*
X122148444Y-77658414D01*
X122244951Y-77847820D01*
X122369890Y-78019786D01*
X122520213Y-78170109D01*
X122692182Y-78295050D01*
X122700946Y-78299516D01*
X122751742Y-78347491D01*
X122768536Y-78415312D01*
X122745998Y-78481447D01*
X122700946Y-78520484D01*
X122692182Y-78524949D01*
X122520213Y-78649890D01*
X122369890Y-78800213D01*
X122244951Y-78972179D01*
X122148444Y-79161585D01*
X122082753Y-79363760D01*
X122059003Y-79513713D01*
X122049500Y-79573713D01*
X122049500Y-79786287D01*
X122082754Y-79996243D01*
X122128948Y-80138414D01*
X122148444Y-80198414D01*
X122244951Y-80387820D01*
X122369890Y-80559786D01*
X122520213Y-80710109D01*
X122692182Y-80835050D01*
X122700946Y-80839516D01*
X122751742Y-80887491D01*
X122768536Y-80955312D01*
X122745998Y-81021447D01*
X122700946Y-81060484D01*
X122692182Y-81064949D01*
X122520213Y-81189890D01*
X122369890Y-81340213D01*
X122244951Y-81512179D01*
X122148444Y-81701585D01*
X122082753Y-81903760D01*
X122059003Y-82053713D01*
X122049500Y-82113713D01*
X122049500Y-82326287D01*
X122082754Y-82536243D01*
X122128948Y-82678414D01*
X122148444Y-82738414D01*
X122244951Y-82927820D01*
X122369890Y-83099786D01*
X122520213Y-83250109D01*
X122692182Y-83375050D01*
X122700946Y-83379516D01*
X122751742Y-83427491D01*
X122768536Y-83495312D01*
X122745998Y-83561447D01*
X122700946Y-83600484D01*
X122692182Y-83604949D01*
X122520213Y-83729890D01*
X122369890Y-83880213D01*
X122244951Y-84052179D01*
X122148444Y-84241585D01*
X122082753Y-84443760D01*
X122059003Y-84593713D01*
X122049500Y-84653713D01*
X122049500Y-84866287D01*
X122082754Y-85076243D01*
X122128948Y-85218414D01*
X122148444Y-85278414D01*
X122244951Y-85467820D01*
X122369890Y-85639786D01*
X122520213Y-85790109D01*
X122692182Y-85915050D01*
X122700946Y-85919516D01*
X122751742Y-85967491D01*
X122768536Y-86035312D01*
X122745998Y-86101447D01*
X122700946Y-86140484D01*
X122692182Y-86144949D01*
X122520213Y-86269890D01*
X122369890Y-86420213D01*
X122244951Y-86592179D01*
X122148444Y-86781585D01*
X122082753Y-86983760D01*
X122049500Y-87193713D01*
X122049500Y-87406286D01*
X122082753Y-87616239D01*
X122148444Y-87818414D01*
X122244951Y-88007820D01*
X122369890Y-88179786D01*
X122520213Y-88330109D01*
X122692182Y-88455050D01*
X122700946Y-88459516D01*
X122751742Y-88507491D01*
X122768536Y-88575312D01*
X122745998Y-88641447D01*
X122700946Y-88680484D01*
X122692182Y-88684949D01*
X122520213Y-88809890D01*
X122369890Y-88960213D01*
X122244951Y-89132179D01*
X122148444Y-89321585D01*
X122082753Y-89523760D01*
X122049500Y-89733713D01*
X122049500Y-89946287D01*
X122082754Y-90156243D01*
X122145204Y-90348444D01*
X122148444Y-90358414D01*
X122244951Y-90547820D01*
X122369890Y-90719786D01*
X122520213Y-90870109D01*
X122692182Y-90995050D01*
X122700946Y-90999516D01*
X122751742Y-91047491D01*
X122768536Y-91115312D01*
X122745998Y-91181447D01*
X122700946Y-91220484D01*
X122692182Y-91224949D01*
X122520213Y-91349890D01*
X122369890Y-91500213D01*
X122244951Y-91672179D01*
X122148444Y-91861585D01*
X122082753Y-92063760D01*
X122049500Y-92273713D01*
X122049500Y-92486286D01*
X122072278Y-92630104D01*
X122082754Y-92696243D01*
X122146943Y-92893797D01*
X122148444Y-92898414D01*
X122244951Y-93087820D01*
X122369890Y-93259786D01*
X122520213Y-93410109D01*
X122692182Y-93535050D01*
X122700946Y-93539516D01*
X122751742Y-93587491D01*
X122768536Y-93655312D01*
X122745998Y-93721447D01*
X122700946Y-93760484D01*
X122692182Y-93764949D01*
X122520213Y-93889890D01*
X122369890Y-94040213D01*
X122244951Y-94212179D01*
X122148444Y-94401585D01*
X122082753Y-94603760D01*
X122049500Y-94813713D01*
X122049500Y-95026286D01*
X122072278Y-95170104D01*
X122082754Y-95236243D01*
X122118990Y-95347766D01*
X122148444Y-95438414D01*
X122244951Y-95627820D01*
X122369890Y-95799786D01*
X122520213Y-95950109D01*
X122692182Y-96075050D01*
X122700946Y-96079516D01*
X122751742Y-96127491D01*
X122768536Y-96195312D01*
X122745998Y-96261447D01*
X122700946Y-96300484D01*
X122692182Y-96304949D01*
X122520213Y-96429890D01*
X122369890Y-96580213D01*
X122244951Y-96752179D01*
X122148444Y-96941585D01*
X122082753Y-97143760D01*
X122049500Y-97353713D01*
X122049500Y-97566287D01*
X122082754Y-97776243D01*
X122140845Y-97955029D01*
X122148444Y-97978414D01*
X122244951Y-98167820D01*
X122369890Y-98339786D01*
X122520213Y-98490109D01*
X122692182Y-98615050D01*
X122700946Y-98619516D01*
X122751742Y-98667491D01*
X122768536Y-98735312D01*
X122745998Y-98801447D01*
X122700946Y-98840484D01*
X122692182Y-98844949D01*
X122520213Y-98969890D01*
X122369890Y-99120213D01*
X122244951Y-99292179D01*
X122148444Y-99481585D01*
X122082753Y-99683760D01*
X122049500Y-99893713D01*
X122049500Y-100106286D01*
X122072278Y-100250104D01*
X122082754Y-100316243D01*
X122140937Y-100495312D01*
X122148444Y-100518414D01*
X122244951Y-100707820D01*
X122369890Y-100879786D01*
X122520213Y-101030109D01*
X122692182Y-101155050D01*
X122700946Y-101159516D01*
X122751742Y-101207491D01*
X122768536Y-101275312D01*
X122745998Y-101341447D01*
X122700946Y-101380484D01*
X122692182Y-101384949D01*
X122520213Y-101509890D01*
X122369890Y-101660213D01*
X122244951Y-101832179D01*
X122148444Y-102021585D01*
X122082753Y-102223760D01*
X122049500Y-102433713D01*
X122049500Y-102646286D01*
X122072278Y-102790104D01*
X122082754Y-102856243D01*
X122140937Y-103035312D01*
X122148444Y-103058414D01*
X122244951Y-103247820D01*
X122369890Y-103419786D01*
X122520213Y-103570109D01*
X122692182Y-103695050D01*
X122700946Y-103699516D01*
X122751742Y-103747491D01*
X122768536Y-103815312D01*
X122745998Y-103881447D01*
X122700946Y-103920484D01*
X122692182Y-103924949D01*
X122520213Y-104049890D01*
X122369890Y-104200213D01*
X122244951Y-104372179D01*
X122148444Y-104561585D01*
X122082753Y-104763760D01*
X122049500Y-104973713D01*
X122049500Y-105186286D01*
X122072278Y-105330104D01*
X122082754Y-105396243D01*
X122133218Y-105551555D01*
X122148444Y-105598414D01*
X122244951Y-105787820D01*
X122369890Y-105959786D01*
X122520213Y-106110109D01*
X122692182Y-106235050D01*
X122700946Y-106239516D01*
X122751742Y-106287491D01*
X122768536Y-106355312D01*
X122745998Y-106421447D01*
X122700946Y-106460484D01*
X122692182Y-106464949D01*
X122520213Y-106589890D01*
X122369890Y-106740213D01*
X122244951Y-106912179D01*
X122148444Y-107101585D01*
X122082753Y-107303760D01*
X122049500Y-107513713D01*
X122049500Y-107726286D01*
X122082753Y-107936239D01*
X122148444Y-108138414D01*
X122244951Y-108327820D01*
X122369890Y-108499786D01*
X122520213Y-108650109D01*
X122692182Y-108775050D01*
X122700946Y-108779516D01*
X122751742Y-108827491D01*
X122768536Y-108895312D01*
X122745998Y-108961447D01*
X122700946Y-109000484D01*
X122692182Y-109004949D01*
X122520213Y-109129890D01*
X122369890Y-109280213D01*
X122244951Y-109452179D01*
X122148444Y-109641585D01*
X122082753Y-109843760D01*
X122049500Y-110053713D01*
X122049500Y-110266286D01*
X122082753Y-110476239D01*
X122148444Y-110678414D01*
X122244951Y-110867820D01*
X122369890Y-111039786D01*
X122520213Y-111190109D01*
X122692179Y-111315048D01*
X122692181Y-111315049D01*
X122692184Y-111315051D01*
X122701493Y-111319794D01*
X122752290Y-111367766D01*
X122769087Y-111435587D01*
X122746552Y-111501722D01*
X122701505Y-111540760D01*
X122692446Y-111545376D01*
X122692440Y-111545380D01*
X122638282Y-111584727D01*
X122638282Y-111584728D01*
X123270591Y-112217037D01*
X123207007Y-112234075D01*
X123092993Y-112299901D01*
X122999901Y-112392993D01*
X122934075Y-112507007D01*
X122917037Y-112570591D01*
X122284728Y-111938282D01*
X122284727Y-111938282D01*
X122245380Y-111992439D01*
X122148904Y-112181782D01*
X122083242Y-112383869D01*
X122083242Y-112383872D01*
X122050000Y-112593753D01*
X122050000Y-112806246D01*
X122083242Y-113016127D01*
X122083242Y-113016130D01*
X122148904Y-113218217D01*
X122245375Y-113407550D01*
X122284728Y-113461716D01*
X122917037Y-112829408D01*
X122934075Y-112892993D01*
X122999901Y-113007007D01*
X123092993Y-113100099D01*
X123207007Y-113165925D01*
X123270591Y-113182962D01*
X122669971Y-113783581D01*
X122748711Y-113900895D01*
X122749920Y-113904729D01*
X122752844Y-113907491D01*
X122760343Y-113937778D01*
X122769727Y-113967529D01*
X122768671Y-113971408D01*
X122769638Y-113975312D01*
X122759573Y-114004844D01*
X122751383Y-114034947D01*
X122748397Y-114037640D01*
X122747100Y-114041447D01*
X122702051Y-114080483D01*
X122692440Y-114085380D01*
X122638282Y-114124727D01*
X122638282Y-114124728D01*
X123270591Y-114757037D01*
X123207007Y-114774075D01*
X123092993Y-114839901D01*
X122999901Y-114932993D01*
X122934075Y-115047007D01*
X122917037Y-115110591D01*
X122284728Y-114478282D01*
X122284727Y-114478282D01*
X122245380Y-114532439D01*
X122148904Y-114721782D01*
X122083242Y-114923869D01*
X122083242Y-114923872D01*
X122050000Y-115133753D01*
X122050000Y-115346246D01*
X122083242Y-115556127D01*
X122083242Y-115556130D01*
X122148904Y-115758217D01*
X122245375Y-115947550D01*
X122284728Y-116001716D01*
X122917037Y-115369408D01*
X122934075Y-115432993D01*
X122999901Y-115547007D01*
X123092993Y-115640099D01*
X123207007Y-115705925D01*
X123270590Y-115722962D01*
X122638282Y-116355269D01*
X122638282Y-116355270D01*
X122692449Y-116394624D01*
X122881782Y-116491095D01*
X123083870Y-116556757D01*
X123293754Y-116590000D01*
X123506246Y-116590000D01*
X123716127Y-116556757D01*
X123716130Y-116556757D01*
X123918217Y-116491095D01*
X124107554Y-116394622D01*
X124161716Y-116355270D01*
X124161717Y-116355270D01*
X123529408Y-115722962D01*
X123592993Y-115705925D01*
X123707007Y-115640099D01*
X123800099Y-115547007D01*
X123865925Y-115432993D01*
X123882962Y-115369408D01*
X124515270Y-116001717D01*
X124515270Y-116001716D01*
X124554622Y-115947554D01*
X124651095Y-115758217D01*
X124716757Y-115556130D01*
X124716757Y-115556127D01*
X124750000Y-115346246D01*
X124750000Y-115133753D01*
X124716757Y-114923872D01*
X124716757Y-114923869D01*
X124651095Y-114721782D01*
X124554624Y-114532449D01*
X124515270Y-114478282D01*
X124515269Y-114478282D01*
X123882962Y-115110590D01*
X123865925Y-115047007D01*
X123800099Y-114932993D01*
X123707007Y-114839901D01*
X123592993Y-114774075D01*
X123529409Y-114757037D01*
X124161716Y-114124728D01*
X124107550Y-114085375D01*
X124097954Y-114080486D01*
X124047157Y-114032512D01*
X124030361Y-113964692D01*
X124052897Y-113898556D01*
X124097954Y-113859514D01*
X124107554Y-113854622D01*
X124161716Y-113815270D01*
X124161717Y-113815270D01*
X123529408Y-113182962D01*
X123592993Y-113165925D01*
X123707007Y-113100099D01*
X123800099Y-113007007D01*
X123865925Y-112892993D01*
X123882962Y-112829408D01*
X124515270Y-113461717D01*
X124515270Y-113461716D01*
X124554622Y-113407554D01*
X124651095Y-113218217D01*
X124716757Y-113016130D01*
X124716757Y-113016127D01*
X124750000Y-112806246D01*
X124750000Y-112593753D01*
X124716757Y-112383872D01*
X124716757Y-112383869D01*
X124651095Y-112181782D01*
X124554624Y-111992449D01*
X124515270Y-111938282D01*
X124515269Y-111938282D01*
X123882962Y-112570590D01*
X123865925Y-112507007D01*
X123800099Y-112392993D01*
X123707007Y-112299901D01*
X123592993Y-112234075D01*
X123529409Y-112217037D01*
X124161716Y-111584728D01*
X124107547Y-111545373D01*
X124107547Y-111545372D01*
X124098500Y-111540763D01*
X124047706Y-111492788D01*
X124030912Y-111424966D01*
X124053451Y-111358832D01*
X124098508Y-111319793D01*
X124107816Y-111315051D01*
X124187007Y-111257515D01*
X124279786Y-111190109D01*
X124279788Y-111190106D01*
X124279792Y-111190104D01*
X124430104Y-111039792D01*
X124430106Y-111039788D01*
X124430109Y-111039786D01*
X124555048Y-110867820D01*
X124555047Y-110867820D01*
X124555051Y-110867816D01*
X124651557Y-110678412D01*
X124717246Y-110476243D01*
X124750500Y-110266287D01*
X124750500Y-110053713D01*
X124717246Y-109843757D01*
X124651557Y-109641588D01*
X124555051Y-109452184D01*
X124555049Y-109452181D01*
X124555048Y-109452179D01*
X124430109Y-109280213D01*
X124279786Y-109129890D01*
X124107820Y-109004951D01*
X124107115Y-109004591D01*
X124099054Y-109000485D01*
X124048259Y-108952512D01*
X124031463Y-108884692D01*
X124053999Y-108818556D01*
X124099054Y-108779515D01*
X124107816Y-108775051D01*
X124129789Y-108759086D01*
X124279786Y-108650109D01*
X124279788Y-108650106D01*
X124279792Y-108650104D01*
X124430104Y-108499792D01*
X124430106Y-108499788D01*
X124430109Y-108499786D01*
X124555048Y-108327820D01*
X124555047Y-108327820D01*
X124555051Y-108327816D01*
X124651557Y-108138412D01*
X124717246Y-107936243D01*
X124750500Y-107726287D01*
X124750500Y-107513713D01*
X124717246Y-107303757D01*
X124651557Y-107101588D01*
X124555051Y-106912184D01*
X124555049Y-106912181D01*
X124555048Y-106912179D01*
X124430109Y-106740213D01*
X124279786Y-106589890D01*
X124107820Y-106464951D01*
X124107115Y-106464591D01*
X124099054Y-106460485D01*
X124048259Y-106412512D01*
X124031463Y-106344692D01*
X124053999Y-106278556D01*
X124099054Y-106239515D01*
X124107816Y-106235051D01*
X124129789Y-106219086D01*
X124279786Y-106110109D01*
X124279788Y-106110106D01*
X124279792Y-106110104D01*
X124430104Y-105959792D01*
X124430106Y-105959788D01*
X124430109Y-105959786D01*
X124555048Y-105787820D01*
X124555047Y-105787820D01*
X124555051Y-105787816D01*
X124651557Y-105598412D01*
X124717246Y-105396243D01*
X124750500Y-105186287D01*
X124750500Y-104973713D01*
X124717246Y-104763757D01*
X124651557Y-104561588D01*
X124555051Y-104372184D01*
X124555049Y-104372181D01*
X124555048Y-104372179D01*
X124430109Y-104200213D01*
X124279786Y-104049890D01*
X124107820Y-103924951D01*
X124107115Y-103924591D01*
X124099054Y-103920485D01*
X124048259Y-103872512D01*
X124031463Y-103804692D01*
X124053999Y-103738556D01*
X124099054Y-103699515D01*
X124107816Y-103695051D01*
X124129789Y-103679086D01*
X124279786Y-103570109D01*
X124279788Y-103570106D01*
X124279792Y-103570104D01*
X124430104Y-103419792D01*
X124430106Y-103419788D01*
X124430109Y-103419786D01*
X124555048Y-103247820D01*
X124555047Y-103247820D01*
X124555051Y-103247816D01*
X124651557Y-103058412D01*
X124717246Y-102856243D01*
X124750500Y-102646287D01*
X124750500Y-102433713D01*
X124717246Y-102223757D01*
X124651557Y-102021588D01*
X124555051Y-101832184D01*
X124555049Y-101832181D01*
X124555048Y-101832179D01*
X124430109Y-101660213D01*
X124279786Y-101509890D01*
X124107820Y-101384951D01*
X124107115Y-101384591D01*
X124099054Y-101380485D01*
X124048259Y-101332512D01*
X124031463Y-101264692D01*
X124053999Y-101198556D01*
X124099054Y-101159515D01*
X124107816Y-101155051D01*
X124129789Y-101139086D01*
X124279786Y-101030109D01*
X124279788Y-101030106D01*
X124279792Y-101030104D01*
X124430104Y-100879792D01*
X124430106Y-100879788D01*
X124430109Y-100879786D01*
X124555048Y-100707820D01*
X124555047Y-100707820D01*
X124555051Y-100707816D01*
X124651557Y-100518412D01*
X124717246Y-100316243D01*
X124750500Y-100106287D01*
X124750500Y-99893713D01*
X124717246Y-99683757D01*
X124651557Y-99481588D01*
X124555051Y-99292184D01*
X124555049Y-99292181D01*
X124555048Y-99292179D01*
X124430109Y-99120213D01*
X124279786Y-98969890D01*
X124107820Y-98844951D01*
X124107115Y-98844591D01*
X124099054Y-98840485D01*
X124048259Y-98792512D01*
X124031463Y-98724692D01*
X124053999Y-98658556D01*
X124099054Y-98619515D01*
X124107816Y-98615051D01*
X124129789Y-98599086D01*
X124279786Y-98490109D01*
X124279788Y-98490106D01*
X124279792Y-98490104D01*
X124430104Y-98339792D01*
X124430106Y-98339788D01*
X124430109Y-98339786D01*
X124555048Y-98167820D01*
X124555047Y-98167820D01*
X124555051Y-98167816D01*
X124651557Y-97978412D01*
X124717246Y-97776243D01*
X124750500Y-97566287D01*
X124750500Y-97353713D01*
X124717246Y-97143757D01*
X124651557Y-96941588D01*
X124555051Y-96752184D01*
X124555049Y-96752181D01*
X124555048Y-96752179D01*
X124430109Y-96580213D01*
X124279786Y-96429890D01*
X124107820Y-96304951D01*
X124107115Y-96304591D01*
X124099054Y-96300485D01*
X124048259Y-96252512D01*
X124031463Y-96184692D01*
X124053999Y-96118556D01*
X124099054Y-96079515D01*
X124107816Y-96075051D01*
X124249037Y-95972449D01*
X124279786Y-95950109D01*
X124279788Y-95950106D01*
X124279792Y-95950104D01*
X124430104Y-95799792D01*
X124430106Y-95799788D01*
X124430109Y-95799786D01*
X124555048Y-95627820D01*
X124555047Y-95627820D01*
X124555051Y-95627816D01*
X124651557Y-95438412D01*
X124717246Y-95236243D01*
X124750500Y-95026287D01*
X124750500Y-94813713D01*
X124717246Y-94603757D01*
X124651557Y-94401588D01*
X124555051Y-94212184D01*
X124555049Y-94212181D01*
X124555048Y-94212179D01*
X124430109Y-94040213D01*
X124279786Y-93889890D01*
X124107820Y-93764951D01*
X124107115Y-93764591D01*
X124099054Y-93760485D01*
X124048259Y-93712512D01*
X124031463Y-93644692D01*
X124053999Y-93578556D01*
X124099054Y-93539515D01*
X124107816Y-93535051D01*
X124129789Y-93519086D01*
X124279786Y-93410109D01*
X124279788Y-93410106D01*
X124279792Y-93410104D01*
X124430104Y-93259792D01*
X124430106Y-93259788D01*
X124430109Y-93259786D01*
X124555048Y-93087820D01*
X124555047Y-93087820D01*
X124555051Y-93087816D01*
X124651557Y-92898412D01*
X124717246Y-92696243D01*
X124750500Y-92486287D01*
X124750500Y-92273713D01*
X124717246Y-92063757D01*
X124651557Y-91861588D01*
X124555051Y-91672184D01*
X124555049Y-91672181D01*
X124555048Y-91672179D01*
X124430109Y-91500213D01*
X124279786Y-91349890D01*
X124107820Y-91224951D01*
X124107115Y-91224591D01*
X124099054Y-91220485D01*
X124048259Y-91172512D01*
X124031463Y-91104692D01*
X124053999Y-91038556D01*
X124099054Y-90999515D01*
X124107816Y-90995051D01*
X124129789Y-90979086D01*
X124279786Y-90870109D01*
X124279788Y-90870106D01*
X124279792Y-90870104D01*
X124430104Y-90719792D01*
X124430106Y-90719788D01*
X124430109Y-90719786D01*
X124555048Y-90547820D01*
X124555047Y-90547820D01*
X124555051Y-90547816D01*
X124651557Y-90358412D01*
X124717246Y-90156243D01*
X124750500Y-89946287D01*
X124750500Y-89733713D01*
X124717246Y-89523757D01*
X124651557Y-89321588D01*
X124555051Y-89132184D01*
X124555049Y-89132181D01*
X124555048Y-89132179D01*
X124430109Y-88960213D01*
X124279786Y-88809890D01*
X124107820Y-88684951D01*
X124107115Y-88684591D01*
X124099054Y-88680485D01*
X124048259Y-88632512D01*
X124031463Y-88564692D01*
X124053999Y-88498556D01*
X124099054Y-88459515D01*
X124107816Y-88455051D01*
X124129789Y-88439086D01*
X124279786Y-88330109D01*
X124279788Y-88330106D01*
X124279792Y-88330104D01*
X124430104Y-88179792D01*
X124430106Y-88179788D01*
X124430109Y-88179786D01*
X124555048Y-88007820D01*
X124555047Y-88007820D01*
X124555051Y-88007816D01*
X124651557Y-87818412D01*
X124717246Y-87616243D01*
X124750500Y-87406287D01*
X124750500Y-87193713D01*
X124717246Y-86983757D01*
X124651557Y-86781588D01*
X124555051Y-86592184D01*
X124555049Y-86592181D01*
X124555048Y-86592179D01*
X124430109Y-86420213D01*
X124279786Y-86269890D01*
X124107820Y-86144951D01*
X124107115Y-86144591D01*
X124099054Y-86140485D01*
X124048259Y-86092512D01*
X124031463Y-86024692D01*
X124053999Y-85958556D01*
X124099054Y-85919515D01*
X124107816Y-85915051D01*
X124129789Y-85899086D01*
X124279786Y-85790109D01*
X124279788Y-85790106D01*
X124279792Y-85790104D01*
X124430104Y-85639792D01*
X124430106Y-85639788D01*
X124430109Y-85639786D01*
X124555048Y-85467820D01*
X124555047Y-85467820D01*
X124555051Y-85467816D01*
X124651557Y-85278412D01*
X124717246Y-85076243D01*
X124750500Y-84866287D01*
X124750500Y-84653713D01*
X124717246Y-84443757D01*
X124651557Y-84241588D01*
X124555051Y-84052184D01*
X124555049Y-84052181D01*
X124555048Y-84052179D01*
X124430109Y-83880213D01*
X124279786Y-83729890D01*
X124107820Y-83604951D01*
X124107115Y-83604591D01*
X124099054Y-83600485D01*
X124048259Y-83552512D01*
X124031463Y-83484692D01*
X124053999Y-83418556D01*
X124099054Y-83379515D01*
X124107816Y-83375051D01*
X124184257Y-83319514D01*
X124279786Y-83250109D01*
X124279788Y-83250106D01*
X124279792Y-83250104D01*
X124430104Y-83099792D01*
X124430106Y-83099788D01*
X124430109Y-83099786D01*
X124555048Y-82927820D01*
X124555047Y-82927820D01*
X124555051Y-82927816D01*
X124651557Y-82738412D01*
X124717246Y-82536243D01*
X124750500Y-82326287D01*
X124750500Y-82113713D01*
X124717246Y-81903757D01*
X124651557Y-81701588D01*
X124555051Y-81512184D01*
X124555049Y-81512181D01*
X124555048Y-81512179D01*
X124430109Y-81340213D01*
X124279786Y-81189890D01*
X124107820Y-81064951D01*
X124107115Y-81064591D01*
X124099054Y-81060485D01*
X124048259Y-81012512D01*
X124031463Y-80944692D01*
X124053999Y-80878556D01*
X124099054Y-80839515D01*
X124107816Y-80835051D01*
X124184257Y-80779514D01*
X124279786Y-80710109D01*
X124279788Y-80710106D01*
X124279792Y-80710104D01*
X124430104Y-80559792D01*
X124430106Y-80559788D01*
X124430109Y-80559786D01*
X124555048Y-80387820D01*
X124555047Y-80387820D01*
X124555051Y-80387816D01*
X124651557Y-80198412D01*
X124717246Y-79996243D01*
X124750500Y-79786287D01*
X124750500Y-79573713D01*
X124717246Y-79363757D01*
X124651557Y-79161588D01*
X124555051Y-78972184D01*
X124555049Y-78972181D01*
X124555048Y-78972179D01*
X124430109Y-78800213D01*
X124279786Y-78649890D01*
X124107820Y-78524951D01*
X124107115Y-78524591D01*
X124099054Y-78520485D01*
X124048259Y-78472512D01*
X124031463Y-78404692D01*
X124053999Y-78338556D01*
X124099054Y-78299515D01*
X124107816Y-78295051D01*
X124184645Y-78239232D01*
X124279786Y-78170109D01*
X124279788Y-78170106D01*
X124279792Y-78170104D01*
X124430104Y-78019792D01*
X124430106Y-78019788D01*
X124430109Y-78019786D01*
X124555048Y-77847820D01*
X124555047Y-77847820D01*
X124555051Y-77847816D01*
X124651557Y-77658412D01*
X124717246Y-77456243D01*
X124750500Y-77246287D01*
X124750500Y-77033713D01*
X124717246Y-76823757D01*
X124651557Y-76621588D01*
X124555051Y-76432184D01*
X124555049Y-76432181D01*
X124555048Y-76432179D01*
X124430109Y-76260213D01*
X124279786Y-76109890D01*
X124107820Y-75984951D01*
X124107115Y-75984591D01*
X124099054Y-75980485D01*
X124048259Y-75932512D01*
X124031463Y-75864692D01*
X124053999Y-75798556D01*
X124099054Y-75759515D01*
X124107816Y-75755051D01*
X124183874Y-75699792D01*
X124279786Y-75630109D01*
X124279788Y-75630106D01*
X124279792Y-75630104D01*
X124430104Y-75479792D01*
X124430106Y-75479788D01*
X124430109Y-75479786D01*
X124555048Y-75307820D01*
X124555047Y-75307820D01*
X124555051Y-75307816D01*
X124651557Y-75118412D01*
X124717246Y-74916243D01*
X124750500Y-74706287D01*
X124750500Y-74493713D01*
X124717246Y-74283757D01*
X124651557Y-74081588D01*
X124555051Y-73892184D01*
X124555049Y-73892181D01*
X124555048Y-73892179D01*
X124430109Y-73720213D01*
X124279786Y-73569890D01*
X124107820Y-73444951D01*
X124107115Y-73444591D01*
X124099054Y-73440485D01*
X124048259Y-73392512D01*
X124031463Y-73324692D01*
X124053999Y-73258556D01*
X124099054Y-73219515D01*
X124107816Y-73215051D01*
X124184257Y-73159514D01*
X124279786Y-73090109D01*
X124279788Y-73090106D01*
X124279792Y-73090104D01*
X124430104Y-72939792D01*
X124430106Y-72939788D01*
X124430109Y-72939786D01*
X124555048Y-72767820D01*
X124555047Y-72767820D01*
X124555051Y-72767816D01*
X124651557Y-72578412D01*
X124717246Y-72376243D01*
X124750500Y-72166287D01*
X124750500Y-71953713D01*
X124717246Y-71743757D01*
X124651557Y-71541588D01*
X124555051Y-71352184D01*
X124555049Y-71352181D01*
X124555048Y-71352179D01*
X124430109Y-71180213D01*
X124279786Y-71029890D01*
X124107820Y-70904951D01*
X124107115Y-70904591D01*
X124099054Y-70900485D01*
X124048259Y-70852512D01*
X124031463Y-70784692D01*
X124053999Y-70718556D01*
X124099054Y-70679515D01*
X124107816Y-70675051D01*
X124142984Y-70649500D01*
X124279786Y-70550109D01*
X124279788Y-70550106D01*
X124279792Y-70550104D01*
X124430104Y-70399792D01*
X124430106Y-70399788D01*
X124430109Y-70399786D01*
X124555048Y-70227820D01*
X124555047Y-70227820D01*
X124555051Y-70227816D01*
X124651557Y-70038412D01*
X124717246Y-69836243D01*
X124750500Y-69626287D01*
X124750500Y-69413713D01*
X124717246Y-69203757D01*
X124651557Y-69001588D01*
X124555051Y-68812184D01*
X124555049Y-68812181D01*
X124555048Y-68812179D01*
X124430109Y-68640213D01*
X124279786Y-68489890D01*
X124107820Y-68364951D01*
X124107115Y-68364591D01*
X124099054Y-68360485D01*
X124048259Y-68312512D01*
X124031463Y-68244692D01*
X124053999Y-68178556D01*
X124099054Y-68139515D01*
X124107816Y-68135051D01*
X124129789Y-68119086D01*
X124279786Y-68010109D01*
X124279788Y-68010106D01*
X124279792Y-68010104D01*
X124430104Y-67859792D01*
X124430106Y-67859788D01*
X124430109Y-67859786D01*
X124555048Y-67687820D01*
X124555047Y-67687820D01*
X124555051Y-67687816D01*
X124651557Y-67498412D01*
X124717246Y-67296243D01*
X124750500Y-67086287D01*
X124750500Y-66873713D01*
X124717246Y-66663757D01*
X124651557Y-66461588D01*
X124555051Y-66272184D01*
X124555049Y-66272181D01*
X124555048Y-66272179D01*
X124430109Y-66100213D01*
X124279786Y-65949890D01*
X124107820Y-65824951D01*
X124107115Y-65824591D01*
X124099054Y-65820485D01*
X124048259Y-65772512D01*
X124031463Y-65704692D01*
X124053999Y-65638556D01*
X124099054Y-65599515D01*
X124107816Y-65595051D01*
X124129789Y-65579086D01*
X124279786Y-65470109D01*
X124279788Y-65470106D01*
X124279792Y-65470104D01*
X124430104Y-65319792D01*
X124430106Y-65319788D01*
X124430109Y-65319786D01*
X124555048Y-65147820D01*
X124555047Y-65147820D01*
X124555051Y-65147816D01*
X124651557Y-64958412D01*
X124717246Y-64756243D01*
X124750500Y-64546287D01*
X124750500Y-64333713D01*
X124717246Y-64123757D01*
X124651557Y-63921588D01*
X124555051Y-63732184D01*
X124555049Y-63732181D01*
X124555048Y-63732179D01*
X124430109Y-63560213D01*
X124279786Y-63409890D01*
X124107817Y-63284949D01*
X124098504Y-63280204D01*
X124047707Y-63232230D01*
X124030912Y-63164409D01*
X124053449Y-63098274D01*
X124098507Y-63059232D01*
X124107555Y-63054622D01*
X124161716Y-63015270D01*
X124161717Y-63015270D01*
X123529408Y-62382962D01*
X123592993Y-62365925D01*
X123707007Y-62300099D01*
X123800099Y-62207007D01*
X123865925Y-62092993D01*
X123882962Y-62029408D01*
X124515270Y-62661717D01*
X124515270Y-62661716D01*
X124554622Y-62607554D01*
X124651095Y-62418217D01*
X124716757Y-62216130D01*
X124716757Y-62216127D01*
X124750000Y-62006246D01*
X124750000Y-61793753D01*
X124716757Y-61583872D01*
X124716757Y-61583869D01*
X124651095Y-61381782D01*
X124554624Y-61192449D01*
X124515270Y-61138282D01*
X124515269Y-61138282D01*
X123882962Y-61770590D01*
X123865925Y-61707007D01*
X123800099Y-61592993D01*
X123707007Y-61499901D01*
X123592993Y-61434075D01*
X123529409Y-61417037D01*
X124161716Y-60784728D01*
X124107550Y-60745375D01*
X123918217Y-60648904D01*
X123716129Y-60583242D01*
X123506246Y-60550000D01*
X123293754Y-60550000D01*
X123083872Y-60583242D01*
X123083869Y-60583242D01*
X122881782Y-60648904D01*
X122692439Y-60745380D01*
X122638282Y-60784727D01*
X122638282Y-60784728D01*
X123270591Y-61417037D01*
X123207007Y-61434075D01*
X123092993Y-61499901D01*
X122999901Y-61592993D01*
X122934075Y-61707007D01*
X122917037Y-61770591D01*
X122284728Y-61138282D01*
X122284727Y-61138282D01*
X122245380Y-61192439D01*
X122148904Y-61381782D01*
X122083242Y-61583869D01*
X122083242Y-61583872D01*
X122050000Y-61793753D01*
X122050000Y-62006246D01*
X122083242Y-62216127D01*
X122083242Y-62216130D01*
X122148904Y-62418217D01*
X122245375Y-62607550D01*
X122284728Y-62661716D01*
X122917037Y-62029408D01*
X122934075Y-62092993D01*
X122999901Y-62207007D01*
X123092993Y-62300099D01*
X123207007Y-62365925D01*
X123270590Y-62382962D01*
X122638282Y-63015269D01*
X122638282Y-63015270D01*
X122692452Y-63054626D01*
X122692451Y-63054626D01*
X122701495Y-63059234D01*
X122752292Y-63107208D01*
X122769087Y-63175029D01*
X122746550Y-63241164D01*
X122701499Y-63280202D01*
X122692182Y-63284949D01*
X122520213Y-63409890D01*
X122369890Y-63560213D01*
X122244951Y-63732179D01*
X122148444Y-63921585D01*
X122082753Y-64123760D01*
X122057756Y-64281585D01*
X122049500Y-64333713D01*
X99350500Y-64333713D01*
X99317246Y-64123757D01*
X99251557Y-63921588D01*
X99155051Y-63732184D01*
X99155049Y-63732181D01*
X99155048Y-63732179D01*
X99030109Y-63560213D01*
X98916569Y-63446673D01*
X98883084Y-63385350D01*
X98888068Y-63315658D01*
X98929940Y-63259725D01*
X98960915Y-63242810D01*
X99092331Y-63193796D01*
X99207546Y-63107546D01*
X99293796Y-62992331D01*
X99344091Y-62857483D01*
X99350500Y-62797873D01*
X99350499Y-61002128D01*
X99344091Y-60942517D01*
X99307617Y-60844726D01*
X99293798Y-60807673D01*
X99293793Y-60807664D01*
X99207547Y-60692455D01*
X99207544Y-60692452D01*
X99092335Y-60606206D01*
X99092328Y-60606202D01*
X98957482Y-60555908D01*
X98957483Y-60555908D01*
X98897883Y-60549501D01*
X98897881Y-60549500D01*
X98897873Y-60549500D01*
X98897864Y-60549500D01*
X97102129Y-60549500D01*
X97102123Y-60549501D01*
X97042516Y-60555908D01*
X96907671Y-60606202D01*
X96907664Y-60606206D01*
X96792455Y-60692452D01*
X96792452Y-60692455D01*
X96706206Y-60807664D01*
X96706202Y-60807671D01*
X96655908Y-60942517D01*
X96649501Y-61002116D01*
X96649501Y-61002123D01*
X96649500Y-61002135D01*
X88575783Y-61002135D01*
X88571463Y-60984692D01*
X88571816Y-60983653D01*
X88571571Y-60982582D01*
X88583059Y-60950658D01*
X88593999Y-60918556D01*
X88594891Y-60917782D01*
X88595231Y-60916840D01*
X88601731Y-60911855D01*
X88639054Y-60879515D01*
X88647816Y-60875051D01*
X88740555Y-60807673D01*
X88819786Y-60750109D01*
X88819788Y-60750106D01*
X88819792Y-60750104D01*
X88970104Y-60599792D01*
X88970106Y-60599788D01*
X88970109Y-60599786D01*
X89095048Y-60427820D01*
X89095047Y-60427820D01*
X89095051Y-60427816D01*
X89191557Y-60238412D01*
X89257246Y-60036243D01*
X89290500Y-59826287D01*
X89290500Y-59613713D01*
X89257246Y-59403757D01*
X89191557Y-59201588D01*
X89095051Y-59012184D01*
X89095049Y-59012181D01*
X89095048Y-59012179D01*
X88970109Y-58840213D01*
X88819786Y-58689890D01*
X88647817Y-58564949D01*
X88638504Y-58560204D01*
X88587707Y-58512230D01*
X88570912Y-58444409D01*
X88593449Y-58378274D01*
X88638507Y-58339232D01*
X88647555Y-58334622D01*
X88701716Y-58295270D01*
X88701717Y-58295270D01*
X88069408Y-57662962D01*
X88132993Y-57645925D01*
X88247007Y-57580099D01*
X88340099Y-57487007D01*
X88405925Y-57372993D01*
X88422962Y-57309408D01*
X89055270Y-57941717D01*
X89055270Y-57941716D01*
X89094622Y-57887554D01*
X89191095Y-57698217D01*
X89256757Y-57496130D01*
X89256757Y-57496127D01*
X89290000Y-57286246D01*
X89290000Y-57073753D01*
X89256757Y-56863872D01*
X89256757Y-56863869D01*
X89191095Y-56661782D01*
X89094624Y-56472449D01*
X89055270Y-56418282D01*
X89055269Y-56418282D01*
X88422962Y-57050590D01*
X88405925Y-56987007D01*
X88340099Y-56872993D01*
X88247007Y-56779901D01*
X88132993Y-56714075D01*
X88069409Y-56697037D01*
X88701716Y-56064728D01*
X88647547Y-56025373D01*
X88647547Y-56025372D01*
X88638500Y-56020763D01*
X88587706Y-55972788D01*
X88570912Y-55904966D01*
X88593451Y-55838832D01*
X88638508Y-55799793D01*
X88647816Y-55795051D01*
X88727007Y-55737515D01*
X88819786Y-55670109D01*
X88819788Y-55670106D01*
X88819792Y-55670104D01*
X88970104Y-55519792D01*
X88970106Y-55519788D01*
X88970109Y-55519786D01*
X89095048Y-55347820D01*
X89095047Y-55347820D01*
X89095051Y-55347816D01*
X89191557Y-55158412D01*
X89257246Y-54956243D01*
X89290500Y-54746287D01*
X89290500Y-54533713D01*
X89257246Y-54323757D01*
X89191557Y-54121588D01*
X89095051Y-53932184D01*
X89095049Y-53932181D01*
X89095048Y-53932179D01*
X88970109Y-53760213D01*
X88856569Y-53646673D01*
X88823084Y-53585350D01*
X88828068Y-53515658D01*
X88869940Y-53459725D01*
X88900915Y-53442810D01*
X89032331Y-53393796D01*
X89147546Y-53307546D01*
X89233796Y-53192331D01*
X89284091Y-53057483D01*
X89290500Y-52997873D01*
X89290499Y-51202128D01*
X89284091Y-51142517D01*
X89233796Y-51007669D01*
X89233795Y-51007668D01*
X89233793Y-51007664D01*
X89147547Y-50892455D01*
X89147544Y-50892452D01*
X89032335Y-50806206D01*
X89032328Y-50806202D01*
X88897482Y-50755908D01*
X88897483Y-50755908D01*
X88837883Y-50749501D01*
X88837881Y-50749500D01*
X88837873Y-50749500D01*
X88837864Y-50749500D01*
X87042129Y-50749500D01*
X87042123Y-50749501D01*
X86982516Y-50755908D01*
X86847671Y-50806202D01*
X86847664Y-50806206D01*
X86732455Y-50892452D01*
X86732452Y-50892455D01*
X86646206Y-51007664D01*
X86646202Y-51007671D01*
X86595908Y-51142517D01*
X86589501Y-51202116D01*
X86589501Y-51202123D01*
X86589500Y-51202135D01*
X78952031Y-51202135D01*
X78819792Y-51069896D01*
X78819786Y-51069890D01*
X78647820Y-50944951D01*
X78458414Y-50848444D01*
X78458413Y-50848443D01*
X78458412Y-50848443D01*
X78256243Y-50782754D01*
X78256241Y-50782753D01*
X78256240Y-50782753D01*
X78094957Y-50757208D01*
X78046287Y-50749500D01*
X77833713Y-50749500D01*
X77785042Y-50757208D01*
X77623760Y-50782753D01*
X77421585Y-50848444D01*
X77232179Y-50944951D01*
X77060213Y-51069890D01*
X76909890Y-51220213D01*
X76784951Y-51392179D01*
X76688444Y-51581585D01*
X76622753Y-51783760D01*
X76589500Y-51993713D01*
X56000500Y-51993713D01*
X56000500Y-37327135D01*
X65149500Y-37327135D01*
X65149500Y-39122870D01*
X65149501Y-39122876D01*
X65155908Y-39182483D01*
X65206202Y-39317328D01*
X65206206Y-39317335D01*
X65292452Y-39432544D01*
X65292455Y-39432547D01*
X65407664Y-39518793D01*
X65407671Y-39518797D01*
X65452618Y-39535561D01*
X65542517Y-39569091D01*
X65602127Y-39575500D01*
X65612685Y-39575499D01*
X65679723Y-39595179D01*
X65700372Y-39611818D01*
X66370591Y-40282037D01*
X66307007Y-40299075D01*
X66192993Y-40364901D01*
X66099901Y-40457993D01*
X66034075Y-40572007D01*
X66017037Y-40635591D01*
X65384728Y-40003282D01*
X65384727Y-40003282D01*
X65345380Y-40057439D01*
X65248904Y-40246782D01*
X65183242Y-40448869D01*
X65183242Y-40448872D01*
X65150000Y-40658753D01*
X65150000Y-40871246D01*
X65183242Y-41081127D01*
X65183242Y-41081130D01*
X65248904Y-41283217D01*
X65345375Y-41472550D01*
X65384728Y-41526716D01*
X66017037Y-40894408D01*
X66034075Y-40957993D01*
X66099901Y-41072007D01*
X66192993Y-41165099D01*
X66307007Y-41230925D01*
X66370590Y-41247962D01*
X65738282Y-41880269D01*
X65738282Y-41880270D01*
X65792449Y-41919624D01*
X65981782Y-42016095D01*
X66183870Y-42081757D01*
X66393754Y-42115000D01*
X66606246Y-42115000D01*
X66816127Y-42081757D01*
X66816130Y-42081757D01*
X67018217Y-42016095D01*
X67207554Y-41919622D01*
X67261716Y-41880270D01*
X67261717Y-41880270D01*
X66629408Y-41247962D01*
X66692993Y-41230925D01*
X66807007Y-41165099D01*
X66900099Y-41072007D01*
X66965925Y-40957993D01*
X66982962Y-40894408D01*
X67615270Y-41526717D01*
X67615270Y-41526716D01*
X67654622Y-41472554D01*
X67751095Y-41283217D01*
X67816757Y-41081130D01*
X67816757Y-41081127D01*
X67850000Y-40871246D01*
X67850000Y-40658753D01*
X67816757Y-40448872D01*
X67816757Y-40448869D01*
X67751095Y-40246782D01*
X67654624Y-40057449D01*
X67615270Y-40003282D01*
X67615269Y-40003282D01*
X66982962Y-40635590D01*
X66965925Y-40572007D01*
X66900099Y-40457993D01*
X66807007Y-40364901D01*
X66692993Y-40299075D01*
X66629409Y-40282037D01*
X67299627Y-39611818D01*
X67360950Y-39578333D01*
X67387307Y-39575499D01*
X67397872Y-39575499D01*
X67457483Y-39569091D01*
X67592331Y-39518796D01*
X67707546Y-39432546D01*
X67793796Y-39317331D01*
X67844091Y-39182483D01*
X67850500Y-39122873D01*
X67850499Y-37599983D01*
X74959500Y-37599983D01*
X74959500Y-41400001D01*
X74959501Y-41400018D01*
X74970000Y-41502796D01*
X74970001Y-41502799D01*
X75025185Y-41669331D01*
X75025186Y-41669334D01*
X75117288Y-41818656D01*
X75241344Y-41942712D01*
X75390666Y-42034814D01*
X75557203Y-42089999D01*
X75659991Y-42100500D01*
X78420008Y-42100499D01*
X78522797Y-42089999D01*
X78689334Y-42034814D01*
X78838656Y-41942712D01*
X78962712Y-41818656D01*
X79054814Y-41669334D01*
X79109999Y-41502797D01*
X79120500Y-41400009D01*
X79120499Y-41352651D01*
X79140182Y-41285616D01*
X79192985Y-41239860D01*
X79262144Y-41229915D01*
X79325700Y-41258938D01*
X79342874Y-41277166D01*
X79432818Y-41394382D01*
X79432826Y-41394391D01*
X79625609Y-41587174D01*
X79625617Y-41587181D01*
X79841933Y-41753168D01*
X80078062Y-41889496D01*
X80078072Y-41889500D01*
X80329970Y-41993840D01*
X80593344Y-42064411D01*
X80750000Y-42085034D01*
X80750000Y-40367904D01*
X80911358Y-40400000D01*
X81088642Y-40400000D01*
X81250000Y-40367904D01*
X81250000Y-42085033D01*
X81406655Y-42064411D01*
X81670029Y-41993840D01*
X81921927Y-41889500D01*
X81921937Y-41889496D01*
X82158066Y-41753168D01*
X82374382Y-41587181D01*
X82374391Y-41587174D01*
X82567174Y-41394391D01*
X82567181Y-41394382D01*
X82733168Y-41178066D01*
X82871528Y-40938418D01*
X82872883Y-40939200D01*
X82915771Y-40892546D01*
X82983360Y-40874837D01*
X83049792Y-40896481D01*
X83086907Y-40939283D01*
X83088023Y-40938640D01*
X83226415Y-41178343D01*
X83392439Y-41394710D01*
X83392445Y-41394717D01*
X83585282Y-41587554D01*
X83585289Y-41587560D01*
X83801656Y-41753584D01*
X84037840Y-41889945D01*
X84037855Y-41889952D01*
X84109490Y-41919624D01*
X84289810Y-41994315D01*
X84553244Y-42064902D01*
X84823637Y-42100500D01*
X84823644Y-42100500D01*
X85096356Y-42100500D01*
X85096363Y-42100500D01*
X85366756Y-42064902D01*
X85630190Y-41994315D01*
X85882156Y-41889947D01*
X86118344Y-41753584D01*
X86334712Y-41587559D01*
X86527559Y-41394712D01*
X86693584Y-41178344D01*
X86829947Y-40942156D01*
X86829946Y-40942156D01*
X86831977Y-40938640D01*
X86833420Y-40939473D01*
X86876083Y-40893093D01*
X86943676Y-40875405D01*
X87010103Y-40897068D01*
X87046758Y-40939370D01*
X87048023Y-40938640D01*
X87186415Y-41178343D01*
X87352439Y-41394710D01*
X87352445Y-41394717D01*
X87545282Y-41587554D01*
X87545289Y-41587560D01*
X87761656Y-41753584D01*
X87997840Y-41889945D01*
X87997855Y-41889952D01*
X88069490Y-41919624D01*
X88249810Y-41994315D01*
X88513244Y-42064902D01*
X88783637Y-42100500D01*
X88783644Y-42100500D01*
X89056356Y-42100500D01*
X89056363Y-42100500D01*
X89326756Y-42064902D01*
X89590190Y-41994315D01*
X89842156Y-41889947D01*
X90078344Y-41753584D01*
X90294712Y-41587559D01*
X90487559Y-41394712D01*
X90653584Y-41178344D01*
X90789947Y-40942156D01*
X90894315Y-40690190D01*
X90964902Y-40426756D01*
X91000500Y-40156363D01*
X91000500Y-38843637D01*
X90964902Y-38573244D01*
X90905656Y-38352135D01*
X95184500Y-38352135D01*
X95184500Y-40647870D01*
X95184501Y-40647876D01*
X95190908Y-40707483D01*
X95241202Y-40842328D01*
X95241206Y-40842335D01*
X95327452Y-40957544D01*
X95327455Y-40957547D01*
X95442664Y-41043793D01*
X95442671Y-41043797D01*
X95577517Y-41094091D01*
X95577516Y-41094091D01*
X95584444Y-41094835D01*
X95637127Y-41100500D01*
X97932872Y-41100499D01*
X97992483Y-41094091D01*
X98127331Y-41043796D01*
X98242546Y-40957546D01*
X98328796Y-40842331D01*
X98379091Y-40707483D01*
X98385500Y-40647873D01*
X98385499Y-39374038D01*
X98994500Y-39374038D01*
X98994500Y-39625962D01*
X99016129Y-39762520D01*
X99033910Y-39874785D01*
X99111760Y-40114383D01*
X99188504Y-40265000D01*
X99225995Y-40338581D01*
X99226132Y-40338848D01*
X99374201Y-40542649D01*
X99374205Y-40542654D01*
X99552345Y-40720794D01*
X99552350Y-40720798D01*
X99653449Y-40794250D01*
X99756155Y-40868870D01*
X99894519Y-40939370D01*
X99980616Y-40983239D01*
X99980618Y-40983239D01*
X99980621Y-40983241D01*
X100220215Y-41061090D01*
X100469038Y-41100500D01*
X100469039Y-41100500D01*
X100720961Y-41100500D01*
X100720962Y-41100500D01*
X100969785Y-41061090D01*
X101209379Y-40983241D01*
X101433845Y-40868870D01*
X101637656Y-40720793D01*
X101815793Y-40542656D01*
X101963870Y-40338845D01*
X102078241Y-40114379D01*
X102156090Y-39874785D01*
X102195500Y-39625962D01*
X102195500Y-39374071D01*
X102805000Y-39374071D01*
X102805000Y-39625928D01*
X102844397Y-39874669D01*
X102922219Y-40114184D01*
X103036557Y-40338583D01*
X103110748Y-40440697D01*
X103110748Y-40440698D01*
X103881212Y-39670234D01*
X103892482Y-39712292D01*
X103964890Y-39837708D01*
X104067292Y-39940110D01*
X104192708Y-40012518D01*
X104234765Y-40023787D01*
X103464300Y-40794250D01*
X103566416Y-40868442D01*
X103790815Y-40982780D01*
X104030330Y-41060602D01*
X104279072Y-41100000D01*
X104530928Y-41100000D01*
X104779669Y-41060602D01*
X105019184Y-40982780D01*
X105243575Y-40868446D01*
X105243581Y-40868442D01*
X105345697Y-40794250D01*
X105345698Y-40794250D01*
X104575234Y-40023787D01*
X104617292Y-40012518D01*
X104742708Y-39940110D01*
X104845110Y-39837708D01*
X104917518Y-39712292D01*
X104928787Y-39670235D01*
X105699250Y-40440698D01*
X105699250Y-40440697D01*
X105773442Y-40338581D01*
X105773446Y-40338575D01*
X105887780Y-40114184D01*
X105965602Y-39874669D01*
X106005000Y-39625928D01*
X106005000Y-39374071D01*
X106004995Y-39374038D01*
X106614500Y-39374038D01*
X106614500Y-39625962D01*
X106636129Y-39762520D01*
X106653910Y-39874785D01*
X106731760Y-40114383D01*
X106808504Y-40265000D01*
X106845995Y-40338581D01*
X106846132Y-40338848D01*
X106994201Y-40542649D01*
X106994205Y-40542654D01*
X107172345Y-40720794D01*
X107172350Y-40720798D01*
X107273449Y-40794250D01*
X107376155Y-40868870D01*
X107514519Y-40939370D01*
X107600616Y-40983239D01*
X107600618Y-40983239D01*
X107600621Y-40983241D01*
X107840215Y-41061090D01*
X108089038Y-41100500D01*
X108089039Y-41100500D01*
X108340961Y-41100500D01*
X108340962Y-41100500D01*
X108589785Y-41061090D01*
X108829379Y-40983241D01*
X109053845Y-40868870D01*
X109257656Y-40720793D01*
X109435793Y-40542656D01*
X109583870Y-40338845D01*
X109698241Y-40114379D01*
X109776090Y-39874785D01*
X109815500Y-39625962D01*
X109815500Y-39374038D01*
X109776090Y-39125215D01*
X109698241Y-38885621D01*
X109698239Y-38885618D01*
X109698239Y-38885616D01*
X109655086Y-38800924D01*
X109583870Y-38661155D01*
X109564567Y-38634586D01*
X109435798Y-38457350D01*
X109435794Y-38457345D01*
X109257654Y-38279205D01*
X109257649Y-38279201D01*
X109053848Y-38131132D01*
X109053847Y-38131131D01*
X109053845Y-38131130D01*
X108983747Y-38095413D01*
X108829383Y-38016760D01*
X108589785Y-37938910D01*
X108340962Y-37899500D01*
X108089038Y-37899500D01*
X107964626Y-37919205D01*
X107840214Y-37938910D01*
X107600616Y-38016760D01*
X107376151Y-38131132D01*
X107172350Y-38279201D01*
X107172345Y-38279205D01*
X106994205Y-38457345D01*
X106994201Y-38457350D01*
X106846132Y-38661151D01*
X106731760Y-38885616D01*
X106653910Y-39125214D01*
X106636129Y-39237480D01*
X106614500Y-39374038D01*
X106004995Y-39374038D01*
X105965602Y-39125330D01*
X105887780Y-38885815D01*
X105773442Y-38661416D01*
X105699250Y-38559301D01*
X105699250Y-38559300D01*
X104928787Y-39329764D01*
X104917518Y-39287708D01*
X104845110Y-39162292D01*
X104742708Y-39059890D01*
X104617292Y-38987482D01*
X104575232Y-38976212D01*
X105345698Y-38205748D01*
X105243583Y-38131557D01*
X105019184Y-38017219D01*
X104779669Y-37939397D01*
X104530928Y-37900000D01*
X104279072Y-37900000D01*
X104030330Y-37939397D01*
X103790815Y-38017219D01*
X103566413Y-38131559D01*
X103464301Y-38205747D01*
X103464300Y-38205748D01*
X104234765Y-38976212D01*
X104192708Y-38987482D01*
X104067292Y-39059890D01*
X103964890Y-39162292D01*
X103892482Y-39287708D01*
X103881212Y-39329765D01*
X103110748Y-38559300D01*
X103110747Y-38559301D01*
X103036559Y-38661413D01*
X102922219Y-38885815D01*
X102844397Y-39125330D01*
X102805000Y-39374071D01*
X102195500Y-39374071D01*
X102195500Y-39374038D01*
X102156090Y-39125215D01*
X102078241Y-38885621D01*
X102078239Y-38885618D01*
X102078239Y-38885616D01*
X102035086Y-38800924D01*
X101963870Y-38661155D01*
X101944567Y-38634586D01*
X101815798Y-38457350D01*
X101815794Y-38457345D01*
X101637654Y-38279205D01*
X101637649Y-38279201D01*
X101433848Y-38131132D01*
X101433847Y-38131131D01*
X101433845Y-38131130D01*
X101363747Y-38095413D01*
X101209383Y-38016760D01*
X100969785Y-37938910D01*
X100720962Y-37899500D01*
X100469038Y-37899500D01*
X100344626Y-37919205D01*
X100220214Y-37938910D01*
X99980616Y-38016760D01*
X99756151Y-38131132D01*
X99552350Y-38279201D01*
X99552345Y-38279205D01*
X99374205Y-38457345D01*
X99374201Y-38457350D01*
X99226132Y-38661151D01*
X99111760Y-38885616D01*
X99033910Y-39125214D01*
X99016129Y-39237480D01*
X98994500Y-39374038D01*
X98385499Y-39374038D01*
X98385499Y-38352128D01*
X98379091Y-38292517D01*
X98374124Y-38279201D01*
X98328797Y-38157671D01*
X98328793Y-38157664D01*
X98242547Y-38042455D01*
X98242544Y-38042452D01*
X98127335Y-37956206D01*
X98127328Y-37956202D01*
X97992482Y-37905908D01*
X97992483Y-37905908D01*
X97932883Y-37899501D01*
X97932881Y-37899500D01*
X97932873Y-37899500D01*
X97932864Y-37899500D01*
X95637129Y-37899500D01*
X95637123Y-37899501D01*
X95577516Y-37905908D01*
X95442671Y-37956202D01*
X95442664Y-37956206D01*
X95327455Y-38042452D01*
X95327452Y-38042455D01*
X95241206Y-38157664D01*
X95241202Y-38157671D01*
X95190908Y-38292517D01*
X95184501Y-38352116D01*
X95184501Y-38352123D01*
X95184500Y-38352135D01*
X90905656Y-38352135D01*
X90894315Y-38309810D01*
X90820303Y-38131130D01*
X90789952Y-38057855D01*
X90789945Y-38057840D01*
X90653584Y-37821656D01*
X90487560Y-37605289D01*
X90487554Y-37605282D01*
X90294717Y-37412445D01*
X90294710Y-37412439D01*
X90078343Y-37246415D01*
X89842159Y-37110054D01*
X89842144Y-37110047D01*
X89590188Y-37005684D01*
X89326754Y-36935097D01*
X89056372Y-36899501D01*
X89056369Y-36899500D01*
X89056363Y-36899500D01*
X88783637Y-36899500D01*
X88783631Y-36899500D01*
X88783627Y-36899501D01*
X88513245Y-36935097D01*
X88249811Y-37005684D01*
X87997855Y-37110047D01*
X87997840Y-37110054D01*
X87761656Y-37246415D01*
X87545289Y-37412439D01*
X87545282Y-37412445D01*
X87352445Y-37605282D01*
X87352439Y-37605289D01*
X87186415Y-37821656D01*
X87048023Y-38061360D01*
X87046585Y-38060530D01*
X87003885Y-38106926D01*
X86936286Y-38124593D01*
X86869866Y-38102909D01*
X86833234Y-38060634D01*
X86831977Y-38061360D01*
X86693584Y-37821656D01*
X86527560Y-37605289D01*
X86527554Y-37605282D01*
X86334717Y-37412445D01*
X86334710Y-37412439D01*
X86118343Y-37246415D01*
X85882159Y-37110054D01*
X85882144Y-37110047D01*
X85630188Y-37005684D01*
X85366754Y-36935097D01*
X85096372Y-36899501D01*
X85096369Y-36899500D01*
X85096363Y-36899500D01*
X84823637Y-36899500D01*
X84823631Y-36899500D01*
X84823627Y-36899501D01*
X84553245Y-36935097D01*
X84289811Y-37005684D01*
X84037855Y-37110047D01*
X84037840Y-37110054D01*
X83801656Y-37246415D01*
X83585289Y-37412439D01*
X83585282Y-37412445D01*
X83392445Y-37605282D01*
X83392439Y-37605289D01*
X83226415Y-37821656D01*
X83088023Y-38061360D01*
X83086750Y-38060625D01*
X83043571Y-38107512D01*
X82975966Y-38125158D01*
X82909553Y-38103453D01*
X82872707Y-38060901D01*
X82871528Y-38061582D01*
X82733168Y-37821933D01*
X82567181Y-37605617D01*
X82567174Y-37605609D01*
X82374391Y-37412826D01*
X82374382Y-37412818D01*
X82158066Y-37246831D01*
X81921937Y-37110503D01*
X81921927Y-37110499D01*
X81670029Y-37006159D01*
X81406655Y-36935588D01*
X81250000Y-36914963D01*
X81250000Y-38632095D01*
X81088642Y-38600000D01*
X80911358Y-38600000D01*
X80750000Y-38632095D01*
X80750000Y-36914963D01*
X80749999Y-36914963D01*
X80593344Y-36935588D01*
X80329970Y-37006159D01*
X80078072Y-37110499D01*
X80078062Y-37110503D01*
X79841933Y-37246831D01*
X79625617Y-37412818D01*
X79432818Y-37605617D01*
X79342874Y-37722834D01*
X79286446Y-37764036D01*
X79216700Y-37768191D01*
X79155780Y-37733978D01*
X79123028Y-37672261D01*
X79120499Y-37647347D01*
X79120499Y-37599998D01*
X79120498Y-37599981D01*
X79109999Y-37497203D01*
X79109998Y-37497200D01*
X79082039Y-37412826D01*
X79054814Y-37330666D01*
X78962712Y-37181344D01*
X78838656Y-37057288D01*
X78689334Y-36965186D01*
X78522797Y-36910001D01*
X78522795Y-36910000D01*
X78420010Y-36899500D01*
X75659998Y-36899500D01*
X75659981Y-36899501D01*
X75557203Y-36910000D01*
X75557200Y-36910001D01*
X75390668Y-36965185D01*
X75390663Y-36965187D01*
X75241342Y-37057289D01*
X75117289Y-37181342D01*
X75025187Y-37330663D01*
X75025186Y-37330666D01*
X74970001Y-37497203D01*
X74970001Y-37497204D01*
X74970000Y-37497204D01*
X74959500Y-37599983D01*
X67850499Y-37599983D01*
X67850499Y-37327128D01*
X67844091Y-37267517D01*
X67836220Y-37246415D01*
X67793797Y-37132671D01*
X67793793Y-37132664D01*
X67707547Y-37017455D01*
X67707544Y-37017452D01*
X67592335Y-36931206D01*
X67592328Y-36931202D01*
X67457482Y-36880908D01*
X67457483Y-36880908D01*
X67397883Y-36874501D01*
X67397881Y-36874500D01*
X67397873Y-36874500D01*
X67397864Y-36874500D01*
X65602129Y-36874500D01*
X65602123Y-36874501D01*
X65542516Y-36880908D01*
X65407671Y-36931202D01*
X65407664Y-36931206D01*
X65292455Y-37017452D01*
X65292452Y-37017455D01*
X65206206Y-37132664D01*
X65206202Y-37132671D01*
X65155908Y-37267517D01*
X65149501Y-37327116D01*
X65149501Y-37327123D01*
X65149500Y-37327135D01*
X56000500Y-37327135D01*
X56000500Y-34393713D01*
X58149500Y-34393713D01*
X58149500Y-34606286D01*
X58182753Y-34816239D01*
X58248444Y-35018414D01*
X58344951Y-35207820D01*
X58469890Y-35379786D01*
X58620213Y-35530109D01*
X58792179Y-35655048D01*
X58792181Y-35655049D01*
X58792184Y-35655051D01*
X58981588Y-35751557D01*
X59183757Y-35817246D01*
X59393713Y-35850500D01*
X59393714Y-35850500D01*
X59606286Y-35850500D01*
X59606287Y-35850500D01*
X59816243Y-35817246D01*
X60018412Y-35751557D01*
X60207816Y-35655051D01*
X60229789Y-35639086D01*
X60379786Y-35530109D01*
X60379788Y-35530106D01*
X60379792Y-35530104D01*
X60530104Y-35379792D01*
X60530106Y-35379788D01*
X60530109Y-35379786D01*
X60655048Y-35207820D01*
X60655047Y-35207820D01*
X60655051Y-35207816D01*
X60751557Y-35018412D01*
X60817246Y-34816243D01*
X60850500Y-34606287D01*
X60850500Y-34393713D01*
X123849500Y-34393713D01*
X123849500Y-34606286D01*
X123882753Y-34816239D01*
X123948444Y-35018414D01*
X124044951Y-35207820D01*
X124169890Y-35379786D01*
X124320213Y-35530109D01*
X124492179Y-35655048D01*
X124492181Y-35655049D01*
X124492184Y-35655051D01*
X124681588Y-35751557D01*
X124883757Y-35817246D01*
X125093713Y-35850500D01*
X125093714Y-35850500D01*
X125306286Y-35850500D01*
X125306287Y-35850500D01*
X125516243Y-35817246D01*
X125718412Y-35751557D01*
X125907816Y-35655051D01*
X125929789Y-35639086D01*
X126079786Y-35530109D01*
X126079788Y-35530106D01*
X126079792Y-35530104D01*
X126230104Y-35379792D01*
X126230106Y-35379788D01*
X126230109Y-35379786D01*
X126355048Y-35207820D01*
X126355047Y-35207820D01*
X126355051Y-35207816D01*
X126451557Y-35018412D01*
X126517246Y-34816243D01*
X126550500Y-34606287D01*
X126550500Y-34393713D01*
X126517246Y-34183757D01*
X126451557Y-33981588D01*
X126355051Y-33792184D01*
X126355049Y-33792181D01*
X126355048Y-33792179D01*
X126230109Y-33620213D01*
X126079786Y-33469890D01*
X125907820Y-33344951D01*
X125718414Y-33248444D01*
X125718413Y-33248443D01*
X125718412Y-33248443D01*
X125516243Y-33182754D01*
X125516241Y-33182753D01*
X125516240Y-33182753D01*
X125354957Y-33157208D01*
X125306287Y-33149500D01*
X125093713Y-33149500D01*
X125045042Y-33157208D01*
X124883760Y-33182753D01*
X124681585Y-33248444D01*
X124492179Y-33344951D01*
X124320213Y-33469890D01*
X124169890Y-33620213D01*
X124044951Y-33792179D01*
X123948444Y-33981585D01*
X123882753Y-34183760D01*
X123849500Y-34393713D01*
X60850500Y-34393713D01*
X60817246Y-34183757D01*
X60751557Y-33981588D01*
X60655051Y-33792184D01*
X60655049Y-33792181D01*
X60655048Y-33792179D01*
X60530109Y-33620213D01*
X60379786Y-33469890D01*
X60207820Y-33344951D01*
X60018414Y-33248444D01*
X60018413Y-33248443D01*
X60018412Y-33248443D01*
X59816243Y-33182754D01*
X59816241Y-33182753D01*
X59816240Y-33182753D01*
X59654957Y-33157208D01*
X59606287Y-33149500D01*
X59393713Y-33149500D01*
X59345042Y-33157208D01*
X59183760Y-33182753D01*
X58981585Y-33248444D01*
X58792179Y-33344951D01*
X58620213Y-33469890D01*
X58469890Y-33620213D01*
X58344951Y-33792179D01*
X58248444Y-33981585D01*
X58182753Y-34183760D01*
X58149500Y-34393713D01*
X56000500Y-34393713D01*
X56000500Y-31124500D01*
X56020185Y-31057461D01*
X56072989Y-31011706D01*
X56124500Y-31000500D01*
X128375500Y-31000500D01*
X128442539Y-31020185D01*
G37*
%TD.AperFunction*%
%TD*%
M02*
