M48
; DRILL file KiCad 10.0.0 date 2026-08-07T11:18:25
; FORMAT={-:-/ absolute / metric / decimal}
; #@! TF.CreationDate,2026-08-07T11:18:25-05:00
; #@! TF.GenerationSoftware,Kicad,Pcbnew,10.0.0
; #@! TF.FileFunction,MixedPlating,1,2
FMAT,2
METRIC
; #@! TA.AperFunction,Plated,PTH,ViaDrill
T1C0.300
; #@! TA.AperFunction,Plated,PTH,ComponentDrill
T2C1.000
; #@! TA.AperFunction,Plated,PTH,ComponentDrill
T3C1.100
; #@! TA.AperFunction,Plated,PTH,ComponentDrill
T4C1.800
; #@! TA.AperFunction,NonPlated,NPTH,ComponentDrill
T5C2.200
%
G90
G05
T1
X64.47Y-89.22
X64.5Y-69.0
X64.5Y-71.5
X64.5Y-74.0
X64.5Y-76.5
X64.5Y-79.0
X64.5Y-81.5
X64.5Y-86.7
X64.52Y-91.8
X64.52Y-99.33
X64.54Y-84.12
X64.54Y-96.87
X64.55Y-94.29
X64.55Y-101.92
X69.5Y-63.5
X70.5Y-79.0
X71.82Y-104.96
X71.96Y-89.25
X72.0Y-111.5
X72.5Y-97.5
X73.0Y-73.0
X73.49Y-83.6
X73.5Y-63.2
X73.5Y-68.0
X73.5Y-86.5
X74.0Y-94.0
X75.5Y-61.0
X75.5Y-80.5
X75.5Y-105.0
X76.69Y-111.95
X77.5Y-107.5
X77.94Y-68.7
X77.94Y-87.95
X82.94Y-59.7
X82.94Y-79.7
X83.0Y-36.0
X83.0Y-119.0
X83.19Y-100.0
X87.0Y-69.5
X87.94Y-88.2
X88.0Y-107.5
X90.0Y-67.0
X90.03Y-115.62
X91.0Y-79.0
X91.0Y-96.0
X92.4Y-121.24
X92.5Y-52.0
X92.5Y-84.0
X92.5Y-88.5
X92.5Y-100.0
X92.71Y-115.91
X92.72Y-76.06
X92.82Y-92.82
X93.0Y-37.5
X93.0Y-60.0
X93.09Y-107.47
X94.63Y-69.96
X95.0Y-54.5
X95.2Y-67.97
T2
X61.0Y-67.64
X61.0Y-70.18
X61.0Y-72.72
X61.0Y-75.26
X61.0Y-77.8
X61.0Y-80.34
X61.0Y-82.88
X61.0Y-85.42
X61.0Y-87.96
X61.0Y-90.5
X61.0Y-93.04
X61.0Y-95.58
X61.0Y-98.12
X61.0Y-100.66
X61.0Y-103.2
X61.0Y-109.8
X66.5Y-38.225
X66.5Y-40.765
X67.95Y-67.64
X67.95Y-70.18
X67.95Y-72.72
X67.95Y-75.26
X67.95Y-77.8
X67.95Y-80.34
X67.95Y-82.88
X67.95Y-85.42
X67.95Y-87.96
X67.95Y-90.5
X67.95Y-93.04
X67.95Y-95.58
X67.95Y-98.12
X67.95Y-100.66
X67.95Y-103.2
X77.94Y-52.1
X77.94Y-54.64
X77.94Y-57.18
X77.94Y-59.72
X77.94Y-62.26
X77.94Y-64.8
X78.0Y-72.0
X78.0Y-74.54
X78.0Y-77.08
X78.0Y-79.62
X78.0Y-82.16
X78.0Y-84.7
X78.0Y-91.6
X78.0Y-94.14
X78.0Y-96.68
X78.0Y-99.22
X78.0Y-101.76
X78.0Y-104.3
X78.0Y-110.75
X78.0Y-113.29
X78.0Y-115.83
X78.0Y-118.37
X78.0Y-120.91
X78.0Y-123.45
X87.94Y-52.1
X87.94Y-54.64
X87.94Y-57.18
X87.94Y-59.72
X87.94Y-62.26
X87.94Y-64.8
X88.0Y-72.0
X88.0Y-74.54
X88.0Y-77.08
X88.0Y-79.62
X88.0Y-82.16
X88.0Y-84.7
X88.0Y-91.6
X88.0Y-94.14
X88.0Y-96.68
X88.0Y-99.22
X88.0Y-101.76
X88.0Y-104.3
X88.0Y-110.75
X88.0Y-113.29
X88.0Y-115.83
X88.0Y-118.37
X88.0Y-120.91
X88.0Y-123.45
X98.0Y-61.9
X98.0Y-64.44
X98.0Y-66.98
X98.0Y-69.52
X98.0Y-72.06
X98.0Y-74.6
X98.0Y-77.14
X98.0Y-79.68
X98.0Y-82.22
X98.0Y-84.76
X98.0Y-87.3
X98.0Y-89.84
X98.0Y-92.38
X98.0Y-94.92
X98.0Y-97.46
X98.0Y-100.0
X98.0Y-102.54
X98.0Y-105.08
X98.0Y-107.62
X98.0Y-110.16
X98.0Y-112.7
X98.0Y-115.24
X123.4Y-61.9
X123.4Y-64.44
X123.4Y-66.98
X123.4Y-69.52
X123.4Y-72.06
X123.4Y-74.6
X123.4Y-77.14
X123.4Y-79.68
X123.4Y-82.22
X123.4Y-84.76
X123.4Y-87.3
X123.4Y-89.84
X123.4Y-92.38
X123.4Y-94.92
X123.4Y-97.46
X123.4Y-100.0
X123.4Y-102.54
X123.4Y-105.08
X123.4Y-107.62
X123.4Y-110.16
X123.4Y-112.7
X123.4Y-115.24
T3
X96.785Y-39.5
X100.595Y-39.5
X104.405Y-39.5
X108.215Y-39.5
T4
X77.04Y-39.5
X81.0Y-39.5
X84.96Y-39.5
X88.92Y-39.5
T5
X59.5Y-34.5
X59.5Y-126.5
X125.2Y-34.5
X125.25Y-126.5
M30
