%TF.GenerationSoftware,KiCad,Pcbnew,10.0.0*%
%TF.CreationDate,2026-08-07T11:18:25-05:00*%
%TF.ProjectId,ti99-kb-adapter,74693939-2d6b-4622-9d61-646170746572,rev?*%
%TF.SameCoordinates,Original*%
%TF.FileFunction,Soldermask,Bot*%
%TF.FilePolarity,Negative*%
%FSLAX46Y46*%
G04 Gerber Fmt 4.6, Leading zero omitted, Abs format (unit mm)*
G04 Created by KiCad (PCBNEW 10.0.0) date 2026-08-07 11:18:25*
%MOMM*%
%LPD*%
G01*
G04 APERTURE LIST*
G04 Aperture macros list*
%AMRoundRect*
0 Rectangle with rounded corners*
0 $1 Rounding radius*
0 $2 $3 $4 $5 $6 $7 $8 $9 X,Y pos of 4 corners*
0 Add a 4 corners polygon primitive as box body*
4,1,4,$2,$3,$4,$5,$6,$7,$8,$9,$2,$3,0*
0 Add four circle primitives for the rounded corners*
1,1,$1+$1,$2,$3*
1,1,$1+$1,$4,$5*
1,1,$1+$1,$6,$7*
1,1,$1+$1,$8,$9*
0 Add four rect primitives between the rounded corners*
20,1,$1+$1,$2,$3,$4,$5,0*
20,1,$1+$1,$4,$5,$6,$7,0*
20,1,$1+$1,$6,$7,$8,$9,0*
20,1,$1+$1,$8,$9,$2,$3,0*%
G04 Aperture macros list end*
%ADD10R,1.700000X1.700000*%
%ADD11C,1.700000*%
%ADD12RoundRect,0.250000X-1.330000X-1.850000X1.330000X-1.850000X1.330000X1.850000X-1.330000X1.850000X0*%
%ADD13O,3.160000X4.200000*%
%ADD14C,2.200000*%
%ADD15R,2.200000X2.200000*%
G04 APERTURE END LIST*
D10*
%TO.C,J10*%
X67950000Y-67640000D03*
D11*
X67950000Y-70180000D03*
X67950000Y-72720000D03*
X67950000Y-75260000D03*
X67950000Y-77800000D03*
X67950000Y-80340000D03*
X67950000Y-82880000D03*
X67950000Y-85420000D03*
X67950000Y-87960000D03*
X67950000Y-90500000D03*
X67950000Y-93040000D03*
X67950000Y-95580000D03*
X67950000Y-98120000D03*
X67950000Y-100660000D03*
X67950000Y-103200000D03*
%TD*%
D12*
%TO.C,J14*%
X77040000Y-39500000D03*
D13*
X81000000Y-39500000D03*
X84960000Y-39500000D03*
X88920000Y-39500000D03*
%TD*%
D14*
%TO.C,H1*%
X59500000Y-34500000D03*
%TD*%
D10*
%TO.C,J15*%
X61000000Y-109800000D03*
%TD*%
%TO.C,U1*%
X98000000Y-61900000D03*
D11*
X98000000Y-64440000D03*
X98000000Y-66980000D03*
X98000000Y-69520000D03*
X98000000Y-72060000D03*
X98000000Y-74600000D03*
X98000000Y-77140000D03*
X98000000Y-79680000D03*
X98000000Y-82220000D03*
X98000000Y-84760000D03*
X98000000Y-87300000D03*
X98000000Y-89840000D03*
X98000000Y-92380000D03*
X98000000Y-94920000D03*
X98000000Y-97460000D03*
X98000000Y-100000000D03*
X98000000Y-102540000D03*
X98000000Y-105080000D03*
X98000000Y-107620000D03*
X98000000Y-110160000D03*
X98000000Y-112700000D03*
X98000000Y-115240000D03*
X123400000Y-61900000D03*
X123400000Y-64440000D03*
X123400000Y-66980000D03*
X123400000Y-69520000D03*
X123400000Y-72060000D03*
X123400000Y-74600000D03*
X123400000Y-77140000D03*
X123400000Y-79680000D03*
X123400000Y-82220000D03*
X123400000Y-84760000D03*
X123400000Y-87300000D03*
X123400000Y-89840000D03*
X123400000Y-92380000D03*
X123400000Y-94920000D03*
X123400000Y-97460000D03*
X123400000Y-100000000D03*
X123400000Y-102540000D03*
X123400000Y-105080000D03*
X123400000Y-107620000D03*
X123400000Y-110160000D03*
X123400000Y-112700000D03*
X123400000Y-115240000D03*
%TD*%
D14*
%TO.C,H4*%
X125250000Y-126500000D03*
%TD*%
D10*
%TO.C,J3*%
X88000000Y-91600000D03*
D11*
X88000000Y-94140000D03*
X88000000Y-96680000D03*
X88000000Y-99220000D03*
X88000000Y-101760000D03*
X88000000Y-104300000D03*
X78000000Y-91600000D03*
X78000000Y-94140000D03*
X78000000Y-96680000D03*
X78000000Y-99220000D03*
X78000000Y-101760000D03*
X78000000Y-104300000D03*
%TD*%
D10*
%TO.C,J1*%
X87940000Y-52100000D03*
D11*
X87940000Y-54640000D03*
X87940000Y-57180000D03*
X87940000Y-59720000D03*
X87940000Y-62260000D03*
X87940000Y-64800000D03*
X77940000Y-52100000D03*
X77940000Y-54640000D03*
X77940000Y-57180000D03*
X77940000Y-59720000D03*
X77940000Y-62260000D03*
X77940000Y-64800000D03*
%TD*%
D10*
%TO.C,J2*%
X88000000Y-72000000D03*
D11*
X88000000Y-74540000D03*
X88000000Y-77080000D03*
X88000000Y-79620000D03*
X88000000Y-82160000D03*
X88000000Y-84700000D03*
X78000000Y-72000000D03*
X78000000Y-74540000D03*
X78000000Y-77080000D03*
X78000000Y-79620000D03*
X78000000Y-82160000D03*
X78000000Y-84700000D03*
%TD*%
D10*
%TO.C,J9*%
X66500000Y-38225000D03*
D11*
X66500000Y-40765000D03*
%TD*%
D14*
%TO.C,H2*%
X125200000Y-34500000D03*
%TD*%
%TO.C,H3*%
X59500000Y-126500000D03*
%TD*%
D15*
%TO.C,J13*%
X96785000Y-39500000D03*
D14*
X100595000Y-39500000D03*
X104405000Y-39500000D03*
X108215000Y-39500000D03*
%TD*%
D10*
%TO.C,J4*%
X88000000Y-110750000D03*
D11*
X88000000Y-113290000D03*
X88000000Y-115830000D03*
X88000000Y-118370000D03*
X88000000Y-120910000D03*
X88000000Y-123450000D03*
X78000000Y-110750000D03*
X78000000Y-113290000D03*
X78000000Y-115830000D03*
X78000000Y-118370000D03*
X78000000Y-120910000D03*
X78000000Y-123450000D03*
%TD*%
D10*
%TO.C,J20*%
X61000000Y-67640000D03*
D11*
X61000000Y-70180000D03*
X61000000Y-72720000D03*
X61000000Y-75260000D03*
X61000000Y-77800000D03*
X61000000Y-80340000D03*
X61000000Y-82880000D03*
X61000000Y-85420000D03*
X61000000Y-87960000D03*
X61000000Y-90500000D03*
X61000000Y-93040000D03*
X61000000Y-95580000D03*
X61000000Y-98120000D03*
X61000000Y-100660000D03*
X61000000Y-103200000D03*
%TD*%
M02*
