%TF.GenerationSoftware,KiCad,Pcbnew,10.0.0*%
%TF.CreationDate,2026-05-08T23:19:57-05:00*%
%TF.ProjectId,ti99-kb-adapter,74693939-2d6b-4622-9d61-646170746572,rev?*%
%TF.SameCoordinates,Original*%
%TF.FileFunction,Copper,L2,Bot*%
%TF.FilePolarity,Positive*%
%FSLAX46Y46*%
G04 Gerber Fmt 4.6, Leading zero omitted, Abs format (unit mm)*
G04 Created by KiCad (PCBNEW 10.0.0) date 2026-05-08 23:19:57*
%MOMM*%
%LPD*%
G01*
G04 APERTURE LIST*
G04 Aperture macros list*
%AMRoundRect*
0 Rectangle with rounded corners*
0 $1 Rounding radius*
0 $2 $3 $4 $5 $6 $7 $8 $9 X,Y pos of 4 corners*
0 Add a 4 corners polygon primitive as box body*
4,1,4,$2,$3,$4,$5,$6,$7,$8,$9,$2,$3,0*
0 Add four circle primitives for the rounded corners*
1,1,$1+$1,$2,$3*
1,1,$1+$1,$4,$5*
1,1,$1+$1,$6,$7*
1,1,$1+$1,$8,$9*
0 Add four rect primitives between the rounded corners*
20,1,$1+$1,$2,$3,$4,$5,0*
20,1,$1+$1,$4,$5,$6,$7,0*
20,1,$1+$1,$6,$7,$8,$9,0*
20,1,$1+$1,$8,$9,$2,$3,0*%
G04 Aperture macros list end*
%TA.AperFunction,ComponentPad*%
%ADD10C,1.700000*%
%TD*%
%TA.AperFunction,ComponentPad*%
%ADD11R,1.700000X1.700000*%
%TD*%
%TA.AperFunction,ComponentPad*%
%ADD12RoundRect,0.250000X1.330000X1.850000X-1.330000X1.850000X-1.330000X-1.850000X1.330000X-1.850000X0*%
%TD*%
%TA.AperFunction,ComponentPad*%
%ADD13O,3.160000X4.200000*%
%TD*%
%TA.AperFunction,ComponentPad*%
%ADD14R,3.000000X3.000000*%
%TD*%
%TA.AperFunction,ComponentPad*%
%ADD15C,3.000000*%
%TD*%
%TA.AperFunction,Conductor*%
%ADD16C,0.400000*%
%TD*%
G04 APERTURE END LIST*
D10*
%TO.P,J1,12,HV1_12*%
%TO.N,/INT4*%
X79250000Y-48350000D03*
%TO.P,J1,11,HV2_11*%
%TO.N,/INT8*%
X79250000Y-45810000D03*
%TO.P,J1,10,HV_10*%
%TO.N,+5V*%
X79250000Y-43270000D03*
%TO.P,J1,9,GND_9*%
%TO.N,GND*%
X79250000Y-40730000D03*
%TO.P,J1,8,HV3_8*%
%TO.N,/INT6*%
X79250000Y-38190000D03*
%TO.P,J1,7,HV4_7*%
%TO.N,/INT5*%
X79250000Y-35650000D03*
%TO.P,J1,6,LV1_6*%
%TO.N,/INT4_LV*%
X89250000Y-48350000D03*
%TO.P,J1,5,LV2_5*%
%TO.N,/INT8_LV*%
X89250000Y-45810000D03*
%TO.P,J1,4,LV_4*%
%TO.N,+3V3*%
X89250000Y-43270000D03*
%TO.P,J1,3,GND_3*%
%TO.N,GND*%
X89250000Y-40730000D03*
%TO.P,J1,2,LV3_2*%
%TO.N,/INT6_LV*%
X89250000Y-38190000D03*
D11*
%TO.P,J1,1,LV4_1*%
%TO.N,/INT5_LV*%
X89250000Y-35650000D03*
%TD*%
D10*
%TO.P,J20,15,Pin_15_15*%
%TO.N,/2Y3*%
X60750000Y-89820000D03*
%TO.P,J20,14,Pin_14_14*%
%TO.N,/2Y2*%
X60750000Y-87280000D03*
%TO.P,J20,13,Pin_13_13*%
%TO.N,/2Y1*%
X60750000Y-84740000D03*
%TO.P,J20,12,Pin_12_12*%
%TO.N,/2Y0*%
X60750000Y-82200000D03*
%TO.P,J20,11,Pin_11_11*%
%TO.N,/INT10*%
X60750000Y-79660000D03*
%TO.P,J20,10,Pin_10_10*%
%TO.N,/INT9*%
X60750000Y-77120000D03*
%TO.P,J20,9,Pin_9_9*%
%TO.N,/1Y0*%
X60750000Y-74580000D03*
%TO.P,J20,8,Pin_8_8*%
%TO.N,/1Y1*%
X60750000Y-72040000D03*
%TO.P,J20,7,Pin_7_7*%
%TO.N,/INT7*%
X60750000Y-69500000D03*
%TO.P,J20,6,Pin_6_6*%
%TO.N,/ALPHA_LOCK*%
X60750000Y-66960000D03*
%TO.P,J20,5,Pin_5_5*%
%TO.N,/INT3*%
X60750000Y-64420000D03*
%TO.P,J20,4,Pin_4_4*%
%TO.N,/INT4*%
X60750000Y-61880000D03*
%TO.P,J20,3,Pin_3_3*%
%TO.N,/INT8*%
X60750000Y-59340000D03*
%TO.P,J20,2,Pin_2_2*%
%TO.N,/INT6*%
X60750000Y-56800000D03*
D11*
%TO.P,J20,1,Pin_1_1*%
%TO.N,/INT5*%
X60750000Y-54260000D03*
%TD*%
%TO.P,U1,1,3V3_1*%
%TO.N,+3V3*%
X99300000Y-43580000D03*
D10*
%TO.P,U1,2,3V3_2*%
X99300000Y-46120000D03*
%TO.P,U1,3,EN_3*%
%TO.N,unconnected-(U1A-EN-Pad3)*%
X99300000Y-48660000D03*
%TO.P,U1,4,IO4_4*%
%TO.N,/INT5_LV*%
X99300000Y-51200000D03*
%TO.P,U1,5,IO5_5*%
%TO.N,/INT6_LV*%
X99300000Y-53740000D03*
%TO.P,U1,6,IO6_6*%
%TO.N,/INT8_LV*%
X99300000Y-56280000D03*
%TO.P,U1,7,IO7_7*%
%TO.N,/INT4_LV*%
X99300000Y-58820000D03*
%TO.P,U1,8,IO15_8*%
%TO.N,/INT3_LV*%
X99300000Y-61360000D03*
%TO.P,U1,9,IO16_9*%
%TO.N,/INT7_LV*%
X99300000Y-63900000D03*
%TO.P,U1,10,IO17_10*%
%TO.N,/1Y1_LV*%
X99300000Y-66440000D03*
%TO.P,U1,11,IO18_11*%
%TO.N,/1Y0_LV*%
X99300000Y-68980000D03*
%TO.P,U1,12,IO8_12*%
%TO.N,unconnected-(U1A-IO8-Pad12)*%
X99300000Y-71520000D03*
%TO.P,U1,13,IO3_13*%
%TO.N,unconnected-(U1A-IO3-Pad13)*%
X99300000Y-74060000D03*
%TO.P,U1,14,IO46_14*%
%TO.N,unconnected-(U1A-IO46-Pad14)*%
X99300000Y-76600000D03*
%TO.P,U1,15,IO9_15*%
%TO.N,/INT9_LV*%
X99300000Y-79140000D03*
%TO.P,U1,16,IO10_16*%
%TO.N,/INT10_LV*%
X99300000Y-81680000D03*
%TO.P,U1,17,IO11_17*%
%TO.N,/2Y0_LV*%
X99300000Y-84220000D03*
%TO.P,U1,18,IO12_18*%
%TO.N,/2Y1_LV*%
X99300000Y-86760000D03*
%TO.P,U1,19,IO13_19*%
%TO.N,/2Y2_LV*%
X99300000Y-89300000D03*
%TO.P,U1,20,IO14_20*%
%TO.N,/2Y3_LV*%
X99300000Y-91840000D03*
%TO.P,U1,21,5V_21*%
%TO.N,+5V*%
X99300000Y-94380000D03*
%TO.P,U1,22,GND_22*%
%TO.N,GND*%
X99300000Y-96920000D03*
%TO.P,U1,23,GND_23*%
X124700000Y-43580000D03*
%TO.P,U1,24,TXD0_24*%
%TO.N,unconnected-(U1B-TXD0-Pad24)*%
X124700000Y-46120000D03*
%TO.P,U1,25,RXD0_25*%
%TO.N,unconnected-(U1B-RXD0-Pad25)*%
X124700000Y-48660000D03*
%TO.P,U1,26,IO1_26*%
%TO.N,unconnected-(U1B-IO1-Pad26)*%
X124700000Y-51200000D03*
%TO.P,U1,27,IO2_27*%
%TO.N,unconnected-(U1B-IO2-Pad27)*%
X124700000Y-53740000D03*
%TO.P,U1,28,IO42_28*%
%TO.N,unconnected-(U1B-IO42-Pad28)*%
X124700000Y-56280000D03*
%TO.P,U1,29,IO41_29*%
%TO.N,unconnected-(U1B-IO41-Pad29)*%
X124700000Y-58820000D03*
%TO.P,U1,30,IO40_30*%
%TO.N,unconnected-(U1B-IO40-Pad30)*%
X124700000Y-61360000D03*
%TO.P,U1,31,IO39_31*%
%TO.N,unconnected-(U1B-IO39-Pad31)*%
X124700000Y-63900000D03*
%TO.P,U1,32,IO38_32*%
%TO.N,unconnected-(U1B-IO38-Pad32)*%
X124700000Y-66440000D03*
%TO.P,U1,33,IO37_33*%
%TO.N,unconnected-(U1B-IO37-Pad33)*%
X124700000Y-68980000D03*
%TO.P,U1,34,IO36_34*%
%TO.N,unconnected-(U1B-IO36-Pad34)*%
X124700000Y-71520000D03*
%TO.P,U1,35,IO35_35*%
%TO.N,unconnected-(U1B-IO35-Pad35)*%
X124700000Y-74060000D03*
%TO.P,U1,36,IO0_36*%
%TO.N,unconnected-(U1B-IO0-Pad36)*%
X124700000Y-76600000D03*
%TO.P,U1,37,IO45_37*%
%TO.N,unconnected-(U1B-IO45-Pad37)*%
X124700000Y-79140000D03*
%TO.P,U1,38,IO48_38*%
%TO.N,unconnected-(U1B-IO48-Pad38)*%
X124700000Y-81680000D03*
%TO.P,U1,39,IO47_39*%
%TO.N,unconnected-(U1B-IO47-Pad39)*%
X124700000Y-84220000D03*
%TO.P,U1,40,IO21_40*%
%TO.N,unconnected-(U1B-IO21-Pad40)*%
X124700000Y-86760000D03*
%TO.P,U1,41,IO20_41*%
%TO.N,unconnected-(U1B-IO20-Pad41)*%
X124700000Y-89300000D03*
%TO.P,U1,42,IO19_42*%
%TO.N,unconnected-(U1B-IO19-Pad42)*%
X124700000Y-91840000D03*
%TO.P,U1,43,GND_43*%
%TO.N,GND*%
X124700000Y-94380000D03*
%TO.P,U1,44,GND_44*%
X124700000Y-96920000D03*
%TD*%
D11*
%TO.P,J10,1,Pin_1_1*%
%TO.N,/INT5*%
X68000000Y-54260000D03*
D10*
%TO.P,J10,2,Pin_2_2*%
%TO.N,/INT6*%
X68000000Y-56800000D03*
%TO.P,J10,3,Pin_3_3*%
%TO.N,/INT8*%
X68000000Y-59340000D03*
%TO.P,J10,4,Pin_4_4*%
%TO.N,/INT4*%
X68000000Y-61880000D03*
%TO.P,J10,5,Pin_5_5*%
%TO.N,/INT3*%
X68000000Y-64420000D03*
%TO.P,J10,6,Pin_6_6*%
%TO.N,/ALPHA_LOCK*%
X68000000Y-66960000D03*
%TO.P,J10,7,Pin_7_7*%
%TO.N,/INT7*%
X68000000Y-69500000D03*
%TO.P,J10,8,Pin_8_8*%
%TO.N,/1Y1*%
X68000000Y-72040000D03*
%TO.P,J10,9,Pin_9_9*%
%TO.N,/1Y0*%
X68000000Y-74580000D03*
%TO.P,J10,10,Pin_10_10*%
%TO.N,/INT9*%
X68000000Y-77120000D03*
%TO.P,J10,11,Pin_11_11*%
%TO.N,/INT10*%
X68000000Y-79660000D03*
%TO.P,J10,12,Pin_12_12*%
%TO.N,/2Y0*%
X68000000Y-82200000D03*
%TO.P,J10,13,Pin_13_13*%
%TO.N,/2Y1*%
X68000000Y-84740000D03*
%TO.P,J10,14,Pin_14_14*%
%TO.N,/2Y2*%
X68000000Y-87280000D03*
%TO.P,J10,15,Pin_15_15*%
%TO.N,/2Y3*%
X68000000Y-89820000D03*
%TD*%
D12*
%TO.P,J14,1,Pin_1_1*%
%TO.N,/PSU_-5V*%
X76750000Y-119250000D03*
D13*
%TO.P,J14,2,Pin_2_2*%
%TO.N,/PSU_+12V*%
X72790000Y-119250000D03*
%TO.P,J14,3,Pin_3_3*%
%TO.N,GND*%
X68830000Y-119250000D03*
%TO.P,J14,4,Pin_4_4*%
%TO.N,+5V*%
X64870000Y-119250000D03*
%TD*%
D11*
%TO.P,J3,1,LV4_1*%
%TO.N,/INT9_LV*%
X89310000Y-75150000D03*
D10*
%TO.P,J3,2,LV3_2*%
%TO.N,/INT10_LV*%
X89310000Y-77690000D03*
%TO.P,J3,3,GND_3*%
%TO.N,GND*%
X89310000Y-80230000D03*
%TO.P,J3,4,LV_4*%
%TO.N,+3V3*%
X89310000Y-82770000D03*
%TO.P,J3,5,LV2_5*%
%TO.N,/2Y0_LV*%
X89310000Y-85310000D03*
%TO.P,J3,6,LV1_6*%
%TO.N,/2Y1_LV*%
X89310000Y-87850000D03*
%TO.P,J3,7,HV4_7*%
%TO.N,/INT9*%
X79310000Y-75150000D03*
%TO.P,J3,8,HV3_8*%
%TO.N,/INT10*%
X79310000Y-77690000D03*
%TO.P,J3,9,GND_9*%
%TO.N,GND*%
X79310000Y-80230000D03*
%TO.P,J3,10,HV_10*%
%TO.N,+5V*%
X79310000Y-82770000D03*
%TO.P,J3,11,HV2_11*%
%TO.N,/2Y0*%
X79310000Y-85310000D03*
%TO.P,J3,12,HV1_12*%
%TO.N,/2Y1*%
X79310000Y-87850000D03*
%TD*%
D11*
%TO.P,J2,1,LV4_1*%
%TO.N,/INT3_LV*%
X89310000Y-55550000D03*
D10*
%TO.P,J2,2,LV3_2*%
%TO.N,/INT7_LV*%
X89310000Y-58090000D03*
%TO.P,J2,3,GND_3*%
%TO.N,GND*%
X89310000Y-60630000D03*
%TO.P,J2,4,LV_4*%
%TO.N,+3V3*%
X89310000Y-63170000D03*
%TO.P,J2,5,LV2_5*%
%TO.N,/1Y1_LV*%
X89310000Y-65710000D03*
%TO.P,J2,6,LV1_6*%
%TO.N,/1Y0_LV*%
X89310000Y-68250000D03*
%TO.P,J2,7,HV4_7*%
%TO.N,/INT3*%
X79310000Y-55550000D03*
%TO.P,J2,8,HV3_8*%
%TO.N,/INT7*%
X79310000Y-58090000D03*
%TO.P,J2,9,GND_9*%
%TO.N,GND*%
X79310000Y-60630000D03*
%TO.P,J2,10,HV_10*%
%TO.N,+5V*%
X79310000Y-63170000D03*
%TO.P,J2,11,HV2_11*%
%TO.N,/1Y1*%
X79310000Y-65710000D03*
%TO.P,J2,12,HV1_12*%
%TO.N,/1Y0*%
X79310000Y-68250000D03*
%TD*%
D11*
%TO.P,J9,1,Pin_1_1*%
%TO.N,+5V*%
X106750000Y-119000000D03*
D10*
%TO.P,J9,2,Pin_2_2*%
%TO.N,GND*%
X109290000Y-119000000D03*
%TD*%
D14*
%TO.P,J13,1,Pin_1_1*%
%TO.N,/PSU_-5V*%
X94835000Y-119000000D03*
D15*
%TO.P,J13,2,Pin_2_2*%
%TO.N,/PSU_+12V*%
X91025000Y-119000000D03*
%TO.P,J13,3,Pin_3_3*%
%TO.N,GND*%
X87215000Y-119000000D03*
%TO.P,J13,4,Pin_4_4*%
%TO.N,+5V*%
X83405000Y-119000000D03*
%TD*%
D11*
%TO.P,J4,1,LV4_1*%
%TO.N,/2Y2_LV*%
X89310000Y-94300000D03*
D10*
%TO.P,J4,2,LV3_2*%
%TO.N,/2Y3_LV*%
X89310000Y-96840000D03*
%TO.P,J4,3,GND_3*%
%TO.N,GND*%
X89310000Y-99380000D03*
%TO.P,J4,4,LV_4*%
%TO.N,+3V3*%
X89310000Y-101920000D03*
%TO.P,J4,5,LV2_5*%
%TO.N,unconnected-(J4A-LV2-Pad5)*%
X89310000Y-104460000D03*
%TO.P,J4,6,LV1_6*%
%TO.N,unconnected-(J4A-LV1-Pad6)*%
X89310000Y-107000000D03*
%TO.P,J4,7,HV4_7*%
%TO.N,/2Y2*%
X79310000Y-94300000D03*
%TO.P,J4,8,HV3_8*%
%TO.N,/2Y3*%
X79310000Y-96840000D03*
%TO.P,J4,9,GND_9*%
%TO.N,GND*%
X79310000Y-99380000D03*
%TO.P,J4,10,HV_10*%
%TO.N,+5V*%
X79310000Y-101920000D03*
%TO.P,J4,11,HV2_11*%
%TO.N,unconnected-(J4B-HV2-Pad11)*%
X79310000Y-104460000D03*
%TO.P,J4,12,HV1_12*%
%TO.N,unconnected-(J4B-HV1-Pad12)*%
X79310000Y-107000000D03*
%TD*%
%TO.N,/PSU_-5V*%
D16*
X79750000Y-122250000D02*
X76750000Y-119250000D01*
X91585000Y-122250000D02*
X79750000Y-122250000D01*
X94835000Y-119000000D02*
X91585000Y-122250000D01*
%TD*%
%TA.AperFunction,Conductor*%
%TO.N,GND*%
G36*
X128442539Y-31020185D02*
G01*
X128488294Y-31072989D01*
X128499500Y-31124500D01*
X128499500Y-129625500D01*
X128479815Y-129692539D01*
X128427011Y-129738294D01*
X128375500Y-129749500D01*
X56124500Y-129749500D01*
X56057461Y-129729815D01*
X56011706Y-129677011D01*
X56000500Y-129625500D01*
X56000500Y-126385258D01*
X57499500Y-126385258D01*
X57499500Y-126614741D01*
X57524446Y-126804215D01*
X57529452Y-126842238D01*
X57529453Y-126842240D01*
X57588842Y-127063887D01*
X57676650Y-127275876D01*
X57676657Y-127275890D01*
X57791392Y-127474617D01*
X57931081Y-127656661D01*
X57931089Y-127656670D01*
X58093330Y-127818911D01*
X58093338Y-127818918D01*
X58275382Y-127958607D01*
X58275385Y-127958608D01*
X58275388Y-127958611D01*
X58474112Y-128073344D01*
X58474117Y-128073346D01*
X58474123Y-128073349D01*
X58565480Y-128111190D01*
X58686113Y-128161158D01*
X58907762Y-128220548D01*
X59135266Y-128250500D01*
X59135273Y-128250500D01*
X59364727Y-128250500D01*
X59364734Y-128250500D01*
X59592238Y-128220548D01*
X59813887Y-128161158D01*
X60025888Y-128073344D01*
X60224612Y-127958611D01*
X60406661Y-127818919D01*
X60406665Y-127818914D01*
X60406670Y-127818911D01*
X60568911Y-127656670D01*
X60568914Y-127656665D01*
X60568919Y-127656661D01*
X60708611Y-127474612D01*
X60823344Y-127275888D01*
X60911158Y-127063887D01*
X60970548Y-126842238D01*
X61000500Y-126614734D01*
X61000500Y-126385266D01*
X61000499Y-126385258D01*
X123499500Y-126385258D01*
X123499500Y-126614741D01*
X123524446Y-126804215D01*
X123529452Y-126842238D01*
X123529453Y-126842240D01*
X123588842Y-127063887D01*
X123676650Y-127275876D01*
X123676657Y-127275890D01*
X123791392Y-127474617D01*
X123931081Y-127656661D01*
X123931089Y-127656670D01*
X124093330Y-127818911D01*
X124093338Y-127818918D01*
X124275382Y-127958607D01*
X124275385Y-127958608D01*
X124275388Y-127958611D01*
X124474112Y-128073344D01*
X124474117Y-128073346D01*
X124474123Y-128073349D01*
X124565480Y-128111190D01*
X124686113Y-128161158D01*
X124907762Y-128220548D01*
X125135266Y-128250500D01*
X125135273Y-128250500D01*
X125364727Y-128250500D01*
X125364734Y-128250500D01*
X125592238Y-128220548D01*
X125813887Y-128161158D01*
X126025888Y-128073344D01*
X126224612Y-127958611D01*
X126406661Y-127818919D01*
X126406665Y-127818914D01*
X126406670Y-127818911D01*
X126568911Y-127656670D01*
X126568914Y-127656665D01*
X126568919Y-127656661D01*
X126708611Y-127474612D01*
X126823344Y-127275888D01*
X126911158Y-127063887D01*
X126970548Y-126842238D01*
X127000500Y-126614734D01*
X127000500Y-126385266D01*
X126970548Y-126157762D01*
X126911158Y-125936113D01*
X126823344Y-125724112D01*
X126708611Y-125525388D01*
X126708608Y-125525385D01*
X126708607Y-125525382D01*
X126568918Y-125343338D01*
X126568911Y-125343330D01*
X126406670Y-125181089D01*
X126406661Y-125181081D01*
X126224617Y-125041392D01*
X126025890Y-124926657D01*
X126025876Y-124926650D01*
X125813887Y-124838842D01*
X125592238Y-124779452D01*
X125554215Y-124774446D01*
X125364741Y-124749500D01*
X125364734Y-124749500D01*
X125135266Y-124749500D01*
X125135258Y-124749500D01*
X124918715Y-124778009D01*
X124907762Y-124779452D01*
X124814076Y-124804554D01*
X124686112Y-124838842D01*
X124474123Y-124926650D01*
X124474109Y-124926657D01*
X124275382Y-125041392D01*
X124093338Y-125181081D01*
X123931081Y-125343338D01*
X123791392Y-125525382D01*
X123676657Y-125724109D01*
X123676650Y-125724123D01*
X123588842Y-125936112D01*
X123529453Y-126157759D01*
X123529451Y-126157770D01*
X123499500Y-126385258D01*
X61000499Y-126385258D01*
X60970548Y-126157762D01*
X60911158Y-125936113D01*
X60823344Y-125724112D01*
X60708611Y-125525388D01*
X60708608Y-125525385D01*
X60708607Y-125525382D01*
X60568918Y-125343338D01*
X60568911Y-125343330D01*
X60406670Y-125181089D01*
X60406661Y-125181081D01*
X60224617Y-125041392D01*
X60025890Y-124926657D01*
X60025876Y-124926650D01*
X59813887Y-124838842D01*
X59592238Y-124779452D01*
X59554215Y-124774446D01*
X59364741Y-124749500D01*
X59364734Y-124749500D01*
X59135266Y-124749500D01*
X59135258Y-124749500D01*
X58918715Y-124778009D01*
X58907762Y-124779452D01*
X58814076Y-124804554D01*
X58686112Y-124838842D01*
X58474123Y-124926650D01*
X58474109Y-124926657D01*
X58275382Y-125041392D01*
X58093338Y-125181081D01*
X57931081Y-125343338D01*
X57791392Y-125525382D01*
X57676657Y-125724109D01*
X57676650Y-125724123D01*
X57588842Y-125936112D01*
X57529453Y-126157759D01*
X57529451Y-126157770D01*
X57499500Y-126385258D01*
X56000500Y-126385258D01*
X56000500Y-118613306D01*
X63089500Y-118613306D01*
X63089500Y-119886693D01*
X63089501Y-119886709D01*
X63119610Y-120115414D01*
X63119965Y-120118104D01*
X63124253Y-120134107D01*
X63180375Y-120343555D01*
X63269690Y-120559181D01*
X63269695Y-120559192D01*
X63386387Y-120761307D01*
X63386398Y-120761323D01*
X63528475Y-120946482D01*
X63528481Y-120946489D01*
X63693510Y-121111518D01*
X63693517Y-121111524D01*
X63825370Y-121212698D01*
X63878685Y-121253608D01*
X63878692Y-121253612D01*
X64080807Y-121370304D01*
X64080812Y-121370306D01*
X64080815Y-121370308D01*
X64296449Y-121459626D01*
X64521896Y-121520035D01*
X64753300Y-121550500D01*
X64753307Y-121550500D01*
X64986693Y-121550500D01*
X64986700Y-121550500D01*
X65218104Y-121520035D01*
X65443551Y-121459626D01*
X65659185Y-121370308D01*
X65861315Y-121253608D01*
X66046484Y-121111523D01*
X66211523Y-120946484D01*
X66353608Y-120761315D01*
X66470308Y-120559185D01*
X66559626Y-120343551D01*
X66575192Y-120285456D01*
X66611555Y-120225798D01*
X66674401Y-120195268D01*
X66743777Y-120203562D01*
X66797656Y-120248047D01*
X66814741Y-120285457D01*
X66856159Y-120440029D01*
X66960499Y-120691927D01*
X66960503Y-120691937D01*
X67096831Y-120928066D01*
X67262818Y-121144382D01*
X67262826Y-121144391D01*
X67455609Y-121337174D01*
X67455617Y-121337181D01*
X67671933Y-121503168D01*
X67908062Y-121639496D01*
X67908072Y-121639500D01*
X68159970Y-121743840D01*
X68423344Y-121814411D01*
X68580000Y-121835034D01*
X68580000Y-120117904D01*
X68741358Y-120150000D01*
X68918642Y-120150000D01*
X69080000Y-120117904D01*
X69080000Y-121835033D01*
X69236655Y-121814411D01*
X69500029Y-121743840D01*
X69751927Y-121639500D01*
X69751937Y-121639496D01*
X69988066Y-121503168D01*
X70204382Y-121337181D01*
X70204391Y-121337174D01*
X70397174Y-121144391D01*
X70397181Y-121144382D01*
X70563168Y-120928066D01*
X70699496Y-120691937D01*
X70699500Y-120691927D01*
X70803840Y-120440029D01*
X70845258Y-120285457D01*
X70881623Y-120225797D01*
X70944470Y-120195268D01*
X71013846Y-120203563D01*
X71067723Y-120248048D01*
X71084807Y-120285454D01*
X71098055Y-120334896D01*
X71100375Y-120343555D01*
X71189690Y-120559181D01*
X71189695Y-120559192D01*
X71306387Y-120761307D01*
X71306398Y-120761323D01*
X71448475Y-120946482D01*
X71448481Y-120946489D01*
X71613510Y-121111518D01*
X71613517Y-121111524D01*
X71745370Y-121212698D01*
X71798685Y-121253608D01*
X71798692Y-121253612D01*
X72000807Y-121370304D01*
X72000812Y-121370306D01*
X72000815Y-121370308D01*
X72216449Y-121459626D01*
X72441896Y-121520035D01*
X72673300Y-121550500D01*
X72673307Y-121550500D01*
X72906693Y-121550500D01*
X72906700Y-121550500D01*
X73138104Y-121520035D01*
X73363551Y-121459626D01*
X73579185Y-121370308D01*
X73781315Y-121253608D01*
X73966484Y-121111523D01*
X74131523Y-120946484D01*
X74273608Y-120761315D01*
X74390308Y-120559185D01*
X74479626Y-120343551D01*
X74540035Y-120118104D01*
X74570500Y-119886700D01*
X74570500Y-118613300D01*
X74540035Y-118381896D01*
X74479626Y-118156449D01*
X74390308Y-117940815D01*
X74390306Y-117940812D01*
X74390304Y-117940807D01*
X74273612Y-117738692D01*
X74273608Y-117738685D01*
X74205558Y-117650000D01*
X74131524Y-117553517D01*
X74131518Y-117553510D01*
X73966489Y-117388481D01*
X73966482Y-117388475D01*
X73910775Y-117345730D01*
X74969500Y-117345730D01*
X74969500Y-121154269D01*
X74972353Y-121184699D01*
X74972353Y-121184701D01*
X75017206Y-121312880D01*
X75017207Y-121312882D01*
X75097850Y-121422150D01*
X75207118Y-121502793D01*
X75248591Y-121517305D01*
X75335299Y-121547646D01*
X75365730Y-121550500D01*
X75365734Y-121550500D01*
X78134270Y-121550500D01*
X78164699Y-121547646D01*
X78164701Y-121547646D01*
X78217473Y-121529179D01*
X78292882Y-121502793D01*
X78292886Y-121502789D01*
X78301098Y-121498451D01*
X78302234Y-121500602D01*
X78355219Y-121481245D01*
X78423390Y-121496556D01*
X78450913Y-121517305D01*
X79425179Y-122491571D01*
X79425189Y-122491582D01*
X79429519Y-122495912D01*
X79429520Y-122495913D01*
X79504087Y-122570480D01*
X79595413Y-122623207D01*
X79697273Y-122650501D01*
X79697275Y-122650501D01*
X79810323Y-122650501D01*
X79810339Y-122650500D01*
X91637725Y-122650500D01*
X91637727Y-122650500D01*
X91739588Y-122623207D01*
X91830913Y-122570480D01*
X93664574Y-120736819D01*
X93725897Y-120703334D01*
X93752255Y-120700500D01*
X96354750Y-120700500D01*
X96354751Y-120700499D01*
X96369568Y-120697552D01*
X96413229Y-120688868D01*
X96413229Y-120688867D01*
X96413231Y-120688867D01*
X96479552Y-120644552D01*
X96523867Y-120578231D01*
X96523867Y-120578229D01*
X96523868Y-120578229D01*
X96535499Y-120519752D01*
X96535500Y-120519750D01*
X96535500Y-118130247D01*
X105699500Y-118130247D01*
X105699500Y-119869752D01*
X105711131Y-119928229D01*
X105711132Y-119928230D01*
X105755447Y-119994552D01*
X105821769Y-120038867D01*
X105821770Y-120038868D01*
X105880247Y-120050499D01*
X105880250Y-120050500D01*
X105880252Y-120050500D01*
X107619750Y-120050500D01*
X107619751Y-120050499D01*
X107634568Y-120047552D01*
X107678229Y-120038868D01*
X107678229Y-120038867D01*
X107678231Y-120038867D01*
X107744552Y-119994552D01*
X107788867Y-119928231D01*
X107788867Y-119928229D01*
X107788868Y-119928229D01*
X107800499Y-119869752D01*
X107800500Y-119869750D01*
X107800500Y-119566048D01*
X107820185Y-119499009D01*
X107872989Y-119453254D01*
X107942147Y-119443310D01*
X108005703Y-119472335D01*
X108035938Y-119514264D01*
X108036694Y-119513879D01*
X108135375Y-119707550D01*
X108174728Y-119761716D01*
X108807037Y-119129408D01*
X108824075Y-119192993D01*
X108889901Y-119307007D01*
X108982993Y-119400099D01*
X109097007Y-119465925D01*
X109160590Y-119482962D01*
X108528282Y-120115269D01*
X108528282Y-120115270D01*
X108582449Y-120154624D01*
X108771782Y-120251095D01*
X108973870Y-120316757D01*
X109183754Y-120350000D01*
X109396246Y-120350000D01*
X109606127Y-120316757D01*
X109606130Y-120316757D01*
X109808217Y-120251095D01*
X109997554Y-120154622D01*
X110051716Y-120115270D01*
X110051717Y-120115270D01*
X109419408Y-119482962D01*
X109482993Y-119465925D01*
X109597007Y-119400099D01*
X109690099Y-119307007D01*
X109755925Y-119192993D01*
X109772962Y-119129408D01*
X110405270Y-119761717D01*
X110405270Y-119761716D01*
X110444622Y-119707554D01*
X110541095Y-119518217D01*
X110606757Y-119316130D01*
X110606757Y-119316127D01*
X110640000Y-119106246D01*
X110640000Y-118893753D01*
X110606757Y-118683872D01*
X110606757Y-118683869D01*
X110541095Y-118481782D01*
X110444624Y-118292449D01*
X110405270Y-118238282D01*
X110405269Y-118238282D01*
X109772962Y-118870590D01*
X109755925Y-118807007D01*
X109690099Y-118692993D01*
X109597007Y-118599901D01*
X109482993Y-118534075D01*
X109419409Y-118517037D01*
X110051716Y-117884728D01*
X109997550Y-117845375D01*
X109808217Y-117748904D01*
X109606129Y-117683242D01*
X109396246Y-117650000D01*
X109183754Y-117650000D01*
X108973872Y-117683242D01*
X108973869Y-117683242D01*
X108771782Y-117748904D01*
X108582439Y-117845380D01*
X108528282Y-117884727D01*
X108528282Y-117884728D01*
X109160591Y-118517037D01*
X109097007Y-118534075D01*
X108982993Y-118599901D01*
X108889901Y-118692993D01*
X108824075Y-118807007D01*
X108807037Y-118870591D01*
X108174728Y-118238282D01*
X108174727Y-118238282D01*
X108135380Y-118292439D01*
X108036694Y-118486121D01*
X108035678Y-118485603D01*
X107995212Y-118535813D01*
X107928916Y-118557872D01*
X107861218Y-118540588D01*
X107813612Y-118489447D01*
X107800500Y-118433951D01*
X107800500Y-118130249D01*
X107800499Y-118130247D01*
X107788868Y-118071770D01*
X107788867Y-118071769D01*
X107744552Y-118005447D01*
X107678230Y-117961132D01*
X107678229Y-117961131D01*
X107619752Y-117949500D01*
X107619748Y-117949500D01*
X105880252Y-117949500D01*
X105880247Y-117949500D01*
X105821770Y-117961131D01*
X105821769Y-117961132D01*
X105755447Y-118005447D01*
X105711132Y-118071769D01*
X105711131Y-118071770D01*
X105699500Y-118130247D01*
X96535500Y-118130247D01*
X96535500Y-117480249D01*
X96535499Y-117480247D01*
X96523868Y-117421770D01*
X96523867Y-117421769D01*
X96479552Y-117355447D01*
X96413230Y-117311132D01*
X96413229Y-117311131D01*
X96354752Y-117299500D01*
X96354748Y-117299500D01*
X93315252Y-117299500D01*
X93315247Y-117299500D01*
X93256770Y-117311131D01*
X93256769Y-117311132D01*
X93190447Y-117355447D01*
X93146132Y-117421769D01*
X93146131Y-117421770D01*
X93134500Y-117480247D01*
X93134500Y-120082745D01*
X93114815Y-120149784D01*
X93098181Y-120170426D01*
X91455426Y-121813181D01*
X91394103Y-121846666D01*
X91367745Y-121849500D01*
X79967254Y-121849500D01*
X79900215Y-121829815D01*
X79879573Y-121813181D01*
X78566819Y-120500426D01*
X78533334Y-120439103D01*
X78530500Y-120412745D01*
X78530500Y-118888549D01*
X81704500Y-118888549D01*
X81704500Y-119111450D01*
X81704501Y-119111466D01*
X81733594Y-119332452D01*
X81733595Y-119332457D01*
X81733596Y-119332463D01*
X81791289Y-119547777D01*
X81791290Y-119547780D01*
X81791293Y-119547790D01*
X81844528Y-119676310D01*
X81876595Y-119753726D01*
X81988052Y-119946774D01*
X81988057Y-119946780D01*
X81988058Y-119946782D01*
X82123751Y-120123622D01*
X82123757Y-120123629D01*
X82281370Y-120281242D01*
X82281377Y-120281248D01*
X82286865Y-120285459D01*
X82458226Y-120416948D01*
X82651274Y-120528405D01*
X82857219Y-120613710D01*
X83072537Y-120671404D01*
X83293543Y-120700500D01*
X83293550Y-120700500D01*
X83516450Y-120700500D01*
X83516457Y-120700500D01*
X83737463Y-120671404D01*
X83952781Y-120613710D01*
X84158726Y-120528405D01*
X84351774Y-120416948D01*
X84528624Y-120281247D01*
X84686247Y-120123624D01*
X84821948Y-119946774D01*
X84933405Y-119753726D01*
X85018710Y-119547781D01*
X85035193Y-119486261D01*
X85071556Y-119426604D01*
X85134402Y-119396074D01*
X85203778Y-119404368D01*
X85257656Y-119448853D01*
X85274742Y-119486263D01*
X85317076Y-119644257D01*
X85417404Y-119886471D01*
X85417409Y-119886482D01*
X85548488Y-120113516D01*
X85548494Y-120113524D01*
X85635080Y-120226365D01*
X86352425Y-119509019D01*
X86438249Y-119637463D01*
X86577537Y-119776751D01*
X86705978Y-119862573D01*
X85988633Y-120579917D01*
X85988633Y-120579918D01*
X86101475Y-120666505D01*
X86101483Y-120666511D01*
X86328517Y-120797590D01*
X86328528Y-120797595D01*
X86570744Y-120897924D01*
X86823979Y-120965777D01*
X86823990Y-120965779D01*
X87083905Y-120999999D01*
X87083920Y-121000000D01*
X87346080Y-121000000D01*
X87346094Y-120999999D01*
X87606009Y-120965779D01*
X87606020Y-120965777D01*
X87859255Y-120897924D01*
X88101471Y-120797595D01*
X88101482Y-120797590D01*
X88328516Y-120666511D01*
X88328534Y-120666499D01*
X88441365Y-120579919D01*
X88441365Y-120579917D01*
X87724020Y-119862573D01*
X87852463Y-119776751D01*
X87991751Y-119637463D01*
X88077573Y-119509021D01*
X88794917Y-120226365D01*
X88794919Y-120226365D01*
X88881499Y-120113534D01*
X88881511Y-120113516D01*
X89012590Y-119886482D01*
X89012595Y-119886471D01*
X89112924Y-119644255D01*
X89155257Y-119486264D01*
X89191622Y-119426604D01*
X89254468Y-119396074D01*
X89323844Y-119404368D01*
X89377722Y-119448853D01*
X89394806Y-119486262D01*
X89411289Y-119547777D01*
X89411290Y-119547780D01*
X89411293Y-119547790D01*
X89464528Y-119676310D01*
X89496595Y-119753726D01*
X89608052Y-119946774D01*
X89608057Y-119946780D01*
X89608058Y-119946782D01*
X89743751Y-120123622D01*
X89743757Y-120123629D01*
X89901370Y-120281242D01*
X89901377Y-120281248D01*
X89906865Y-120285459D01*
X90078226Y-120416948D01*
X90271274Y-120528405D01*
X90477219Y-120613710D01*
X90692537Y-120671404D01*
X90913543Y-120700500D01*
X90913550Y-120700500D01*
X91136450Y-120700500D01*
X91136457Y-120700500D01*
X91357463Y-120671404D01*
X91572781Y-120613710D01*
X91778726Y-120528405D01*
X91971774Y-120416948D01*
X92148624Y-120281247D01*
X92306247Y-120123624D01*
X92441948Y-119946774D01*
X92553405Y-119753726D01*
X92638710Y-119547781D01*
X92696404Y-119332463D01*
X92725500Y-119111457D01*
X92725500Y-118888543D01*
X92696404Y-118667537D01*
X92638710Y-118452219D01*
X92553405Y-118246274D01*
X92441948Y-118053226D01*
X92371282Y-117961132D01*
X92306248Y-117876377D01*
X92306242Y-117876370D01*
X92148629Y-117718757D01*
X92148622Y-117718751D01*
X91971782Y-117583058D01*
X91971780Y-117583057D01*
X91971774Y-117583052D01*
X91778726Y-117471595D01*
X91778722Y-117471593D01*
X91572790Y-117386293D01*
X91572783Y-117386291D01*
X91572781Y-117386290D01*
X91357463Y-117328596D01*
X91357457Y-117328595D01*
X91357452Y-117328594D01*
X91136466Y-117299501D01*
X91136463Y-117299500D01*
X91136457Y-117299500D01*
X90913543Y-117299500D01*
X90913537Y-117299500D01*
X90913533Y-117299501D01*
X90692547Y-117328594D01*
X90692540Y-117328595D01*
X90692537Y-117328596D01*
X90591723Y-117355609D01*
X90477219Y-117386290D01*
X90477209Y-117386293D01*
X90271277Y-117471593D01*
X90271273Y-117471595D01*
X90078226Y-117583052D01*
X90078217Y-117583058D01*
X89901377Y-117718751D01*
X89901370Y-117718757D01*
X89743757Y-117876370D01*
X89743751Y-117876377D01*
X89608058Y-118053217D01*
X89608052Y-118053226D01*
X89496595Y-118246273D01*
X89496593Y-118246277D01*
X89411293Y-118452209D01*
X89411291Y-118452216D01*
X89411290Y-118452219D01*
X89394808Y-118513734D01*
X89394807Y-118513736D01*
X89358442Y-118573396D01*
X89295595Y-118603925D01*
X89226219Y-118595630D01*
X89172341Y-118551145D01*
X89155257Y-118513735D01*
X89112924Y-118355744D01*
X89012595Y-118113528D01*
X89012590Y-118113517D01*
X88881511Y-117886483D01*
X88881505Y-117886475D01*
X88794918Y-117773633D01*
X88794917Y-117773633D01*
X88077572Y-118490978D01*
X87991751Y-118362537D01*
X87852463Y-118223249D01*
X87724019Y-118137425D01*
X88441365Y-117420080D01*
X88328524Y-117333494D01*
X88328516Y-117333488D01*
X88101482Y-117202409D01*
X88101471Y-117202404D01*
X87859255Y-117102075D01*
X87606020Y-117034222D01*
X87606009Y-117034220D01*
X87346094Y-117000000D01*
X87083905Y-117000000D01*
X86823990Y-117034220D01*
X86823979Y-117034222D01*
X86570744Y-117102075D01*
X86328528Y-117202404D01*
X86328517Y-117202409D01*
X86101471Y-117333496D01*
X85988633Y-117420079D01*
X85988633Y-117420080D01*
X86705979Y-118137426D01*
X86577537Y-118223249D01*
X86438249Y-118362537D01*
X86352426Y-118490979D01*
X85635080Y-117773633D01*
X85635079Y-117773633D01*
X85548496Y-117886471D01*
X85417409Y-118113517D01*
X85417404Y-118113528D01*
X85317076Y-118355742D01*
X85274742Y-118513736D01*
X85238377Y-118573396D01*
X85175530Y-118603925D01*
X85106154Y-118595630D01*
X85052276Y-118551145D01*
X85035193Y-118513736D01*
X85018710Y-118452219D01*
X84933405Y-118246274D01*
X84821948Y-118053226D01*
X84751282Y-117961132D01*
X84686248Y-117876377D01*
X84686242Y-117876370D01*
X84528629Y-117718757D01*
X84528622Y-117718751D01*
X84351782Y-117583058D01*
X84351780Y-117583056D01*
X84351774Y-117583052D01*
X84351769Y-117583049D01*
X84351766Y-117583047D01*
X84338555Y-117575420D01*
X84158726Y-117471595D01*
X84158722Y-117471593D01*
X83952790Y-117386293D01*
X83952783Y-117386291D01*
X83952781Y-117386290D01*
X83737463Y-117328596D01*
X83737457Y-117328595D01*
X83737452Y-117328594D01*
X83516466Y-117299501D01*
X83516463Y-117299500D01*
X83516457Y-117299500D01*
X83293543Y-117299500D01*
X83293537Y-117299500D01*
X83293533Y-117299501D01*
X83072547Y-117328594D01*
X83072540Y-117328595D01*
X83072537Y-117328596D01*
X82971723Y-117355609D01*
X82857219Y-117386290D01*
X82857209Y-117386293D01*
X82651277Y-117471593D01*
X82651273Y-117471595D01*
X82458226Y-117583052D01*
X82458217Y-117583058D01*
X82281377Y-117718751D01*
X82281370Y-117718757D01*
X82123757Y-117876370D01*
X82123751Y-117876377D01*
X81988058Y-118053217D01*
X81988052Y-118053226D01*
X81876595Y-118246273D01*
X81876593Y-118246277D01*
X81791293Y-118452209D01*
X81791291Y-118452216D01*
X81791290Y-118452219D01*
X81748132Y-118613290D01*
X81733597Y-118667534D01*
X81733594Y-118667547D01*
X81704501Y-118888533D01*
X81704500Y-118888549D01*
X78530500Y-118888549D01*
X78530500Y-117345730D01*
X78527646Y-117315300D01*
X78527646Y-117315298D01*
X78494006Y-117219163D01*
X78482793Y-117187118D01*
X78402150Y-117077850D01*
X78292882Y-116997207D01*
X78292880Y-116997206D01*
X78164700Y-116952353D01*
X78134270Y-116949500D01*
X78134266Y-116949500D01*
X75365734Y-116949500D01*
X75365730Y-116949500D01*
X75335300Y-116952353D01*
X75335298Y-116952353D01*
X75207119Y-116997206D01*
X75207117Y-116997207D01*
X75097850Y-117077850D01*
X75017207Y-117187117D01*
X75017206Y-117187119D01*
X74972353Y-117315298D01*
X74972353Y-117315300D01*
X74969500Y-117345730D01*
X73910775Y-117345730D01*
X73781323Y-117246398D01*
X73781321Y-117246396D01*
X73781315Y-117246392D01*
X73781310Y-117246389D01*
X73781307Y-117246387D01*
X73579192Y-117129695D01*
X73579181Y-117129690D01*
X73363555Y-117040375D01*
X73202451Y-116997207D01*
X73138104Y-116979965D01*
X73138103Y-116979964D01*
X73138100Y-116979964D01*
X72906709Y-116949501D01*
X72906706Y-116949500D01*
X72906700Y-116949500D01*
X72673300Y-116949500D01*
X72673294Y-116949500D01*
X72673290Y-116949501D01*
X72441899Y-116979964D01*
X72216444Y-117040375D01*
X72000818Y-117129690D01*
X72000807Y-117129695D01*
X71798692Y-117246387D01*
X71798676Y-117246398D01*
X71613517Y-117388475D01*
X71613510Y-117388481D01*
X71448481Y-117553510D01*
X71448475Y-117553517D01*
X71306398Y-117738676D01*
X71306387Y-117738692D01*
X71189695Y-117940807D01*
X71189690Y-117940818D01*
X71100375Y-118156444D01*
X71100374Y-118156449D01*
X71084809Y-118214540D01*
X71084808Y-118214542D01*
X71048442Y-118274202D01*
X70985595Y-118304731D01*
X70916220Y-118296436D01*
X70862342Y-118251950D01*
X70845258Y-118214542D01*
X70803840Y-118059970D01*
X70699500Y-117808072D01*
X70699496Y-117808062D01*
X70563168Y-117571933D01*
X70397181Y-117355617D01*
X70397174Y-117355609D01*
X70204391Y-117162826D01*
X70204382Y-117162818D01*
X69988066Y-116996831D01*
X69751937Y-116860503D01*
X69751927Y-116860499D01*
X69500029Y-116756159D01*
X69236655Y-116685588D01*
X69080000Y-116664963D01*
X69080000Y-118382095D01*
X68918642Y-118350000D01*
X68741358Y-118350000D01*
X68580000Y-118382095D01*
X68580000Y-116664963D01*
X68579999Y-116664963D01*
X68423344Y-116685588D01*
X68159970Y-116756159D01*
X67908072Y-116860499D01*
X67908062Y-116860503D01*
X67671933Y-116996831D01*
X67455617Y-117162818D01*
X67262818Y-117355617D01*
X67096831Y-117571933D01*
X66960503Y-117808062D01*
X66960499Y-117808072D01*
X66856159Y-118059970D01*
X66814741Y-118214542D01*
X66778375Y-118274203D01*
X66715528Y-118304731D01*
X66646153Y-118296436D01*
X66592275Y-118251950D01*
X66575192Y-118214542D01*
X66559626Y-118156449D01*
X66470308Y-117940815D01*
X66470306Y-117940812D01*
X66470304Y-117940807D01*
X66353612Y-117738692D01*
X66353608Y-117738685D01*
X66285558Y-117650000D01*
X66211524Y-117553517D01*
X66211518Y-117553510D01*
X66046489Y-117388481D01*
X66046482Y-117388475D01*
X65861323Y-117246398D01*
X65861321Y-117246396D01*
X65861315Y-117246392D01*
X65861310Y-117246389D01*
X65861307Y-117246387D01*
X65659192Y-117129695D01*
X65659181Y-117129690D01*
X65443555Y-117040375D01*
X65282451Y-116997207D01*
X65218104Y-116979965D01*
X65218103Y-116979964D01*
X65218100Y-116979964D01*
X64986709Y-116949501D01*
X64986706Y-116949500D01*
X64986700Y-116949500D01*
X64753300Y-116949500D01*
X64753294Y-116949500D01*
X64753290Y-116949501D01*
X64521899Y-116979964D01*
X64296444Y-117040375D01*
X64080818Y-117129690D01*
X64080807Y-117129695D01*
X63878692Y-117246387D01*
X63878676Y-117246398D01*
X63693517Y-117388475D01*
X63693510Y-117388481D01*
X63528481Y-117553510D01*
X63528475Y-117553517D01*
X63386398Y-117738676D01*
X63386387Y-117738692D01*
X63269695Y-117940807D01*
X63269690Y-117940818D01*
X63180375Y-118156444D01*
X63119964Y-118381899D01*
X63089501Y-118613290D01*
X63089500Y-118613306D01*
X56000500Y-118613306D01*
X56000500Y-106896530D01*
X78259500Y-106896530D01*
X78259500Y-107103469D01*
X78299868Y-107306412D01*
X78299870Y-107306420D01*
X78379058Y-107497596D01*
X78494024Y-107669657D01*
X78640342Y-107815975D01*
X78640345Y-107815977D01*
X78812402Y-107930941D01*
X79003580Y-108010130D01*
X79206530Y-108050499D01*
X79206534Y-108050500D01*
X79206535Y-108050500D01*
X79413466Y-108050500D01*
X79413467Y-108050499D01*
X79616420Y-108010130D01*
X79807598Y-107930941D01*
X79979655Y-107815977D01*
X80125977Y-107669655D01*
X80240941Y-107497598D01*
X80320130Y-107306420D01*
X80360500Y-107103465D01*
X80360500Y-106896535D01*
X80360499Y-106896530D01*
X88259500Y-106896530D01*
X88259500Y-107103469D01*
X88299868Y-107306412D01*
X88299870Y-107306420D01*
X88379058Y-107497596D01*
X88494024Y-107669657D01*
X88640342Y-107815975D01*
X88640345Y-107815977D01*
X88812402Y-107930941D01*
X89003580Y-108010130D01*
X89206530Y-108050499D01*
X89206534Y-108050500D01*
X89206535Y-108050500D01*
X89413466Y-108050500D01*
X89413467Y-108050499D01*
X89616420Y-108010130D01*
X89807598Y-107930941D01*
X89979655Y-107815977D01*
X90125977Y-107669655D01*
X90240941Y-107497598D01*
X90320130Y-107306420D01*
X90360500Y-107103465D01*
X90360500Y-106896535D01*
X90320130Y-106693580D01*
X90240941Y-106502402D01*
X90125977Y-106330345D01*
X90125975Y-106330342D01*
X89979657Y-106184024D01*
X89893626Y-106126541D01*
X89807598Y-106069059D01*
X89616420Y-105989870D01*
X89616412Y-105989868D01*
X89413469Y-105949500D01*
X89413465Y-105949500D01*
X89206535Y-105949500D01*
X89206530Y-105949500D01*
X89003587Y-105989868D01*
X89003579Y-105989870D01*
X88812403Y-106069058D01*
X88640342Y-106184024D01*
X88494024Y-106330342D01*
X88379058Y-106502403D01*
X88299870Y-106693579D01*
X88299868Y-106693587D01*
X88259500Y-106896530D01*
X80360499Y-106896530D01*
X80320130Y-106693580D01*
X80240941Y-106502402D01*
X80125977Y-106330345D01*
X80125975Y-106330342D01*
X79979657Y-106184024D01*
X79893626Y-106126541D01*
X79807598Y-106069059D01*
X79616420Y-105989870D01*
X79616412Y-105989868D01*
X79413469Y-105949500D01*
X79413465Y-105949500D01*
X79206535Y-105949500D01*
X79206530Y-105949500D01*
X79003587Y-105989868D01*
X79003579Y-105989870D01*
X78812403Y-106069058D01*
X78640342Y-106184024D01*
X78494024Y-106330342D01*
X78379058Y-106502403D01*
X78299870Y-106693579D01*
X78299868Y-106693587D01*
X78259500Y-106896530D01*
X56000500Y-106896530D01*
X56000500Y-104356530D01*
X78259500Y-104356530D01*
X78259500Y-104563469D01*
X78299868Y-104766412D01*
X78299870Y-104766420D01*
X78379058Y-104957596D01*
X78494024Y-105129657D01*
X78640342Y-105275975D01*
X78640345Y-105275977D01*
X78812402Y-105390941D01*
X79003580Y-105470130D01*
X79206530Y-105510499D01*
X79206534Y-105510500D01*
X79206535Y-105510500D01*
X79413466Y-105510500D01*
X79413467Y-105510499D01*
X79616420Y-105470130D01*
X79807598Y-105390941D01*
X79979655Y-105275977D01*
X80125977Y-105129655D01*
X80240941Y-104957598D01*
X80320130Y-104766420D01*
X80360500Y-104563465D01*
X80360500Y-104356535D01*
X80360499Y-104356530D01*
X88259500Y-104356530D01*
X88259500Y-104563469D01*
X88299868Y-104766412D01*
X88299870Y-104766420D01*
X88379058Y-104957596D01*
X88494024Y-105129657D01*
X88640342Y-105275975D01*
X88640345Y-105275977D01*
X88812402Y-105390941D01*
X89003580Y-105470130D01*
X89206530Y-105510499D01*
X89206534Y-105510500D01*
X89206535Y-105510500D01*
X89413466Y-105510500D01*
X89413467Y-105510499D01*
X89616420Y-105470130D01*
X89807598Y-105390941D01*
X89979655Y-105275977D01*
X90125977Y-105129655D01*
X90240941Y-104957598D01*
X90320130Y-104766420D01*
X90360500Y-104563465D01*
X90360500Y-104356535D01*
X90320130Y-104153580D01*
X90240941Y-103962402D01*
X90125977Y-103790345D01*
X90125975Y-103790342D01*
X89979657Y-103644024D01*
X89893626Y-103586541D01*
X89807598Y-103529059D01*
X89616420Y-103449870D01*
X89616412Y-103449868D01*
X89413469Y-103409500D01*
X89413465Y-103409500D01*
X89206535Y-103409500D01*
X89206530Y-103409500D01*
X89003587Y-103449868D01*
X89003579Y-103449870D01*
X88812403Y-103529058D01*
X88640342Y-103644024D01*
X88494024Y-103790342D01*
X88379058Y-103962403D01*
X88299870Y-104153579D01*
X88299868Y-104153587D01*
X88259500Y-104356530D01*
X80360499Y-104356530D01*
X80320130Y-104153580D01*
X80240941Y-103962402D01*
X80125977Y-103790345D01*
X80125975Y-103790342D01*
X79979657Y-103644024D01*
X79893626Y-103586541D01*
X79807598Y-103529059D01*
X79616420Y-103449870D01*
X79616412Y-103449868D01*
X79413469Y-103409500D01*
X79413465Y-103409500D01*
X79206535Y-103409500D01*
X79206530Y-103409500D01*
X79003587Y-103449868D01*
X79003579Y-103449870D01*
X78812403Y-103529058D01*
X78640342Y-103644024D01*
X78494024Y-103790342D01*
X78379058Y-103962403D01*
X78299870Y-104153579D01*
X78299868Y-104153587D01*
X78259500Y-104356530D01*
X56000500Y-104356530D01*
X56000500Y-99273753D01*
X77960000Y-99273753D01*
X77960000Y-99486246D01*
X77993242Y-99696127D01*
X77993242Y-99696130D01*
X78058904Y-99898217D01*
X78155375Y-100087550D01*
X78194728Y-100141716D01*
X78827037Y-99509408D01*
X78844075Y-99572993D01*
X78909901Y-99687007D01*
X79002993Y-99780099D01*
X79117007Y-99845925D01*
X79180590Y-99862962D01*
X78548282Y-100495269D01*
X78548282Y-100495270D01*
X78602449Y-100534624D01*
X78791782Y-100631095D01*
X78967973Y-100688343D01*
X79025648Y-100727780D01*
X79052847Y-100792139D01*
X79040932Y-100860985D01*
X78993688Y-100912461D01*
X78977108Y-100920835D01*
X78812403Y-100989057D01*
X78640342Y-101104024D01*
X78494024Y-101250342D01*
X78379058Y-101422403D01*
X78299870Y-101613579D01*
X78299868Y-101613587D01*
X78259500Y-101816530D01*
X78259500Y-102023469D01*
X78299868Y-102226412D01*
X78299870Y-102226420D01*
X78379058Y-102417596D01*
X78494024Y-102589657D01*
X78640342Y-102735975D01*
X78640345Y-102735977D01*
X78812402Y-102850941D01*
X79003580Y-102930130D01*
X79206530Y-102970499D01*
X79206534Y-102970500D01*
X79206535Y-102970500D01*
X79413466Y-102970500D01*
X79413467Y-102970499D01*
X79616420Y-102930130D01*
X79807598Y-102850941D01*
X79979655Y-102735977D01*
X80125977Y-102589655D01*
X80240941Y-102417598D01*
X80320130Y-102226420D01*
X80360500Y-102023465D01*
X80360500Y-101816535D01*
X80320130Y-101613580D01*
X80240941Y-101422402D01*
X80125977Y-101250345D01*
X80125975Y-101250342D01*
X79979657Y-101104024D01*
X79893626Y-101046541D01*
X79807598Y-100989059D01*
X79807593Y-100989057D01*
X79745891Y-100963499D01*
X79642890Y-100920834D01*
X79588488Y-100876994D01*
X79566423Y-100810700D01*
X79583702Y-100743001D01*
X79634839Y-100695390D01*
X79652026Y-100688343D01*
X79828217Y-100631095D01*
X80017554Y-100534622D01*
X80071716Y-100495270D01*
X80071717Y-100495270D01*
X79439408Y-99862962D01*
X79502993Y-99845925D01*
X79617007Y-99780099D01*
X79710099Y-99687007D01*
X79775925Y-99572993D01*
X79792962Y-99509408D01*
X80425270Y-100141717D01*
X80425270Y-100141716D01*
X80464622Y-100087554D01*
X80561095Y-99898217D01*
X80626757Y-99696130D01*
X80626757Y-99696127D01*
X80660000Y-99486246D01*
X80660000Y-99273753D01*
X87960000Y-99273753D01*
X87960000Y-99486246D01*
X87993242Y-99696127D01*
X87993242Y-99696130D01*
X88058904Y-99898217D01*
X88155375Y-100087550D01*
X88194728Y-100141716D01*
X88827037Y-99509408D01*
X88844075Y-99572993D01*
X88909901Y-99687007D01*
X89002993Y-99780099D01*
X89117007Y-99845925D01*
X89180590Y-99862962D01*
X88548282Y-100495269D01*
X88548282Y-100495270D01*
X88602449Y-100534624D01*
X88791782Y-100631095D01*
X88967973Y-100688343D01*
X89025648Y-100727780D01*
X89052847Y-100792139D01*
X89040932Y-100860985D01*
X88993688Y-100912461D01*
X88977108Y-100920835D01*
X88812403Y-100989057D01*
X88640342Y-101104024D01*
X88494024Y-101250342D01*
X88379058Y-101422403D01*
X88299870Y-101613579D01*
X88299868Y-101613587D01*
X88259500Y-101816530D01*
X88259500Y-102023469D01*
X88299868Y-102226412D01*
X88299870Y-102226420D01*
X88379058Y-102417596D01*
X88494024Y-102589657D01*
X88640342Y-102735975D01*
X88640345Y-102735977D01*
X88812402Y-102850941D01*
X89003580Y-102930130D01*
X89206530Y-102970499D01*
X89206534Y-102970500D01*
X89206535Y-102970500D01*
X89413466Y-102970500D01*
X89413467Y-102970499D01*
X89616420Y-102930130D01*
X89807598Y-102850941D01*
X89979655Y-102735977D01*
X90125977Y-102589655D01*
X90240941Y-102417598D01*
X90320130Y-102226420D01*
X90360500Y-102023465D01*
X90360500Y-101816535D01*
X90320130Y-101613580D01*
X90240941Y-101422402D01*
X90125977Y-101250345D01*
X90125975Y-101250342D01*
X89979657Y-101104024D01*
X89893626Y-101046541D01*
X89807598Y-100989059D01*
X89807593Y-100989057D01*
X89745891Y-100963499D01*
X89642890Y-100920834D01*
X89588488Y-100876994D01*
X89566423Y-100810700D01*
X89583702Y-100743001D01*
X89634839Y-100695390D01*
X89652026Y-100688343D01*
X89828217Y-100631095D01*
X90017554Y-100534622D01*
X90071716Y-100495270D01*
X90071717Y-100495270D01*
X89439408Y-99862962D01*
X89502993Y-99845925D01*
X89617007Y-99780099D01*
X89710099Y-99687007D01*
X89775925Y-99572993D01*
X89792962Y-99509408D01*
X90425270Y-100141717D01*
X90425270Y-100141716D01*
X90464622Y-100087554D01*
X90561095Y-99898217D01*
X90626757Y-99696130D01*
X90626757Y-99696127D01*
X90660000Y-99486246D01*
X90660000Y-99273753D01*
X90626757Y-99063872D01*
X90626757Y-99063869D01*
X90561095Y-98861782D01*
X90464624Y-98672449D01*
X90425270Y-98618282D01*
X90425269Y-98618282D01*
X89792962Y-99250590D01*
X89775925Y-99187007D01*
X89710099Y-99072993D01*
X89617007Y-98979901D01*
X89502993Y-98914075D01*
X89439409Y-98897037D01*
X90071716Y-98264728D01*
X90017550Y-98225375D01*
X89828216Y-98128904D01*
X89757547Y-98105942D01*
X89652026Y-98071656D01*
X89594350Y-98032218D01*
X89567152Y-97967860D01*
X89579067Y-97899013D01*
X89626311Y-97847538D01*
X89642882Y-97839168D01*
X89807598Y-97770941D01*
X89979655Y-97655977D01*
X90125977Y-97509655D01*
X90240941Y-97337598D01*
X90320130Y-97146420D01*
X90360500Y-96943465D01*
X90360500Y-96813753D01*
X97950000Y-96813753D01*
X97950000Y-97026246D01*
X97983242Y-97236127D01*
X97983242Y-97236130D01*
X98048904Y-97438217D01*
X98145375Y-97627550D01*
X98184728Y-97681716D01*
X98817037Y-97049408D01*
X98834075Y-97112993D01*
X98899901Y-97227007D01*
X98992993Y-97320099D01*
X99107007Y-97385925D01*
X99170590Y-97402962D01*
X98538282Y-98035269D01*
X98538282Y-98035270D01*
X98592449Y-98074624D01*
X98781782Y-98171095D01*
X98983870Y-98236757D01*
X99193754Y-98270000D01*
X99406246Y-98270000D01*
X99616127Y-98236757D01*
X99616130Y-98236757D01*
X99818217Y-98171095D01*
X100007554Y-98074622D01*
X100061716Y-98035270D01*
X100061717Y-98035270D01*
X99429408Y-97402962D01*
X99492993Y-97385925D01*
X99607007Y-97320099D01*
X99700099Y-97227007D01*
X99765925Y-97112993D01*
X99782962Y-97049408D01*
X100415270Y-97681717D01*
X100415270Y-97681716D01*
X100454622Y-97627554D01*
X100551095Y-97438217D01*
X100616757Y-97236130D01*
X100616757Y-97236127D01*
X100650000Y-97026246D01*
X100650000Y-96813753D01*
X100616757Y-96603872D01*
X100616757Y-96603869D01*
X100551095Y-96401782D01*
X100454624Y-96212449D01*
X100415270Y-96158282D01*
X100415269Y-96158282D01*
X99782962Y-96790590D01*
X99765925Y-96727007D01*
X99700099Y-96612993D01*
X99607007Y-96519901D01*
X99492993Y-96454075D01*
X99429409Y-96437037D01*
X100061716Y-95804728D01*
X100007550Y-95765375D01*
X99818216Y-95668904D01*
X99642026Y-95611656D01*
X99584350Y-95572218D01*
X99557152Y-95507860D01*
X99569067Y-95439013D01*
X99616311Y-95387538D01*
X99632882Y-95379168D01*
X99797598Y-95310941D01*
X99969655Y-95195977D01*
X100115977Y-95049655D01*
X100230941Y-94877598D01*
X100310130Y-94686420D01*
X100350500Y-94483465D01*
X100350500Y-94276535D01*
X100350500Y-94276532D01*
X100350499Y-94276531D01*
X100350499Y-94276530D01*
X100349947Y-94273753D01*
X123350000Y-94273753D01*
X123350000Y-94486246D01*
X123383242Y-94696127D01*
X123383242Y-94696130D01*
X123448904Y-94898217D01*
X123545375Y-95087550D01*
X123584728Y-95141716D01*
X124217037Y-94509408D01*
X124234075Y-94572993D01*
X124299901Y-94687007D01*
X124392993Y-94780099D01*
X124507007Y-94845925D01*
X124570590Y-94862962D01*
X123938282Y-95495269D01*
X123938282Y-95495270D01*
X123992452Y-95534626D01*
X124002048Y-95539516D01*
X124052844Y-95587491D01*
X124069638Y-95655312D01*
X124047100Y-95721447D01*
X124002051Y-95760483D01*
X123992440Y-95765380D01*
X123938282Y-95804727D01*
X123938282Y-95804728D01*
X124570591Y-96437037D01*
X124507007Y-96454075D01*
X124392993Y-96519901D01*
X124299901Y-96612993D01*
X124234075Y-96727007D01*
X124217037Y-96790591D01*
X123584728Y-96158282D01*
X123584727Y-96158282D01*
X123545380Y-96212439D01*
X123448904Y-96401782D01*
X123383242Y-96603869D01*
X123383242Y-96603872D01*
X123350000Y-96813753D01*
X123350000Y-97026246D01*
X123383242Y-97236127D01*
X123383242Y-97236130D01*
X123448904Y-97438217D01*
X123545375Y-97627550D01*
X123584728Y-97681716D01*
X124217037Y-97049408D01*
X124234075Y-97112993D01*
X124299901Y-97227007D01*
X124392993Y-97320099D01*
X124507007Y-97385925D01*
X124570590Y-97402962D01*
X123938282Y-98035269D01*
X123938282Y-98035270D01*
X123992449Y-98074624D01*
X124181782Y-98171095D01*
X124383870Y-98236757D01*
X124593754Y-98270000D01*
X124806246Y-98270000D01*
X125016127Y-98236757D01*
X125016130Y-98236757D01*
X125218217Y-98171095D01*
X125407554Y-98074622D01*
X125461716Y-98035270D01*
X125461717Y-98035270D01*
X124829408Y-97402962D01*
X124892993Y-97385925D01*
X125007007Y-97320099D01*
X125100099Y-97227007D01*
X125165925Y-97112993D01*
X125182962Y-97049409D01*
X125815270Y-97681717D01*
X125815270Y-97681716D01*
X125854622Y-97627554D01*
X125951095Y-97438217D01*
X126016757Y-97236130D01*
X126016757Y-97236127D01*
X126050000Y-97026246D01*
X126050000Y-96813753D01*
X126016757Y-96603872D01*
X126016757Y-96603869D01*
X125951095Y-96401782D01*
X125854624Y-96212449D01*
X125815270Y-96158282D01*
X125815269Y-96158282D01*
X125182962Y-96790590D01*
X125165925Y-96727007D01*
X125100099Y-96612993D01*
X125007007Y-96519901D01*
X124892993Y-96454075D01*
X124829409Y-96437037D01*
X125461716Y-95804728D01*
X125407550Y-95765375D01*
X125397954Y-95760486D01*
X125347157Y-95712512D01*
X125330361Y-95644692D01*
X125352897Y-95578556D01*
X125397954Y-95539514D01*
X125407554Y-95534622D01*
X125461716Y-95495270D01*
X125461717Y-95495270D01*
X124829408Y-94862962D01*
X124892993Y-94845925D01*
X125007007Y-94780099D01*
X125100099Y-94687007D01*
X125165925Y-94572993D01*
X125182962Y-94509409D01*
X125815270Y-95141717D01*
X125815270Y-95141716D01*
X125854622Y-95087554D01*
X125951095Y-94898217D01*
X126016757Y-94696130D01*
X126016757Y-94696127D01*
X126050000Y-94486246D01*
X126050000Y-94273753D01*
X126016757Y-94063872D01*
X126016757Y-94063869D01*
X125951095Y-93861782D01*
X125854624Y-93672449D01*
X125815270Y-93618282D01*
X125815269Y-93618282D01*
X125182962Y-94250590D01*
X125165925Y-94187007D01*
X125100099Y-94072993D01*
X125007007Y-93979901D01*
X124892993Y-93914075D01*
X124829409Y-93897037D01*
X125461716Y-93264728D01*
X125407550Y-93225375D01*
X125218216Y-93128904D01*
X125042026Y-93071656D01*
X124984350Y-93032218D01*
X124957152Y-92967860D01*
X124969067Y-92899013D01*
X125016311Y-92847538D01*
X125032882Y-92839168D01*
X125197598Y-92770941D01*
X125369655Y-92655977D01*
X125515977Y-92509655D01*
X125630941Y-92337598D01*
X125710130Y-92146420D01*
X125750500Y-91943465D01*
X125750500Y-91736535D01*
X125710130Y-91533580D01*
X125630941Y-91342402D01*
X125515977Y-91170345D01*
X125515975Y-91170342D01*
X125369657Y-91024024D01*
X125283626Y-90966541D01*
X125197598Y-90909059D01*
X125104506Y-90870499D01*
X125006420Y-90829870D01*
X125006412Y-90829868D01*
X124803469Y-90789500D01*
X124803465Y-90789500D01*
X124596535Y-90789500D01*
X124596530Y-90789500D01*
X124393587Y-90829868D01*
X124393579Y-90829870D01*
X124202403Y-90909058D01*
X124030342Y-91024024D01*
X123884024Y-91170342D01*
X123769058Y-91342403D01*
X123689870Y-91533579D01*
X123689868Y-91533587D01*
X123649500Y-91736530D01*
X123649500Y-91943469D01*
X123689868Y-92146412D01*
X123689870Y-92146420D01*
X123769058Y-92337596D01*
X123884024Y-92509657D01*
X124030342Y-92655975D01*
X124202405Y-92770943D01*
X124305043Y-92813456D01*
X124367108Y-92839164D01*
X124421511Y-92883005D01*
X124443576Y-92949299D01*
X124426297Y-93016998D01*
X124375160Y-93064609D01*
X124357974Y-93071656D01*
X124181781Y-93128905D01*
X123992439Y-93225380D01*
X123938282Y-93264727D01*
X123938282Y-93264728D01*
X124570591Y-93897037D01*
X124507007Y-93914075D01*
X124392993Y-93979901D01*
X124299901Y-94072993D01*
X124234075Y-94187007D01*
X124217037Y-94250591D01*
X123584728Y-93618282D01*
X123584727Y-93618282D01*
X123545380Y-93672439D01*
X123448904Y-93861782D01*
X123383242Y-94063869D01*
X123383242Y-94063872D01*
X123350000Y-94273753D01*
X100349947Y-94273753D01*
X100310130Y-94073580D01*
X100230941Y-93882402D01*
X100115977Y-93710345D01*
X100115975Y-93710342D01*
X99969657Y-93564024D01*
X99849927Y-93484024D01*
X99797598Y-93449059D01*
X99606420Y-93369870D01*
X99606412Y-93369868D01*
X99403469Y-93329500D01*
X99403465Y-93329500D01*
X99196535Y-93329500D01*
X99196530Y-93329500D01*
X98993587Y-93369868D01*
X98993579Y-93369870D01*
X98802403Y-93449058D01*
X98630342Y-93564024D01*
X98484024Y-93710342D01*
X98369058Y-93882403D01*
X98289870Y-94073579D01*
X98289868Y-94073587D01*
X98249500Y-94276530D01*
X98249500Y-94483469D01*
X98289868Y-94686412D01*
X98289870Y-94686420D01*
X98369058Y-94877596D01*
X98484024Y-95049657D01*
X98630342Y-95195975D01*
X98802405Y-95310943D01*
X98869823Y-95338868D01*
X98967108Y-95379164D01*
X99021511Y-95423005D01*
X99043576Y-95489299D01*
X99026297Y-95556998D01*
X98975160Y-95604609D01*
X98957974Y-95611656D01*
X98781781Y-95668905D01*
X98592439Y-95765380D01*
X98538282Y-95804727D01*
X98538282Y-95804728D01*
X99170591Y-96437037D01*
X99107007Y-96454075D01*
X98992993Y-96519901D01*
X98899901Y-96612993D01*
X98834075Y-96727007D01*
X98817037Y-96790591D01*
X98184728Y-96158282D01*
X98184727Y-96158282D01*
X98145380Y-96212439D01*
X98048904Y-96401782D01*
X97983242Y-96603869D01*
X97983242Y-96603872D01*
X97950000Y-96813753D01*
X90360500Y-96813753D01*
X90360500Y-96736535D01*
X90320130Y-96533580D01*
X90240941Y-96342402D01*
X90125977Y-96170345D01*
X90125975Y-96170342D01*
X89979657Y-96024024D01*
X89893626Y-95966541D01*
X89807598Y-95909059D01*
X89616420Y-95829870D01*
X89616412Y-95829868D01*
X89413469Y-95789500D01*
X89413465Y-95789500D01*
X89206535Y-95789500D01*
X89206530Y-95789500D01*
X89003587Y-95829868D01*
X89003579Y-95829870D01*
X88812403Y-95909058D01*
X88640342Y-96024024D01*
X88494024Y-96170342D01*
X88379058Y-96342403D01*
X88299870Y-96533579D01*
X88299868Y-96533587D01*
X88259500Y-96736530D01*
X88259500Y-96943469D01*
X88299868Y-97146412D01*
X88299870Y-97146420D01*
X88379058Y-97337596D01*
X88494024Y-97509657D01*
X88640342Y-97655975D01*
X88812405Y-97770943D01*
X88915043Y-97813456D01*
X88977108Y-97839164D01*
X89031511Y-97883005D01*
X89053576Y-97949299D01*
X89036297Y-98016998D01*
X88985160Y-98064609D01*
X88967974Y-98071656D01*
X88791781Y-98128905D01*
X88602439Y-98225380D01*
X88548282Y-98264727D01*
X88548282Y-98264728D01*
X89180591Y-98897037D01*
X89117007Y-98914075D01*
X89002993Y-98979901D01*
X88909901Y-99072993D01*
X88844075Y-99187007D01*
X88827037Y-99250591D01*
X88194728Y-98618282D01*
X88194727Y-98618282D01*
X88155380Y-98672439D01*
X88058904Y-98861782D01*
X87993242Y-99063869D01*
X87993242Y-99063872D01*
X87960000Y-99273753D01*
X80660000Y-99273753D01*
X80626757Y-99063872D01*
X80626757Y-99063869D01*
X80561095Y-98861782D01*
X80464624Y-98672449D01*
X80425270Y-98618282D01*
X80425269Y-98618282D01*
X79792962Y-99250590D01*
X79775925Y-99187007D01*
X79710099Y-99072993D01*
X79617007Y-98979901D01*
X79502993Y-98914075D01*
X79439409Y-98897037D01*
X80071716Y-98264728D01*
X80017550Y-98225375D01*
X79828216Y-98128904D01*
X79652026Y-98071656D01*
X79594350Y-98032218D01*
X79567152Y-97967860D01*
X79579067Y-97899013D01*
X79626311Y-97847538D01*
X79642882Y-97839168D01*
X79807598Y-97770941D01*
X79979655Y-97655977D01*
X80125977Y-97509655D01*
X80240941Y-97337598D01*
X80320130Y-97146420D01*
X80360500Y-96943465D01*
X80360500Y-96736535D01*
X80320130Y-96533580D01*
X80240941Y-96342402D01*
X80125977Y-96170345D01*
X80125975Y-96170342D01*
X79979657Y-96024024D01*
X79893626Y-95966541D01*
X79807598Y-95909059D01*
X79616420Y-95829870D01*
X79616412Y-95829868D01*
X79413469Y-95789500D01*
X79413465Y-95789500D01*
X79206535Y-95789500D01*
X79206530Y-95789500D01*
X79003587Y-95829868D01*
X79003579Y-95829870D01*
X78812403Y-95909058D01*
X78640342Y-96024024D01*
X78494024Y-96170342D01*
X78379058Y-96342403D01*
X78299870Y-96533579D01*
X78299868Y-96533587D01*
X78259500Y-96736530D01*
X78259500Y-96943469D01*
X78299868Y-97146412D01*
X78299870Y-97146420D01*
X78379058Y-97337596D01*
X78494024Y-97509657D01*
X78640342Y-97655975D01*
X78812405Y-97770943D01*
X78915043Y-97813456D01*
X78977108Y-97839164D01*
X79031511Y-97883005D01*
X79053576Y-97949299D01*
X79036297Y-98016998D01*
X78985160Y-98064609D01*
X78967974Y-98071656D01*
X78791781Y-98128905D01*
X78602439Y-98225380D01*
X78548282Y-98264727D01*
X78548282Y-98264728D01*
X79180591Y-98897037D01*
X79117007Y-98914075D01*
X79002993Y-98979901D01*
X78909901Y-99072993D01*
X78844075Y-99187007D01*
X78827037Y-99250591D01*
X78194728Y-98618282D01*
X78194727Y-98618282D01*
X78155380Y-98672439D01*
X78058904Y-98861782D01*
X77993242Y-99063869D01*
X77993242Y-99063872D01*
X77960000Y-99273753D01*
X56000500Y-99273753D01*
X56000500Y-94196530D01*
X78259500Y-94196530D01*
X78259500Y-94403469D01*
X78299868Y-94606412D01*
X78299870Y-94606420D01*
X78379058Y-94797596D01*
X78494024Y-94969657D01*
X78640342Y-95115975D01*
X78640345Y-95115977D01*
X78812402Y-95230941D01*
X79003580Y-95310130D01*
X79148052Y-95338867D01*
X79206530Y-95350499D01*
X79206534Y-95350500D01*
X79206535Y-95350500D01*
X79413466Y-95350500D01*
X79413467Y-95350499D01*
X79616420Y-95310130D01*
X79807598Y-95230941D01*
X79979655Y-95115977D01*
X80125977Y-94969655D01*
X80240941Y-94797598D01*
X80320130Y-94606420D01*
X80360500Y-94403465D01*
X80360500Y-94196535D01*
X80320130Y-93993580D01*
X80240941Y-93802402D01*
X80125977Y-93630345D01*
X80125975Y-93630342D01*
X79979657Y-93484024D01*
X79899173Y-93430247D01*
X88259500Y-93430247D01*
X88259500Y-95169752D01*
X88271131Y-95228229D01*
X88271132Y-95228230D01*
X88315447Y-95294552D01*
X88381769Y-95338867D01*
X88381770Y-95338868D01*
X88440247Y-95350499D01*
X88440250Y-95350500D01*
X88440252Y-95350500D01*
X90179750Y-95350500D01*
X90179751Y-95350499D01*
X90194568Y-95347552D01*
X90238229Y-95338868D01*
X90238229Y-95338867D01*
X90238231Y-95338867D01*
X90304552Y-95294552D01*
X90348867Y-95228231D01*
X90348867Y-95228229D01*
X90348868Y-95228229D01*
X90360499Y-95169752D01*
X90360500Y-95169750D01*
X90360500Y-93430249D01*
X90360499Y-93430247D01*
X90348868Y-93371770D01*
X90348867Y-93371769D01*
X90304552Y-93305447D01*
X90238230Y-93261132D01*
X90238229Y-93261131D01*
X90179752Y-93249500D01*
X90179748Y-93249500D01*
X88440252Y-93249500D01*
X88440247Y-93249500D01*
X88381770Y-93261131D01*
X88381769Y-93261132D01*
X88315447Y-93305447D01*
X88271132Y-93371769D01*
X88271131Y-93371770D01*
X88259500Y-93430247D01*
X79899173Y-93430247D01*
X79811655Y-93371770D01*
X79807598Y-93369059D01*
X79616420Y-93289870D01*
X79616412Y-93289868D01*
X79413469Y-93249500D01*
X79413465Y-93249500D01*
X79206535Y-93249500D01*
X79206530Y-93249500D01*
X79003587Y-93289868D01*
X79003579Y-93289870D01*
X78812403Y-93369058D01*
X78640342Y-93484024D01*
X78494024Y-93630342D01*
X78379058Y-93802403D01*
X78299870Y-93993579D01*
X78299868Y-93993587D01*
X78259500Y-94196530D01*
X56000500Y-94196530D01*
X56000500Y-91736530D01*
X98249500Y-91736530D01*
X98249500Y-91943469D01*
X98289868Y-92146412D01*
X98289870Y-92146420D01*
X98369058Y-92337596D01*
X98484024Y-92509657D01*
X98630342Y-92655975D01*
X98630345Y-92655977D01*
X98802402Y-92770941D01*
X98993580Y-92850130D01*
X99158855Y-92883005D01*
X99196530Y-92890499D01*
X99196534Y-92890500D01*
X99196535Y-92890500D01*
X99403466Y-92890500D01*
X99403467Y-92890499D01*
X99606420Y-92850130D01*
X99797598Y-92770941D01*
X99969655Y-92655977D01*
X100115977Y-92509655D01*
X100230941Y-92337598D01*
X100310130Y-92146420D01*
X100350500Y-91943465D01*
X100350500Y-91736535D01*
X100310130Y-91533580D01*
X100230941Y-91342402D01*
X100115977Y-91170345D01*
X100115975Y-91170342D01*
X99969657Y-91024024D01*
X99883626Y-90966541D01*
X99797598Y-90909059D01*
X99704506Y-90870499D01*
X99606420Y-90829870D01*
X99606412Y-90829868D01*
X99403469Y-90789500D01*
X99403465Y-90789500D01*
X99196535Y-90789500D01*
X99196530Y-90789500D01*
X98993587Y-90829868D01*
X98993579Y-90829870D01*
X98802403Y-90909058D01*
X98630342Y-91024024D01*
X98484024Y-91170342D01*
X98369058Y-91342403D01*
X98289870Y-91533579D01*
X98289868Y-91533587D01*
X98249500Y-91736530D01*
X56000500Y-91736530D01*
X56000500Y-89716530D01*
X59699500Y-89716530D01*
X59699500Y-89923469D01*
X59739868Y-90126412D01*
X59739870Y-90126420D01*
X59819058Y-90317596D01*
X59934024Y-90489657D01*
X60080342Y-90635975D01*
X60080345Y-90635977D01*
X60252402Y-90750941D01*
X60443580Y-90830130D01*
X60646530Y-90870499D01*
X60646534Y-90870500D01*
X60646535Y-90870500D01*
X60853466Y-90870500D01*
X60853467Y-90870499D01*
X61056420Y-90830130D01*
X61247598Y-90750941D01*
X61419655Y-90635977D01*
X61565977Y-90489655D01*
X61680941Y-90317598D01*
X61760130Y-90126420D01*
X61800500Y-89923465D01*
X61800500Y-89716535D01*
X61800499Y-89716530D01*
X66949500Y-89716530D01*
X66949500Y-89923469D01*
X66989868Y-90126412D01*
X66989870Y-90126420D01*
X67069058Y-90317596D01*
X67184024Y-90489657D01*
X67330342Y-90635975D01*
X67330345Y-90635977D01*
X67502402Y-90750941D01*
X67693580Y-90830130D01*
X67896530Y-90870499D01*
X67896534Y-90870500D01*
X67896535Y-90870500D01*
X68103466Y-90870500D01*
X68103467Y-90870499D01*
X68306420Y-90830130D01*
X68497598Y-90750941D01*
X68669655Y-90635977D01*
X68815977Y-90489655D01*
X68930941Y-90317598D01*
X69010130Y-90126420D01*
X69050500Y-89923465D01*
X69050500Y-89716535D01*
X69010130Y-89513580D01*
X68930941Y-89322402D01*
X68888800Y-89259333D01*
X68888799Y-89259330D01*
X68846837Y-89196530D01*
X98249500Y-89196530D01*
X98249500Y-89403469D01*
X98289868Y-89606412D01*
X98289870Y-89606420D01*
X98369058Y-89797596D01*
X98484024Y-89969657D01*
X98630342Y-90115975D01*
X98630345Y-90115977D01*
X98802402Y-90230941D01*
X98993580Y-90310130D01*
X99196530Y-90350499D01*
X99196534Y-90350500D01*
X99196535Y-90350500D01*
X99403466Y-90350500D01*
X99403467Y-90350499D01*
X99606420Y-90310130D01*
X99797598Y-90230941D01*
X99969655Y-90115977D01*
X100115977Y-89969655D01*
X100230941Y-89797598D01*
X100310130Y-89606420D01*
X100350500Y-89403465D01*
X100350500Y-89196535D01*
X100350499Y-89196530D01*
X123649500Y-89196530D01*
X123649500Y-89403469D01*
X123689868Y-89606412D01*
X123689870Y-89606420D01*
X123769058Y-89797596D01*
X123884024Y-89969657D01*
X124030342Y-90115975D01*
X124030345Y-90115977D01*
X124202402Y-90230941D01*
X124393580Y-90310130D01*
X124596530Y-90350499D01*
X124596534Y-90350500D01*
X124596535Y-90350500D01*
X124803466Y-90350500D01*
X124803467Y-90350499D01*
X125006420Y-90310130D01*
X125197598Y-90230941D01*
X125369655Y-90115977D01*
X125515977Y-89969655D01*
X125630941Y-89797598D01*
X125710130Y-89606420D01*
X125750500Y-89403465D01*
X125750500Y-89196535D01*
X125710130Y-88993580D01*
X125630941Y-88802402D01*
X125515977Y-88630345D01*
X125515975Y-88630342D01*
X125369657Y-88484024D01*
X125283626Y-88426541D01*
X125197598Y-88369059D01*
X125104506Y-88330499D01*
X125006420Y-88289870D01*
X125006412Y-88289868D01*
X124803469Y-88249500D01*
X124803465Y-88249500D01*
X124596535Y-88249500D01*
X124596530Y-88249500D01*
X124393587Y-88289868D01*
X124393579Y-88289870D01*
X124202403Y-88369058D01*
X124030342Y-88484024D01*
X123884024Y-88630342D01*
X123769058Y-88802403D01*
X123689870Y-88993579D01*
X123689868Y-88993587D01*
X123649500Y-89196530D01*
X100350499Y-89196530D01*
X100310130Y-88993580D01*
X100230941Y-88802402D01*
X100115977Y-88630345D01*
X100115975Y-88630342D01*
X99969657Y-88484024D01*
X99883626Y-88426541D01*
X99797598Y-88369059D01*
X99704506Y-88330499D01*
X99606420Y-88289870D01*
X99606412Y-88289868D01*
X99403469Y-88249500D01*
X99403465Y-88249500D01*
X99196535Y-88249500D01*
X99196530Y-88249500D01*
X98993587Y-88289868D01*
X98993579Y-88289870D01*
X98802403Y-88369058D01*
X98630342Y-88484024D01*
X98484024Y-88630342D01*
X98369058Y-88802403D01*
X98289870Y-88993579D01*
X98289868Y-88993587D01*
X98249500Y-89196530D01*
X68846837Y-89196530D01*
X68815980Y-89150349D01*
X68815974Y-89150341D01*
X68669657Y-89004024D01*
X68583626Y-88946541D01*
X68497598Y-88889059D01*
X68306420Y-88809870D01*
X68306412Y-88809868D01*
X68103469Y-88769500D01*
X68103465Y-88769500D01*
X67896535Y-88769500D01*
X67896530Y-88769500D01*
X67693587Y-88809868D01*
X67693579Y-88809870D01*
X67502403Y-88889058D01*
X67330342Y-89004024D01*
X67184024Y-89150342D01*
X67069058Y-89322403D01*
X66989870Y-89513579D01*
X66989868Y-89513587D01*
X66949500Y-89716530D01*
X61800499Y-89716530D01*
X61760130Y-89513580D01*
X61680941Y-89322402D01*
X61565977Y-89150345D01*
X61565975Y-89150342D01*
X61419657Y-89004024D01*
X61333626Y-88946541D01*
X61247598Y-88889059D01*
X61056420Y-88809870D01*
X61056412Y-88809868D01*
X60853469Y-88769500D01*
X60853465Y-88769500D01*
X60646535Y-88769500D01*
X60646530Y-88769500D01*
X60443587Y-88809868D01*
X60443579Y-88809870D01*
X60252403Y-88889058D01*
X60080342Y-89004024D01*
X59934024Y-89150342D01*
X59819058Y-89322403D01*
X59739870Y-89513579D01*
X59739868Y-89513587D01*
X59699500Y-89716530D01*
X56000500Y-89716530D01*
X56000500Y-87176530D01*
X59699500Y-87176530D01*
X59699500Y-87383469D01*
X59739868Y-87586412D01*
X59739870Y-87586420D01*
X59819058Y-87777596D01*
X59934024Y-87949657D01*
X60080342Y-88095975D01*
X60080345Y-88095977D01*
X60252402Y-88210941D01*
X60443580Y-88290130D01*
X60646530Y-88330499D01*
X60646534Y-88330500D01*
X60646535Y-88330500D01*
X60853466Y-88330500D01*
X60853467Y-88330499D01*
X61056420Y-88290130D01*
X61247598Y-88210941D01*
X61419655Y-88095977D01*
X61565977Y-87949655D01*
X61680941Y-87777598D01*
X61760130Y-87586420D01*
X61800500Y-87383465D01*
X61800500Y-87176535D01*
X61800499Y-87176530D01*
X66949500Y-87176530D01*
X66949500Y-87383469D01*
X66989868Y-87586412D01*
X66989870Y-87586420D01*
X67069058Y-87777596D01*
X67184024Y-87949657D01*
X67330342Y-88095975D01*
X67330345Y-88095977D01*
X67502402Y-88210941D01*
X67693580Y-88290130D01*
X67896530Y-88330499D01*
X67896534Y-88330500D01*
X67896535Y-88330500D01*
X68103466Y-88330500D01*
X68103467Y-88330499D01*
X68306420Y-88290130D01*
X68497598Y-88210941D01*
X68669655Y-88095977D01*
X68815977Y-87949655D01*
X68930941Y-87777598D01*
X68943810Y-87746530D01*
X78259500Y-87746530D01*
X78259500Y-87953469D01*
X78299868Y-88156412D01*
X78299870Y-88156420D01*
X78379058Y-88347596D01*
X78494024Y-88519657D01*
X78640342Y-88665975D01*
X78640345Y-88665977D01*
X78812402Y-88780941D01*
X79003580Y-88860130D01*
X79149012Y-88889058D01*
X79206530Y-88900499D01*
X79206534Y-88900500D01*
X79206535Y-88900500D01*
X79413466Y-88900500D01*
X79413467Y-88900499D01*
X79616420Y-88860130D01*
X79807598Y-88780941D01*
X79979655Y-88665977D01*
X80125977Y-88519655D01*
X80240941Y-88347598D01*
X80320130Y-88156420D01*
X80360500Y-87953465D01*
X80360500Y-87746535D01*
X80360499Y-87746530D01*
X88259500Y-87746530D01*
X88259500Y-87953469D01*
X88299868Y-88156412D01*
X88299870Y-88156420D01*
X88379058Y-88347596D01*
X88494024Y-88519657D01*
X88640342Y-88665975D01*
X88640345Y-88665977D01*
X88812402Y-88780941D01*
X89003580Y-88860130D01*
X89149012Y-88889058D01*
X89206530Y-88900499D01*
X89206534Y-88900500D01*
X89206535Y-88900500D01*
X89413466Y-88900500D01*
X89413467Y-88900499D01*
X89616420Y-88860130D01*
X89807598Y-88780941D01*
X89979655Y-88665977D01*
X90125977Y-88519655D01*
X90240941Y-88347598D01*
X90320130Y-88156420D01*
X90360500Y-87953465D01*
X90360500Y-87746535D01*
X90320130Y-87543580D01*
X90240941Y-87352402D01*
X90125977Y-87180345D01*
X90125975Y-87180342D01*
X89979657Y-87034024D01*
X89889195Y-86973580D01*
X89807598Y-86919059D01*
X89673385Y-86863466D01*
X89616420Y-86839870D01*
X89616412Y-86839868D01*
X89413469Y-86799500D01*
X89413465Y-86799500D01*
X89206535Y-86799500D01*
X89206530Y-86799500D01*
X89003587Y-86839868D01*
X89003579Y-86839870D01*
X88812403Y-86919058D01*
X88640342Y-87034024D01*
X88494024Y-87180342D01*
X88379058Y-87352403D01*
X88299870Y-87543579D01*
X88299868Y-87543587D01*
X88259500Y-87746530D01*
X80360499Y-87746530D01*
X80320130Y-87543580D01*
X80240941Y-87352402D01*
X80125977Y-87180345D01*
X80125975Y-87180342D01*
X79979657Y-87034024D01*
X79889195Y-86973580D01*
X79807598Y-86919059D01*
X79673385Y-86863466D01*
X79616420Y-86839870D01*
X79616412Y-86839868D01*
X79413469Y-86799500D01*
X79413465Y-86799500D01*
X79206535Y-86799500D01*
X79206530Y-86799500D01*
X79003587Y-86839868D01*
X79003579Y-86839870D01*
X78812403Y-86919058D01*
X78640342Y-87034024D01*
X78494024Y-87180342D01*
X78379058Y-87352403D01*
X78299870Y-87543579D01*
X78299868Y-87543587D01*
X78259500Y-87746530D01*
X68943810Y-87746530D01*
X69010130Y-87586420D01*
X69050500Y-87383465D01*
X69050500Y-87176535D01*
X69010130Y-86973580D01*
X68930941Y-86782402D01*
X68888800Y-86719333D01*
X68888799Y-86719330D01*
X68846837Y-86656530D01*
X98249500Y-86656530D01*
X98249500Y-86863469D01*
X98289868Y-87066412D01*
X98289870Y-87066420D01*
X98369058Y-87257596D01*
X98484024Y-87429657D01*
X98630342Y-87575975D01*
X98630345Y-87575977D01*
X98802402Y-87690941D01*
X98993580Y-87770130D01*
X99196530Y-87810499D01*
X99196534Y-87810500D01*
X99196535Y-87810500D01*
X99403466Y-87810500D01*
X99403467Y-87810499D01*
X99606420Y-87770130D01*
X99797598Y-87690941D01*
X99969655Y-87575977D01*
X100115977Y-87429655D01*
X100230941Y-87257598D01*
X100310130Y-87066420D01*
X100350500Y-86863465D01*
X100350500Y-86656535D01*
X100350499Y-86656530D01*
X123649500Y-86656530D01*
X123649500Y-86863469D01*
X123689868Y-87066412D01*
X123689870Y-87066420D01*
X123769058Y-87257596D01*
X123884024Y-87429657D01*
X124030342Y-87575975D01*
X124030345Y-87575977D01*
X124202402Y-87690941D01*
X124393580Y-87770130D01*
X124596530Y-87810499D01*
X124596534Y-87810500D01*
X124596535Y-87810500D01*
X124803466Y-87810500D01*
X124803467Y-87810499D01*
X125006420Y-87770130D01*
X125197598Y-87690941D01*
X125369655Y-87575977D01*
X125515977Y-87429655D01*
X125630941Y-87257598D01*
X125710130Y-87066420D01*
X125750500Y-86863465D01*
X125750500Y-86656535D01*
X125710130Y-86453580D01*
X125630941Y-86262402D01*
X125515977Y-86090345D01*
X125515975Y-86090342D01*
X125369657Y-85944024D01*
X125283626Y-85886541D01*
X125197598Y-85829059D01*
X125104506Y-85790499D01*
X125006420Y-85749870D01*
X125006412Y-85749868D01*
X124803469Y-85709500D01*
X124803465Y-85709500D01*
X124596535Y-85709500D01*
X124596530Y-85709500D01*
X124393587Y-85749868D01*
X124393579Y-85749870D01*
X124202403Y-85829058D01*
X124030342Y-85944024D01*
X123884024Y-86090342D01*
X123769058Y-86262403D01*
X123689870Y-86453579D01*
X123689868Y-86453587D01*
X123649500Y-86656530D01*
X100350499Y-86656530D01*
X100310130Y-86453580D01*
X100230941Y-86262402D01*
X100115977Y-86090345D01*
X100115975Y-86090342D01*
X99969657Y-85944024D01*
X99883626Y-85886541D01*
X99797598Y-85829059D01*
X99704506Y-85790499D01*
X99606420Y-85749870D01*
X99606412Y-85749868D01*
X99403469Y-85709500D01*
X99403465Y-85709500D01*
X99196535Y-85709500D01*
X99196530Y-85709500D01*
X98993587Y-85749868D01*
X98993579Y-85749870D01*
X98802403Y-85829058D01*
X98630342Y-85944024D01*
X98484024Y-86090342D01*
X98369058Y-86262403D01*
X98289870Y-86453579D01*
X98289868Y-86453587D01*
X98249500Y-86656530D01*
X68846837Y-86656530D01*
X68815980Y-86610349D01*
X68815974Y-86610341D01*
X68669657Y-86464024D01*
X68583626Y-86406541D01*
X68497598Y-86349059D01*
X68306420Y-86269870D01*
X68306412Y-86269868D01*
X68103469Y-86229500D01*
X68103465Y-86229500D01*
X67896535Y-86229500D01*
X67896530Y-86229500D01*
X67693587Y-86269868D01*
X67693579Y-86269870D01*
X67502403Y-86349058D01*
X67330342Y-86464024D01*
X67184024Y-86610342D01*
X67069058Y-86782403D01*
X66989870Y-86973579D01*
X66989868Y-86973587D01*
X66949500Y-87176530D01*
X61800499Y-87176530D01*
X61760130Y-86973580D01*
X61680941Y-86782402D01*
X61565977Y-86610345D01*
X61565975Y-86610342D01*
X61419657Y-86464024D01*
X61333626Y-86406541D01*
X61247598Y-86349059D01*
X61056420Y-86269870D01*
X61056412Y-86269868D01*
X60853469Y-86229500D01*
X60853465Y-86229500D01*
X60646535Y-86229500D01*
X60646530Y-86229500D01*
X60443587Y-86269868D01*
X60443579Y-86269870D01*
X60252403Y-86349058D01*
X60080342Y-86464024D01*
X59934024Y-86610342D01*
X59819058Y-86782403D01*
X59739870Y-86973579D01*
X59739868Y-86973587D01*
X59699500Y-87176530D01*
X56000500Y-87176530D01*
X56000500Y-84636530D01*
X59699500Y-84636530D01*
X59699500Y-84843469D01*
X59739868Y-85046412D01*
X59739870Y-85046420D01*
X59819058Y-85237596D01*
X59934024Y-85409657D01*
X60080342Y-85555975D01*
X60080345Y-85555977D01*
X60252402Y-85670941D01*
X60443580Y-85750130D01*
X60646530Y-85790499D01*
X60646534Y-85790500D01*
X60646535Y-85790500D01*
X60853466Y-85790500D01*
X60853467Y-85790499D01*
X61056420Y-85750130D01*
X61247598Y-85670941D01*
X61419655Y-85555977D01*
X61565977Y-85409655D01*
X61680941Y-85237598D01*
X61760130Y-85046420D01*
X61800500Y-84843465D01*
X61800500Y-84636535D01*
X61800499Y-84636530D01*
X66949500Y-84636530D01*
X66949500Y-84843469D01*
X66989868Y-85046412D01*
X66989870Y-85046420D01*
X67069058Y-85237596D01*
X67184024Y-85409657D01*
X67330342Y-85555975D01*
X67330345Y-85555977D01*
X67502402Y-85670941D01*
X67693580Y-85750130D01*
X67896530Y-85790499D01*
X67896534Y-85790500D01*
X67896535Y-85790500D01*
X68103466Y-85790500D01*
X68103467Y-85790499D01*
X68306420Y-85750130D01*
X68497598Y-85670941D01*
X68669655Y-85555977D01*
X68815977Y-85409655D01*
X68930941Y-85237598D01*
X68943810Y-85206530D01*
X78259500Y-85206530D01*
X78259500Y-85413469D01*
X78299868Y-85616412D01*
X78299870Y-85616420D01*
X78379058Y-85807596D01*
X78494024Y-85979657D01*
X78640342Y-86125975D01*
X78640345Y-86125977D01*
X78812402Y-86240941D01*
X79003580Y-86320130D01*
X79149012Y-86349058D01*
X79206530Y-86360499D01*
X79206534Y-86360500D01*
X79206535Y-86360500D01*
X79413466Y-86360500D01*
X79413467Y-86360499D01*
X79616420Y-86320130D01*
X79807598Y-86240941D01*
X79979655Y-86125977D01*
X80125977Y-85979655D01*
X80240941Y-85807598D01*
X80320130Y-85616420D01*
X80360500Y-85413465D01*
X80360500Y-85206535D01*
X80360499Y-85206530D01*
X88259500Y-85206530D01*
X88259500Y-85413469D01*
X88299868Y-85616412D01*
X88299870Y-85616420D01*
X88379058Y-85807596D01*
X88494024Y-85979657D01*
X88640342Y-86125975D01*
X88640345Y-86125977D01*
X88812402Y-86240941D01*
X89003580Y-86320130D01*
X89149012Y-86349058D01*
X89206530Y-86360499D01*
X89206534Y-86360500D01*
X89206535Y-86360500D01*
X89413466Y-86360500D01*
X89413467Y-86360499D01*
X89616420Y-86320130D01*
X89807598Y-86240941D01*
X89979655Y-86125977D01*
X90125977Y-85979655D01*
X90240941Y-85807598D01*
X90320130Y-85616420D01*
X90360500Y-85413465D01*
X90360500Y-85206535D01*
X90320130Y-85003580D01*
X90240941Y-84812402D01*
X90125977Y-84640345D01*
X90125975Y-84640342D01*
X89979657Y-84494024D01*
X89889195Y-84433580D01*
X89807598Y-84379059D01*
X89673385Y-84323466D01*
X89616420Y-84299870D01*
X89616412Y-84299868D01*
X89413469Y-84259500D01*
X89413465Y-84259500D01*
X89206535Y-84259500D01*
X89206530Y-84259500D01*
X89003587Y-84299868D01*
X89003579Y-84299870D01*
X88812403Y-84379058D01*
X88640342Y-84494024D01*
X88494024Y-84640342D01*
X88379058Y-84812403D01*
X88299870Y-85003579D01*
X88299868Y-85003587D01*
X88259500Y-85206530D01*
X80360499Y-85206530D01*
X80320130Y-85003580D01*
X80240941Y-84812402D01*
X80125977Y-84640345D01*
X80125975Y-84640342D01*
X79979657Y-84494024D01*
X79889195Y-84433580D01*
X79807598Y-84379059D01*
X79673385Y-84323466D01*
X79616420Y-84299870D01*
X79616412Y-84299868D01*
X79413469Y-84259500D01*
X79413465Y-84259500D01*
X79206535Y-84259500D01*
X79206530Y-84259500D01*
X79003587Y-84299868D01*
X79003579Y-84299870D01*
X78812403Y-84379058D01*
X78640342Y-84494024D01*
X78494024Y-84640342D01*
X78379058Y-84812403D01*
X78299870Y-85003579D01*
X78299868Y-85003587D01*
X78259500Y-85206530D01*
X68943810Y-85206530D01*
X69010130Y-85046420D01*
X69050500Y-84843465D01*
X69050500Y-84636535D01*
X69010130Y-84433580D01*
X68930941Y-84242402D01*
X68888800Y-84179333D01*
X68888799Y-84179330D01*
X68846837Y-84116530D01*
X98249500Y-84116530D01*
X98249500Y-84323469D01*
X98289868Y-84526412D01*
X98289870Y-84526420D01*
X98369058Y-84717596D01*
X98484024Y-84889657D01*
X98630342Y-85035975D01*
X98630345Y-85035977D01*
X98802402Y-85150941D01*
X98993580Y-85230130D01*
X99196530Y-85270499D01*
X99196534Y-85270500D01*
X99196535Y-85270500D01*
X99403466Y-85270500D01*
X99403467Y-85270499D01*
X99606420Y-85230130D01*
X99797598Y-85150941D01*
X99969655Y-85035977D01*
X100115977Y-84889655D01*
X100230941Y-84717598D01*
X100310130Y-84526420D01*
X100350500Y-84323465D01*
X100350500Y-84116535D01*
X100350499Y-84116530D01*
X123649500Y-84116530D01*
X123649500Y-84323469D01*
X123689868Y-84526412D01*
X123689870Y-84526420D01*
X123769058Y-84717596D01*
X123884024Y-84889657D01*
X124030342Y-85035975D01*
X124030345Y-85035977D01*
X124202402Y-85150941D01*
X124393580Y-85230130D01*
X124596530Y-85270499D01*
X124596534Y-85270500D01*
X124596535Y-85270500D01*
X124803466Y-85270500D01*
X124803467Y-85270499D01*
X125006420Y-85230130D01*
X125197598Y-85150941D01*
X125369655Y-85035977D01*
X125515977Y-84889655D01*
X125630941Y-84717598D01*
X125710130Y-84526420D01*
X125750500Y-84323465D01*
X125750500Y-84116535D01*
X125710130Y-83913580D01*
X125630941Y-83722402D01*
X125515977Y-83550345D01*
X125515975Y-83550342D01*
X125369657Y-83404024D01*
X125283626Y-83346541D01*
X125197598Y-83289059D01*
X125104506Y-83250499D01*
X125006420Y-83209870D01*
X125006412Y-83209868D01*
X124803469Y-83169500D01*
X124803465Y-83169500D01*
X124596535Y-83169500D01*
X124596530Y-83169500D01*
X124393587Y-83209868D01*
X124393579Y-83209870D01*
X124202403Y-83289058D01*
X124030342Y-83404024D01*
X123884024Y-83550342D01*
X123769058Y-83722403D01*
X123689870Y-83913579D01*
X123689868Y-83913587D01*
X123649500Y-84116530D01*
X100350499Y-84116530D01*
X100310130Y-83913580D01*
X100230941Y-83722402D01*
X100115977Y-83550345D01*
X100115975Y-83550342D01*
X99969657Y-83404024D01*
X99883626Y-83346541D01*
X99797598Y-83289059D01*
X99704506Y-83250499D01*
X99606420Y-83209870D01*
X99606412Y-83209868D01*
X99403469Y-83169500D01*
X99403465Y-83169500D01*
X99196535Y-83169500D01*
X99196530Y-83169500D01*
X98993587Y-83209868D01*
X98993579Y-83209870D01*
X98802403Y-83289058D01*
X98630342Y-83404024D01*
X98484024Y-83550342D01*
X98369058Y-83722403D01*
X98289870Y-83913579D01*
X98289868Y-83913587D01*
X98249500Y-84116530D01*
X68846837Y-84116530D01*
X68815980Y-84070349D01*
X68815974Y-84070341D01*
X68669657Y-83924024D01*
X68583626Y-83866541D01*
X68497598Y-83809059D01*
X68306420Y-83729870D01*
X68306412Y-83729868D01*
X68103469Y-83689500D01*
X68103465Y-83689500D01*
X67896535Y-83689500D01*
X67896530Y-83689500D01*
X67693587Y-83729868D01*
X67693579Y-83729870D01*
X67502403Y-83809058D01*
X67330342Y-83924024D01*
X67184024Y-84070342D01*
X67069058Y-84242403D01*
X66989870Y-84433579D01*
X66989868Y-84433587D01*
X66949500Y-84636530D01*
X61800499Y-84636530D01*
X61760130Y-84433580D01*
X61680941Y-84242402D01*
X61565977Y-84070345D01*
X61565975Y-84070342D01*
X61419657Y-83924024D01*
X61333626Y-83866541D01*
X61247598Y-83809059D01*
X61056420Y-83729870D01*
X61056412Y-83729868D01*
X60853469Y-83689500D01*
X60853465Y-83689500D01*
X60646535Y-83689500D01*
X60646530Y-83689500D01*
X60443587Y-83729868D01*
X60443579Y-83729870D01*
X60252403Y-83809058D01*
X60080342Y-83924024D01*
X59934024Y-84070342D01*
X59819058Y-84242403D01*
X59739870Y-84433579D01*
X59739868Y-84433587D01*
X59699500Y-84636530D01*
X56000500Y-84636530D01*
X56000500Y-82096530D01*
X59699500Y-82096530D01*
X59699500Y-82303469D01*
X59739868Y-82506412D01*
X59739870Y-82506420D01*
X59819058Y-82697596D01*
X59934024Y-82869657D01*
X60080342Y-83015975D01*
X60080345Y-83015977D01*
X60252402Y-83130941D01*
X60443580Y-83210130D01*
X60646530Y-83250499D01*
X60646534Y-83250500D01*
X60646535Y-83250500D01*
X60853466Y-83250500D01*
X60853467Y-83250499D01*
X61056420Y-83210130D01*
X61247598Y-83130941D01*
X61419655Y-83015977D01*
X61565977Y-82869655D01*
X61680941Y-82697598D01*
X61760130Y-82506420D01*
X61800500Y-82303465D01*
X61800500Y-82096535D01*
X61800499Y-82096530D01*
X66949500Y-82096530D01*
X66949500Y-82303469D01*
X66989868Y-82506412D01*
X66989870Y-82506420D01*
X67069058Y-82697596D01*
X67184024Y-82869657D01*
X67330342Y-83015975D01*
X67330345Y-83015977D01*
X67502402Y-83130941D01*
X67693580Y-83210130D01*
X67896530Y-83250499D01*
X67896534Y-83250500D01*
X67896535Y-83250500D01*
X68103466Y-83250500D01*
X68103467Y-83250499D01*
X68306420Y-83210130D01*
X68497598Y-83130941D01*
X68669655Y-83015977D01*
X68815977Y-82869655D01*
X68930941Y-82697598D01*
X69010130Y-82506420D01*
X69050500Y-82303465D01*
X69050500Y-82096535D01*
X69010130Y-81893580D01*
X68930941Y-81702402D01*
X68815977Y-81530345D01*
X68815975Y-81530342D01*
X68669657Y-81384024D01*
X68583626Y-81326541D01*
X68497598Y-81269059D01*
X68306420Y-81189870D01*
X68306412Y-81189868D01*
X68103469Y-81149500D01*
X68103465Y-81149500D01*
X67896535Y-81149500D01*
X67896530Y-81149500D01*
X67693587Y-81189868D01*
X67693579Y-81189870D01*
X67502403Y-81269058D01*
X67330342Y-81384024D01*
X67184024Y-81530342D01*
X67069058Y-81702403D01*
X66989870Y-81893579D01*
X66989868Y-81893587D01*
X66949500Y-82096530D01*
X61800499Y-82096530D01*
X61760130Y-81893580D01*
X61680941Y-81702402D01*
X61565977Y-81530345D01*
X61565975Y-81530342D01*
X61419657Y-81384024D01*
X61333626Y-81326541D01*
X61247598Y-81269059D01*
X61056420Y-81189870D01*
X61056412Y-81189868D01*
X60853469Y-81149500D01*
X60853465Y-81149500D01*
X60646535Y-81149500D01*
X60646530Y-81149500D01*
X60443587Y-81189868D01*
X60443579Y-81189870D01*
X60252403Y-81269058D01*
X60080342Y-81384024D01*
X59934024Y-81530342D01*
X59819058Y-81702403D01*
X59739870Y-81893579D01*
X59739868Y-81893587D01*
X59699500Y-82096530D01*
X56000500Y-82096530D01*
X56000500Y-79556530D01*
X59699500Y-79556530D01*
X59699500Y-79763469D01*
X59739868Y-79966412D01*
X59739870Y-79966420D01*
X59815965Y-80150130D01*
X59819059Y-80157598D01*
X59867436Y-80230000D01*
X59934024Y-80329657D01*
X60080342Y-80475975D01*
X60080345Y-80475977D01*
X60252402Y-80590941D01*
X60443580Y-80670130D01*
X60646530Y-80710499D01*
X60646534Y-80710500D01*
X60646535Y-80710500D01*
X60853466Y-80710500D01*
X60853467Y-80710499D01*
X61056420Y-80670130D01*
X61247598Y-80590941D01*
X61419655Y-80475977D01*
X61565977Y-80329655D01*
X61680941Y-80157598D01*
X61760130Y-79966420D01*
X61800500Y-79763465D01*
X61800500Y-79556535D01*
X61800499Y-79556530D01*
X66949500Y-79556530D01*
X66949500Y-79763469D01*
X66989868Y-79966412D01*
X66989870Y-79966420D01*
X67065965Y-80150130D01*
X67069059Y-80157598D01*
X67117436Y-80230000D01*
X67184024Y-80329657D01*
X67330342Y-80475975D01*
X67330345Y-80475977D01*
X67502402Y-80590941D01*
X67693580Y-80670130D01*
X67896530Y-80710499D01*
X67896534Y-80710500D01*
X67896535Y-80710500D01*
X68103466Y-80710500D01*
X68103467Y-80710499D01*
X68306420Y-80670130D01*
X68497598Y-80590941D01*
X68669655Y-80475977D01*
X68815977Y-80329655D01*
X68930941Y-80157598D01*
X68944960Y-80123753D01*
X77960000Y-80123753D01*
X77960000Y-80336246D01*
X77993242Y-80546127D01*
X77993242Y-80546130D01*
X78058904Y-80748217D01*
X78155375Y-80937550D01*
X78194728Y-80991716D01*
X78827037Y-80359408D01*
X78844075Y-80422993D01*
X78909901Y-80537007D01*
X79002993Y-80630099D01*
X79117007Y-80695925D01*
X79180590Y-80712962D01*
X78548282Y-81345269D01*
X78548282Y-81345270D01*
X78602449Y-81384624D01*
X78791782Y-81481095D01*
X78967973Y-81538343D01*
X79025648Y-81577780D01*
X79052847Y-81642139D01*
X79040932Y-81710985D01*
X78993688Y-81762461D01*
X78977108Y-81770835D01*
X78812403Y-81839057D01*
X78640342Y-81954024D01*
X78494024Y-82100342D01*
X78379058Y-82272403D01*
X78299870Y-82463579D01*
X78299868Y-82463587D01*
X78259500Y-82666530D01*
X78259500Y-82873469D01*
X78299868Y-83076412D01*
X78299870Y-83076420D01*
X78379058Y-83267596D01*
X78494024Y-83439657D01*
X78640342Y-83585975D01*
X78640345Y-83585977D01*
X78812402Y-83700941D01*
X79003580Y-83780130D01*
X79149012Y-83809058D01*
X79206530Y-83820499D01*
X79206534Y-83820500D01*
X79206535Y-83820500D01*
X79413466Y-83820500D01*
X79413467Y-83820499D01*
X79616420Y-83780130D01*
X79807598Y-83700941D01*
X79979655Y-83585977D01*
X80125977Y-83439655D01*
X80240941Y-83267598D01*
X80320130Y-83076420D01*
X80360500Y-82873465D01*
X80360500Y-82666535D01*
X80320130Y-82463580D01*
X80240941Y-82272402D01*
X80125977Y-82100345D01*
X80125975Y-82100342D01*
X79979657Y-81954024D01*
X79889195Y-81893580D01*
X79807598Y-81839059D01*
X79807593Y-81839057D01*
X79745891Y-81813499D01*
X79642890Y-81770834D01*
X79588488Y-81726994D01*
X79566423Y-81660700D01*
X79583702Y-81593001D01*
X79634839Y-81545390D01*
X79652026Y-81538343D01*
X79828217Y-81481095D01*
X80017554Y-81384622D01*
X80071716Y-81345270D01*
X80071717Y-81345270D01*
X79439408Y-80712962D01*
X79502993Y-80695925D01*
X79617007Y-80630099D01*
X79710099Y-80537007D01*
X79775925Y-80422993D01*
X79792962Y-80359408D01*
X80425270Y-80991717D01*
X80425270Y-80991716D01*
X80464622Y-80937554D01*
X80561095Y-80748217D01*
X80626757Y-80546130D01*
X80626757Y-80546127D01*
X80660000Y-80336246D01*
X80660000Y-80123753D01*
X87960000Y-80123753D01*
X87960000Y-80336246D01*
X87993242Y-80546127D01*
X87993242Y-80546130D01*
X88058904Y-80748217D01*
X88155375Y-80937550D01*
X88194728Y-80991716D01*
X88827037Y-80359408D01*
X88844075Y-80422993D01*
X88909901Y-80537007D01*
X89002993Y-80630099D01*
X89117007Y-80695925D01*
X89180590Y-80712962D01*
X88548282Y-81345269D01*
X88548282Y-81345270D01*
X88602449Y-81384624D01*
X88791782Y-81481095D01*
X88967973Y-81538343D01*
X89025648Y-81577780D01*
X89052847Y-81642139D01*
X89040932Y-81710985D01*
X88993688Y-81762461D01*
X88977108Y-81770835D01*
X88812403Y-81839057D01*
X88640342Y-81954024D01*
X88494024Y-82100342D01*
X88379058Y-82272403D01*
X88299870Y-82463579D01*
X88299868Y-82463587D01*
X88259500Y-82666530D01*
X88259500Y-82873469D01*
X88299868Y-83076412D01*
X88299870Y-83076420D01*
X88379058Y-83267596D01*
X88494024Y-83439657D01*
X88640342Y-83585975D01*
X88640345Y-83585977D01*
X88812402Y-83700941D01*
X89003580Y-83780130D01*
X89149012Y-83809058D01*
X89206530Y-83820499D01*
X89206534Y-83820500D01*
X89206535Y-83820500D01*
X89413466Y-83820500D01*
X89413467Y-83820499D01*
X89616420Y-83780130D01*
X89807598Y-83700941D01*
X89979655Y-83585977D01*
X90125977Y-83439655D01*
X90240941Y-83267598D01*
X90320130Y-83076420D01*
X90360500Y-82873465D01*
X90360500Y-82666535D01*
X90320130Y-82463580D01*
X90240941Y-82272402D01*
X90125977Y-82100345D01*
X90125975Y-82100342D01*
X89979657Y-81954024D01*
X89889195Y-81893580D01*
X89807598Y-81839059D01*
X89807593Y-81839057D01*
X89745891Y-81813499D01*
X89642890Y-81770834D01*
X89588488Y-81726994D01*
X89566423Y-81660700D01*
X89583702Y-81593001D01*
X89601393Y-81576530D01*
X98249500Y-81576530D01*
X98249500Y-81783469D01*
X98289868Y-81986412D01*
X98289870Y-81986420D01*
X98369058Y-82177596D01*
X98484024Y-82349657D01*
X98630342Y-82495975D01*
X98630345Y-82495977D01*
X98802402Y-82610941D01*
X98993580Y-82690130D01*
X99196530Y-82730499D01*
X99196534Y-82730500D01*
X99196535Y-82730500D01*
X99403466Y-82730500D01*
X99403467Y-82730499D01*
X99606420Y-82690130D01*
X99797598Y-82610941D01*
X99969655Y-82495977D01*
X100115977Y-82349655D01*
X100230941Y-82177598D01*
X100310130Y-81986420D01*
X100350500Y-81783465D01*
X100350500Y-81576535D01*
X100350499Y-81576530D01*
X123649500Y-81576530D01*
X123649500Y-81783469D01*
X123689868Y-81986412D01*
X123689870Y-81986420D01*
X123769058Y-82177596D01*
X123884024Y-82349657D01*
X124030342Y-82495975D01*
X124030345Y-82495977D01*
X124202402Y-82610941D01*
X124393580Y-82690130D01*
X124596530Y-82730499D01*
X124596534Y-82730500D01*
X124596535Y-82730500D01*
X124803466Y-82730500D01*
X124803467Y-82730499D01*
X125006420Y-82690130D01*
X125197598Y-82610941D01*
X125369655Y-82495977D01*
X125515977Y-82349655D01*
X125630941Y-82177598D01*
X125710130Y-81986420D01*
X125750500Y-81783465D01*
X125750500Y-81576535D01*
X125710130Y-81373580D01*
X125630941Y-81182402D01*
X125515977Y-81010345D01*
X125515975Y-81010342D01*
X125369657Y-80864024D01*
X125283626Y-80806541D01*
X125197598Y-80749059D01*
X125195565Y-80748217D01*
X125006420Y-80669870D01*
X125006412Y-80669868D01*
X124803469Y-80629500D01*
X124803465Y-80629500D01*
X124596535Y-80629500D01*
X124596530Y-80629500D01*
X124393587Y-80669868D01*
X124393579Y-80669870D01*
X124202403Y-80749058D01*
X124030342Y-80864024D01*
X123884024Y-81010342D01*
X123769058Y-81182403D01*
X123689870Y-81373579D01*
X123689868Y-81373587D01*
X123649500Y-81576530D01*
X100350499Y-81576530D01*
X100310130Y-81373580D01*
X100230941Y-81182402D01*
X100115977Y-81010345D01*
X100115975Y-81010342D01*
X99969657Y-80864024D01*
X99883626Y-80806541D01*
X99797598Y-80749059D01*
X99795565Y-80748217D01*
X99606420Y-80669870D01*
X99606412Y-80669868D01*
X99403469Y-80629500D01*
X99403465Y-80629500D01*
X99196535Y-80629500D01*
X99196530Y-80629500D01*
X98993587Y-80669868D01*
X98993579Y-80669870D01*
X98802403Y-80749058D01*
X98630342Y-80864024D01*
X98484024Y-81010342D01*
X98369058Y-81182403D01*
X98289870Y-81373579D01*
X98289868Y-81373587D01*
X98249500Y-81576530D01*
X89601393Y-81576530D01*
X89634839Y-81545390D01*
X89652026Y-81538343D01*
X89828217Y-81481095D01*
X89869702Y-81459958D01*
X90017554Y-81384622D01*
X90071716Y-81345270D01*
X90071717Y-81345270D01*
X89439408Y-80712962D01*
X89502993Y-80695925D01*
X89617007Y-80630099D01*
X89710099Y-80537007D01*
X89775925Y-80422993D01*
X89792962Y-80359408D01*
X90425270Y-80991717D01*
X90425270Y-80991716D01*
X90464622Y-80937554D01*
X90561095Y-80748217D01*
X90626757Y-80546130D01*
X90626757Y-80546127D01*
X90660000Y-80336246D01*
X90660000Y-80123753D01*
X90626757Y-79913872D01*
X90626757Y-79913869D01*
X90561095Y-79711782D01*
X90464624Y-79522449D01*
X90425270Y-79468282D01*
X90425269Y-79468282D01*
X89792962Y-80100590D01*
X89775925Y-80037007D01*
X89710099Y-79922993D01*
X89617007Y-79829901D01*
X89502993Y-79764075D01*
X89439409Y-79747037D01*
X90071716Y-79114728D01*
X90071716Y-79114727D01*
X90017554Y-79075377D01*
X90017552Y-79075376D01*
X89941313Y-79036530D01*
X98249500Y-79036530D01*
X98249500Y-79243469D01*
X98289868Y-79446412D01*
X98289870Y-79446420D01*
X98369058Y-79637596D01*
X98484024Y-79809657D01*
X98630342Y-79955975D01*
X98630345Y-79955977D01*
X98802402Y-80070941D01*
X98993580Y-80150130D01*
X99196530Y-80190499D01*
X99196534Y-80190500D01*
X99196535Y-80190500D01*
X99403466Y-80190500D01*
X99403467Y-80190499D01*
X99606420Y-80150130D01*
X99797598Y-80070941D01*
X99969655Y-79955977D01*
X100115977Y-79809655D01*
X100230941Y-79637598D01*
X100310130Y-79446420D01*
X100350500Y-79243465D01*
X100350500Y-79036535D01*
X100350499Y-79036530D01*
X123649500Y-79036530D01*
X123649500Y-79243469D01*
X123689868Y-79446412D01*
X123689870Y-79446420D01*
X123769058Y-79637596D01*
X123884024Y-79809657D01*
X124030342Y-79955975D01*
X124030345Y-79955977D01*
X124202402Y-80070941D01*
X124393580Y-80150130D01*
X124596530Y-80190499D01*
X124596534Y-80190500D01*
X124596535Y-80190500D01*
X124803466Y-80190500D01*
X124803467Y-80190499D01*
X125006420Y-80150130D01*
X125197598Y-80070941D01*
X125369655Y-79955977D01*
X125515977Y-79809655D01*
X125630941Y-79637598D01*
X125710130Y-79446420D01*
X125750500Y-79243465D01*
X125750500Y-79036535D01*
X125710130Y-78833580D01*
X125630941Y-78642402D01*
X125515977Y-78470345D01*
X125515975Y-78470342D01*
X125369657Y-78324024D01*
X125283626Y-78266541D01*
X125197598Y-78209059D01*
X125104506Y-78170499D01*
X125006420Y-78129870D01*
X125006412Y-78129868D01*
X124803469Y-78089500D01*
X124803465Y-78089500D01*
X124596535Y-78089500D01*
X124596530Y-78089500D01*
X124393587Y-78129868D01*
X124393579Y-78129870D01*
X124202403Y-78209058D01*
X124030342Y-78324024D01*
X123884024Y-78470342D01*
X123769058Y-78642403D01*
X123689870Y-78833579D01*
X123689868Y-78833587D01*
X123649500Y-79036530D01*
X100350499Y-79036530D01*
X100310130Y-78833580D01*
X100230941Y-78642402D01*
X100115977Y-78470345D01*
X100115975Y-78470342D01*
X99969657Y-78324024D01*
X99883626Y-78266541D01*
X99797598Y-78209059D01*
X99704506Y-78170499D01*
X99606420Y-78129870D01*
X99606412Y-78129868D01*
X99403469Y-78089500D01*
X99403465Y-78089500D01*
X99196535Y-78089500D01*
X99196530Y-78089500D01*
X98993587Y-78129868D01*
X98993579Y-78129870D01*
X98802403Y-78209058D01*
X98630342Y-78324024D01*
X98484024Y-78470342D01*
X98369058Y-78642403D01*
X98289870Y-78833579D01*
X98289868Y-78833587D01*
X98249500Y-79036530D01*
X89941313Y-79036530D01*
X89828216Y-78978904D01*
X89652026Y-78921656D01*
X89594350Y-78882218D01*
X89567152Y-78817860D01*
X89579067Y-78749013D01*
X89626311Y-78697538D01*
X89642882Y-78689168D01*
X89807598Y-78620941D01*
X89979655Y-78505977D01*
X90125977Y-78359655D01*
X90240941Y-78187598D01*
X90320130Y-77996420D01*
X90360500Y-77793465D01*
X90360500Y-77586535D01*
X90320130Y-77383580D01*
X90240941Y-77192402D01*
X90125977Y-77020345D01*
X90125975Y-77020342D01*
X89979657Y-76874024D01*
X89889195Y-76813580D01*
X89807598Y-76759059D01*
X89673385Y-76703466D01*
X89616420Y-76679870D01*
X89616412Y-76679868D01*
X89413469Y-76639500D01*
X89413465Y-76639500D01*
X89206535Y-76639500D01*
X89206530Y-76639500D01*
X89003587Y-76679868D01*
X89003579Y-76679870D01*
X88812403Y-76759058D01*
X88640342Y-76874024D01*
X88494024Y-77020342D01*
X88379058Y-77192403D01*
X88299870Y-77383579D01*
X88299868Y-77383587D01*
X88259500Y-77586530D01*
X88259500Y-77793469D01*
X88299868Y-77996412D01*
X88299870Y-77996420D01*
X88379058Y-78187596D01*
X88494024Y-78359657D01*
X88640342Y-78505975D01*
X88812405Y-78620943D01*
X88882242Y-78649870D01*
X88977108Y-78689164D01*
X89031511Y-78733005D01*
X89053576Y-78799299D01*
X89036297Y-78866998D01*
X88985160Y-78914609D01*
X88967974Y-78921656D01*
X88791781Y-78978905D01*
X88602439Y-79075380D01*
X88548282Y-79114727D01*
X88548282Y-79114728D01*
X89180591Y-79747037D01*
X89117007Y-79764075D01*
X89002993Y-79829901D01*
X88909901Y-79922993D01*
X88844075Y-80037007D01*
X88827037Y-80100591D01*
X88194728Y-79468282D01*
X88194727Y-79468282D01*
X88155380Y-79522439D01*
X88058904Y-79711782D01*
X87993242Y-79913869D01*
X87993242Y-79913872D01*
X87960000Y-80123753D01*
X80660000Y-80123753D01*
X80626757Y-79913872D01*
X80626757Y-79913869D01*
X80561095Y-79711782D01*
X80464624Y-79522449D01*
X80425270Y-79468282D01*
X80425269Y-79468282D01*
X79792962Y-80100590D01*
X79775925Y-80037007D01*
X79710099Y-79922993D01*
X79617007Y-79829901D01*
X79502993Y-79764075D01*
X79439409Y-79747037D01*
X80071716Y-79114728D01*
X80017550Y-79075375D01*
X79828216Y-78978904D01*
X79652026Y-78921656D01*
X79594350Y-78882218D01*
X79567152Y-78817860D01*
X79579067Y-78749013D01*
X79626311Y-78697538D01*
X79642882Y-78689168D01*
X79807598Y-78620941D01*
X79979655Y-78505977D01*
X80125977Y-78359655D01*
X80240941Y-78187598D01*
X80320130Y-77996420D01*
X80360500Y-77793465D01*
X80360500Y-77586535D01*
X80320130Y-77383580D01*
X80240941Y-77192402D01*
X80125977Y-77020345D01*
X80125975Y-77020342D01*
X79979657Y-76874024D01*
X79889195Y-76813580D01*
X79807598Y-76759059D01*
X79673385Y-76703466D01*
X79616420Y-76679870D01*
X79616412Y-76679868D01*
X79413469Y-76639500D01*
X79413465Y-76639500D01*
X79206535Y-76639500D01*
X79206530Y-76639500D01*
X79003587Y-76679868D01*
X79003579Y-76679870D01*
X78812403Y-76759058D01*
X78640342Y-76874024D01*
X78494024Y-77020342D01*
X78379058Y-77192403D01*
X78299870Y-77383579D01*
X78299868Y-77383587D01*
X78259500Y-77586530D01*
X78259500Y-77793469D01*
X78299868Y-77996412D01*
X78299870Y-77996420D01*
X78379058Y-78187596D01*
X78494024Y-78359657D01*
X78640342Y-78505975D01*
X78812405Y-78620943D01*
X78882242Y-78649870D01*
X78977108Y-78689164D01*
X79031511Y-78733005D01*
X79053576Y-78799299D01*
X79036297Y-78866998D01*
X78985160Y-78914609D01*
X78967974Y-78921656D01*
X78791781Y-78978905D01*
X78602439Y-79075380D01*
X78548282Y-79114727D01*
X78548282Y-79114728D01*
X79180591Y-79747037D01*
X79117007Y-79764075D01*
X79002993Y-79829901D01*
X78909901Y-79922993D01*
X78844075Y-80037007D01*
X78827037Y-80100591D01*
X78194728Y-79468282D01*
X78194727Y-79468282D01*
X78155380Y-79522439D01*
X78058904Y-79711782D01*
X77993242Y-79913869D01*
X77993242Y-79913872D01*
X77960000Y-80123753D01*
X68944960Y-80123753D01*
X69010130Y-79966420D01*
X69050500Y-79763465D01*
X69050500Y-79556535D01*
X69010130Y-79353580D01*
X68930941Y-79162402D01*
X68815977Y-78990345D01*
X68815975Y-78990342D01*
X68669657Y-78844024D01*
X68527461Y-78749013D01*
X68497598Y-78729059D01*
X68306420Y-78649870D01*
X68306412Y-78649868D01*
X68103469Y-78609500D01*
X68103465Y-78609500D01*
X67896535Y-78609500D01*
X67896530Y-78609500D01*
X67693587Y-78649868D01*
X67693579Y-78649870D01*
X67502403Y-78729058D01*
X67330342Y-78844024D01*
X67184024Y-78990342D01*
X67069058Y-79162403D01*
X66989870Y-79353579D01*
X66989868Y-79353587D01*
X66949500Y-79556530D01*
X61800499Y-79556530D01*
X61760130Y-79353580D01*
X61680941Y-79162402D01*
X61565977Y-78990345D01*
X61565975Y-78990342D01*
X61419657Y-78844024D01*
X61277461Y-78749013D01*
X61247598Y-78729059D01*
X61056420Y-78649870D01*
X61056412Y-78649868D01*
X60853469Y-78609500D01*
X60853465Y-78609500D01*
X60646535Y-78609500D01*
X60646530Y-78609500D01*
X60443587Y-78649868D01*
X60443579Y-78649870D01*
X60252403Y-78729058D01*
X60080342Y-78844024D01*
X59934024Y-78990342D01*
X59819058Y-79162403D01*
X59739870Y-79353579D01*
X59739868Y-79353587D01*
X59699500Y-79556530D01*
X56000500Y-79556530D01*
X56000500Y-77016530D01*
X59699500Y-77016530D01*
X59699500Y-77223469D01*
X59739868Y-77426412D01*
X59739870Y-77426420D01*
X59819058Y-77617596D01*
X59934024Y-77789657D01*
X60080342Y-77935975D01*
X60080345Y-77935977D01*
X60252402Y-78050941D01*
X60443580Y-78130130D01*
X60646530Y-78170499D01*
X60646534Y-78170500D01*
X60646535Y-78170500D01*
X60853466Y-78170500D01*
X60853467Y-78170499D01*
X61056420Y-78130130D01*
X61247598Y-78050941D01*
X61419655Y-77935977D01*
X61565977Y-77789655D01*
X61680941Y-77617598D01*
X61760130Y-77426420D01*
X61800500Y-77223465D01*
X61800500Y-77016535D01*
X61800499Y-77016530D01*
X66949500Y-77016530D01*
X66949500Y-77223469D01*
X66989868Y-77426412D01*
X66989870Y-77426420D01*
X67069058Y-77617596D01*
X67184024Y-77789657D01*
X67330342Y-77935975D01*
X67330345Y-77935977D01*
X67502402Y-78050941D01*
X67693580Y-78130130D01*
X67896530Y-78170499D01*
X67896534Y-78170500D01*
X67896535Y-78170500D01*
X68103466Y-78170500D01*
X68103467Y-78170499D01*
X68306420Y-78130130D01*
X68497598Y-78050941D01*
X68669655Y-77935977D01*
X68815977Y-77789655D01*
X68930941Y-77617598D01*
X69010130Y-77426420D01*
X69050500Y-77223465D01*
X69050500Y-77016535D01*
X69010130Y-76813580D01*
X68930941Y-76622402D01*
X68888800Y-76559333D01*
X68888799Y-76559330D01*
X68846837Y-76496530D01*
X98249500Y-76496530D01*
X98249500Y-76703469D01*
X98289868Y-76906412D01*
X98289870Y-76906420D01*
X98369058Y-77097596D01*
X98484024Y-77269657D01*
X98630342Y-77415975D01*
X98630345Y-77415977D01*
X98802402Y-77530941D01*
X98993580Y-77610130D01*
X99196530Y-77650499D01*
X99196534Y-77650500D01*
X99196535Y-77650500D01*
X99403466Y-77650500D01*
X99403467Y-77650499D01*
X99606420Y-77610130D01*
X99797598Y-77530941D01*
X99969655Y-77415977D01*
X100115977Y-77269655D01*
X100230941Y-77097598D01*
X100310130Y-76906420D01*
X100350500Y-76703465D01*
X100350500Y-76496535D01*
X100350499Y-76496530D01*
X123649500Y-76496530D01*
X123649500Y-76703469D01*
X123689868Y-76906412D01*
X123689870Y-76906420D01*
X123769058Y-77097596D01*
X123884024Y-77269657D01*
X124030342Y-77415975D01*
X124030345Y-77415977D01*
X124202402Y-77530941D01*
X124393580Y-77610130D01*
X124596530Y-77650499D01*
X124596534Y-77650500D01*
X124596535Y-77650500D01*
X124803466Y-77650500D01*
X124803467Y-77650499D01*
X125006420Y-77610130D01*
X125197598Y-77530941D01*
X125369655Y-77415977D01*
X125515977Y-77269655D01*
X125630941Y-77097598D01*
X125710130Y-76906420D01*
X125750500Y-76703465D01*
X125750500Y-76496535D01*
X125710130Y-76293580D01*
X125630941Y-76102402D01*
X125515977Y-75930345D01*
X125515975Y-75930342D01*
X125369657Y-75784024D01*
X125283626Y-75726541D01*
X125197598Y-75669059D01*
X125104506Y-75630499D01*
X125006420Y-75589870D01*
X125006412Y-75589868D01*
X124803469Y-75549500D01*
X124803465Y-75549500D01*
X124596535Y-75549500D01*
X124596530Y-75549500D01*
X124393587Y-75589868D01*
X124393579Y-75589870D01*
X124202403Y-75669058D01*
X124030342Y-75784024D01*
X123884024Y-75930342D01*
X123769058Y-76102403D01*
X123689870Y-76293579D01*
X123689868Y-76293587D01*
X123649500Y-76496530D01*
X100350499Y-76496530D01*
X100310130Y-76293580D01*
X100230941Y-76102402D01*
X100115977Y-75930345D01*
X100115975Y-75930342D01*
X99969657Y-75784024D01*
X99883626Y-75726541D01*
X99797598Y-75669059D01*
X99704506Y-75630499D01*
X99606420Y-75589870D01*
X99606412Y-75589868D01*
X99403469Y-75549500D01*
X99403465Y-75549500D01*
X99196535Y-75549500D01*
X99196530Y-75549500D01*
X98993587Y-75589868D01*
X98993579Y-75589870D01*
X98802403Y-75669058D01*
X98630342Y-75784024D01*
X98484024Y-75930342D01*
X98369058Y-76102403D01*
X98289870Y-76293579D01*
X98289868Y-76293587D01*
X98249500Y-76496530D01*
X68846837Y-76496530D01*
X68815980Y-76450349D01*
X68815974Y-76450341D01*
X68669657Y-76304024D01*
X68583626Y-76246541D01*
X68497598Y-76189059D01*
X68497134Y-76188867D01*
X68306420Y-76109870D01*
X68306412Y-76109868D01*
X68103469Y-76069500D01*
X68103465Y-76069500D01*
X67896535Y-76069500D01*
X67896530Y-76069500D01*
X67693587Y-76109868D01*
X67693579Y-76109870D01*
X67502403Y-76189058D01*
X67330342Y-76304024D01*
X67184024Y-76450342D01*
X67069058Y-76622403D01*
X66989870Y-76813579D01*
X66989868Y-76813587D01*
X66949500Y-77016530D01*
X61800499Y-77016530D01*
X61760130Y-76813580D01*
X61680941Y-76622402D01*
X61565977Y-76450345D01*
X61565975Y-76450342D01*
X61419657Y-76304024D01*
X61333626Y-76246541D01*
X61247598Y-76189059D01*
X61247134Y-76188867D01*
X61056420Y-76109870D01*
X61056412Y-76109868D01*
X60853469Y-76069500D01*
X60853465Y-76069500D01*
X60646535Y-76069500D01*
X60646530Y-76069500D01*
X60443587Y-76109868D01*
X60443579Y-76109870D01*
X60252403Y-76189058D01*
X60080342Y-76304024D01*
X59934024Y-76450342D01*
X59819058Y-76622403D01*
X59739870Y-76813579D01*
X59739868Y-76813587D01*
X59699500Y-77016530D01*
X56000500Y-77016530D01*
X56000500Y-74476530D01*
X59699500Y-74476530D01*
X59699500Y-74683469D01*
X59739868Y-74886412D01*
X59739870Y-74886420D01*
X59819058Y-75077596D01*
X59934024Y-75249657D01*
X60080342Y-75395975D01*
X60080345Y-75395977D01*
X60252402Y-75510941D01*
X60443580Y-75590130D01*
X60646530Y-75630499D01*
X60646534Y-75630500D01*
X60646535Y-75630500D01*
X60853466Y-75630500D01*
X60853467Y-75630499D01*
X61056420Y-75590130D01*
X61247598Y-75510941D01*
X61419655Y-75395977D01*
X61565977Y-75249655D01*
X61680941Y-75077598D01*
X61760130Y-74886420D01*
X61800500Y-74683465D01*
X61800500Y-74476535D01*
X61800499Y-74476530D01*
X66949500Y-74476530D01*
X66949500Y-74683469D01*
X66989868Y-74886412D01*
X66989870Y-74886420D01*
X67069058Y-75077596D01*
X67184024Y-75249657D01*
X67330342Y-75395975D01*
X67330345Y-75395977D01*
X67502402Y-75510941D01*
X67693580Y-75590130D01*
X67896530Y-75630499D01*
X67896534Y-75630500D01*
X67896535Y-75630500D01*
X68103466Y-75630500D01*
X68103467Y-75630499D01*
X68306420Y-75590130D01*
X68497598Y-75510941D01*
X68669655Y-75395977D01*
X68815977Y-75249655D01*
X68930941Y-75077598D01*
X68943810Y-75046530D01*
X78259500Y-75046530D01*
X78259500Y-75253469D01*
X78299868Y-75456412D01*
X78299870Y-75456420D01*
X78379058Y-75647596D01*
X78494024Y-75819657D01*
X78640342Y-75965975D01*
X78640345Y-75965977D01*
X78812402Y-76080941D01*
X79003580Y-76160130D01*
X79148052Y-76188867D01*
X79206530Y-76200499D01*
X79206534Y-76200500D01*
X79206535Y-76200500D01*
X79413466Y-76200500D01*
X79413467Y-76200499D01*
X79616420Y-76160130D01*
X79807598Y-76080941D01*
X79979655Y-75965977D01*
X80125977Y-75819655D01*
X80240941Y-75647598D01*
X80320130Y-75456420D01*
X80360500Y-75253465D01*
X80360500Y-75046535D01*
X80320130Y-74843580D01*
X80240941Y-74652402D01*
X80125977Y-74480345D01*
X80125975Y-74480342D01*
X79979657Y-74334024D01*
X79899173Y-74280247D01*
X88259500Y-74280247D01*
X88259500Y-76019752D01*
X88271131Y-76078229D01*
X88271132Y-76078230D01*
X88315447Y-76144552D01*
X88381769Y-76188867D01*
X88381770Y-76188868D01*
X88440247Y-76200499D01*
X88440250Y-76200500D01*
X88440252Y-76200500D01*
X90179750Y-76200500D01*
X90179751Y-76200499D01*
X90194568Y-76197552D01*
X90238229Y-76188868D01*
X90238229Y-76188867D01*
X90238231Y-76188867D01*
X90304552Y-76144552D01*
X90348867Y-76078231D01*
X90348867Y-76078229D01*
X90348868Y-76078229D01*
X90360499Y-76019752D01*
X90360500Y-76019750D01*
X90360500Y-74280249D01*
X90360499Y-74280247D01*
X90348868Y-74221770D01*
X90348867Y-74221769D01*
X90304552Y-74155447D01*
X90238230Y-74111132D01*
X90238229Y-74111131D01*
X90179752Y-74099500D01*
X90179748Y-74099500D01*
X88440252Y-74099500D01*
X88440247Y-74099500D01*
X88381770Y-74111131D01*
X88381769Y-74111132D01*
X88315447Y-74155447D01*
X88271132Y-74221769D01*
X88271131Y-74221770D01*
X88259500Y-74280247D01*
X79899173Y-74280247D01*
X79889195Y-74273580D01*
X79807598Y-74219059D01*
X79673385Y-74163466D01*
X79616420Y-74139870D01*
X79616412Y-74139868D01*
X79413469Y-74099500D01*
X79413465Y-74099500D01*
X79206535Y-74099500D01*
X79206530Y-74099500D01*
X79003587Y-74139868D01*
X79003579Y-74139870D01*
X78812403Y-74219058D01*
X78640342Y-74334024D01*
X78494024Y-74480342D01*
X78379058Y-74652403D01*
X78299870Y-74843579D01*
X78299868Y-74843587D01*
X78259500Y-75046530D01*
X68943810Y-75046530D01*
X69010130Y-74886420D01*
X69050500Y-74683465D01*
X69050500Y-74476535D01*
X69010130Y-74273580D01*
X68930941Y-74082402D01*
X68888800Y-74019333D01*
X68888799Y-74019330D01*
X68846837Y-73956530D01*
X98249500Y-73956530D01*
X98249500Y-74163469D01*
X98289868Y-74366412D01*
X98289870Y-74366420D01*
X98369058Y-74557596D01*
X98484024Y-74729657D01*
X98630342Y-74875975D01*
X98630345Y-74875977D01*
X98802402Y-74990941D01*
X98993580Y-75070130D01*
X99196530Y-75110499D01*
X99196534Y-75110500D01*
X99196535Y-75110500D01*
X99403466Y-75110500D01*
X99403467Y-75110499D01*
X99606420Y-75070130D01*
X99797598Y-74990941D01*
X99969655Y-74875977D01*
X100115977Y-74729655D01*
X100230941Y-74557598D01*
X100310130Y-74366420D01*
X100350500Y-74163465D01*
X100350500Y-73956535D01*
X100350499Y-73956530D01*
X123649500Y-73956530D01*
X123649500Y-74163469D01*
X123689868Y-74366412D01*
X123689870Y-74366420D01*
X123769058Y-74557596D01*
X123884024Y-74729657D01*
X124030342Y-74875975D01*
X124030345Y-74875977D01*
X124202402Y-74990941D01*
X124393580Y-75070130D01*
X124596530Y-75110499D01*
X124596534Y-75110500D01*
X124596535Y-75110500D01*
X124803466Y-75110500D01*
X124803467Y-75110499D01*
X125006420Y-75070130D01*
X125197598Y-74990941D01*
X125369655Y-74875977D01*
X125515977Y-74729655D01*
X125630941Y-74557598D01*
X125710130Y-74366420D01*
X125750500Y-74163465D01*
X125750500Y-73956535D01*
X125710130Y-73753580D01*
X125630941Y-73562402D01*
X125515977Y-73390345D01*
X125515975Y-73390342D01*
X125369657Y-73244024D01*
X125283626Y-73186541D01*
X125197598Y-73129059D01*
X125104506Y-73090499D01*
X125006420Y-73049870D01*
X125006412Y-73049868D01*
X124803469Y-73009500D01*
X124803465Y-73009500D01*
X124596535Y-73009500D01*
X124596530Y-73009500D01*
X124393587Y-73049868D01*
X124393579Y-73049870D01*
X124202403Y-73129058D01*
X124030342Y-73244024D01*
X123884024Y-73390342D01*
X123769058Y-73562403D01*
X123689870Y-73753579D01*
X123689868Y-73753587D01*
X123649500Y-73956530D01*
X100350499Y-73956530D01*
X100310130Y-73753580D01*
X100230941Y-73562402D01*
X100115977Y-73390345D01*
X100115975Y-73390342D01*
X99969657Y-73244024D01*
X99883626Y-73186541D01*
X99797598Y-73129059D01*
X99704506Y-73090499D01*
X99606420Y-73049870D01*
X99606412Y-73049868D01*
X99403469Y-73009500D01*
X99403465Y-73009500D01*
X99196535Y-73009500D01*
X99196530Y-73009500D01*
X98993587Y-73049868D01*
X98993579Y-73049870D01*
X98802403Y-73129058D01*
X98630342Y-73244024D01*
X98484024Y-73390342D01*
X98369058Y-73562403D01*
X98289870Y-73753579D01*
X98289868Y-73753587D01*
X98249500Y-73956530D01*
X68846837Y-73956530D01*
X68815980Y-73910349D01*
X68815974Y-73910341D01*
X68669657Y-73764024D01*
X68583626Y-73706541D01*
X68497598Y-73649059D01*
X68306420Y-73569870D01*
X68306412Y-73569868D01*
X68103469Y-73529500D01*
X68103465Y-73529500D01*
X67896535Y-73529500D01*
X67896530Y-73529500D01*
X67693587Y-73569868D01*
X67693579Y-73569870D01*
X67502403Y-73649058D01*
X67330342Y-73764024D01*
X67184024Y-73910342D01*
X67069058Y-74082403D01*
X66989870Y-74273579D01*
X66989868Y-74273587D01*
X66949500Y-74476530D01*
X61800499Y-74476530D01*
X61760130Y-74273580D01*
X61680941Y-74082402D01*
X61565977Y-73910345D01*
X61565975Y-73910342D01*
X61419657Y-73764024D01*
X61333626Y-73706541D01*
X61247598Y-73649059D01*
X61056420Y-73569870D01*
X61056412Y-73569868D01*
X60853469Y-73529500D01*
X60853465Y-73529500D01*
X60646535Y-73529500D01*
X60646530Y-73529500D01*
X60443587Y-73569868D01*
X60443579Y-73569870D01*
X60252403Y-73649058D01*
X60080342Y-73764024D01*
X59934024Y-73910342D01*
X59819058Y-74082403D01*
X59739870Y-74273579D01*
X59739868Y-74273587D01*
X59699500Y-74476530D01*
X56000500Y-74476530D01*
X56000500Y-71936530D01*
X59699500Y-71936530D01*
X59699500Y-72143469D01*
X59739868Y-72346412D01*
X59739870Y-72346420D01*
X59819058Y-72537596D01*
X59934024Y-72709657D01*
X60080342Y-72855975D01*
X60080345Y-72855977D01*
X60252402Y-72970941D01*
X60443580Y-73050130D01*
X60646530Y-73090499D01*
X60646534Y-73090500D01*
X60646535Y-73090500D01*
X60853466Y-73090500D01*
X60853467Y-73090499D01*
X61056420Y-73050130D01*
X61247598Y-72970941D01*
X61419655Y-72855977D01*
X61565977Y-72709655D01*
X61680941Y-72537598D01*
X61760130Y-72346420D01*
X61800500Y-72143465D01*
X61800500Y-71936535D01*
X61800499Y-71936530D01*
X66949500Y-71936530D01*
X66949500Y-72143469D01*
X66989868Y-72346412D01*
X66989870Y-72346420D01*
X67069058Y-72537596D01*
X67184024Y-72709657D01*
X67330342Y-72855975D01*
X67330345Y-72855977D01*
X67502402Y-72970941D01*
X67693580Y-73050130D01*
X67896530Y-73090499D01*
X67896534Y-73090500D01*
X67896535Y-73090500D01*
X68103466Y-73090500D01*
X68103467Y-73090499D01*
X68306420Y-73050130D01*
X68497598Y-72970941D01*
X68669655Y-72855977D01*
X68815977Y-72709655D01*
X68930941Y-72537598D01*
X69010130Y-72346420D01*
X69050500Y-72143465D01*
X69050500Y-71936535D01*
X69010130Y-71733580D01*
X68930941Y-71542402D01*
X68888800Y-71479333D01*
X68888799Y-71479330D01*
X68846837Y-71416530D01*
X98249500Y-71416530D01*
X98249500Y-71623469D01*
X98289868Y-71826412D01*
X98289870Y-71826420D01*
X98369058Y-72017596D01*
X98484024Y-72189657D01*
X98630342Y-72335975D01*
X98630345Y-72335977D01*
X98802402Y-72450941D01*
X98993580Y-72530130D01*
X99196530Y-72570499D01*
X99196534Y-72570500D01*
X99196535Y-72570500D01*
X99403466Y-72570500D01*
X99403467Y-72570499D01*
X99606420Y-72530130D01*
X99797598Y-72450941D01*
X99969655Y-72335977D01*
X100115977Y-72189655D01*
X100230941Y-72017598D01*
X100310130Y-71826420D01*
X100350500Y-71623465D01*
X100350500Y-71416535D01*
X100350499Y-71416530D01*
X123649500Y-71416530D01*
X123649500Y-71623469D01*
X123689868Y-71826412D01*
X123689870Y-71826420D01*
X123769058Y-72017596D01*
X123884024Y-72189657D01*
X124030342Y-72335975D01*
X124030345Y-72335977D01*
X124202402Y-72450941D01*
X124393580Y-72530130D01*
X124596530Y-72570499D01*
X124596534Y-72570500D01*
X124596535Y-72570500D01*
X124803466Y-72570500D01*
X124803467Y-72570499D01*
X125006420Y-72530130D01*
X125197598Y-72450941D01*
X125369655Y-72335977D01*
X125515977Y-72189655D01*
X125630941Y-72017598D01*
X125710130Y-71826420D01*
X125750500Y-71623465D01*
X125750500Y-71416535D01*
X125710130Y-71213580D01*
X125630941Y-71022402D01*
X125515977Y-70850345D01*
X125515975Y-70850342D01*
X125369657Y-70704024D01*
X125283626Y-70646541D01*
X125197598Y-70589059D01*
X125104506Y-70550499D01*
X125006420Y-70509870D01*
X125006412Y-70509868D01*
X124803469Y-70469500D01*
X124803465Y-70469500D01*
X124596535Y-70469500D01*
X124596530Y-70469500D01*
X124393587Y-70509868D01*
X124393579Y-70509870D01*
X124202403Y-70589058D01*
X124030342Y-70704024D01*
X123884024Y-70850342D01*
X123769058Y-71022403D01*
X123689870Y-71213579D01*
X123689868Y-71213587D01*
X123649500Y-71416530D01*
X100350499Y-71416530D01*
X100310130Y-71213580D01*
X100230941Y-71022402D01*
X100115977Y-70850345D01*
X100115975Y-70850342D01*
X99969657Y-70704024D01*
X99883626Y-70646541D01*
X99797598Y-70589059D01*
X99704506Y-70550499D01*
X99606420Y-70509870D01*
X99606412Y-70509868D01*
X99403469Y-70469500D01*
X99403465Y-70469500D01*
X99196535Y-70469500D01*
X99196530Y-70469500D01*
X98993587Y-70509868D01*
X98993579Y-70509870D01*
X98802403Y-70589058D01*
X98630342Y-70704024D01*
X98484024Y-70850342D01*
X98369058Y-71022403D01*
X98289870Y-71213579D01*
X98289868Y-71213587D01*
X98249500Y-71416530D01*
X68846837Y-71416530D01*
X68815980Y-71370349D01*
X68815974Y-71370341D01*
X68669657Y-71224024D01*
X68583626Y-71166541D01*
X68497598Y-71109059D01*
X68306420Y-71029870D01*
X68306412Y-71029868D01*
X68103469Y-70989500D01*
X68103465Y-70989500D01*
X67896535Y-70989500D01*
X67896530Y-70989500D01*
X67693587Y-71029868D01*
X67693579Y-71029870D01*
X67502403Y-71109058D01*
X67330342Y-71224024D01*
X67184024Y-71370342D01*
X67069058Y-71542403D01*
X66989870Y-71733579D01*
X66989868Y-71733587D01*
X66949500Y-71936530D01*
X61800499Y-71936530D01*
X61760130Y-71733580D01*
X61680941Y-71542402D01*
X61565977Y-71370345D01*
X61565975Y-71370342D01*
X61419657Y-71224024D01*
X61333626Y-71166541D01*
X61247598Y-71109059D01*
X61056420Y-71029870D01*
X61056412Y-71029868D01*
X60853469Y-70989500D01*
X60853465Y-70989500D01*
X60646535Y-70989500D01*
X60646530Y-70989500D01*
X60443587Y-71029868D01*
X60443579Y-71029870D01*
X60252403Y-71109058D01*
X60080342Y-71224024D01*
X59934024Y-71370342D01*
X59819058Y-71542403D01*
X59739870Y-71733579D01*
X59739868Y-71733587D01*
X59699500Y-71936530D01*
X56000500Y-71936530D01*
X56000500Y-69396530D01*
X59699500Y-69396530D01*
X59699500Y-69603469D01*
X59739868Y-69806412D01*
X59739870Y-69806420D01*
X59819058Y-69997596D01*
X59934024Y-70169657D01*
X60080342Y-70315975D01*
X60080345Y-70315977D01*
X60252402Y-70430941D01*
X60443580Y-70510130D01*
X60646530Y-70550499D01*
X60646534Y-70550500D01*
X60646535Y-70550500D01*
X60853466Y-70550500D01*
X60853467Y-70550499D01*
X61056420Y-70510130D01*
X61247598Y-70430941D01*
X61419655Y-70315977D01*
X61565977Y-70169655D01*
X61680941Y-69997598D01*
X61760130Y-69806420D01*
X61800500Y-69603465D01*
X61800500Y-69396535D01*
X61800499Y-69396530D01*
X66949500Y-69396530D01*
X66949500Y-69603469D01*
X66989868Y-69806412D01*
X66989870Y-69806420D01*
X67069058Y-69997596D01*
X67184024Y-70169657D01*
X67330342Y-70315975D01*
X67330345Y-70315977D01*
X67502402Y-70430941D01*
X67693580Y-70510130D01*
X67896530Y-70550499D01*
X67896534Y-70550500D01*
X67896535Y-70550500D01*
X68103466Y-70550500D01*
X68103467Y-70550499D01*
X68306420Y-70510130D01*
X68497598Y-70430941D01*
X68669655Y-70315977D01*
X68815977Y-70169655D01*
X68930941Y-69997598D01*
X69010130Y-69806420D01*
X69050500Y-69603465D01*
X69050500Y-69396535D01*
X69010130Y-69193580D01*
X68930941Y-69002402D01*
X68815977Y-68830345D01*
X68815975Y-68830342D01*
X68669657Y-68684024D01*
X68583626Y-68626541D01*
X68497598Y-68569059D01*
X68306420Y-68489870D01*
X68306412Y-68489868D01*
X68103469Y-68449500D01*
X68103465Y-68449500D01*
X67896535Y-68449500D01*
X67896530Y-68449500D01*
X67693587Y-68489868D01*
X67693579Y-68489870D01*
X67502403Y-68569058D01*
X67330342Y-68684024D01*
X67184024Y-68830342D01*
X67069058Y-69002403D01*
X66989870Y-69193579D01*
X66989868Y-69193587D01*
X66949500Y-69396530D01*
X61800499Y-69396530D01*
X61760130Y-69193580D01*
X61680941Y-69002402D01*
X61565977Y-68830345D01*
X61565975Y-68830342D01*
X61419657Y-68684024D01*
X61333626Y-68626541D01*
X61247598Y-68569059D01*
X61056420Y-68489870D01*
X61056412Y-68489868D01*
X60853469Y-68449500D01*
X60853465Y-68449500D01*
X60646535Y-68449500D01*
X60646530Y-68449500D01*
X60443587Y-68489868D01*
X60443579Y-68489870D01*
X60252403Y-68569058D01*
X60080342Y-68684024D01*
X59934024Y-68830342D01*
X59819058Y-69002403D01*
X59739870Y-69193579D01*
X59739868Y-69193587D01*
X59699500Y-69396530D01*
X56000500Y-69396530D01*
X56000500Y-68146530D01*
X78259500Y-68146530D01*
X78259500Y-68353469D01*
X78299868Y-68556412D01*
X78299870Y-68556420D01*
X78379058Y-68747596D01*
X78494024Y-68919657D01*
X78640342Y-69065975D01*
X78640345Y-69065977D01*
X78812402Y-69180941D01*
X79003580Y-69260130D01*
X79135750Y-69286420D01*
X79206530Y-69300499D01*
X79206534Y-69300500D01*
X79206535Y-69300500D01*
X79413466Y-69300500D01*
X79413467Y-69300499D01*
X79616420Y-69260130D01*
X79807598Y-69180941D01*
X79979655Y-69065977D01*
X80125977Y-68919655D01*
X80240941Y-68747598D01*
X80320130Y-68556420D01*
X80360500Y-68353465D01*
X80360500Y-68146535D01*
X80360499Y-68146530D01*
X88259500Y-68146530D01*
X88259500Y-68353469D01*
X88299868Y-68556412D01*
X88299870Y-68556420D01*
X88379058Y-68747596D01*
X88494024Y-68919657D01*
X88640342Y-69065975D01*
X88640345Y-69065977D01*
X88812402Y-69180941D01*
X89003580Y-69260130D01*
X89135750Y-69286420D01*
X89206530Y-69300499D01*
X89206534Y-69300500D01*
X89206535Y-69300500D01*
X89413466Y-69300500D01*
X89413467Y-69300499D01*
X89616420Y-69260130D01*
X89807598Y-69180941D01*
X89979655Y-69065977D01*
X90125977Y-68919655D01*
X90154792Y-68876530D01*
X98249500Y-68876530D01*
X98249500Y-69083469D01*
X98289868Y-69286412D01*
X98289870Y-69286420D01*
X98369058Y-69477596D01*
X98484024Y-69649657D01*
X98630342Y-69795975D01*
X98630345Y-69795977D01*
X98802402Y-69910941D01*
X98993580Y-69990130D01*
X99196530Y-70030499D01*
X99196534Y-70030500D01*
X99196535Y-70030500D01*
X99403466Y-70030500D01*
X99403467Y-70030499D01*
X99606420Y-69990130D01*
X99797598Y-69910941D01*
X99969655Y-69795977D01*
X100115977Y-69649655D01*
X100230941Y-69477598D01*
X100310130Y-69286420D01*
X100350500Y-69083465D01*
X100350500Y-68876535D01*
X100350499Y-68876530D01*
X123649500Y-68876530D01*
X123649500Y-69083469D01*
X123689868Y-69286412D01*
X123689870Y-69286420D01*
X123769058Y-69477596D01*
X123884024Y-69649657D01*
X124030342Y-69795975D01*
X124030345Y-69795977D01*
X124202402Y-69910941D01*
X124393580Y-69990130D01*
X124596530Y-70030499D01*
X124596534Y-70030500D01*
X124596535Y-70030500D01*
X124803466Y-70030500D01*
X124803467Y-70030499D01*
X125006420Y-69990130D01*
X125197598Y-69910941D01*
X125369655Y-69795977D01*
X125515977Y-69649655D01*
X125630941Y-69477598D01*
X125710130Y-69286420D01*
X125750500Y-69083465D01*
X125750500Y-68876535D01*
X125710130Y-68673580D01*
X125630941Y-68482402D01*
X125515977Y-68310345D01*
X125515975Y-68310342D01*
X125369657Y-68164024D01*
X125283626Y-68106541D01*
X125197598Y-68049059D01*
X125104506Y-68010499D01*
X125006420Y-67969870D01*
X125006412Y-67969868D01*
X124803469Y-67929500D01*
X124803465Y-67929500D01*
X124596535Y-67929500D01*
X124596530Y-67929500D01*
X124393587Y-67969868D01*
X124393579Y-67969870D01*
X124202403Y-68049058D01*
X124030342Y-68164024D01*
X123884024Y-68310342D01*
X123769058Y-68482403D01*
X123689870Y-68673579D01*
X123689868Y-68673587D01*
X123649500Y-68876530D01*
X100350499Y-68876530D01*
X100310130Y-68673580D01*
X100230941Y-68482402D01*
X100115977Y-68310345D01*
X100115975Y-68310342D01*
X99969657Y-68164024D01*
X99883626Y-68106541D01*
X99797598Y-68049059D01*
X99704506Y-68010499D01*
X99606420Y-67969870D01*
X99606412Y-67969868D01*
X99403469Y-67929500D01*
X99403465Y-67929500D01*
X99196535Y-67929500D01*
X99196530Y-67929500D01*
X98993587Y-67969868D01*
X98993579Y-67969870D01*
X98802403Y-68049058D01*
X98630342Y-68164024D01*
X98484024Y-68310342D01*
X98369058Y-68482403D01*
X98289870Y-68673579D01*
X98289868Y-68673587D01*
X98249500Y-68876530D01*
X90154792Y-68876530D01*
X90240941Y-68747598D01*
X90320130Y-68556420D01*
X90360500Y-68353465D01*
X90360500Y-68146535D01*
X90320130Y-67943580D01*
X90240941Y-67752402D01*
X90125977Y-67580345D01*
X90125975Y-67580342D01*
X89979657Y-67434024D01*
X89885245Y-67370941D01*
X89807598Y-67319059D01*
X89616420Y-67239870D01*
X89616412Y-67239868D01*
X89413469Y-67199500D01*
X89413465Y-67199500D01*
X89206535Y-67199500D01*
X89206530Y-67199500D01*
X89003587Y-67239868D01*
X89003579Y-67239870D01*
X88812403Y-67319058D01*
X88640342Y-67434024D01*
X88494024Y-67580342D01*
X88379058Y-67752403D01*
X88299870Y-67943579D01*
X88299868Y-67943587D01*
X88259500Y-68146530D01*
X80360499Y-68146530D01*
X80320130Y-67943580D01*
X80240941Y-67752402D01*
X80125977Y-67580345D01*
X80125975Y-67580342D01*
X79979657Y-67434024D01*
X79885245Y-67370941D01*
X79807598Y-67319059D01*
X79616420Y-67239870D01*
X79616412Y-67239868D01*
X79413469Y-67199500D01*
X79413465Y-67199500D01*
X79206535Y-67199500D01*
X79206530Y-67199500D01*
X79003587Y-67239868D01*
X79003579Y-67239870D01*
X78812403Y-67319058D01*
X78640342Y-67434024D01*
X78494024Y-67580342D01*
X78379058Y-67752403D01*
X78299870Y-67943579D01*
X78299868Y-67943587D01*
X78259500Y-68146530D01*
X56000500Y-68146530D01*
X56000500Y-66856530D01*
X59699500Y-66856530D01*
X59699500Y-67063469D01*
X59739868Y-67266412D01*
X59739870Y-67266420D01*
X59819058Y-67457596D01*
X59934024Y-67629657D01*
X60080342Y-67775975D01*
X60080345Y-67775977D01*
X60252402Y-67890941D01*
X60443580Y-67970130D01*
X60646530Y-68010499D01*
X60646534Y-68010500D01*
X60646535Y-68010500D01*
X60853466Y-68010500D01*
X60853467Y-68010499D01*
X61056420Y-67970130D01*
X61247598Y-67890941D01*
X61419655Y-67775977D01*
X61565977Y-67629655D01*
X61680941Y-67457598D01*
X61760130Y-67266420D01*
X61800500Y-67063465D01*
X61800500Y-66856535D01*
X61800499Y-66856530D01*
X66949500Y-66856530D01*
X66949500Y-67063469D01*
X66989868Y-67266412D01*
X66989870Y-67266420D01*
X67069058Y-67457596D01*
X67184024Y-67629657D01*
X67330342Y-67775975D01*
X67330345Y-67775977D01*
X67502402Y-67890941D01*
X67693580Y-67970130D01*
X67896530Y-68010499D01*
X67896534Y-68010500D01*
X67896535Y-68010500D01*
X68103466Y-68010500D01*
X68103467Y-68010499D01*
X68306420Y-67970130D01*
X68497598Y-67890941D01*
X68669655Y-67775977D01*
X68815977Y-67629655D01*
X68930941Y-67457598D01*
X69010130Y-67266420D01*
X69050500Y-67063465D01*
X69050500Y-66856535D01*
X69010130Y-66653580D01*
X68930941Y-66462402D01*
X68815977Y-66290345D01*
X68815975Y-66290342D01*
X68669657Y-66144024D01*
X68583626Y-66086541D01*
X68497598Y-66029059D01*
X68306420Y-65949870D01*
X68306412Y-65949868D01*
X68103469Y-65909500D01*
X68103465Y-65909500D01*
X67896535Y-65909500D01*
X67896530Y-65909500D01*
X67693587Y-65949868D01*
X67693579Y-65949870D01*
X67502403Y-66029058D01*
X67330342Y-66144024D01*
X67184024Y-66290342D01*
X67069058Y-66462403D01*
X66989870Y-66653579D01*
X66989868Y-66653587D01*
X66949500Y-66856530D01*
X61800499Y-66856530D01*
X61760130Y-66653580D01*
X61680941Y-66462402D01*
X61565977Y-66290345D01*
X61565975Y-66290342D01*
X61419657Y-66144024D01*
X61333626Y-66086541D01*
X61247598Y-66029059D01*
X61056420Y-65949870D01*
X61056412Y-65949868D01*
X60853469Y-65909500D01*
X60853465Y-65909500D01*
X60646535Y-65909500D01*
X60646530Y-65909500D01*
X60443587Y-65949868D01*
X60443579Y-65949870D01*
X60252403Y-66029058D01*
X60080342Y-66144024D01*
X59934024Y-66290342D01*
X59819058Y-66462403D01*
X59739870Y-66653579D01*
X59739868Y-66653587D01*
X59699500Y-66856530D01*
X56000500Y-66856530D01*
X56000500Y-65606530D01*
X78259500Y-65606530D01*
X78259500Y-65813469D01*
X78299868Y-66016412D01*
X78299870Y-66016420D01*
X78379058Y-66207596D01*
X78494024Y-66379657D01*
X78640342Y-66525975D01*
X78640345Y-66525977D01*
X78812402Y-66640941D01*
X79003580Y-66720130D01*
X79135750Y-66746420D01*
X79206530Y-66760499D01*
X79206534Y-66760500D01*
X79206535Y-66760500D01*
X79413466Y-66760500D01*
X79413467Y-66760499D01*
X79616420Y-66720130D01*
X79807598Y-66640941D01*
X79979655Y-66525977D01*
X80125977Y-66379655D01*
X80240941Y-66207598D01*
X80320130Y-66016420D01*
X80360500Y-65813465D01*
X80360500Y-65606535D01*
X80360499Y-65606530D01*
X88259500Y-65606530D01*
X88259500Y-65813469D01*
X88299868Y-66016412D01*
X88299870Y-66016420D01*
X88379058Y-66207596D01*
X88494024Y-66379657D01*
X88640342Y-66525975D01*
X88640345Y-66525977D01*
X88812402Y-66640941D01*
X89003580Y-66720130D01*
X89135750Y-66746420D01*
X89206530Y-66760499D01*
X89206534Y-66760500D01*
X89206535Y-66760500D01*
X89413466Y-66760500D01*
X89413467Y-66760499D01*
X89616420Y-66720130D01*
X89807598Y-66640941D01*
X89979655Y-66525977D01*
X90125977Y-66379655D01*
X90154792Y-66336530D01*
X98249500Y-66336530D01*
X98249500Y-66543469D01*
X98289868Y-66746412D01*
X98289870Y-66746420D01*
X98369058Y-66937596D01*
X98484024Y-67109657D01*
X98630342Y-67255975D01*
X98630345Y-67255977D01*
X98802402Y-67370941D01*
X98993580Y-67450130D01*
X99196530Y-67490499D01*
X99196534Y-67490500D01*
X99196535Y-67490500D01*
X99403466Y-67490500D01*
X99403467Y-67490499D01*
X99606420Y-67450130D01*
X99797598Y-67370941D01*
X99969655Y-67255977D01*
X100115977Y-67109655D01*
X100230941Y-66937598D01*
X100310130Y-66746420D01*
X100350500Y-66543465D01*
X100350500Y-66336535D01*
X100350499Y-66336530D01*
X123649500Y-66336530D01*
X123649500Y-66543469D01*
X123689868Y-66746412D01*
X123689870Y-66746420D01*
X123769058Y-66937596D01*
X123884024Y-67109657D01*
X124030342Y-67255975D01*
X124030345Y-67255977D01*
X124202402Y-67370941D01*
X124393580Y-67450130D01*
X124596530Y-67490499D01*
X124596534Y-67490500D01*
X124596535Y-67490500D01*
X124803466Y-67490500D01*
X124803467Y-67490499D01*
X125006420Y-67450130D01*
X125197598Y-67370941D01*
X125369655Y-67255977D01*
X125515977Y-67109655D01*
X125630941Y-66937598D01*
X125710130Y-66746420D01*
X125750500Y-66543465D01*
X125750500Y-66336535D01*
X125710130Y-66133580D01*
X125630941Y-65942402D01*
X125515977Y-65770345D01*
X125515975Y-65770342D01*
X125369657Y-65624024D01*
X125283626Y-65566541D01*
X125197598Y-65509059D01*
X125104506Y-65470499D01*
X125006420Y-65429870D01*
X125006412Y-65429868D01*
X124803469Y-65389500D01*
X124803465Y-65389500D01*
X124596535Y-65389500D01*
X124596530Y-65389500D01*
X124393587Y-65429868D01*
X124393579Y-65429870D01*
X124202403Y-65509058D01*
X124030342Y-65624024D01*
X123884024Y-65770342D01*
X123769058Y-65942403D01*
X123689870Y-66133579D01*
X123689868Y-66133587D01*
X123649500Y-66336530D01*
X100350499Y-66336530D01*
X100310130Y-66133580D01*
X100230941Y-65942402D01*
X100115977Y-65770345D01*
X100115975Y-65770342D01*
X99969657Y-65624024D01*
X99883626Y-65566541D01*
X99797598Y-65509059D01*
X99704506Y-65470499D01*
X99606420Y-65429870D01*
X99606412Y-65429868D01*
X99403469Y-65389500D01*
X99403465Y-65389500D01*
X99196535Y-65389500D01*
X99196530Y-65389500D01*
X98993587Y-65429868D01*
X98993579Y-65429870D01*
X98802403Y-65509058D01*
X98630342Y-65624024D01*
X98484024Y-65770342D01*
X98369058Y-65942403D01*
X98289870Y-66133579D01*
X98289868Y-66133587D01*
X98249500Y-66336530D01*
X90154792Y-66336530D01*
X90240941Y-66207598D01*
X90320130Y-66016420D01*
X90360500Y-65813465D01*
X90360500Y-65606535D01*
X90320130Y-65403580D01*
X90240941Y-65212402D01*
X90125977Y-65040345D01*
X90125975Y-65040342D01*
X89979657Y-64894024D01*
X89885245Y-64830941D01*
X89807598Y-64779059D01*
X89616420Y-64699870D01*
X89616412Y-64699868D01*
X89413469Y-64659500D01*
X89413465Y-64659500D01*
X89206535Y-64659500D01*
X89206530Y-64659500D01*
X89003587Y-64699868D01*
X89003579Y-64699870D01*
X88812403Y-64779058D01*
X88640342Y-64894024D01*
X88494024Y-65040342D01*
X88379058Y-65212403D01*
X88299870Y-65403579D01*
X88299868Y-65403587D01*
X88259500Y-65606530D01*
X80360499Y-65606530D01*
X80320130Y-65403580D01*
X80240941Y-65212402D01*
X80125977Y-65040345D01*
X80125975Y-65040342D01*
X79979657Y-64894024D01*
X79885245Y-64830941D01*
X79807598Y-64779059D01*
X79616420Y-64699870D01*
X79616412Y-64699868D01*
X79413469Y-64659500D01*
X79413465Y-64659500D01*
X79206535Y-64659500D01*
X79206530Y-64659500D01*
X79003587Y-64699868D01*
X79003579Y-64699870D01*
X78812403Y-64779058D01*
X78640342Y-64894024D01*
X78494024Y-65040342D01*
X78379058Y-65212403D01*
X78299870Y-65403579D01*
X78299868Y-65403587D01*
X78259500Y-65606530D01*
X56000500Y-65606530D01*
X56000500Y-64316530D01*
X59699500Y-64316530D01*
X59699500Y-64523469D01*
X59739868Y-64726412D01*
X59739870Y-64726420D01*
X59819058Y-64917596D01*
X59934024Y-65089657D01*
X60080342Y-65235975D01*
X60080345Y-65235977D01*
X60252402Y-65350941D01*
X60443580Y-65430130D01*
X60646530Y-65470499D01*
X60646534Y-65470500D01*
X60646535Y-65470500D01*
X60853466Y-65470500D01*
X60853467Y-65470499D01*
X61056420Y-65430130D01*
X61247598Y-65350941D01*
X61419655Y-65235977D01*
X61565977Y-65089655D01*
X61680941Y-64917598D01*
X61760130Y-64726420D01*
X61800500Y-64523465D01*
X61800500Y-64316535D01*
X61800499Y-64316530D01*
X66949500Y-64316530D01*
X66949500Y-64523469D01*
X66989868Y-64726412D01*
X66989870Y-64726420D01*
X67069058Y-64917596D01*
X67184024Y-65089657D01*
X67330342Y-65235975D01*
X67330345Y-65235977D01*
X67502402Y-65350941D01*
X67693580Y-65430130D01*
X67896530Y-65470499D01*
X67896534Y-65470500D01*
X67896535Y-65470500D01*
X68103466Y-65470500D01*
X68103467Y-65470499D01*
X68306420Y-65430130D01*
X68497598Y-65350941D01*
X68669655Y-65235977D01*
X68815977Y-65089655D01*
X68930941Y-64917598D01*
X69010130Y-64726420D01*
X69050500Y-64523465D01*
X69050500Y-64316535D01*
X69010130Y-64113580D01*
X68930941Y-63922402D01*
X68815977Y-63750345D01*
X68815975Y-63750342D01*
X68669657Y-63604024D01*
X68583626Y-63546541D01*
X68497598Y-63489059D01*
X68306420Y-63409870D01*
X68306412Y-63409868D01*
X68103469Y-63369500D01*
X68103465Y-63369500D01*
X67896535Y-63369500D01*
X67896530Y-63369500D01*
X67693587Y-63409868D01*
X67693579Y-63409870D01*
X67502403Y-63489058D01*
X67330342Y-63604024D01*
X67184024Y-63750342D01*
X67069058Y-63922403D01*
X66989870Y-64113579D01*
X66989868Y-64113587D01*
X66949500Y-64316530D01*
X61800499Y-64316530D01*
X61760130Y-64113580D01*
X61680941Y-63922402D01*
X61565977Y-63750345D01*
X61565975Y-63750342D01*
X61419657Y-63604024D01*
X61333626Y-63546541D01*
X61247598Y-63489059D01*
X61056420Y-63409870D01*
X61056412Y-63409868D01*
X60853469Y-63369500D01*
X60853465Y-63369500D01*
X60646535Y-63369500D01*
X60646530Y-63369500D01*
X60443587Y-63409868D01*
X60443579Y-63409870D01*
X60252403Y-63489058D01*
X60080342Y-63604024D01*
X59934024Y-63750342D01*
X59819058Y-63922403D01*
X59739870Y-64113579D01*
X59739868Y-64113587D01*
X59699500Y-64316530D01*
X56000500Y-64316530D01*
X56000500Y-61776530D01*
X59699500Y-61776530D01*
X59699500Y-61983469D01*
X59739868Y-62186412D01*
X59739870Y-62186420D01*
X59819058Y-62377596D01*
X59934024Y-62549657D01*
X60080342Y-62695975D01*
X60080345Y-62695977D01*
X60252402Y-62810941D01*
X60443580Y-62890130D01*
X60646530Y-62930499D01*
X60646534Y-62930500D01*
X60646535Y-62930500D01*
X60853466Y-62930500D01*
X60853467Y-62930499D01*
X61056420Y-62890130D01*
X61247598Y-62810941D01*
X61419655Y-62695977D01*
X61565977Y-62549655D01*
X61680941Y-62377598D01*
X61760130Y-62186420D01*
X61800500Y-61983465D01*
X61800500Y-61776535D01*
X61800499Y-61776530D01*
X66949500Y-61776530D01*
X66949500Y-61983469D01*
X66989868Y-62186412D01*
X66989870Y-62186420D01*
X67069058Y-62377596D01*
X67184024Y-62549657D01*
X67330342Y-62695975D01*
X67330345Y-62695977D01*
X67502402Y-62810941D01*
X67693580Y-62890130D01*
X67896530Y-62930499D01*
X67896534Y-62930500D01*
X67896535Y-62930500D01*
X68103466Y-62930500D01*
X68103467Y-62930499D01*
X68306420Y-62890130D01*
X68497598Y-62810941D01*
X68669655Y-62695977D01*
X68815977Y-62549655D01*
X68930941Y-62377598D01*
X69010130Y-62186420D01*
X69050500Y-61983465D01*
X69050500Y-61776535D01*
X69010130Y-61573580D01*
X68930941Y-61382402D01*
X68815977Y-61210345D01*
X68815975Y-61210342D01*
X68669657Y-61064024D01*
X68549224Y-60983554D01*
X68497598Y-60949059D01*
X68306420Y-60869870D01*
X68306412Y-60869868D01*
X68103469Y-60829500D01*
X68103465Y-60829500D01*
X67896535Y-60829500D01*
X67896530Y-60829500D01*
X67693587Y-60869868D01*
X67693579Y-60869870D01*
X67502403Y-60949058D01*
X67330342Y-61064024D01*
X67184024Y-61210342D01*
X67069058Y-61382403D01*
X66989870Y-61573579D01*
X66989868Y-61573587D01*
X66949500Y-61776530D01*
X61800499Y-61776530D01*
X61760130Y-61573580D01*
X61680941Y-61382402D01*
X61565977Y-61210345D01*
X61565975Y-61210342D01*
X61419657Y-61064024D01*
X61299224Y-60983554D01*
X61247598Y-60949059D01*
X61056420Y-60869870D01*
X61056412Y-60869868D01*
X60853469Y-60829500D01*
X60853465Y-60829500D01*
X60646535Y-60829500D01*
X60646530Y-60829500D01*
X60443587Y-60869868D01*
X60443579Y-60869870D01*
X60252403Y-60949058D01*
X60080342Y-61064024D01*
X59934024Y-61210342D01*
X59819058Y-61382403D01*
X59739870Y-61573579D01*
X59739868Y-61573587D01*
X59699500Y-61776530D01*
X56000500Y-61776530D01*
X56000500Y-60523753D01*
X77960000Y-60523753D01*
X77960000Y-60736246D01*
X77993242Y-60946127D01*
X77993242Y-60946130D01*
X78058904Y-61148217D01*
X78155375Y-61337550D01*
X78194728Y-61391716D01*
X78827037Y-60759408D01*
X78844075Y-60822993D01*
X78909901Y-60937007D01*
X79002993Y-61030099D01*
X79117007Y-61095925D01*
X79180590Y-61112962D01*
X78548282Y-61745269D01*
X78548282Y-61745270D01*
X78602449Y-61784624D01*
X78791782Y-61881095D01*
X78967973Y-61938343D01*
X79025648Y-61977780D01*
X79052847Y-62042139D01*
X79040932Y-62110985D01*
X78993688Y-62162461D01*
X78977108Y-62170835D01*
X78812403Y-62239057D01*
X78640342Y-62354024D01*
X78494024Y-62500342D01*
X78379058Y-62672403D01*
X78299870Y-62863579D01*
X78299868Y-62863587D01*
X78259500Y-63066530D01*
X78259500Y-63273469D01*
X78299868Y-63476412D01*
X78299870Y-63476420D01*
X78379058Y-63667596D01*
X78494024Y-63839657D01*
X78640342Y-63985975D01*
X78640345Y-63985977D01*
X78812402Y-64100941D01*
X79003580Y-64180130D01*
X79135750Y-64206420D01*
X79206530Y-64220499D01*
X79206534Y-64220500D01*
X79206535Y-64220500D01*
X79413466Y-64220500D01*
X79413467Y-64220499D01*
X79616420Y-64180130D01*
X79807598Y-64100941D01*
X79979655Y-63985977D01*
X80125977Y-63839655D01*
X80240941Y-63667598D01*
X80320130Y-63476420D01*
X80360500Y-63273465D01*
X80360500Y-63066535D01*
X80320130Y-62863580D01*
X80240941Y-62672402D01*
X80125977Y-62500345D01*
X80125975Y-62500342D01*
X79979657Y-62354024D01*
X79885245Y-62290941D01*
X79807598Y-62239059D01*
X79807593Y-62239057D01*
X79680517Y-62186420D01*
X79642890Y-62170834D01*
X79588488Y-62126994D01*
X79566423Y-62060700D01*
X79583702Y-61993001D01*
X79634839Y-61945390D01*
X79652026Y-61938343D01*
X79828217Y-61881095D01*
X80017554Y-61784622D01*
X80071716Y-61745270D01*
X80071717Y-61745270D01*
X79439408Y-61112962D01*
X79502993Y-61095925D01*
X79617007Y-61030099D01*
X79710099Y-60937007D01*
X79775925Y-60822993D01*
X79792962Y-60759408D01*
X80425270Y-61391717D01*
X80425270Y-61391716D01*
X80464622Y-61337554D01*
X80561095Y-61148217D01*
X80626757Y-60946130D01*
X80626757Y-60946127D01*
X80660000Y-60736246D01*
X80660000Y-60523753D01*
X87960000Y-60523753D01*
X87960000Y-60736246D01*
X87993242Y-60946127D01*
X87993242Y-60946130D01*
X88058904Y-61148217D01*
X88155375Y-61337550D01*
X88194728Y-61391716D01*
X88827037Y-60759408D01*
X88844075Y-60822993D01*
X88909901Y-60937007D01*
X89002993Y-61030099D01*
X89117007Y-61095925D01*
X89180590Y-61112962D01*
X88548282Y-61745269D01*
X88548282Y-61745270D01*
X88602449Y-61784624D01*
X88791782Y-61881095D01*
X88967973Y-61938343D01*
X89025648Y-61977780D01*
X89052847Y-62042139D01*
X89040932Y-62110985D01*
X88993688Y-62162461D01*
X88977108Y-62170835D01*
X88812403Y-62239057D01*
X88640342Y-62354024D01*
X88494024Y-62500342D01*
X88379058Y-62672403D01*
X88299870Y-62863579D01*
X88299868Y-62863587D01*
X88259500Y-63066530D01*
X88259500Y-63273469D01*
X88299868Y-63476412D01*
X88299870Y-63476420D01*
X88379058Y-63667596D01*
X88494024Y-63839657D01*
X88640342Y-63985975D01*
X88640345Y-63985977D01*
X88812402Y-64100941D01*
X89003580Y-64180130D01*
X89135750Y-64206420D01*
X89206530Y-64220499D01*
X89206534Y-64220500D01*
X89206535Y-64220500D01*
X89413466Y-64220500D01*
X89413467Y-64220499D01*
X89616420Y-64180130D01*
X89807598Y-64100941D01*
X89979655Y-63985977D01*
X90125977Y-63839655D01*
X90154792Y-63796530D01*
X98249500Y-63796530D01*
X98249500Y-64003469D01*
X98289868Y-64206412D01*
X98289870Y-64206420D01*
X98369058Y-64397596D01*
X98484024Y-64569657D01*
X98630342Y-64715975D01*
X98630345Y-64715977D01*
X98802402Y-64830941D01*
X98993580Y-64910130D01*
X99196530Y-64950499D01*
X99196534Y-64950500D01*
X99196535Y-64950500D01*
X99403466Y-64950500D01*
X99403467Y-64950499D01*
X99606420Y-64910130D01*
X99797598Y-64830941D01*
X99969655Y-64715977D01*
X100115977Y-64569655D01*
X100230941Y-64397598D01*
X100310130Y-64206420D01*
X100350500Y-64003465D01*
X100350500Y-63796535D01*
X100350499Y-63796530D01*
X123649500Y-63796530D01*
X123649500Y-64003469D01*
X123689868Y-64206412D01*
X123689870Y-64206420D01*
X123769058Y-64397596D01*
X123884024Y-64569657D01*
X124030342Y-64715975D01*
X124030345Y-64715977D01*
X124202402Y-64830941D01*
X124393580Y-64910130D01*
X124596530Y-64950499D01*
X124596534Y-64950500D01*
X124596535Y-64950500D01*
X124803466Y-64950500D01*
X124803467Y-64950499D01*
X125006420Y-64910130D01*
X125197598Y-64830941D01*
X125369655Y-64715977D01*
X125515977Y-64569655D01*
X125630941Y-64397598D01*
X125710130Y-64206420D01*
X125750500Y-64003465D01*
X125750500Y-63796535D01*
X125710130Y-63593580D01*
X125630941Y-63402402D01*
X125515977Y-63230345D01*
X125515975Y-63230342D01*
X125369657Y-63084024D01*
X125283626Y-63026541D01*
X125197598Y-62969059D01*
X125104506Y-62930499D01*
X125006420Y-62889870D01*
X125006412Y-62889868D01*
X124803469Y-62849500D01*
X124803465Y-62849500D01*
X124596535Y-62849500D01*
X124596530Y-62849500D01*
X124393587Y-62889868D01*
X124393579Y-62889870D01*
X124202403Y-62969058D01*
X124030342Y-63084024D01*
X123884024Y-63230342D01*
X123769058Y-63402403D01*
X123689870Y-63593579D01*
X123689868Y-63593587D01*
X123649500Y-63796530D01*
X100350499Y-63796530D01*
X100310130Y-63593580D01*
X100230941Y-63402402D01*
X100115977Y-63230345D01*
X100115975Y-63230342D01*
X99969657Y-63084024D01*
X99883626Y-63026541D01*
X99797598Y-62969059D01*
X99704506Y-62930499D01*
X99606420Y-62889870D01*
X99606412Y-62889868D01*
X99403469Y-62849500D01*
X99403465Y-62849500D01*
X99196535Y-62849500D01*
X99196530Y-62849500D01*
X98993587Y-62889868D01*
X98993579Y-62889870D01*
X98802403Y-62969058D01*
X98630342Y-63084024D01*
X98484024Y-63230342D01*
X98369058Y-63402403D01*
X98289870Y-63593579D01*
X98289868Y-63593587D01*
X98249500Y-63796530D01*
X90154792Y-63796530D01*
X90240941Y-63667598D01*
X90320130Y-63476420D01*
X90360500Y-63273465D01*
X90360500Y-63066535D01*
X90320130Y-62863580D01*
X90240941Y-62672402D01*
X90125977Y-62500345D01*
X90125975Y-62500342D01*
X89979657Y-62354024D01*
X89885245Y-62290941D01*
X89807598Y-62239059D01*
X89807593Y-62239057D01*
X89680517Y-62186420D01*
X89642890Y-62170834D01*
X89588488Y-62126994D01*
X89566423Y-62060700D01*
X89583702Y-61993001D01*
X89634839Y-61945390D01*
X89652026Y-61938343D01*
X89828217Y-61881095D01*
X90017554Y-61784622D01*
X90071716Y-61745270D01*
X90071717Y-61745270D01*
X89439408Y-61112962D01*
X89502993Y-61095925D01*
X89617007Y-61030099D01*
X89710099Y-60937007D01*
X89775925Y-60822993D01*
X89792962Y-60759408D01*
X90425270Y-61391717D01*
X90425270Y-61391716D01*
X90464622Y-61337554D01*
X90505906Y-61256530D01*
X98249500Y-61256530D01*
X98249500Y-61463469D01*
X98289868Y-61666412D01*
X98289870Y-61666420D01*
X98369058Y-61857596D01*
X98484024Y-62029657D01*
X98630342Y-62175975D01*
X98630345Y-62175977D01*
X98802402Y-62290941D01*
X98993580Y-62370130D01*
X99196530Y-62410499D01*
X99196534Y-62410500D01*
X99196535Y-62410500D01*
X99403466Y-62410500D01*
X99403467Y-62410499D01*
X99606420Y-62370130D01*
X99797598Y-62290941D01*
X99969655Y-62175977D01*
X100115977Y-62029655D01*
X100230941Y-61857598D01*
X100310130Y-61666420D01*
X100350500Y-61463465D01*
X100350500Y-61256535D01*
X100350499Y-61256530D01*
X123649500Y-61256530D01*
X123649500Y-61463469D01*
X123689868Y-61666412D01*
X123689870Y-61666420D01*
X123769058Y-61857596D01*
X123884024Y-62029657D01*
X124030342Y-62175975D01*
X124030345Y-62175977D01*
X124202402Y-62290941D01*
X124393580Y-62370130D01*
X124596530Y-62410499D01*
X124596534Y-62410500D01*
X124596535Y-62410500D01*
X124803466Y-62410500D01*
X124803467Y-62410499D01*
X125006420Y-62370130D01*
X125197598Y-62290941D01*
X125369655Y-62175977D01*
X125515977Y-62029655D01*
X125630941Y-61857598D01*
X125710130Y-61666420D01*
X125750500Y-61463465D01*
X125750500Y-61256535D01*
X125710130Y-61053580D01*
X125630941Y-60862402D01*
X125515977Y-60690345D01*
X125515975Y-60690342D01*
X125369657Y-60544024D01*
X125209493Y-60437007D01*
X125197598Y-60429059D01*
X125104506Y-60390499D01*
X125006420Y-60349870D01*
X125006412Y-60349868D01*
X124803469Y-60309500D01*
X124803465Y-60309500D01*
X124596535Y-60309500D01*
X124596530Y-60309500D01*
X124393587Y-60349868D01*
X124393579Y-60349870D01*
X124202403Y-60429058D01*
X124030342Y-60544024D01*
X123884024Y-60690342D01*
X123769058Y-60862403D01*
X123689870Y-61053579D01*
X123689868Y-61053587D01*
X123649500Y-61256530D01*
X100350499Y-61256530D01*
X100310130Y-61053580D01*
X100230941Y-60862402D01*
X100115977Y-60690345D01*
X100115975Y-60690342D01*
X99969657Y-60544024D01*
X99809493Y-60437007D01*
X99797598Y-60429059D01*
X99704506Y-60390499D01*
X99606420Y-60349870D01*
X99606412Y-60349868D01*
X99403469Y-60309500D01*
X99403465Y-60309500D01*
X99196535Y-60309500D01*
X99196530Y-60309500D01*
X98993587Y-60349868D01*
X98993579Y-60349870D01*
X98802403Y-60429058D01*
X98630342Y-60544024D01*
X98484024Y-60690342D01*
X98369058Y-60862403D01*
X98289870Y-61053579D01*
X98289868Y-61053587D01*
X98249500Y-61256530D01*
X90505906Y-61256530D01*
X90537692Y-61194148D01*
X90537693Y-61194146D01*
X90561094Y-61148219D01*
X90626757Y-60946130D01*
X90626757Y-60946127D01*
X90660000Y-60736246D01*
X90660000Y-60523753D01*
X90626757Y-60313872D01*
X90626757Y-60313869D01*
X90561095Y-60111782D01*
X90464624Y-59922449D01*
X90425270Y-59868282D01*
X90425269Y-59868282D01*
X89792962Y-60500590D01*
X89775925Y-60437007D01*
X89710099Y-60322993D01*
X89617007Y-60229901D01*
X89502993Y-60164075D01*
X89439409Y-60147037D01*
X90071716Y-59514728D01*
X90017550Y-59475375D01*
X89828216Y-59378904D01*
X89652026Y-59321656D01*
X89594350Y-59282218D01*
X89567152Y-59217860D01*
X89579067Y-59149013D01*
X89626311Y-59097538D01*
X89642882Y-59089168D01*
X89807598Y-59020941D01*
X89979655Y-58905977D01*
X90125977Y-58759655D01*
X90154792Y-58716530D01*
X98249500Y-58716530D01*
X98249500Y-58923469D01*
X98289868Y-59126412D01*
X98289870Y-59126420D01*
X98369059Y-59317598D01*
X98410022Y-59378904D01*
X98484024Y-59489657D01*
X98630342Y-59635975D01*
X98630345Y-59635977D01*
X98802402Y-59750941D01*
X98993580Y-59830130D01*
X99185384Y-59868282D01*
X99196530Y-59870499D01*
X99196534Y-59870500D01*
X99196535Y-59870500D01*
X99403466Y-59870500D01*
X99403467Y-59870499D01*
X99606420Y-59830130D01*
X99797598Y-59750941D01*
X99969655Y-59635977D01*
X100115977Y-59489655D01*
X100230941Y-59317598D01*
X100310130Y-59126420D01*
X100350500Y-58923465D01*
X100350500Y-58716535D01*
X100350499Y-58716530D01*
X123649500Y-58716530D01*
X123649500Y-58923469D01*
X123689868Y-59126412D01*
X123689870Y-59126420D01*
X123769059Y-59317598D01*
X123810022Y-59378904D01*
X123884024Y-59489657D01*
X124030342Y-59635975D01*
X124030345Y-59635977D01*
X124202402Y-59750941D01*
X124393580Y-59830130D01*
X124585384Y-59868282D01*
X124596530Y-59870499D01*
X124596534Y-59870500D01*
X124596535Y-59870500D01*
X124803466Y-59870500D01*
X124803467Y-59870499D01*
X125006420Y-59830130D01*
X125197598Y-59750941D01*
X125369655Y-59635977D01*
X125515977Y-59489655D01*
X125630941Y-59317598D01*
X125710130Y-59126420D01*
X125750500Y-58923465D01*
X125750500Y-58716535D01*
X125710130Y-58513580D01*
X125630941Y-58322402D01*
X125515977Y-58150345D01*
X125515975Y-58150342D01*
X125369657Y-58004024D01*
X125283626Y-57946541D01*
X125197598Y-57889059D01*
X125104506Y-57850499D01*
X125006420Y-57809870D01*
X125006412Y-57809868D01*
X124803469Y-57769500D01*
X124803465Y-57769500D01*
X124596535Y-57769500D01*
X124596530Y-57769500D01*
X124393587Y-57809868D01*
X124393579Y-57809870D01*
X124202403Y-57889058D01*
X124030342Y-58004024D01*
X123884024Y-58150342D01*
X123769058Y-58322403D01*
X123689870Y-58513579D01*
X123689868Y-58513587D01*
X123649500Y-58716530D01*
X100350499Y-58716530D01*
X100310130Y-58513580D01*
X100230941Y-58322402D01*
X100115977Y-58150345D01*
X100115975Y-58150342D01*
X99969657Y-58004024D01*
X99883626Y-57946541D01*
X99797598Y-57889059D01*
X99704506Y-57850499D01*
X99606420Y-57809870D01*
X99606412Y-57809868D01*
X99403469Y-57769500D01*
X99403465Y-57769500D01*
X99196535Y-57769500D01*
X99196530Y-57769500D01*
X98993587Y-57809868D01*
X98993579Y-57809870D01*
X98802403Y-57889058D01*
X98630342Y-58004024D01*
X98484024Y-58150342D01*
X98369058Y-58322403D01*
X98289870Y-58513579D01*
X98289868Y-58513587D01*
X98249500Y-58716530D01*
X90154792Y-58716530D01*
X90240941Y-58587598D01*
X90320130Y-58396420D01*
X90360500Y-58193465D01*
X90360500Y-57986535D01*
X90320130Y-57783580D01*
X90240941Y-57592402D01*
X90125977Y-57420345D01*
X90125975Y-57420342D01*
X89979657Y-57274024D01*
X89885245Y-57210941D01*
X89807598Y-57159059D01*
X89616420Y-57079870D01*
X89616412Y-57079868D01*
X89413469Y-57039500D01*
X89413465Y-57039500D01*
X89206535Y-57039500D01*
X89206530Y-57039500D01*
X89003587Y-57079868D01*
X89003579Y-57079870D01*
X88812403Y-57159058D01*
X88640342Y-57274024D01*
X88494024Y-57420342D01*
X88379058Y-57592403D01*
X88299870Y-57783579D01*
X88299868Y-57783587D01*
X88259500Y-57986530D01*
X88259500Y-58193469D01*
X88299868Y-58396412D01*
X88299870Y-58396420D01*
X88379058Y-58587596D01*
X88494024Y-58759657D01*
X88640342Y-58905975D01*
X88812405Y-59020943D01*
X88915043Y-59063456D01*
X88977108Y-59089164D01*
X89031511Y-59133005D01*
X89053576Y-59199299D01*
X89036297Y-59266998D01*
X88985160Y-59314609D01*
X88967974Y-59321656D01*
X88791781Y-59378905D01*
X88602439Y-59475380D01*
X88548282Y-59514727D01*
X88548282Y-59514728D01*
X89180591Y-60147037D01*
X89117007Y-60164075D01*
X89002993Y-60229901D01*
X88909901Y-60322993D01*
X88844075Y-60437007D01*
X88827037Y-60500591D01*
X88194728Y-59868282D01*
X88194727Y-59868282D01*
X88155380Y-59922439D01*
X88058904Y-60111782D01*
X87993242Y-60313869D01*
X87993242Y-60313872D01*
X87960000Y-60523753D01*
X80660000Y-60523753D01*
X80626757Y-60313872D01*
X80626757Y-60313869D01*
X80561095Y-60111782D01*
X80464624Y-59922449D01*
X80425270Y-59868282D01*
X80425269Y-59868282D01*
X79792962Y-60500590D01*
X79775925Y-60437007D01*
X79710099Y-60322993D01*
X79617007Y-60229901D01*
X79502993Y-60164075D01*
X79439409Y-60147037D01*
X80071716Y-59514728D01*
X80017550Y-59475375D01*
X79828216Y-59378904D01*
X79652026Y-59321656D01*
X79594350Y-59282218D01*
X79567152Y-59217860D01*
X79579067Y-59149013D01*
X79626311Y-59097538D01*
X79642882Y-59089168D01*
X79807598Y-59020941D01*
X79979655Y-58905977D01*
X80125977Y-58759655D01*
X80240941Y-58587598D01*
X80320130Y-58396420D01*
X80360500Y-58193465D01*
X80360500Y-57986535D01*
X80320130Y-57783580D01*
X80240941Y-57592402D01*
X80125977Y-57420345D01*
X80125975Y-57420342D01*
X79979657Y-57274024D01*
X79885245Y-57210941D01*
X79807598Y-57159059D01*
X79616420Y-57079870D01*
X79616412Y-57079868D01*
X79413469Y-57039500D01*
X79413465Y-57039500D01*
X79206535Y-57039500D01*
X79206530Y-57039500D01*
X79003587Y-57079868D01*
X79003579Y-57079870D01*
X78812403Y-57159058D01*
X78640342Y-57274024D01*
X78494024Y-57420342D01*
X78379058Y-57592403D01*
X78299870Y-57783579D01*
X78299868Y-57783587D01*
X78259500Y-57986530D01*
X78259500Y-58193469D01*
X78299868Y-58396412D01*
X78299870Y-58396420D01*
X78379058Y-58587596D01*
X78494024Y-58759657D01*
X78640342Y-58905975D01*
X78812405Y-59020943D01*
X78915043Y-59063456D01*
X78977108Y-59089164D01*
X79031511Y-59133005D01*
X79053576Y-59199299D01*
X79036297Y-59266998D01*
X78985160Y-59314609D01*
X78967974Y-59321656D01*
X78791781Y-59378905D01*
X78602439Y-59475380D01*
X78548282Y-59514727D01*
X78548282Y-59514728D01*
X79180591Y-60147037D01*
X79117007Y-60164075D01*
X79002993Y-60229901D01*
X78909901Y-60322993D01*
X78844075Y-60437007D01*
X78827037Y-60500591D01*
X78194728Y-59868282D01*
X78194727Y-59868282D01*
X78155380Y-59922439D01*
X78058904Y-60111782D01*
X77993242Y-60313869D01*
X77993242Y-60313872D01*
X77960000Y-60523753D01*
X56000500Y-60523753D01*
X56000500Y-59236530D01*
X59699500Y-59236530D01*
X59699500Y-59443469D01*
X59739868Y-59646412D01*
X59739870Y-59646420D01*
X59819058Y-59837596D01*
X59934024Y-60009657D01*
X60080342Y-60155975D01*
X60080345Y-60155977D01*
X60252402Y-60270941D01*
X60443580Y-60350130D01*
X60646530Y-60390499D01*
X60646534Y-60390500D01*
X60646535Y-60390500D01*
X60853466Y-60390500D01*
X60853467Y-60390499D01*
X61056420Y-60350130D01*
X61247598Y-60270941D01*
X61419655Y-60155977D01*
X61565977Y-60009655D01*
X61680941Y-59837598D01*
X61760130Y-59646420D01*
X61800500Y-59443465D01*
X61800500Y-59236535D01*
X61800499Y-59236530D01*
X66949500Y-59236530D01*
X66949500Y-59443469D01*
X66989868Y-59646412D01*
X66989870Y-59646420D01*
X67069058Y-59837596D01*
X67184024Y-60009657D01*
X67330342Y-60155975D01*
X67330345Y-60155977D01*
X67502402Y-60270941D01*
X67693580Y-60350130D01*
X67896530Y-60390499D01*
X67896534Y-60390500D01*
X67896535Y-60390500D01*
X68103466Y-60390500D01*
X68103467Y-60390499D01*
X68306420Y-60350130D01*
X68497598Y-60270941D01*
X68669655Y-60155977D01*
X68815977Y-60009655D01*
X68930941Y-59837598D01*
X69010130Y-59646420D01*
X69050500Y-59443465D01*
X69050500Y-59236535D01*
X69010130Y-59033580D01*
X68930941Y-58842402D01*
X68815977Y-58670345D01*
X68815975Y-58670342D01*
X68669657Y-58524024D01*
X68583626Y-58466541D01*
X68497598Y-58409059D01*
X68306420Y-58329870D01*
X68306412Y-58329868D01*
X68103469Y-58289500D01*
X68103465Y-58289500D01*
X67896535Y-58289500D01*
X67896530Y-58289500D01*
X67693587Y-58329868D01*
X67693579Y-58329870D01*
X67502403Y-58409058D01*
X67330342Y-58524024D01*
X67184024Y-58670342D01*
X67069058Y-58842403D01*
X66989870Y-59033579D01*
X66989868Y-59033587D01*
X66949500Y-59236530D01*
X61800499Y-59236530D01*
X61760130Y-59033580D01*
X61680941Y-58842402D01*
X61565977Y-58670345D01*
X61565975Y-58670342D01*
X61419657Y-58524024D01*
X61333626Y-58466541D01*
X61247598Y-58409059D01*
X61056420Y-58329870D01*
X61056412Y-58329868D01*
X60853469Y-58289500D01*
X60853465Y-58289500D01*
X60646535Y-58289500D01*
X60646530Y-58289500D01*
X60443587Y-58329868D01*
X60443579Y-58329870D01*
X60252403Y-58409058D01*
X60080342Y-58524024D01*
X59934024Y-58670342D01*
X59819058Y-58842403D01*
X59739870Y-59033579D01*
X59739868Y-59033587D01*
X59699500Y-59236530D01*
X56000500Y-59236530D01*
X56000500Y-56696530D01*
X59699500Y-56696530D01*
X59699500Y-56903469D01*
X59739868Y-57106412D01*
X59739870Y-57106420D01*
X59819058Y-57297596D01*
X59934024Y-57469657D01*
X60080342Y-57615975D01*
X60080345Y-57615977D01*
X60252402Y-57730941D01*
X60443580Y-57810130D01*
X60646530Y-57850499D01*
X60646534Y-57850500D01*
X60646535Y-57850500D01*
X60853466Y-57850500D01*
X60853467Y-57850499D01*
X61056420Y-57810130D01*
X61247598Y-57730941D01*
X61419655Y-57615977D01*
X61565977Y-57469655D01*
X61680941Y-57297598D01*
X61760130Y-57106420D01*
X61800500Y-56903465D01*
X61800500Y-56696535D01*
X61800499Y-56696530D01*
X66949500Y-56696530D01*
X66949500Y-56903469D01*
X66989868Y-57106412D01*
X66989870Y-57106420D01*
X67069058Y-57297596D01*
X67184024Y-57469657D01*
X67330342Y-57615975D01*
X67330345Y-57615977D01*
X67502402Y-57730941D01*
X67693580Y-57810130D01*
X67896530Y-57850499D01*
X67896534Y-57850500D01*
X67896535Y-57850500D01*
X68103466Y-57850500D01*
X68103467Y-57850499D01*
X68306420Y-57810130D01*
X68497598Y-57730941D01*
X68669655Y-57615977D01*
X68815977Y-57469655D01*
X68930941Y-57297598D01*
X69010130Y-57106420D01*
X69050500Y-56903465D01*
X69050500Y-56696535D01*
X69010130Y-56493580D01*
X68930941Y-56302402D01*
X68815977Y-56130345D01*
X68815975Y-56130342D01*
X68669657Y-55984024D01*
X68583626Y-55926541D01*
X68497598Y-55869059D01*
X68306420Y-55789870D01*
X68306412Y-55789868D01*
X68103469Y-55749500D01*
X68103465Y-55749500D01*
X67896535Y-55749500D01*
X67896530Y-55749500D01*
X67693587Y-55789868D01*
X67693579Y-55789870D01*
X67502403Y-55869058D01*
X67330342Y-55984024D01*
X67184024Y-56130342D01*
X67069058Y-56302403D01*
X66989870Y-56493579D01*
X66989868Y-56493587D01*
X66949500Y-56696530D01*
X61800499Y-56696530D01*
X61760130Y-56493580D01*
X61680941Y-56302402D01*
X61565977Y-56130345D01*
X61565975Y-56130342D01*
X61419657Y-55984024D01*
X61333626Y-55926541D01*
X61247598Y-55869059D01*
X61056420Y-55789870D01*
X61056412Y-55789868D01*
X60853469Y-55749500D01*
X60853465Y-55749500D01*
X60646535Y-55749500D01*
X60646530Y-55749500D01*
X60443587Y-55789868D01*
X60443579Y-55789870D01*
X60252403Y-55869058D01*
X60080342Y-55984024D01*
X59934024Y-56130342D01*
X59819058Y-56302403D01*
X59739870Y-56493579D01*
X59739868Y-56493587D01*
X59699500Y-56696530D01*
X56000500Y-56696530D01*
X56000500Y-55446530D01*
X78259500Y-55446530D01*
X78259500Y-55653469D01*
X78299868Y-55856412D01*
X78299870Y-55856420D01*
X78379058Y-56047596D01*
X78494024Y-56219657D01*
X78640342Y-56365975D01*
X78640345Y-56365977D01*
X78812402Y-56480941D01*
X79003580Y-56560130D01*
X79135750Y-56586420D01*
X79206530Y-56600499D01*
X79206534Y-56600500D01*
X79206535Y-56600500D01*
X79413466Y-56600500D01*
X79413467Y-56600499D01*
X79616420Y-56560130D01*
X79807598Y-56480941D01*
X79979655Y-56365977D01*
X80125977Y-56219655D01*
X80240941Y-56047598D01*
X80320130Y-55856420D01*
X80360500Y-55653465D01*
X80360500Y-55446535D01*
X80320130Y-55243580D01*
X80240941Y-55052402D01*
X80125977Y-54880345D01*
X80125975Y-54880342D01*
X79979657Y-54734024D01*
X79899173Y-54680247D01*
X88259500Y-54680247D01*
X88259500Y-56419752D01*
X88271131Y-56478229D01*
X88271132Y-56478230D01*
X88315447Y-56544552D01*
X88381769Y-56588867D01*
X88381770Y-56588868D01*
X88440247Y-56600499D01*
X88440250Y-56600500D01*
X88440252Y-56600500D01*
X90179750Y-56600500D01*
X90179751Y-56600499D01*
X90194568Y-56597552D01*
X90238229Y-56588868D01*
X90238229Y-56588867D01*
X90238231Y-56588867D01*
X90304552Y-56544552D01*
X90348867Y-56478231D01*
X90348867Y-56478229D01*
X90348868Y-56478229D01*
X90360499Y-56419752D01*
X90360500Y-56419750D01*
X90360500Y-56176530D01*
X98249500Y-56176530D01*
X98249500Y-56383469D01*
X98289868Y-56586412D01*
X98289870Y-56586420D01*
X98369058Y-56777596D01*
X98484024Y-56949657D01*
X98630342Y-57095975D01*
X98630345Y-57095977D01*
X98802402Y-57210941D01*
X98993580Y-57290130D01*
X99196530Y-57330499D01*
X99196534Y-57330500D01*
X99196535Y-57330500D01*
X99403466Y-57330500D01*
X99403467Y-57330499D01*
X99606420Y-57290130D01*
X99797598Y-57210941D01*
X99969655Y-57095977D01*
X100115977Y-56949655D01*
X100230941Y-56777598D01*
X100310130Y-56586420D01*
X100350500Y-56383465D01*
X100350500Y-56176535D01*
X100350499Y-56176530D01*
X123649500Y-56176530D01*
X123649500Y-56383469D01*
X123689868Y-56586412D01*
X123689870Y-56586420D01*
X123769058Y-56777596D01*
X123884024Y-56949657D01*
X124030342Y-57095975D01*
X124030345Y-57095977D01*
X124202402Y-57210941D01*
X124393580Y-57290130D01*
X124596530Y-57330499D01*
X124596534Y-57330500D01*
X124596535Y-57330500D01*
X124803466Y-57330500D01*
X124803467Y-57330499D01*
X125006420Y-57290130D01*
X125197598Y-57210941D01*
X125369655Y-57095977D01*
X125515977Y-56949655D01*
X125630941Y-56777598D01*
X125710130Y-56586420D01*
X125750500Y-56383465D01*
X125750500Y-56176535D01*
X125710130Y-55973580D01*
X125630941Y-55782402D01*
X125515977Y-55610345D01*
X125515975Y-55610342D01*
X125369657Y-55464024D01*
X125283626Y-55406541D01*
X125197598Y-55349059D01*
X125104506Y-55310499D01*
X125006420Y-55269870D01*
X125006412Y-55269868D01*
X124803469Y-55229500D01*
X124803465Y-55229500D01*
X124596535Y-55229500D01*
X124596530Y-55229500D01*
X124393587Y-55269868D01*
X124393579Y-55269870D01*
X124202403Y-55349058D01*
X124030342Y-55464024D01*
X123884024Y-55610342D01*
X123769058Y-55782403D01*
X123689870Y-55973579D01*
X123689868Y-55973587D01*
X123649500Y-56176530D01*
X100350499Y-56176530D01*
X100310130Y-55973580D01*
X100230941Y-55782402D01*
X100115977Y-55610345D01*
X100115975Y-55610342D01*
X99969657Y-55464024D01*
X99883626Y-55406541D01*
X99797598Y-55349059D01*
X99704506Y-55310499D01*
X99606420Y-55269870D01*
X99606412Y-55269868D01*
X99403469Y-55229500D01*
X99403465Y-55229500D01*
X99196535Y-55229500D01*
X99196530Y-55229500D01*
X98993587Y-55269868D01*
X98993579Y-55269870D01*
X98802403Y-55349058D01*
X98630342Y-55464024D01*
X98484024Y-55610342D01*
X98369058Y-55782403D01*
X98289870Y-55973579D01*
X98289868Y-55973587D01*
X98249500Y-56176530D01*
X90360500Y-56176530D01*
X90360500Y-54680249D01*
X90360499Y-54680247D01*
X90348868Y-54621770D01*
X90348867Y-54621769D01*
X90304552Y-54555447D01*
X90238230Y-54511132D01*
X90238229Y-54511131D01*
X90179752Y-54499500D01*
X90179748Y-54499500D01*
X88440252Y-54499500D01*
X88440247Y-54499500D01*
X88381770Y-54511131D01*
X88381769Y-54511132D01*
X88315447Y-54555447D01*
X88271132Y-54621769D01*
X88271131Y-54621770D01*
X88259500Y-54680247D01*
X79899173Y-54680247D01*
X79811655Y-54621770D01*
X79807598Y-54619059D01*
X79616420Y-54539870D01*
X79616412Y-54539868D01*
X79413469Y-54499500D01*
X79413465Y-54499500D01*
X79206535Y-54499500D01*
X79206530Y-54499500D01*
X79003587Y-54539868D01*
X79003579Y-54539870D01*
X78812403Y-54619058D01*
X78640342Y-54734024D01*
X78494024Y-54880342D01*
X78379058Y-55052403D01*
X78299870Y-55243579D01*
X78299868Y-55243587D01*
X78259500Y-55446530D01*
X56000500Y-55446530D01*
X56000500Y-53390247D01*
X59699500Y-53390247D01*
X59699500Y-55129752D01*
X59711131Y-55188229D01*
X59711132Y-55188230D01*
X59755447Y-55254552D01*
X59821769Y-55298867D01*
X59821770Y-55298868D01*
X59880247Y-55310499D01*
X59880250Y-55310500D01*
X59880252Y-55310500D01*
X61619750Y-55310500D01*
X61619751Y-55310499D01*
X61634568Y-55307552D01*
X61678229Y-55298868D01*
X61678229Y-55298867D01*
X61678231Y-55298867D01*
X61744552Y-55254552D01*
X61788867Y-55188231D01*
X61788867Y-55188229D01*
X61788868Y-55188229D01*
X61800499Y-55129752D01*
X61800500Y-55129750D01*
X61800500Y-53390249D01*
X61800499Y-53390247D01*
X66949500Y-53390247D01*
X66949500Y-55129752D01*
X66961131Y-55188229D01*
X66961132Y-55188230D01*
X67005447Y-55254552D01*
X67071769Y-55298867D01*
X67071770Y-55298868D01*
X67130247Y-55310499D01*
X67130250Y-55310500D01*
X67130252Y-55310500D01*
X68869750Y-55310500D01*
X68869751Y-55310499D01*
X68884568Y-55307552D01*
X68928229Y-55298868D01*
X68928229Y-55298867D01*
X68928231Y-55298867D01*
X68994552Y-55254552D01*
X69038867Y-55188231D01*
X69038867Y-55188229D01*
X69038868Y-55188229D01*
X69050499Y-55129752D01*
X69050500Y-55129750D01*
X69050500Y-53636530D01*
X98249500Y-53636530D01*
X98249500Y-53843469D01*
X98289868Y-54046412D01*
X98289870Y-54046420D01*
X98369058Y-54237596D01*
X98484024Y-54409657D01*
X98630342Y-54555975D01*
X98630345Y-54555977D01*
X98802402Y-54670941D01*
X98993580Y-54750130D01*
X99196530Y-54790499D01*
X99196534Y-54790500D01*
X99196535Y-54790500D01*
X99403466Y-54790500D01*
X99403467Y-54790499D01*
X99606420Y-54750130D01*
X99797598Y-54670941D01*
X99969655Y-54555977D01*
X100115977Y-54409655D01*
X100230941Y-54237598D01*
X100310130Y-54046420D01*
X100350500Y-53843465D01*
X100350500Y-53636535D01*
X100350499Y-53636530D01*
X123649500Y-53636530D01*
X123649500Y-53843469D01*
X123689868Y-54046412D01*
X123689870Y-54046420D01*
X123769058Y-54237596D01*
X123884024Y-54409657D01*
X124030342Y-54555975D01*
X124030345Y-54555977D01*
X124202402Y-54670941D01*
X124393580Y-54750130D01*
X124596530Y-54790499D01*
X124596534Y-54790500D01*
X124596535Y-54790500D01*
X124803466Y-54790500D01*
X124803467Y-54790499D01*
X125006420Y-54750130D01*
X125197598Y-54670941D01*
X125369655Y-54555977D01*
X125515977Y-54409655D01*
X125630941Y-54237598D01*
X125710130Y-54046420D01*
X125750500Y-53843465D01*
X125750500Y-53636535D01*
X125710130Y-53433580D01*
X125630941Y-53242402D01*
X125515977Y-53070345D01*
X125515975Y-53070342D01*
X125369657Y-52924024D01*
X125283626Y-52866541D01*
X125197598Y-52809059D01*
X125006420Y-52729870D01*
X125006412Y-52729868D01*
X124803469Y-52689500D01*
X124803465Y-52689500D01*
X124596535Y-52689500D01*
X124596530Y-52689500D01*
X124393587Y-52729868D01*
X124393579Y-52729870D01*
X124202403Y-52809058D01*
X124030342Y-52924024D01*
X123884024Y-53070342D01*
X123769058Y-53242403D01*
X123689870Y-53433579D01*
X123689868Y-53433587D01*
X123649500Y-53636530D01*
X100350499Y-53636530D01*
X100310130Y-53433580D01*
X100230941Y-53242402D01*
X100115977Y-53070345D01*
X100115975Y-53070342D01*
X99969657Y-52924024D01*
X99883626Y-52866541D01*
X99797598Y-52809059D01*
X99606420Y-52729870D01*
X99606412Y-52729868D01*
X99403469Y-52689500D01*
X99403465Y-52689500D01*
X99196535Y-52689500D01*
X99196530Y-52689500D01*
X98993587Y-52729868D01*
X98993579Y-52729870D01*
X98802403Y-52809058D01*
X98630342Y-52924024D01*
X98484024Y-53070342D01*
X98369058Y-53242403D01*
X98289870Y-53433579D01*
X98289868Y-53433587D01*
X98249500Y-53636530D01*
X69050500Y-53636530D01*
X69050500Y-53390249D01*
X69050499Y-53390247D01*
X69038868Y-53331770D01*
X69038867Y-53331769D01*
X68994552Y-53265447D01*
X68928230Y-53221132D01*
X68928229Y-53221131D01*
X68869752Y-53209500D01*
X68869748Y-53209500D01*
X67130252Y-53209500D01*
X67130247Y-53209500D01*
X67071770Y-53221131D01*
X67071769Y-53221132D01*
X67005447Y-53265447D01*
X66961132Y-53331769D01*
X66961131Y-53331770D01*
X66949500Y-53390247D01*
X61800499Y-53390247D01*
X61788868Y-53331770D01*
X61788867Y-53331769D01*
X61744552Y-53265447D01*
X61678230Y-53221132D01*
X61678229Y-53221131D01*
X61619752Y-53209500D01*
X61619748Y-53209500D01*
X59880252Y-53209500D01*
X59880247Y-53209500D01*
X59821770Y-53221131D01*
X59821769Y-53221132D01*
X59755447Y-53265447D01*
X59711132Y-53331769D01*
X59711131Y-53331770D01*
X59699500Y-53390247D01*
X56000500Y-53390247D01*
X56000500Y-51096530D01*
X98249500Y-51096530D01*
X98249500Y-51303469D01*
X98289868Y-51506412D01*
X98289870Y-51506420D01*
X98369058Y-51697596D01*
X98484024Y-51869657D01*
X98630342Y-52015975D01*
X98630345Y-52015977D01*
X98802402Y-52130941D01*
X98993580Y-52210130D01*
X99196530Y-52250499D01*
X99196534Y-52250500D01*
X99196535Y-52250500D01*
X99403466Y-52250500D01*
X99403467Y-52250499D01*
X99606420Y-52210130D01*
X99797598Y-52130941D01*
X99969655Y-52015977D01*
X100115977Y-51869655D01*
X100230941Y-51697598D01*
X100310130Y-51506420D01*
X100350500Y-51303465D01*
X100350500Y-51096535D01*
X100350499Y-51096530D01*
X123649500Y-51096530D01*
X123649500Y-51303469D01*
X123689868Y-51506412D01*
X123689870Y-51506420D01*
X123769058Y-51697596D01*
X123884024Y-51869657D01*
X124030342Y-52015975D01*
X124030345Y-52015977D01*
X124202402Y-52130941D01*
X124393580Y-52210130D01*
X124596530Y-52250499D01*
X124596534Y-52250500D01*
X124596535Y-52250500D01*
X124803466Y-52250500D01*
X124803467Y-52250499D01*
X125006420Y-52210130D01*
X125197598Y-52130941D01*
X125369655Y-52015977D01*
X125515977Y-51869655D01*
X125630941Y-51697598D01*
X125710130Y-51506420D01*
X125750500Y-51303465D01*
X125750500Y-51096535D01*
X125710130Y-50893580D01*
X125630941Y-50702402D01*
X125515977Y-50530345D01*
X125515975Y-50530342D01*
X125369657Y-50384024D01*
X125283626Y-50326541D01*
X125197598Y-50269059D01*
X125006420Y-50189870D01*
X125006412Y-50189868D01*
X124803469Y-50149500D01*
X124803465Y-50149500D01*
X124596535Y-50149500D01*
X124596530Y-50149500D01*
X124393587Y-50189868D01*
X124393579Y-50189870D01*
X124202403Y-50269058D01*
X124030342Y-50384024D01*
X123884024Y-50530342D01*
X123769058Y-50702403D01*
X123689870Y-50893579D01*
X123689868Y-50893587D01*
X123649500Y-51096530D01*
X100350499Y-51096530D01*
X100310130Y-50893580D01*
X100230941Y-50702402D01*
X100115977Y-50530345D01*
X100115975Y-50530342D01*
X99969657Y-50384024D01*
X99883626Y-50326541D01*
X99797598Y-50269059D01*
X99606420Y-50189870D01*
X99606412Y-50189868D01*
X99403469Y-50149500D01*
X99403465Y-50149500D01*
X99196535Y-50149500D01*
X99196530Y-50149500D01*
X98993587Y-50189868D01*
X98993579Y-50189870D01*
X98802403Y-50269058D01*
X98630342Y-50384024D01*
X98484024Y-50530342D01*
X98369058Y-50702403D01*
X98289870Y-50893579D01*
X98289868Y-50893587D01*
X98249500Y-51096530D01*
X56000500Y-51096530D01*
X56000500Y-48246530D01*
X78199500Y-48246530D01*
X78199500Y-48453469D01*
X78239868Y-48656412D01*
X78239870Y-48656420D01*
X78319058Y-48847596D01*
X78434024Y-49019657D01*
X78580342Y-49165975D01*
X78580345Y-49165977D01*
X78752402Y-49280941D01*
X78943580Y-49360130D01*
X79146530Y-49400499D01*
X79146534Y-49400500D01*
X79146535Y-49400500D01*
X79353466Y-49400500D01*
X79353467Y-49400499D01*
X79556420Y-49360130D01*
X79747598Y-49280941D01*
X79919655Y-49165977D01*
X80065977Y-49019655D01*
X80180941Y-48847598D01*
X80260130Y-48656420D01*
X80300500Y-48453465D01*
X80300500Y-48246535D01*
X80300499Y-48246530D01*
X88199500Y-48246530D01*
X88199500Y-48453469D01*
X88239868Y-48656412D01*
X88239870Y-48656420D01*
X88319058Y-48847596D01*
X88434024Y-49019657D01*
X88580342Y-49165975D01*
X88580345Y-49165977D01*
X88752402Y-49280941D01*
X88943580Y-49360130D01*
X89146530Y-49400499D01*
X89146534Y-49400500D01*
X89146535Y-49400500D01*
X89353466Y-49400500D01*
X89353467Y-49400499D01*
X89556420Y-49360130D01*
X89747598Y-49280941D01*
X89919655Y-49165977D01*
X90065977Y-49019655D01*
X90180941Y-48847598D01*
X90260130Y-48656420D01*
X90279999Y-48556530D01*
X98249500Y-48556530D01*
X98249500Y-48763469D01*
X98289868Y-48966412D01*
X98289870Y-48966420D01*
X98369059Y-49157598D01*
X98374658Y-49165977D01*
X98484024Y-49329657D01*
X98630342Y-49475975D01*
X98630345Y-49475977D01*
X98802402Y-49590941D01*
X98993580Y-49670130D01*
X99196530Y-49710499D01*
X99196534Y-49710500D01*
X99196535Y-49710500D01*
X99403466Y-49710500D01*
X99403467Y-49710499D01*
X99606420Y-49670130D01*
X99797598Y-49590941D01*
X99969655Y-49475977D01*
X100115977Y-49329655D01*
X100230941Y-49157598D01*
X100310130Y-48966420D01*
X100350500Y-48763465D01*
X100350500Y-48556535D01*
X100350499Y-48556530D01*
X123649500Y-48556530D01*
X123649500Y-48763469D01*
X123689868Y-48966412D01*
X123689870Y-48966420D01*
X123769059Y-49157598D01*
X123774658Y-49165977D01*
X123884024Y-49329657D01*
X124030342Y-49475975D01*
X124030345Y-49475977D01*
X124202402Y-49590941D01*
X124393580Y-49670130D01*
X124596530Y-49710499D01*
X124596534Y-49710500D01*
X124596535Y-49710500D01*
X124803466Y-49710500D01*
X124803467Y-49710499D01*
X125006420Y-49670130D01*
X125197598Y-49590941D01*
X125369655Y-49475977D01*
X125515977Y-49329655D01*
X125630941Y-49157598D01*
X125710130Y-48966420D01*
X125750500Y-48763465D01*
X125750500Y-48556535D01*
X125710130Y-48353580D01*
X125630941Y-48162402D01*
X125515977Y-47990345D01*
X125515975Y-47990342D01*
X125369657Y-47844024D01*
X125283626Y-47786541D01*
X125197598Y-47729059D01*
X125079985Y-47680342D01*
X125006420Y-47649870D01*
X125006412Y-47649868D01*
X124803469Y-47609500D01*
X124803465Y-47609500D01*
X124596535Y-47609500D01*
X124596530Y-47609500D01*
X124393587Y-47649868D01*
X124393579Y-47649870D01*
X124202403Y-47729058D01*
X124030342Y-47844024D01*
X123884024Y-47990342D01*
X123769058Y-48162403D01*
X123689870Y-48353579D01*
X123689868Y-48353587D01*
X123649500Y-48556530D01*
X100350499Y-48556530D01*
X100310130Y-48353580D01*
X100230941Y-48162402D01*
X100115977Y-47990345D01*
X100115975Y-47990342D01*
X99969657Y-47844024D01*
X99883626Y-47786541D01*
X99797598Y-47729059D01*
X99679985Y-47680342D01*
X99606420Y-47649870D01*
X99606412Y-47649868D01*
X99403469Y-47609500D01*
X99403465Y-47609500D01*
X99196535Y-47609500D01*
X99196530Y-47609500D01*
X98993587Y-47649868D01*
X98993579Y-47649870D01*
X98802403Y-47729058D01*
X98630342Y-47844024D01*
X98484024Y-47990342D01*
X98369058Y-48162403D01*
X98289870Y-48353579D01*
X98289868Y-48353587D01*
X98249500Y-48556530D01*
X90279999Y-48556530D01*
X90300500Y-48453465D01*
X90300500Y-48246535D01*
X90260130Y-48043580D01*
X90180941Y-47852402D01*
X90065977Y-47680345D01*
X90065975Y-47680342D01*
X89919657Y-47534024D01*
X89833626Y-47476541D01*
X89747598Y-47419059D01*
X89556420Y-47339870D01*
X89556412Y-47339868D01*
X89353469Y-47299500D01*
X89353465Y-47299500D01*
X89146535Y-47299500D01*
X89146530Y-47299500D01*
X88943587Y-47339868D01*
X88943579Y-47339870D01*
X88752403Y-47419058D01*
X88580342Y-47534024D01*
X88434024Y-47680342D01*
X88319058Y-47852403D01*
X88239870Y-48043579D01*
X88239868Y-48043587D01*
X88199500Y-48246530D01*
X80300499Y-48246530D01*
X80260130Y-48043580D01*
X80180941Y-47852402D01*
X80065977Y-47680345D01*
X80065975Y-47680342D01*
X79919657Y-47534024D01*
X79833626Y-47476541D01*
X79747598Y-47419059D01*
X79556420Y-47339870D01*
X79556412Y-47339868D01*
X79353469Y-47299500D01*
X79353465Y-47299500D01*
X79146535Y-47299500D01*
X79146530Y-47299500D01*
X78943587Y-47339868D01*
X78943579Y-47339870D01*
X78752403Y-47419058D01*
X78580342Y-47534024D01*
X78434024Y-47680342D01*
X78319058Y-47852403D01*
X78239870Y-48043579D01*
X78239868Y-48043587D01*
X78199500Y-48246530D01*
X56000500Y-48246530D01*
X56000500Y-45706530D01*
X78199500Y-45706530D01*
X78199500Y-45913469D01*
X78239868Y-46116412D01*
X78239870Y-46116420D01*
X78319058Y-46307596D01*
X78434024Y-46479657D01*
X78580342Y-46625975D01*
X78580345Y-46625977D01*
X78752402Y-46740941D01*
X78943580Y-46820130D01*
X79146530Y-46860499D01*
X79146534Y-46860500D01*
X79146535Y-46860500D01*
X79353466Y-46860500D01*
X79353467Y-46860499D01*
X79556420Y-46820130D01*
X79747598Y-46740941D01*
X79919655Y-46625977D01*
X80065977Y-46479655D01*
X80180941Y-46307598D01*
X80260130Y-46116420D01*
X80300500Y-45913465D01*
X80300500Y-45706535D01*
X80300499Y-45706530D01*
X88199500Y-45706530D01*
X88199500Y-45913469D01*
X88239868Y-46116412D01*
X88239870Y-46116420D01*
X88319058Y-46307596D01*
X88434024Y-46479657D01*
X88580342Y-46625975D01*
X88580345Y-46625977D01*
X88752402Y-46740941D01*
X88943580Y-46820130D01*
X89146530Y-46860499D01*
X89146534Y-46860500D01*
X89146535Y-46860500D01*
X89353466Y-46860500D01*
X89353467Y-46860499D01*
X89556420Y-46820130D01*
X89747598Y-46740941D01*
X89919655Y-46625977D01*
X90065977Y-46479655D01*
X90180941Y-46307598D01*
X90260130Y-46116420D01*
X90279999Y-46016530D01*
X98249500Y-46016530D01*
X98249500Y-46223469D01*
X98289868Y-46426412D01*
X98289870Y-46426420D01*
X98369059Y-46617598D01*
X98374658Y-46625977D01*
X98484024Y-46789657D01*
X98630342Y-46935975D01*
X98630345Y-46935977D01*
X98802402Y-47050941D01*
X98993580Y-47130130D01*
X99196530Y-47170499D01*
X99196534Y-47170500D01*
X99196535Y-47170500D01*
X99403466Y-47170500D01*
X99403467Y-47170499D01*
X99606420Y-47130130D01*
X99797598Y-47050941D01*
X99969655Y-46935977D01*
X100115977Y-46789655D01*
X100230941Y-46617598D01*
X100310130Y-46426420D01*
X100350500Y-46223465D01*
X100350500Y-46016535D01*
X100310130Y-45813580D01*
X100230941Y-45622402D01*
X100115977Y-45450345D01*
X100115975Y-45450342D01*
X99969657Y-45304024D01*
X99883626Y-45246541D01*
X99797598Y-45189059D01*
X99797593Y-45189057D01*
X99606420Y-45109870D01*
X99606412Y-45109868D01*
X99403469Y-45069500D01*
X99403465Y-45069500D01*
X99196535Y-45069500D01*
X99196530Y-45069500D01*
X98993587Y-45109868D01*
X98993579Y-45109870D01*
X98802403Y-45189058D01*
X98630342Y-45304024D01*
X98484024Y-45450342D01*
X98369058Y-45622403D01*
X98289870Y-45813579D01*
X98289868Y-45813587D01*
X98249500Y-46016530D01*
X90279999Y-46016530D01*
X90300500Y-45913465D01*
X90300500Y-45706535D01*
X90260130Y-45503580D01*
X90180941Y-45312402D01*
X90065977Y-45140345D01*
X90065975Y-45140342D01*
X89919657Y-44994024D01*
X89772039Y-44895390D01*
X89747598Y-44879059D01*
X89631803Y-44831095D01*
X89556420Y-44799870D01*
X89556412Y-44799868D01*
X89353469Y-44759500D01*
X89353465Y-44759500D01*
X89146535Y-44759500D01*
X89146530Y-44759500D01*
X88943587Y-44799868D01*
X88943579Y-44799870D01*
X88752403Y-44879058D01*
X88580342Y-44994024D01*
X88434024Y-45140342D01*
X88319058Y-45312403D01*
X88239870Y-45503579D01*
X88239868Y-45503587D01*
X88199500Y-45706530D01*
X80300499Y-45706530D01*
X80260130Y-45503580D01*
X80180941Y-45312402D01*
X80065977Y-45140345D01*
X80065975Y-45140342D01*
X79919657Y-44994024D01*
X79772039Y-44895390D01*
X79747598Y-44879059D01*
X79631803Y-44831095D01*
X79556420Y-44799870D01*
X79556412Y-44799868D01*
X79353469Y-44759500D01*
X79353465Y-44759500D01*
X79146535Y-44759500D01*
X79146530Y-44759500D01*
X78943587Y-44799868D01*
X78943579Y-44799870D01*
X78752403Y-44879058D01*
X78580342Y-44994024D01*
X78434024Y-45140342D01*
X78319058Y-45312403D01*
X78239870Y-45503579D01*
X78239868Y-45503587D01*
X78199500Y-45706530D01*
X56000500Y-45706530D01*
X56000500Y-40623753D01*
X77900000Y-40623753D01*
X77900000Y-40836246D01*
X77933242Y-41046127D01*
X77933242Y-41046130D01*
X77998904Y-41248217D01*
X78095375Y-41437550D01*
X78134728Y-41491716D01*
X78767037Y-40859408D01*
X78784075Y-40922993D01*
X78849901Y-41037007D01*
X78942993Y-41130099D01*
X79057007Y-41195925D01*
X79120590Y-41212962D01*
X78488282Y-41845269D01*
X78488282Y-41845270D01*
X78542449Y-41884624D01*
X78731782Y-41981095D01*
X78907973Y-42038343D01*
X78965648Y-42077780D01*
X78992847Y-42142139D01*
X78980932Y-42210985D01*
X78933688Y-42262461D01*
X78917108Y-42270835D01*
X78752403Y-42339057D01*
X78580342Y-42454024D01*
X78434024Y-42600342D01*
X78319058Y-42772403D01*
X78239870Y-42963579D01*
X78239868Y-42963587D01*
X78199500Y-43166530D01*
X78199500Y-43373469D01*
X78239868Y-43576412D01*
X78239870Y-43576420D01*
X78319058Y-43767596D01*
X78434024Y-43939657D01*
X78580342Y-44085975D01*
X78580345Y-44085977D01*
X78752402Y-44200941D01*
X78943580Y-44280130D01*
X79146530Y-44320499D01*
X79146534Y-44320500D01*
X79146535Y-44320500D01*
X79353466Y-44320500D01*
X79353467Y-44320499D01*
X79556420Y-44280130D01*
X79747598Y-44200941D01*
X79919655Y-44085977D01*
X80065977Y-43939655D01*
X80180941Y-43767598D01*
X80260130Y-43576420D01*
X80300500Y-43373465D01*
X80300500Y-43166535D01*
X80260130Y-42963580D01*
X80180941Y-42772402D01*
X80065977Y-42600345D01*
X80065975Y-42600342D01*
X79919657Y-42454024D01*
X79833626Y-42396541D01*
X79747598Y-42339059D01*
X79747593Y-42339057D01*
X79685891Y-42313499D01*
X79582890Y-42270834D01*
X79528488Y-42226994D01*
X79506423Y-42160700D01*
X79523702Y-42093001D01*
X79574839Y-42045390D01*
X79592026Y-42038343D01*
X79768217Y-41981095D01*
X79957554Y-41884622D01*
X80011716Y-41845270D01*
X80011717Y-41845270D01*
X79379408Y-41212962D01*
X79442993Y-41195925D01*
X79557007Y-41130099D01*
X79650099Y-41037007D01*
X79715925Y-40922993D01*
X79732962Y-40859408D01*
X80365270Y-41491717D01*
X80365270Y-41491716D01*
X80404622Y-41437554D01*
X80501095Y-41248217D01*
X80566757Y-41046130D01*
X80566757Y-41046127D01*
X80600000Y-40836246D01*
X80600000Y-40623753D01*
X87900000Y-40623753D01*
X87900000Y-40836246D01*
X87933242Y-41046127D01*
X87933242Y-41046130D01*
X87998904Y-41248217D01*
X88095375Y-41437550D01*
X88134728Y-41491716D01*
X88767037Y-40859408D01*
X88784075Y-40922993D01*
X88849901Y-41037007D01*
X88942993Y-41130099D01*
X89057007Y-41195925D01*
X89120590Y-41212962D01*
X88488282Y-41845269D01*
X88488282Y-41845270D01*
X88542449Y-41884624D01*
X88731782Y-41981095D01*
X88907973Y-42038343D01*
X88965648Y-42077780D01*
X88992847Y-42142139D01*
X88980932Y-42210985D01*
X88933688Y-42262461D01*
X88917108Y-42270835D01*
X88752403Y-42339057D01*
X88580342Y-42454024D01*
X88434024Y-42600342D01*
X88319058Y-42772403D01*
X88239870Y-42963579D01*
X88239868Y-42963587D01*
X88199500Y-43166530D01*
X88199500Y-43373469D01*
X88239868Y-43576412D01*
X88239870Y-43576420D01*
X88319058Y-43767596D01*
X88434024Y-43939657D01*
X88580342Y-44085975D01*
X88580345Y-44085977D01*
X88752402Y-44200941D01*
X88943580Y-44280130D01*
X89146530Y-44320499D01*
X89146534Y-44320500D01*
X89146535Y-44320500D01*
X89353466Y-44320500D01*
X89353467Y-44320499D01*
X89556420Y-44280130D01*
X89747598Y-44200941D01*
X89919655Y-44085977D01*
X90065977Y-43939655D01*
X90180941Y-43767598D01*
X90260130Y-43576420D01*
X90300500Y-43373465D01*
X90300500Y-43166535D01*
X90260130Y-42963580D01*
X90180941Y-42772402D01*
X90180940Y-42772400D01*
X90180939Y-42772397D01*
X90139412Y-42710247D01*
X98249500Y-42710247D01*
X98249500Y-44449752D01*
X98261131Y-44508229D01*
X98261132Y-44508230D01*
X98305447Y-44574552D01*
X98371769Y-44618867D01*
X98371770Y-44618868D01*
X98430247Y-44630499D01*
X98430250Y-44630500D01*
X98430252Y-44630500D01*
X100169750Y-44630500D01*
X100169751Y-44630499D01*
X100184568Y-44627552D01*
X100228229Y-44618868D01*
X100228229Y-44618867D01*
X100228231Y-44618867D01*
X100294552Y-44574552D01*
X100338867Y-44508231D01*
X100338867Y-44508229D01*
X100338868Y-44508229D01*
X100350499Y-44449752D01*
X100350500Y-44449750D01*
X100350500Y-43473753D01*
X123350000Y-43473753D01*
X123350000Y-43686246D01*
X123383242Y-43896127D01*
X123383242Y-43896130D01*
X123448904Y-44098217D01*
X123545375Y-44287550D01*
X123584728Y-44341716D01*
X124217037Y-43709408D01*
X124234075Y-43772993D01*
X124299901Y-43887007D01*
X124392993Y-43980099D01*
X124507007Y-44045925D01*
X124570590Y-44062962D01*
X123938282Y-44695269D01*
X123938282Y-44695270D01*
X123992449Y-44734624D01*
X124181782Y-44831095D01*
X124357973Y-44888343D01*
X124415648Y-44927780D01*
X124442847Y-44992139D01*
X124430932Y-45060985D01*
X124383688Y-45112461D01*
X124367108Y-45120835D01*
X124202403Y-45189057D01*
X124030342Y-45304024D01*
X123884024Y-45450342D01*
X123769058Y-45622403D01*
X123689870Y-45813579D01*
X123689868Y-45813587D01*
X123649500Y-46016530D01*
X123649500Y-46223469D01*
X123689868Y-46426412D01*
X123689870Y-46426420D01*
X123769059Y-46617598D01*
X123774658Y-46625977D01*
X123884024Y-46789657D01*
X124030342Y-46935975D01*
X124030345Y-46935977D01*
X124202402Y-47050941D01*
X124393580Y-47130130D01*
X124596530Y-47170499D01*
X124596534Y-47170500D01*
X124596535Y-47170500D01*
X124803466Y-47170500D01*
X124803467Y-47170499D01*
X125006420Y-47130130D01*
X125197598Y-47050941D01*
X125369655Y-46935977D01*
X125515977Y-46789655D01*
X125630941Y-46617598D01*
X125710130Y-46426420D01*
X125750500Y-46223465D01*
X125750500Y-46016535D01*
X125710130Y-45813580D01*
X125630941Y-45622402D01*
X125515977Y-45450345D01*
X125515975Y-45450342D01*
X125369657Y-45304024D01*
X125283626Y-45246541D01*
X125197598Y-45189059D01*
X125197593Y-45189057D01*
X125135891Y-45163499D01*
X125032890Y-45120834D01*
X124978488Y-45076994D01*
X124956423Y-45010700D01*
X124973702Y-44943001D01*
X125024839Y-44895390D01*
X125042026Y-44888343D01*
X125218217Y-44831095D01*
X125407554Y-44734622D01*
X125461716Y-44695270D01*
X125461717Y-44695270D01*
X124829408Y-44062962D01*
X124892993Y-44045925D01*
X125007007Y-43980099D01*
X125100099Y-43887007D01*
X125165925Y-43772993D01*
X125182962Y-43709408D01*
X125815270Y-44341717D01*
X125815270Y-44341716D01*
X125854622Y-44287554D01*
X125951095Y-44098217D01*
X126016757Y-43896130D01*
X126016757Y-43896127D01*
X126050000Y-43686246D01*
X126050000Y-43473753D01*
X126016757Y-43263872D01*
X126016757Y-43263869D01*
X125951095Y-43061782D01*
X125854624Y-42872449D01*
X125815270Y-42818282D01*
X125815269Y-42818282D01*
X125182962Y-43450590D01*
X125165925Y-43387007D01*
X125100099Y-43272993D01*
X125007007Y-43179901D01*
X124892993Y-43114075D01*
X124829409Y-43097037D01*
X125461716Y-42464728D01*
X125407550Y-42425375D01*
X125218217Y-42328904D01*
X125016129Y-42263242D01*
X124806246Y-42230000D01*
X124593754Y-42230000D01*
X124383872Y-42263242D01*
X124383869Y-42263242D01*
X124181782Y-42328904D01*
X123992439Y-42425380D01*
X123938282Y-42464727D01*
X123938282Y-42464728D01*
X124570591Y-43097037D01*
X124507007Y-43114075D01*
X124392993Y-43179901D01*
X124299901Y-43272993D01*
X124234075Y-43387007D01*
X124217037Y-43450591D01*
X123584728Y-42818282D01*
X123584727Y-42818282D01*
X123545380Y-42872439D01*
X123448904Y-43061782D01*
X123383242Y-43263869D01*
X123383242Y-43263872D01*
X123350000Y-43473753D01*
X100350500Y-43473753D01*
X100350500Y-42710249D01*
X100350499Y-42710247D01*
X100338868Y-42651770D01*
X100338867Y-42651769D01*
X100294552Y-42585447D01*
X100228230Y-42541132D01*
X100228229Y-42541131D01*
X100169752Y-42529500D01*
X100169748Y-42529500D01*
X98430252Y-42529500D01*
X98430247Y-42529500D01*
X98371770Y-42541131D01*
X98371769Y-42541132D01*
X98305447Y-42585447D01*
X98261132Y-42651769D01*
X98261131Y-42651770D01*
X98249500Y-42710247D01*
X90139412Y-42710247D01*
X90065980Y-42600349D01*
X90065974Y-42600341D01*
X89919657Y-42454024D01*
X89833626Y-42396541D01*
X89747598Y-42339059D01*
X89747593Y-42339057D01*
X89685891Y-42313499D01*
X89582890Y-42270834D01*
X89528488Y-42226994D01*
X89506423Y-42160700D01*
X89523702Y-42093001D01*
X89574839Y-42045390D01*
X89592026Y-42038343D01*
X89768217Y-41981095D01*
X89957554Y-41884622D01*
X90011716Y-41845270D01*
X90011717Y-41845270D01*
X89379408Y-41212962D01*
X89442993Y-41195925D01*
X89557007Y-41130099D01*
X89650099Y-41037007D01*
X89715925Y-40922993D01*
X89732962Y-40859409D01*
X90365270Y-41491717D01*
X90365270Y-41491716D01*
X90404622Y-41437554D01*
X90501095Y-41248217D01*
X90566757Y-41046130D01*
X90566757Y-41046127D01*
X90600000Y-40836246D01*
X90600000Y-40623753D01*
X90566757Y-40413872D01*
X90566757Y-40413869D01*
X90501095Y-40211782D01*
X90404624Y-40022449D01*
X90365270Y-39968282D01*
X90365269Y-39968282D01*
X89732962Y-40600590D01*
X89715925Y-40537007D01*
X89650099Y-40422993D01*
X89557007Y-40329901D01*
X89442993Y-40264075D01*
X89379409Y-40247037D01*
X90011716Y-39614728D01*
X89957550Y-39575375D01*
X89768216Y-39478904D01*
X89592026Y-39421656D01*
X89534350Y-39382218D01*
X89507152Y-39317860D01*
X89519067Y-39249013D01*
X89566311Y-39197538D01*
X89582882Y-39189168D01*
X89747598Y-39120941D01*
X89919655Y-39005977D01*
X90065977Y-38859655D01*
X90180941Y-38687598D01*
X90260130Y-38496420D01*
X90300500Y-38293465D01*
X90300500Y-38086535D01*
X90260130Y-37883580D01*
X90180941Y-37692402D01*
X90065977Y-37520345D01*
X90065975Y-37520342D01*
X89919657Y-37374024D01*
X89833626Y-37316541D01*
X89747598Y-37259059D01*
X89556420Y-37179870D01*
X89556412Y-37179868D01*
X89353469Y-37139500D01*
X89353465Y-37139500D01*
X89146535Y-37139500D01*
X89146530Y-37139500D01*
X88943587Y-37179868D01*
X88943579Y-37179870D01*
X88752403Y-37259058D01*
X88580342Y-37374024D01*
X88434024Y-37520342D01*
X88319058Y-37692403D01*
X88239870Y-37883579D01*
X88239868Y-37883587D01*
X88199500Y-38086530D01*
X88199500Y-38293469D01*
X88239868Y-38496412D01*
X88239870Y-38496420D01*
X88319058Y-38687596D01*
X88434024Y-38859657D01*
X88580342Y-39005975D01*
X88752405Y-39120943D01*
X88855043Y-39163456D01*
X88917108Y-39189164D01*
X88971511Y-39233005D01*
X88993576Y-39299299D01*
X88976297Y-39366998D01*
X88925160Y-39414609D01*
X88907974Y-39421656D01*
X88731781Y-39478905D01*
X88542439Y-39575380D01*
X88488282Y-39614727D01*
X88488282Y-39614728D01*
X89120591Y-40247037D01*
X89057007Y-40264075D01*
X88942993Y-40329901D01*
X88849901Y-40422993D01*
X88784075Y-40537007D01*
X88767037Y-40600591D01*
X88134728Y-39968282D01*
X88134727Y-39968282D01*
X88095380Y-40022439D01*
X87998904Y-40211782D01*
X87933242Y-40413869D01*
X87933242Y-40413872D01*
X87900000Y-40623753D01*
X80600000Y-40623753D01*
X80566757Y-40413872D01*
X80566757Y-40413869D01*
X80501095Y-40211782D01*
X80404624Y-40022449D01*
X80365270Y-39968282D01*
X80365269Y-39968282D01*
X79732962Y-40600590D01*
X79715925Y-40537007D01*
X79650099Y-40422993D01*
X79557007Y-40329901D01*
X79442993Y-40264075D01*
X79379409Y-40247037D01*
X80011716Y-39614728D01*
X79957550Y-39575375D01*
X79768216Y-39478904D01*
X79592026Y-39421656D01*
X79534350Y-39382218D01*
X79507152Y-39317860D01*
X79519067Y-39249013D01*
X79566311Y-39197538D01*
X79582882Y-39189168D01*
X79747598Y-39120941D01*
X79919655Y-39005977D01*
X80065977Y-38859655D01*
X80180941Y-38687598D01*
X80260130Y-38496420D01*
X80300500Y-38293465D01*
X80300500Y-38086535D01*
X80260130Y-37883580D01*
X80180941Y-37692402D01*
X80065977Y-37520345D01*
X80065975Y-37520342D01*
X79919657Y-37374024D01*
X79833626Y-37316541D01*
X79747598Y-37259059D01*
X79556420Y-37179870D01*
X79556412Y-37179868D01*
X79353469Y-37139500D01*
X79353465Y-37139500D01*
X79146535Y-37139500D01*
X79146530Y-37139500D01*
X78943587Y-37179868D01*
X78943579Y-37179870D01*
X78752403Y-37259058D01*
X78580342Y-37374024D01*
X78434024Y-37520342D01*
X78319058Y-37692403D01*
X78239870Y-37883579D01*
X78239868Y-37883587D01*
X78199500Y-38086530D01*
X78199500Y-38293469D01*
X78239868Y-38496412D01*
X78239870Y-38496420D01*
X78319058Y-38687596D01*
X78434024Y-38859657D01*
X78580342Y-39005975D01*
X78752405Y-39120943D01*
X78855043Y-39163456D01*
X78917108Y-39189164D01*
X78971511Y-39233005D01*
X78993576Y-39299299D01*
X78976297Y-39366998D01*
X78925160Y-39414609D01*
X78907974Y-39421656D01*
X78731781Y-39478905D01*
X78542439Y-39575380D01*
X78488282Y-39614727D01*
X78488282Y-39614728D01*
X79120591Y-40247037D01*
X79057007Y-40264075D01*
X78942993Y-40329901D01*
X78849901Y-40422993D01*
X78784075Y-40537007D01*
X78767037Y-40600591D01*
X78134728Y-39968282D01*
X78134727Y-39968282D01*
X78095380Y-40022439D01*
X77998904Y-40211782D01*
X77933242Y-40413869D01*
X77933242Y-40413872D01*
X77900000Y-40623753D01*
X56000500Y-40623753D01*
X56000500Y-34385258D01*
X57749500Y-34385258D01*
X57749500Y-34614741D01*
X57771291Y-34780249D01*
X57779452Y-34842238D01*
X57816457Y-34980345D01*
X57838842Y-35063887D01*
X57926650Y-35275876D01*
X57926657Y-35275890D01*
X58041392Y-35474617D01*
X58181081Y-35656661D01*
X58181089Y-35656670D01*
X58343330Y-35818911D01*
X58343338Y-35818918D01*
X58343339Y-35818919D01*
X58393962Y-35857764D01*
X58525382Y-35958607D01*
X58525385Y-35958608D01*
X58525388Y-35958611D01*
X58724112Y-36073344D01*
X58724117Y-36073346D01*
X58724123Y-36073349D01*
X58815480Y-36111190D01*
X58936113Y-36161158D01*
X59157762Y-36220548D01*
X59385266Y-36250500D01*
X59385273Y-36250500D01*
X59614727Y-36250500D01*
X59614734Y-36250500D01*
X59842238Y-36220548D01*
X60063887Y-36161158D01*
X60275888Y-36073344D01*
X60474612Y-35958611D01*
X60656661Y-35818919D01*
X60656665Y-35818914D01*
X60656670Y-35818911D01*
X60818911Y-35656670D01*
X60818914Y-35656665D01*
X60818919Y-35656661D01*
X60903426Y-35546530D01*
X78199500Y-35546530D01*
X78199500Y-35753469D01*
X78239868Y-35956412D01*
X78239870Y-35956420D01*
X78319059Y-36147598D01*
X78367801Y-36220546D01*
X78434024Y-36319657D01*
X78580342Y-36465975D01*
X78580345Y-36465977D01*
X78752402Y-36580941D01*
X78943580Y-36660130D01*
X79088052Y-36688867D01*
X79146530Y-36700499D01*
X79146534Y-36700500D01*
X79146535Y-36700500D01*
X79353466Y-36700500D01*
X79353467Y-36700499D01*
X79556420Y-36660130D01*
X79747598Y-36580941D01*
X79919655Y-36465977D01*
X80065977Y-36319655D01*
X80180941Y-36147598D01*
X80260130Y-35956420D01*
X80300500Y-35753465D01*
X80300500Y-35546535D01*
X80260130Y-35343580D01*
X80180941Y-35152402D01*
X80065977Y-34980345D01*
X80065975Y-34980342D01*
X79919657Y-34834024D01*
X79839173Y-34780247D01*
X88199500Y-34780247D01*
X88199500Y-36519752D01*
X88211131Y-36578229D01*
X88211132Y-36578230D01*
X88255447Y-36644552D01*
X88321769Y-36688867D01*
X88321770Y-36688868D01*
X88380247Y-36700499D01*
X88380250Y-36700500D01*
X88380252Y-36700500D01*
X90119750Y-36700500D01*
X90119751Y-36700499D01*
X90134568Y-36697552D01*
X90178229Y-36688868D01*
X90178229Y-36688867D01*
X90178231Y-36688867D01*
X90244552Y-36644552D01*
X90288867Y-36578231D01*
X90288867Y-36578229D01*
X90288868Y-36578229D01*
X90300499Y-36519752D01*
X90300500Y-36519750D01*
X90300500Y-34780249D01*
X90300499Y-34780247D01*
X90288868Y-34721770D01*
X90288867Y-34721769D01*
X90244552Y-34655447D01*
X90178230Y-34611132D01*
X90178229Y-34611131D01*
X90119752Y-34599500D01*
X90119748Y-34599500D01*
X88380252Y-34599500D01*
X88380247Y-34599500D01*
X88321770Y-34611131D01*
X88321769Y-34611132D01*
X88255447Y-34655447D01*
X88211132Y-34721769D01*
X88211131Y-34721770D01*
X88199500Y-34780247D01*
X79839173Y-34780247D01*
X79751655Y-34721770D01*
X79747598Y-34719059D01*
X79556420Y-34639870D01*
X79556412Y-34639868D01*
X79353469Y-34599500D01*
X79353465Y-34599500D01*
X79146535Y-34599500D01*
X79146530Y-34599500D01*
X78943587Y-34639868D01*
X78943579Y-34639870D01*
X78752403Y-34719058D01*
X78580342Y-34834024D01*
X78434024Y-34980342D01*
X78319058Y-35152403D01*
X78239870Y-35343579D01*
X78239868Y-35343587D01*
X78199500Y-35546530D01*
X60903426Y-35546530D01*
X60958611Y-35474612D01*
X61073344Y-35275888D01*
X61161158Y-35063887D01*
X61220548Y-34842238D01*
X61250500Y-34614734D01*
X61250500Y-34385266D01*
X61220548Y-34157762D01*
X61214518Y-34135258D01*
X123499500Y-34135258D01*
X123499500Y-34364741D01*
X123524446Y-34554215D01*
X123529452Y-34592238D01*
X123564160Y-34721770D01*
X123588842Y-34813887D01*
X123676650Y-35025876D01*
X123676657Y-35025890D01*
X123791392Y-35224617D01*
X123931081Y-35406661D01*
X123931089Y-35406670D01*
X124093330Y-35568911D01*
X124093338Y-35568918D01*
X124275382Y-35708607D01*
X124275385Y-35708608D01*
X124275388Y-35708611D01*
X124474112Y-35823344D01*
X124474117Y-35823346D01*
X124474123Y-35823349D01*
X124565480Y-35861190D01*
X124686113Y-35911158D01*
X124907762Y-35970548D01*
X125135266Y-36000500D01*
X125135273Y-36000500D01*
X125364727Y-36000500D01*
X125364734Y-36000500D01*
X125592238Y-35970548D01*
X125813887Y-35911158D01*
X126025888Y-35823344D01*
X126224612Y-35708611D01*
X126406661Y-35568919D01*
X126406665Y-35568914D01*
X126406670Y-35568911D01*
X126568911Y-35406670D01*
X126568914Y-35406665D01*
X126568919Y-35406661D01*
X126708611Y-35224612D01*
X126823344Y-35025888D01*
X126911158Y-34813887D01*
X126970548Y-34592238D01*
X127000500Y-34364734D01*
X127000500Y-34135266D01*
X126970548Y-33907762D01*
X126911158Y-33686113D01*
X126823344Y-33474112D01*
X126708611Y-33275388D01*
X126708608Y-33275385D01*
X126708607Y-33275382D01*
X126568918Y-33093338D01*
X126568911Y-33093330D01*
X126406670Y-32931089D01*
X126406661Y-32931081D01*
X126224617Y-32791392D01*
X126025890Y-32676657D01*
X126025876Y-32676650D01*
X125813887Y-32588842D01*
X125592238Y-32529452D01*
X125554215Y-32524446D01*
X125364741Y-32499500D01*
X125364734Y-32499500D01*
X125135266Y-32499500D01*
X125135258Y-32499500D01*
X124918715Y-32528009D01*
X124907762Y-32529452D01*
X124814076Y-32554554D01*
X124686112Y-32588842D01*
X124474123Y-32676650D01*
X124474109Y-32676657D01*
X124275382Y-32791392D01*
X124093338Y-32931081D01*
X123931081Y-33093338D01*
X123791392Y-33275382D01*
X123676657Y-33474109D01*
X123676650Y-33474123D01*
X123588842Y-33686112D01*
X123529453Y-33907759D01*
X123529451Y-33907770D01*
X123499500Y-34135258D01*
X61214518Y-34135258D01*
X61161158Y-33936113D01*
X61073344Y-33724112D01*
X60958611Y-33525388D01*
X60958608Y-33525385D01*
X60958607Y-33525382D01*
X60818918Y-33343338D01*
X60818911Y-33343330D01*
X60656670Y-33181089D01*
X60656661Y-33181081D01*
X60474617Y-33041392D01*
X60275890Y-32926657D01*
X60275876Y-32926650D01*
X60063887Y-32838842D01*
X59842238Y-32779452D01*
X59804215Y-32774446D01*
X59614741Y-32749500D01*
X59614734Y-32749500D01*
X59385266Y-32749500D01*
X59385258Y-32749500D01*
X59168715Y-32778009D01*
X59157762Y-32779452D01*
X59113212Y-32791389D01*
X58936112Y-32838842D01*
X58724123Y-32926650D01*
X58724109Y-32926657D01*
X58525382Y-33041392D01*
X58343338Y-33181081D01*
X58181081Y-33343338D01*
X58041392Y-33525382D01*
X57926657Y-33724109D01*
X57926650Y-33724123D01*
X57838842Y-33936112D01*
X57779453Y-34157759D01*
X57779451Y-34157770D01*
X57749500Y-34385258D01*
X56000500Y-34385258D01*
X56000500Y-31124500D01*
X56020185Y-31057461D01*
X56072989Y-31011706D01*
X56124500Y-31000500D01*
X128375500Y-31000500D01*
X128442539Y-31020185D01*
G37*
%TD.AperFunction*%
%TD*%
M02*
