%TF.GenerationSoftware,KiCad,Pcbnew,10.0.0*%
%TF.CreationDate,2026-07-19T14:50:55-05:00*%
%TF.ProjectId,ti99-kb-adapter,74693939-2d6b-4622-9d61-646170746572,rev?*%
%TF.SameCoordinates,Original*%
%TF.FileFunction,Legend,Top*%
%TF.FilePolarity,Positive*%
%FSLAX46Y46*%
G04 Gerber Fmt 4.6, Leading zero omitted, Abs format (unit mm)*
G04 Created by KiCad (PCBNEW 10.0.0) date 2026-07-19 14:50:55*
%MOMM*%
%LPD*%
G01*
G04 APERTURE LIST*
%ADD10C,0.100000*%
%ADD11C,0.250000*%
%ADD12C,0.300000*%
%ADD13C,0.150000*%
%ADD14C,0.120000*%
G04 APERTURE END LIST*
D10*
X102911027Y-119902531D02*
X103482455Y-119902531D01*
X103196741Y-120902531D02*
X103196741Y-119902531D01*
X103815789Y-120902531D02*
X103815789Y-119902531D01*
X104291979Y-120521578D02*
X105053884Y-120521578D01*
X105577693Y-120902531D02*
X105768169Y-120902531D01*
X105768169Y-120902531D02*
X105863407Y-120854912D01*
X105863407Y-120854912D02*
X105911026Y-120807292D01*
X105911026Y-120807292D02*
X106006264Y-120664435D01*
X106006264Y-120664435D02*
X106053883Y-120473959D01*
X106053883Y-120473959D02*
X106053883Y-120093007D01*
X106053883Y-120093007D02*
X106006264Y-119997769D01*
X106006264Y-119997769D02*
X105958645Y-119950150D01*
X105958645Y-119950150D02*
X105863407Y-119902531D01*
X105863407Y-119902531D02*
X105672931Y-119902531D01*
X105672931Y-119902531D02*
X105577693Y-119950150D01*
X105577693Y-119950150D02*
X105530074Y-119997769D01*
X105530074Y-119997769D02*
X105482455Y-120093007D01*
X105482455Y-120093007D02*
X105482455Y-120331102D01*
X105482455Y-120331102D02*
X105530074Y-120426340D01*
X105530074Y-120426340D02*
X105577693Y-120473959D01*
X105577693Y-120473959D02*
X105672931Y-120521578D01*
X105672931Y-120521578D02*
X105863407Y-120521578D01*
X105863407Y-120521578D02*
X105958645Y-120473959D01*
X105958645Y-120473959D02*
X106006264Y-120426340D01*
X106006264Y-120426340D02*
X106053883Y-120331102D01*
X106530074Y-120902531D02*
X106720550Y-120902531D01*
X106720550Y-120902531D02*
X106815788Y-120854912D01*
X106815788Y-120854912D02*
X106863407Y-120807292D01*
X106863407Y-120807292D02*
X106958645Y-120664435D01*
X106958645Y-120664435D02*
X107006264Y-120473959D01*
X107006264Y-120473959D02*
X107006264Y-120093007D01*
X107006264Y-120093007D02*
X106958645Y-119997769D01*
X106958645Y-119997769D02*
X106911026Y-119950150D01*
X106911026Y-119950150D02*
X106815788Y-119902531D01*
X106815788Y-119902531D02*
X106625312Y-119902531D01*
X106625312Y-119902531D02*
X106530074Y-119950150D01*
X106530074Y-119950150D02*
X106482455Y-119997769D01*
X106482455Y-119997769D02*
X106434836Y-120093007D01*
X106434836Y-120093007D02*
X106434836Y-120331102D01*
X106434836Y-120331102D02*
X106482455Y-120426340D01*
X106482455Y-120426340D02*
X106530074Y-120473959D01*
X106530074Y-120473959D02*
X106625312Y-120521578D01*
X106625312Y-120521578D02*
X106815788Y-120521578D01*
X106815788Y-120521578D02*
X106911026Y-120473959D01*
X106911026Y-120473959D02*
X106958645Y-120426340D01*
X106958645Y-120426340D02*
X107006264Y-120331102D01*
X108149121Y-119854912D02*
X107291979Y-121140626D01*
X108911026Y-120235864D02*
X108911026Y-120902531D01*
X108672931Y-119854912D02*
X108434836Y-120569197D01*
X108434836Y-120569197D02*
X109053883Y-120569197D01*
X109387217Y-120616816D02*
X109863407Y-120616816D01*
X109291979Y-120902531D02*
X109625312Y-119902531D01*
X109625312Y-119902531D02*
X109958645Y-120902531D01*
X111053884Y-120902531D02*
X111053884Y-119902531D01*
X111625312Y-120902531D02*
X111196741Y-120331102D01*
X111625312Y-119902531D02*
X111053884Y-120473959D01*
X112434836Y-120854912D02*
X112339598Y-120902531D01*
X112339598Y-120902531D02*
X112149122Y-120902531D01*
X112149122Y-120902531D02*
X112053884Y-120854912D01*
X112053884Y-120854912D02*
X112006265Y-120759673D01*
X112006265Y-120759673D02*
X112006265Y-120378721D01*
X112006265Y-120378721D02*
X112053884Y-120283483D01*
X112053884Y-120283483D02*
X112149122Y-120235864D01*
X112149122Y-120235864D02*
X112339598Y-120235864D01*
X112339598Y-120235864D02*
X112434836Y-120283483D01*
X112434836Y-120283483D02*
X112482455Y-120378721D01*
X112482455Y-120378721D02*
X112482455Y-120473959D01*
X112482455Y-120473959D02*
X112006265Y-120569197D01*
X112815789Y-120235864D02*
X113053884Y-120902531D01*
X113291979Y-120235864D02*
X113053884Y-120902531D01*
X113053884Y-120902531D02*
X112958646Y-121140626D01*
X112958646Y-121140626D02*
X112911027Y-121188245D01*
X112911027Y-121188245D02*
X112815789Y-121235864D01*
X113672932Y-120902531D02*
X113672932Y-119902531D01*
X113672932Y-120283483D02*
X113768170Y-120235864D01*
X113768170Y-120235864D02*
X113958646Y-120235864D01*
X113958646Y-120235864D02*
X114053884Y-120283483D01*
X114053884Y-120283483D02*
X114101503Y-120331102D01*
X114101503Y-120331102D02*
X114149122Y-120426340D01*
X114149122Y-120426340D02*
X114149122Y-120712054D01*
X114149122Y-120712054D02*
X114101503Y-120807292D01*
X114101503Y-120807292D02*
X114053884Y-120854912D01*
X114053884Y-120854912D02*
X113958646Y-120902531D01*
X113958646Y-120902531D02*
X113768170Y-120902531D01*
X113768170Y-120902531D02*
X113672932Y-120854912D01*
X114720551Y-120902531D02*
X114625313Y-120854912D01*
X114625313Y-120854912D02*
X114577694Y-120807292D01*
X114577694Y-120807292D02*
X114530075Y-120712054D01*
X114530075Y-120712054D02*
X114530075Y-120426340D01*
X114530075Y-120426340D02*
X114577694Y-120331102D01*
X114577694Y-120331102D02*
X114625313Y-120283483D01*
X114625313Y-120283483D02*
X114720551Y-120235864D01*
X114720551Y-120235864D02*
X114863408Y-120235864D01*
X114863408Y-120235864D02*
X114958646Y-120283483D01*
X114958646Y-120283483D02*
X115006265Y-120331102D01*
X115006265Y-120331102D02*
X115053884Y-120426340D01*
X115053884Y-120426340D02*
X115053884Y-120712054D01*
X115053884Y-120712054D02*
X115006265Y-120807292D01*
X115006265Y-120807292D02*
X114958646Y-120854912D01*
X114958646Y-120854912D02*
X114863408Y-120902531D01*
X114863408Y-120902531D02*
X114720551Y-120902531D01*
X115911027Y-120902531D02*
X115911027Y-120378721D01*
X115911027Y-120378721D02*
X115863408Y-120283483D01*
X115863408Y-120283483D02*
X115768170Y-120235864D01*
X115768170Y-120235864D02*
X115577694Y-120235864D01*
X115577694Y-120235864D02*
X115482456Y-120283483D01*
X115911027Y-120854912D02*
X115815789Y-120902531D01*
X115815789Y-120902531D02*
X115577694Y-120902531D01*
X115577694Y-120902531D02*
X115482456Y-120854912D01*
X115482456Y-120854912D02*
X115434837Y-120759673D01*
X115434837Y-120759673D02*
X115434837Y-120664435D01*
X115434837Y-120664435D02*
X115482456Y-120569197D01*
X115482456Y-120569197D02*
X115577694Y-120521578D01*
X115577694Y-120521578D02*
X115815789Y-120521578D01*
X115815789Y-120521578D02*
X115911027Y-120473959D01*
X116387218Y-120902531D02*
X116387218Y-120235864D01*
X116387218Y-120426340D02*
X116434837Y-120331102D01*
X116434837Y-120331102D02*
X116482456Y-120283483D01*
X116482456Y-120283483D02*
X116577694Y-120235864D01*
X116577694Y-120235864D02*
X116672932Y-120235864D01*
X117434837Y-120902531D02*
X117434837Y-119902531D01*
X117434837Y-120854912D02*
X117339599Y-120902531D01*
X117339599Y-120902531D02*
X117149123Y-120902531D01*
X117149123Y-120902531D02*
X117053885Y-120854912D01*
X117053885Y-120854912D02*
X117006266Y-120807292D01*
X117006266Y-120807292D02*
X116958647Y-120712054D01*
X116958647Y-120712054D02*
X116958647Y-120426340D01*
X116958647Y-120426340D02*
X117006266Y-120331102D01*
X117006266Y-120331102D02*
X117053885Y-120283483D01*
X117053885Y-120283483D02*
X117149123Y-120235864D01*
X117149123Y-120235864D02*
X117339599Y-120235864D01*
X117339599Y-120235864D02*
X117434837Y-120283483D01*
X118625314Y-120616816D02*
X119101504Y-120616816D01*
X118530076Y-120902531D02*
X118863409Y-119902531D01*
X118863409Y-119902531D02*
X119196742Y-120902531D01*
X119958647Y-120902531D02*
X119958647Y-119902531D01*
X119958647Y-120854912D02*
X119863409Y-120902531D01*
X119863409Y-120902531D02*
X119672933Y-120902531D01*
X119672933Y-120902531D02*
X119577695Y-120854912D01*
X119577695Y-120854912D02*
X119530076Y-120807292D01*
X119530076Y-120807292D02*
X119482457Y-120712054D01*
X119482457Y-120712054D02*
X119482457Y-120426340D01*
X119482457Y-120426340D02*
X119530076Y-120331102D01*
X119530076Y-120331102D02*
X119577695Y-120283483D01*
X119577695Y-120283483D02*
X119672933Y-120235864D01*
X119672933Y-120235864D02*
X119863409Y-120235864D01*
X119863409Y-120235864D02*
X119958647Y-120283483D01*
X120863409Y-120902531D02*
X120863409Y-120378721D01*
X120863409Y-120378721D02*
X120815790Y-120283483D01*
X120815790Y-120283483D02*
X120720552Y-120235864D01*
X120720552Y-120235864D02*
X120530076Y-120235864D01*
X120530076Y-120235864D02*
X120434838Y-120283483D01*
X120863409Y-120854912D02*
X120768171Y-120902531D01*
X120768171Y-120902531D02*
X120530076Y-120902531D01*
X120530076Y-120902531D02*
X120434838Y-120854912D01*
X120434838Y-120854912D02*
X120387219Y-120759673D01*
X120387219Y-120759673D02*
X120387219Y-120664435D01*
X120387219Y-120664435D02*
X120434838Y-120569197D01*
X120434838Y-120569197D02*
X120530076Y-120521578D01*
X120530076Y-120521578D02*
X120768171Y-120521578D01*
X120768171Y-120521578D02*
X120863409Y-120473959D01*
X121339600Y-120235864D02*
X121339600Y-121235864D01*
X121339600Y-120283483D02*
X121434838Y-120235864D01*
X121434838Y-120235864D02*
X121625314Y-120235864D01*
X121625314Y-120235864D02*
X121720552Y-120283483D01*
X121720552Y-120283483D02*
X121768171Y-120331102D01*
X121768171Y-120331102D02*
X121815790Y-120426340D01*
X121815790Y-120426340D02*
X121815790Y-120712054D01*
X121815790Y-120712054D02*
X121768171Y-120807292D01*
X121768171Y-120807292D02*
X121720552Y-120854912D01*
X121720552Y-120854912D02*
X121625314Y-120902531D01*
X121625314Y-120902531D02*
X121434838Y-120902531D01*
X121434838Y-120902531D02*
X121339600Y-120854912D01*
X122101505Y-120235864D02*
X122482457Y-120235864D01*
X122244362Y-119902531D02*
X122244362Y-120759673D01*
X122244362Y-120759673D02*
X122291981Y-120854912D01*
X122291981Y-120854912D02*
X122387219Y-120902531D01*
X122387219Y-120902531D02*
X122482457Y-120902531D01*
X122958648Y-120902531D02*
X122863410Y-120854912D01*
X122863410Y-120854912D02*
X122815791Y-120807292D01*
X122815791Y-120807292D02*
X122768172Y-120712054D01*
X122768172Y-120712054D02*
X122768172Y-120426340D01*
X122768172Y-120426340D02*
X122815791Y-120331102D01*
X122815791Y-120331102D02*
X122863410Y-120283483D01*
X122863410Y-120283483D02*
X122958648Y-120235864D01*
X122958648Y-120235864D02*
X123101505Y-120235864D01*
X123101505Y-120235864D02*
X123196743Y-120283483D01*
X123196743Y-120283483D02*
X123244362Y-120331102D01*
X123244362Y-120331102D02*
X123291981Y-120426340D01*
X123291981Y-120426340D02*
X123291981Y-120712054D01*
X123291981Y-120712054D02*
X123244362Y-120807292D01*
X123244362Y-120807292D02*
X123196743Y-120854912D01*
X123196743Y-120854912D02*
X123101505Y-120902531D01*
X123101505Y-120902531D02*
X122958648Y-120902531D01*
X123720553Y-120902531D02*
X123720553Y-120235864D01*
X123720553Y-120426340D02*
X123768172Y-120331102D01*
X123768172Y-120331102D02*
X123815791Y-120283483D01*
X123815791Y-120283483D02*
X123911029Y-120235864D01*
X123911029Y-120235864D02*
X124006267Y-120235864D01*
X125672934Y-120902531D02*
X125339601Y-120426340D01*
X125101506Y-120902531D02*
X125101506Y-119902531D01*
X125101506Y-119902531D02*
X125482458Y-119902531D01*
X125482458Y-119902531D02*
X125577696Y-119950150D01*
X125577696Y-119950150D02*
X125625315Y-119997769D01*
X125625315Y-119997769D02*
X125672934Y-120093007D01*
X125672934Y-120093007D02*
X125672934Y-120235864D01*
X125672934Y-120235864D02*
X125625315Y-120331102D01*
X125625315Y-120331102D02*
X125577696Y-120378721D01*
X125577696Y-120378721D02*
X125482458Y-120426340D01*
X125482458Y-120426340D02*
X125101506Y-120426340D01*
X126530077Y-120235864D02*
X126530077Y-120902531D01*
X126291982Y-119854912D02*
X126053887Y-120569197D01*
X126053887Y-120569197D02*
X126672934Y-120569197D01*
X103625312Y-122417236D02*
X103577693Y-122464856D01*
X103577693Y-122464856D02*
X103434836Y-122512475D01*
X103434836Y-122512475D02*
X103339598Y-122512475D01*
X103339598Y-122512475D02*
X103196741Y-122464856D01*
X103196741Y-122464856D02*
X103101503Y-122369617D01*
X103101503Y-122369617D02*
X103053884Y-122274379D01*
X103053884Y-122274379D02*
X103006265Y-122083903D01*
X103006265Y-122083903D02*
X103006265Y-121941046D01*
X103006265Y-121941046D02*
X103053884Y-121750570D01*
X103053884Y-121750570D02*
X103101503Y-121655332D01*
X103101503Y-121655332D02*
X103196741Y-121560094D01*
X103196741Y-121560094D02*
X103339598Y-121512475D01*
X103339598Y-121512475D02*
X103434836Y-121512475D01*
X103434836Y-121512475D02*
X103577693Y-121560094D01*
X103577693Y-121560094D02*
X103625312Y-121607713D01*
X104196741Y-122512475D02*
X104101503Y-122464856D01*
X104101503Y-122464856D02*
X104053884Y-122417236D01*
X104053884Y-122417236D02*
X104006265Y-122321998D01*
X104006265Y-122321998D02*
X104006265Y-122036284D01*
X104006265Y-122036284D02*
X104053884Y-121941046D01*
X104053884Y-121941046D02*
X104101503Y-121893427D01*
X104101503Y-121893427D02*
X104196741Y-121845808D01*
X104196741Y-121845808D02*
X104339598Y-121845808D01*
X104339598Y-121845808D02*
X104434836Y-121893427D01*
X104434836Y-121893427D02*
X104482455Y-121941046D01*
X104482455Y-121941046D02*
X104530074Y-122036284D01*
X104530074Y-122036284D02*
X104530074Y-122321998D01*
X104530074Y-122321998D02*
X104482455Y-122417236D01*
X104482455Y-122417236D02*
X104434836Y-122464856D01*
X104434836Y-122464856D02*
X104339598Y-122512475D01*
X104339598Y-122512475D02*
X104196741Y-122512475D01*
X104958646Y-121845808D02*
X104958646Y-122845808D01*
X104958646Y-121893427D02*
X105053884Y-121845808D01*
X105053884Y-121845808D02*
X105244360Y-121845808D01*
X105244360Y-121845808D02*
X105339598Y-121893427D01*
X105339598Y-121893427D02*
X105387217Y-121941046D01*
X105387217Y-121941046D02*
X105434836Y-122036284D01*
X105434836Y-122036284D02*
X105434836Y-122321998D01*
X105434836Y-122321998D02*
X105387217Y-122417236D01*
X105387217Y-122417236D02*
X105339598Y-122464856D01*
X105339598Y-122464856D02*
X105244360Y-122512475D01*
X105244360Y-122512475D02*
X105053884Y-122512475D01*
X105053884Y-122512475D02*
X104958646Y-122464856D01*
X105768170Y-121845808D02*
X106006265Y-122512475D01*
X106244360Y-121845808D02*
X106006265Y-122512475D01*
X106006265Y-122512475D02*
X105911027Y-122750570D01*
X105911027Y-122750570D02*
X105863408Y-122798189D01*
X105863408Y-122798189D02*
X105768170Y-122845808D01*
X106625313Y-122512475D02*
X106625313Y-121845808D01*
X106625313Y-122036284D02*
X106672932Y-121941046D01*
X106672932Y-121941046D02*
X106720551Y-121893427D01*
X106720551Y-121893427D02*
X106815789Y-121845808D01*
X106815789Y-121845808D02*
X106911027Y-121845808D01*
X107244361Y-122512475D02*
X107244361Y-121845808D01*
X107244361Y-121512475D02*
X107196742Y-121560094D01*
X107196742Y-121560094D02*
X107244361Y-121607713D01*
X107244361Y-121607713D02*
X107291980Y-121560094D01*
X107291980Y-121560094D02*
X107244361Y-121512475D01*
X107244361Y-121512475D02*
X107244361Y-121607713D01*
X108149122Y-121845808D02*
X108149122Y-122655332D01*
X108149122Y-122655332D02*
X108101503Y-122750570D01*
X108101503Y-122750570D02*
X108053884Y-122798189D01*
X108053884Y-122798189D02*
X107958646Y-122845808D01*
X107958646Y-122845808D02*
X107815789Y-122845808D01*
X107815789Y-122845808D02*
X107720551Y-122798189D01*
X108149122Y-122464856D02*
X108053884Y-122512475D01*
X108053884Y-122512475D02*
X107863408Y-122512475D01*
X107863408Y-122512475D02*
X107768170Y-122464856D01*
X107768170Y-122464856D02*
X107720551Y-122417236D01*
X107720551Y-122417236D02*
X107672932Y-122321998D01*
X107672932Y-122321998D02*
X107672932Y-122036284D01*
X107672932Y-122036284D02*
X107720551Y-121941046D01*
X107720551Y-121941046D02*
X107768170Y-121893427D01*
X107768170Y-121893427D02*
X107863408Y-121845808D01*
X107863408Y-121845808D02*
X108053884Y-121845808D01*
X108053884Y-121845808D02*
X108149122Y-121893427D01*
X108625313Y-122512475D02*
X108625313Y-121512475D01*
X109053884Y-122512475D02*
X109053884Y-121988665D01*
X109053884Y-121988665D02*
X109006265Y-121893427D01*
X109006265Y-121893427D02*
X108911027Y-121845808D01*
X108911027Y-121845808D02*
X108768170Y-121845808D01*
X108768170Y-121845808D02*
X108672932Y-121893427D01*
X108672932Y-121893427D02*
X108625313Y-121941046D01*
X109387218Y-121845808D02*
X109768170Y-121845808D01*
X109530075Y-121512475D02*
X109530075Y-122369617D01*
X109530075Y-122369617D02*
X109577694Y-122464856D01*
X109577694Y-122464856D02*
X109672932Y-122512475D01*
X109672932Y-122512475D02*
X109768170Y-122512475D01*
X110815790Y-121607713D02*
X110863409Y-121560094D01*
X110863409Y-121560094D02*
X110958647Y-121512475D01*
X110958647Y-121512475D02*
X111196742Y-121512475D01*
X111196742Y-121512475D02*
X111291980Y-121560094D01*
X111291980Y-121560094D02*
X111339599Y-121607713D01*
X111339599Y-121607713D02*
X111387218Y-121702951D01*
X111387218Y-121702951D02*
X111387218Y-121798189D01*
X111387218Y-121798189D02*
X111339599Y-121941046D01*
X111339599Y-121941046D02*
X110768171Y-122512475D01*
X110768171Y-122512475D02*
X111387218Y-122512475D01*
X112006266Y-121512475D02*
X112101504Y-121512475D01*
X112101504Y-121512475D02*
X112196742Y-121560094D01*
X112196742Y-121560094D02*
X112244361Y-121607713D01*
X112244361Y-121607713D02*
X112291980Y-121702951D01*
X112291980Y-121702951D02*
X112339599Y-121893427D01*
X112339599Y-121893427D02*
X112339599Y-122131522D01*
X112339599Y-122131522D02*
X112291980Y-122321998D01*
X112291980Y-122321998D02*
X112244361Y-122417236D01*
X112244361Y-122417236D02*
X112196742Y-122464856D01*
X112196742Y-122464856D02*
X112101504Y-122512475D01*
X112101504Y-122512475D02*
X112006266Y-122512475D01*
X112006266Y-122512475D02*
X111911028Y-122464856D01*
X111911028Y-122464856D02*
X111863409Y-122417236D01*
X111863409Y-122417236D02*
X111815790Y-122321998D01*
X111815790Y-122321998D02*
X111768171Y-122131522D01*
X111768171Y-122131522D02*
X111768171Y-121893427D01*
X111768171Y-121893427D02*
X111815790Y-121702951D01*
X111815790Y-121702951D02*
X111863409Y-121607713D01*
X111863409Y-121607713D02*
X111911028Y-121560094D01*
X111911028Y-121560094D02*
X112006266Y-121512475D01*
X112720552Y-121607713D02*
X112768171Y-121560094D01*
X112768171Y-121560094D02*
X112863409Y-121512475D01*
X112863409Y-121512475D02*
X113101504Y-121512475D01*
X113101504Y-121512475D02*
X113196742Y-121560094D01*
X113196742Y-121560094D02*
X113244361Y-121607713D01*
X113244361Y-121607713D02*
X113291980Y-121702951D01*
X113291980Y-121702951D02*
X113291980Y-121798189D01*
X113291980Y-121798189D02*
X113244361Y-121941046D01*
X113244361Y-121941046D02*
X112672933Y-122512475D01*
X112672933Y-122512475D02*
X113291980Y-122512475D01*
X114149123Y-121512475D02*
X113958647Y-121512475D01*
X113958647Y-121512475D02*
X113863409Y-121560094D01*
X113863409Y-121560094D02*
X113815790Y-121607713D01*
X113815790Y-121607713D02*
X113720552Y-121750570D01*
X113720552Y-121750570D02*
X113672933Y-121941046D01*
X113672933Y-121941046D02*
X113672933Y-122321998D01*
X113672933Y-122321998D02*
X113720552Y-122417236D01*
X113720552Y-122417236D02*
X113768171Y-122464856D01*
X113768171Y-122464856D02*
X113863409Y-122512475D01*
X113863409Y-122512475D02*
X114053885Y-122512475D01*
X114053885Y-122512475D02*
X114149123Y-122464856D01*
X114149123Y-122464856D02*
X114196742Y-122417236D01*
X114196742Y-122417236D02*
X114244361Y-122321998D01*
X114244361Y-122321998D02*
X114244361Y-122083903D01*
X114244361Y-122083903D02*
X114196742Y-121988665D01*
X114196742Y-121988665D02*
X114149123Y-121941046D01*
X114149123Y-121941046D02*
X114053885Y-121893427D01*
X114053885Y-121893427D02*
X113863409Y-121893427D01*
X113863409Y-121893427D02*
X113768171Y-121941046D01*
X113768171Y-121941046D02*
X113720552Y-121988665D01*
X113720552Y-121988665D02*
X113672933Y-122083903D01*
X114720552Y-122464856D02*
X114720552Y-122512475D01*
X114720552Y-122512475D02*
X114672933Y-122607713D01*
X114672933Y-122607713D02*
X114625314Y-122655332D01*
X116196742Y-121512475D02*
X116196742Y-122226760D01*
X116196742Y-122226760D02*
X116149123Y-122369617D01*
X116149123Y-122369617D02*
X116053885Y-122464856D01*
X116053885Y-122464856D02*
X115911028Y-122512475D01*
X115911028Y-122512475D02*
X115815790Y-122512475D01*
X116815790Y-122512475D02*
X116720552Y-122464856D01*
X116720552Y-122464856D02*
X116672933Y-122417236D01*
X116672933Y-122417236D02*
X116625314Y-122321998D01*
X116625314Y-122321998D02*
X116625314Y-122036284D01*
X116625314Y-122036284D02*
X116672933Y-121941046D01*
X116672933Y-121941046D02*
X116720552Y-121893427D01*
X116720552Y-121893427D02*
X116815790Y-121845808D01*
X116815790Y-121845808D02*
X116958647Y-121845808D01*
X116958647Y-121845808D02*
X117053885Y-121893427D01*
X117053885Y-121893427D02*
X117101504Y-121941046D01*
X117101504Y-121941046D02*
X117149123Y-122036284D01*
X117149123Y-122036284D02*
X117149123Y-122321998D01*
X117149123Y-122321998D02*
X117101504Y-122417236D01*
X117101504Y-122417236D02*
X117053885Y-122464856D01*
X117053885Y-122464856D02*
X116958647Y-122512475D01*
X116958647Y-122512475D02*
X116815790Y-122512475D01*
X117577695Y-121845808D02*
X117577695Y-122512475D01*
X117577695Y-121941046D02*
X117625314Y-121893427D01*
X117625314Y-121893427D02*
X117720552Y-121845808D01*
X117720552Y-121845808D02*
X117863409Y-121845808D01*
X117863409Y-121845808D02*
X117958647Y-121893427D01*
X117958647Y-121893427D02*
X118006266Y-121988665D01*
X118006266Y-121988665D02*
X118006266Y-122512475D01*
X119101505Y-121512475D02*
X119434838Y-122512475D01*
X119434838Y-122512475D02*
X119768171Y-121512475D01*
X120244362Y-122512475D02*
X120149124Y-122464856D01*
X120149124Y-122464856D02*
X120101505Y-122417236D01*
X120101505Y-122417236D02*
X120053886Y-122321998D01*
X120053886Y-122321998D02*
X120053886Y-122036284D01*
X120053886Y-122036284D02*
X120101505Y-121941046D01*
X120101505Y-121941046D02*
X120149124Y-121893427D01*
X120149124Y-121893427D02*
X120244362Y-121845808D01*
X120244362Y-121845808D02*
X120387219Y-121845808D01*
X120387219Y-121845808D02*
X120482457Y-121893427D01*
X120482457Y-121893427D02*
X120530076Y-121941046D01*
X120530076Y-121941046D02*
X120577695Y-122036284D01*
X120577695Y-122036284D02*
X120577695Y-122321998D01*
X120577695Y-122321998D02*
X120530076Y-122417236D01*
X120530076Y-122417236D02*
X120482457Y-122464856D01*
X120482457Y-122464856D02*
X120387219Y-122512475D01*
X120387219Y-122512475D02*
X120244362Y-122512475D01*
X121434838Y-121845808D02*
X121434838Y-122655332D01*
X121434838Y-122655332D02*
X121387219Y-122750570D01*
X121387219Y-122750570D02*
X121339600Y-122798189D01*
X121339600Y-122798189D02*
X121244362Y-122845808D01*
X121244362Y-122845808D02*
X121101505Y-122845808D01*
X121101505Y-122845808D02*
X121006267Y-122798189D01*
X121434838Y-122464856D02*
X121339600Y-122512475D01*
X121339600Y-122512475D02*
X121149124Y-122512475D01*
X121149124Y-122512475D02*
X121053886Y-122464856D01*
X121053886Y-122464856D02*
X121006267Y-122417236D01*
X121006267Y-122417236D02*
X120958648Y-122321998D01*
X120958648Y-122321998D02*
X120958648Y-122036284D01*
X120958648Y-122036284D02*
X121006267Y-121941046D01*
X121006267Y-121941046D02*
X121053886Y-121893427D01*
X121053886Y-121893427D02*
X121149124Y-121845808D01*
X121149124Y-121845808D02*
X121339600Y-121845808D01*
X121339600Y-121845808D02*
X121434838Y-121893427D01*
X122291981Y-122464856D02*
X122196743Y-122512475D01*
X122196743Y-122512475D02*
X122006267Y-122512475D01*
X122006267Y-122512475D02*
X121911029Y-122464856D01*
X121911029Y-122464856D02*
X121863410Y-122369617D01*
X121863410Y-122369617D02*
X121863410Y-121988665D01*
X121863410Y-121988665D02*
X121911029Y-121893427D01*
X121911029Y-121893427D02*
X122006267Y-121845808D01*
X122006267Y-121845808D02*
X122196743Y-121845808D01*
X122196743Y-121845808D02*
X122291981Y-121893427D01*
X122291981Y-121893427D02*
X122339600Y-121988665D01*
X122339600Y-121988665D02*
X122339600Y-122083903D01*
X122339600Y-122083903D02*
X121863410Y-122179141D01*
X122911029Y-122512475D02*
X122815791Y-122464856D01*
X122815791Y-122464856D02*
X122768172Y-122369617D01*
X122768172Y-122369617D02*
X122768172Y-121512475D01*
X103053884Y-123455752D02*
X103053884Y-124312895D01*
X103053884Y-124312895D02*
X103006265Y-124408133D01*
X103006265Y-124408133D02*
X102911027Y-124455752D01*
X102911027Y-124455752D02*
X102863408Y-124455752D01*
X103053884Y-123122419D02*
X103006265Y-123170038D01*
X103006265Y-123170038D02*
X103053884Y-123217657D01*
X103053884Y-123217657D02*
X103101503Y-123170038D01*
X103101503Y-123170038D02*
X103053884Y-123122419D01*
X103053884Y-123122419D02*
X103053884Y-123217657D01*
X103672931Y-124122419D02*
X103577693Y-124074800D01*
X103577693Y-124074800D02*
X103530074Y-124027180D01*
X103530074Y-124027180D02*
X103482455Y-123931942D01*
X103482455Y-123931942D02*
X103482455Y-123646228D01*
X103482455Y-123646228D02*
X103530074Y-123550990D01*
X103530074Y-123550990D02*
X103577693Y-123503371D01*
X103577693Y-123503371D02*
X103672931Y-123455752D01*
X103672931Y-123455752D02*
X103815788Y-123455752D01*
X103815788Y-123455752D02*
X103911026Y-123503371D01*
X103911026Y-123503371D02*
X103958645Y-123550990D01*
X103958645Y-123550990D02*
X104006264Y-123646228D01*
X104006264Y-123646228D02*
X104006264Y-123931942D01*
X104006264Y-123931942D02*
X103958645Y-124027180D01*
X103958645Y-124027180D02*
X103911026Y-124074800D01*
X103911026Y-124074800D02*
X103815788Y-124122419D01*
X103815788Y-124122419D02*
X103672931Y-124122419D01*
X104434836Y-123455752D02*
X104434836Y-124122419D01*
X104434836Y-123550990D02*
X104482455Y-123503371D01*
X104482455Y-123503371D02*
X104577693Y-123455752D01*
X104577693Y-123455752D02*
X104720550Y-123455752D01*
X104720550Y-123455752D02*
X104815788Y-123503371D01*
X104815788Y-123503371D02*
X104863407Y-123598609D01*
X104863407Y-123598609D02*
X104863407Y-124122419D01*
X105339598Y-123455752D02*
X105339598Y-124455752D01*
X105339598Y-123503371D02*
X105434836Y-123455752D01*
X105434836Y-123455752D02*
X105625312Y-123455752D01*
X105625312Y-123455752D02*
X105720550Y-123503371D01*
X105720550Y-123503371D02*
X105768169Y-123550990D01*
X105768169Y-123550990D02*
X105815788Y-123646228D01*
X105815788Y-123646228D02*
X105815788Y-123931942D01*
X105815788Y-123931942D02*
X105768169Y-124027180D01*
X105768169Y-124027180D02*
X105720550Y-124074800D01*
X105720550Y-124074800D02*
X105625312Y-124122419D01*
X105625312Y-124122419D02*
X105434836Y-124122419D01*
X105434836Y-124122419D02*
X105339598Y-124074800D01*
X106149122Y-123455752D02*
X106387217Y-124122419D01*
X106387217Y-124122419D02*
X106625312Y-123455752D01*
X107149122Y-124122419D02*
X107053884Y-124074800D01*
X107053884Y-124074800D02*
X107006265Y-124027180D01*
X107006265Y-124027180D02*
X106958646Y-123931942D01*
X106958646Y-123931942D02*
X106958646Y-123646228D01*
X106958646Y-123646228D02*
X107006265Y-123550990D01*
X107006265Y-123550990D02*
X107053884Y-123503371D01*
X107053884Y-123503371D02*
X107149122Y-123455752D01*
X107149122Y-123455752D02*
X107291979Y-123455752D01*
X107291979Y-123455752D02*
X107387217Y-123503371D01*
X107387217Y-123503371D02*
X107434836Y-123550990D01*
X107434836Y-123550990D02*
X107482455Y-123646228D01*
X107482455Y-123646228D02*
X107482455Y-123931942D01*
X107482455Y-123931942D02*
X107434836Y-124027180D01*
X107434836Y-124027180D02*
X107387217Y-124074800D01*
X107387217Y-124074800D02*
X107291979Y-124122419D01*
X107291979Y-124122419D02*
X107149122Y-124122419D01*
X108339598Y-123455752D02*
X108339598Y-124265276D01*
X108339598Y-124265276D02*
X108291979Y-124360514D01*
X108291979Y-124360514D02*
X108244360Y-124408133D01*
X108244360Y-124408133D02*
X108149122Y-124455752D01*
X108149122Y-124455752D02*
X108006265Y-124455752D01*
X108006265Y-124455752D02*
X107911027Y-124408133D01*
X108339598Y-124074800D02*
X108244360Y-124122419D01*
X108244360Y-124122419D02*
X108053884Y-124122419D01*
X108053884Y-124122419D02*
X107958646Y-124074800D01*
X107958646Y-124074800D02*
X107911027Y-124027180D01*
X107911027Y-124027180D02*
X107863408Y-123931942D01*
X107863408Y-123931942D02*
X107863408Y-123646228D01*
X107863408Y-123646228D02*
X107911027Y-123550990D01*
X107911027Y-123550990D02*
X107958646Y-123503371D01*
X107958646Y-123503371D02*
X108053884Y-123455752D01*
X108053884Y-123455752D02*
X108244360Y-123455752D01*
X108244360Y-123455752D02*
X108339598Y-123503371D01*
X109196741Y-124074800D02*
X109101503Y-124122419D01*
X109101503Y-124122419D02*
X108911027Y-124122419D01*
X108911027Y-124122419D02*
X108815789Y-124074800D01*
X108815789Y-124074800D02*
X108768170Y-123979561D01*
X108768170Y-123979561D02*
X108768170Y-123598609D01*
X108768170Y-123598609D02*
X108815789Y-123503371D01*
X108815789Y-123503371D02*
X108911027Y-123455752D01*
X108911027Y-123455752D02*
X109101503Y-123455752D01*
X109101503Y-123455752D02*
X109196741Y-123503371D01*
X109196741Y-123503371D02*
X109244360Y-123598609D01*
X109244360Y-123598609D02*
X109244360Y-123693847D01*
X109244360Y-123693847D02*
X108768170Y-123789085D01*
X109815789Y-124122419D02*
X109720551Y-124074800D01*
X109720551Y-124074800D02*
X109672932Y-123979561D01*
X109672932Y-123979561D02*
X109672932Y-123122419D01*
X110815789Y-123646228D02*
X110768170Y-123598609D01*
X110768170Y-123598609D02*
X110672932Y-123550990D01*
X110672932Y-123550990D02*
X110577694Y-123550990D01*
X110577694Y-123550990D02*
X110482456Y-123598609D01*
X110482456Y-123598609D02*
X110434837Y-123646228D01*
X110434837Y-123646228D02*
X110387218Y-123741466D01*
X110387218Y-123741466D02*
X110387218Y-123836704D01*
X110387218Y-123836704D02*
X110434837Y-123931942D01*
X110434837Y-123931942D02*
X110482456Y-123979561D01*
X110482456Y-123979561D02*
X110577694Y-124027180D01*
X110577694Y-124027180D02*
X110672932Y-124027180D01*
X110672932Y-124027180D02*
X110768170Y-123979561D01*
X110768170Y-123979561D02*
X110815789Y-123931942D01*
X110815789Y-123550990D02*
X110815789Y-123931942D01*
X110815789Y-123931942D02*
X110863408Y-123979561D01*
X110863408Y-123979561D02*
X110911027Y-123979561D01*
X110911027Y-123979561D02*
X111006266Y-123931942D01*
X111006266Y-123931942D02*
X111053885Y-123836704D01*
X111053885Y-123836704D02*
X111053885Y-123598609D01*
X111053885Y-123598609D02*
X110958647Y-123455752D01*
X110958647Y-123455752D02*
X110815789Y-123360514D01*
X110815789Y-123360514D02*
X110625313Y-123312895D01*
X110625313Y-123312895D02*
X110434837Y-123360514D01*
X110434837Y-123360514D02*
X110291980Y-123455752D01*
X110291980Y-123455752D02*
X110196742Y-123598609D01*
X110196742Y-123598609D02*
X110149123Y-123789085D01*
X110149123Y-123789085D02*
X110196742Y-123979561D01*
X110196742Y-123979561D02*
X110291980Y-124122419D01*
X110291980Y-124122419D02*
X110434837Y-124217657D01*
X110434837Y-124217657D02*
X110625313Y-124265276D01*
X110625313Y-124265276D02*
X110815789Y-124217657D01*
X110815789Y-124217657D02*
X110958647Y-124122419D01*
X111911027Y-123455752D02*
X111911027Y-124265276D01*
X111911027Y-124265276D02*
X111863408Y-124360514D01*
X111863408Y-124360514D02*
X111815789Y-124408133D01*
X111815789Y-124408133D02*
X111720551Y-124455752D01*
X111720551Y-124455752D02*
X111577694Y-124455752D01*
X111577694Y-124455752D02*
X111482456Y-124408133D01*
X111911027Y-124074800D02*
X111815789Y-124122419D01*
X111815789Y-124122419D02*
X111625313Y-124122419D01*
X111625313Y-124122419D02*
X111530075Y-124074800D01*
X111530075Y-124074800D02*
X111482456Y-124027180D01*
X111482456Y-124027180D02*
X111434837Y-123931942D01*
X111434837Y-123931942D02*
X111434837Y-123646228D01*
X111434837Y-123646228D02*
X111482456Y-123550990D01*
X111482456Y-123550990D02*
X111530075Y-123503371D01*
X111530075Y-123503371D02*
X111625313Y-123455752D01*
X111625313Y-123455752D02*
X111815789Y-123455752D01*
X111815789Y-123455752D02*
X111911027Y-123503371D01*
X112387218Y-124122419D02*
X112387218Y-123455752D01*
X112387218Y-123550990D02*
X112434837Y-123503371D01*
X112434837Y-123503371D02*
X112530075Y-123455752D01*
X112530075Y-123455752D02*
X112672932Y-123455752D01*
X112672932Y-123455752D02*
X112768170Y-123503371D01*
X112768170Y-123503371D02*
X112815789Y-123598609D01*
X112815789Y-123598609D02*
X112815789Y-124122419D01*
X112815789Y-123598609D02*
X112863408Y-123503371D01*
X112863408Y-123503371D02*
X112958646Y-123455752D01*
X112958646Y-123455752D02*
X113101503Y-123455752D01*
X113101503Y-123455752D02*
X113196742Y-123503371D01*
X113196742Y-123503371D02*
X113244361Y-123598609D01*
X113244361Y-123598609D02*
X113244361Y-124122419D01*
X114149122Y-124122419D02*
X114149122Y-123598609D01*
X114149122Y-123598609D02*
X114101503Y-123503371D01*
X114101503Y-123503371D02*
X114006265Y-123455752D01*
X114006265Y-123455752D02*
X113815789Y-123455752D01*
X113815789Y-123455752D02*
X113720551Y-123503371D01*
X114149122Y-124074800D02*
X114053884Y-124122419D01*
X114053884Y-124122419D02*
X113815789Y-124122419D01*
X113815789Y-124122419D02*
X113720551Y-124074800D01*
X113720551Y-124074800D02*
X113672932Y-123979561D01*
X113672932Y-123979561D02*
X113672932Y-123884323D01*
X113672932Y-123884323D02*
X113720551Y-123789085D01*
X113720551Y-123789085D02*
X113815789Y-123741466D01*
X113815789Y-123741466D02*
X114053884Y-123741466D01*
X114053884Y-123741466D02*
X114149122Y-123693847D01*
X114625313Y-124122419D02*
X114625313Y-123455752D01*
X114625313Y-123122419D02*
X114577694Y-123170038D01*
X114577694Y-123170038D02*
X114625313Y-123217657D01*
X114625313Y-123217657D02*
X114672932Y-123170038D01*
X114672932Y-123170038D02*
X114625313Y-123122419D01*
X114625313Y-123122419D02*
X114625313Y-123217657D01*
X115244360Y-124122419D02*
X115149122Y-124074800D01*
X115149122Y-124074800D02*
X115101503Y-123979561D01*
X115101503Y-123979561D02*
X115101503Y-123122419D01*
X115625313Y-124027180D02*
X115672932Y-124074800D01*
X115672932Y-124074800D02*
X115625313Y-124122419D01*
X115625313Y-124122419D02*
X115577694Y-124074800D01*
X115577694Y-124074800D02*
X115625313Y-124027180D01*
X115625313Y-124027180D02*
X115625313Y-124122419D01*
X116530074Y-124074800D02*
X116434836Y-124122419D01*
X116434836Y-124122419D02*
X116244360Y-124122419D01*
X116244360Y-124122419D02*
X116149122Y-124074800D01*
X116149122Y-124074800D02*
X116101503Y-124027180D01*
X116101503Y-124027180D02*
X116053884Y-123931942D01*
X116053884Y-123931942D02*
X116053884Y-123646228D01*
X116053884Y-123646228D02*
X116101503Y-123550990D01*
X116101503Y-123550990D02*
X116149122Y-123503371D01*
X116149122Y-123503371D02*
X116244360Y-123455752D01*
X116244360Y-123455752D02*
X116434836Y-123455752D01*
X116434836Y-123455752D02*
X116530074Y-123503371D01*
X117101503Y-124122419D02*
X117006265Y-124074800D01*
X117006265Y-124074800D02*
X116958646Y-124027180D01*
X116958646Y-124027180D02*
X116911027Y-123931942D01*
X116911027Y-123931942D02*
X116911027Y-123646228D01*
X116911027Y-123646228D02*
X116958646Y-123550990D01*
X116958646Y-123550990D02*
X117006265Y-123503371D01*
X117006265Y-123503371D02*
X117101503Y-123455752D01*
X117101503Y-123455752D02*
X117244360Y-123455752D01*
X117244360Y-123455752D02*
X117339598Y-123503371D01*
X117339598Y-123503371D02*
X117387217Y-123550990D01*
X117387217Y-123550990D02*
X117434836Y-123646228D01*
X117434836Y-123646228D02*
X117434836Y-123931942D01*
X117434836Y-123931942D02*
X117387217Y-124027180D01*
X117387217Y-124027180D02*
X117339598Y-124074800D01*
X117339598Y-124074800D02*
X117244360Y-124122419D01*
X117244360Y-124122419D02*
X117101503Y-124122419D01*
X117863408Y-124122419D02*
X117863408Y-123455752D01*
X117863408Y-123550990D02*
X117911027Y-123503371D01*
X117911027Y-123503371D02*
X118006265Y-123455752D01*
X118006265Y-123455752D02*
X118149122Y-123455752D01*
X118149122Y-123455752D02*
X118244360Y-123503371D01*
X118244360Y-123503371D02*
X118291979Y-123598609D01*
X118291979Y-123598609D02*
X118291979Y-124122419D01*
X118291979Y-123598609D02*
X118339598Y-123503371D01*
X118339598Y-123503371D02*
X118434836Y-123455752D01*
X118434836Y-123455752D02*
X118577693Y-123455752D01*
X118577693Y-123455752D02*
X118672932Y-123503371D01*
X118672932Y-123503371D02*
X118720551Y-123598609D01*
X118720551Y-123598609D02*
X118720551Y-124122419D01*
D11*
X57733666Y-116807431D02*
X57733666Y-116045527D01*
X57733666Y-120057431D02*
X57733666Y-119295527D01*
X58114619Y-119676479D02*
X57352714Y-119676479D01*
X57114619Y-118343146D02*
X57114619Y-118819336D01*
X57114619Y-118819336D02*
X57590809Y-118866955D01*
X57590809Y-118866955D02*
X57543190Y-118819336D01*
X57543190Y-118819336D02*
X57495571Y-118724098D01*
X57495571Y-118724098D02*
X57495571Y-118486003D01*
X57495571Y-118486003D02*
X57543190Y-118390765D01*
X57543190Y-118390765D02*
X57590809Y-118343146D01*
X57590809Y-118343146D02*
X57686047Y-118295527D01*
X57686047Y-118295527D02*
X57924142Y-118295527D01*
X57924142Y-118295527D02*
X58019380Y-118343146D01*
X58019380Y-118343146D02*
X58067000Y-118390765D01*
X58067000Y-118390765D02*
X58114619Y-118486003D01*
X58114619Y-118486003D02*
X58114619Y-118724098D01*
X58114619Y-118724098D02*
X58067000Y-118819336D01*
X58067000Y-118819336D02*
X58019380Y-118866955D01*
D12*
X70054510Y-112300828D02*
X70054510Y-110800828D01*
X70697368Y-112300828D02*
X70697368Y-111515114D01*
X70697368Y-111515114D02*
X70625939Y-111372257D01*
X70625939Y-111372257D02*
X70483082Y-111300828D01*
X70483082Y-111300828D02*
X70268796Y-111300828D01*
X70268796Y-111300828D02*
X70125939Y-111372257D01*
X70125939Y-111372257D02*
X70054510Y-111443685D01*
X71197368Y-111300828D02*
X71768796Y-111300828D01*
X71411653Y-110800828D02*
X71411653Y-112086542D01*
X71411653Y-112086542D02*
X71483082Y-112229400D01*
X71483082Y-112229400D02*
X71625939Y-112300828D01*
X71625939Y-112300828D02*
X71768796Y-112300828D01*
X72054511Y-111300828D02*
X72625939Y-111300828D01*
X72268796Y-110800828D02*
X72268796Y-112086542D01*
X72268796Y-112086542D02*
X72340225Y-112229400D01*
X72340225Y-112229400D02*
X72483082Y-112300828D01*
X72483082Y-112300828D02*
X72625939Y-112300828D01*
X73125939Y-111300828D02*
X73125939Y-112800828D01*
X73125939Y-111372257D02*
X73268797Y-111300828D01*
X73268797Y-111300828D02*
X73554511Y-111300828D01*
X73554511Y-111300828D02*
X73697368Y-111372257D01*
X73697368Y-111372257D02*
X73768797Y-111443685D01*
X73768797Y-111443685D02*
X73840225Y-111586542D01*
X73840225Y-111586542D02*
X73840225Y-112015114D01*
X73840225Y-112015114D02*
X73768797Y-112157971D01*
X73768797Y-112157971D02*
X73697368Y-112229400D01*
X73697368Y-112229400D02*
X73554511Y-112300828D01*
X73554511Y-112300828D02*
X73268797Y-112300828D01*
X73268797Y-112300828D02*
X73125939Y-112229400D01*
X74411654Y-112229400D02*
X74554511Y-112300828D01*
X74554511Y-112300828D02*
X74840225Y-112300828D01*
X74840225Y-112300828D02*
X74983082Y-112229400D01*
X74983082Y-112229400D02*
X75054511Y-112086542D01*
X75054511Y-112086542D02*
X75054511Y-112015114D01*
X75054511Y-112015114D02*
X74983082Y-111872257D01*
X74983082Y-111872257D02*
X74840225Y-111800828D01*
X74840225Y-111800828D02*
X74625940Y-111800828D01*
X74625940Y-111800828D02*
X74483082Y-111729400D01*
X74483082Y-111729400D02*
X74411654Y-111586542D01*
X74411654Y-111586542D02*
X74411654Y-111515114D01*
X74411654Y-111515114D02*
X74483082Y-111372257D01*
X74483082Y-111372257D02*
X74625940Y-111300828D01*
X74625940Y-111300828D02*
X74840225Y-111300828D01*
X74840225Y-111300828D02*
X74983082Y-111372257D01*
X75697368Y-112157971D02*
X75768797Y-112229400D01*
X75768797Y-112229400D02*
X75697368Y-112300828D01*
X75697368Y-112300828D02*
X75625940Y-112229400D01*
X75625940Y-112229400D02*
X75697368Y-112157971D01*
X75697368Y-112157971D02*
X75697368Y-112300828D01*
X75697368Y-111372257D02*
X75768797Y-111443685D01*
X75768797Y-111443685D02*
X75697368Y-111515114D01*
X75697368Y-111515114D02*
X75625940Y-111443685D01*
X75625940Y-111443685D02*
X75697368Y-111372257D01*
X75697368Y-111372257D02*
X75697368Y-111515114D01*
X77483083Y-110729400D02*
X76197369Y-112657971D01*
X79054512Y-110729400D02*
X77768798Y-112657971D01*
X80197370Y-111300828D02*
X80197370Y-112515114D01*
X80197370Y-112515114D02*
X80125941Y-112657971D01*
X80125941Y-112657971D02*
X80054512Y-112729400D01*
X80054512Y-112729400D02*
X79911655Y-112800828D01*
X79911655Y-112800828D02*
X79697370Y-112800828D01*
X79697370Y-112800828D02*
X79554512Y-112729400D01*
X80197370Y-112229400D02*
X80054512Y-112300828D01*
X80054512Y-112300828D02*
X79768798Y-112300828D01*
X79768798Y-112300828D02*
X79625941Y-112229400D01*
X79625941Y-112229400D02*
X79554512Y-112157971D01*
X79554512Y-112157971D02*
X79483084Y-112015114D01*
X79483084Y-112015114D02*
X79483084Y-111586542D01*
X79483084Y-111586542D02*
X79554512Y-111443685D01*
X79554512Y-111443685D02*
X79625941Y-111372257D01*
X79625941Y-111372257D02*
X79768798Y-111300828D01*
X79768798Y-111300828D02*
X80054512Y-111300828D01*
X80054512Y-111300828D02*
X80197370Y-111372257D01*
X80911655Y-112300828D02*
X80911655Y-111300828D01*
X80911655Y-110800828D02*
X80840227Y-110872257D01*
X80840227Y-110872257D02*
X80911655Y-110943685D01*
X80911655Y-110943685D02*
X80983084Y-110872257D01*
X80983084Y-110872257D02*
X80911655Y-110800828D01*
X80911655Y-110800828D02*
X80911655Y-110943685D01*
X81411656Y-111300828D02*
X81983084Y-111300828D01*
X81625941Y-110800828D02*
X81625941Y-112086542D01*
X81625941Y-112086542D02*
X81697370Y-112229400D01*
X81697370Y-112229400D02*
X81840227Y-112300828D01*
X81840227Y-112300828D02*
X81983084Y-112300828D01*
X82483084Y-112300828D02*
X82483084Y-110800828D01*
X83125942Y-112300828D02*
X83125942Y-111515114D01*
X83125942Y-111515114D02*
X83054513Y-111372257D01*
X83054513Y-111372257D02*
X82911656Y-111300828D01*
X82911656Y-111300828D02*
X82697370Y-111300828D01*
X82697370Y-111300828D02*
X82554513Y-111372257D01*
X82554513Y-111372257D02*
X82483084Y-111443685D01*
X84483085Y-111300828D02*
X84483085Y-112300828D01*
X83840227Y-111300828D02*
X83840227Y-112086542D01*
X83840227Y-112086542D02*
X83911656Y-112229400D01*
X83911656Y-112229400D02*
X84054513Y-112300828D01*
X84054513Y-112300828D02*
X84268799Y-112300828D01*
X84268799Y-112300828D02*
X84411656Y-112229400D01*
X84411656Y-112229400D02*
X84483085Y-112157971D01*
X85197370Y-112300828D02*
X85197370Y-110800828D01*
X85197370Y-111372257D02*
X85340228Y-111300828D01*
X85340228Y-111300828D02*
X85625942Y-111300828D01*
X85625942Y-111300828D02*
X85768799Y-111372257D01*
X85768799Y-111372257D02*
X85840228Y-111443685D01*
X85840228Y-111443685D02*
X85911656Y-111586542D01*
X85911656Y-111586542D02*
X85911656Y-112015114D01*
X85911656Y-112015114D02*
X85840228Y-112157971D01*
X85840228Y-112157971D02*
X85768799Y-112229400D01*
X85768799Y-112229400D02*
X85625942Y-112300828D01*
X85625942Y-112300828D02*
X85340228Y-112300828D01*
X85340228Y-112300828D02*
X85197370Y-112229400D01*
X86554513Y-112157971D02*
X86625942Y-112229400D01*
X86625942Y-112229400D02*
X86554513Y-112300828D01*
X86554513Y-112300828D02*
X86483085Y-112229400D01*
X86483085Y-112229400D02*
X86554513Y-112157971D01*
X86554513Y-112157971D02*
X86554513Y-112300828D01*
X87911657Y-112229400D02*
X87768799Y-112300828D01*
X87768799Y-112300828D02*
X87483085Y-112300828D01*
X87483085Y-112300828D02*
X87340228Y-112229400D01*
X87340228Y-112229400D02*
X87268799Y-112157971D01*
X87268799Y-112157971D02*
X87197371Y-112015114D01*
X87197371Y-112015114D02*
X87197371Y-111586542D01*
X87197371Y-111586542D02*
X87268799Y-111443685D01*
X87268799Y-111443685D02*
X87340228Y-111372257D01*
X87340228Y-111372257D02*
X87483085Y-111300828D01*
X87483085Y-111300828D02*
X87768799Y-111300828D01*
X87768799Y-111300828D02*
X87911657Y-111372257D01*
X88768799Y-112300828D02*
X88625942Y-112229400D01*
X88625942Y-112229400D02*
X88554513Y-112157971D01*
X88554513Y-112157971D02*
X88483085Y-112015114D01*
X88483085Y-112015114D02*
X88483085Y-111586542D01*
X88483085Y-111586542D02*
X88554513Y-111443685D01*
X88554513Y-111443685D02*
X88625942Y-111372257D01*
X88625942Y-111372257D02*
X88768799Y-111300828D01*
X88768799Y-111300828D02*
X88983085Y-111300828D01*
X88983085Y-111300828D02*
X89125942Y-111372257D01*
X89125942Y-111372257D02*
X89197371Y-111443685D01*
X89197371Y-111443685D02*
X89268799Y-111586542D01*
X89268799Y-111586542D02*
X89268799Y-112015114D01*
X89268799Y-112015114D02*
X89197371Y-112157971D01*
X89197371Y-112157971D02*
X89125942Y-112229400D01*
X89125942Y-112229400D02*
X88983085Y-112300828D01*
X88983085Y-112300828D02*
X88768799Y-112300828D01*
X89911656Y-112300828D02*
X89911656Y-111300828D01*
X89911656Y-111443685D02*
X89983085Y-111372257D01*
X89983085Y-111372257D02*
X90125942Y-111300828D01*
X90125942Y-111300828D02*
X90340228Y-111300828D01*
X90340228Y-111300828D02*
X90483085Y-111372257D01*
X90483085Y-111372257D02*
X90554514Y-111515114D01*
X90554514Y-111515114D02*
X90554514Y-112300828D01*
X90554514Y-111515114D02*
X90625942Y-111372257D01*
X90625942Y-111372257D02*
X90768799Y-111300828D01*
X90768799Y-111300828D02*
X90983085Y-111300828D01*
X90983085Y-111300828D02*
X91125942Y-111372257D01*
X91125942Y-111372257D02*
X91197371Y-111515114D01*
X91197371Y-111515114D02*
X91197371Y-112300828D01*
X92983085Y-110729400D02*
X91697371Y-112657971D01*
X93911657Y-110800828D02*
X93911657Y-111872257D01*
X93911657Y-111872257D02*
X93840228Y-112086542D01*
X93840228Y-112086542D02*
X93697371Y-112229400D01*
X93697371Y-112229400D02*
X93483085Y-112300828D01*
X93483085Y-112300828D02*
X93340228Y-112300828D01*
X94840228Y-112300828D02*
X94697371Y-112229400D01*
X94697371Y-112229400D02*
X94625942Y-112157971D01*
X94625942Y-112157971D02*
X94554514Y-112015114D01*
X94554514Y-112015114D02*
X94554514Y-111586542D01*
X94554514Y-111586542D02*
X94625942Y-111443685D01*
X94625942Y-111443685D02*
X94697371Y-111372257D01*
X94697371Y-111372257D02*
X94840228Y-111300828D01*
X94840228Y-111300828D02*
X95054514Y-111300828D01*
X95054514Y-111300828D02*
X95197371Y-111372257D01*
X95197371Y-111372257D02*
X95268800Y-111443685D01*
X95268800Y-111443685D02*
X95340228Y-111586542D01*
X95340228Y-111586542D02*
X95340228Y-112015114D01*
X95340228Y-112015114D02*
X95268800Y-112157971D01*
X95268800Y-112157971D02*
X95197371Y-112229400D01*
X95197371Y-112229400D02*
X95054514Y-112300828D01*
X95054514Y-112300828D02*
X94840228Y-112300828D01*
X95983085Y-111300828D02*
X95983085Y-112300828D01*
X95983085Y-111443685D02*
X96054514Y-111372257D01*
X96054514Y-111372257D02*
X96197371Y-111300828D01*
X96197371Y-111300828D02*
X96411657Y-111300828D01*
X96411657Y-111300828D02*
X96554514Y-111372257D01*
X96554514Y-111372257D02*
X96625943Y-111515114D01*
X96625943Y-111515114D02*
X96625943Y-112300828D01*
X97125943Y-110800828D02*
X97625943Y-112300828D01*
X97625943Y-112300828D02*
X98125943Y-110800828D01*
X98840228Y-112300828D02*
X98697371Y-112229400D01*
X98697371Y-112229400D02*
X98625942Y-112157971D01*
X98625942Y-112157971D02*
X98554514Y-112015114D01*
X98554514Y-112015114D02*
X98554514Y-111586542D01*
X98554514Y-111586542D02*
X98625942Y-111443685D01*
X98625942Y-111443685D02*
X98697371Y-111372257D01*
X98697371Y-111372257D02*
X98840228Y-111300828D01*
X98840228Y-111300828D02*
X99054514Y-111300828D01*
X99054514Y-111300828D02*
X99197371Y-111372257D01*
X99197371Y-111372257D02*
X99268800Y-111443685D01*
X99268800Y-111443685D02*
X99340228Y-111586542D01*
X99340228Y-111586542D02*
X99340228Y-112015114D01*
X99340228Y-112015114D02*
X99268800Y-112157971D01*
X99268800Y-112157971D02*
X99197371Y-112229400D01*
X99197371Y-112229400D02*
X99054514Y-112300828D01*
X99054514Y-112300828D02*
X98840228Y-112300828D01*
X100625943Y-111300828D02*
X100625943Y-112515114D01*
X100625943Y-112515114D02*
X100554514Y-112657971D01*
X100554514Y-112657971D02*
X100483085Y-112729400D01*
X100483085Y-112729400D02*
X100340228Y-112800828D01*
X100340228Y-112800828D02*
X100125943Y-112800828D01*
X100125943Y-112800828D02*
X99983085Y-112729400D01*
X100625943Y-112229400D02*
X100483085Y-112300828D01*
X100483085Y-112300828D02*
X100197371Y-112300828D01*
X100197371Y-112300828D02*
X100054514Y-112229400D01*
X100054514Y-112229400D02*
X99983085Y-112157971D01*
X99983085Y-112157971D02*
X99911657Y-112015114D01*
X99911657Y-112015114D02*
X99911657Y-111586542D01*
X99911657Y-111586542D02*
X99983085Y-111443685D01*
X99983085Y-111443685D02*
X100054514Y-111372257D01*
X100054514Y-111372257D02*
X100197371Y-111300828D01*
X100197371Y-111300828D02*
X100483085Y-111300828D01*
X100483085Y-111300828D02*
X100625943Y-111372257D01*
X101911657Y-112229400D02*
X101768800Y-112300828D01*
X101768800Y-112300828D02*
X101483086Y-112300828D01*
X101483086Y-112300828D02*
X101340228Y-112229400D01*
X101340228Y-112229400D02*
X101268800Y-112086542D01*
X101268800Y-112086542D02*
X101268800Y-111515114D01*
X101268800Y-111515114D02*
X101340228Y-111372257D01*
X101340228Y-111372257D02*
X101483086Y-111300828D01*
X101483086Y-111300828D02*
X101768800Y-111300828D01*
X101768800Y-111300828D02*
X101911657Y-111372257D01*
X101911657Y-111372257D02*
X101983086Y-111515114D01*
X101983086Y-111515114D02*
X101983086Y-111657971D01*
X101983086Y-111657971D02*
X101268800Y-111800828D01*
X102840228Y-112300828D02*
X102697371Y-112229400D01*
X102697371Y-112229400D02*
X102625942Y-112086542D01*
X102625942Y-112086542D02*
X102625942Y-110800828D01*
X104483085Y-110729400D02*
X103197371Y-112657971D01*
X104768800Y-111300828D02*
X105340228Y-111300828D01*
X104983085Y-110800828D02*
X104983085Y-112086542D01*
X104983085Y-112086542D02*
X105054514Y-112229400D01*
X105054514Y-112229400D02*
X105197371Y-112300828D01*
X105197371Y-112300828D02*
X105340228Y-112300828D01*
X105840228Y-112300828D02*
X105840228Y-111300828D01*
X105840228Y-110800828D02*
X105768800Y-110872257D01*
X105768800Y-110872257D02*
X105840228Y-110943685D01*
X105840228Y-110943685D02*
X105911657Y-110872257D01*
X105911657Y-110872257D02*
X105840228Y-110800828D01*
X105840228Y-110800828D02*
X105840228Y-110943685D01*
X106554514Y-111729400D02*
X107697372Y-111729400D01*
X108483086Y-112300828D02*
X108768800Y-112300828D01*
X108768800Y-112300828D02*
X108911657Y-112229400D01*
X108911657Y-112229400D02*
X108983086Y-112157971D01*
X108983086Y-112157971D02*
X109125943Y-111943685D01*
X109125943Y-111943685D02*
X109197372Y-111657971D01*
X109197372Y-111657971D02*
X109197372Y-111086542D01*
X109197372Y-111086542D02*
X109125943Y-110943685D01*
X109125943Y-110943685D02*
X109054515Y-110872257D01*
X109054515Y-110872257D02*
X108911657Y-110800828D01*
X108911657Y-110800828D02*
X108625943Y-110800828D01*
X108625943Y-110800828D02*
X108483086Y-110872257D01*
X108483086Y-110872257D02*
X108411657Y-110943685D01*
X108411657Y-110943685D02*
X108340229Y-111086542D01*
X108340229Y-111086542D02*
X108340229Y-111443685D01*
X108340229Y-111443685D02*
X108411657Y-111586542D01*
X108411657Y-111586542D02*
X108483086Y-111657971D01*
X108483086Y-111657971D02*
X108625943Y-111729400D01*
X108625943Y-111729400D02*
X108911657Y-111729400D01*
X108911657Y-111729400D02*
X109054515Y-111657971D01*
X109054515Y-111657971D02*
X109125943Y-111586542D01*
X109125943Y-111586542D02*
X109197372Y-111443685D01*
X109911657Y-112300828D02*
X110197371Y-112300828D01*
X110197371Y-112300828D02*
X110340228Y-112229400D01*
X110340228Y-112229400D02*
X110411657Y-112157971D01*
X110411657Y-112157971D02*
X110554514Y-111943685D01*
X110554514Y-111943685D02*
X110625943Y-111657971D01*
X110625943Y-111657971D02*
X110625943Y-111086542D01*
X110625943Y-111086542D02*
X110554514Y-110943685D01*
X110554514Y-110943685D02*
X110483086Y-110872257D01*
X110483086Y-110872257D02*
X110340228Y-110800828D01*
X110340228Y-110800828D02*
X110054514Y-110800828D01*
X110054514Y-110800828D02*
X109911657Y-110872257D01*
X109911657Y-110872257D02*
X109840228Y-110943685D01*
X109840228Y-110943685D02*
X109768800Y-111086542D01*
X109768800Y-111086542D02*
X109768800Y-111443685D01*
X109768800Y-111443685D02*
X109840228Y-111586542D01*
X109840228Y-111586542D02*
X109911657Y-111657971D01*
X109911657Y-111657971D02*
X110054514Y-111729400D01*
X110054514Y-111729400D02*
X110340228Y-111729400D01*
X110340228Y-111729400D02*
X110483086Y-111657971D01*
X110483086Y-111657971D02*
X110554514Y-111586542D01*
X110554514Y-111586542D02*
X110625943Y-111443685D01*
X111268799Y-111729400D02*
X112411657Y-111729400D01*
X113125942Y-112300828D02*
X113125942Y-110800828D01*
X113268800Y-111729400D02*
X113697371Y-112300828D01*
X113697371Y-111300828D02*
X113125942Y-111872257D01*
X114911657Y-112229400D02*
X114768800Y-112300828D01*
X114768800Y-112300828D02*
X114483086Y-112300828D01*
X114483086Y-112300828D02*
X114340228Y-112229400D01*
X114340228Y-112229400D02*
X114268800Y-112086542D01*
X114268800Y-112086542D02*
X114268800Y-111515114D01*
X114268800Y-111515114D02*
X114340228Y-111372257D01*
X114340228Y-111372257D02*
X114483086Y-111300828D01*
X114483086Y-111300828D02*
X114768800Y-111300828D01*
X114768800Y-111300828D02*
X114911657Y-111372257D01*
X114911657Y-111372257D02*
X114983086Y-111515114D01*
X114983086Y-111515114D02*
X114983086Y-111657971D01*
X114983086Y-111657971D02*
X114268800Y-111800828D01*
X115483085Y-111300828D02*
X115840228Y-112300828D01*
X116197371Y-111300828D02*
X115840228Y-112300828D01*
X115840228Y-112300828D02*
X115697371Y-112657971D01*
X115697371Y-112657971D02*
X115625942Y-112729400D01*
X115625942Y-112729400D02*
X115483085Y-112800828D01*
X116768799Y-112300828D02*
X116768799Y-110800828D01*
X116768799Y-111372257D02*
X116911657Y-111300828D01*
X116911657Y-111300828D02*
X117197371Y-111300828D01*
X117197371Y-111300828D02*
X117340228Y-111372257D01*
X117340228Y-111372257D02*
X117411657Y-111443685D01*
X117411657Y-111443685D02*
X117483085Y-111586542D01*
X117483085Y-111586542D02*
X117483085Y-112015114D01*
X117483085Y-112015114D02*
X117411657Y-112157971D01*
X117411657Y-112157971D02*
X117340228Y-112229400D01*
X117340228Y-112229400D02*
X117197371Y-112300828D01*
X117197371Y-112300828D02*
X116911657Y-112300828D01*
X116911657Y-112300828D02*
X116768799Y-112229400D01*
X118340228Y-112300828D02*
X118197371Y-112229400D01*
X118197371Y-112229400D02*
X118125942Y-112157971D01*
X118125942Y-112157971D02*
X118054514Y-112015114D01*
X118054514Y-112015114D02*
X118054514Y-111586542D01*
X118054514Y-111586542D02*
X118125942Y-111443685D01*
X118125942Y-111443685D02*
X118197371Y-111372257D01*
X118197371Y-111372257D02*
X118340228Y-111300828D01*
X118340228Y-111300828D02*
X118554514Y-111300828D01*
X118554514Y-111300828D02*
X118697371Y-111372257D01*
X118697371Y-111372257D02*
X118768800Y-111443685D01*
X118768800Y-111443685D02*
X118840228Y-111586542D01*
X118840228Y-111586542D02*
X118840228Y-112015114D01*
X118840228Y-112015114D02*
X118768800Y-112157971D01*
X118768800Y-112157971D02*
X118697371Y-112229400D01*
X118697371Y-112229400D02*
X118554514Y-112300828D01*
X118554514Y-112300828D02*
X118340228Y-112300828D01*
X120125943Y-112300828D02*
X120125943Y-111515114D01*
X120125943Y-111515114D02*
X120054514Y-111372257D01*
X120054514Y-111372257D02*
X119911657Y-111300828D01*
X119911657Y-111300828D02*
X119625943Y-111300828D01*
X119625943Y-111300828D02*
X119483085Y-111372257D01*
X120125943Y-112229400D02*
X119983085Y-112300828D01*
X119983085Y-112300828D02*
X119625943Y-112300828D01*
X119625943Y-112300828D02*
X119483085Y-112229400D01*
X119483085Y-112229400D02*
X119411657Y-112086542D01*
X119411657Y-112086542D02*
X119411657Y-111943685D01*
X119411657Y-111943685D02*
X119483085Y-111800828D01*
X119483085Y-111800828D02*
X119625943Y-111729400D01*
X119625943Y-111729400D02*
X119983085Y-111729400D01*
X119983085Y-111729400D02*
X120125943Y-111657971D01*
X120840228Y-112300828D02*
X120840228Y-111300828D01*
X120840228Y-111586542D02*
X120911657Y-111443685D01*
X120911657Y-111443685D02*
X120983086Y-111372257D01*
X120983086Y-111372257D02*
X121125943Y-111300828D01*
X121125943Y-111300828D02*
X121268800Y-111300828D01*
X122411657Y-112300828D02*
X122411657Y-110800828D01*
X122411657Y-112229400D02*
X122268799Y-112300828D01*
X122268799Y-112300828D02*
X121983085Y-112300828D01*
X121983085Y-112300828D02*
X121840228Y-112229400D01*
X121840228Y-112229400D02*
X121768799Y-112157971D01*
X121768799Y-112157971D02*
X121697371Y-112015114D01*
X121697371Y-112015114D02*
X121697371Y-111586542D01*
X121697371Y-111586542D02*
X121768799Y-111443685D01*
X121768799Y-111443685D02*
X121840228Y-111372257D01*
X121840228Y-111372257D02*
X121983085Y-111300828D01*
X121983085Y-111300828D02*
X122268799Y-111300828D01*
X122268799Y-111300828D02*
X122411657Y-111372257D01*
D10*
X67190476Y-51337419D02*
X67190476Y-52051704D01*
X67190476Y-52051704D02*
X67142857Y-52194561D01*
X67142857Y-52194561D02*
X67047619Y-52289800D01*
X67047619Y-52289800D02*
X66904762Y-52337419D01*
X66904762Y-52337419D02*
X66809524Y-52337419D01*
X68190476Y-52337419D02*
X67619048Y-52337419D01*
X67904762Y-52337419D02*
X67904762Y-51337419D01*
X67904762Y-51337419D02*
X67809524Y-51480276D01*
X67809524Y-51480276D02*
X67714286Y-51575514D01*
X67714286Y-51575514D02*
X67619048Y-51623133D01*
X68809524Y-51337419D02*
X68904762Y-51337419D01*
X68904762Y-51337419D02*
X69000000Y-51385038D01*
X69000000Y-51385038D02*
X69047619Y-51432657D01*
X69047619Y-51432657D02*
X69095238Y-51527895D01*
X69095238Y-51527895D02*
X69142857Y-51718371D01*
X69142857Y-51718371D02*
X69142857Y-51956466D01*
X69142857Y-51956466D02*
X69095238Y-52146942D01*
X69095238Y-52146942D02*
X69047619Y-52242180D01*
X69047619Y-52242180D02*
X69000000Y-52289800D01*
X69000000Y-52289800D02*
X68904762Y-52337419D01*
X68904762Y-52337419D02*
X68809524Y-52337419D01*
X68809524Y-52337419D02*
X68714286Y-52289800D01*
X68714286Y-52289800D02*
X68666667Y-52242180D01*
X68666667Y-52242180D02*
X68619048Y-52146942D01*
X68619048Y-52146942D02*
X68571429Y-51956466D01*
X68571429Y-51956466D02*
X68571429Y-51718371D01*
X68571429Y-51718371D02*
X68619048Y-51527895D01*
X68619048Y-51527895D02*
X68666667Y-51432657D01*
X68666667Y-51432657D02*
X68714286Y-51385038D01*
X68714286Y-51385038D02*
X68809524Y-51337419D01*
X70000476Y-125507419D02*
X70000476Y-126221704D01*
X70000476Y-126221704D02*
X69952857Y-126364561D01*
X69952857Y-126364561D02*
X69857619Y-126459800D01*
X69857619Y-126459800D02*
X69714762Y-126507419D01*
X69714762Y-126507419D02*
X69619524Y-126507419D01*
X71000476Y-126507419D02*
X70429048Y-126507419D01*
X70714762Y-126507419D02*
X70714762Y-125507419D01*
X70714762Y-125507419D02*
X70619524Y-125650276D01*
X70619524Y-125650276D02*
X70524286Y-125745514D01*
X70524286Y-125745514D02*
X70429048Y-125793133D01*
X71857619Y-125840752D02*
X71857619Y-126507419D01*
X71619524Y-125459800D02*
X71381429Y-126174085D01*
X71381429Y-126174085D02*
X72000476Y-126174085D01*
D13*
X59940476Y-93204819D02*
X59940476Y-93919104D01*
X59940476Y-93919104D02*
X59892857Y-94061961D01*
X59892857Y-94061961D02*
X59797619Y-94157200D01*
X59797619Y-94157200D02*
X59654762Y-94204819D01*
X59654762Y-94204819D02*
X59559524Y-94204819D01*
X60940476Y-94204819D02*
X60369048Y-94204819D01*
X60654762Y-94204819D02*
X60654762Y-93204819D01*
X60654762Y-93204819D02*
X60559524Y-93347676D01*
X60559524Y-93347676D02*
X60464286Y-93442914D01*
X60464286Y-93442914D02*
X60369048Y-93490533D01*
X61845238Y-93204819D02*
X61369048Y-93204819D01*
X61369048Y-93204819D02*
X61321429Y-93681009D01*
X61321429Y-93681009D02*
X61369048Y-93633390D01*
X61369048Y-93633390D02*
X61464286Y-93585771D01*
X61464286Y-93585771D02*
X61702381Y-93585771D01*
X61702381Y-93585771D02*
X61797619Y-93633390D01*
X61797619Y-93633390D02*
X61845238Y-93681009D01*
X61845238Y-93681009D02*
X61892857Y-93776247D01*
X61892857Y-93776247D02*
X61892857Y-94014342D01*
X61892857Y-94014342D02*
X61845238Y-94109580D01*
X61845238Y-94109580D02*
X61797619Y-94157200D01*
X61797619Y-94157200D02*
X61702381Y-94204819D01*
X61702381Y-94204819D02*
X61464286Y-94204819D01*
X61464286Y-94204819D02*
X61369048Y-94157200D01*
X61369048Y-94157200D02*
X61321429Y-94109580D01*
X111238095Y-69704819D02*
X111238095Y-70514342D01*
X111238095Y-70514342D02*
X111285714Y-70609580D01*
X111285714Y-70609580D02*
X111333333Y-70657200D01*
X111333333Y-70657200D02*
X111428571Y-70704819D01*
X111428571Y-70704819D02*
X111619047Y-70704819D01*
X111619047Y-70704819D02*
X111714285Y-70657200D01*
X111714285Y-70657200D02*
X111761904Y-70609580D01*
X111761904Y-70609580D02*
X111809523Y-70514342D01*
X111809523Y-70514342D02*
X111809523Y-69704819D01*
X112809523Y-70704819D02*
X112238095Y-70704819D01*
X112523809Y-70704819D02*
X112523809Y-69704819D01*
X112523809Y-69704819D02*
X112428571Y-69847676D01*
X112428571Y-69847676D02*
X112333333Y-69942914D01*
X112333333Y-69942914D02*
X112238095Y-69990533D01*
D14*
X102057142Y-43251331D02*
X102428570Y-43251331D01*
X102428570Y-43251331D02*
X102228570Y-43479902D01*
X102228570Y-43479902D02*
X102314285Y-43479902D01*
X102314285Y-43479902D02*
X102371428Y-43508474D01*
X102371428Y-43508474D02*
X102399999Y-43537045D01*
X102399999Y-43537045D02*
X102428570Y-43594188D01*
X102428570Y-43594188D02*
X102428570Y-43737045D01*
X102428570Y-43737045D02*
X102399999Y-43794188D01*
X102399999Y-43794188D02*
X102371428Y-43822760D01*
X102371428Y-43822760D02*
X102314285Y-43851331D01*
X102314285Y-43851331D02*
X102142856Y-43851331D01*
X102142856Y-43851331D02*
X102085713Y-43822760D01*
X102085713Y-43822760D02*
X102057142Y-43794188D01*
X102599999Y-43251331D02*
X102799999Y-43851331D01*
X102799999Y-43851331D02*
X102999999Y-43251331D01*
X103142857Y-43251331D02*
X103514285Y-43251331D01*
X103514285Y-43251331D02*
X103314285Y-43479902D01*
X103314285Y-43479902D02*
X103400000Y-43479902D01*
X103400000Y-43479902D02*
X103457143Y-43508474D01*
X103457143Y-43508474D02*
X103485714Y-43537045D01*
X103485714Y-43537045D02*
X103514285Y-43594188D01*
X103514285Y-43594188D02*
X103514285Y-43737045D01*
X103514285Y-43737045D02*
X103485714Y-43794188D01*
X103485714Y-43794188D02*
X103457143Y-43822760D01*
X103457143Y-43822760D02*
X103400000Y-43851331D01*
X103400000Y-43851331D02*
X103228571Y-43851331D01*
X103228571Y-43851331D02*
X103171428Y-43822760D01*
X103171428Y-43822760D02*
X103142857Y-43794188D01*
X102057142Y-45791331D02*
X102428570Y-45791331D01*
X102428570Y-45791331D02*
X102228570Y-46019902D01*
X102228570Y-46019902D02*
X102314285Y-46019902D01*
X102314285Y-46019902D02*
X102371428Y-46048474D01*
X102371428Y-46048474D02*
X102399999Y-46077045D01*
X102399999Y-46077045D02*
X102428570Y-46134188D01*
X102428570Y-46134188D02*
X102428570Y-46277045D01*
X102428570Y-46277045D02*
X102399999Y-46334188D01*
X102399999Y-46334188D02*
X102371428Y-46362760D01*
X102371428Y-46362760D02*
X102314285Y-46391331D01*
X102314285Y-46391331D02*
X102142856Y-46391331D01*
X102142856Y-46391331D02*
X102085713Y-46362760D01*
X102085713Y-46362760D02*
X102057142Y-46334188D01*
X102599999Y-45791331D02*
X102799999Y-46391331D01*
X102799999Y-46391331D02*
X102999999Y-45791331D01*
X103142857Y-45791331D02*
X103514285Y-45791331D01*
X103514285Y-45791331D02*
X103314285Y-46019902D01*
X103314285Y-46019902D02*
X103400000Y-46019902D01*
X103400000Y-46019902D02*
X103457143Y-46048474D01*
X103457143Y-46048474D02*
X103485714Y-46077045D01*
X103485714Y-46077045D02*
X103514285Y-46134188D01*
X103514285Y-46134188D02*
X103514285Y-46277045D01*
X103514285Y-46277045D02*
X103485714Y-46334188D01*
X103485714Y-46334188D02*
X103457143Y-46362760D01*
X103457143Y-46362760D02*
X103400000Y-46391331D01*
X103400000Y-46391331D02*
X103228571Y-46391331D01*
X103228571Y-46391331D02*
X103171428Y-46362760D01*
X103171428Y-46362760D02*
X103142857Y-46334188D01*
X102357143Y-48617045D02*
X102557143Y-48617045D01*
X102642857Y-48931331D02*
X102357143Y-48931331D01*
X102357143Y-48931331D02*
X102357143Y-48331331D01*
X102357143Y-48331331D02*
X102642857Y-48331331D01*
X102900000Y-48931331D02*
X102900000Y-48331331D01*
X102900000Y-48331331D02*
X103242857Y-48931331D01*
X103242857Y-48931331D02*
X103242857Y-48331331D01*
X102200000Y-51471331D02*
X102200000Y-50871331D01*
X102599999Y-50871331D02*
X102714285Y-50871331D01*
X102714285Y-50871331D02*
X102771428Y-50899902D01*
X102771428Y-50899902D02*
X102828571Y-50957045D01*
X102828571Y-50957045D02*
X102857142Y-51071331D01*
X102857142Y-51071331D02*
X102857142Y-51271331D01*
X102857142Y-51271331D02*
X102828571Y-51385617D01*
X102828571Y-51385617D02*
X102771428Y-51442760D01*
X102771428Y-51442760D02*
X102714285Y-51471331D01*
X102714285Y-51471331D02*
X102599999Y-51471331D01*
X102599999Y-51471331D02*
X102542857Y-51442760D01*
X102542857Y-51442760D02*
X102485714Y-51385617D01*
X102485714Y-51385617D02*
X102457142Y-51271331D01*
X102457142Y-51271331D02*
X102457142Y-51071331D01*
X102457142Y-51071331D02*
X102485714Y-50957045D01*
X102485714Y-50957045D02*
X102542857Y-50899902D01*
X102542857Y-50899902D02*
X102599999Y-50871331D01*
X103371428Y-51071331D02*
X103371428Y-51471331D01*
X103228570Y-50842760D02*
X103085713Y-51271331D01*
X103085713Y-51271331D02*
X103457142Y-51271331D01*
X102200000Y-54011331D02*
X102200000Y-53411331D01*
X102599999Y-53411331D02*
X102714285Y-53411331D01*
X102714285Y-53411331D02*
X102771428Y-53439902D01*
X102771428Y-53439902D02*
X102828571Y-53497045D01*
X102828571Y-53497045D02*
X102857142Y-53611331D01*
X102857142Y-53611331D02*
X102857142Y-53811331D01*
X102857142Y-53811331D02*
X102828571Y-53925617D01*
X102828571Y-53925617D02*
X102771428Y-53982760D01*
X102771428Y-53982760D02*
X102714285Y-54011331D01*
X102714285Y-54011331D02*
X102599999Y-54011331D01*
X102599999Y-54011331D02*
X102542857Y-53982760D01*
X102542857Y-53982760D02*
X102485714Y-53925617D01*
X102485714Y-53925617D02*
X102457142Y-53811331D01*
X102457142Y-53811331D02*
X102457142Y-53611331D01*
X102457142Y-53611331D02*
X102485714Y-53497045D01*
X102485714Y-53497045D02*
X102542857Y-53439902D01*
X102542857Y-53439902D02*
X102599999Y-53411331D01*
X103399999Y-53411331D02*
X103114285Y-53411331D01*
X103114285Y-53411331D02*
X103085713Y-53697045D01*
X103085713Y-53697045D02*
X103114285Y-53668474D01*
X103114285Y-53668474D02*
X103171428Y-53639902D01*
X103171428Y-53639902D02*
X103314285Y-53639902D01*
X103314285Y-53639902D02*
X103371428Y-53668474D01*
X103371428Y-53668474D02*
X103399999Y-53697045D01*
X103399999Y-53697045D02*
X103428570Y-53754188D01*
X103428570Y-53754188D02*
X103428570Y-53897045D01*
X103428570Y-53897045D02*
X103399999Y-53954188D01*
X103399999Y-53954188D02*
X103371428Y-53982760D01*
X103371428Y-53982760D02*
X103314285Y-54011331D01*
X103314285Y-54011331D02*
X103171428Y-54011331D01*
X103171428Y-54011331D02*
X103114285Y-53982760D01*
X103114285Y-53982760D02*
X103085713Y-53954188D01*
X102200000Y-56551331D02*
X102200000Y-55951331D01*
X102599999Y-55951331D02*
X102714285Y-55951331D01*
X102714285Y-55951331D02*
X102771428Y-55979902D01*
X102771428Y-55979902D02*
X102828571Y-56037045D01*
X102828571Y-56037045D02*
X102857142Y-56151331D01*
X102857142Y-56151331D02*
X102857142Y-56351331D01*
X102857142Y-56351331D02*
X102828571Y-56465617D01*
X102828571Y-56465617D02*
X102771428Y-56522760D01*
X102771428Y-56522760D02*
X102714285Y-56551331D01*
X102714285Y-56551331D02*
X102599999Y-56551331D01*
X102599999Y-56551331D02*
X102542857Y-56522760D01*
X102542857Y-56522760D02*
X102485714Y-56465617D01*
X102485714Y-56465617D02*
X102457142Y-56351331D01*
X102457142Y-56351331D02*
X102457142Y-56151331D01*
X102457142Y-56151331D02*
X102485714Y-56037045D01*
X102485714Y-56037045D02*
X102542857Y-55979902D01*
X102542857Y-55979902D02*
X102599999Y-55951331D01*
X103371428Y-55951331D02*
X103257142Y-55951331D01*
X103257142Y-55951331D02*
X103199999Y-55979902D01*
X103199999Y-55979902D02*
X103171428Y-56008474D01*
X103171428Y-56008474D02*
X103114285Y-56094188D01*
X103114285Y-56094188D02*
X103085713Y-56208474D01*
X103085713Y-56208474D02*
X103085713Y-56437045D01*
X103085713Y-56437045D02*
X103114285Y-56494188D01*
X103114285Y-56494188D02*
X103142856Y-56522760D01*
X103142856Y-56522760D02*
X103199999Y-56551331D01*
X103199999Y-56551331D02*
X103314285Y-56551331D01*
X103314285Y-56551331D02*
X103371428Y-56522760D01*
X103371428Y-56522760D02*
X103399999Y-56494188D01*
X103399999Y-56494188D02*
X103428570Y-56437045D01*
X103428570Y-56437045D02*
X103428570Y-56294188D01*
X103428570Y-56294188D02*
X103399999Y-56237045D01*
X103399999Y-56237045D02*
X103371428Y-56208474D01*
X103371428Y-56208474D02*
X103314285Y-56179902D01*
X103314285Y-56179902D02*
X103199999Y-56179902D01*
X103199999Y-56179902D02*
X103142856Y-56208474D01*
X103142856Y-56208474D02*
X103114285Y-56237045D01*
X103114285Y-56237045D02*
X103085713Y-56294188D01*
X102200000Y-59091331D02*
X102200000Y-58491331D01*
X102599999Y-58491331D02*
X102714285Y-58491331D01*
X102714285Y-58491331D02*
X102771428Y-58519902D01*
X102771428Y-58519902D02*
X102828571Y-58577045D01*
X102828571Y-58577045D02*
X102857142Y-58691331D01*
X102857142Y-58691331D02*
X102857142Y-58891331D01*
X102857142Y-58891331D02*
X102828571Y-59005617D01*
X102828571Y-59005617D02*
X102771428Y-59062760D01*
X102771428Y-59062760D02*
X102714285Y-59091331D01*
X102714285Y-59091331D02*
X102599999Y-59091331D01*
X102599999Y-59091331D02*
X102542857Y-59062760D01*
X102542857Y-59062760D02*
X102485714Y-59005617D01*
X102485714Y-59005617D02*
X102457142Y-58891331D01*
X102457142Y-58891331D02*
X102457142Y-58691331D01*
X102457142Y-58691331D02*
X102485714Y-58577045D01*
X102485714Y-58577045D02*
X102542857Y-58519902D01*
X102542857Y-58519902D02*
X102599999Y-58491331D01*
X103057142Y-58491331D02*
X103457142Y-58491331D01*
X103457142Y-58491331D02*
X103199999Y-59091331D01*
X101914286Y-61631331D02*
X101914286Y-61031331D01*
X102314285Y-61031331D02*
X102428571Y-61031331D01*
X102428571Y-61031331D02*
X102485714Y-61059902D01*
X102485714Y-61059902D02*
X102542857Y-61117045D01*
X102542857Y-61117045D02*
X102571428Y-61231331D01*
X102571428Y-61231331D02*
X102571428Y-61431331D01*
X102571428Y-61431331D02*
X102542857Y-61545617D01*
X102542857Y-61545617D02*
X102485714Y-61602760D01*
X102485714Y-61602760D02*
X102428571Y-61631331D01*
X102428571Y-61631331D02*
X102314285Y-61631331D01*
X102314285Y-61631331D02*
X102257143Y-61602760D01*
X102257143Y-61602760D02*
X102200000Y-61545617D01*
X102200000Y-61545617D02*
X102171428Y-61431331D01*
X102171428Y-61431331D02*
X102171428Y-61231331D01*
X102171428Y-61231331D02*
X102200000Y-61117045D01*
X102200000Y-61117045D02*
X102257143Y-61059902D01*
X102257143Y-61059902D02*
X102314285Y-61031331D01*
X103142856Y-61631331D02*
X102799999Y-61631331D01*
X102971428Y-61631331D02*
X102971428Y-61031331D01*
X102971428Y-61031331D02*
X102914285Y-61117045D01*
X102914285Y-61117045D02*
X102857142Y-61174188D01*
X102857142Y-61174188D02*
X102799999Y-61202760D01*
X103685714Y-61031331D02*
X103400000Y-61031331D01*
X103400000Y-61031331D02*
X103371428Y-61317045D01*
X103371428Y-61317045D02*
X103400000Y-61288474D01*
X103400000Y-61288474D02*
X103457143Y-61259902D01*
X103457143Y-61259902D02*
X103600000Y-61259902D01*
X103600000Y-61259902D02*
X103657143Y-61288474D01*
X103657143Y-61288474D02*
X103685714Y-61317045D01*
X103685714Y-61317045D02*
X103714285Y-61374188D01*
X103714285Y-61374188D02*
X103714285Y-61517045D01*
X103714285Y-61517045D02*
X103685714Y-61574188D01*
X103685714Y-61574188D02*
X103657143Y-61602760D01*
X103657143Y-61602760D02*
X103600000Y-61631331D01*
X103600000Y-61631331D02*
X103457143Y-61631331D01*
X103457143Y-61631331D02*
X103400000Y-61602760D01*
X103400000Y-61602760D02*
X103371428Y-61574188D01*
X101914286Y-64171331D02*
X101914286Y-63571331D01*
X102314285Y-63571331D02*
X102428571Y-63571331D01*
X102428571Y-63571331D02*
X102485714Y-63599902D01*
X102485714Y-63599902D02*
X102542857Y-63657045D01*
X102542857Y-63657045D02*
X102571428Y-63771331D01*
X102571428Y-63771331D02*
X102571428Y-63971331D01*
X102571428Y-63971331D02*
X102542857Y-64085617D01*
X102542857Y-64085617D02*
X102485714Y-64142760D01*
X102485714Y-64142760D02*
X102428571Y-64171331D01*
X102428571Y-64171331D02*
X102314285Y-64171331D01*
X102314285Y-64171331D02*
X102257143Y-64142760D01*
X102257143Y-64142760D02*
X102200000Y-64085617D01*
X102200000Y-64085617D02*
X102171428Y-63971331D01*
X102171428Y-63971331D02*
X102171428Y-63771331D01*
X102171428Y-63771331D02*
X102200000Y-63657045D01*
X102200000Y-63657045D02*
X102257143Y-63599902D01*
X102257143Y-63599902D02*
X102314285Y-63571331D01*
X103142856Y-64171331D02*
X102799999Y-64171331D01*
X102971428Y-64171331D02*
X102971428Y-63571331D01*
X102971428Y-63571331D02*
X102914285Y-63657045D01*
X102914285Y-63657045D02*
X102857142Y-63714188D01*
X102857142Y-63714188D02*
X102799999Y-63742760D01*
X103657143Y-63571331D02*
X103542857Y-63571331D01*
X103542857Y-63571331D02*
X103485714Y-63599902D01*
X103485714Y-63599902D02*
X103457143Y-63628474D01*
X103457143Y-63628474D02*
X103400000Y-63714188D01*
X103400000Y-63714188D02*
X103371428Y-63828474D01*
X103371428Y-63828474D02*
X103371428Y-64057045D01*
X103371428Y-64057045D02*
X103400000Y-64114188D01*
X103400000Y-64114188D02*
X103428571Y-64142760D01*
X103428571Y-64142760D02*
X103485714Y-64171331D01*
X103485714Y-64171331D02*
X103600000Y-64171331D01*
X103600000Y-64171331D02*
X103657143Y-64142760D01*
X103657143Y-64142760D02*
X103685714Y-64114188D01*
X103685714Y-64114188D02*
X103714285Y-64057045D01*
X103714285Y-64057045D02*
X103714285Y-63914188D01*
X103714285Y-63914188D02*
X103685714Y-63857045D01*
X103685714Y-63857045D02*
X103657143Y-63828474D01*
X103657143Y-63828474D02*
X103600000Y-63799902D01*
X103600000Y-63799902D02*
X103485714Y-63799902D01*
X103485714Y-63799902D02*
X103428571Y-63828474D01*
X103428571Y-63828474D02*
X103400000Y-63857045D01*
X103400000Y-63857045D02*
X103371428Y-63914188D01*
X101914286Y-66711331D02*
X101914286Y-66111331D01*
X102314285Y-66111331D02*
X102428571Y-66111331D01*
X102428571Y-66111331D02*
X102485714Y-66139902D01*
X102485714Y-66139902D02*
X102542857Y-66197045D01*
X102542857Y-66197045D02*
X102571428Y-66311331D01*
X102571428Y-66311331D02*
X102571428Y-66511331D01*
X102571428Y-66511331D02*
X102542857Y-66625617D01*
X102542857Y-66625617D02*
X102485714Y-66682760D01*
X102485714Y-66682760D02*
X102428571Y-66711331D01*
X102428571Y-66711331D02*
X102314285Y-66711331D01*
X102314285Y-66711331D02*
X102257143Y-66682760D01*
X102257143Y-66682760D02*
X102200000Y-66625617D01*
X102200000Y-66625617D02*
X102171428Y-66511331D01*
X102171428Y-66511331D02*
X102171428Y-66311331D01*
X102171428Y-66311331D02*
X102200000Y-66197045D01*
X102200000Y-66197045D02*
X102257143Y-66139902D01*
X102257143Y-66139902D02*
X102314285Y-66111331D01*
X103142856Y-66711331D02*
X102799999Y-66711331D01*
X102971428Y-66711331D02*
X102971428Y-66111331D01*
X102971428Y-66111331D02*
X102914285Y-66197045D01*
X102914285Y-66197045D02*
X102857142Y-66254188D01*
X102857142Y-66254188D02*
X102799999Y-66282760D01*
X103342857Y-66111331D02*
X103742857Y-66111331D01*
X103742857Y-66111331D02*
X103485714Y-66711331D01*
X101914286Y-69251331D02*
X101914286Y-68651331D01*
X102314285Y-68651331D02*
X102428571Y-68651331D01*
X102428571Y-68651331D02*
X102485714Y-68679902D01*
X102485714Y-68679902D02*
X102542857Y-68737045D01*
X102542857Y-68737045D02*
X102571428Y-68851331D01*
X102571428Y-68851331D02*
X102571428Y-69051331D01*
X102571428Y-69051331D02*
X102542857Y-69165617D01*
X102542857Y-69165617D02*
X102485714Y-69222760D01*
X102485714Y-69222760D02*
X102428571Y-69251331D01*
X102428571Y-69251331D02*
X102314285Y-69251331D01*
X102314285Y-69251331D02*
X102257143Y-69222760D01*
X102257143Y-69222760D02*
X102200000Y-69165617D01*
X102200000Y-69165617D02*
X102171428Y-69051331D01*
X102171428Y-69051331D02*
X102171428Y-68851331D01*
X102171428Y-68851331D02*
X102200000Y-68737045D01*
X102200000Y-68737045D02*
X102257143Y-68679902D01*
X102257143Y-68679902D02*
X102314285Y-68651331D01*
X103142856Y-69251331D02*
X102799999Y-69251331D01*
X102971428Y-69251331D02*
X102971428Y-68651331D01*
X102971428Y-68651331D02*
X102914285Y-68737045D01*
X102914285Y-68737045D02*
X102857142Y-68794188D01*
X102857142Y-68794188D02*
X102799999Y-68822760D01*
X103485714Y-68908474D02*
X103428571Y-68879902D01*
X103428571Y-68879902D02*
X103400000Y-68851331D01*
X103400000Y-68851331D02*
X103371428Y-68794188D01*
X103371428Y-68794188D02*
X103371428Y-68765617D01*
X103371428Y-68765617D02*
X103400000Y-68708474D01*
X103400000Y-68708474D02*
X103428571Y-68679902D01*
X103428571Y-68679902D02*
X103485714Y-68651331D01*
X103485714Y-68651331D02*
X103600000Y-68651331D01*
X103600000Y-68651331D02*
X103657143Y-68679902D01*
X103657143Y-68679902D02*
X103685714Y-68708474D01*
X103685714Y-68708474D02*
X103714285Y-68765617D01*
X103714285Y-68765617D02*
X103714285Y-68794188D01*
X103714285Y-68794188D02*
X103685714Y-68851331D01*
X103685714Y-68851331D02*
X103657143Y-68879902D01*
X103657143Y-68879902D02*
X103600000Y-68908474D01*
X103600000Y-68908474D02*
X103485714Y-68908474D01*
X103485714Y-68908474D02*
X103428571Y-68937045D01*
X103428571Y-68937045D02*
X103400000Y-68965617D01*
X103400000Y-68965617D02*
X103371428Y-69022760D01*
X103371428Y-69022760D02*
X103371428Y-69137045D01*
X103371428Y-69137045D02*
X103400000Y-69194188D01*
X103400000Y-69194188D02*
X103428571Y-69222760D01*
X103428571Y-69222760D02*
X103485714Y-69251331D01*
X103485714Y-69251331D02*
X103600000Y-69251331D01*
X103600000Y-69251331D02*
X103657143Y-69222760D01*
X103657143Y-69222760D02*
X103685714Y-69194188D01*
X103685714Y-69194188D02*
X103714285Y-69137045D01*
X103714285Y-69137045D02*
X103714285Y-69022760D01*
X103714285Y-69022760D02*
X103685714Y-68965617D01*
X103685714Y-68965617D02*
X103657143Y-68937045D01*
X103657143Y-68937045D02*
X103600000Y-68908474D01*
X102200000Y-71791331D02*
X102200000Y-71191331D01*
X102599999Y-71191331D02*
X102714285Y-71191331D01*
X102714285Y-71191331D02*
X102771428Y-71219902D01*
X102771428Y-71219902D02*
X102828571Y-71277045D01*
X102828571Y-71277045D02*
X102857142Y-71391331D01*
X102857142Y-71391331D02*
X102857142Y-71591331D01*
X102857142Y-71591331D02*
X102828571Y-71705617D01*
X102828571Y-71705617D02*
X102771428Y-71762760D01*
X102771428Y-71762760D02*
X102714285Y-71791331D01*
X102714285Y-71791331D02*
X102599999Y-71791331D01*
X102599999Y-71791331D02*
X102542857Y-71762760D01*
X102542857Y-71762760D02*
X102485714Y-71705617D01*
X102485714Y-71705617D02*
X102457142Y-71591331D01*
X102457142Y-71591331D02*
X102457142Y-71391331D01*
X102457142Y-71391331D02*
X102485714Y-71277045D01*
X102485714Y-71277045D02*
X102542857Y-71219902D01*
X102542857Y-71219902D02*
X102599999Y-71191331D01*
X103199999Y-71448474D02*
X103142856Y-71419902D01*
X103142856Y-71419902D02*
X103114285Y-71391331D01*
X103114285Y-71391331D02*
X103085713Y-71334188D01*
X103085713Y-71334188D02*
X103085713Y-71305617D01*
X103085713Y-71305617D02*
X103114285Y-71248474D01*
X103114285Y-71248474D02*
X103142856Y-71219902D01*
X103142856Y-71219902D02*
X103199999Y-71191331D01*
X103199999Y-71191331D02*
X103314285Y-71191331D01*
X103314285Y-71191331D02*
X103371428Y-71219902D01*
X103371428Y-71219902D02*
X103399999Y-71248474D01*
X103399999Y-71248474D02*
X103428570Y-71305617D01*
X103428570Y-71305617D02*
X103428570Y-71334188D01*
X103428570Y-71334188D02*
X103399999Y-71391331D01*
X103399999Y-71391331D02*
X103371428Y-71419902D01*
X103371428Y-71419902D02*
X103314285Y-71448474D01*
X103314285Y-71448474D02*
X103199999Y-71448474D01*
X103199999Y-71448474D02*
X103142856Y-71477045D01*
X103142856Y-71477045D02*
X103114285Y-71505617D01*
X103114285Y-71505617D02*
X103085713Y-71562760D01*
X103085713Y-71562760D02*
X103085713Y-71677045D01*
X103085713Y-71677045D02*
X103114285Y-71734188D01*
X103114285Y-71734188D02*
X103142856Y-71762760D01*
X103142856Y-71762760D02*
X103199999Y-71791331D01*
X103199999Y-71791331D02*
X103314285Y-71791331D01*
X103314285Y-71791331D02*
X103371428Y-71762760D01*
X103371428Y-71762760D02*
X103399999Y-71734188D01*
X103399999Y-71734188D02*
X103428570Y-71677045D01*
X103428570Y-71677045D02*
X103428570Y-71562760D01*
X103428570Y-71562760D02*
X103399999Y-71505617D01*
X103399999Y-71505617D02*
X103371428Y-71477045D01*
X103371428Y-71477045D02*
X103314285Y-71448474D01*
X102200000Y-74331331D02*
X102200000Y-73731331D01*
X102599999Y-73731331D02*
X102714285Y-73731331D01*
X102714285Y-73731331D02*
X102771428Y-73759902D01*
X102771428Y-73759902D02*
X102828571Y-73817045D01*
X102828571Y-73817045D02*
X102857142Y-73931331D01*
X102857142Y-73931331D02*
X102857142Y-74131331D01*
X102857142Y-74131331D02*
X102828571Y-74245617D01*
X102828571Y-74245617D02*
X102771428Y-74302760D01*
X102771428Y-74302760D02*
X102714285Y-74331331D01*
X102714285Y-74331331D02*
X102599999Y-74331331D01*
X102599999Y-74331331D02*
X102542857Y-74302760D01*
X102542857Y-74302760D02*
X102485714Y-74245617D01*
X102485714Y-74245617D02*
X102457142Y-74131331D01*
X102457142Y-74131331D02*
X102457142Y-73931331D01*
X102457142Y-73931331D02*
X102485714Y-73817045D01*
X102485714Y-73817045D02*
X102542857Y-73759902D01*
X102542857Y-73759902D02*
X102599999Y-73731331D01*
X103057142Y-73731331D02*
X103428570Y-73731331D01*
X103428570Y-73731331D02*
X103228570Y-73959902D01*
X103228570Y-73959902D02*
X103314285Y-73959902D01*
X103314285Y-73959902D02*
X103371428Y-73988474D01*
X103371428Y-73988474D02*
X103399999Y-74017045D01*
X103399999Y-74017045D02*
X103428570Y-74074188D01*
X103428570Y-74074188D02*
X103428570Y-74217045D01*
X103428570Y-74217045D02*
X103399999Y-74274188D01*
X103399999Y-74274188D02*
X103371428Y-74302760D01*
X103371428Y-74302760D02*
X103314285Y-74331331D01*
X103314285Y-74331331D02*
X103142856Y-74331331D01*
X103142856Y-74331331D02*
X103085713Y-74302760D01*
X103085713Y-74302760D02*
X103057142Y-74274188D01*
X101914286Y-76871331D02*
X101914286Y-76271331D01*
X102314285Y-76271331D02*
X102428571Y-76271331D01*
X102428571Y-76271331D02*
X102485714Y-76299902D01*
X102485714Y-76299902D02*
X102542857Y-76357045D01*
X102542857Y-76357045D02*
X102571428Y-76471331D01*
X102571428Y-76471331D02*
X102571428Y-76671331D01*
X102571428Y-76671331D02*
X102542857Y-76785617D01*
X102542857Y-76785617D02*
X102485714Y-76842760D01*
X102485714Y-76842760D02*
X102428571Y-76871331D01*
X102428571Y-76871331D02*
X102314285Y-76871331D01*
X102314285Y-76871331D02*
X102257143Y-76842760D01*
X102257143Y-76842760D02*
X102200000Y-76785617D01*
X102200000Y-76785617D02*
X102171428Y-76671331D01*
X102171428Y-76671331D02*
X102171428Y-76471331D01*
X102171428Y-76471331D02*
X102200000Y-76357045D01*
X102200000Y-76357045D02*
X102257143Y-76299902D01*
X102257143Y-76299902D02*
X102314285Y-76271331D01*
X103085714Y-76471331D02*
X103085714Y-76871331D01*
X102942856Y-76242760D02*
X102799999Y-76671331D01*
X102799999Y-76671331D02*
X103171428Y-76671331D01*
X103657143Y-76271331D02*
X103542857Y-76271331D01*
X103542857Y-76271331D02*
X103485714Y-76299902D01*
X103485714Y-76299902D02*
X103457143Y-76328474D01*
X103457143Y-76328474D02*
X103400000Y-76414188D01*
X103400000Y-76414188D02*
X103371428Y-76528474D01*
X103371428Y-76528474D02*
X103371428Y-76757045D01*
X103371428Y-76757045D02*
X103400000Y-76814188D01*
X103400000Y-76814188D02*
X103428571Y-76842760D01*
X103428571Y-76842760D02*
X103485714Y-76871331D01*
X103485714Y-76871331D02*
X103600000Y-76871331D01*
X103600000Y-76871331D02*
X103657143Y-76842760D01*
X103657143Y-76842760D02*
X103685714Y-76814188D01*
X103685714Y-76814188D02*
X103714285Y-76757045D01*
X103714285Y-76757045D02*
X103714285Y-76614188D01*
X103714285Y-76614188D02*
X103685714Y-76557045D01*
X103685714Y-76557045D02*
X103657143Y-76528474D01*
X103657143Y-76528474D02*
X103600000Y-76499902D01*
X103600000Y-76499902D02*
X103485714Y-76499902D01*
X103485714Y-76499902D02*
X103428571Y-76528474D01*
X103428571Y-76528474D02*
X103400000Y-76557045D01*
X103400000Y-76557045D02*
X103371428Y-76614188D01*
X102200000Y-79411331D02*
X102200000Y-78811331D01*
X102599999Y-78811331D02*
X102714285Y-78811331D01*
X102714285Y-78811331D02*
X102771428Y-78839902D01*
X102771428Y-78839902D02*
X102828571Y-78897045D01*
X102828571Y-78897045D02*
X102857142Y-79011331D01*
X102857142Y-79011331D02*
X102857142Y-79211331D01*
X102857142Y-79211331D02*
X102828571Y-79325617D01*
X102828571Y-79325617D02*
X102771428Y-79382760D01*
X102771428Y-79382760D02*
X102714285Y-79411331D01*
X102714285Y-79411331D02*
X102599999Y-79411331D01*
X102599999Y-79411331D02*
X102542857Y-79382760D01*
X102542857Y-79382760D02*
X102485714Y-79325617D01*
X102485714Y-79325617D02*
X102457142Y-79211331D01*
X102457142Y-79211331D02*
X102457142Y-79011331D01*
X102457142Y-79011331D02*
X102485714Y-78897045D01*
X102485714Y-78897045D02*
X102542857Y-78839902D01*
X102542857Y-78839902D02*
X102599999Y-78811331D01*
X103142856Y-79411331D02*
X103257142Y-79411331D01*
X103257142Y-79411331D02*
X103314285Y-79382760D01*
X103314285Y-79382760D02*
X103342856Y-79354188D01*
X103342856Y-79354188D02*
X103399999Y-79268474D01*
X103399999Y-79268474D02*
X103428570Y-79154188D01*
X103428570Y-79154188D02*
X103428570Y-78925617D01*
X103428570Y-78925617D02*
X103399999Y-78868474D01*
X103399999Y-78868474D02*
X103371428Y-78839902D01*
X103371428Y-78839902D02*
X103314285Y-78811331D01*
X103314285Y-78811331D02*
X103199999Y-78811331D01*
X103199999Y-78811331D02*
X103142856Y-78839902D01*
X103142856Y-78839902D02*
X103114285Y-78868474D01*
X103114285Y-78868474D02*
X103085713Y-78925617D01*
X103085713Y-78925617D02*
X103085713Y-79068474D01*
X103085713Y-79068474D02*
X103114285Y-79125617D01*
X103114285Y-79125617D02*
X103142856Y-79154188D01*
X103142856Y-79154188D02*
X103199999Y-79182760D01*
X103199999Y-79182760D02*
X103314285Y-79182760D01*
X103314285Y-79182760D02*
X103371428Y-79154188D01*
X103371428Y-79154188D02*
X103399999Y-79125617D01*
X103399999Y-79125617D02*
X103428570Y-79068474D01*
X101914286Y-81951331D02*
X101914286Y-81351331D01*
X102314285Y-81351331D02*
X102428571Y-81351331D01*
X102428571Y-81351331D02*
X102485714Y-81379902D01*
X102485714Y-81379902D02*
X102542857Y-81437045D01*
X102542857Y-81437045D02*
X102571428Y-81551331D01*
X102571428Y-81551331D02*
X102571428Y-81751331D01*
X102571428Y-81751331D02*
X102542857Y-81865617D01*
X102542857Y-81865617D02*
X102485714Y-81922760D01*
X102485714Y-81922760D02*
X102428571Y-81951331D01*
X102428571Y-81951331D02*
X102314285Y-81951331D01*
X102314285Y-81951331D02*
X102257143Y-81922760D01*
X102257143Y-81922760D02*
X102200000Y-81865617D01*
X102200000Y-81865617D02*
X102171428Y-81751331D01*
X102171428Y-81751331D02*
X102171428Y-81551331D01*
X102171428Y-81551331D02*
X102200000Y-81437045D01*
X102200000Y-81437045D02*
X102257143Y-81379902D01*
X102257143Y-81379902D02*
X102314285Y-81351331D01*
X103142856Y-81951331D02*
X102799999Y-81951331D01*
X102971428Y-81951331D02*
X102971428Y-81351331D01*
X102971428Y-81351331D02*
X102914285Y-81437045D01*
X102914285Y-81437045D02*
X102857142Y-81494188D01*
X102857142Y-81494188D02*
X102799999Y-81522760D01*
X103514285Y-81351331D02*
X103571428Y-81351331D01*
X103571428Y-81351331D02*
X103628571Y-81379902D01*
X103628571Y-81379902D02*
X103657143Y-81408474D01*
X103657143Y-81408474D02*
X103685714Y-81465617D01*
X103685714Y-81465617D02*
X103714285Y-81579902D01*
X103714285Y-81579902D02*
X103714285Y-81722760D01*
X103714285Y-81722760D02*
X103685714Y-81837045D01*
X103685714Y-81837045D02*
X103657143Y-81894188D01*
X103657143Y-81894188D02*
X103628571Y-81922760D01*
X103628571Y-81922760D02*
X103571428Y-81951331D01*
X103571428Y-81951331D02*
X103514285Y-81951331D01*
X103514285Y-81951331D02*
X103457143Y-81922760D01*
X103457143Y-81922760D02*
X103428571Y-81894188D01*
X103428571Y-81894188D02*
X103400000Y-81837045D01*
X103400000Y-81837045D02*
X103371428Y-81722760D01*
X103371428Y-81722760D02*
X103371428Y-81579902D01*
X103371428Y-81579902D02*
X103400000Y-81465617D01*
X103400000Y-81465617D02*
X103428571Y-81408474D01*
X103428571Y-81408474D02*
X103457143Y-81379902D01*
X103457143Y-81379902D02*
X103514285Y-81351331D01*
X101914286Y-84491331D02*
X101914286Y-83891331D01*
X102314285Y-83891331D02*
X102428571Y-83891331D01*
X102428571Y-83891331D02*
X102485714Y-83919902D01*
X102485714Y-83919902D02*
X102542857Y-83977045D01*
X102542857Y-83977045D02*
X102571428Y-84091331D01*
X102571428Y-84091331D02*
X102571428Y-84291331D01*
X102571428Y-84291331D02*
X102542857Y-84405617D01*
X102542857Y-84405617D02*
X102485714Y-84462760D01*
X102485714Y-84462760D02*
X102428571Y-84491331D01*
X102428571Y-84491331D02*
X102314285Y-84491331D01*
X102314285Y-84491331D02*
X102257143Y-84462760D01*
X102257143Y-84462760D02*
X102200000Y-84405617D01*
X102200000Y-84405617D02*
X102171428Y-84291331D01*
X102171428Y-84291331D02*
X102171428Y-84091331D01*
X102171428Y-84091331D02*
X102200000Y-83977045D01*
X102200000Y-83977045D02*
X102257143Y-83919902D01*
X102257143Y-83919902D02*
X102314285Y-83891331D01*
X103142856Y-84491331D02*
X102799999Y-84491331D01*
X102971428Y-84491331D02*
X102971428Y-83891331D01*
X102971428Y-83891331D02*
X102914285Y-83977045D01*
X102914285Y-83977045D02*
X102857142Y-84034188D01*
X102857142Y-84034188D02*
X102799999Y-84062760D01*
X103714285Y-84491331D02*
X103371428Y-84491331D01*
X103542857Y-84491331D02*
X103542857Y-83891331D01*
X103542857Y-83891331D02*
X103485714Y-83977045D01*
X103485714Y-83977045D02*
X103428571Y-84034188D01*
X103428571Y-84034188D02*
X103371428Y-84062760D01*
X101914286Y-87031331D02*
X101914286Y-86431331D01*
X102314285Y-86431331D02*
X102428571Y-86431331D01*
X102428571Y-86431331D02*
X102485714Y-86459902D01*
X102485714Y-86459902D02*
X102542857Y-86517045D01*
X102542857Y-86517045D02*
X102571428Y-86631331D01*
X102571428Y-86631331D02*
X102571428Y-86831331D01*
X102571428Y-86831331D02*
X102542857Y-86945617D01*
X102542857Y-86945617D02*
X102485714Y-87002760D01*
X102485714Y-87002760D02*
X102428571Y-87031331D01*
X102428571Y-87031331D02*
X102314285Y-87031331D01*
X102314285Y-87031331D02*
X102257143Y-87002760D01*
X102257143Y-87002760D02*
X102200000Y-86945617D01*
X102200000Y-86945617D02*
X102171428Y-86831331D01*
X102171428Y-86831331D02*
X102171428Y-86631331D01*
X102171428Y-86631331D02*
X102200000Y-86517045D01*
X102200000Y-86517045D02*
X102257143Y-86459902D01*
X102257143Y-86459902D02*
X102314285Y-86431331D01*
X103142856Y-87031331D02*
X102799999Y-87031331D01*
X102971428Y-87031331D02*
X102971428Y-86431331D01*
X102971428Y-86431331D02*
X102914285Y-86517045D01*
X102914285Y-86517045D02*
X102857142Y-86574188D01*
X102857142Y-86574188D02*
X102799999Y-86602760D01*
X103371428Y-86488474D02*
X103400000Y-86459902D01*
X103400000Y-86459902D02*
X103457143Y-86431331D01*
X103457143Y-86431331D02*
X103600000Y-86431331D01*
X103600000Y-86431331D02*
X103657143Y-86459902D01*
X103657143Y-86459902D02*
X103685714Y-86488474D01*
X103685714Y-86488474D02*
X103714285Y-86545617D01*
X103714285Y-86545617D02*
X103714285Y-86602760D01*
X103714285Y-86602760D02*
X103685714Y-86688474D01*
X103685714Y-86688474D02*
X103342857Y-87031331D01*
X103342857Y-87031331D02*
X103714285Y-87031331D01*
X101914286Y-89571331D02*
X101914286Y-88971331D01*
X102314285Y-88971331D02*
X102428571Y-88971331D01*
X102428571Y-88971331D02*
X102485714Y-88999902D01*
X102485714Y-88999902D02*
X102542857Y-89057045D01*
X102542857Y-89057045D02*
X102571428Y-89171331D01*
X102571428Y-89171331D02*
X102571428Y-89371331D01*
X102571428Y-89371331D02*
X102542857Y-89485617D01*
X102542857Y-89485617D02*
X102485714Y-89542760D01*
X102485714Y-89542760D02*
X102428571Y-89571331D01*
X102428571Y-89571331D02*
X102314285Y-89571331D01*
X102314285Y-89571331D02*
X102257143Y-89542760D01*
X102257143Y-89542760D02*
X102200000Y-89485617D01*
X102200000Y-89485617D02*
X102171428Y-89371331D01*
X102171428Y-89371331D02*
X102171428Y-89171331D01*
X102171428Y-89171331D02*
X102200000Y-89057045D01*
X102200000Y-89057045D02*
X102257143Y-88999902D01*
X102257143Y-88999902D02*
X102314285Y-88971331D01*
X103142856Y-89571331D02*
X102799999Y-89571331D01*
X102971428Y-89571331D02*
X102971428Y-88971331D01*
X102971428Y-88971331D02*
X102914285Y-89057045D01*
X102914285Y-89057045D02*
X102857142Y-89114188D01*
X102857142Y-89114188D02*
X102799999Y-89142760D01*
X103342857Y-88971331D02*
X103714285Y-88971331D01*
X103714285Y-88971331D02*
X103514285Y-89199902D01*
X103514285Y-89199902D02*
X103600000Y-89199902D01*
X103600000Y-89199902D02*
X103657143Y-89228474D01*
X103657143Y-89228474D02*
X103685714Y-89257045D01*
X103685714Y-89257045D02*
X103714285Y-89314188D01*
X103714285Y-89314188D02*
X103714285Y-89457045D01*
X103714285Y-89457045D02*
X103685714Y-89514188D01*
X103685714Y-89514188D02*
X103657143Y-89542760D01*
X103657143Y-89542760D02*
X103600000Y-89571331D01*
X103600000Y-89571331D02*
X103428571Y-89571331D01*
X103428571Y-89571331D02*
X103371428Y-89542760D01*
X103371428Y-89542760D02*
X103342857Y-89514188D01*
X101914286Y-92111331D02*
X101914286Y-91511331D01*
X102314285Y-91511331D02*
X102428571Y-91511331D01*
X102428571Y-91511331D02*
X102485714Y-91539902D01*
X102485714Y-91539902D02*
X102542857Y-91597045D01*
X102542857Y-91597045D02*
X102571428Y-91711331D01*
X102571428Y-91711331D02*
X102571428Y-91911331D01*
X102571428Y-91911331D02*
X102542857Y-92025617D01*
X102542857Y-92025617D02*
X102485714Y-92082760D01*
X102485714Y-92082760D02*
X102428571Y-92111331D01*
X102428571Y-92111331D02*
X102314285Y-92111331D01*
X102314285Y-92111331D02*
X102257143Y-92082760D01*
X102257143Y-92082760D02*
X102200000Y-92025617D01*
X102200000Y-92025617D02*
X102171428Y-91911331D01*
X102171428Y-91911331D02*
X102171428Y-91711331D01*
X102171428Y-91711331D02*
X102200000Y-91597045D01*
X102200000Y-91597045D02*
X102257143Y-91539902D01*
X102257143Y-91539902D02*
X102314285Y-91511331D01*
X103142856Y-92111331D02*
X102799999Y-92111331D01*
X102971428Y-92111331D02*
X102971428Y-91511331D01*
X102971428Y-91511331D02*
X102914285Y-91597045D01*
X102914285Y-91597045D02*
X102857142Y-91654188D01*
X102857142Y-91654188D02*
X102799999Y-91682760D01*
X103657143Y-91711331D02*
X103657143Y-92111331D01*
X103514285Y-91482760D02*
X103371428Y-91911331D01*
X103371428Y-91911331D02*
X103742857Y-91911331D01*
X102685714Y-94051331D02*
X102400000Y-94051331D01*
X102400000Y-94051331D02*
X102371428Y-94337045D01*
X102371428Y-94337045D02*
X102400000Y-94308474D01*
X102400000Y-94308474D02*
X102457143Y-94279902D01*
X102457143Y-94279902D02*
X102600000Y-94279902D01*
X102600000Y-94279902D02*
X102657143Y-94308474D01*
X102657143Y-94308474D02*
X102685714Y-94337045D01*
X102685714Y-94337045D02*
X102714285Y-94394188D01*
X102714285Y-94394188D02*
X102714285Y-94537045D01*
X102714285Y-94537045D02*
X102685714Y-94594188D01*
X102685714Y-94594188D02*
X102657143Y-94622760D01*
X102657143Y-94622760D02*
X102600000Y-94651331D01*
X102600000Y-94651331D02*
X102457143Y-94651331D01*
X102457143Y-94651331D02*
X102400000Y-94622760D01*
X102400000Y-94622760D02*
X102371428Y-94594188D01*
X102885714Y-94051331D02*
X103085714Y-94651331D01*
X103085714Y-94651331D02*
X103285714Y-94051331D01*
X102342857Y-96619902D02*
X102285715Y-96591331D01*
X102285715Y-96591331D02*
X102200000Y-96591331D01*
X102200000Y-96591331D02*
X102114286Y-96619902D01*
X102114286Y-96619902D02*
X102057143Y-96677045D01*
X102057143Y-96677045D02*
X102028572Y-96734188D01*
X102028572Y-96734188D02*
X102000000Y-96848474D01*
X102000000Y-96848474D02*
X102000000Y-96934188D01*
X102000000Y-96934188D02*
X102028572Y-97048474D01*
X102028572Y-97048474D02*
X102057143Y-97105617D01*
X102057143Y-97105617D02*
X102114286Y-97162760D01*
X102114286Y-97162760D02*
X102200000Y-97191331D01*
X102200000Y-97191331D02*
X102257143Y-97191331D01*
X102257143Y-97191331D02*
X102342857Y-97162760D01*
X102342857Y-97162760D02*
X102371429Y-97134188D01*
X102371429Y-97134188D02*
X102371429Y-96934188D01*
X102371429Y-96934188D02*
X102257143Y-96934188D01*
X102628572Y-97191331D02*
X102628572Y-96591331D01*
X102628572Y-96591331D02*
X102971429Y-97191331D01*
X102971429Y-97191331D02*
X102971429Y-96591331D01*
X103257143Y-97191331D02*
X103257143Y-96591331D01*
X103257143Y-96591331D02*
X103400000Y-96591331D01*
X103400000Y-96591331D02*
X103485714Y-96619902D01*
X103485714Y-96619902D02*
X103542857Y-96677045D01*
X103542857Y-96677045D02*
X103571428Y-96734188D01*
X103571428Y-96734188D02*
X103600000Y-96848474D01*
X103600000Y-96848474D02*
X103600000Y-96934188D01*
X103600000Y-96934188D02*
X103571428Y-97048474D01*
X103571428Y-97048474D02*
X103542857Y-97105617D01*
X103542857Y-97105617D02*
X103485714Y-97162760D01*
X103485714Y-97162760D02*
X103400000Y-97191331D01*
X103400000Y-97191331D02*
X103257143Y-97191331D01*
X110333333Y-100867593D02*
X110333333Y-101434260D01*
X110333333Y-101434260D02*
X110366667Y-101500926D01*
X110366667Y-101500926D02*
X110400000Y-101534260D01*
X110400000Y-101534260D02*
X110466667Y-101567593D01*
X110466667Y-101567593D02*
X110600000Y-101567593D01*
X110600000Y-101567593D02*
X110666667Y-101534260D01*
X110666667Y-101534260D02*
X110700000Y-101500926D01*
X110700000Y-101500926D02*
X110733333Y-101434260D01*
X110733333Y-101434260D02*
X110733333Y-100867593D01*
X111033333Y-101534260D02*
X111133333Y-101567593D01*
X111133333Y-101567593D02*
X111300000Y-101567593D01*
X111300000Y-101567593D02*
X111366666Y-101534260D01*
X111366666Y-101534260D02*
X111400000Y-101500926D01*
X111400000Y-101500926D02*
X111433333Y-101434260D01*
X111433333Y-101434260D02*
X111433333Y-101367593D01*
X111433333Y-101367593D02*
X111400000Y-101300926D01*
X111400000Y-101300926D02*
X111366666Y-101267593D01*
X111366666Y-101267593D02*
X111300000Y-101234260D01*
X111300000Y-101234260D02*
X111166666Y-101200926D01*
X111166666Y-101200926D02*
X111100000Y-101167593D01*
X111100000Y-101167593D02*
X111066666Y-101134260D01*
X111066666Y-101134260D02*
X111033333Y-101067593D01*
X111033333Y-101067593D02*
X111033333Y-101000926D01*
X111033333Y-101000926D02*
X111066666Y-100934260D01*
X111066666Y-100934260D02*
X111100000Y-100900926D01*
X111100000Y-100900926D02*
X111166666Y-100867593D01*
X111166666Y-100867593D02*
X111333333Y-100867593D01*
X111333333Y-100867593D02*
X111433333Y-100900926D01*
X111966667Y-101200926D02*
X112066667Y-101234260D01*
X112066667Y-101234260D02*
X112100000Y-101267593D01*
X112100000Y-101267593D02*
X112133333Y-101334260D01*
X112133333Y-101334260D02*
X112133333Y-101434260D01*
X112133333Y-101434260D02*
X112100000Y-101500926D01*
X112100000Y-101500926D02*
X112066667Y-101534260D01*
X112066667Y-101534260D02*
X112000000Y-101567593D01*
X112000000Y-101567593D02*
X111733333Y-101567593D01*
X111733333Y-101567593D02*
X111733333Y-100867593D01*
X111733333Y-100867593D02*
X111966667Y-100867593D01*
X111966667Y-100867593D02*
X112033333Y-100900926D01*
X112033333Y-100900926D02*
X112066667Y-100934260D01*
X112066667Y-100934260D02*
X112100000Y-101000926D01*
X112100000Y-101000926D02*
X112100000Y-101067593D01*
X112100000Y-101067593D02*
X112066667Y-101134260D01*
X112066667Y-101134260D02*
X112033333Y-101167593D01*
X112033333Y-101167593D02*
X111966667Y-101200926D01*
X111966667Y-101200926D02*
X111733333Y-101200926D01*
X112433333Y-101300926D02*
X112966667Y-101300926D01*
X113700000Y-101500926D02*
X113666667Y-101534260D01*
X113666667Y-101534260D02*
X113566667Y-101567593D01*
X113566667Y-101567593D02*
X113500000Y-101567593D01*
X113500000Y-101567593D02*
X113400000Y-101534260D01*
X113400000Y-101534260D02*
X113333334Y-101467593D01*
X113333334Y-101467593D02*
X113300000Y-101400926D01*
X113300000Y-101400926D02*
X113266667Y-101267593D01*
X113266667Y-101267593D02*
X113266667Y-101167593D01*
X113266667Y-101167593D02*
X113300000Y-101034260D01*
X113300000Y-101034260D02*
X113333334Y-100967593D01*
X113333334Y-100967593D02*
X113400000Y-100900926D01*
X113400000Y-100900926D02*
X113500000Y-100867593D01*
X113500000Y-100867593D02*
X113566667Y-100867593D01*
X113566667Y-100867593D02*
X113666667Y-100900926D01*
X113666667Y-100900926D02*
X113700000Y-100934260D01*
X120742857Y-43279902D02*
X120685715Y-43251331D01*
X120685715Y-43251331D02*
X120600000Y-43251331D01*
X120600000Y-43251331D02*
X120514286Y-43279902D01*
X120514286Y-43279902D02*
X120457143Y-43337045D01*
X120457143Y-43337045D02*
X120428572Y-43394188D01*
X120428572Y-43394188D02*
X120400000Y-43508474D01*
X120400000Y-43508474D02*
X120400000Y-43594188D01*
X120400000Y-43594188D02*
X120428572Y-43708474D01*
X120428572Y-43708474D02*
X120457143Y-43765617D01*
X120457143Y-43765617D02*
X120514286Y-43822760D01*
X120514286Y-43822760D02*
X120600000Y-43851331D01*
X120600000Y-43851331D02*
X120657143Y-43851331D01*
X120657143Y-43851331D02*
X120742857Y-43822760D01*
X120742857Y-43822760D02*
X120771429Y-43794188D01*
X120771429Y-43794188D02*
X120771429Y-43594188D01*
X120771429Y-43594188D02*
X120657143Y-43594188D01*
X121028572Y-43851331D02*
X121028572Y-43251331D01*
X121028572Y-43251331D02*
X121371429Y-43851331D01*
X121371429Y-43851331D02*
X121371429Y-43251331D01*
X121657143Y-43851331D02*
X121657143Y-43251331D01*
X121657143Y-43251331D02*
X121800000Y-43251331D01*
X121800000Y-43251331D02*
X121885714Y-43279902D01*
X121885714Y-43279902D02*
X121942857Y-43337045D01*
X121942857Y-43337045D02*
X121971428Y-43394188D01*
X121971428Y-43394188D02*
X122000000Y-43508474D01*
X122000000Y-43508474D02*
X122000000Y-43594188D01*
X122000000Y-43594188D02*
X121971428Y-43708474D01*
X121971428Y-43708474D02*
X121942857Y-43765617D01*
X121942857Y-43765617D02*
X121885714Y-43822760D01*
X121885714Y-43822760D02*
X121800000Y-43851331D01*
X121800000Y-43851331D02*
X121657143Y-43851331D01*
X120157142Y-45791331D02*
X120500000Y-45791331D01*
X120328571Y-46391331D02*
X120328571Y-45791331D01*
X120642857Y-45791331D02*
X121042857Y-46391331D01*
X121042857Y-45791331D02*
X120642857Y-46391331D01*
X121271429Y-46391331D02*
X121271429Y-45791331D01*
X121271429Y-45791331D02*
X121414286Y-45791331D01*
X121414286Y-45791331D02*
X121500000Y-45819902D01*
X121500000Y-45819902D02*
X121557143Y-45877045D01*
X121557143Y-45877045D02*
X121585714Y-45934188D01*
X121585714Y-45934188D02*
X121614286Y-46048474D01*
X121614286Y-46048474D02*
X121614286Y-46134188D01*
X121614286Y-46134188D02*
X121585714Y-46248474D01*
X121585714Y-46248474D02*
X121557143Y-46305617D01*
X121557143Y-46305617D02*
X121500000Y-46362760D01*
X121500000Y-46362760D02*
X121414286Y-46391331D01*
X121414286Y-46391331D02*
X121271429Y-46391331D01*
X121985714Y-45791331D02*
X122042857Y-45791331D01*
X122042857Y-45791331D02*
X122100000Y-45819902D01*
X122100000Y-45819902D02*
X122128572Y-45848474D01*
X122128572Y-45848474D02*
X122157143Y-45905617D01*
X122157143Y-45905617D02*
X122185714Y-46019902D01*
X122185714Y-46019902D02*
X122185714Y-46162760D01*
X122185714Y-46162760D02*
X122157143Y-46277045D01*
X122157143Y-46277045D02*
X122128572Y-46334188D01*
X122128572Y-46334188D02*
X122100000Y-46362760D01*
X122100000Y-46362760D02*
X122042857Y-46391331D01*
X122042857Y-46391331D02*
X121985714Y-46391331D01*
X121985714Y-46391331D02*
X121928572Y-46362760D01*
X121928572Y-46362760D02*
X121900000Y-46334188D01*
X121900000Y-46334188D02*
X121871429Y-46277045D01*
X121871429Y-46277045D02*
X121842857Y-46162760D01*
X121842857Y-46162760D02*
X121842857Y-46019902D01*
X121842857Y-46019902D02*
X121871429Y-45905617D01*
X121871429Y-45905617D02*
X121900000Y-45848474D01*
X121900000Y-45848474D02*
X121928572Y-45819902D01*
X121928572Y-45819902D02*
X121985714Y-45791331D01*
X120514285Y-48931331D02*
X120314285Y-48645617D01*
X120171428Y-48931331D02*
X120171428Y-48331331D01*
X120171428Y-48331331D02*
X120399999Y-48331331D01*
X120399999Y-48331331D02*
X120457142Y-48359902D01*
X120457142Y-48359902D02*
X120485713Y-48388474D01*
X120485713Y-48388474D02*
X120514285Y-48445617D01*
X120514285Y-48445617D02*
X120514285Y-48531331D01*
X120514285Y-48531331D02*
X120485713Y-48588474D01*
X120485713Y-48588474D02*
X120457142Y-48617045D01*
X120457142Y-48617045D02*
X120399999Y-48645617D01*
X120399999Y-48645617D02*
X120171428Y-48645617D01*
X120714285Y-48331331D02*
X121114285Y-48931331D01*
X121114285Y-48331331D02*
X120714285Y-48931331D01*
X121342857Y-48931331D02*
X121342857Y-48331331D01*
X121342857Y-48331331D02*
X121485714Y-48331331D01*
X121485714Y-48331331D02*
X121571428Y-48359902D01*
X121571428Y-48359902D02*
X121628571Y-48417045D01*
X121628571Y-48417045D02*
X121657142Y-48474188D01*
X121657142Y-48474188D02*
X121685714Y-48588474D01*
X121685714Y-48588474D02*
X121685714Y-48674188D01*
X121685714Y-48674188D02*
X121657142Y-48788474D01*
X121657142Y-48788474D02*
X121628571Y-48845617D01*
X121628571Y-48845617D02*
X121571428Y-48902760D01*
X121571428Y-48902760D02*
X121485714Y-48931331D01*
X121485714Y-48931331D02*
X121342857Y-48931331D01*
X122057142Y-48331331D02*
X122114285Y-48331331D01*
X122114285Y-48331331D02*
X122171428Y-48359902D01*
X122171428Y-48359902D02*
X122200000Y-48388474D01*
X122200000Y-48388474D02*
X122228571Y-48445617D01*
X122228571Y-48445617D02*
X122257142Y-48559902D01*
X122257142Y-48559902D02*
X122257142Y-48702760D01*
X122257142Y-48702760D02*
X122228571Y-48817045D01*
X122228571Y-48817045D02*
X122200000Y-48874188D01*
X122200000Y-48874188D02*
X122171428Y-48902760D01*
X122171428Y-48902760D02*
X122114285Y-48931331D01*
X122114285Y-48931331D02*
X122057142Y-48931331D01*
X122057142Y-48931331D02*
X122000000Y-48902760D01*
X122000000Y-48902760D02*
X121971428Y-48874188D01*
X121971428Y-48874188D02*
X121942857Y-48817045D01*
X121942857Y-48817045D02*
X121914285Y-48702760D01*
X121914285Y-48702760D02*
X121914285Y-48559902D01*
X121914285Y-48559902D02*
X121942857Y-48445617D01*
X121942857Y-48445617D02*
X121971428Y-48388474D01*
X121971428Y-48388474D02*
X122000000Y-48359902D01*
X122000000Y-48359902D02*
X122057142Y-48331331D01*
X120600000Y-51471331D02*
X120600000Y-50871331D01*
X120999999Y-50871331D02*
X121114285Y-50871331D01*
X121114285Y-50871331D02*
X121171428Y-50899902D01*
X121171428Y-50899902D02*
X121228571Y-50957045D01*
X121228571Y-50957045D02*
X121257142Y-51071331D01*
X121257142Y-51071331D02*
X121257142Y-51271331D01*
X121257142Y-51271331D02*
X121228571Y-51385617D01*
X121228571Y-51385617D02*
X121171428Y-51442760D01*
X121171428Y-51442760D02*
X121114285Y-51471331D01*
X121114285Y-51471331D02*
X120999999Y-51471331D01*
X120999999Y-51471331D02*
X120942857Y-51442760D01*
X120942857Y-51442760D02*
X120885714Y-51385617D01*
X120885714Y-51385617D02*
X120857142Y-51271331D01*
X120857142Y-51271331D02*
X120857142Y-51071331D01*
X120857142Y-51071331D02*
X120885714Y-50957045D01*
X120885714Y-50957045D02*
X120942857Y-50899902D01*
X120942857Y-50899902D02*
X120999999Y-50871331D01*
X121828570Y-51471331D02*
X121485713Y-51471331D01*
X121657142Y-51471331D02*
X121657142Y-50871331D01*
X121657142Y-50871331D02*
X121599999Y-50957045D01*
X121599999Y-50957045D02*
X121542856Y-51014188D01*
X121542856Y-51014188D02*
X121485713Y-51042760D01*
X120600000Y-54011331D02*
X120600000Y-53411331D01*
X120999999Y-53411331D02*
X121114285Y-53411331D01*
X121114285Y-53411331D02*
X121171428Y-53439902D01*
X121171428Y-53439902D02*
X121228571Y-53497045D01*
X121228571Y-53497045D02*
X121257142Y-53611331D01*
X121257142Y-53611331D02*
X121257142Y-53811331D01*
X121257142Y-53811331D02*
X121228571Y-53925617D01*
X121228571Y-53925617D02*
X121171428Y-53982760D01*
X121171428Y-53982760D02*
X121114285Y-54011331D01*
X121114285Y-54011331D02*
X120999999Y-54011331D01*
X120999999Y-54011331D02*
X120942857Y-53982760D01*
X120942857Y-53982760D02*
X120885714Y-53925617D01*
X120885714Y-53925617D02*
X120857142Y-53811331D01*
X120857142Y-53811331D02*
X120857142Y-53611331D01*
X120857142Y-53611331D02*
X120885714Y-53497045D01*
X120885714Y-53497045D02*
X120942857Y-53439902D01*
X120942857Y-53439902D02*
X120999999Y-53411331D01*
X121485713Y-53468474D02*
X121514285Y-53439902D01*
X121514285Y-53439902D02*
X121571428Y-53411331D01*
X121571428Y-53411331D02*
X121714285Y-53411331D01*
X121714285Y-53411331D02*
X121771428Y-53439902D01*
X121771428Y-53439902D02*
X121799999Y-53468474D01*
X121799999Y-53468474D02*
X121828570Y-53525617D01*
X121828570Y-53525617D02*
X121828570Y-53582760D01*
X121828570Y-53582760D02*
X121799999Y-53668474D01*
X121799999Y-53668474D02*
X121457142Y-54011331D01*
X121457142Y-54011331D02*
X121828570Y-54011331D01*
X120314286Y-56551331D02*
X120314286Y-55951331D01*
X120714285Y-55951331D02*
X120828571Y-55951331D01*
X120828571Y-55951331D02*
X120885714Y-55979902D01*
X120885714Y-55979902D02*
X120942857Y-56037045D01*
X120942857Y-56037045D02*
X120971428Y-56151331D01*
X120971428Y-56151331D02*
X120971428Y-56351331D01*
X120971428Y-56351331D02*
X120942857Y-56465617D01*
X120942857Y-56465617D02*
X120885714Y-56522760D01*
X120885714Y-56522760D02*
X120828571Y-56551331D01*
X120828571Y-56551331D02*
X120714285Y-56551331D01*
X120714285Y-56551331D02*
X120657143Y-56522760D01*
X120657143Y-56522760D02*
X120600000Y-56465617D01*
X120600000Y-56465617D02*
X120571428Y-56351331D01*
X120571428Y-56351331D02*
X120571428Y-56151331D01*
X120571428Y-56151331D02*
X120600000Y-56037045D01*
X120600000Y-56037045D02*
X120657143Y-55979902D01*
X120657143Y-55979902D02*
X120714285Y-55951331D01*
X121485714Y-56151331D02*
X121485714Y-56551331D01*
X121342856Y-55922760D02*
X121199999Y-56351331D01*
X121199999Y-56351331D02*
X121571428Y-56351331D01*
X121771428Y-56008474D02*
X121800000Y-55979902D01*
X121800000Y-55979902D02*
X121857143Y-55951331D01*
X121857143Y-55951331D02*
X122000000Y-55951331D01*
X122000000Y-55951331D02*
X122057143Y-55979902D01*
X122057143Y-55979902D02*
X122085714Y-56008474D01*
X122085714Y-56008474D02*
X122114285Y-56065617D01*
X122114285Y-56065617D02*
X122114285Y-56122760D01*
X122114285Y-56122760D02*
X122085714Y-56208474D01*
X122085714Y-56208474D02*
X121742857Y-56551331D01*
X121742857Y-56551331D02*
X122114285Y-56551331D01*
X120314286Y-59091331D02*
X120314286Y-58491331D01*
X120714285Y-58491331D02*
X120828571Y-58491331D01*
X120828571Y-58491331D02*
X120885714Y-58519902D01*
X120885714Y-58519902D02*
X120942857Y-58577045D01*
X120942857Y-58577045D02*
X120971428Y-58691331D01*
X120971428Y-58691331D02*
X120971428Y-58891331D01*
X120971428Y-58891331D02*
X120942857Y-59005617D01*
X120942857Y-59005617D02*
X120885714Y-59062760D01*
X120885714Y-59062760D02*
X120828571Y-59091331D01*
X120828571Y-59091331D02*
X120714285Y-59091331D01*
X120714285Y-59091331D02*
X120657143Y-59062760D01*
X120657143Y-59062760D02*
X120600000Y-59005617D01*
X120600000Y-59005617D02*
X120571428Y-58891331D01*
X120571428Y-58891331D02*
X120571428Y-58691331D01*
X120571428Y-58691331D02*
X120600000Y-58577045D01*
X120600000Y-58577045D02*
X120657143Y-58519902D01*
X120657143Y-58519902D02*
X120714285Y-58491331D01*
X121485714Y-58691331D02*
X121485714Y-59091331D01*
X121342856Y-58462760D02*
X121199999Y-58891331D01*
X121199999Y-58891331D02*
X121571428Y-58891331D01*
X122114285Y-59091331D02*
X121771428Y-59091331D01*
X121942857Y-59091331D02*
X121942857Y-58491331D01*
X121942857Y-58491331D02*
X121885714Y-58577045D01*
X121885714Y-58577045D02*
X121828571Y-58634188D01*
X121828571Y-58634188D02*
X121771428Y-58662760D01*
X120314286Y-61631331D02*
X120314286Y-61031331D01*
X120714285Y-61031331D02*
X120828571Y-61031331D01*
X120828571Y-61031331D02*
X120885714Y-61059902D01*
X120885714Y-61059902D02*
X120942857Y-61117045D01*
X120942857Y-61117045D02*
X120971428Y-61231331D01*
X120971428Y-61231331D02*
X120971428Y-61431331D01*
X120971428Y-61431331D02*
X120942857Y-61545617D01*
X120942857Y-61545617D02*
X120885714Y-61602760D01*
X120885714Y-61602760D02*
X120828571Y-61631331D01*
X120828571Y-61631331D02*
X120714285Y-61631331D01*
X120714285Y-61631331D02*
X120657143Y-61602760D01*
X120657143Y-61602760D02*
X120600000Y-61545617D01*
X120600000Y-61545617D02*
X120571428Y-61431331D01*
X120571428Y-61431331D02*
X120571428Y-61231331D01*
X120571428Y-61231331D02*
X120600000Y-61117045D01*
X120600000Y-61117045D02*
X120657143Y-61059902D01*
X120657143Y-61059902D02*
X120714285Y-61031331D01*
X121485714Y-61231331D02*
X121485714Y-61631331D01*
X121342856Y-61002760D02*
X121199999Y-61431331D01*
X121199999Y-61431331D02*
X121571428Y-61431331D01*
X121914285Y-61031331D02*
X121971428Y-61031331D01*
X121971428Y-61031331D02*
X122028571Y-61059902D01*
X122028571Y-61059902D02*
X122057143Y-61088474D01*
X122057143Y-61088474D02*
X122085714Y-61145617D01*
X122085714Y-61145617D02*
X122114285Y-61259902D01*
X122114285Y-61259902D02*
X122114285Y-61402760D01*
X122114285Y-61402760D02*
X122085714Y-61517045D01*
X122085714Y-61517045D02*
X122057143Y-61574188D01*
X122057143Y-61574188D02*
X122028571Y-61602760D01*
X122028571Y-61602760D02*
X121971428Y-61631331D01*
X121971428Y-61631331D02*
X121914285Y-61631331D01*
X121914285Y-61631331D02*
X121857143Y-61602760D01*
X121857143Y-61602760D02*
X121828571Y-61574188D01*
X121828571Y-61574188D02*
X121800000Y-61517045D01*
X121800000Y-61517045D02*
X121771428Y-61402760D01*
X121771428Y-61402760D02*
X121771428Y-61259902D01*
X121771428Y-61259902D02*
X121800000Y-61145617D01*
X121800000Y-61145617D02*
X121828571Y-61088474D01*
X121828571Y-61088474D02*
X121857143Y-61059902D01*
X121857143Y-61059902D02*
X121914285Y-61031331D01*
X120314286Y-64171331D02*
X120314286Y-63571331D01*
X120714285Y-63571331D02*
X120828571Y-63571331D01*
X120828571Y-63571331D02*
X120885714Y-63599902D01*
X120885714Y-63599902D02*
X120942857Y-63657045D01*
X120942857Y-63657045D02*
X120971428Y-63771331D01*
X120971428Y-63771331D02*
X120971428Y-63971331D01*
X120971428Y-63971331D02*
X120942857Y-64085617D01*
X120942857Y-64085617D02*
X120885714Y-64142760D01*
X120885714Y-64142760D02*
X120828571Y-64171331D01*
X120828571Y-64171331D02*
X120714285Y-64171331D01*
X120714285Y-64171331D02*
X120657143Y-64142760D01*
X120657143Y-64142760D02*
X120600000Y-64085617D01*
X120600000Y-64085617D02*
X120571428Y-63971331D01*
X120571428Y-63971331D02*
X120571428Y-63771331D01*
X120571428Y-63771331D02*
X120600000Y-63657045D01*
X120600000Y-63657045D02*
X120657143Y-63599902D01*
X120657143Y-63599902D02*
X120714285Y-63571331D01*
X121171428Y-63571331D02*
X121542856Y-63571331D01*
X121542856Y-63571331D02*
X121342856Y-63799902D01*
X121342856Y-63799902D02*
X121428571Y-63799902D01*
X121428571Y-63799902D02*
X121485714Y-63828474D01*
X121485714Y-63828474D02*
X121514285Y-63857045D01*
X121514285Y-63857045D02*
X121542856Y-63914188D01*
X121542856Y-63914188D02*
X121542856Y-64057045D01*
X121542856Y-64057045D02*
X121514285Y-64114188D01*
X121514285Y-64114188D02*
X121485714Y-64142760D01*
X121485714Y-64142760D02*
X121428571Y-64171331D01*
X121428571Y-64171331D02*
X121257142Y-64171331D01*
X121257142Y-64171331D02*
X121199999Y-64142760D01*
X121199999Y-64142760D02*
X121171428Y-64114188D01*
X121828571Y-64171331D02*
X121942857Y-64171331D01*
X121942857Y-64171331D02*
X122000000Y-64142760D01*
X122000000Y-64142760D02*
X122028571Y-64114188D01*
X122028571Y-64114188D02*
X122085714Y-64028474D01*
X122085714Y-64028474D02*
X122114285Y-63914188D01*
X122114285Y-63914188D02*
X122114285Y-63685617D01*
X122114285Y-63685617D02*
X122085714Y-63628474D01*
X122085714Y-63628474D02*
X122057143Y-63599902D01*
X122057143Y-63599902D02*
X122000000Y-63571331D01*
X122000000Y-63571331D02*
X121885714Y-63571331D01*
X121885714Y-63571331D02*
X121828571Y-63599902D01*
X121828571Y-63599902D02*
X121800000Y-63628474D01*
X121800000Y-63628474D02*
X121771428Y-63685617D01*
X121771428Y-63685617D02*
X121771428Y-63828474D01*
X121771428Y-63828474D02*
X121800000Y-63885617D01*
X121800000Y-63885617D02*
X121828571Y-63914188D01*
X121828571Y-63914188D02*
X121885714Y-63942760D01*
X121885714Y-63942760D02*
X122000000Y-63942760D01*
X122000000Y-63942760D02*
X122057143Y-63914188D01*
X122057143Y-63914188D02*
X122085714Y-63885617D01*
X122085714Y-63885617D02*
X122114285Y-63828474D01*
X120314286Y-66711331D02*
X120314286Y-66111331D01*
X120714285Y-66111331D02*
X120828571Y-66111331D01*
X120828571Y-66111331D02*
X120885714Y-66139902D01*
X120885714Y-66139902D02*
X120942857Y-66197045D01*
X120942857Y-66197045D02*
X120971428Y-66311331D01*
X120971428Y-66311331D02*
X120971428Y-66511331D01*
X120971428Y-66511331D02*
X120942857Y-66625617D01*
X120942857Y-66625617D02*
X120885714Y-66682760D01*
X120885714Y-66682760D02*
X120828571Y-66711331D01*
X120828571Y-66711331D02*
X120714285Y-66711331D01*
X120714285Y-66711331D02*
X120657143Y-66682760D01*
X120657143Y-66682760D02*
X120600000Y-66625617D01*
X120600000Y-66625617D02*
X120571428Y-66511331D01*
X120571428Y-66511331D02*
X120571428Y-66311331D01*
X120571428Y-66311331D02*
X120600000Y-66197045D01*
X120600000Y-66197045D02*
X120657143Y-66139902D01*
X120657143Y-66139902D02*
X120714285Y-66111331D01*
X121171428Y-66111331D02*
X121542856Y-66111331D01*
X121542856Y-66111331D02*
X121342856Y-66339902D01*
X121342856Y-66339902D02*
X121428571Y-66339902D01*
X121428571Y-66339902D02*
X121485714Y-66368474D01*
X121485714Y-66368474D02*
X121514285Y-66397045D01*
X121514285Y-66397045D02*
X121542856Y-66454188D01*
X121542856Y-66454188D02*
X121542856Y-66597045D01*
X121542856Y-66597045D02*
X121514285Y-66654188D01*
X121514285Y-66654188D02*
X121485714Y-66682760D01*
X121485714Y-66682760D02*
X121428571Y-66711331D01*
X121428571Y-66711331D02*
X121257142Y-66711331D01*
X121257142Y-66711331D02*
X121199999Y-66682760D01*
X121199999Y-66682760D02*
X121171428Y-66654188D01*
X121885714Y-66368474D02*
X121828571Y-66339902D01*
X121828571Y-66339902D02*
X121800000Y-66311331D01*
X121800000Y-66311331D02*
X121771428Y-66254188D01*
X121771428Y-66254188D02*
X121771428Y-66225617D01*
X121771428Y-66225617D02*
X121800000Y-66168474D01*
X121800000Y-66168474D02*
X121828571Y-66139902D01*
X121828571Y-66139902D02*
X121885714Y-66111331D01*
X121885714Y-66111331D02*
X122000000Y-66111331D01*
X122000000Y-66111331D02*
X122057143Y-66139902D01*
X122057143Y-66139902D02*
X122085714Y-66168474D01*
X122085714Y-66168474D02*
X122114285Y-66225617D01*
X122114285Y-66225617D02*
X122114285Y-66254188D01*
X122114285Y-66254188D02*
X122085714Y-66311331D01*
X122085714Y-66311331D02*
X122057143Y-66339902D01*
X122057143Y-66339902D02*
X122000000Y-66368474D01*
X122000000Y-66368474D02*
X121885714Y-66368474D01*
X121885714Y-66368474D02*
X121828571Y-66397045D01*
X121828571Y-66397045D02*
X121800000Y-66425617D01*
X121800000Y-66425617D02*
X121771428Y-66482760D01*
X121771428Y-66482760D02*
X121771428Y-66597045D01*
X121771428Y-66597045D02*
X121800000Y-66654188D01*
X121800000Y-66654188D02*
X121828571Y-66682760D01*
X121828571Y-66682760D02*
X121885714Y-66711331D01*
X121885714Y-66711331D02*
X122000000Y-66711331D01*
X122000000Y-66711331D02*
X122057143Y-66682760D01*
X122057143Y-66682760D02*
X122085714Y-66654188D01*
X122085714Y-66654188D02*
X122114285Y-66597045D01*
X122114285Y-66597045D02*
X122114285Y-66482760D01*
X122114285Y-66482760D02*
X122085714Y-66425617D01*
X122085714Y-66425617D02*
X122057143Y-66397045D01*
X122057143Y-66397045D02*
X122000000Y-66368474D01*
X120314286Y-69251331D02*
X120314286Y-68651331D01*
X120714285Y-68651331D02*
X120828571Y-68651331D01*
X120828571Y-68651331D02*
X120885714Y-68679902D01*
X120885714Y-68679902D02*
X120942857Y-68737045D01*
X120942857Y-68737045D02*
X120971428Y-68851331D01*
X120971428Y-68851331D02*
X120971428Y-69051331D01*
X120971428Y-69051331D02*
X120942857Y-69165617D01*
X120942857Y-69165617D02*
X120885714Y-69222760D01*
X120885714Y-69222760D02*
X120828571Y-69251331D01*
X120828571Y-69251331D02*
X120714285Y-69251331D01*
X120714285Y-69251331D02*
X120657143Y-69222760D01*
X120657143Y-69222760D02*
X120600000Y-69165617D01*
X120600000Y-69165617D02*
X120571428Y-69051331D01*
X120571428Y-69051331D02*
X120571428Y-68851331D01*
X120571428Y-68851331D02*
X120600000Y-68737045D01*
X120600000Y-68737045D02*
X120657143Y-68679902D01*
X120657143Y-68679902D02*
X120714285Y-68651331D01*
X121171428Y-68651331D02*
X121542856Y-68651331D01*
X121542856Y-68651331D02*
X121342856Y-68879902D01*
X121342856Y-68879902D02*
X121428571Y-68879902D01*
X121428571Y-68879902D02*
X121485714Y-68908474D01*
X121485714Y-68908474D02*
X121514285Y-68937045D01*
X121514285Y-68937045D02*
X121542856Y-68994188D01*
X121542856Y-68994188D02*
X121542856Y-69137045D01*
X121542856Y-69137045D02*
X121514285Y-69194188D01*
X121514285Y-69194188D02*
X121485714Y-69222760D01*
X121485714Y-69222760D02*
X121428571Y-69251331D01*
X121428571Y-69251331D02*
X121257142Y-69251331D01*
X121257142Y-69251331D02*
X121199999Y-69222760D01*
X121199999Y-69222760D02*
X121171428Y-69194188D01*
X121742857Y-68651331D02*
X122142857Y-68651331D01*
X122142857Y-68651331D02*
X121885714Y-69251331D01*
X120314286Y-71791331D02*
X120314286Y-71191331D01*
X120714285Y-71191331D02*
X120828571Y-71191331D01*
X120828571Y-71191331D02*
X120885714Y-71219902D01*
X120885714Y-71219902D02*
X120942857Y-71277045D01*
X120942857Y-71277045D02*
X120971428Y-71391331D01*
X120971428Y-71391331D02*
X120971428Y-71591331D01*
X120971428Y-71591331D02*
X120942857Y-71705617D01*
X120942857Y-71705617D02*
X120885714Y-71762760D01*
X120885714Y-71762760D02*
X120828571Y-71791331D01*
X120828571Y-71791331D02*
X120714285Y-71791331D01*
X120714285Y-71791331D02*
X120657143Y-71762760D01*
X120657143Y-71762760D02*
X120600000Y-71705617D01*
X120600000Y-71705617D02*
X120571428Y-71591331D01*
X120571428Y-71591331D02*
X120571428Y-71391331D01*
X120571428Y-71391331D02*
X120600000Y-71277045D01*
X120600000Y-71277045D02*
X120657143Y-71219902D01*
X120657143Y-71219902D02*
X120714285Y-71191331D01*
X121171428Y-71191331D02*
X121542856Y-71191331D01*
X121542856Y-71191331D02*
X121342856Y-71419902D01*
X121342856Y-71419902D02*
X121428571Y-71419902D01*
X121428571Y-71419902D02*
X121485714Y-71448474D01*
X121485714Y-71448474D02*
X121514285Y-71477045D01*
X121514285Y-71477045D02*
X121542856Y-71534188D01*
X121542856Y-71534188D02*
X121542856Y-71677045D01*
X121542856Y-71677045D02*
X121514285Y-71734188D01*
X121514285Y-71734188D02*
X121485714Y-71762760D01*
X121485714Y-71762760D02*
X121428571Y-71791331D01*
X121428571Y-71791331D02*
X121257142Y-71791331D01*
X121257142Y-71791331D02*
X121199999Y-71762760D01*
X121199999Y-71762760D02*
X121171428Y-71734188D01*
X122057143Y-71191331D02*
X121942857Y-71191331D01*
X121942857Y-71191331D02*
X121885714Y-71219902D01*
X121885714Y-71219902D02*
X121857143Y-71248474D01*
X121857143Y-71248474D02*
X121800000Y-71334188D01*
X121800000Y-71334188D02*
X121771428Y-71448474D01*
X121771428Y-71448474D02*
X121771428Y-71677045D01*
X121771428Y-71677045D02*
X121800000Y-71734188D01*
X121800000Y-71734188D02*
X121828571Y-71762760D01*
X121828571Y-71762760D02*
X121885714Y-71791331D01*
X121885714Y-71791331D02*
X122000000Y-71791331D01*
X122000000Y-71791331D02*
X122057143Y-71762760D01*
X122057143Y-71762760D02*
X122085714Y-71734188D01*
X122085714Y-71734188D02*
X122114285Y-71677045D01*
X122114285Y-71677045D02*
X122114285Y-71534188D01*
X122114285Y-71534188D02*
X122085714Y-71477045D01*
X122085714Y-71477045D02*
X122057143Y-71448474D01*
X122057143Y-71448474D02*
X122000000Y-71419902D01*
X122000000Y-71419902D02*
X121885714Y-71419902D01*
X121885714Y-71419902D02*
X121828571Y-71448474D01*
X121828571Y-71448474D02*
X121800000Y-71477045D01*
X121800000Y-71477045D02*
X121771428Y-71534188D01*
X120314286Y-74331331D02*
X120314286Y-73731331D01*
X120714285Y-73731331D02*
X120828571Y-73731331D01*
X120828571Y-73731331D02*
X120885714Y-73759902D01*
X120885714Y-73759902D02*
X120942857Y-73817045D01*
X120942857Y-73817045D02*
X120971428Y-73931331D01*
X120971428Y-73931331D02*
X120971428Y-74131331D01*
X120971428Y-74131331D02*
X120942857Y-74245617D01*
X120942857Y-74245617D02*
X120885714Y-74302760D01*
X120885714Y-74302760D02*
X120828571Y-74331331D01*
X120828571Y-74331331D02*
X120714285Y-74331331D01*
X120714285Y-74331331D02*
X120657143Y-74302760D01*
X120657143Y-74302760D02*
X120600000Y-74245617D01*
X120600000Y-74245617D02*
X120571428Y-74131331D01*
X120571428Y-74131331D02*
X120571428Y-73931331D01*
X120571428Y-73931331D02*
X120600000Y-73817045D01*
X120600000Y-73817045D02*
X120657143Y-73759902D01*
X120657143Y-73759902D02*
X120714285Y-73731331D01*
X121171428Y-73731331D02*
X121542856Y-73731331D01*
X121542856Y-73731331D02*
X121342856Y-73959902D01*
X121342856Y-73959902D02*
X121428571Y-73959902D01*
X121428571Y-73959902D02*
X121485714Y-73988474D01*
X121485714Y-73988474D02*
X121514285Y-74017045D01*
X121514285Y-74017045D02*
X121542856Y-74074188D01*
X121542856Y-74074188D02*
X121542856Y-74217045D01*
X121542856Y-74217045D02*
X121514285Y-74274188D01*
X121514285Y-74274188D02*
X121485714Y-74302760D01*
X121485714Y-74302760D02*
X121428571Y-74331331D01*
X121428571Y-74331331D02*
X121257142Y-74331331D01*
X121257142Y-74331331D02*
X121199999Y-74302760D01*
X121199999Y-74302760D02*
X121171428Y-74274188D01*
X122085714Y-73731331D02*
X121800000Y-73731331D01*
X121800000Y-73731331D02*
X121771428Y-74017045D01*
X121771428Y-74017045D02*
X121800000Y-73988474D01*
X121800000Y-73988474D02*
X121857143Y-73959902D01*
X121857143Y-73959902D02*
X122000000Y-73959902D01*
X122000000Y-73959902D02*
X122057143Y-73988474D01*
X122057143Y-73988474D02*
X122085714Y-74017045D01*
X122085714Y-74017045D02*
X122114285Y-74074188D01*
X122114285Y-74074188D02*
X122114285Y-74217045D01*
X122114285Y-74217045D02*
X122085714Y-74274188D01*
X122085714Y-74274188D02*
X122057143Y-74302760D01*
X122057143Y-74302760D02*
X122000000Y-74331331D01*
X122000000Y-74331331D02*
X121857143Y-74331331D01*
X121857143Y-74331331D02*
X121800000Y-74302760D01*
X121800000Y-74302760D02*
X121771428Y-74274188D01*
X120600000Y-76871331D02*
X120600000Y-76271331D01*
X120999999Y-76271331D02*
X121114285Y-76271331D01*
X121114285Y-76271331D02*
X121171428Y-76299902D01*
X121171428Y-76299902D02*
X121228571Y-76357045D01*
X121228571Y-76357045D02*
X121257142Y-76471331D01*
X121257142Y-76471331D02*
X121257142Y-76671331D01*
X121257142Y-76671331D02*
X121228571Y-76785617D01*
X121228571Y-76785617D02*
X121171428Y-76842760D01*
X121171428Y-76842760D02*
X121114285Y-76871331D01*
X121114285Y-76871331D02*
X120999999Y-76871331D01*
X120999999Y-76871331D02*
X120942857Y-76842760D01*
X120942857Y-76842760D02*
X120885714Y-76785617D01*
X120885714Y-76785617D02*
X120857142Y-76671331D01*
X120857142Y-76671331D02*
X120857142Y-76471331D01*
X120857142Y-76471331D02*
X120885714Y-76357045D01*
X120885714Y-76357045D02*
X120942857Y-76299902D01*
X120942857Y-76299902D02*
X120999999Y-76271331D01*
X121628570Y-76271331D02*
X121685713Y-76271331D01*
X121685713Y-76271331D02*
X121742856Y-76299902D01*
X121742856Y-76299902D02*
X121771428Y-76328474D01*
X121771428Y-76328474D02*
X121799999Y-76385617D01*
X121799999Y-76385617D02*
X121828570Y-76499902D01*
X121828570Y-76499902D02*
X121828570Y-76642760D01*
X121828570Y-76642760D02*
X121799999Y-76757045D01*
X121799999Y-76757045D02*
X121771428Y-76814188D01*
X121771428Y-76814188D02*
X121742856Y-76842760D01*
X121742856Y-76842760D02*
X121685713Y-76871331D01*
X121685713Y-76871331D02*
X121628570Y-76871331D01*
X121628570Y-76871331D02*
X121571428Y-76842760D01*
X121571428Y-76842760D02*
X121542856Y-76814188D01*
X121542856Y-76814188D02*
X121514285Y-76757045D01*
X121514285Y-76757045D02*
X121485713Y-76642760D01*
X121485713Y-76642760D02*
X121485713Y-76499902D01*
X121485713Y-76499902D02*
X121514285Y-76385617D01*
X121514285Y-76385617D02*
X121542856Y-76328474D01*
X121542856Y-76328474D02*
X121571428Y-76299902D01*
X121571428Y-76299902D02*
X121628570Y-76271331D01*
X120314286Y-79411331D02*
X120314286Y-78811331D01*
X120714285Y-78811331D02*
X120828571Y-78811331D01*
X120828571Y-78811331D02*
X120885714Y-78839902D01*
X120885714Y-78839902D02*
X120942857Y-78897045D01*
X120942857Y-78897045D02*
X120971428Y-79011331D01*
X120971428Y-79011331D02*
X120971428Y-79211331D01*
X120971428Y-79211331D02*
X120942857Y-79325617D01*
X120942857Y-79325617D02*
X120885714Y-79382760D01*
X120885714Y-79382760D02*
X120828571Y-79411331D01*
X120828571Y-79411331D02*
X120714285Y-79411331D01*
X120714285Y-79411331D02*
X120657143Y-79382760D01*
X120657143Y-79382760D02*
X120600000Y-79325617D01*
X120600000Y-79325617D02*
X120571428Y-79211331D01*
X120571428Y-79211331D02*
X120571428Y-79011331D01*
X120571428Y-79011331D02*
X120600000Y-78897045D01*
X120600000Y-78897045D02*
X120657143Y-78839902D01*
X120657143Y-78839902D02*
X120714285Y-78811331D01*
X121485714Y-79011331D02*
X121485714Y-79411331D01*
X121342856Y-78782760D02*
X121199999Y-79211331D01*
X121199999Y-79211331D02*
X121571428Y-79211331D01*
X122085714Y-78811331D02*
X121800000Y-78811331D01*
X121800000Y-78811331D02*
X121771428Y-79097045D01*
X121771428Y-79097045D02*
X121800000Y-79068474D01*
X121800000Y-79068474D02*
X121857143Y-79039902D01*
X121857143Y-79039902D02*
X122000000Y-79039902D01*
X122000000Y-79039902D02*
X122057143Y-79068474D01*
X122057143Y-79068474D02*
X122085714Y-79097045D01*
X122085714Y-79097045D02*
X122114285Y-79154188D01*
X122114285Y-79154188D02*
X122114285Y-79297045D01*
X122114285Y-79297045D02*
X122085714Y-79354188D01*
X122085714Y-79354188D02*
X122057143Y-79382760D01*
X122057143Y-79382760D02*
X122000000Y-79411331D01*
X122000000Y-79411331D02*
X121857143Y-79411331D01*
X121857143Y-79411331D02*
X121800000Y-79382760D01*
X121800000Y-79382760D02*
X121771428Y-79354188D01*
X120314286Y-81951331D02*
X120314286Y-81351331D01*
X120714285Y-81351331D02*
X120828571Y-81351331D01*
X120828571Y-81351331D02*
X120885714Y-81379902D01*
X120885714Y-81379902D02*
X120942857Y-81437045D01*
X120942857Y-81437045D02*
X120971428Y-81551331D01*
X120971428Y-81551331D02*
X120971428Y-81751331D01*
X120971428Y-81751331D02*
X120942857Y-81865617D01*
X120942857Y-81865617D02*
X120885714Y-81922760D01*
X120885714Y-81922760D02*
X120828571Y-81951331D01*
X120828571Y-81951331D02*
X120714285Y-81951331D01*
X120714285Y-81951331D02*
X120657143Y-81922760D01*
X120657143Y-81922760D02*
X120600000Y-81865617D01*
X120600000Y-81865617D02*
X120571428Y-81751331D01*
X120571428Y-81751331D02*
X120571428Y-81551331D01*
X120571428Y-81551331D02*
X120600000Y-81437045D01*
X120600000Y-81437045D02*
X120657143Y-81379902D01*
X120657143Y-81379902D02*
X120714285Y-81351331D01*
X121485714Y-81551331D02*
X121485714Y-81951331D01*
X121342856Y-81322760D02*
X121199999Y-81751331D01*
X121199999Y-81751331D02*
X121571428Y-81751331D01*
X121885714Y-81608474D02*
X121828571Y-81579902D01*
X121828571Y-81579902D02*
X121800000Y-81551331D01*
X121800000Y-81551331D02*
X121771428Y-81494188D01*
X121771428Y-81494188D02*
X121771428Y-81465617D01*
X121771428Y-81465617D02*
X121800000Y-81408474D01*
X121800000Y-81408474D02*
X121828571Y-81379902D01*
X121828571Y-81379902D02*
X121885714Y-81351331D01*
X121885714Y-81351331D02*
X122000000Y-81351331D01*
X122000000Y-81351331D02*
X122057143Y-81379902D01*
X122057143Y-81379902D02*
X122085714Y-81408474D01*
X122085714Y-81408474D02*
X122114285Y-81465617D01*
X122114285Y-81465617D02*
X122114285Y-81494188D01*
X122114285Y-81494188D02*
X122085714Y-81551331D01*
X122085714Y-81551331D02*
X122057143Y-81579902D01*
X122057143Y-81579902D02*
X122000000Y-81608474D01*
X122000000Y-81608474D02*
X121885714Y-81608474D01*
X121885714Y-81608474D02*
X121828571Y-81637045D01*
X121828571Y-81637045D02*
X121800000Y-81665617D01*
X121800000Y-81665617D02*
X121771428Y-81722760D01*
X121771428Y-81722760D02*
X121771428Y-81837045D01*
X121771428Y-81837045D02*
X121800000Y-81894188D01*
X121800000Y-81894188D02*
X121828571Y-81922760D01*
X121828571Y-81922760D02*
X121885714Y-81951331D01*
X121885714Y-81951331D02*
X122000000Y-81951331D01*
X122000000Y-81951331D02*
X122057143Y-81922760D01*
X122057143Y-81922760D02*
X122085714Y-81894188D01*
X122085714Y-81894188D02*
X122114285Y-81837045D01*
X122114285Y-81837045D02*
X122114285Y-81722760D01*
X122114285Y-81722760D02*
X122085714Y-81665617D01*
X122085714Y-81665617D02*
X122057143Y-81637045D01*
X122057143Y-81637045D02*
X122000000Y-81608474D01*
X120314286Y-84491331D02*
X120314286Y-83891331D01*
X120714285Y-83891331D02*
X120828571Y-83891331D01*
X120828571Y-83891331D02*
X120885714Y-83919902D01*
X120885714Y-83919902D02*
X120942857Y-83977045D01*
X120942857Y-83977045D02*
X120971428Y-84091331D01*
X120971428Y-84091331D02*
X120971428Y-84291331D01*
X120971428Y-84291331D02*
X120942857Y-84405617D01*
X120942857Y-84405617D02*
X120885714Y-84462760D01*
X120885714Y-84462760D02*
X120828571Y-84491331D01*
X120828571Y-84491331D02*
X120714285Y-84491331D01*
X120714285Y-84491331D02*
X120657143Y-84462760D01*
X120657143Y-84462760D02*
X120600000Y-84405617D01*
X120600000Y-84405617D02*
X120571428Y-84291331D01*
X120571428Y-84291331D02*
X120571428Y-84091331D01*
X120571428Y-84091331D02*
X120600000Y-83977045D01*
X120600000Y-83977045D02*
X120657143Y-83919902D01*
X120657143Y-83919902D02*
X120714285Y-83891331D01*
X121485714Y-84091331D02*
X121485714Y-84491331D01*
X121342856Y-83862760D02*
X121199999Y-84291331D01*
X121199999Y-84291331D02*
X121571428Y-84291331D01*
X121742857Y-83891331D02*
X122142857Y-83891331D01*
X122142857Y-83891331D02*
X121885714Y-84491331D01*
X120314286Y-87031331D02*
X120314286Y-86431331D01*
X120714285Y-86431331D02*
X120828571Y-86431331D01*
X120828571Y-86431331D02*
X120885714Y-86459902D01*
X120885714Y-86459902D02*
X120942857Y-86517045D01*
X120942857Y-86517045D02*
X120971428Y-86631331D01*
X120971428Y-86631331D02*
X120971428Y-86831331D01*
X120971428Y-86831331D02*
X120942857Y-86945617D01*
X120942857Y-86945617D02*
X120885714Y-87002760D01*
X120885714Y-87002760D02*
X120828571Y-87031331D01*
X120828571Y-87031331D02*
X120714285Y-87031331D01*
X120714285Y-87031331D02*
X120657143Y-87002760D01*
X120657143Y-87002760D02*
X120600000Y-86945617D01*
X120600000Y-86945617D02*
X120571428Y-86831331D01*
X120571428Y-86831331D02*
X120571428Y-86631331D01*
X120571428Y-86631331D02*
X120600000Y-86517045D01*
X120600000Y-86517045D02*
X120657143Y-86459902D01*
X120657143Y-86459902D02*
X120714285Y-86431331D01*
X121199999Y-86488474D02*
X121228571Y-86459902D01*
X121228571Y-86459902D02*
X121285714Y-86431331D01*
X121285714Y-86431331D02*
X121428571Y-86431331D01*
X121428571Y-86431331D02*
X121485714Y-86459902D01*
X121485714Y-86459902D02*
X121514285Y-86488474D01*
X121514285Y-86488474D02*
X121542856Y-86545617D01*
X121542856Y-86545617D02*
X121542856Y-86602760D01*
X121542856Y-86602760D02*
X121514285Y-86688474D01*
X121514285Y-86688474D02*
X121171428Y-87031331D01*
X121171428Y-87031331D02*
X121542856Y-87031331D01*
X122114285Y-87031331D02*
X121771428Y-87031331D01*
X121942857Y-87031331D02*
X121942857Y-86431331D01*
X121942857Y-86431331D02*
X121885714Y-86517045D01*
X121885714Y-86517045D02*
X121828571Y-86574188D01*
X121828571Y-86574188D02*
X121771428Y-86602760D01*
X120314286Y-89571331D02*
X120314286Y-88971331D01*
X120714285Y-88971331D02*
X120828571Y-88971331D01*
X120828571Y-88971331D02*
X120885714Y-88999902D01*
X120885714Y-88999902D02*
X120942857Y-89057045D01*
X120942857Y-89057045D02*
X120971428Y-89171331D01*
X120971428Y-89171331D02*
X120971428Y-89371331D01*
X120971428Y-89371331D02*
X120942857Y-89485617D01*
X120942857Y-89485617D02*
X120885714Y-89542760D01*
X120885714Y-89542760D02*
X120828571Y-89571331D01*
X120828571Y-89571331D02*
X120714285Y-89571331D01*
X120714285Y-89571331D02*
X120657143Y-89542760D01*
X120657143Y-89542760D02*
X120600000Y-89485617D01*
X120600000Y-89485617D02*
X120571428Y-89371331D01*
X120571428Y-89371331D02*
X120571428Y-89171331D01*
X120571428Y-89171331D02*
X120600000Y-89057045D01*
X120600000Y-89057045D02*
X120657143Y-88999902D01*
X120657143Y-88999902D02*
X120714285Y-88971331D01*
X121199999Y-89028474D02*
X121228571Y-88999902D01*
X121228571Y-88999902D02*
X121285714Y-88971331D01*
X121285714Y-88971331D02*
X121428571Y-88971331D01*
X121428571Y-88971331D02*
X121485714Y-88999902D01*
X121485714Y-88999902D02*
X121514285Y-89028474D01*
X121514285Y-89028474D02*
X121542856Y-89085617D01*
X121542856Y-89085617D02*
X121542856Y-89142760D01*
X121542856Y-89142760D02*
X121514285Y-89228474D01*
X121514285Y-89228474D02*
X121171428Y-89571331D01*
X121171428Y-89571331D02*
X121542856Y-89571331D01*
X121914285Y-88971331D02*
X121971428Y-88971331D01*
X121971428Y-88971331D02*
X122028571Y-88999902D01*
X122028571Y-88999902D02*
X122057143Y-89028474D01*
X122057143Y-89028474D02*
X122085714Y-89085617D01*
X122085714Y-89085617D02*
X122114285Y-89199902D01*
X122114285Y-89199902D02*
X122114285Y-89342760D01*
X122114285Y-89342760D02*
X122085714Y-89457045D01*
X122085714Y-89457045D02*
X122057143Y-89514188D01*
X122057143Y-89514188D02*
X122028571Y-89542760D01*
X122028571Y-89542760D02*
X121971428Y-89571331D01*
X121971428Y-89571331D02*
X121914285Y-89571331D01*
X121914285Y-89571331D02*
X121857143Y-89542760D01*
X121857143Y-89542760D02*
X121828571Y-89514188D01*
X121828571Y-89514188D02*
X121800000Y-89457045D01*
X121800000Y-89457045D02*
X121771428Y-89342760D01*
X121771428Y-89342760D02*
X121771428Y-89199902D01*
X121771428Y-89199902D02*
X121800000Y-89085617D01*
X121800000Y-89085617D02*
X121828571Y-89028474D01*
X121828571Y-89028474D02*
X121857143Y-88999902D01*
X121857143Y-88999902D02*
X121914285Y-88971331D01*
X120314286Y-92111331D02*
X120314286Y-91511331D01*
X120714285Y-91511331D02*
X120828571Y-91511331D01*
X120828571Y-91511331D02*
X120885714Y-91539902D01*
X120885714Y-91539902D02*
X120942857Y-91597045D01*
X120942857Y-91597045D02*
X120971428Y-91711331D01*
X120971428Y-91711331D02*
X120971428Y-91911331D01*
X120971428Y-91911331D02*
X120942857Y-92025617D01*
X120942857Y-92025617D02*
X120885714Y-92082760D01*
X120885714Y-92082760D02*
X120828571Y-92111331D01*
X120828571Y-92111331D02*
X120714285Y-92111331D01*
X120714285Y-92111331D02*
X120657143Y-92082760D01*
X120657143Y-92082760D02*
X120600000Y-92025617D01*
X120600000Y-92025617D02*
X120571428Y-91911331D01*
X120571428Y-91911331D02*
X120571428Y-91711331D01*
X120571428Y-91711331D02*
X120600000Y-91597045D01*
X120600000Y-91597045D02*
X120657143Y-91539902D01*
X120657143Y-91539902D02*
X120714285Y-91511331D01*
X121542856Y-92111331D02*
X121199999Y-92111331D01*
X121371428Y-92111331D02*
X121371428Y-91511331D01*
X121371428Y-91511331D02*
X121314285Y-91597045D01*
X121314285Y-91597045D02*
X121257142Y-91654188D01*
X121257142Y-91654188D02*
X121199999Y-91682760D01*
X121828571Y-92111331D02*
X121942857Y-92111331D01*
X121942857Y-92111331D02*
X122000000Y-92082760D01*
X122000000Y-92082760D02*
X122028571Y-92054188D01*
X122028571Y-92054188D02*
X122085714Y-91968474D01*
X122085714Y-91968474D02*
X122114285Y-91854188D01*
X122114285Y-91854188D02*
X122114285Y-91625617D01*
X122114285Y-91625617D02*
X122085714Y-91568474D01*
X122085714Y-91568474D02*
X122057143Y-91539902D01*
X122057143Y-91539902D02*
X122000000Y-91511331D01*
X122000000Y-91511331D02*
X121885714Y-91511331D01*
X121885714Y-91511331D02*
X121828571Y-91539902D01*
X121828571Y-91539902D02*
X121800000Y-91568474D01*
X121800000Y-91568474D02*
X121771428Y-91625617D01*
X121771428Y-91625617D02*
X121771428Y-91768474D01*
X121771428Y-91768474D02*
X121800000Y-91825617D01*
X121800000Y-91825617D02*
X121828571Y-91854188D01*
X121828571Y-91854188D02*
X121885714Y-91882760D01*
X121885714Y-91882760D02*
X122000000Y-91882760D01*
X122000000Y-91882760D02*
X122057143Y-91854188D01*
X122057143Y-91854188D02*
X122085714Y-91825617D01*
X122085714Y-91825617D02*
X122114285Y-91768474D01*
X120742857Y-94079902D02*
X120685715Y-94051331D01*
X120685715Y-94051331D02*
X120600000Y-94051331D01*
X120600000Y-94051331D02*
X120514286Y-94079902D01*
X120514286Y-94079902D02*
X120457143Y-94137045D01*
X120457143Y-94137045D02*
X120428572Y-94194188D01*
X120428572Y-94194188D02*
X120400000Y-94308474D01*
X120400000Y-94308474D02*
X120400000Y-94394188D01*
X120400000Y-94394188D02*
X120428572Y-94508474D01*
X120428572Y-94508474D02*
X120457143Y-94565617D01*
X120457143Y-94565617D02*
X120514286Y-94622760D01*
X120514286Y-94622760D02*
X120600000Y-94651331D01*
X120600000Y-94651331D02*
X120657143Y-94651331D01*
X120657143Y-94651331D02*
X120742857Y-94622760D01*
X120742857Y-94622760D02*
X120771429Y-94594188D01*
X120771429Y-94594188D02*
X120771429Y-94394188D01*
X120771429Y-94394188D02*
X120657143Y-94394188D01*
X121028572Y-94651331D02*
X121028572Y-94051331D01*
X121028572Y-94051331D02*
X121371429Y-94651331D01*
X121371429Y-94651331D02*
X121371429Y-94051331D01*
X121657143Y-94651331D02*
X121657143Y-94051331D01*
X121657143Y-94051331D02*
X121800000Y-94051331D01*
X121800000Y-94051331D02*
X121885714Y-94079902D01*
X121885714Y-94079902D02*
X121942857Y-94137045D01*
X121942857Y-94137045D02*
X121971428Y-94194188D01*
X121971428Y-94194188D02*
X122000000Y-94308474D01*
X122000000Y-94308474D02*
X122000000Y-94394188D01*
X122000000Y-94394188D02*
X121971428Y-94508474D01*
X121971428Y-94508474D02*
X121942857Y-94565617D01*
X121942857Y-94565617D02*
X121885714Y-94622760D01*
X121885714Y-94622760D02*
X121800000Y-94651331D01*
X121800000Y-94651331D02*
X121657143Y-94651331D01*
X120742857Y-96619902D02*
X120685715Y-96591331D01*
X120685715Y-96591331D02*
X120600000Y-96591331D01*
X120600000Y-96591331D02*
X120514286Y-96619902D01*
X120514286Y-96619902D02*
X120457143Y-96677045D01*
X120457143Y-96677045D02*
X120428572Y-96734188D01*
X120428572Y-96734188D02*
X120400000Y-96848474D01*
X120400000Y-96848474D02*
X120400000Y-96934188D01*
X120400000Y-96934188D02*
X120428572Y-97048474D01*
X120428572Y-97048474D02*
X120457143Y-97105617D01*
X120457143Y-97105617D02*
X120514286Y-97162760D01*
X120514286Y-97162760D02*
X120600000Y-97191331D01*
X120600000Y-97191331D02*
X120657143Y-97191331D01*
X120657143Y-97191331D02*
X120742857Y-97162760D01*
X120742857Y-97162760D02*
X120771429Y-97134188D01*
X120771429Y-97134188D02*
X120771429Y-96934188D01*
X120771429Y-96934188D02*
X120657143Y-96934188D01*
X121028572Y-97191331D02*
X121028572Y-96591331D01*
X121028572Y-96591331D02*
X121371429Y-97191331D01*
X121371429Y-97191331D02*
X121371429Y-96591331D01*
X121657143Y-97191331D02*
X121657143Y-96591331D01*
X121657143Y-96591331D02*
X121800000Y-96591331D01*
X121800000Y-96591331D02*
X121885714Y-96619902D01*
X121885714Y-96619902D02*
X121942857Y-96677045D01*
X121942857Y-96677045D02*
X121971428Y-96734188D01*
X121971428Y-96734188D02*
X122000000Y-96848474D01*
X122000000Y-96848474D02*
X122000000Y-96934188D01*
X122000000Y-96934188D02*
X121971428Y-97048474D01*
X121971428Y-97048474D02*
X121942857Y-97105617D01*
X121942857Y-97105617D02*
X121885714Y-97162760D01*
X121885714Y-97162760D02*
X121800000Y-97191331D01*
X121800000Y-97191331D02*
X121657143Y-97191331D01*
D13*
X86704819Y-89083333D02*
X87419104Y-89083333D01*
X87419104Y-89083333D02*
X87561961Y-89130952D01*
X87561961Y-89130952D02*
X87657200Y-89226190D01*
X87657200Y-89226190D02*
X87704819Y-89369047D01*
X87704819Y-89369047D02*
X87704819Y-89464285D01*
X86704819Y-88702380D02*
X86704819Y-88083333D01*
X86704819Y-88083333D02*
X87085771Y-88416666D01*
X87085771Y-88416666D02*
X87085771Y-88273809D01*
X87085771Y-88273809D02*
X87133390Y-88178571D01*
X87133390Y-88178571D02*
X87181009Y-88130952D01*
X87181009Y-88130952D02*
X87276247Y-88083333D01*
X87276247Y-88083333D02*
X87514342Y-88083333D01*
X87514342Y-88083333D02*
X87609580Y-88130952D01*
X87609580Y-88130952D02*
X87657200Y-88178571D01*
X87657200Y-88178571D02*
X87704819Y-88273809D01*
X87704819Y-88273809D02*
X87704819Y-88559523D01*
X87704819Y-88559523D02*
X87657200Y-88654761D01*
X87657200Y-88654761D02*
X87609580Y-88702380D01*
D14*
X78027593Y-75983333D02*
X77327593Y-75983333D01*
X77660926Y-75983333D02*
X77660926Y-75583333D01*
X78027593Y-75583333D02*
X77327593Y-75583333D01*
X77327593Y-75350000D02*
X78027593Y-75116667D01*
X78027593Y-75116667D02*
X77327593Y-74883333D01*
X77560926Y-74350000D02*
X78027593Y-74350000D01*
X77294260Y-74516667D02*
X77794260Y-74683333D01*
X77794260Y-74683333D02*
X77794260Y-74250000D01*
X78027593Y-78523333D02*
X77327593Y-78523333D01*
X77660926Y-78523333D02*
X77660926Y-78123333D01*
X78027593Y-78123333D02*
X77327593Y-78123333D01*
X77327593Y-77890000D02*
X78027593Y-77656667D01*
X78027593Y-77656667D02*
X77327593Y-77423333D01*
X77327593Y-77256667D02*
X77327593Y-76823333D01*
X77327593Y-76823333D02*
X77594260Y-77056667D01*
X77594260Y-77056667D02*
X77594260Y-76956667D01*
X77594260Y-76956667D02*
X77627593Y-76890000D01*
X77627593Y-76890000D02*
X77660926Y-76856667D01*
X77660926Y-76856667D02*
X77727593Y-76823333D01*
X77727593Y-76823333D02*
X77894260Y-76823333D01*
X77894260Y-76823333D02*
X77960926Y-76856667D01*
X77960926Y-76856667D02*
X77994260Y-76890000D01*
X77994260Y-76890000D02*
X78027593Y-76956667D01*
X78027593Y-76956667D02*
X78027593Y-77156667D01*
X78027593Y-77156667D02*
X77994260Y-77223333D01*
X77994260Y-77223333D02*
X77960926Y-77256667D01*
X77360926Y-80763332D02*
X77327593Y-80829999D01*
X77327593Y-80829999D02*
X77327593Y-80929999D01*
X77327593Y-80929999D02*
X77360926Y-81029999D01*
X77360926Y-81029999D02*
X77427593Y-81096666D01*
X77427593Y-81096666D02*
X77494260Y-81129999D01*
X77494260Y-81129999D02*
X77627593Y-81163332D01*
X77627593Y-81163332D02*
X77727593Y-81163332D01*
X77727593Y-81163332D02*
X77860926Y-81129999D01*
X77860926Y-81129999D02*
X77927593Y-81096666D01*
X77927593Y-81096666D02*
X77994260Y-81029999D01*
X77994260Y-81029999D02*
X78027593Y-80929999D01*
X78027593Y-80929999D02*
X78027593Y-80863332D01*
X78027593Y-80863332D02*
X77994260Y-80763332D01*
X77994260Y-80763332D02*
X77960926Y-80729999D01*
X77960926Y-80729999D02*
X77727593Y-80729999D01*
X77727593Y-80729999D02*
X77727593Y-80863332D01*
X78027593Y-80429999D02*
X77327593Y-80429999D01*
X77327593Y-80429999D02*
X78027593Y-80029999D01*
X78027593Y-80029999D02*
X77327593Y-80029999D01*
X78027593Y-79696666D02*
X77327593Y-79696666D01*
X77327593Y-79696666D02*
X77327593Y-79529999D01*
X77327593Y-79529999D02*
X77360926Y-79429999D01*
X77360926Y-79429999D02*
X77427593Y-79363333D01*
X77427593Y-79363333D02*
X77494260Y-79329999D01*
X77494260Y-79329999D02*
X77627593Y-79296666D01*
X77627593Y-79296666D02*
X77727593Y-79296666D01*
X77727593Y-79296666D02*
X77860926Y-79329999D01*
X77860926Y-79329999D02*
X77927593Y-79363333D01*
X77927593Y-79363333D02*
X77994260Y-79429999D01*
X77994260Y-79429999D02*
X78027593Y-79529999D01*
X78027593Y-79529999D02*
X78027593Y-79696666D01*
X78027593Y-83269999D02*
X77327593Y-83269999D01*
X77660926Y-83269999D02*
X77660926Y-82869999D01*
X78027593Y-82869999D02*
X77327593Y-82869999D01*
X77327593Y-82636666D02*
X78027593Y-82403333D01*
X78027593Y-82403333D02*
X77327593Y-82169999D01*
X78027593Y-86143333D02*
X77327593Y-86143333D01*
X77660926Y-86143333D02*
X77660926Y-85743333D01*
X78027593Y-85743333D02*
X77327593Y-85743333D01*
X77327593Y-85510000D02*
X78027593Y-85276667D01*
X78027593Y-85276667D02*
X77327593Y-85043333D01*
X77394260Y-84843333D02*
X77360926Y-84810000D01*
X77360926Y-84810000D02*
X77327593Y-84743333D01*
X77327593Y-84743333D02*
X77327593Y-84576667D01*
X77327593Y-84576667D02*
X77360926Y-84510000D01*
X77360926Y-84510000D02*
X77394260Y-84476667D01*
X77394260Y-84476667D02*
X77460926Y-84443333D01*
X77460926Y-84443333D02*
X77527593Y-84443333D01*
X77527593Y-84443333D02*
X77627593Y-84476667D01*
X77627593Y-84476667D02*
X78027593Y-84876667D01*
X78027593Y-84876667D02*
X78027593Y-84443333D01*
X78027593Y-88683333D02*
X77327593Y-88683333D01*
X77660926Y-88683333D02*
X77660926Y-88283333D01*
X78027593Y-88283333D02*
X77327593Y-88283333D01*
X77327593Y-88050000D02*
X78027593Y-87816667D01*
X78027593Y-87816667D02*
X77327593Y-87583333D01*
X78027593Y-86983333D02*
X78027593Y-87383333D01*
X78027593Y-87183333D02*
X77327593Y-87183333D01*
X77327593Y-87183333D02*
X77427593Y-87250000D01*
X77427593Y-87250000D02*
X77494260Y-87316667D01*
X77494260Y-87316667D02*
X77527593Y-87383333D01*
X91227593Y-75566667D02*
X91227593Y-75900000D01*
X91227593Y-75900000D02*
X90527593Y-75900000D01*
X90527593Y-75433333D02*
X91227593Y-75200000D01*
X91227593Y-75200000D02*
X90527593Y-74966666D01*
X90760926Y-74433333D02*
X91227593Y-74433333D01*
X90494260Y-74600000D02*
X90994260Y-74766666D01*
X90994260Y-74766666D02*
X90994260Y-74333333D01*
X91227593Y-78106667D02*
X91227593Y-78440000D01*
X91227593Y-78440000D02*
X90527593Y-78440000D01*
X90527593Y-77973333D02*
X91227593Y-77740000D01*
X91227593Y-77740000D02*
X90527593Y-77506666D01*
X90527593Y-77340000D02*
X90527593Y-76906666D01*
X90527593Y-76906666D02*
X90794260Y-77140000D01*
X90794260Y-77140000D02*
X90794260Y-77040000D01*
X90794260Y-77040000D02*
X90827593Y-76973333D01*
X90827593Y-76973333D02*
X90860926Y-76940000D01*
X90860926Y-76940000D02*
X90927593Y-76906666D01*
X90927593Y-76906666D02*
X91094260Y-76906666D01*
X91094260Y-76906666D02*
X91160926Y-76940000D01*
X91160926Y-76940000D02*
X91194260Y-76973333D01*
X91194260Y-76973333D02*
X91227593Y-77040000D01*
X91227593Y-77040000D02*
X91227593Y-77240000D01*
X91227593Y-77240000D02*
X91194260Y-77306666D01*
X91194260Y-77306666D02*
X91160926Y-77340000D01*
X90560926Y-80763332D02*
X90527593Y-80829999D01*
X90527593Y-80829999D02*
X90527593Y-80929999D01*
X90527593Y-80929999D02*
X90560926Y-81029999D01*
X90560926Y-81029999D02*
X90627593Y-81096666D01*
X90627593Y-81096666D02*
X90694260Y-81129999D01*
X90694260Y-81129999D02*
X90827593Y-81163332D01*
X90827593Y-81163332D02*
X90927593Y-81163332D01*
X90927593Y-81163332D02*
X91060926Y-81129999D01*
X91060926Y-81129999D02*
X91127593Y-81096666D01*
X91127593Y-81096666D02*
X91194260Y-81029999D01*
X91194260Y-81029999D02*
X91227593Y-80929999D01*
X91227593Y-80929999D02*
X91227593Y-80863332D01*
X91227593Y-80863332D02*
X91194260Y-80763332D01*
X91194260Y-80763332D02*
X91160926Y-80729999D01*
X91160926Y-80729999D02*
X90927593Y-80729999D01*
X90927593Y-80729999D02*
X90927593Y-80863332D01*
X91227593Y-80429999D02*
X90527593Y-80429999D01*
X90527593Y-80429999D02*
X91227593Y-80029999D01*
X91227593Y-80029999D02*
X90527593Y-80029999D01*
X91227593Y-79696666D02*
X90527593Y-79696666D01*
X90527593Y-79696666D02*
X90527593Y-79529999D01*
X90527593Y-79529999D02*
X90560926Y-79429999D01*
X90560926Y-79429999D02*
X90627593Y-79363333D01*
X90627593Y-79363333D02*
X90694260Y-79329999D01*
X90694260Y-79329999D02*
X90827593Y-79296666D01*
X90827593Y-79296666D02*
X90927593Y-79296666D01*
X90927593Y-79296666D02*
X91060926Y-79329999D01*
X91060926Y-79329999D02*
X91127593Y-79363333D01*
X91127593Y-79363333D02*
X91194260Y-79429999D01*
X91194260Y-79429999D02*
X91227593Y-79529999D01*
X91227593Y-79529999D02*
X91227593Y-79696666D01*
X91227593Y-82853333D02*
X91227593Y-83186666D01*
X91227593Y-83186666D02*
X90527593Y-83186666D01*
X90527593Y-82719999D02*
X91227593Y-82486666D01*
X91227593Y-82486666D02*
X90527593Y-82253332D01*
X91227593Y-85726667D02*
X91227593Y-86060000D01*
X91227593Y-86060000D02*
X90527593Y-86060000D01*
X90527593Y-85593333D02*
X91227593Y-85360000D01*
X91227593Y-85360000D02*
X90527593Y-85126666D01*
X90594260Y-84926666D02*
X90560926Y-84893333D01*
X90560926Y-84893333D02*
X90527593Y-84826666D01*
X90527593Y-84826666D02*
X90527593Y-84660000D01*
X90527593Y-84660000D02*
X90560926Y-84593333D01*
X90560926Y-84593333D02*
X90594260Y-84560000D01*
X90594260Y-84560000D02*
X90660926Y-84526666D01*
X90660926Y-84526666D02*
X90727593Y-84526666D01*
X90727593Y-84526666D02*
X90827593Y-84560000D01*
X90827593Y-84560000D02*
X91227593Y-84960000D01*
X91227593Y-84960000D02*
X91227593Y-84526666D01*
X91227593Y-88266667D02*
X91227593Y-88600000D01*
X91227593Y-88600000D02*
X90527593Y-88600000D01*
X90527593Y-88133333D02*
X91227593Y-87900000D01*
X91227593Y-87900000D02*
X90527593Y-87666666D01*
X91227593Y-87066666D02*
X91227593Y-87466666D01*
X91227593Y-87266666D02*
X90527593Y-87266666D01*
X90527593Y-87266666D02*
X90627593Y-87333333D01*
X90627593Y-87333333D02*
X90694260Y-87400000D01*
X90694260Y-87400000D02*
X90727593Y-87466666D01*
D13*
X86704819Y-49583333D02*
X87419104Y-49583333D01*
X87419104Y-49583333D02*
X87561961Y-49630952D01*
X87561961Y-49630952D02*
X87657200Y-49726190D01*
X87657200Y-49726190D02*
X87704819Y-49869047D01*
X87704819Y-49869047D02*
X87704819Y-49964285D01*
X87704819Y-48583333D02*
X87704819Y-49154761D01*
X87704819Y-48869047D02*
X86704819Y-48869047D01*
X86704819Y-48869047D02*
X86847676Y-48964285D01*
X86847676Y-48964285D02*
X86942914Y-49059523D01*
X86942914Y-49059523D02*
X86990533Y-49154761D01*
D14*
X77967593Y-36483333D02*
X77267593Y-36483333D01*
X77600926Y-36483333D02*
X77600926Y-36083333D01*
X77967593Y-36083333D02*
X77267593Y-36083333D01*
X77267593Y-35850000D02*
X77967593Y-35616667D01*
X77967593Y-35616667D02*
X77267593Y-35383333D01*
X77500926Y-34850000D02*
X77967593Y-34850000D01*
X77234260Y-35016667D02*
X77734260Y-35183333D01*
X77734260Y-35183333D02*
X77734260Y-34750000D01*
X77967593Y-39023333D02*
X77267593Y-39023333D01*
X77600926Y-39023333D02*
X77600926Y-38623333D01*
X77967593Y-38623333D02*
X77267593Y-38623333D01*
X77267593Y-38390000D02*
X77967593Y-38156667D01*
X77967593Y-38156667D02*
X77267593Y-37923333D01*
X77267593Y-37756667D02*
X77267593Y-37323333D01*
X77267593Y-37323333D02*
X77534260Y-37556667D01*
X77534260Y-37556667D02*
X77534260Y-37456667D01*
X77534260Y-37456667D02*
X77567593Y-37390000D01*
X77567593Y-37390000D02*
X77600926Y-37356667D01*
X77600926Y-37356667D02*
X77667593Y-37323333D01*
X77667593Y-37323333D02*
X77834260Y-37323333D01*
X77834260Y-37323333D02*
X77900926Y-37356667D01*
X77900926Y-37356667D02*
X77934260Y-37390000D01*
X77934260Y-37390000D02*
X77967593Y-37456667D01*
X77967593Y-37456667D02*
X77967593Y-37656667D01*
X77967593Y-37656667D02*
X77934260Y-37723333D01*
X77934260Y-37723333D02*
X77900926Y-37756667D01*
X77300926Y-41263332D02*
X77267593Y-41329999D01*
X77267593Y-41329999D02*
X77267593Y-41429999D01*
X77267593Y-41429999D02*
X77300926Y-41529999D01*
X77300926Y-41529999D02*
X77367593Y-41596666D01*
X77367593Y-41596666D02*
X77434260Y-41629999D01*
X77434260Y-41629999D02*
X77567593Y-41663332D01*
X77567593Y-41663332D02*
X77667593Y-41663332D01*
X77667593Y-41663332D02*
X77800926Y-41629999D01*
X77800926Y-41629999D02*
X77867593Y-41596666D01*
X77867593Y-41596666D02*
X77934260Y-41529999D01*
X77934260Y-41529999D02*
X77967593Y-41429999D01*
X77967593Y-41429999D02*
X77967593Y-41363332D01*
X77967593Y-41363332D02*
X77934260Y-41263332D01*
X77934260Y-41263332D02*
X77900926Y-41229999D01*
X77900926Y-41229999D02*
X77667593Y-41229999D01*
X77667593Y-41229999D02*
X77667593Y-41363332D01*
X77967593Y-40929999D02*
X77267593Y-40929999D01*
X77267593Y-40929999D02*
X77967593Y-40529999D01*
X77967593Y-40529999D02*
X77267593Y-40529999D01*
X77967593Y-40196666D02*
X77267593Y-40196666D01*
X77267593Y-40196666D02*
X77267593Y-40029999D01*
X77267593Y-40029999D02*
X77300926Y-39929999D01*
X77300926Y-39929999D02*
X77367593Y-39863333D01*
X77367593Y-39863333D02*
X77434260Y-39829999D01*
X77434260Y-39829999D02*
X77567593Y-39796666D01*
X77567593Y-39796666D02*
X77667593Y-39796666D01*
X77667593Y-39796666D02*
X77800926Y-39829999D01*
X77800926Y-39829999D02*
X77867593Y-39863333D01*
X77867593Y-39863333D02*
X77934260Y-39929999D01*
X77934260Y-39929999D02*
X77967593Y-40029999D01*
X77967593Y-40029999D02*
X77967593Y-40196666D01*
X77967593Y-43769999D02*
X77267593Y-43769999D01*
X77600926Y-43769999D02*
X77600926Y-43369999D01*
X77967593Y-43369999D02*
X77267593Y-43369999D01*
X77267593Y-43136666D02*
X77967593Y-42903333D01*
X77967593Y-42903333D02*
X77267593Y-42669999D01*
X77967593Y-46643333D02*
X77267593Y-46643333D01*
X77600926Y-46643333D02*
X77600926Y-46243333D01*
X77967593Y-46243333D02*
X77267593Y-46243333D01*
X77267593Y-46010000D02*
X77967593Y-45776667D01*
X77967593Y-45776667D02*
X77267593Y-45543333D01*
X77334260Y-45343333D02*
X77300926Y-45310000D01*
X77300926Y-45310000D02*
X77267593Y-45243333D01*
X77267593Y-45243333D02*
X77267593Y-45076667D01*
X77267593Y-45076667D02*
X77300926Y-45010000D01*
X77300926Y-45010000D02*
X77334260Y-44976667D01*
X77334260Y-44976667D02*
X77400926Y-44943333D01*
X77400926Y-44943333D02*
X77467593Y-44943333D01*
X77467593Y-44943333D02*
X77567593Y-44976667D01*
X77567593Y-44976667D02*
X77967593Y-45376667D01*
X77967593Y-45376667D02*
X77967593Y-44943333D01*
X77967593Y-49183333D02*
X77267593Y-49183333D01*
X77600926Y-49183333D02*
X77600926Y-48783333D01*
X77967593Y-48783333D02*
X77267593Y-48783333D01*
X77267593Y-48550000D02*
X77967593Y-48316667D01*
X77967593Y-48316667D02*
X77267593Y-48083333D01*
X77967593Y-47483333D02*
X77967593Y-47883333D01*
X77967593Y-47683333D02*
X77267593Y-47683333D01*
X77267593Y-47683333D02*
X77367593Y-47750000D01*
X77367593Y-47750000D02*
X77434260Y-47816667D01*
X77434260Y-47816667D02*
X77467593Y-47883333D01*
X91167593Y-36066667D02*
X91167593Y-36400000D01*
X91167593Y-36400000D02*
X90467593Y-36400000D01*
X90467593Y-35933333D02*
X91167593Y-35700000D01*
X91167593Y-35700000D02*
X90467593Y-35466666D01*
X90700926Y-34933333D02*
X91167593Y-34933333D01*
X90434260Y-35100000D02*
X90934260Y-35266666D01*
X90934260Y-35266666D02*
X90934260Y-34833333D01*
X91167593Y-38606667D02*
X91167593Y-38940000D01*
X91167593Y-38940000D02*
X90467593Y-38940000D01*
X90467593Y-38473333D02*
X91167593Y-38240000D01*
X91167593Y-38240000D02*
X90467593Y-38006666D01*
X90467593Y-37840000D02*
X90467593Y-37406666D01*
X90467593Y-37406666D02*
X90734260Y-37640000D01*
X90734260Y-37640000D02*
X90734260Y-37540000D01*
X90734260Y-37540000D02*
X90767593Y-37473333D01*
X90767593Y-37473333D02*
X90800926Y-37440000D01*
X90800926Y-37440000D02*
X90867593Y-37406666D01*
X90867593Y-37406666D02*
X91034260Y-37406666D01*
X91034260Y-37406666D02*
X91100926Y-37440000D01*
X91100926Y-37440000D02*
X91134260Y-37473333D01*
X91134260Y-37473333D02*
X91167593Y-37540000D01*
X91167593Y-37540000D02*
X91167593Y-37740000D01*
X91167593Y-37740000D02*
X91134260Y-37806666D01*
X91134260Y-37806666D02*
X91100926Y-37840000D01*
X90500926Y-41263332D02*
X90467593Y-41329999D01*
X90467593Y-41329999D02*
X90467593Y-41429999D01*
X90467593Y-41429999D02*
X90500926Y-41529999D01*
X90500926Y-41529999D02*
X90567593Y-41596666D01*
X90567593Y-41596666D02*
X90634260Y-41629999D01*
X90634260Y-41629999D02*
X90767593Y-41663332D01*
X90767593Y-41663332D02*
X90867593Y-41663332D01*
X90867593Y-41663332D02*
X91000926Y-41629999D01*
X91000926Y-41629999D02*
X91067593Y-41596666D01*
X91067593Y-41596666D02*
X91134260Y-41529999D01*
X91134260Y-41529999D02*
X91167593Y-41429999D01*
X91167593Y-41429999D02*
X91167593Y-41363332D01*
X91167593Y-41363332D02*
X91134260Y-41263332D01*
X91134260Y-41263332D02*
X91100926Y-41229999D01*
X91100926Y-41229999D02*
X90867593Y-41229999D01*
X90867593Y-41229999D02*
X90867593Y-41363332D01*
X91167593Y-40929999D02*
X90467593Y-40929999D01*
X90467593Y-40929999D02*
X91167593Y-40529999D01*
X91167593Y-40529999D02*
X90467593Y-40529999D01*
X91167593Y-40196666D02*
X90467593Y-40196666D01*
X90467593Y-40196666D02*
X90467593Y-40029999D01*
X90467593Y-40029999D02*
X90500926Y-39929999D01*
X90500926Y-39929999D02*
X90567593Y-39863333D01*
X90567593Y-39863333D02*
X90634260Y-39829999D01*
X90634260Y-39829999D02*
X90767593Y-39796666D01*
X90767593Y-39796666D02*
X90867593Y-39796666D01*
X90867593Y-39796666D02*
X91000926Y-39829999D01*
X91000926Y-39829999D02*
X91067593Y-39863333D01*
X91067593Y-39863333D02*
X91134260Y-39929999D01*
X91134260Y-39929999D02*
X91167593Y-40029999D01*
X91167593Y-40029999D02*
X91167593Y-40196666D01*
X91167593Y-43353333D02*
X91167593Y-43686666D01*
X91167593Y-43686666D02*
X90467593Y-43686666D01*
X90467593Y-43219999D02*
X91167593Y-42986666D01*
X91167593Y-42986666D02*
X90467593Y-42753332D01*
X91167593Y-46226667D02*
X91167593Y-46560000D01*
X91167593Y-46560000D02*
X90467593Y-46560000D01*
X90467593Y-46093333D02*
X91167593Y-45860000D01*
X91167593Y-45860000D02*
X90467593Y-45626666D01*
X90534260Y-45426666D02*
X90500926Y-45393333D01*
X90500926Y-45393333D02*
X90467593Y-45326666D01*
X90467593Y-45326666D02*
X90467593Y-45160000D01*
X90467593Y-45160000D02*
X90500926Y-45093333D01*
X90500926Y-45093333D02*
X90534260Y-45060000D01*
X90534260Y-45060000D02*
X90600926Y-45026666D01*
X90600926Y-45026666D02*
X90667593Y-45026666D01*
X90667593Y-45026666D02*
X90767593Y-45060000D01*
X90767593Y-45060000D02*
X91167593Y-45460000D01*
X91167593Y-45460000D02*
X91167593Y-45026666D01*
X91167593Y-48766667D02*
X91167593Y-49100000D01*
X91167593Y-49100000D02*
X90467593Y-49100000D01*
X90467593Y-48633333D02*
X91167593Y-48400000D01*
X91167593Y-48400000D02*
X90467593Y-48166666D01*
X91167593Y-47566666D02*
X91167593Y-47966666D01*
X91167593Y-47766666D02*
X90467593Y-47766666D01*
X90467593Y-47766666D02*
X90567593Y-47833333D01*
X90567593Y-47833333D02*
X90634260Y-47900000D01*
X90634260Y-47900000D02*
X90667593Y-47966666D01*
D13*
X86454819Y-69333333D02*
X87169104Y-69333333D01*
X87169104Y-69333333D02*
X87311961Y-69380952D01*
X87311961Y-69380952D02*
X87407200Y-69476190D01*
X87407200Y-69476190D02*
X87454819Y-69619047D01*
X87454819Y-69619047D02*
X87454819Y-69714285D01*
X86550057Y-68904761D02*
X86502438Y-68857142D01*
X86502438Y-68857142D02*
X86454819Y-68761904D01*
X86454819Y-68761904D02*
X86454819Y-68523809D01*
X86454819Y-68523809D02*
X86502438Y-68428571D01*
X86502438Y-68428571D02*
X86550057Y-68380952D01*
X86550057Y-68380952D02*
X86645295Y-68333333D01*
X86645295Y-68333333D02*
X86740533Y-68333333D01*
X86740533Y-68333333D02*
X86883390Y-68380952D01*
X86883390Y-68380952D02*
X87454819Y-68952380D01*
X87454819Y-68952380D02*
X87454819Y-68333333D01*
D14*
X78027593Y-56383333D02*
X77327593Y-56383333D01*
X77660926Y-56383333D02*
X77660926Y-55983333D01*
X78027593Y-55983333D02*
X77327593Y-55983333D01*
X77327593Y-55750000D02*
X78027593Y-55516667D01*
X78027593Y-55516667D02*
X77327593Y-55283333D01*
X77560926Y-54750000D02*
X78027593Y-54750000D01*
X77294260Y-54916667D02*
X77794260Y-55083333D01*
X77794260Y-55083333D02*
X77794260Y-54650000D01*
X78027593Y-58923333D02*
X77327593Y-58923333D01*
X77660926Y-58923333D02*
X77660926Y-58523333D01*
X78027593Y-58523333D02*
X77327593Y-58523333D01*
X77327593Y-58290000D02*
X78027593Y-58056667D01*
X78027593Y-58056667D02*
X77327593Y-57823333D01*
X77327593Y-57656667D02*
X77327593Y-57223333D01*
X77327593Y-57223333D02*
X77594260Y-57456667D01*
X77594260Y-57456667D02*
X77594260Y-57356667D01*
X77594260Y-57356667D02*
X77627593Y-57290000D01*
X77627593Y-57290000D02*
X77660926Y-57256667D01*
X77660926Y-57256667D02*
X77727593Y-57223333D01*
X77727593Y-57223333D02*
X77894260Y-57223333D01*
X77894260Y-57223333D02*
X77960926Y-57256667D01*
X77960926Y-57256667D02*
X77994260Y-57290000D01*
X77994260Y-57290000D02*
X78027593Y-57356667D01*
X78027593Y-57356667D02*
X78027593Y-57556667D01*
X78027593Y-57556667D02*
X77994260Y-57623333D01*
X77994260Y-57623333D02*
X77960926Y-57656667D01*
X77360926Y-61163332D02*
X77327593Y-61229999D01*
X77327593Y-61229999D02*
X77327593Y-61329999D01*
X77327593Y-61329999D02*
X77360926Y-61429999D01*
X77360926Y-61429999D02*
X77427593Y-61496666D01*
X77427593Y-61496666D02*
X77494260Y-61529999D01*
X77494260Y-61529999D02*
X77627593Y-61563332D01*
X77627593Y-61563332D02*
X77727593Y-61563332D01*
X77727593Y-61563332D02*
X77860926Y-61529999D01*
X77860926Y-61529999D02*
X77927593Y-61496666D01*
X77927593Y-61496666D02*
X77994260Y-61429999D01*
X77994260Y-61429999D02*
X78027593Y-61329999D01*
X78027593Y-61329999D02*
X78027593Y-61263332D01*
X78027593Y-61263332D02*
X77994260Y-61163332D01*
X77994260Y-61163332D02*
X77960926Y-61129999D01*
X77960926Y-61129999D02*
X77727593Y-61129999D01*
X77727593Y-61129999D02*
X77727593Y-61263332D01*
X78027593Y-60829999D02*
X77327593Y-60829999D01*
X77327593Y-60829999D02*
X78027593Y-60429999D01*
X78027593Y-60429999D02*
X77327593Y-60429999D01*
X78027593Y-60096666D02*
X77327593Y-60096666D01*
X77327593Y-60096666D02*
X77327593Y-59929999D01*
X77327593Y-59929999D02*
X77360926Y-59829999D01*
X77360926Y-59829999D02*
X77427593Y-59763333D01*
X77427593Y-59763333D02*
X77494260Y-59729999D01*
X77494260Y-59729999D02*
X77627593Y-59696666D01*
X77627593Y-59696666D02*
X77727593Y-59696666D01*
X77727593Y-59696666D02*
X77860926Y-59729999D01*
X77860926Y-59729999D02*
X77927593Y-59763333D01*
X77927593Y-59763333D02*
X77994260Y-59829999D01*
X77994260Y-59829999D02*
X78027593Y-59929999D01*
X78027593Y-59929999D02*
X78027593Y-60096666D01*
X78027593Y-63669999D02*
X77327593Y-63669999D01*
X77660926Y-63669999D02*
X77660926Y-63269999D01*
X78027593Y-63269999D02*
X77327593Y-63269999D01*
X77327593Y-63036666D02*
X78027593Y-62803333D01*
X78027593Y-62803333D02*
X77327593Y-62569999D01*
X78027593Y-66543333D02*
X77327593Y-66543333D01*
X77660926Y-66543333D02*
X77660926Y-66143333D01*
X78027593Y-66143333D02*
X77327593Y-66143333D01*
X77327593Y-65910000D02*
X78027593Y-65676667D01*
X78027593Y-65676667D02*
X77327593Y-65443333D01*
X77394260Y-65243333D02*
X77360926Y-65210000D01*
X77360926Y-65210000D02*
X77327593Y-65143333D01*
X77327593Y-65143333D02*
X77327593Y-64976667D01*
X77327593Y-64976667D02*
X77360926Y-64910000D01*
X77360926Y-64910000D02*
X77394260Y-64876667D01*
X77394260Y-64876667D02*
X77460926Y-64843333D01*
X77460926Y-64843333D02*
X77527593Y-64843333D01*
X77527593Y-64843333D02*
X77627593Y-64876667D01*
X77627593Y-64876667D02*
X78027593Y-65276667D01*
X78027593Y-65276667D02*
X78027593Y-64843333D01*
X78027593Y-69083333D02*
X77327593Y-69083333D01*
X77660926Y-69083333D02*
X77660926Y-68683333D01*
X78027593Y-68683333D02*
X77327593Y-68683333D01*
X77327593Y-68450000D02*
X78027593Y-68216667D01*
X78027593Y-68216667D02*
X77327593Y-67983333D01*
X78027593Y-67383333D02*
X78027593Y-67783333D01*
X78027593Y-67583333D02*
X77327593Y-67583333D01*
X77327593Y-67583333D02*
X77427593Y-67650000D01*
X77427593Y-67650000D02*
X77494260Y-67716667D01*
X77494260Y-67716667D02*
X77527593Y-67783333D01*
X91227593Y-55966667D02*
X91227593Y-56300000D01*
X91227593Y-56300000D02*
X90527593Y-56300000D01*
X90527593Y-55833333D02*
X91227593Y-55600000D01*
X91227593Y-55600000D02*
X90527593Y-55366666D01*
X90760926Y-54833333D02*
X91227593Y-54833333D01*
X90494260Y-55000000D02*
X90994260Y-55166666D01*
X90994260Y-55166666D02*
X90994260Y-54733333D01*
X91227593Y-58506667D02*
X91227593Y-58840000D01*
X91227593Y-58840000D02*
X90527593Y-58840000D01*
X90527593Y-58373333D02*
X91227593Y-58140000D01*
X91227593Y-58140000D02*
X90527593Y-57906666D01*
X90527593Y-57740000D02*
X90527593Y-57306666D01*
X90527593Y-57306666D02*
X90794260Y-57540000D01*
X90794260Y-57540000D02*
X90794260Y-57440000D01*
X90794260Y-57440000D02*
X90827593Y-57373333D01*
X90827593Y-57373333D02*
X90860926Y-57340000D01*
X90860926Y-57340000D02*
X90927593Y-57306666D01*
X90927593Y-57306666D02*
X91094260Y-57306666D01*
X91094260Y-57306666D02*
X91160926Y-57340000D01*
X91160926Y-57340000D02*
X91194260Y-57373333D01*
X91194260Y-57373333D02*
X91227593Y-57440000D01*
X91227593Y-57440000D02*
X91227593Y-57640000D01*
X91227593Y-57640000D02*
X91194260Y-57706666D01*
X91194260Y-57706666D02*
X91160926Y-57740000D01*
X90560926Y-61163332D02*
X90527593Y-61229999D01*
X90527593Y-61229999D02*
X90527593Y-61329999D01*
X90527593Y-61329999D02*
X90560926Y-61429999D01*
X90560926Y-61429999D02*
X90627593Y-61496666D01*
X90627593Y-61496666D02*
X90694260Y-61529999D01*
X90694260Y-61529999D02*
X90827593Y-61563332D01*
X90827593Y-61563332D02*
X90927593Y-61563332D01*
X90927593Y-61563332D02*
X91060926Y-61529999D01*
X91060926Y-61529999D02*
X91127593Y-61496666D01*
X91127593Y-61496666D02*
X91194260Y-61429999D01*
X91194260Y-61429999D02*
X91227593Y-61329999D01*
X91227593Y-61329999D02*
X91227593Y-61263332D01*
X91227593Y-61263332D02*
X91194260Y-61163332D01*
X91194260Y-61163332D02*
X91160926Y-61129999D01*
X91160926Y-61129999D02*
X90927593Y-61129999D01*
X90927593Y-61129999D02*
X90927593Y-61263332D01*
X91227593Y-60829999D02*
X90527593Y-60829999D01*
X90527593Y-60829999D02*
X91227593Y-60429999D01*
X91227593Y-60429999D02*
X90527593Y-60429999D01*
X91227593Y-60096666D02*
X90527593Y-60096666D01*
X90527593Y-60096666D02*
X90527593Y-59929999D01*
X90527593Y-59929999D02*
X90560926Y-59829999D01*
X90560926Y-59829999D02*
X90627593Y-59763333D01*
X90627593Y-59763333D02*
X90694260Y-59729999D01*
X90694260Y-59729999D02*
X90827593Y-59696666D01*
X90827593Y-59696666D02*
X90927593Y-59696666D01*
X90927593Y-59696666D02*
X91060926Y-59729999D01*
X91060926Y-59729999D02*
X91127593Y-59763333D01*
X91127593Y-59763333D02*
X91194260Y-59829999D01*
X91194260Y-59829999D02*
X91227593Y-59929999D01*
X91227593Y-59929999D02*
X91227593Y-60096666D01*
X91227593Y-63253333D02*
X91227593Y-63586666D01*
X91227593Y-63586666D02*
X90527593Y-63586666D01*
X90527593Y-63119999D02*
X91227593Y-62886666D01*
X91227593Y-62886666D02*
X90527593Y-62653332D01*
X91227593Y-66126667D02*
X91227593Y-66460000D01*
X91227593Y-66460000D02*
X90527593Y-66460000D01*
X90527593Y-65993333D02*
X91227593Y-65760000D01*
X91227593Y-65760000D02*
X90527593Y-65526666D01*
X90594260Y-65326666D02*
X90560926Y-65293333D01*
X90560926Y-65293333D02*
X90527593Y-65226666D01*
X90527593Y-65226666D02*
X90527593Y-65060000D01*
X90527593Y-65060000D02*
X90560926Y-64993333D01*
X90560926Y-64993333D02*
X90594260Y-64960000D01*
X90594260Y-64960000D02*
X90660926Y-64926666D01*
X90660926Y-64926666D02*
X90727593Y-64926666D01*
X90727593Y-64926666D02*
X90827593Y-64960000D01*
X90827593Y-64960000D02*
X91227593Y-65360000D01*
X91227593Y-65360000D02*
X91227593Y-64926666D01*
X91227593Y-68666667D02*
X91227593Y-69000000D01*
X91227593Y-69000000D02*
X90527593Y-69000000D01*
X90527593Y-68533333D02*
X91227593Y-68300000D01*
X91227593Y-68300000D02*
X90527593Y-68066666D01*
X91227593Y-67466666D02*
X91227593Y-67866666D01*
X91227593Y-67666666D02*
X90527593Y-67666666D01*
X90527593Y-67666666D02*
X90627593Y-67733333D01*
X90627593Y-67733333D02*
X90694260Y-67800000D01*
X90694260Y-67800000D02*
X90727593Y-67866666D01*
D10*
X59707419Y-114333333D02*
X60421704Y-114333333D01*
X60421704Y-114333333D02*
X60564561Y-114380952D01*
X60564561Y-114380952D02*
X60659800Y-114476190D01*
X60659800Y-114476190D02*
X60707419Y-114619047D01*
X60707419Y-114619047D02*
X60707419Y-114714285D01*
X60707419Y-113809523D02*
X60707419Y-113619047D01*
X60707419Y-113619047D02*
X60659800Y-113523809D01*
X60659800Y-113523809D02*
X60612180Y-113476190D01*
X60612180Y-113476190D02*
X60469323Y-113380952D01*
X60469323Y-113380952D02*
X60278847Y-113333333D01*
X60278847Y-113333333D02*
X59897895Y-113333333D01*
X59897895Y-113333333D02*
X59802657Y-113380952D01*
X59802657Y-113380952D02*
X59755038Y-113428571D01*
X59755038Y-113428571D02*
X59707419Y-113523809D01*
X59707419Y-113523809D02*
X59707419Y-113714285D01*
X59707419Y-113714285D02*
X59755038Y-113809523D01*
X59755038Y-113809523D02*
X59802657Y-113857142D01*
X59802657Y-113857142D02*
X59897895Y-113904761D01*
X59897895Y-113904761D02*
X60135990Y-113904761D01*
X60135990Y-113904761D02*
X60231228Y-113857142D01*
X60231228Y-113857142D02*
X60278847Y-113809523D01*
X60278847Y-113809523D02*
X60326466Y-113714285D01*
X60326466Y-113714285D02*
X60326466Y-113523809D01*
X60326466Y-113523809D02*
X60278847Y-113428571D01*
X60278847Y-113428571D02*
X60231228Y-113380952D01*
X60231228Y-113380952D02*
X60135990Y-113333333D01*
D13*
X87940476Y-123454819D02*
X87940476Y-124169104D01*
X87940476Y-124169104D02*
X87892857Y-124311961D01*
X87892857Y-124311961D02*
X87797619Y-124407200D01*
X87797619Y-124407200D02*
X87654762Y-124454819D01*
X87654762Y-124454819D02*
X87559524Y-124454819D01*
X88940476Y-124454819D02*
X88369048Y-124454819D01*
X88654762Y-124454819D02*
X88654762Y-123454819D01*
X88654762Y-123454819D02*
X88559524Y-123597676D01*
X88559524Y-123597676D02*
X88464286Y-123692914D01*
X88464286Y-123692914D02*
X88369048Y-123740533D01*
X89273810Y-123454819D02*
X89892857Y-123454819D01*
X89892857Y-123454819D02*
X89559524Y-123835771D01*
X89559524Y-123835771D02*
X89702381Y-123835771D01*
X89702381Y-123835771D02*
X89797619Y-123883390D01*
X89797619Y-123883390D02*
X89845238Y-123931009D01*
X89845238Y-123931009D02*
X89892857Y-124026247D01*
X89892857Y-124026247D02*
X89892857Y-124264342D01*
X89892857Y-124264342D02*
X89845238Y-124359580D01*
X89845238Y-124359580D02*
X89797619Y-124407200D01*
X89797619Y-124407200D02*
X89702381Y-124454819D01*
X89702381Y-124454819D02*
X89416667Y-124454819D01*
X89416667Y-124454819D02*
X89321429Y-124407200D01*
X89321429Y-124407200D02*
X89273810Y-124359580D01*
D14*
X82633571Y-116542760D02*
X83090714Y-116542760D01*
X82862142Y-116771331D02*
X82862142Y-116314188D01*
X83662142Y-116171331D02*
X83376428Y-116171331D01*
X83376428Y-116171331D02*
X83347856Y-116457045D01*
X83347856Y-116457045D02*
X83376428Y-116428474D01*
X83376428Y-116428474D02*
X83433571Y-116399902D01*
X83433571Y-116399902D02*
X83576428Y-116399902D01*
X83576428Y-116399902D02*
X83633571Y-116428474D01*
X83633571Y-116428474D02*
X83662142Y-116457045D01*
X83662142Y-116457045D02*
X83690713Y-116514188D01*
X83690713Y-116514188D02*
X83690713Y-116657045D01*
X83690713Y-116657045D02*
X83662142Y-116714188D01*
X83662142Y-116714188D02*
X83633571Y-116742760D01*
X83633571Y-116742760D02*
X83576428Y-116771331D01*
X83576428Y-116771331D02*
X83433571Y-116771331D01*
X83433571Y-116771331D02*
X83376428Y-116742760D01*
X83376428Y-116742760D02*
X83347856Y-116714188D01*
X83862142Y-116171331D02*
X84062142Y-116771331D01*
X84062142Y-116771331D02*
X84262142Y-116171331D01*
X83538333Y-121350926D02*
X83538333Y-121817593D01*
X83371667Y-121084260D02*
X83205000Y-121584260D01*
X83205000Y-121584260D02*
X83638333Y-121584260D01*
X86757857Y-116199902D02*
X86700715Y-116171331D01*
X86700715Y-116171331D02*
X86615000Y-116171331D01*
X86615000Y-116171331D02*
X86529286Y-116199902D01*
X86529286Y-116199902D02*
X86472143Y-116257045D01*
X86472143Y-116257045D02*
X86443572Y-116314188D01*
X86443572Y-116314188D02*
X86415000Y-116428474D01*
X86415000Y-116428474D02*
X86415000Y-116514188D01*
X86415000Y-116514188D02*
X86443572Y-116628474D01*
X86443572Y-116628474D02*
X86472143Y-116685617D01*
X86472143Y-116685617D02*
X86529286Y-116742760D01*
X86529286Y-116742760D02*
X86615000Y-116771331D01*
X86615000Y-116771331D02*
X86672143Y-116771331D01*
X86672143Y-116771331D02*
X86757857Y-116742760D01*
X86757857Y-116742760D02*
X86786429Y-116714188D01*
X86786429Y-116714188D02*
X86786429Y-116514188D01*
X86786429Y-116514188D02*
X86672143Y-116514188D01*
X87043572Y-116771331D02*
X87043572Y-116171331D01*
X87043572Y-116171331D02*
X87386429Y-116771331D01*
X87386429Y-116771331D02*
X87386429Y-116171331D01*
X87672143Y-116771331D02*
X87672143Y-116171331D01*
X87672143Y-116171331D02*
X87815000Y-116171331D01*
X87815000Y-116171331D02*
X87900714Y-116199902D01*
X87900714Y-116199902D02*
X87957857Y-116257045D01*
X87957857Y-116257045D02*
X87986428Y-116314188D01*
X87986428Y-116314188D02*
X88015000Y-116428474D01*
X88015000Y-116428474D02*
X88015000Y-116514188D01*
X88015000Y-116514188D02*
X87986428Y-116628474D01*
X87986428Y-116628474D02*
X87957857Y-116685617D01*
X87957857Y-116685617D02*
X87900714Y-116742760D01*
X87900714Y-116742760D02*
X87815000Y-116771331D01*
X87815000Y-116771331D02*
X87672143Y-116771331D01*
X86981667Y-121117593D02*
X87415000Y-121117593D01*
X87415000Y-121117593D02*
X87181667Y-121384260D01*
X87181667Y-121384260D02*
X87281667Y-121384260D01*
X87281667Y-121384260D02*
X87348333Y-121417593D01*
X87348333Y-121417593D02*
X87381667Y-121450926D01*
X87381667Y-121450926D02*
X87415000Y-121517593D01*
X87415000Y-121517593D02*
X87415000Y-121684260D01*
X87415000Y-121684260D02*
X87381667Y-121750926D01*
X87381667Y-121750926D02*
X87348333Y-121784260D01*
X87348333Y-121784260D02*
X87281667Y-121817593D01*
X87281667Y-121817593D02*
X87081667Y-121817593D01*
X87081667Y-121817593D02*
X87015000Y-121784260D01*
X87015000Y-121784260D02*
X86981667Y-121750926D01*
X89967857Y-116542760D02*
X90425000Y-116542760D01*
X90196428Y-116771331D02*
X90196428Y-116314188D01*
X91024999Y-116771331D02*
X90682142Y-116771331D01*
X90853571Y-116771331D02*
X90853571Y-116171331D01*
X90853571Y-116171331D02*
X90796428Y-116257045D01*
X90796428Y-116257045D02*
X90739285Y-116314188D01*
X90739285Y-116314188D02*
X90682142Y-116342760D01*
X91253571Y-116228474D02*
X91282143Y-116199902D01*
X91282143Y-116199902D02*
X91339286Y-116171331D01*
X91339286Y-116171331D02*
X91482143Y-116171331D01*
X91482143Y-116171331D02*
X91539286Y-116199902D01*
X91539286Y-116199902D02*
X91567857Y-116228474D01*
X91567857Y-116228474D02*
X91596428Y-116285617D01*
X91596428Y-116285617D02*
X91596428Y-116342760D01*
X91596428Y-116342760D02*
X91567857Y-116428474D01*
X91567857Y-116428474D02*
X91225000Y-116771331D01*
X91225000Y-116771331D02*
X91596428Y-116771331D01*
X91767857Y-116171331D02*
X91967857Y-116771331D01*
X91967857Y-116771331D02*
X92167857Y-116171331D01*
X90825000Y-121184260D02*
X90858333Y-121150926D01*
X90858333Y-121150926D02*
X90925000Y-121117593D01*
X90925000Y-121117593D02*
X91091667Y-121117593D01*
X91091667Y-121117593D02*
X91158333Y-121150926D01*
X91158333Y-121150926D02*
X91191667Y-121184260D01*
X91191667Y-121184260D02*
X91225000Y-121250926D01*
X91225000Y-121250926D02*
X91225000Y-121317593D01*
X91225000Y-121317593D02*
X91191667Y-121417593D01*
X91191667Y-121417593D02*
X90791667Y-121817593D01*
X90791667Y-121817593D02*
X91225000Y-121817593D01*
X94063571Y-116542760D02*
X94520714Y-116542760D01*
X95092142Y-116171331D02*
X94806428Y-116171331D01*
X94806428Y-116171331D02*
X94777856Y-116457045D01*
X94777856Y-116457045D02*
X94806428Y-116428474D01*
X94806428Y-116428474D02*
X94863571Y-116399902D01*
X94863571Y-116399902D02*
X95006428Y-116399902D01*
X95006428Y-116399902D02*
X95063571Y-116428474D01*
X95063571Y-116428474D02*
X95092142Y-116457045D01*
X95092142Y-116457045D02*
X95120713Y-116514188D01*
X95120713Y-116514188D02*
X95120713Y-116657045D01*
X95120713Y-116657045D02*
X95092142Y-116714188D01*
X95092142Y-116714188D02*
X95063571Y-116742760D01*
X95063571Y-116742760D02*
X95006428Y-116771331D01*
X95006428Y-116771331D02*
X94863571Y-116771331D01*
X94863571Y-116771331D02*
X94806428Y-116742760D01*
X94806428Y-116742760D02*
X94777856Y-116714188D01*
X95292142Y-116171331D02*
X95492142Y-116771331D01*
X95492142Y-116771331D02*
X95692142Y-116171331D01*
X95035000Y-121817593D02*
X94635000Y-121817593D01*
X94835000Y-121817593D02*
X94835000Y-121117593D01*
X94835000Y-121117593D02*
X94768333Y-121217593D01*
X94768333Y-121217593D02*
X94701667Y-121284260D01*
X94701667Y-121284260D02*
X94635000Y-121317593D01*
D13*
X86454819Y-107583333D02*
X87169104Y-107583333D01*
X87169104Y-107583333D02*
X87311961Y-107630952D01*
X87311961Y-107630952D02*
X87407200Y-107726190D01*
X87407200Y-107726190D02*
X87454819Y-107869047D01*
X87454819Y-107869047D02*
X87454819Y-107964285D01*
X86788152Y-106678571D02*
X87454819Y-106678571D01*
X86407200Y-106916666D02*
X87121485Y-107154761D01*
X87121485Y-107154761D02*
X87121485Y-106535714D01*
D14*
X78027593Y-95133333D02*
X77327593Y-95133333D01*
X77660926Y-95133333D02*
X77660926Y-94733333D01*
X78027593Y-94733333D02*
X77327593Y-94733333D01*
X77327593Y-94500000D02*
X78027593Y-94266667D01*
X78027593Y-94266667D02*
X77327593Y-94033333D01*
X77560926Y-93500000D02*
X78027593Y-93500000D01*
X77294260Y-93666667D02*
X77794260Y-93833333D01*
X77794260Y-93833333D02*
X77794260Y-93400000D01*
X78027593Y-97673333D02*
X77327593Y-97673333D01*
X77660926Y-97673333D02*
X77660926Y-97273333D01*
X78027593Y-97273333D02*
X77327593Y-97273333D01*
X77327593Y-97040000D02*
X78027593Y-96806667D01*
X78027593Y-96806667D02*
X77327593Y-96573333D01*
X77327593Y-96406667D02*
X77327593Y-95973333D01*
X77327593Y-95973333D02*
X77594260Y-96206667D01*
X77594260Y-96206667D02*
X77594260Y-96106667D01*
X77594260Y-96106667D02*
X77627593Y-96040000D01*
X77627593Y-96040000D02*
X77660926Y-96006667D01*
X77660926Y-96006667D02*
X77727593Y-95973333D01*
X77727593Y-95973333D02*
X77894260Y-95973333D01*
X77894260Y-95973333D02*
X77960926Y-96006667D01*
X77960926Y-96006667D02*
X77994260Y-96040000D01*
X77994260Y-96040000D02*
X78027593Y-96106667D01*
X78027593Y-96106667D02*
X78027593Y-96306667D01*
X78027593Y-96306667D02*
X77994260Y-96373333D01*
X77994260Y-96373333D02*
X77960926Y-96406667D01*
X77360926Y-99913332D02*
X77327593Y-99979999D01*
X77327593Y-99979999D02*
X77327593Y-100079999D01*
X77327593Y-100079999D02*
X77360926Y-100179999D01*
X77360926Y-100179999D02*
X77427593Y-100246666D01*
X77427593Y-100246666D02*
X77494260Y-100279999D01*
X77494260Y-100279999D02*
X77627593Y-100313332D01*
X77627593Y-100313332D02*
X77727593Y-100313332D01*
X77727593Y-100313332D02*
X77860926Y-100279999D01*
X77860926Y-100279999D02*
X77927593Y-100246666D01*
X77927593Y-100246666D02*
X77994260Y-100179999D01*
X77994260Y-100179999D02*
X78027593Y-100079999D01*
X78027593Y-100079999D02*
X78027593Y-100013332D01*
X78027593Y-100013332D02*
X77994260Y-99913332D01*
X77994260Y-99913332D02*
X77960926Y-99879999D01*
X77960926Y-99879999D02*
X77727593Y-99879999D01*
X77727593Y-99879999D02*
X77727593Y-100013332D01*
X78027593Y-99579999D02*
X77327593Y-99579999D01*
X77327593Y-99579999D02*
X78027593Y-99179999D01*
X78027593Y-99179999D02*
X77327593Y-99179999D01*
X78027593Y-98846666D02*
X77327593Y-98846666D01*
X77327593Y-98846666D02*
X77327593Y-98679999D01*
X77327593Y-98679999D02*
X77360926Y-98579999D01*
X77360926Y-98579999D02*
X77427593Y-98513333D01*
X77427593Y-98513333D02*
X77494260Y-98479999D01*
X77494260Y-98479999D02*
X77627593Y-98446666D01*
X77627593Y-98446666D02*
X77727593Y-98446666D01*
X77727593Y-98446666D02*
X77860926Y-98479999D01*
X77860926Y-98479999D02*
X77927593Y-98513333D01*
X77927593Y-98513333D02*
X77994260Y-98579999D01*
X77994260Y-98579999D02*
X78027593Y-98679999D01*
X78027593Y-98679999D02*
X78027593Y-98846666D01*
X78027593Y-102419999D02*
X77327593Y-102419999D01*
X77660926Y-102419999D02*
X77660926Y-102019999D01*
X78027593Y-102019999D02*
X77327593Y-102019999D01*
X77327593Y-101786666D02*
X78027593Y-101553333D01*
X78027593Y-101553333D02*
X77327593Y-101319999D01*
X78027593Y-105293333D02*
X77327593Y-105293333D01*
X77660926Y-105293333D02*
X77660926Y-104893333D01*
X78027593Y-104893333D02*
X77327593Y-104893333D01*
X77327593Y-104660000D02*
X78027593Y-104426667D01*
X78027593Y-104426667D02*
X77327593Y-104193333D01*
X77394260Y-103993333D02*
X77360926Y-103960000D01*
X77360926Y-103960000D02*
X77327593Y-103893333D01*
X77327593Y-103893333D02*
X77327593Y-103726667D01*
X77327593Y-103726667D02*
X77360926Y-103660000D01*
X77360926Y-103660000D02*
X77394260Y-103626667D01*
X77394260Y-103626667D02*
X77460926Y-103593333D01*
X77460926Y-103593333D02*
X77527593Y-103593333D01*
X77527593Y-103593333D02*
X77627593Y-103626667D01*
X77627593Y-103626667D02*
X78027593Y-104026667D01*
X78027593Y-104026667D02*
X78027593Y-103593333D01*
X78027593Y-107833333D02*
X77327593Y-107833333D01*
X77660926Y-107833333D02*
X77660926Y-107433333D01*
X78027593Y-107433333D02*
X77327593Y-107433333D01*
X77327593Y-107200000D02*
X78027593Y-106966667D01*
X78027593Y-106966667D02*
X77327593Y-106733333D01*
X78027593Y-106133333D02*
X78027593Y-106533333D01*
X78027593Y-106333333D02*
X77327593Y-106333333D01*
X77327593Y-106333333D02*
X77427593Y-106400000D01*
X77427593Y-106400000D02*
X77494260Y-106466667D01*
X77494260Y-106466667D02*
X77527593Y-106533333D01*
X91227593Y-94716667D02*
X91227593Y-95050000D01*
X91227593Y-95050000D02*
X90527593Y-95050000D01*
X90527593Y-94583333D02*
X91227593Y-94350000D01*
X91227593Y-94350000D02*
X90527593Y-94116666D01*
X90760926Y-93583333D02*
X91227593Y-93583333D01*
X90494260Y-93750000D02*
X90994260Y-93916666D01*
X90994260Y-93916666D02*
X90994260Y-93483333D01*
X91227593Y-97256667D02*
X91227593Y-97590000D01*
X91227593Y-97590000D02*
X90527593Y-97590000D01*
X90527593Y-97123333D02*
X91227593Y-96890000D01*
X91227593Y-96890000D02*
X90527593Y-96656666D01*
X90527593Y-96490000D02*
X90527593Y-96056666D01*
X90527593Y-96056666D02*
X90794260Y-96290000D01*
X90794260Y-96290000D02*
X90794260Y-96190000D01*
X90794260Y-96190000D02*
X90827593Y-96123333D01*
X90827593Y-96123333D02*
X90860926Y-96090000D01*
X90860926Y-96090000D02*
X90927593Y-96056666D01*
X90927593Y-96056666D02*
X91094260Y-96056666D01*
X91094260Y-96056666D02*
X91160926Y-96090000D01*
X91160926Y-96090000D02*
X91194260Y-96123333D01*
X91194260Y-96123333D02*
X91227593Y-96190000D01*
X91227593Y-96190000D02*
X91227593Y-96390000D01*
X91227593Y-96390000D02*
X91194260Y-96456666D01*
X91194260Y-96456666D02*
X91160926Y-96490000D01*
X90560926Y-99913332D02*
X90527593Y-99979999D01*
X90527593Y-99979999D02*
X90527593Y-100079999D01*
X90527593Y-100079999D02*
X90560926Y-100179999D01*
X90560926Y-100179999D02*
X90627593Y-100246666D01*
X90627593Y-100246666D02*
X90694260Y-100279999D01*
X90694260Y-100279999D02*
X90827593Y-100313332D01*
X90827593Y-100313332D02*
X90927593Y-100313332D01*
X90927593Y-100313332D02*
X91060926Y-100279999D01*
X91060926Y-100279999D02*
X91127593Y-100246666D01*
X91127593Y-100246666D02*
X91194260Y-100179999D01*
X91194260Y-100179999D02*
X91227593Y-100079999D01*
X91227593Y-100079999D02*
X91227593Y-100013332D01*
X91227593Y-100013332D02*
X91194260Y-99913332D01*
X91194260Y-99913332D02*
X91160926Y-99879999D01*
X91160926Y-99879999D02*
X90927593Y-99879999D01*
X90927593Y-99879999D02*
X90927593Y-100013332D01*
X91227593Y-99579999D02*
X90527593Y-99579999D01*
X90527593Y-99579999D02*
X91227593Y-99179999D01*
X91227593Y-99179999D02*
X90527593Y-99179999D01*
X91227593Y-98846666D02*
X90527593Y-98846666D01*
X90527593Y-98846666D02*
X90527593Y-98679999D01*
X90527593Y-98679999D02*
X90560926Y-98579999D01*
X90560926Y-98579999D02*
X90627593Y-98513333D01*
X90627593Y-98513333D02*
X90694260Y-98479999D01*
X90694260Y-98479999D02*
X90827593Y-98446666D01*
X90827593Y-98446666D02*
X90927593Y-98446666D01*
X90927593Y-98446666D02*
X91060926Y-98479999D01*
X91060926Y-98479999D02*
X91127593Y-98513333D01*
X91127593Y-98513333D02*
X91194260Y-98579999D01*
X91194260Y-98579999D02*
X91227593Y-98679999D01*
X91227593Y-98679999D02*
X91227593Y-98846666D01*
X91227593Y-102003333D02*
X91227593Y-102336666D01*
X91227593Y-102336666D02*
X90527593Y-102336666D01*
X90527593Y-101869999D02*
X91227593Y-101636666D01*
X91227593Y-101636666D02*
X90527593Y-101403332D01*
X91227593Y-104876667D02*
X91227593Y-105210000D01*
X91227593Y-105210000D02*
X90527593Y-105210000D01*
X90527593Y-104743333D02*
X91227593Y-104510000D01*
X91227593Y-104510000D02*
X90527593Y-104276666D01*
X90594260Y-104076666D02*
X90560926Y-104043333D01*
X90560926Y-104043333D02*
X90527593Y-103976666D01*
X90527593Y-103976666D02*
X90527593Y-103810000D01*
X90527593Y-103810000D02*
X90560926Y-103743333D01*
X90560926Y-103743333D02*
X90594260Y-103710000D01*
X90594260Y-103710000D02*
X90660926Y-103676666D01*
X90660926Y-103676666D02*
X90727593Y-103676666D01*
X90727593Y-103676666D02*
X90827593Y-103710000D01*
X90827593Y-103710000D02*
X91227593Y-104110000D01*
X91227593Y-104110000D02*
X91227593Y-103676666D01*
X91227593Y-107416667D02*
X91227593Y-107750000D01*
X91227593Y-107750000D02*
X90527593Y-107750000D01*
X90527593Y-107283333D02*
X91227593Y-107050000D01*
X91227593Y-107050000D02*
X90527593Y-106816666D01*
X91227593Y-106216666D02*
X91227593Y-106616666D01*
X91227593Y-106416666D02*
X90527593Y-106416666D01*
X90527593Y-106416666D02*
X90627593Y-106483333D01*
X90627593Y-106483333D02*
X90694260Y-106550000D01*
X90694260Y-106550000D02*
X90727593Y-106616666D01*
D10*
X59940476Y-51337419D02*
X59940476Y-52051704D01*
X59940476Y-52051704D02*
X59892857Y-52194561D01*
X59892857Y-52194561D02*
X59797619Y-52289800D01*
X59797619Y-52289800D02*
X59654762Y-52337419D01*
X59654762Y-52337419D02*
X59559524Y-52337419D01*
X60369048Y-51432657D02*
X60416667Y-51385038D01*
X60416667Y-51385038D02*
X60511905Y-51337419D01*
X60511905Y-51337419D02*
X60750000Y-51337419D01*
X60750000Y-51337419D02*
X60845238Y-51385038D01*
X60845238Y-51385038D02*
X60892857Y-51432657D01*
X60892857Y-51432657D02*
X60940476Y-51527895D01*
X60940476Y-51527895D02*
X60940476Y-51623133D01*
X60940476Y-51623133D02*
X60892857Y-51765990D01*
X60892857Y-51765990D02*
X60321429Y-52337419D01*
X60321429Y-52337419D02*
X60940476Y-52337419D01*
X61559524Y-51337419D02*
X61654762Y-51337419D01*
X61654762Y-51337419D02*
X61750000Y-51385038D01*
X61750000Y-51385038D02*
X61797619Y-51432657D01*
X61797619Y-51432657D02*
X61845238Y-51527895D01*
X61845238Y-51527895D02*
X61892857Y-51718371D01*
X61892857Y-51718371D02*
X61892857Y-51956466D01*
X61892857Y-51956466D02*
X61845238Y-52146942D01*
X61845238Y-52146942D02*
X61797619Y-52242180D01*
X61797619Y-52242180D02*
X61750000Y-52289800D01*
X61750000Y-52289800D02*
X61654762Y-52337419D01*
X61654762Y-52337419D02*
X61559524Y-52337419D01*
X61559524Y-52337419D02*
X61464286Y-52289800D01*
X61464286Y-52289800D02*
X61416667Y-52242180D01*
X61416667Y-52242180D02*
X61369048Y-52146942D01*
X61369048Y-52146942D02*
X61321429Y-51956466D01*
X61321429Y-51956466D02*
X61321429Y-51718371D01*
X61321429Y-51718371D02*
X61369048Y-51527895D01*
X61369048Y-51527895D02*
X61416667Y-51432657D01*
X61416667Y-51432657D02*
X61464286Y-51385038D01*
X61464286Y-51385038D02*
X61559524Y-51337419D01*
%TO.C,J10*%
D14*
X66620000Y-52880000D02*
X68000000Y-52880000D01*
X66620000Y-54260000D02*
X66620000Y-52880000D01*
X66620000Y-55530000D02*
X66620000Y-91200000D01*
X66620000Y-55530000D02*
X69380000Y-55530000D01*
X66620000Y-91200000D02*
X69380000Y-91200000D01*
X69380000Y-55530000D02*
X69380000Y-91200000D01*
%TO.C,J14*%
X63160000Y-113990000D02*
X78460000Y-113990000D01*
X63160000Y-124960000D02*
X63160000Y-113990000D01*
X73480000Y-124560000D02*
X73480000Y-124960000D01*
X73480000Y-124960000D02*
X63160000Y-124960000D01*
X76180000Y-124560000D02*
X73480000Y-124560000D01*
X76180000Y-124960000D02*
X76180000Y-124560000D01*
X78460000Y-113990000D02*
X78460000Y-114990000D01*
X78460000Y-114990000D02*
X63160000Y-114990000D01*
X78460000Y-114990000D02*
X78460000Y-124960000D01*
X78460000Y-124960000D02*
X76180000Y-124960000D01*
X78750000Y-121250000D02*
X78750000Y-117250000D01*
%TO.C,J15*%
X59370000Y-95120000D02*
X60750000Y-95120000D01*
X59370000Y-96500000D02*
X59370000Y-95120000D01*
X59370000Y-97770000D02*
X59370000Y-97880000D01*
X59370000Y-97770000D02*
X62130000Y-97770000D01*
X59370000Y-97880000D02*
X62130000Y-97880000D01*
X62130000Y-97770000D02*
X62130000Y-97880000D01*
%TO.C,U1*%
X98000000Y-40250000D02*
X126000000Y-40250000D01*
X98000000Y-100250000D02*
X98000000Y-42580000D01*
X107500000Y-100450000D02*
X107500000Y-101950000D01*
X107500000Y-101950000D02*
X116500000Y-101950000D01*
X116500000Y-101950000D02*
X116500000Y-100450000D01*
X126000000Y-40250000D02*
X126000000Y-100250000D01*
X126000000Y-100250000D02*
X99000000Y-100250000D01*
%TO.C,J3*%
X76310000Y-73000000D02*
X92310000Y-73000000D01*
X76310000Y-90000000D02*
X76310000Y-73000000D01*
X92310000Y-73000000D02*
X92310000Y-90000000D01*
X92310000Y-90000000D02*
X76310000Y-90000000D01*
%TO.C,J1*%
X76250000Y-33500000D02*
X92250000Y-33500000D01*
X76250000Y-50500000D02*
X76250000Y-33500000D01*
X92250000Y-33500000D02*
X92250000Y-50500000D01*
X92250000Y-50500000D02*
X76250000Y-50500000D01*
%TO.C,J2*%
X76310000Y-53400000D02*
X92310000Y-53400000D01*
X76310000Y-70400000D02*
X76310000Y-53400000D01*
X92310000Y-53400000D02*
X92310000Y-70400000D01*
X92310000Y-70400000D02*
X76310000Y-70400000D01*
%TO.C,J9*%
X58870000Y-117980000D02*
X58870000Y-115330000D01*
X61630000Y-115330000D02*
X58870000Y-115330000D01*
X61630000Y-117980000D02*
X58870000Y-117980000D01*
X61630000Y-117980000D02*
X61630000Y-115330000D01*
X61630000Y-119250000D02*
X61630000Y-120630000D01*
X61630000Y-120630000D02*
X60250000Y-120630000D01*
%TO.C,J13*%
X81405000Y-115500000D02*
X96835000Y-115500000D01*
X81405000Y-122500000D02*
X81405000Y-115500000D01*
X96835000Y-115500000D02*
X96835000Y-122500000D01*
X96835000Y-122500000D02*
X81405000Y-122500000D01*
%TO.C,J4*%
X76310000Y-92150000D02*
X92310000Y-92150000D01*
X76310000Y-109150000D02*
X76310000Y-92150000D01*
X92310000Y-92150000D02*
X92310000Y-109150000D01*
X92310000Y-109150000D02*
X76310000Y-109150000D01*
%TO.C,J20*%
X59370000Y-52880000D02*
X60750000Y-52880000D01*
X59370000Y-54260000D02*
X59370000Y-52880000D01*
X59370000Y-55530000D02*
X59370000Y-91200000D01*
X59370000Y-55530000D02*
X62130000Y-55530000D01*
X59370000Y-91200000D02*
X62130000Y-91200000D01*
X62130000Y-55530000D02*
X62130000Y-91200000D01*
%TD*%
M02*
