%TF.GenerationSoftware,KiCad,Pcbnew,10.0.0*%
%TF.CreationDate,2026-08-07T22:23:52-05:00*%
%TF.ProjectId,ti99-kb-adapter,74693939-2d6b-4622-9d61-646170746572,rev?*%
%TF.SameCoordinates,Original*%
%TF.FileFunction,Soldermask,Top*%
%TF.FilePolarity,Negative*%
%FSLAX46Y46*%
G04 Gerber Fmt 4.6, Leading zero omitted, Abs format (unit mm)*
G04 Created by KiCad (PCBNEW 10.0.0) date 2026-08-07 22:23:52*
%MOMM*%
%LPD*%
G01*
G04 APERTURE LIST*
G04 Aperture macros list*
%AMRoundRect*
0 Rectangle with rounded corners*
0 $1 Rounding radius*
0 $2 $3 $4 $5 $6 $7 $8 $9 X,Y pos of 4 corners*
0 Add a 4 corners polygon primitive as box body*
4,1,4,$2,$3,$4,$5,$6,$7,$8,$9,$2,$3,0*
0 Add four circle primitives for the rounded corners*
1,1,$1+$1,$2,$3*
1,1,$1+$1,$4,$5*
1,1,$1+$1,$6,$7*
1,1,$1+$1,$8,$9*
0 Add four rect primitives between the rounded corners*
20,1,$1+$1,$2,$3,$4,$5,0*
20,1,$1+$1,$4,$5,$6,$7,0*
20,1,$1+$1,$6,$7,$8,$9,0*
20,1,$1+$1,$8,$9,$2,$3,0*%
G04 Aperture macros list end*
%ADD10RoundRect,0.150000X0.587500X0.150000X-0.587500X0.150000X-0.587500X-0.150000X0.587500X-0.150000X0*%
%ADD11RoundRect,0.250000X0.262500X0.450000X-0.262500X0.450000X-0.262500X-0.450000X0.262500X-0.450000X0*%
%ADD12R,1.700000X1.700000*%
%ADD13C,1.700000*%
%ADD14RoundRect,0.250000X-0.262500X-0.450000X0.262500X-0.450000X0.262500X0.450000X-0.262500X0.450000X0*%
%ADD15RoundRect,0.250000X-1.330000X-1.850000X1.330000X-1.850000X1.330000X1.850000X-1.330000X1.850000X0*%
%ADD16O,3.160000X4.200000*%
%ADD17RoundRect,0.250000X-0.450000X0.262500X-0.450000X-0.262500X0.450000X-0.262500X0.450000X0.262500X0*%
%ADD18C,2.200000*%
%ADD19R,2.200000X2.200000*%
G04 APERTURE END LIST*
D10*
%TO.C,Q16*%
X85687500Y-110950000D03*
X85687500Y-109050000D03*
X83812500Y-110000000D03*
%TD*%
D11*
%TO.C,R29*%
X92412500Y-106250000D03*
X90587500Y-106250000D03*
%TD*%
D12*
%TO.C,J10*%
X72450000Y-68760000D03*
D13*
X72450000Y-71300000D03*
X72450000Y-73840000D03*
X72450000Y-76380000D03*
X72450000Y-78920000D03*
X72450000Y-81460000D03*
X72450000Y-84000000D03*
X72450000Y-86540000D03*
X72450000Y-89080000D03*
X72450000Y-91620000D03*
X72450000Y-94160000D03*
X72450000Y-96700000D03*
X72450000Y-99240000D03*
X72450000Y-101780000D03*
X72450000Y-104320000D03*
%TD*%
D10*
%TO.C,Q1*%
X79187500Y-69700000D03*
X79187500Y-67800000D03*
X77312500Y-68750000D03*
%TD*%
%TO.C,Q2*%
X85500000Y-72200000D03*
X85500000Y-70300000D03*
X83625000Y-71250000D03*
%TD*%
D14*
%TO.C,R24*%
X60250000Y-95562500D03*
X62075000Y-95562500D03*
%TD*%
%TO.C,R8*%
X60250000Y-75453125D03*
X62075000Y-75453125D03*
%TD*%
%TO.C,R32*%
X60337500Y-110000000D03*
X62162500Y-110000000D03*
%TD*%
D11*
%TO.C,R25*%
X93825000Y-97000000D03*
X92000000Y-97000000D03*
%TD*%
D14*
%TO.C,R14*%
X60250000Y-82156250D03*
X62075000Y-82156250D03*
%TD*%
%TO.C,R28*%
X60250000Y-100031250D03*
X62075000Y-100031250D03*
%TD*%
D10*
%TO.C,Q14*%
X85750000Y-102700000D03*
X85750000Y-100800000D03*
X83875000Y-101750000D03*
%TD*%
D15*
%TO.C,J14*%
X76540000Y-50000000D03*
D16*
X80500000Y-50000000D03*
X84460000Y-50000000D03*
X88420000Y-50000000D03*
%TD*%
D17*
%TO.C,R31*%
X89000000Y-109087500D03*
X89000000Y-110912500D03*
%TD*%
D11*
%TO.C,R27*%
X92412500Y-102500000D03*
X90587500Y-102500000D03*
%TD*%
D14*
%TO.C,R3*%
X88087500Y-71000000D03*
X89912500Y-71000000D03*
%TD*%
D10*
%TO.C,Q11*%
X79187500Y-95200000D03*
X79187500Y-93300000D03*
X77312500Y-94250000D03*
%TD*%
D14*
%TO.C,R16*%
X60250000Y-84390625D03*
X62075000Y-84390625D03*
%TD*%
D10*
%TO.C,Q8*%
X85687500Y-87450000D03*
X85687500Y-85550000D03*
X83812500Y-86500000D03*
%TD*%
D11*
%TO.C,R13*%
X94250000Y-81500000D03*
X92425000Y-81500000D03*
%TD*%
D14*
%TO.C,R4*%
X60250000Y-70984375D03*
X62075000Y-70984375D03*
%TD*%
%TO.C,R11*%
X88000000Y-81500000D03*
X89825000Y-81500000D03*
%TD*%
D18*
%TO.C,H1*%
X59000000Y-45000000D03*
%TD*%
D10*
%TO.C,Q12*%
X85687500Y-97700000D03*
X85687500Y-95800000D03*
X83812500Y-96750000D03*
%TD*%
D14*
%TO.C,R26*%
X60250000Y-97796875D03*
X62075000Y-97796875D03*
%TD*%
D12*
%TO.C,J15*%
X65500000Y-110000000D03*
%TD*%
D11*
%TO.C,R17*%
X94412500Y-86500000D03*
X92587500Y-86500000D03*
%TD*%
D14*
%TO.C,R7*%
X88000000Y-76000000D03*
X89825000Y-76000000D03*
%TD*%
D12*
%TO.C,U1*%
X98000000Y-61900000D03*
D13*
X98000000Y-64440000D03*
X98000000Y-66980000D03*
X98000000Y-69520000D03*
X98000000Y-72060000D03*
X98000000Y-74600000D03*
X98000000Y-77140000D03*
X98000000Y-79680000D03*
X98000000Y-82220000D03*
X98000000Y-84760000D03*
X98000000Y-87300000D03*
X98000000Y-89840000D03*
X98000000Y-92380000D03*
X98000000Y-94920000D03*
X98000000Y-97460000D03*
X98000000Y-100000000D03*
X98000000Y-102540000D03*
X98000000Y-105080000D03*
X98000000Y-107620000D03*
X98000000Y-110160000D03*
X98000000Y-112700000D03*
X98000000Y-115240000D03*
X123400000Y-61900000D03*
X123400000Y-64440000D03*
X123400000Y-66980000D03*
X123400000Y-69520000D03*
X123400000Y-72060000D03*
X123400000Y-74600000D03*
X123400000Y-77140000D03*
X123400000Y-79680000D03*
X123400000Y-82220000D03*
X123400000Y-84760000D03*
X123400000Y-87300000D03*
X123400000Y-89840000D03*
X123400000Y-92380000D03*
X123400000Y-94920000D03*
X123400000Y-97460000D03*
X123400000Y-100000000D03*
X123400000Y-102540000D03*
X123400000Y-105080000D03*
X123400000Y-107620000D03*
X123400000Y-110160000D03*
X123400000Y-112700000D03*
X123400000Y-115240000D03*
%TD*%
D10*
%TO.C,Q4*%
X85500000Y-77250000D03*
X85500000Y-75350000D03*
X83625000Y-76300000D03*
%TD*%
D18*
%TO.C,H4*%
X125250000Y-126500000D03*
%TD*%
D14*
%TO.C,R20*%
X60250000Y-91093750D03*
X62075000Y-91093750D03*
%TD*%
D11*
%TO.C,R9*%
X94250000Y-76000000D03*
X92425000Y-76000000D03*
%TD*%
D12*
%TO.C,J9*%
X66000000Y-48725000D03*
D13*
X66000000Y-51265000D03*
%TD*%
D18*
%TO.C,H2*%
X124700000Y-45000000D03*
%TD*%
D10*
%TO.C,Q7*%
X79187500Y-84950000D03*
X79187500Y-83050000D03*
X77312500Y-84000000D03*
%TD*%
%TO.C,Q6*%
X85687500Y-82450000D03*
X85687500Y-80550000D03*
X83812500Y-81500000D03*
%TD*%
D14*
%TO.C,R2*%
X60250000Y-68750000D03*
X62075000Y-68750000D03*
%TD*%
D11*
%TO.C,R5*%
X94162500Y-71000000D03*
X92337500Y-71000000D03*
%TD*%
D10*
%TO.C,Q5*%
X79187500Y-79950000D03*
X79187500Y-78050000D03*
X77312500Y-79000000D03*
%TD*%
%TO.C,Q3*%
X79187500Y-74700000D03*
X79187500Y-72800000D03*
X77312500Y-73750000D03*
%TD*%
%TO.C,Q9*%
X79187500Y-89950000D03*
X79187500Y-88050000D03*
X77312500Y-89000000D03*
%TD*%
D18*
%TO.C,H3*%
X59500000Y-126500000D03*
%TD*%
D11*
%TO.C,R19*%
X94250000Y-92500000D03*
X92425000Y-92500000D03*
%TD*%
D19*
%TO.C,J13*%
X96285000Y-50000000D03*
D18*
X100095000Y-50000000D03*
X103905000Y-50000000D03*
X107715000Y-50000000D03*
%TD*%
D14*
%TO.C,R23*%
X88000000Y-97000000D03*
X89825000Y-97000000D03*
%TD*%
%TO.C,R12*%
X60250000Y-79921875D03*
X62075000Y-79921875D03*
%TD*%
%TO.C,R21*%
X88250000Y-92500000D03*
X90075000Y-92500000D03*
%TD*%
%TO.C,R15*%
X87837500Y-86500000D03*
X89662500Y-86500000D03*
%TD*%
%TO.C,R30*%
X60250000Y-104500000D03*
X62075000Y-104500000D03*
%TD*%
%TO.C,R10*%
X60250000Y-77687500D03*
X62075000Y-77687500D03*
%TD*%
D10*
%TO.C,Q10*%
X85687500Y-92450000D03*
X85687500Y-90550000D03*
X83812500Y-91500000D03*
%TD*%
%TO.C,Q15*%
X79187500Y-105200000D03*
X79187500Y-103300000D03*
X77312500Y-104250000D03*
%TD*%
D14*
%TO.C,R18*%
X60250000Y-88859375D03*
X62075000Y-88859375D03*
%TD*%
D10*
%TO.C,Q13*%
X79187500Y-100200000D03*
X79187500Y-98300000D03*
X77312500Y-99250000D03*
%TD*%
D14*
%TO.C,R22*%
X60250000Y-93328125D03*
X62075000Y-93328125D03*
%TD*%
%TO.C,R6*%
X60250000Y-73218750D03*
X62075000Y-73218750D03*
%TD*%
D12*
%TO.C,J20*%
X65500000Y-68845000D03*
D13*
X65500000Y-71385000D03*
X65500000Y-73925000D03*
X65500000Y-76465000D03*
X65500000Y-79005000D03*
X65500000Y-81545000D03*
X65500000Y-84085000D03*
X65500000Y-86625000D03*
X65500000Y-89165000D03*
X65500000Y-91705000D03*
X65500000Y-94245000D03*
X65500000Y-96785000D03*
X65500000Y-99325000D03*
X65500000Y-101865000D03*
X65500000Y-104405000D03*
%TD*%
D14*
%TO.C,R1*%
X88087500Y-66000000D03*
X89912500Y-66000000D03*
%TD*%
M02*
