M48
; DRILL file KiCad 10.0.0 date 2026-08-07T22:23:52
; FORMAT={-:-/ absolute / metric / decimal}
; #@! TF.CreationDate,2026-08-07T22:23:52-05:00
; #@! TF.GenerationSoftware,Kicad,Pcbnew,10.0.0
; #@! TF.FileFunction,MixedPlating,1,2
FMAT,2
METRIC
; #@! TA.AperFunction,Plated,PTH,ViaDrill
T1C0.300
; #@! TA.AperFunction,Plated,PTH,ComponentDrill
T2C1.000
; #@! TA.AperFunction,Plated,PTH,ComponentDrill
T3C1.100
; #@! TA.AperFunction,Plated,PTH,ComponentDrill
T4C1.800
; #@! TA.AperFunction,NonPlated,NPTH,ComponentDrill
T5C2.200
%
G90
G05
T1
X82.25Y-69.75
X82.25Y-74.7
X82.25Y-79.95
X82.25Y-85.0
X82.25Y-89.95
X82.25Y-95.25
X82.25Y-100.25
X82.25Y-105.25
X87.5Y-102.5
X87.5Y-106.25
X89.0Y-112.5
X90.75Y-97.0
X91.25Y-71.0
X91.25Y-76.0
X91.25Y-81.5
X91.25Y-86.25
X91.25Y-92.5
T2
X65.5Y-68.845
X65.5Y-71.385
X65.5Y-73.925
X65.5Y-76.465
X65.5Y-79.005
X65.5Y-81.545
X65.5Y-84.085
X65.5Y-86.625
X65.5Y-89.165
X65.5Y-91.705
X65.5Y-94.245
X65.5Y-96.785
X65.5Y-99.325
X65.5Y-101.865
X65.5Y-104.405
X65.5Y-110.0
X66.0Y-48.725
X66.0Y-51.265
X72.45Y-68.76
X72.45Y-71.3
X72.45Y-73.84
X72.45Y-76.38
X72.45Y-78.92
X72.45Y-81.46
X72.45Y-84.0
X72.45Y-86.54
X72.45Y-89.08
X72.45Y-91.62
X72.45Y-94.16
X72.45Y-96.7
X72.45Y-99.24
X72.45Y-101.78
X72.45Y-104.32
X98.0Y-61.9
X98.0Y-64.44
X98.0Y-66.98
X98.0Y-69.52
X98.0Y-72.06
X98.0Y-74.6
X98.0Y-77.14
X98.0Y-79.68
X98.0Y-82.22
X98.0Y-84.76
X98.0Y-87.3
X98.0Y-89.84
X98.0Y-92.38
X98.0Y-94.92
X98.0Y-97.46
X98.0Y-100.0
X98.0Y-102.54
X98.0Y-105.08
X98.0Y-107.62
X98.0Y-110.16
X98.0Y-112.7
X98.0Y-115.24
X123.4Y-61.9
X123.4Y-64.44
X123.4Y-66.98
X123.4Y-69.52
X123.4Y-72.06
X123.4Y-74.6
X123.4Y-77.14
X123.4Y-79.68
X123.4Y-82.22
X123.4Y-84.76
X123.4Y-87.3
X123.4Y-89.84
X123.4Y-92.38
X123.4Y-94.92
X123.4Y-97.46
X123.4Y-100.0
X123.4Y-102.54
X123.4Y-105.08
X123.4Y-107.62
X123.4Y-110.16
X123.4Y-112.7
X123.4Y-115.24
T3
X96.285Y-50.0
X100.095Y-50.0
X103.905Y-50.0
X107.715Y-50.0
T4
X76.54Y-50.0
X80.5Y-50.0
X84.46Y-50.0
X88.42Y-50.0
T5
X59.0Y-45.0
X59.5Y-126.5
X124.7Y-45.0
X125.25Y-126.5
M30
